  0
SECTION
  2
BLOCKS
  0
ENDSEC
  0
SECTION
  2
ENTITIES
  0
LINE
  8
0
 10
194.223
 20
-224.975
 11
194.434
 21
-224.901
  0
LINE
  8
0
 10
194.434
 20
-224.901
 11
194.623
 21
-224.782
  0
LINE
  8
0
 10
194.623
 20
-224.782
 11
194.782
 21
-224.623
  0
LINE
  8
0
 10
194.782
 20
-224.623
 11
194.901
 21
-224.434
  0
LINE
  8
0
 10
194.901
 20
-224.434
 11
194.975
 21
-224.223
  0
LINE
  8
0
 10
194.975
 20
-224.223
 11
195
 21
-224
  0
LINE
  8
0
 10
195
 20
-224
 11
195
 21
224
  0
LINE
  8
0
 10
195
 20
224
 11
194.975
 21
224.223
  0
LINE
  8
0
 10
194.975
 20
224.223
 11
194.901
 21
224.434
  0
LINE
  8
0
 10
194.901
 20
224.434
 11
194.782
 21
224.623
  0
LINE
  8
0
 10
194.782
 20
224.623
 11
194.623
 21
224.782
  0
LINE
  8
0
 10
194.623
 20
224.782
 11
194.434
 21
224.901
  0
LINE
  8
0
 10
194.434
 20
224.901
 11
194.223
 21
224.975
  0
LINE
  8
0
 10
194.223
 20
224.975
 11
194
 21
225
  0
LINE
  8
0
 10
194
 20
225
 11
-194
 21
225
  0
LINE
  8
0
 10
-194
 20
225
 11
-194.223
 21
224.975
  0
LINE
  8
0
 10
-194.223
 20
224.975
 11
-194.434
 21
224.901
  0
LINE
  8
0
 10
-194.434
 20
224.901
 11
-194.623
 21
224.782
  0
LINE
  8
0
 10
-194.623
 20
224.782
 11
-194.782
 21
224.623
  0
LINE
  8
0
 10
-194.782
 20
224.623
 11
-194.901
 21
224.434
  0
LINE
  8
0
 10
-194.901
 20
224.434
 11
-194.975
 21
224.223
  0
LINE
  8
0
 10
-194.975
 20
224.223
 11
-195
 21
224
  0
LINE
  8
0
 10
-195
 20
224
 11
-195
 21
-224
  0
LINE
  8
0
 10
-195
 20
-224
 11
-194.975
 21
-224.223
  0
LINE
  8
0
 10
-194.975
 20
-224.223
 11
-194.901
 21
-224.434
  0
LINE
  8
0
 10
-194.901
 20
-224.434
 11
-194.782
 21
-224.623
  0
LINE
  8
0
 10
-194.782
 20
-224.623
 11
-194.623
 21
-224.782
  0
LINE
  8
0
 10
-194.623
 20
-224.782
 11
-194.434
 21
-224.901
  0
LINE
  8
0
 10
-194.434
 20
-224.901
 11
-194.223
 21
-224.975
  0
LINE
  8
0
 10
-194.223
 20
-224.975
 11
-194
 21
-225
  0
LINE
  8
0
 10
-194
 20
-225
 11
194
 21
-225
  0
LINE
  8
0
 10
194
 20
-225
 11
194.223
 21
-224.975
  0
LINE
  8
0
 10
184.738
 20
212.51
 11
184.48
 21
212.551
  0
LINE
  8
0
 10
184.48
 20
212.551
 11
184.226
 21
212.619
  0
LINE
  8
0
 10
184.226
 20
212.619
 11
183.982
 21
212.713
  0
LINE
  8
0
 10
183.982
 20
212.713
 11
183.748
 21
212.832
  0
LINE
  8
0
 10
183.748
 20
212.832
 11
183.529
 21
212.975
  0
LINE
  8
0
 10
183.529
 20
212.975
 11
183.325
 21
213.14
  0
LINE
  8
0
 10
183.325
 20
213.14
 11
183.14
 21
213.325
  0
LINE
  8
0
 10
183.14
 20
213.325
 11
182.975
 21
213.529
  0
LINE
  8
0
 10
182.975
 20
213.529
 11
182.832
 21
213.748
  0
LINE
  8
0
 10
182.832
 20
213.748
 11
182.713
 21
213.982
  0
LINE
  8
0
 10
182.713
 20
213.982
 11
182.619
 21
214.226
  0
LINE
  8
0
 10
182.619
 20
214.226
 11
182.551
 21
214.48
  0
LINE
  8
0
 10
182.551
 20
214.48
 11
182.51
 21
214.738
  0
LINE
  8
0
 10
182.51
 20
214.738
 11
182.497
 21
215
  0
LINE
  8
0
 10
182.497
 20
215
 11
182.51
 21
215.262
  0
LINE
  8
0
 10
182.51
 20
215.262
 11
182.551
 21
215.52
  0
LINE
  8
0
 10
182.551
 20
215.52
 11
182.619
 21
215.774
  0
LINE
  8
0
 10
182.619
 20
215.774
 11
182.713
 21
216.018
  0
LINE
  8
0
 10
182.713
 20
216.018
 11
182.832
 21
216.252
  0
LINE
  8
0
 10
182.832
 20
216.252
 11
182.975
 21
216.471
  0
LINE
  8
0
 10
182.975
 20
216.471
 11
183.14
 21
216.675
  0
LINE
  8
0
 10
183.14
 20
216.675
 11
183.325
 21
216.86
  0
LINE
  8
0
 10
183.325
 20
216.86
 11
183.529
 21
217.025
  0
LINE
  8
0
 10
183.529
 20
217.025
 11
183.748
 21
217.168
  0
LINE
  8
0
 10
183.748
 20
217.168
 11
183.982
 21
217.287
  0
LINE
  8
0
 10
183.982
 20
217.287
 11
184.226
 21
217.381
  0
LINE
  8
0
 10
184.226
 20
217.381
 11
184.48
 21
217.449
  0
LINE
  8
0
 10
184.48
 20
217.449
 11
184.738
 21
217.49
  0
LINE
  8
0
 10
184.738
 20
217.49
 11
185
 21
217.503
  0
LINE
  8
0
 10
185
 20
217.503
 11
185.262
 21
217.49
  0
LINE
  8
0
 10
185.262
 20
217.49
 11
185.52
 21
217.449
  0
LINE
  8
0
 10
185.52
 20
217.449
 11
185.774
 21
217.381
  0
LINE
  8
0
 10
185.774
 20
217.381
 11
186.018
 21
217.287
  0
LINE
  8
0
 10
186.018
 20
217.287
 11
186.252
 21
217.168
  0
LINE
  8
0
 10
186.252
 20
217.168
 11
186.471
 21
217.025
  0
LINE
  8
0
 10
186.471
 20
217.025
 11
186.675
 21
216.86
  0
LINE
  8
0
 10
186.675
 20
216.86
 11
186.86
 21
216.675
  0
LINE
  8
0
 10
186.86
 20
216.675
 11
187.025
 21
216.471
  0
LINE
  8
0
 10
187.025
 20
216.471
 11
187.168
 21
216.252
  0
LINE
  8
0
 10
187.168
 20
216.252
 11
187.287
 21
216.018
  0
LINE
  8
0
 10
187.287
 20
216.018
 11
187.381
 21
215.774
  0
LINE
  8
0
 10
187.381
 20
215.774
 11
187.449
 21
215.52
  0
LINE
  8
0
 10
187.449
 20
215.52
 11
187.49
 21
215.262
  0
LINE
  8
0
 10
187.49
 20
215.262
 11
187.503
 21
215
  0
LINE
  8
0
 10
187.503
 20
215
 11
187.49
 21
214.738
  0
LINE
  8
0
 10
187.49
 20
214.738
 11
187.449
 21
214.48
  0
LINE
  8
0
 10
187.449
 20
214.48
 11
187.381
 21
214.226
  0
LINE
  8
0
 10
187.381
 20
214.226
 11
187.287
 21
213.982
  0
LINE
  8
0
 10
187.287
 20
213.982
 11
187.168
 21
213.748
  0
LINE
  8
0
 10
187.168
 20
213.748
 11
187.025
 21
213.529
  0
LINE
  8
0
 10
187.025
 20
213.529
 11
186.86
 21
213.325
  0
LINE
  8
0
 10
186.86
 20
213.325
 11
186.675
 21
213.14
  0
LINE
  8
0
 10
186.675
 20
213.14
 11
186.471
 21
212.975
  0
LINE
  8
0
 10
186.471
 20
212.975
 11
186.252
 21
212.832
  0
LINE
  8
0
 10
186.252
 20
212.832
 11
186.018
 21
212.713
  0
LINE
  8
0
 10
186.018
 20
212.713
 11
185.774
 21
212.619
  0
LINE
  8
0
 10
185.774
 20
212.619
 11
185.52
 21
212.551
  0
LINE
  8
0
 10
185.52
 20
212.551
 11
185.262
 21
212.51
  0
LINE
  8
0
 10
185.262
 20
212.51
 11
185
 21
212.497
  0
LINE
  8
0
 10
185
 20
212.497
 11
184.738
 21
212.51
  0
LINE
  8
0
 10
-165.262
 20
212.51
 11
-165.52
 21
212.551
  0
LINE
  8
0
 10
-165.52
 20
212.551
 11
-165.774
 21
212.619
  0
LINE
  8
0
 10
-165.774
 20
212.619
 11
-166.018
 21
212.713
  0
LINE
  8
0
 10
-166.018
 20
212.713
 11
-166.252
 21
212.832
  0
LINE
  8
0
 10
-166.252
 20
212.832
 11
-166.471
 21
212.975
  0
LINE
  8
0
 10
-166.471
 20
212.975
 11
-166.675
 21
213.14
  0
LINE
  8
0
 10
-166.675
 20
213.14
 11
-166.86
 21
213.325
  0
LINE
  8
0
 10
-166.86
 20
213.325
 11
-167.025
 21
213.529
  0
LINE
  8
0
 10
-167.025
 20
213.529
 11
-167.168
 21
213.748
  0
LINE
  8
0
 10
-167.168
 20
213.748
 11
-167.287
 21
213.982
  0
LINE
  8
0
 10
-167.287
 20
213.982
 11
-167.381
 21
214.226
  0
LINE
  8
0
 10
-167.381
 20
214.226
 11
-167.449
 21
214.48
  0
LINE
  8
0
 10
-167.449
 20
214.48
 11
-167.49
 21
214.738
  0
LINE
  8
0
 10
-167.49
 20
214.738
 11
-167.503
 21
215
  0
LINE
  8
0
 10
-167.503
 20
215
 11
-167.49
 21
215.262
  0
LINE
  8
0
 10
-167.49
 20
215.262
 11
-167.449
 21
215.52
  0
LINE
  8
0
 10
-167.449
 20
215.52
 11
-167.381
 21
215.774
  0
LINE
  8
0
 10
-167.381
 20
215.774
 11
-167.287
 21
216.018
  0
LINE
  8
0
 10
-167.287
 20
216.018
 11
-167.168
 21
216.252
  0
LINE
  8
0
 10
-167.168
 20
216.252
 11
-167.025
 21
216.471
  0
LINE
  8
0
 10
-167.025
 20
216.471
 11
-166.86
 21
216.675
  0
LINE
  8
0
 10
-166.86
 20
216.675
 11
-166.675
 21
216.86
  0
LINE
  8
0
 10
-166.675
 20
216.86
 11
-166.471
 21
217.025
  0
LINE
  8
0
 10
-166.471
 20
217.025
 11
-166.252
 21
217.168
  0
LINE
  8
0
 10
-166.252
 20
217.168
 11
-166.018
 21
217.287
  0
LINE
  8
0
 10
-166.018
 20
217.287
 11
-165.774
 21
217.381
  0
LINE
  8
0
 10
-165.774
 20
217.381
 11
-165.52
 21
217.449
  0
LINE
  8
0
 10
-165.52
 20
217.449
 11
-165.262
 21
217.49
  0
LINE
  8
0
 10
-165.262
 20
217.49
 11
-165
 21
217.503
  0
LINE
  8
0
 10
-165
 20
217.503
 11
-164.738
 21
217.49
  0
LINE
  8
0
 10
-164.738
 20
217.49
 11
-164.48
 21
217.449
  0
LINE
  8
0
 10
-164.48
 20
217.449
 11
-164.226
 21
217.381
  0
LINE
  8
0
 10
-164.226
 20
217.381
 11
-163.982
 21
217.287
  0
LINE
  8
0
 10
-163.982
 20
217.287
 11
-163.748
 21
217.168
  0
LINE
  8
0
 10
-163.748
 20
217.168
 11
-163.529
 21
217.025
  0
LINE
  8
0
 10
-163.529
 20
217.025
 11
-163.325
 21
216.86
  0
LINE
  8
0
 10
-163.325
 20
216.86
 11
-163.14
 21
216.675
  0
LINE
  8
0
 10
-163.14
 20
216.675
 11
-162.975
 21
216.471
  0
LINE
  8
0
 10
-162.975
 20
216.471
 11
-162.832
 21
216.252
  0
LINE
  8
0
 10
-162.832
 20
216.252
 11
-162.713
 21
216.018
  0
LINE
  8
0
 10
-162.713
 20
216.018
 11
-162.619
 21
215.774
  0
LINE
  8
0
 10
-162.619
 20
215.774
 11
-162.551
 21
215.52
  0
LINE
  8
0
 10
-162.551
 20
215.52
 11
-162.51
 21
215.262
  0
LINE
  8
0
 10
-162.51
 20
215.262
 11
-162.497
 21
215
  0
LINE
  8
0
 10
-162.497
 20
215
 11
-162.51
 21
214.738
  0
LINE
  8
0
 10
-162.51
 20
214.738
 11
-162.551
 21
214.48
  0
LINE
  8
0
 10
-162.551
 20
214.48
 11
-162.619
 21
214.226
  0
LINE
  8
0
 10
-162.619
 20
214.226
 11
-162.713
 21
213.982
  0
LINE
  8
0
 10
-162.713
 20
213.982
 11
-162.832
 21
213.748
  0
LINE
  8
0
 10
-162.832
 20
213.748
 11
-162.975
 21
213.529
  0
LINE
  8
0
 10
-162.975
 20
213.529
 11
-163.14
 21
213.325
  0
LINE
  8
0
 10
-163.14
 20
213.325
 11
-163.325
 21
213.14
  0
LINE
  8
0
 10
-163.325
 20
213.14
 11
-163.529
 21
212.975
  0
LINE
  8
0
 10
-163.529
 20
212.975
 11
-163.748
 21
212.832
  0
LINE
  8
0
 10
-163.748
 20
212.832
 11
-163.982
 21
212.713
  0
LINE
  8
0
 10
-163.982
 20
212.713
 11
-164.226
 21
212.619
  0
LINE
  8
0
 10
-164.226
 20
212.619
 11
-164.48
 21
212.551
  0
LINE
  8
0
 10
-164.48
 20
212.551
 11
-164.738
 21
212.51
  0
LINE
  8
0
 10
-164.738
 20
212.51
 11
-165
 21
212.497
  0
LINE
  8
0
 10
-165
 20
212.497
 11
-165.262
 21
212.51
  0
LINE
  8
0
 10
-145.262
 20
212.51
 11
-145.52
 21
212.551
  0
LINE
  8
0
 10
-145.52
 20
212.551
 11
-145.774
 21
212.619
  0
LINE
  8
0
 10
-145.774
 20
212.619
 11
-146.018
 21
212.713
  0
LINE
  8
0
 10
-146.018
 20
212.713
 11
-146.252
 21
212.832
  0
LINE
  8
0
 10
-146.252
 20
212.832
 11
-146.471
 21
212.975
  0
LINE
  8
0
 10
-146.471
 20
212.975
 11
-146.675
 21
213.14
  0
LINE
  8
0
 10
-146.675
 20
213.14
 11
-146.86
 21
213.325
  0
LINE
  8
0
 10
-146.86
 20
213.325
 11
-147.025
 21
213.529
  0
LINE
  8
0
 10
-147.025
 20
213.529
 11
-147.168
 21
213.748
  0
LINE
  8
0
 10
-147.168
 20
213.748
 11
-147.287
 21
213.982
  0
LINE
  8
0
 10
-147.287
 20
213.982
 11
-147.381
 21
214.226
  0
LINE
  8
0
 10
-147.381
 20
214.226
 11
-147.449
 21
214.48
  0
LINE
  8
0
 10
-147.449
 20
214.48
 11
-147.49
 21
214.738
  0
LINE
  8
0
 10
-147.49
 20
214.738
 11
-147.503
 21
215
  0
LINE
  8
0
 10
-147.503
 20
215
 11
-147.49
 21
215.262
  0
LINE
  8
0
 10
-147.49
 20
215.262
 11
-147.449
 21
215.52
  0
LINE
  8
0
 10
-147.449
 20
215.52
 11
-147.381
 21
215.774
  0
LINE
  8
0
 10
-147.381
 20
215.774
 11
-147.287
 21
216.018
  0
LINE
  8
0
 10
-147.287
 20
216.018
 11
-147.168
 21
216.252
  0
LINE
  8
0
 10
-147.168
 20
216.252
 11
-147.025
 21
216.471
  0
LINE
  8
0
 10
-147.025
 20
216.471
 11
-146.86
 21
216.675
  0
LINE
  8
0
 10
-146.86
 20
216.675
 11
-146.675
 21
216.86
  0
LINE
  8
0
 10
-146.675
 20
216.86
 11
-146.471
 21
217.025
  0
LINE
  8
0
 10
-146.471
 20
217.025
 11
-146.252
 21
217.168
  0
LINE
  8
0
 10
-146.252
 20
217.168
 11
-146.018
 21
217.287
  0
LINE
  8
0
 10
-146.018
 20
217.287
 11
-145.774
 21
217.381
  0
LINE
  8
0
 10
-145.774
 20
217.381
 11
-145.52
 21
217.449
  0
LINE
  8
0
 10
-145.52
 20
217.449
 11
-145.262
 21
217.49
  0
LINE
  8
0
 10
-145.262
 20
217.49
 11
-145
 21
217.503
  0
LINE
  8
0
 10
-145
 20
217.503
 11
-144.738
 21
217.49
  0
LINE
  8
0
 10
-144.738
 20
217.49
 11
-144.48
 21
217.449
  0
LINE
  8
0
 10
-144.48
 20
217.449
 11
-144.226
 21
217.381
  0
LINE
  8
0
 10
-144.226
 20
217.381
 11
-143.982
 21
217.287
  0
LINE
  8
0
 10
-143.982
 20
217.287
 11
-143.748
 21
217.168
  0
LINE
  8
0
 10
-143.748
 20
217.168
 11
-143.529
 21
217.025
  0
LINE
  8
0
 10
-143.529
 20
217.025
 11
-143.325
 21
216.86
  0
LINE
  8
0
 10
-143.325
 20
216.86
 11
-143.14
 21
216.675
  0
LINE
  8
0
 10
-143.14
 20
216.675
 11
-142.975
 21
216.471
  0
LINE
  8
0
 10
-142.975
 20
216.471
 11
-142.832
 21
216.252
  0
LINE
  8
0
 10
-142.832
 20
216.252
 11
-142.713
 21
216.018
  0
LINE
  8
0
 10
-142.713
 20
216.018
 11
-142.619
 21
215.774
  0
LINE
  8
0
 10
-142.619
 20
215.774
 11
-142.551
 21
215.52
  0
LINE
  8
0
 10
-142.551
 20
215.52
 11
-142.51
 21
215.262
  0
LINE
  8
0
 10
-142.51
 20
215.262
 11
-142.497
 21
215
  0
LINE
  8
0
 10
-142.497
 20
215
 11
-142.51
 21
214.738
  0
LINE
  8
0
 10
-142.51
 20
214.738
 11
-142.551
 21
214.48
  0
LINE
  8
0
 10
-142.551
 20
214.48
 11
-142.619
 21
214.226
  0
LINE
  8
0
 10
-142.619
 20
214.226
 11
-142.713
 21
213.982
  0
LINE
  8
0
 10
-142.713
 20
213.982
 11
-142.832
 21
213.748
  0
LINE
  8
0
 10
-142.832
 20
213.748
 11
-142.975
 21
213.529
  0
LINE
  8
0
 10
-142.975
 20
213.529
 11
-143.14
 21
213.325
  0
LINE
  8
0
 10
-143.14
 20
213.325
 11
-143.325
 21
213.14
  0
LINE
  8
0
 10
-143.325
 20
213.14
 11
-143.529
 21
212.975
  0
LINE
  8
0
 10
-143.529
 20
212.975
 11
-143.748
 21
212.832
  0
LINE
  8
0
 10
-143.748
 20
212.832
 11
-143.982
 21
212.713
  0
LINE
  8
0
 10
-143.982
 20
212.713
 11
-144.226
 21
212.619
  0
LINE
  8
0
 10
-144.226
 20
212.619
 11
-144.48
 21
212.551
  0
LINE
  8
0
 10
-144.48
 20
212.551
 11
-144.738
 21
212.51
  0
LINE
  8
0
 10
-144.738
 20
212.51
 11
-145
 21
212.497
  0
LINE
  8
0
 10
-145
 20
212.497
 11
-145.262
 21
212.51
  0
LINE
  8
0
 10
164.738
 20
212.51
 11
164.48
 21
212.551
  0
LINE
  8
0
 10
164.48
 20
212.551
 11
164.226
 21
212.619
  0
LINE
  8
0
 10
164.226
 20
212.619
 11
163.982
 21
212.713
  0
LINE
  8
0
 10
163.982
 20
212.713
 11
163.748
 21
212.832
  0
LINE
  8
0
 10
163.748
 20
212.832
 11
163.529
 21
212.975
  0
LINE
  8
0
 10
163.529
 20
212.975
 11
163.325
 21
213.14
  0
LINE
  8
0
 10
163.325
 20
213.14
 11
163.14
 21
213.325
  0
LINE
  8
0
 10
163.14
 20
213.325
 11
162.975
 21
213.529
  0
LINE
  8
0
 10
162.975
 20
213.529
 11
162.832
 21
213.748
  0
LINE
  8
0
 10
162.832
 20
213.748
 11
162.713
 21
213.982
  0
LINE
  8
0
 10
162.713
 20
213.982
 11
162.619
 21
214.226
  0
LINE
  8
0
 10
162.619
 20
214.226
 11
162.551
 21
214.48
  0
LINE
  8
0
 10
162.551
 20
214.48
 11
162.51
 21
214.738
  0
LINE
  8
0
 10
162.51
 20
214.738
 11
162.497
 21
215
  0
LINE
  8
0
 10
162.497
 20
215
 11
162.51
 21
215.262
  0
LINE
  8
0
 10
162.51
 20
215.262
 11
162.551
 21
215.52
  0
LINE
  8
0
 10
162.551
 20
215.52
 11
162.619
 21
215.774
  0
LINE
  8
0
 10
162.619
 20
215.774
 11
162.713
 21
216.018
  0
LINE
  8
0
 10
162.713
 20
216.018
 11
162.832
 21
216.252
  0
LINE
  8
0
 10
162.832
 20
216.252
 11
162.975
 21
216.471
  0
LINE
  8
0
 10
162.975
 20
216.471
 11
163.14
 21
216.675
  0
LINE
  8
0
 10
163.14
 20
216.675
 11
163.325
 21
216.86
  0
LINE
  8
0
 10
163.325
 20
216.86
 11
163.529
 21
217.025
  0
LINE
  8
0
 10
163.529
 20
217.025
 11
163.748
 21
217.168
  0
LINE
  8
0
 10
163.748
 20
217.168
 11
163.982
 21
217.287
  0
LINE
  8
0
 10
163.982
 20
217.287
 11
164.226
 21
217.381
  0
LINE
  8
0
 10
164.226
 20
217.381
 11
164.48
 21
217.449
  0
LINE
  8
0
 10
164.48
 20
217.449
 11
164.738
 21
217.49
  0
LINE
  8
0
 10
164.738
 20
217.49
 11
165
 21
217.503
  0
LINE
  8
0
 10
165
 20
217.503
 11
165.262
 21
217.49
  0
LINE
  8
0
 10
165.262
 20
217.49
 11
165.52
 21
217.449
  0
LINE
  8
0
 10
165.52
 20
217.449
 11
165.774
 21
217.381
  0
LINE
  8
0
 10
165.774
 20
217.381
 11
166.018
 21
217.287
  0
LINE
  8
0
 10
166.018
 20
217.287
 11
166.252
 21
217.168
  0
LINE
  8
0
 10
166.252
 20
217.168
 11
166.471
 21
217.025
  0
LINE
  8
0
 10
166.471
 20
217.025
 11
166.675
 21
216.86
  0
LINE
  8
0
 10
166.675
 20
216.86
 11
166.86
 21
216.675
  0
LINE
  8
0
 10
166.86
 20
216.675
 11
167.025
 21
216.471
  0
LINE
  8
0
 10
167.025
 20
216.471
 11
167.168
 21
216.252
  0
LINE
  8
0
 10
167.168
 20
216.252
 11
167.287
 21
216.018
  0
LINE
  8
0
 10
167.287
 20
216.018
 11
167.381
 21
215.774
  0
LINE
  8
0
 10
167.381
 20
215.774
 11
167.449
 21
215.52
  0
LINE
  8
0
 10
167.449
 20
215.52
 11
167.49
 21
215.262
  0
LINE
  8
0
 10
167.49
 20
215.262
 11
167.503
 21
215
  0
LINE
  8
0
 10
167.503
 20
215
 11
167.49
 21
214.738
  0
LINE
  8
0
 10
167.49
 20
214.738
 11
167.449
 21
214.48
  0
LINE
  8
0
 10
167.449
 20
214.48
 11
167.381
 21
214.226
  0
LINE
  8
0
 10
167.381
 20
214.226
 11
167.287
 21
213.982
  0
LINE
  8
0
 10
167.287
 20
213.982
 11
167.168
 21
213.748
  0
LINE
  8
0
 10
167.168
 20
213.748
 11
167.025
 21
213.529
  0
LINE
  8
0
 10
167.025
 20
213.529
 11
166.86
 21
213.325
  0
LINE
  8
0
 10
166.86
 20
213.325
 11
166.675
 21
213.14
  0
LINE
  8
0
 10
166.675
 20
213.14
 11
166.471
 21
212.975
  0
LINE
  8
0
 10
166.471
 20
212.975
 11
166.252
 21
212.832
  0
LINE
  8
0
 10
166.252
 20
212.832
 11
166.018
 21
212.713
  0
LINE
  8
0
 10
166.018
 20
212.713
 11
165.774
 21
212.619
  0
LINE
  8
0
 10
165.774
 20
212.619
 11
165.52
 21
212.551
  0
LINE
  8
0
 10
165.52
 20
212.551
 11
165.262
 21
212.51
  0
LINE
  8
0
 10
165.262
 20
212.51
 11
165
 21
212.497
  0
LINE
  8
0
 10
165
 20
212.497
 11
164.738
 21
212.51
  0
LINE
  8
0
 10
144.738
 20
212.51
 11
144.48
 21
212.551
  0
LINE
  8
0
 10
144.48
 20
212.551
 11
144.226
 21
212.619
  0
LINE
  8
0
 10
144.226
 20
212.619
 11
143.982
 21
212.713
  0
LINE
  8
0
 10
143.982
 20
212.713
 11
143.748
 21
212.832
  0
LINE
  8
0
 10
143.748
 20
212.832
 11
143.529
 21
212.975
  0
LINE
  8
0
 10
143.529
 20
212.975
 11
143.325
 21
213.14
  0
LINE
  8
0
 10
143.325
 20
213.14
 11
143.14
 21
213.325
  0
LINE
  8
0
 10
143.14
 20
213.325
 11
142.975
 21
213.529
  0
LINE
  8
0
 10
142.975
 20
213.529
 11
142.832
 21
213.748
  0
LINE
  8
0
 10
142.832
 20
213.748
 11
142.713
 21
213.982
  0
LINE
  8
0
 10
142.713
 20
213.982
 11
142.619
 21
214.226
  0
LINE
  8
0
 10
142.619
 20
214.226
 11
142.551
 21
214.48
  0
LINE
  8
0
 10
142.551
 20
214.48
 11
142.51
 21
214.738
  0
LINE
  8
0
 10
142.51
 20
214.738
 11
142.497
 21
215
  0
LINE
  8
0
 10
142.497
 20
215
 11
142.51
 21
215.262
  0
LINE
  8
0
 10
142.51
 20
215.262
 11
142.551
 21
215.52
  0
LINE
  8
0
 10
142.551
 20
215.52
 11
142.619
 21
215.774
  0
LINE
  8
0
 10
142.619
 20
215.774
 11
142.713
 21
216.018
  0
LINE
  8
0
 10
142.713
 20
216.018
 11
142.832
 21
216.252
  0
LINE
  8
0
 10
142.832
 20
216.252
 11
142.975
 21
216.471
  0
LINE
  8
0
 10
142.975
 20
216.471
 11
143.14
 21
216.675
  0
LINE
  8
0
 10
143.14
 20
216.675
 11
143.325
 21
216.86
  0
LINE
  8
0
 10
143.325
 20
216.86
 11
143.529
 21
217.025
  0
LINE
  8
0
 10
143.529
 20
217.025
 11
143.748
 21
217.168
  0
LINE
  8
0
 10
143.748
 20
217.168
 11
143.982
 21
217.287
  0
LINE
  8
0
 10
143.982
 20
217.287
 11
144.226
 21
217.381
  0
LINE
  8
0
 10
144.226
 20
217.381
 11
144.48
 21
217.449
  0
LINE
  8
0
 10
144.48
 20
217.449
 11
144.738
 21
217.49
  0
LINE
  8
0
 10
144.738
 20
217.49
 11
145
 21
217.503
  0
LINE
  8
0
 10
145
 20
217.503
 11
145.262
 21
217.49
  0
LINE
  8
0
 10
145.262
 20
217.49
 11
145.52
 21
217.449
  0
LINE
  8
0
 10
145.52
 20
217.449
 11
145.774
 21
217.381
  0
LINE
  8
0
 10
145.774
 20
217.381
 11
146.018
 21
217.287
  0
LINE
  8
0
 10
146.018
 20
217.287
 11
146.252
 21
217.168
  0
LINE
  8
0
 10
146.252
 20
217.168
 11
146.471
 21
217.025
  0
LINE
  8
0
 10
146.471
 20
217.025
 11
146.675
 21
216.86
  0
LINE
  8
0
 10
146.675
 20
216.86
 11
146.86
 21
216.675
  0
LINE
  8
0
 10
146.86
 20
216.675
 11
147.025
 21
216.471
  0
LINE
  8
0
 10
147.025
 20
216.471
 11
147.168
 21
216.252
  0
LINE
  8
0
 10
147.168
 20
216.252
 11
147.287
 21
216.018
  0
LINE
  8
0
 10
147.287
 20
216.018
 11
147.381
 21
215.774
  0
LINE
  8
0
 10
147.381
 20
215.774
 11
147.449
 21
215.52
  0
LINE
  8
0
 10
147.449
 20
215.52
 11
147.49
 21
215.262
  0
LINE
  8
0
 10
147.49
 20
215.262
 11
147.503
 21
215
  0
LINE
  8
0
 10
147.503
 20
215
 11
147.49
 21
214.738
  0
LINE
  8
0
 10
147.49
 20
214.738
 11
147.449
 21
214.48
  0
LINE
  8
0
 10
147.449
 20
214.48
 11
147.381
 21
214.226
  0
LINE
  8
0
 10
147.381
 20
214.226
 11
147.287
 21
213.982
  0
LINE
  8
0
 10
147.287
 20
213.982
 11
147.168
 21
213.748
  0
LINE
  8
0
 10
147.168
 20
213.748
 11
147.025
 21
213.529
  0
LINE
  8
0
 10
147.025
 20
213.529
 11
146.86
 21
213.325
  0
LINE
  8
0
 10
146.86
 20
213.325
 11
146.675
 21
213.14
  0
LINE
  8
0
 10
146.675
 20
213.14
 11
146.471
 21
212.975
  0
LINE
  8
0
 10
146.471
 20
212.975
 11
146.252
 21
212.832
  0
LINE
  8
0
 10
146.252
 20
212.832
 11
146.018
 21
212.713
  0
LINE
  8
0
 10
146.018
 20
212.713
 11
145.774
 21
212.619
  0
LINE
  8
0
 10
145.774
 20
212.619
 11
145.52
 21
212.551
  0
LINE
  8
0
 10
145.52
 20
212.551
 11
145.262
 21
212.51
  0
LINE
  8
0
 10
145.262
 20
212.51
 11
145
 21
212.497
  0
LINE
  8
0
 10
145
 20
212.497
 11
144.738
 21
212.51
  0
LINE
  8
0
 10
-185.262
 20
212.51
 11
-185.52
 21
212.551
  0
LINE
  8
0
 10
-185.52
 20
212.551
 11
-185.774
 21
212.619
  0
LINE
  8
0
 10
-185.774
 20
212.619
 11
-186.018
 21
212.713
  0
LINE
  8
0
 10
-186.018
 20
212.713
 11
-186.252
 21
212.832
  0
LINE
  8
0
 10
-186.252
 20
212.832
 11
-186.471
 21
212.975
  0
LINE
  8
0
 10
-186.471
 20
212.975
 11
-186.675
 21
213.14
  0
LINE
  8
0
 10
-186.675
 20
213.14
 11
-186.86
 21
213.325
  0
LINE
  8
0
 10
-186.86
 20
213.325
 11
-187.025
 21
213.529
  0
LINE
  8
0
 10
-187.025
 20
213.529
 11
-187.168
 21
213.748
  0
LINE
  8
0
 10
-187.168
 20
213.748
 11
-187.287
 21
213.982
  0
LINE
  8
0
 10
-187.287
 20
213.982
 11
-187.381
 21
214.226
  0
LINE
  8
0
 10
-187.381
 20
214.226
 11
-187.449
 21
214.48
  0
LINE
  8
0
 10
-187.449
 20
214.48
 11
-187.49
 21
214.738
  0
LINE
  8
0
 10
-187.49
 20
214.738
 11
-187.503
 21
215
  0
LINE
  8
0
 10
-187.503
 20
215
 11
-187.49
 21
215.262
  0
LINE
  8
0
 10
-187.49
 20
215.262
 11
-187.449
 21
215.52
  0
LINE
  8
0
 10
-187.449
 20
215.52
 11
-187.381
 21
215.774
  0
LINE
  8
0
 10
-187.381
 20
215.774
 11
-187.287
 21
216.018
  0
LINE
  8
0
 10
-187.287
 20
216.018
 11
-187.168
 21
216.252
  0
LINE
  8
0
 10
-187.168
 20
216.252
 11
-187.025
 21
216.471
  0
LINE
  8
0
 10
-187.025
 20
216.471
 11
-186.86
 21
216.675
  0
LINE
  8
0
 10
-186.86
 20
216.675
 11
-186.675
 21
216.86
  0
LINE
  8
0
 10
-186.675
 20
216.86
 11
-186.471
 21
217.025
  0
LINE
  8
0
 10
-186.471
 20
217.025
 11
-186.252
 21
217.168
  0
LINE
  8
0
 10
-186.252
 20
217.168
 11
-186.018
 21
217.287
  0
LINE
  8
0
 10
-186.018
 20
217.287
 11
-185.774
 21
217.381
  0
LINE
  8
0
 10
-185.774
 20
217.381
 11
-185.52
 21
217.449
  0
LINE
  8
0
 10
-185.52
 20
217.449
 11
-185.262
 21
217.49
  0
LINE
  8
0
 10
-185.262
 20
217.49
 11
-185
 21
217.503
  0
LINE
  8
0
 10
-185
 20
217.503
 11
-184.738
 21
217.49
  0
LINE
  8
0
 10
-184.738
 20
217.49
 11
-184.48
 21
217.449
  0
LINE
  8
0
 10
-184.48
 20
217.449
 11
-184.226
 21
217.381
  0
LINE
  8
0
 10
-184.226
 20
217.381
 11
-183.982
 21
217.287
  0
LINE
  8
0
 10
-183.982
 20
217.287
 11
-183.748
 21
217.168
  0
LINE
  8
0
 10
-183.748
 20
217.168
 11
-183.529
 21
217.025
  0
LINE
  8
0
 10
-183.529
 20
217.025
 11
-183.325
 21
216.86
  0
LINE
  8
0
 10
-183.325
 20
216.86
 11
-183.14
 21
216.675
  0
LINE
  8
0
 10
-183.14
 20
216.675
 11
-182.975
 21
216.471
  0
LINE
  8
0
 10
-182.975
 20
216.471
 11
-182.832
 21
216.252
  0
LINE
  8
0
 10
-182.832
 20
216.252
 11
-182.713
 21
216.018
  0
LINE
  8
0
 10
-182.713
 20
216.018
 11
-182.619
 21
215.774
  0
LINE
  8
0
 10
-182.619
 20
215.774
 11
-182.551
 21
215.52
  0
LINE
  8
0
 10
-182.551
 20
215.52
 11
-182.51
 21
215.262
  0
LINE
  8
0
 10
-182.51
 20
215.262
 11
-182.497
 21
215
  0
LINE
  8
0
 10
-182.497
 20
215
 11
-182.51
 21
214.738
  0
LINE
  8
0
 10
-182.51
 20
214.738
 11
-182.551
 21
214.48
  0
LINE
  8
0
 10
-182.551
 20
214.48
 11
-182.619
 21
214.226
  0
LINE
  8
0
 10
-182.619
 20
214.226
 11
-182.713
 21
213.982
  0
LINE
  8
0
 10
-182.713
 20
213.982
 11
-182.832
 21
213.748
  0
LINE
  8
0
 10
-182.832
 20
213.748
 11
-182.975
 21
213.529
  0
LINE
  8
0
 10
-182.975
 20
213.529
 11
-183.14
 21
213.325
  0
LINE
  8
0
 10
-183.14
 20
213.325
 11
-183.325
 21
213.14
  0
LINE
  8
0
 10
-183.325
 20
213.14
 11
-183.529
 21
212.975
  0
LINE
  8
0
 10
-183.529
 20
212.975
 11
-183.748
 21
212.832
  0
LINE
  8
0
 10
-183.748
 20
212.832
 11
-183.982
 21
212.713
  0
LINE
  8
0
 10
-183.982
 20
212.713
 11
-184.226
 21
212.619
  0
LINE
  8
0
 10
-184.226
 20
212.619
 11
-184.48
 21
212.551
  0
LINE
  8
0
 10
-184.48
 20
212.551
 11
-184.738
 21
212.51
  0
LINE
  8
0
 10
-184.738
 20
212.51
 11
-185
 21
212.497
  0
LINE
  8
0
 10
-185
 20
212.497
 11
-185.262
 21
212.51
  0
LINE
  8
0
 10
124.753
 20
212.81
 11
124.51
 21
212.852
  0
LINE
  8
0
 10
124.51
 20
212.852
 11
124.272
 21
212.92
  0
LINE
  8
0
 10
124.272
 20
212.92
 11
124.044
 21
213.015
  0
LINE
  8
0
 10
124.044
 20
213.015
 11
123.828
 21
213.134
  0
LINE
  8
0
 10
123.828
 20
213.134
 11
123.626
 21
213.277
  0
LINE
  8
0
 10
123.626
 20
213.277
 11
123.442
 21
213.442
  0
LINE
  8
0
 10
123.442
 20
213.442
 11
123.277
 21
213.626
  0
LINE
  8
0
 10
123.277
 20
213.626
 11
123.134
 21
213.828
  0
LINE
  8
0
 10
123.134
 20
213.828
 11
123.015
 21
214.044
  0
LINE
  8
0
 10
123.015
 20
214.044
 11
122.92
 21
214.272
  0
LINE
  8
0
 10
122.92
 20
214.272
 11
122.852
 21
214.51
  0
LINE
  8
0
 10
122.852
 20
214.51
 11
122.81
 21
214.753
  0
LINE
  8
0
 10
122.81
 20
214.753
 11
122.797
 21
215
  0
LINE
  8
0
 10
122.797
 20
215
 11
122.81
 21
215.247
  0
LINE
  8
0
 10
122.81
 20
215.247
 11
122.852
 21
215.49
  0
LINE
  8
0
 10
122.852
 20
215.49
 11
122.92
 21
215.728
  0
LINE
  8
0
 10
122.92
 20
215.728
 11
123.015
 21
215.956
  0
LINE
  8
0
 10
123.015
 20
215.956
 11
123.134
 21
216.172
  0
LINE
  8
0
 10
123.134
 20
216.172
 11
123.277
 21
216.374
  0
LINE
  8
0
 10
123.277
 20
216.374
 11
123.442
 21
216.558
  0
LINE
  8
0
 10
123.442
 20
216.558
 11
123.626
 21
216.723
  0
LINE
  8
0
 10
123.626
 20
216.723
 11
123.828
 21
216.866
  0
LINE
  8
0
 10
123.828
 20
216.866
 11
124.044
 21
216.985
  0
LINE
  8
0
 10
124.044
 20
216.985
 11
124.272
 21
217.08
  0
LINE
  8
0
 10
124.272
 20
217.08
 11
124.51
 21
217.148
  0
LINE
  8
0
 10
124.51
 20
217.148
 11
124.753
 21
217.19
  0
LINE
  8
0
 10
124.753
 20
217.19
 11
125
 21
217.203
  0
LINE
  8
0
 10
125
 20
217.203
 11
125.247
 21
217.19
  0
LINE
  8
0
 10
125.247
 20
217.19
 11
125.49
 21
217.148
  0
LINE
  8
0
 10
125.49
 20
217.148
 11
125.728
 21
217.08
  0
LINE
  8
0
 10
125.728
 20
217.08
 11
125.956
 21
216.985
  0
LINE
  8
0
 10
125.956
 20
216.985
 11
126.172
 21
216.866
  0
LINE
  8
0
 10
126.172
 20
216.866
 11
126.374
 21
216.723
  0
LINE
  8
0
 10
126.374
 20
216.723
 11
126.558
 21
216.558
  0
LINE
  8
0
 10
126.558
 20
216.558
 11
126.723
 21
216.374
  0
LINE
  8
0
 10
126.723
 20
216.374
 11
126.866
 21
216.172
  0
LINE
  8
0
 10
126.866
 20
216.172
 11
126.985
 21
215.956
  0
LINE
  8
0
 10
126.985
 20
215.956
 11
127.08
 21
215.728
  0
LINE
  8
0
 10
127.08
 20
215.728
 11
127.148
 21
215.49
  0
LINE
  8
0
 10
127.148
 20
215.49
 11
127.19
 21
215.247
  0
LINE
  8
0
 10
127.19
 20
215.247
 11
127.203
 21
215
  0
LINE
  8
0
 10
127.203
 20
215
 11
127.19
 21
214.753
  0
LINE
  8
0
 10
127.19
 20
214.753
 11
127.148
 21
214.51
  0
LINE
  8
0
 10
127.148
 20
214.51
 11
127.08
 21
214.272
  0
LINE
  8
0
 10
127.08
 20
214.272
 11
126.985
 21
214.044
  0
LINE
  8
0
 10
126.985
 20
214.044
 11
126.866
 21
213.828
  0
LINE
  8
0
 10
126.866
 20
213.828
 11
126.723
 21
213.626
  0
LINE
  8
0
 10
126.723
 20
213.626
 11
126.558
 21
213.442
  0
LINE
  8
0
 10
126.558
 20
213.442
 11
126.374
 21
213.277
  0
LINE
  8
0
 10
126.374
 20
213.277
 11
126.172
 21
213.134
  0
LINE
  8
0
 10
126.172
 20
213.134
 11
125.956
 21
213.015
  0
LINE
  8
0
 10
125.956
 20
213.015
 11
125.728
 21
212.92
  0
LINE
  8
0
 10
125.728
 20
212.92
 11
125.49
 21
212.852
  0
LINE
  8
0
 10
125.49
 20
212.852
 11
125.247
 21
212.81
  0
LINE
  8
0
 10
125.247
 20
212.81
 11
125
 21
212.797
  0
LINE
  8
0
 10
125
 20
212.797
 11
124.753
 21
212.81
  0
LINE
  8
0
 10
-0.246719
 20
212.81
 11
-0.490326
 21
212.852
  0
LINE
  8
0
 10
-0.490326
 20
212.852
 11
-0.727768
 21
212.92
  0
LINE
  8
0
 10
-0.727768
 20
212.92
 11
-0.956055
 21
213.015
  0
LINE
  8
0
 10
-0.956055
 20
213.015
 11
-1.17232
 21
213.134
  0
LINE
  8
0
 10
-1.17232
 20
213.134
 11
-1.37384
 21
213.277
  0
LINE
  8
0
 10
-1.37384
 20
213.277
 11
-1.55809
 21
213.442
  0
LINE
  8
0
 10
-1.55809
 20
213.442
 11
-1.72275
 21
213.626
  0
LINE
  8
0
 10
-1.72275
 20
213.626
 11
-1.86574
 21
213.828
  0
LINE
  8
0
 10
-1.86574
 20
213.828
 11
-1.98526
 21
214.044
  0
LINE
  8
0
 10
-1.98526
 20
214.044
 11
-2.07982
 21
214.272
  0
LINE
  8
0
 10
-2.07982
 20
214.272
 11
-2.14822
 21
214.51
  0
LINE
  8
0
 10
-2.14822
 20
214.51
 11
-2.18962
 21
214.753
  0
LINE
  8
0
 10
-2.18962
 20
214.753
 11
-2.20348
 21
215
  0
LINE
  8
0
 10
-2.20348
 20
215
 11
-2.18962
 21
215.247
  0
LINE
  8
0
 10
-2.18962
 20
215.247
 11
-2.14822
 21
215.49
  0
LINE
  8
0
 10
-2.14822
 20
215.49
 11
-2.07982
 21
215.728
  0
LINE
  8
0
 10
-2.07982
 20
215.728
 11
-1.98526
 21
215.956
  0
LINE
  8
0
 10
-1.98526
 20
215.956
 11
-1.86574
 21
216.172
  0
LINE
  8
0
 10
-1.86574
 20
216.172
 11
-1.72275
 21
216.374
  0
LINE
  8
0
 10
-1.72275
 20
216.374
 11
-1.55809
 21
216.558
  0
LINE
  8
0
 10
-1.55809
 20
216.558
 11
-1.37384
 21
216.723
  0
LINE
  8
0
 10
-1.37384
 20
216.723
 11
-1.17232
 21
216.866
  0
LINE
  8
0
 10
-1.17232
 20
216.866
 11
-0.956055
 21
216.985
  0
LINE
  8
0
 10
-0.956055
 20
216.985
 11
-0.727768
 21
217.08
  0
LINE
  8
0
 10
-0.727768
 20
217.08
 11
-0.490326
 21
217.148
  0
LINE
  8
0
 10
-0.490326
 20
217.148
 11
-0.246719
 21
217.19
  0
LINE
  8
0
 10
-0.246719
 20
217.19
 11
0
 21
217.203
  0
LINE
  8
0
 10
0
 20
217.203
 11
0.246704
 21
217.19
  0
LINE
  8
0
 10
0.246704
 20
217.19
 11
0.490311
 21
217.148
  0
LINE
  8
0
 10
0.490311
 20
217.148
 11
0.727753
 21
217.08
  0
LINE
  8
0
 10
0.727753
 20
217.08
 11
0.956039
 21
216.985
  0
LINE
  8
0
 10
0.956039
 20
216.985
 11
1.1723
 21
216.866
  0
LINE
  8
0
 10
1.1723
 20
216.866
 11
1.37383
 21
216.723
  0
LINE
  8
0
 10
1.37383
 20
216.723
 11
1.55807
 21
216.558
  0
LINE
  8
0
 10
1.55807
 20
216.558
 11
1.72273
 21
216.374
  0
LINE
  8
0
 10
1.72273
 20
216.374
 11
1.86572
 21
216.172
  0
LINE
  8
0
 10
1.86572
 20
216.172
 11
1.98524
 21
215.956
  0
LINE
  8
0
 10
1.98524
 20
215.956
 11
2.0798
 21
215.728
  0
LINE
  8
0
 10
2.0798
 20
215.728
 11
2.14821
 21
215.49
  0
LINE
  8
0
 10
2.14821
 20
215.49
 11
2.18961
 21
215.247
  0
LINE
  8
0
 10
2.18961
 20
215.247
 11
2.20346
 21
215
  0
LINE
  8
0
 10
2.20346
 20
215
 11
2.18961
 21
214.753
  0
LINE
  8
0
 10
2.18961
 20
214.753
 11
2.14821
 21
214.51
  0
LINE
  8
0
 10
2.14821
 20
214.51
 11
2.0798
 21
214.272
  0
LINE
  8
0
 10
2.0798
 20
214.272
 11
1.98524
 21
214.044
  0
LINE
  8
0
 10
1.98524
 20
214.044
 11
1.86572
 21
213.828
  0
LINE
  8
0
 10
1.86572
 20
213.828
 11
1.72273
 21
213.626
  0
LINE
  8
0
 10
1.72273
 20
213.626
 11
1.55807
 21
213.442
  0
LINE
  8
0
 10
1.55807
 20
213.442
 11
1.37383
 21
213.277
  0
LINE
  8
0
 10
1.37383
 20
213.277
 11
1.1723
 21
213.134
  0
LINE
  8
0
 10
1.1723
 20
213.134
 11
0.956039
 21
213.015
  0
LINE
  8
0
 10
0.956039
 20
213.015
 11
0.727753
 21
212.92
  0
LINE
  8
0
 10
0.727753
 20
212.92
 11
0.490311
 21
212.852
  0
LINE
  8
0
 10
0.490311
 20
212.852
 11
0.246704
 21
212.81
  0
LINE
  8
0
 10
0.246704
 20
212.81
 11
0
 21
212.797
  0
LINE
  8
0
 10
0
 20
212.797
 11
-0.246719
 21
212.81
  0
LINE
  8
0
 10
-125.247
 20
212.81
 11
-125.49
 21
212.852
  0
LINE
  8
0
 10
-125.49
 20
212.852
 11
-125.728
 21
212.92
  0
LINE
  8
0
 10
-125.728
 20
212.92
 11
-125.956
 21
213.015
  0
LINE
  8
0
 10
-125.956
 20
213.015
 11
-126.172
 21
213.134
  0
LINE
  8
0
 10
-126.172
 20
213.134
 11
-126.374
 21
213.277
  0
LINE
  8
0
 10
-126.374
 20
213.277
 11
-126.558
 21
213.442
  0
LINE
  8
0
 10
-126.558
 20
213.442
 11
-126.723
 21
213.626
  0
LINE
  8
0
 10
-126.723
 20
213.626
 11
-126.866
 21
213.828
  0
LINE
  8
0
 10
-126.866
 20
213.828
 11
-126.985
 21
214.044
  0
LINE
  8
0
 10
-126.985
 20
214.044
 11
-127.08
 21
214.272
  0
LINE
  8
0
 10
-127.08
 20
214.272
 11
-127.148
 21
214.51
  0
LINE
  8
0
 10
-127.148
 20
214.51
 11
-127.19
 21
214.753
  0
LINE
  8
0
 10
-127.19
 20
214.753
 11
-127.203
 21
215
  0
LINE
  8
0
 10
-127.203
 20
215
 11
-127.19
 21
215.247
  0
LINE
  8
0
 10
-127.19
 20
215.247
 11
-127.148
 21
215.49
  0
LINE
  8
0
 10
-127.148
 20
215.49
 11
-127.08
 21
215.728
  0
LINE
  8
0
 10
-127.08
 20
215.728
 11
-126.985
 21
215.956
  0
LINE
  8
0
 10
-126.985
 20
215.956
 11
-126.866
 21
216.172
  0
LINE
  8
0
 10
-126.866
 20
216.172
 11
-126.723
 21
216.374
  0
LINE
  8
0
 10
-126.723
 20
216.374
 11
-126.558
 21
216.558
  0
LINE
  8
0
 10
-126.558
 20
216.558
 11
-126.374
 21
216.723
  0
LINE
  8
0
 10
-126.374
 20
216.723
 11
-126.172
 21
216.866
  0
LINE
  8
0
 10
-126.172
 20
216.866
 11
-125.956
 21
216.985
  0
LINE
  8
0
 10
-125.956
 20
216.985
 11
-125.728
 21
217.08
  0
LINE
  8
0
 10
-125.728
 20
217.08
 11
-125.49
 21
217.148
  0
LINE
  8
0
 10
-125.49
 20
217.148
 11
-125.247
 21
217.19
  0
LINE
  8
0
 10
-125.247
 20
217.19
 11
-125
 21
217.203
  0
LINE
  8
0
 10
-125
 20
217.203
 11
-124.753
 21
217.19
  0
LINE
  8
0
 10
-124.753
 20
217.19
 11
-124.51
 21
217.148
  0
LINE
  8
0
 10
-124.51
 20
217.148
 11
-124.272
 21
217.08
  0
LINE
  8
0
 10
-124.272
 20
217.08
 11
-124.044
 21
216.985
  0
LINE
  8
0
 10
-124.044
 20
216.985
 11
-123.828
 21
216.866
  0
LINE
  8
0
 10
-123.828
 20
216.866
 11
-123.626
 21
216.723
  0
LINE
  8
0
 10
-123.626
 20
216.723
 11
-123.442
 21
216.558
  0
LINE
  8
0
 10
-123.442
 20
216.558
 11
-123.277
 21
216.374
  0
LINE
  8
0
 10
-123.277
 20
216.374
 11
-123.134
 21
216.172
  0
LINE
  8
0
 10
-123.134
 20
216.172
 11
-123.015
 21
215.956
  0
LINE
  8
0
 10
-123.015
 20
215.956
 11
-122.92
 21
215.728
  0
LINE
  8
0
 10
-122.92
 20
215.728
 11
-122.852
 21
215.49
  0
LINE
  8
0
 10
-122.852
 20
215.49
 11
-122.81
 21
215.247
  0
LINE
  8
0
 10
-122.81
 20
215.247
 11
-122.797
 21
215
  0
LINE
  8
0
 10
-122.797
 20
215
 11
-122.81
 21
214.753
  0
LINE
  8
0
 10
-122.81
 20
214.753
 11
-122.852
 21
214.51
  0
LINE
  8
0
 10
-122.852
 20
214.51
 11
-122.92
 21
214.272
  0
LINE
  8
0
 10
-122.92
 20
214.272
 11
-123.015
 21
214.044
  0
LINE
  8
0
 10
-123.015
 20
214.044
 11
-123.134
 21
213.828
  0
LINE
  8
0
 10
-123.134
 20
213.828
 11
-123.277
 21
213.626
  0
LINE
  8
0
 10
-123.277
 20
213.626
 11
-123.442
 21
213.442
  0
LINE
  8
0
 10
-123.442
 20
213.442
 11
-123.626
 21
213.277
  0
LINE
  8
0
 10
-123.626
 20
213.277
 11
-123.828
 21
213.134
  0
LINE
  8
0
 10
-123.828
 20
213.134
 11
-124.044
 21
213.015
  0
LINE
  8
0
 10
-124.044
 20
213.015
 11
-124.272
 21
212.92
  0
LINE
  8
0
 10
-124.272
 20
212.92
 11
-124.51
 21
212.852
  0
LINE
  8
0
 10
-124.51
 20
212.852
 11
-124.753
 21
212.81
  0
LINE
  8
0
 10
-124.753
 20
212.81
 11
-125
 21
212.797
  0
LINE
  8
0
 10
-125
 20
212.797
 11
-125.247
 21
212.81
  0
LINE
  8
0
 10
184.753
 20
202.81
 11
184.51
 21
202.852
  0
LINE
  8
0
 10
184.51
 20
202.852
 11
184.272
 21
202.92
  0
LINE
  8
0
 10
184.272
 20
202.92
 11
184.044
 21
203.015
  0
LINE
  8
0
 10
184.044
 20
203.015
 11
183.828
 21
203.134
  0
LINE
  8
0
 10
183.828
 20
203.134
 11
183.626
 21
203.277
  0
LINE
  8
0
 10
183.626
 20
203.277
 11
183.442
 21
203.442
  0
LINE
  8
0
 10
183.442
 20
203.442
 11
183.277
 21
203.626
  0
LINE
  8
0
 10
183.277
 20
203.626
 11
183.134
 21
203.828
  0
LINE
  8
0
 10
183.134
 20
203.828
 11
183.015
 21
204.044
  0
LINE
  8
0
 10
183.015
 20
204.044
 11
182.92
 21
204.272
  0
LINE
  8
0
 10
182.92
 20
204.272
 11
182.852
 21
204.51
  0
LINE
  8
0
 10
182.852
 20
204.51
 11
182.81
 21
204.753
  0
LINE
  8
0
 10
182.81
 20
204.753
 11
182.797
 21
205
  0
LINE
  8
0
 10
182.797
 20
205
 11
182.81
 21
205.247
  0
LINE
  8
0
 10
182.81
 20
205.247
 11
182.852
 21
205.49
  0
LINE
  8
0
 10
182.852
 20
205.49
 11
182.92
 21
205.728
  0
LINE
  8
0
 10
182.92
 20
205.728
 11
183.015
 21
205.956
  0
LINE
  8
0
 10
183.015
 20
205.956
 11
183.134
 21
206.172
  0
LINE
  8
0
 10
183.134
 20
206.172
 11
183.277
 21
206.374
  0
LINE
  8
0
 10
183.277
 20
206.374
 11
183.442
 21
206.558
  0
LINE
  8
0
 10
183.442
 20
206.558
 11
183.626
 21
206.723
  0
LINE
  8
0
 10
183.626
 20
206.723
 11
183.828
 21
206.866
  0
LINE
  8
0
 10
183.828
 20
206.866
 11
184.044
 21
206.985
  0
LINE
  8
0
 10
184.044
 20
206.985
 11
184.272
 21
207.08
  0
LINE
  8
0
 10
184.272
 20
207.08
 11
184.51
 21
207.148
  0
LINE
  8
0
 10
184.51
 20
207.148
 11
184.753
 21
207.19
  0
LINE
  8
0
 10
184.753
 20
207.19
 11
185
 21
207.203
  0
LINE
  8
0
 10
185
 20
207.203
 11
185.247
 21
207.19
  0
LINE
  8
0
 10
185.247
 20
207.19
 11
185.49
 21
207.148
  0
LINE
  8
0
 10
185.49
 20
207.148
 11
185.728
 21
207.08
  0
LINE
  8
0
 10
185.728
 20
207.08
 11
185.956
 21
206.985
  0
LINE
  8
0
 10
185.956
 20
206.985
 11
186.172
 21
206.866
  0
LINE
  8
0
 10
186.172
 20
206.866
 11
186.374
 21
206.723
  0
LINE
  8
0
 10
186.374
 20
206.723
 11
186.558
 21
206.558
  0
LINE
  8
0
 10
186.558
 20
206.558
 11
186.723
 21
206.374
  0
LINE
  8
0
 10
186.723
 20
206.374
 11
186.866
 21
206.172
  0
LINE
  8
0
 10
186.866
 20
206.172
 11
186.985
 21
205.956
  0
LINE
  8
0
 10
186.985
 20
205.956
 11
187.08
 21
205.728
  0
LINE
  8
0
 10
187.08
 20
205.728
 11
187.148
 21
205.49
  0
LINE
  8
0
 10
187.148
 20
205.49
 11
187.19
 21
205.247
  0
LINE
  8
0
 10
187.19
 20
205.247
 11
187.203
 21
205
  0
LINE
  8
0
 10
187.203
 20
205
 11
187.19
 21
204.753
  0
LINE
  8
0
 10
187.19
 20
204.753
 11
187.148
 21
204.51
  0
LINE
  8
0
 10
187.148
 20
204.51
 11
187.08
 21
204.272
  0
LINE
  8
0
 10
187.08
 20
204.272
 11
186.985
 21
204.044
  0
LINE
  8
0
 10
186.985
 20
204.044
 11
186.866
 21
203.828
  0
LINE
  8
0
 10
186.866
 20
203.828
 11
186.723
 21
203.626
  0
LINE
  8
0
 10
186.723
 20
203.626
 11
186.558
 21
203.442
  0
LINE
  8
0
 10
186.558
 20
203.442
 11
186.374
 21
203.277
  0
LINE
  8
0
 10
186.374
 20
203.277
 11
186.172
 21
203.134
  0
LINE
  8
0
 10
186.172
 20
203.134
 11
185.956
 21
203.015
  0
LINE
  8
0
 10
185.956
 20
203.015
 11
185.728
 21
202.92
  0
LINE
  8
0
 10
185.728
 20
202.92
 11
185.49
 21
202.852
  0
LINE
  8
0
 10
185.49
 20
202.852
 11
185.247
 21
202.81
  0
LINE
  8
0
 10
185.247
 20
202.81
 11
185
 21
202.797
  0
LINE
  8
0
 10
185
 20
202.797
 11
184.753
 21
202.81
  0
LINE
  8
0
 10
-185.247
 20
202.81
 11
-185.49
 21
202.852
  0
LINE
  8
0
 10
-185.49
 20
202.852
 11
-185.728
 21
202.92
  0
LINE
  8
0
 10
-185.728
 20
202.92
 11
-185.956
 21
203.015
  0
LINE
  8
0
 10
-185.956
 20
203.015
 11
-186.172
 21
203.134
  0
LINE
  8
0
 10
-186.172
 20
203.134
 11
-186.374
 21
203.277
  0
LINE
  8
0
 10
-186.374
 20
203.277
 11
-186.558
 21
203.442
  0
LINE
  8
0
 10
-186.558
 20
203.442
 11
-186.723
 21
203.626
  0
LINE
  8
0
 10
-186.723
 20
203.626
 11
-186.866
 21
203.828
  0
LINE
  8
0
 10
-186.866
 20
203.828
 11
-186.985
 21
204.044
  0
LINE
  8
0
 10
-186.985
 20
204.044
 11
-187.08
 21
204.272
  0
LINE
  8
0
 10
-187.08
 20
204.272
 11
-187.148
 21
204.51
  0
LINE
  8
0
 10
-187.148
 20
204.51
 11
-187.19
 21
204.753
  0
LINE
  8
0
 10
-187.19
 20
204.753
 11
-187.203
 21
205
  0
LINE
  8
0
 10
-187.203
 20
205
 11
-187.19
 21
205.247
  0
LINE
  8
0
 10
-187.19
 20
205.247
 11
-187.148
 21
205.49
  0
LINE
  8
0
 10
-187.148
 20
205.49
 11
-187.08
 21
205.728
  0
LINE
  8
0
 10
-187.08
 20
205.728
 11
-186.985
 21
205.956
  0
LINE
  8
0
 10
-186.985
 20
205.956
 11
-186.866
 21
206.172
  0
LINE
  8
0
 10
-186.866
 20
206.172
 11
-186.723
 21
206.374
  0
LINE
  8
0
 10
-186.723
 20
206.374
 11
-186.558
 21
206.558
  0
LINE
  8
0
 10
-186.558
 20
206.558
 11
-186.374
 21
206.723
  0
LINE
  8
0
 10
-186.374
 20
206.723
 11
-186.172
 21
206.866
  0
LINE
  8
0
 10
-186.172
 20
206.866
 11
-185.956
 21
206.985
  0
LINE
  8
0
 10
-185.956
 20
206.985
 11
-185.728
 21
207.08
  0
LINE
  8
0
 10
-185.728
 20
207.08
 11
-185.49
 21
207.148
  0
LINE
  8
0
 10
-185.49
 20
207.148
 11
-185.247
 21
207.19
  0
LINE
  8
0
 10
-185.247
 20
207.19
 11
-185
 21
207.203
  0
LINE
  8
0
 10
-185
 20
207.203
 11
-184.753
 21
207.19
  0
LINE
  8
0
 10
-184.753
 20
207.19
 11
-184.51
 21
207.148
  0
LINE
  8
0
 10
-184.51
 20
207.148
 11
-184.272
 21
207.08
  0
LINE
  8
0
 10
-184.272
 20
207.08
 11
-184.044
 21
206.985
  0
LINE
  8
0
 10
-184.044
 20
206.985
 11
-183.828
 21
206.866
  0
LINE
  8
0
 10
-183.828
 20
206.866
 11
-183.626
 21
206.723
  0
LINE
  8
0
 10
-183.626
 20
206.723
 11
-183.442
 21
206.558
  0
LINE
  8
0
 10
-183.442
 20
206.558
 11
-183.277
 21
206.374
  0
LINE
  8
0
 10
-183.277
 20
206.374
 11
-183.134
 21
206.172
  0
LINE
  8
0
 10
-183.134
 20
206.172
 11
-183.015
 21
205.956
  0
LINE
  8
0
 10
-183.015
 20
205.956
 11
-182.92
 21
205.728
  0
LINE
  8
0
 10
-182.92
 20
205.728
 11
-182.852
 21
205.49
  0
LINE
  8
0
 10
-182.852
 20
205.49
 11
-182.81
 21
205.247
  0
LINE
  8
0
 10
-182.81
 20
205.247
 11
-182.797
 21
205
  0
LINE
  8
0
 10
-182.797
 20
205
 11
-182.81
 21
204.753
  0
LINE
  8
0
 10
-182.81
 20
204.753
 11
-182.852
 21
204.51
  0
LINE
  8
0
 10
-182.852
 20
204.51
 11
-182.92
 21
204.272
  0
LINE
  8
0
 10
-182.92
 20
204.272
 11
-183.015
 21
204.044
  0
LINE
  8
0
 10
-183.015
 20
204.044
 11
-183.134
 21
203.828
  0
LINE
  8
0
 10
-183.134
 20
203.828
 11
-183.277
 21
203.626
  0
LINE
  8
0
 10
-183.277
 20
203.626
 11
-183.442
 21
203.442
  0
LINE
  8
0
 10
-183.442
 20
203.442
 11
-183.626
 21
203.277
  0
LINE
  8
0
 10
-183.626
 20
203.277
 11
-183.828
 21
203.134
  0
LINE
  8
0
 10
-183.828
 20
203.134
 11
-184.044
 21
203.015
  0
LINE
  8
0
 10
-184.044
 20
203.015
 11
-184.272
 21
202.92
  0
LINE
  8
0
 10
-184.272
 20
202.92
 11
-184.51
 21
202.852
  0
LINE
  8
0
 10
-184.51
 20
202.852
 11
-184.753
 21
202.81
  0
LINE
  8
0
 10
-184.753
 20
202.81
 11
-185
 21
202.797
  0
LINE
  8
0
 10
-185
 20
202.797
 11
-185.247
 21
202.81
  0
LINE
  8
0
 10
-185.262
 20
137.51
 11
-185.52
 21
137.551
  0
LINE
  8
0
 10
-185.52
 20
137.551
 11
-185.774
 21
137.619
  0
LINE
  8
0
 10
-185.774
 20
137.619
 11
-186.018
 21
137.713
  0
LINE
  8
0
 10
-186.018
 20
137.713
 11
-186.252
 21
137.832
  0
LINE
  8
0
 10
-186.252
 20
137.832
 11
-186.471
 21
137.975
  0
LINE
  8
0
 10
-186.471
 20
137.975
 11
-186.675
 21
138.14
  0
LINE
  8
0
 10
-186.675
 20
138.14
 11
-186.86
 21
138.325
  0
LINE
  8
0
 10
-186.86
 20
138.325
 11
-187.025
 21
138.529
  0
LINE
  8
0
 10
-187.025
 20
138.529
 11
-187.168
 21
138.748
  0
LINE
  8
0
 10
-187.168
 20
138.748
 11
-187.287
 21
138.982
  0
LINE
  8
0
 10
-187.287
 20
138.982
 11
-187.381
 21
139.226
  0
LINE
  8
0
 10
-187.381
 20
139.226
 11
-187.449
 21
139.48
  0
LINE
  8
0
 10
-187.449
 20
139.48
 11
-187.49
 21
139.738
  0
LINE
  8
0
 10
-187.49
 20
139.738
 11
-187.503
 21
140
  0
LINE
  8
0
 10
-187.503
 20
140
 11
-187.49
 21
140.262
  0
LINE
  8
0
 10
-187.49
 20
140.262
 11
-187.449
 21
140.52
  0
LINE
  8
0
 10
-187.449
 20
140.52
 11
-187.381
 21
140.774
  0
LINE
  8
0
 10
-187.381
 20
140.774
 11
-187.287
 21
141.018
  0
LINE
  8
0
 10
-187.287
 20
141.018
 11
-187.168
 21
141.252
  0
LINE
  8
0
 10
-187.168
 20
141.252
 11
-187.025
 21
141.471
  0
LINE
  8
0
 10
-187.025
 20
141.471
 11
-186.86
 21
141.675
  0
LINE
  8
0
 10
-186.86
 20
141.675
 11
-186.675
 21
141.86
  0
LINE
  8
0
 10
-186.675
 20
141.86
 11
-186.471
 21
142.025
  0
LINE
  8
0
 10
-186.471
 20
142.025
 11
-186.252
 21
142.168
  0
LINE
  8
0
 10
-186.252
 20
142.168
 11
-186.018
 21
142.287
  0
LINE
  8
0
 10
-186.018
 20
142.287
 11
-185.774
 21
142.381
  0
LINE
  8
0
 10
-185.774
 20
142.381
 11
-185.52
 21
142.449
  0
LINE
  8
0
 10
-185.52
 20
142.449
 11
-185.262
 21
142.49
  0
LINE
  8
0
 10
-185.262
 20
142.49
 11
-185
 21
142.503
  0
LINE
  8
0
 10
-185
 20
142.503
 11
-184.738
 21
142.49
  0
LINE
  8
0
 10
-184.738
 20
142.49
 11
-184.48
 21
142.449
  0
LINE
  8
0
 10
-184.48
 20
142.449
 11
-184.226
 21
142.381
  0
LINE
  8
0
 10
-184.226
 20
142.381
 11
-183.982
 21
142.287
  0
LINE
  8
0
 10
-183.982
 20
142.287
 11
-183.748
 21
142.168
  0
LINE
  8
0
 10
-183.748
 20
142.168
 11
-183.529
 21
142.025
  0
LINE
  8
0
 10
-183.529
 20
142.025
 11
-183.325
 21
141.86
  0
LINE
  8
0
 10
-183.325
 20
141.86
 11
-183.14
 21
141.675
  0
LINE
  8
0
 10
-183.14
 20
141.675
 11
-182.975
 21
141.471
  0
LINE
  8
0
 10
-182.975
 20
141.471
 11
-182.832
 21
141.252
  0
LINE
  8
0
 10
-182.832
 20
141.252
 11
-182.713
 21
141.018
  0
LINE
  8
0
 10
-182.713
 20
141.018
 11
-182.619
 21
140.774
  0
LINE
  8
0
 10
-182.619
 20
140.774
 11
-182.551
 21
140.52
  0
LINE
  8
0
 10
-182.551
 20
140.52
 11
-182.51
 21
140.262
  0
LINE
  8
0
 10
-182.51
 20
140.262
 11
-182.497
 21
140
  0
LINE
  8
0
 10
-182.497
 20
140
 11
-182.51
 21
139.738
  0
LINE
  8
0
 10
-182.51
 20
139.738
 11
-182.551
 21
139.48
  0
LINE
  8
0
 10
-182.551
 20
139.48
 11
-182.619
 21
139.226
  0
LINE
  8
0
 10
-182.619
 20
139.226
 11
-182.713
 21
138.982
  0
LINE
  8
0
 10
-182.713
 20
138.982
 11
-182.832
 21
138.748
  0
LINE
  8
0
 10
-182.832
 20
138.748
 11
-182.975
 21
138.529
  0
LINE
  8
0
 10
-182.975
 20
138.529
 11
-183.14
 21
138.325
  0
LINE
  8
0
 10
-183.14
 20
138.325
 11
-183.325
 21
138.14
  0
LINE
  8
0
 10
-183.325
 20
138.14
 11
-183.529
 21
137.975
  0
LINE
  8
0
 10
-183.529
 20
137.975
 11
-183.748
 21
137.832
  0
LINE
  8
0
 10
-183.748
 20
137.832
 11
-183.982
 21
137.713
  0
LINE
  8
0
 10
-183.982
 20
137.713
 11
-184.226
 21
137.619
  0
LINE
  8
0
 10
-184.226
 20
137.619
 11
-184.48
 21
137.551
  0
LINE
  8
0
 10
-184.48
 20
137.551
 11
-184.738
 21
137.51
  0
LINE
  8
0
 10
-184.738
 20
137.51
 11
-185
 21
137.497
  0
LINE
  8
0
 10
-185
 20
137.497
 11
-185.262
 21
137.51
  0
LINE
  8
0
 10
-185.262
 20
117.51
 11
-185.52
 21
117.551
  0
LINE
  8
0
 10
-185.52
 20
117.551
 11
-185.774
 21
117.619
  0
LINE
  8
0
 10
-185.774
 20
117.619
 11
-186.018
 21
117.713
  0
LINE
  8
0
 10
-186.018
 20
117.713
 11
-186.252
 21
117.832
  0
LINE
  8
0
 10
-186.252
 20
117.832
 11
-186.471
 21
117.975
  0
LINE
  8
0
 10
-186.471
 20
117.975
 11
-186.675
 21
118.14
  0
LINE
  8
0
 10
-186.675
 20
118.14
 11
-186.86
 21
118.325
  0
LINE
  8
0
 10
-186.86
 20
118.325
 11
-187.025
 21
118.529
  0
LINE
  8
0
 10
-187.025
 20
118.529
 11
-187.168
 21
118.748
  0
LINE
  8
0
 10
-187.168
 20
118.748
 11
-187.287
 21
118.982
  0
LINE
  8
0
 10
-187.287
 20
118.982
 11
-187.381
 21
119.226
  0
LINE
  8
0
 10
-187.381
 20
119.226
 11
-187.449
 21
119.48
  0
LINE
  8
0
 10
-187.449
 20
119.48
 11
-187.49
 21
119.738
  0
LINE
  8
0
 10
-187.49
 20
119.738
 11
-187.503
 21
120
  0
LINE
  8
0
 10
-187.503
 20
120
 11
-187.49
 21
120.262
  0
LINE
  8
0
 10
-187.49
 20
120.262
 11
-187.449
 21
120.52
  0
LINE
  8
0
 10
-187.449
 20
120.52
 11
-187.381
 21
120.774
  0
LINE
  8
0
 10
-187.381
 20
120.774
 11
-187.287
 21
121.018
  0
LINE
  8
0
 10
-187.287
 20
121.018
 11
-187.168
 21
121.252
  0
LINE
  8
0
 10
-187.168
 20
121.252
 11
-187.025
 21
121.471
  0
LINE
  8
0
 10
-187.025
 20
121.471
 11
-186.86
 21
121.675
  0
LINE
  8
0
 10
-186.86
 20
121.675
 11
-186.675
 21
121.86
  0
LINE
  8
0
 10
-186.675
 20
121.86
 11
-186.471
 21
122.025
  0
LINE
  8
0
 10
-186.471
 20
122.025
 11
-186.252
 21
122.168
  0
LINE
  8
0
 10
-186.252
 20
122.168
 11
-186.018
 21
122.287
  0
LINE
  8
0
 10
-186.018
 20
122.287
 11
-185.774
 21
122.381
  0
LINE
  8
0
 10
-185.774
 20
122.381
 11
-185.52
 21
122.449
  0
LINE
  8
0
 10
-185.52
 20
122.449
 11
-185.262
 21
122.49
  0
LINE
  8
0
 10
-185.262
 20
122.49
 11
-185
 21
122.503
  0
LINE
  8
0
 10
-185
 20
122.503
 11
-184.738
 21
122.49
  0
LINE
  8
0
 10
-184.738
 20
122.49
 11
-184.48
 21
122.449
  0
LINE
  8
0
 10
-184.48
 20
122.449
 11
-184.226
 21
122.381
  0
LINE
  8
0
 10
-184.226
 20
122.381
 11
-183.982
 21
122.287
  0
LINE
  8
0
 10
-183.982
 20
122.287
 11
-183.748
 21
122.168
  0
LINE
  8
0
 10
-183.748
 20
122.168
 11
-183.529
 21
122.025
  0
LINE
  8
0
 10
-183.529
 20
122.025
 11
-183.325
 21
121.86
  0
LINE
  8
0
 10
-183.325
 20
121.86
 11
-183.14
 21
121.675
  0
LINE
  8
0
 10
-183.14
 20
121.675
 11
-182.975
 21
121.471
  0
LINE
  8
0
 10
-182.975
 20
121.471
 11
-182.832
 21
121.252
  0
LINE
  8
0
 10
-182.832
 20
121.252
 11
-182.713
 21
121.018
  0
LINE
  8
0
 10
-182.713
 20
121.018
 11
-182.619
 21
120.774
  0
LINE
  8
0
 10
-182.619
 20
120.774
 11
-182.551
 21
120.52
  0
LINE
  8
0
 10
-182.551
 20
120.52
 11
-182.51
 21
120.262
  0
LINE
  8
0
 10
-182.51
 20
120.262
 11
-182.497
 21
120
  0
LINE
  8
0
 10
-182.497
 20
120
 11
-182.51
 21
119.738
  0
LINE
  8
0
 10
-182.51
 20
119.738
 11
-182.551
 21
119.48
  0
LINE
  8
0
 10
-182.551
 20
119.48
 11
-182.619
 21
119.226
  0
LINE
  8
0
 10
-182.619
 20
119.226
 11
-182.713
 21
118.982
  0
LINE
  8
0
 10
-182.713
 20
118.982
 11
-182.832
 21
118.748
  0
LINE
  8
0
 10
-182.832
 20
118.748
 11
-182.975
 21
118.529
  0
LINE
  8
0
 10
-182.975
 20
118.529
 11
-183.14
 21
118.325
  0
LINE
  8
0
 10
-183.14
 20
118.325
 11
-183.325
 21
118.14
  0
LINE
  8
0
 10
-183.325
 20
118.14
 11
-183.529
 21
117.975
  0
LINE
  8
0
 10
-183.529
 20
117.975
 11
-183.748
 21
117.832
  0
LINE
  8
0
 10
-183.748
 20
117.832
 11
-183.982
 21
117.713
  0
LINE
  8
0
 10
-183.982
 20
117.713
 11
-184.226
 21
117.619
  0
LINE
  8
0
 10
-184.226
 20
117.619
 11
-184.48
 21
117.551
  0
LINE
  8
0
 10
-184.48
 20
117.551
 11
-184.738
 21
117.51
  0
LINE
  8
0
 10
-184.738
 20
117.51
 11
-185
 21
117.497
  0
LINE
  8
0
 10
-185
 20
117.497
 11
-185.262
 21
117.51
  0
LINE
  8
0
 10
184.753
 20
66.1437
 11
184.51
 21
66.1851
  0
LINE
  8
0
 10
184.51
 20
66.1851
 11
184.272
 21
66.2535
  0
LINE
  8
0
 10
184.272
 20
66.2535
 11
184.044
 21
66.3481
  0
LINE
  8
0
 10
184.044
 20
66.3481
 11
183.828
 21
66.4676
  0
LINE
  8
0
 10
183.828
 20
66.4676
 11
183.626
 21
66.6106
  0
LINE
  8
0
 10
183.626
 20
66.6106
 11
183.442
 21
66.7752
  0
LINE
  8
0
 10
183.442
 20
66.7752
 11
183.277
 21
66.9595
  0
LINE
  8
0
 10
183.277
 20
66.9595
 11
183.134
 21
67.161
  0
LINE
  8
0
 10
183.134
 20
67.161
 11
183.015
 21
67.3773
  0
LINE
  8
0
 10
183.015
 20
67.3773
 11
182.92
 21
67.6056
  0
LINE
  8
0
 10
182.92
 20
67.6056
 11
182.852
 21
67.843
  0
LINE
  8
0
 10
182.852
 20
67.843
 11
182.81
 21
68.0866
  0
LINE
  8
0
 10
182.81
 20
68.0866
 11
182.797
 21
68.3333
  0
LINE
  8
0
 10
182.797
 20
68.3333
 11
182.81
 21
68.58
  0
LINE
  8
0
 10
182.81
 20
68.58
 11
182.852
 21
68.8236
  0
LINE
  8
0
 10
182.852
 20
68.8236
 11
182.92
 21
69.0611
  0
LINE
  8
0
 10
182.92
 20
69.0611
 11
183.015
 21
69.2894
  0
LINE
  8
0
 10
183.015
 20
69.2894
 11
183.134
 21
69.5056
  0
LINE
  8
0
 10
183.134
 20
69.5056
 11
183.277
 21
69.7072
  0
LINE
  8
0
 10
183.277
 20
69.7072
 11
183.442
 21
69.8914
  0
LINE
  8
0
 10
183.442
 20
69.8914
 11
183.626
 21
70.0561
  0
LINE
  8
0
 10
183.626
 20
70.0561
 11
183.828
 21
70.1991
  0
LINE
  8
0
 10
183.828
 20
70.1991
 11
184.044
 21
70.3186
  0
LINE
  8
0
 10
184.044
 20
70.3186
 11
184.272
 21
70.4131
  0
LINE
  8
0
 10
184.272
 20
70.4131
 11
184.51
 21
70.4816
  0
LINE
  8
0
 10
184.51
 20
70.4816
 11
184.753
 21
70.5229
  0
LINE
  8
0
 10
184.753
 20
70.5229
 11
185
 21
70.5368
  0
LINE
  8
0
 10
185
 20
70.5368
 11
185.247
 21
70.5229
  0
LINE
  8
0
 10
185.247
 20
70.5229
 11
185.49
 21
70.4816
  0
LINE
  8
0
 10
185.49
 20
70.4816
 11
185.728
 21
70.4131
  0
LINE
  8
0
 10
185.728
 20
70.4131
 11
185.956
 21
70.3186
  0
LINE
  8
0
 10
185.956
 20
70.3186
 11
186.172
 21
70.1991
  0
LINE
  8
0
 10
186.172
 20
70.1991
 11
186.374
 21
70.0561
  0
LINE
  8
0
 10
186.374
 20
70.0561
 11
186.558
 21
69.8914
  0
LINE
  8
0
 10
186.558
 20
69.8914
 11
186.723
 21
69.7072
  0
LINE
  8
0
 10
186.723
 20
69.7072
 11
186.866
 21
69.5056
  0
LINE
  8
0
 10
186.866
 20
69.5056
 11
186.985
 21
69.2894
  0
LINE
  8
0
 10
186.985
 20
69.2894
 11
187.08
 21
69.0611
  0
LINE
  8
0
 10
187.08
 20
69.0611
 11
187.148
 21
68.8236
  0
LINE
  8
0
 10
187.148
 20
68.8236
 11
187.19
 21
68.58
  0
LINE
  8
0
 10
187.19
 20
68.58
 11
187.203
 21
68.3333
  0
LINE
  8
0
 10
187.203
 20
68.3333
 11
187.19
 21
68.0866
  0
LINE
  8
0
 10
187.19
 20
68.0866
 11
187.148
 21
67.843
  0
LINE
  8
0
 10
187.148
 20
67.843
 11
187.08
 21
67.6056
  0
LINE
  8
0
 10
187.08
 20
67.6056
 11
186.985
 21
67.3773
  0
LINE
  8
0
 10
186.985
 20
67.3773
 11
186.866
 21
67.161
  0
LINE
  8
0
 10
186.866
 20
67.161
 11
186.723
 21
66.9595
  0
LINE
  8
0
 10
186.723
 20
66.9595
 11
186.558
 21
66.7752
  0
LINE
  8
0
 10
186.558
 20
66.7752
 11
186.374
 21
66.6106
  0
LINE
  8
0
 10
186.374
 20
66.6106
 11
186.172
 21
66.4676
  0
LINE
  8
0
 10
186.172
 20
66.4676
 11
185.956
 21
66.3481
  0
LINE
  8
0
 10
185.956
 20
66.3481
 11
185.728
 21
66.2535
  0
LINE
  8
0
 10
185.728
 20
66.2535
 11
185.49
 21
66.1851
  0
LINE
  8
0
 10
185.49
 20
66.1851
 11
185.247
 21
66.1437
  0
LINE
  8
0
 10
185.247
 20
66.1437
 11
185
 21
66.1299
  0
LINE
  8
0
 10
185
 20
66.1299
 11
184.753
 21
66.1437
  0
LINE
  8
0
 10
-185.247
 20
66.1437
 11
-185.49
 21
66.1851
  0
LINE
  8
0
 10
-185.49
 20
66.1851
 11
-185.728
 21
66.2535
  0
LINE
  8
0
 10
-185.728
 20
66.2535
 11
-185.956
 21
66.3481
  0
LINE
  8
0
 10
-185.956
 20
66.3481
 11
-186.172
 21
66.4676
  0
LINE
  8
0
 10
-186.172
 20
66.4676
 11
-186.374
 21
66.6106
  0
LINE
  8
0
 10
-186.374
 20
66.6106
 11
-186.558
 21
66.7752
  0
LINE
  8
0
 10
-186.558
 20
66.7752
 11
-186.723
 21
66.9595
  0
LINE
  8
0
 10
-186.723
 20
66.9595
 11
-186.866
 21
67.161
  0
LINE
  8
0
 10
-186.866
 20
67.161
 11
-186.985
 21
67.3773
  0
LINE
  8
0
 10
-186.985
 20
67.3773
 11
-187.08
 21
67.6056
  0
LINE
  8
0
 10
-187.08
 20
67.6056
 11
-187.148
 21
67.843
  0
LINE
  8
0
 10
-187.148
 20
67.843
 11
-187.19
 21
68.0866
  0
LINE
  8
0
 10
-187.19
 20
68.0866
 11
-187.203
 21
68.3333
  0
LINE
  8
0
 10
-187.203
 20
68.3333
 11
-187.19
 21
68.58
  0
LINE
  8
0
 10
-187.19
 20
68.58
 11
-187.148
 21
68.8236
  0
LINE
  8
0
 10
-187.148
 20
68.8236
 11
-187.08
 21
69.0611
  0
LINE
  8
0
 10
-187.08
 20
69.0611
 11
-186.985
 21
69.2894
  0
LINE
  8
0
 10
-186.985
 20
69.2894
 11
-186.866
 21
69.5056
  0
LINE
  8
0
 10
-186.866
 20
69.5056
 11
-186.723
 21
69.7072
  0
LINE
  8
0
 10
-186.723
 20
69.7072
 11
-186.558
 21
69.8914
  0
LINE
  8
0
 10
-186.558
 20
69.8914
 11
-186.374
 21
70.0561
  0
LINE
  8
0
 10
-186.374
 20
70.0561
 11
-186.172
 21
70.1991
  0
LINE
  8
0
 10
-186.172
 20
70.1991
 11
-185.956
 21
70.3186
  0
LINE
  8
0
 10
-185.956
 20
70.3186
 11
-185.728
 21
70.4131
  0
LINE
  8
0
 10
-185.728
 20
70.4131
 11
-185.49
 21
70.4816
  0
LINE
  8
0
 10
-185.49
 20
70.4816
 11
-185.247
 21
70.5229
  0
LINE
  8
0
 10
-185.247
 20
70.5229
 11
-185
 21
70.5368
  0
LINE
  8
0
 10
-185
 20
70.5368
 11
-184.753
 21
70.5229
  0
LINE
  8
0
 10
-184.753
 20
70.5229
 11
-184.51
 21
70.4816
  0
LINE
  8
0
 10
-184.51
 20
70.4816
 11
-184.272
 21
70.4131
  0
LINE
  8
0
 10
-184.272
 20
70.4131
 11
-184.044
 21
70.3186
  0
LINE
  8
0
 10
-184.044
 20
70.3186
 11
-183.828
 21
70.1991
  0
LINE
  8
0
 10
-183.828
 20
70.1991
 11
-183.626
 21
70.0561
  0
LINE
  8
0
 10
-183.626
 20
70.0561
 11
-183.442
 21
69.8914
  0
LINE
  8
0
 10
-183.442
 20
69.8914
 11
-183.277
 21
69.7072
  0
LINE
  8
0
 10
-183.277
 20
69.7072
 11
-183.134
 21
69.5056
  0
LINE
  8
0
 10
-183.134
 20
69.5056
 11
-183.015
 21
69.2894
  0
LINE
  8
0
 10
-183.015
 20
69.2894
 11
-182.92
 21
69.0611
  0
LINE
  8
0
 10
-182.92
 20
69.0611
 11
-182.852
 21
68.8236
  0
LINE
  8
0
 10
-182.852
 20
68.8236
 11
-182.81
 21
68.58
  0
LINE
  8
0
 10
-182.81
 20
68.58
 11
-182.797
 21
68.3333
  0
LINE
  8
0
 10
-182.797
 20
68.3333
 11
-182.81
 21
68.0866
  0
LINE
  8
0
 10
-182.81
 20
68.0866
 11
-182.852
 21
67.843
  0
LINE
  8
0
 10
-182.852
 20
67.843
 11
-182.92
 21
67.6056
  0
LINE
  8
0
 10
-182.92
 20
67.6056
 11
-183.015
 21
67.3773
  0
LINE
  8
0
 10
-183.015
 20
67.3773
 11
-183.134
 21
67.161
  0
LINE
  8
0
 10
-183.134
 20
67.161
 11
-183.277
 21
66.9595
  0
LINE
  8
0
 10
-183.277
 20
66.9595
 11
-183.442
 21
66.7752
  0
LINE
  8
0
 10
-183.442
 20
66.7752
 11
-183.626
 21
66.6106
  0
LINE
  8
0
 10
-183.626
 20
66.6106
 11
-183.828
 21
66.4676
  0
LINE
  8
0
 10
-183.828
 20
66.4676
 11
-184.044
 21
66.3481
  0
LINE
  8
0
 10
-184.044
 20
66.3481
 11
-184.272
 21
66.2535
  0
LINE
  8
0
 10
-184.272
 20
66.2535
 11
-184.51
 21
66.1851
  0
LINE
  8
0
 10
-184.51
 20
66.1851
 11
-184.753
 21
66.1437
  0
LINE
  8
0
 10
-184.753
 20
66.1437
 11
-185
 21
66.1299
  0
LINE
  8
0
 10
-185
 20
66.1299
 11
-185.247
 21
66.1437
  0
LINE
  8
0
 10
184.738
 20
47.5103
 11
184.48
 21
47.5513
  0
LINE
  8
0
 10
184.48
 20
47.5513
 11
184.226
 21
47.6191
  0
LINE
  8
0
 10
184.226
 20
47.6191
 11
183.982
 21
47.713
  0
LINE
  8
0
 10
183.982
 20
47.713
 11
183.748
 21
47.832
  0
LINE
  8
0
 10
183.748
 20
47.832
 11
183.529
 21
47.9747
  0
LINE
  8
0
 10
183.529
 20
47.9747
 11
183.325
 21
48.1396
  0
LINE
  8
0
 10
183.325
 20
48.1396
 11
183.14
 21
48.3249
  0
LINE
  8
0
 10
183.14
 20
48.3249
 11
182.975
 21
48.5285
  0
LINE
  8
0
 10
182.975
 20
48.5285
 11
182.832
 21
48.7483
  0
LINE
  8
0
 10
182.832
 20
48.7483
 11
182.713
 21
48.9818
  0
LINE
  8
0
 10
182.713
 20
48.9818
 11
182.619
 21
49.2264
  0
LINE
  8
0
 10
182.619
 20
49.2264
 11
182.551
 21
49.4795
  0
LINE
  8
0
 10
182.551
 20
49.4795
 11
182.51
 21
49.7383
  0
LINE
  8
0
 10
182.51
 20
49.7383
 11
182.497
 21
50
  0
LINE
  8
0
 10
182.497
 20
50
 11
182.51
 21
50.2617
  0
LINE
  8
0
 10
182.51
 20
50.2617
 11
182.551
 21
50.5205
  0
LINE
  8
0
 10
182.551
 20
50.5205
 11
182.619
 21
50.7736
  0
LINE
  8
0
 10
182.619
 20
50.7736
 11
182.713
 21
51.0182
  0
LINE
  8
0
 10
182.713
 20
51.0182
 11
182.832
 21
51.2517
  0
LINE
  8
0
 10
182.832
 20
51.2517
 11
182.975
 21
51.4715
  0
LINE
  8
0
 10
182.975
 20
51.4715
 11
183.14
 21
51.6751
  0
LINE
  8
0
 10
183.14
 20
51.6751
 11
183.325
 21
51.8604
  0
LINE
  8
0
 10
183.325
 20
51.8604
 11
183.529
 21
52.0253
  0
LINE
  8
0
 10
183.529
 20
52.0253
 11
183.748
 21
52.168
  0
LINE
  8
0
 10
183.748
 20
52.168
 11
183.982
 21
52.287
  0
LINE
  8
0
 10
183.982
 20
52.287
 11
184.226
 21
52.3809
  0
LINE
  8
0
 10
184.226
 20
52.3809
 11
184.48
 21
52.4487
  0
LINE
  8
0
 10
184.48
 20
52.4487
 11
184.738
 21
52.4897
  0
LINE
  8
0
 10
184.738
 20
52.4897
 11
185
 21
52.5034
  0
LINE
  8
0
 10
185
 20
52.5034
 11
185.262
 21
52.4897
  0
LINE
  8
0
 10
185.262
 20
52.4897
 11
185.52
 21
52.4487
  0
LINE
  8
0
 10
185.52
 20
52.4487
 11
185.774
 21
52.3809
  0
LINE
  8
0
 10
185.774
 20
52.3809
 11
186.018
 21
52.287
  0
LINE
  8
0
 10
186.018
 20
52.287
 11
186.252
 21
52.168
  0
LINE
  8
0
 10
186.252
 20
52.168
 11
186.471
 21
52.0253
  0
LINE
  8
0
 10
186.471
 20
52.0253
 11
186.675
 21
51.8604
  0
LINE
  8
0
 10
186.675
 20
51.8604
 11
186.86
 21
51.6751
  0
LINE
  8
0
 10
186.86
 20
51.6751
 11
187.025
 21
51.4715
  0
LINE
  8
0
 10
187.025
 20
51.4715
 11
187.168
 21
51.2517
  0
LINE
  8
0
 10
187.168
 20
51.2517
 11
187.287
 21
51.0182
  0
LINE
  8
0
 10
187.287
 20
51.0182
 11
187.381
 21
50.7736
  0
LINE
  8
0
 10
187.381
 20
50.7736
 11
187.449
 21
50.5205
  0
LINE
  8
0
 10
187.449
 20
50.5205
 11
187.49
 21
50.2617
  0
LINE
  8
0
 10
187.49
 20
50.2617
 11
187.503
 21
50
  0
LINE
  8
0
 10
187.503
 20
50
 11
187.49
 21
49.7383
  0
LINE
  8
0
 10
187.49
 20
49.7383
 11
187.449
 21
49.4795
  0
LINE
  8
0
 10
187.449
 20
49.4795
 11
187.381
 21
49.2264
  0
LINE
  8
0
 10
187.381
 20
49.2264
 11
187.287
 21
48.9818
  0
LINE
  8
0
 10
187.287
 20
48.9818
 11
187.168
 21
48.7483
  0
LINE
  8
0
 10
187.168
 20
48.7483
 11
187.025
 21
48.5285
  0
LINE
  8
0
 10
187.025
 20
48.5285
 11
186.86
 21
48.3249
  0
LINE
  8
0
 10
186.86
 20
48.3249
 11
186.675
 21
48.1396
  0
LINE
  8
0
 10
186.675
 20
48.1396
 11
186.471
 21
47.9747
  0
LINE
  8
0
 10
186.471
 20
47.9747
 11
186.252
 21
47.832
  0
LINE
  8
0
 10
186.252
 20
47.832
 11
186.018
 21
47.713
  0
LINE
  8
0
 10
186.018
 20
47.713
 11
185.774
 21
47.6191
  0
LINE
  8
0
 10
185.774
 20
47.6191
 11
185.52
 21
47.5513
  0
LINE
  8
0
 10
185.52
 20
47.5513
 11
185.262
 21
47.5103
  0
LINE
  8
0
 10
185.262
 20
47.5103
 11
185
 21
47.4966
  0
LINE
  8
0
 10
185
 20
47.4966
 11
184.738
 21
47.5103
  0
LINE
  8
0
 10
184.738
 20
27.5103
 11
184.48
 21
27.5513
  0
LINE
  8
0
 10
184.48
 20
27.5513
 11
184.226
 21
27.6191
  0
LINE
  8
0
 10
184.226
 20
27.6191
 11
183.982
 21
27.713
  0
LINE
  8
0
 10
183.982
 20
27.713
 11
183.748
 21
27.832
  0
LINE
  8
0
 10
183.748
 20
27.832
 11
183.529
 21
27.9747
  0
LINE
  8
0
 10
183.529
 20
27.9747
 11
183.325
 21
28.1396
  0
LINE
  8
0
 10
183.325
 20
28.1396
 11
183.14
 21
28.3249
  0
LINE
  8
0
 10
183.14
 20
28.3249
 11
182.975
 21
28.5285
  0
LINE
  8
0
 10
182.975
 20
28.5285
 11
182.832
 21
28.7483
  0
LINE
  8
0
 10
182.832
 20
28.7483
 11
182.713
 21
28.9818
  0
LINE
  8
0
 10
182.713
 20
28.9818
 11
182.619
 21
29.2264
  0
LINE
  8
0
 10
182.619
 20
29.2264
 11
182.551
 21
29.4795
  0
LINE
  8
0
 10
182.551
 20
29.4795
 11
182.51
 21
29.7383
  0
LINE
  8
0
 10
182.51
 20
29.7383
 11
182.497
 21
30
  0
LINE
  8
0
 10
182.497
 20
30
 11
182.51
 21
30.2617
  0
LINE
  8
0
 10
182.51
 20
30.2617
 11
182.551
 21
30.5205
  0
LINE
  8
0
 10
182.551
 20
30.5205
 11
182.619
 21
30.7736
  0
LINE
  8
0
 10
182.619
 20
30.7736
 11
182.713
 21
31.0182
  0
LINE
  8
0
 10
182.713
 20
31.0182
 11
182.832
 21
31.2517
  0
LINE
  8
0
 10
182.832
 20
31.2517
 11
182.975
 21
31.4715
  0
LINE
  8
0
 10
182.975
 20
31.4715
 11
183.14
 21
31.6751
  0
LINE
  8
0
 10
183.14
 20
31.6751
 11
183.325
 21
31.8604
  0
LINE
  8
0
 10
183.325
 20
31.8604
 11
183.529
 21
32.0253
  0
LINE
  8
0
 10
183.529
 20
32.0253
 11
183.748
 21
32.168
  0
LINE
  8
0
 10
183.748
 20
32.168
 11
183.982
 21
32.287
  0
LINE
  8
0
 10
183.982
 20
32.287
 11
184.226
 21
32.3809
  0
LINE
  8
0
 10
184.226
 20
32.3809
 11
184.48
 21
32.4487
  0
LINE
  8
0
 10
184.48
 20
32.4487
 11
184.738
 21
32.4897
  0
LINE
  8
0
 10
184.738
 20
32.4897
 11
185
 21
32.5034
  0
LINE
  8
0
 10
185
 20
32.5034
 11
185.262
 21
32.4897
  0
LINE
  8
0
 10
185.262
 20
32.4897
 11
185.52
 21
32.4487
  0
LINE
  8
0
 10
185.52
 20
32.4487
 11
185.774
 21
32.3809
  0
LINE
  8
0
 10
185.774
 20
32.3809
 11
186.018
 21
32.287
  0
LINE
  8
0
 10
186.018
 20
32.287
 11
186.252
 21
32.168
  0
LINE
  8
0
 10
186.252
 20
32.168
 11
186.471
 21
32.0253
  0
LINE
  8
0
 10
186.471
 20
32.0253
 11
186.675
 21
31.8604
  0
LINE
  8
0
 10
186.675
 20
31.8604
 11
186.86
 21
31.6751
  0
LINE
  8
0
 10
186.86
 20
31.6751
 11
187.025
 21
31.4715
  0
LINE
  8
0
 10
187.025
 20
31.4715
 11
187.168
 21
31.2517
  0
LINE
  8
0
 10
187.168
 20
31.2517
 11
187.287
 21
31.0182
  0
LINE
  8
0
 10
187.287
 20
31.0182
 11
187.381
 21
30.7736
  0
LINE
  8
0
 10
187.381
 20
30.7736
 11
187.449
 21
30.5205
  0
LINE
  8
0
 10
187.449
 20
30.5205
 11
187.49
 21
30.2617
  0
LINE
  8
0
 10
187.49
 20
30.2617
 11
187.503
 21
30
  0
LINE
  8
0
 10
187.503
 20
30
 11
187.49
 21
29.7383
  0
LINE
  8
0
 10
187.49
 20
29.7383
 11
187.449
 21
29.4795
  0
LINE
  8
0
 10
187.449
 20
29.4795
 11
187.381
 21
29.2264
  0
LINE
  8
0
 10
187.381
 20
29.2264
 11
187.287
 21
28.9818
  0
LINE
  8
0
 10
187.287
 20
28.9818
 11
187.168
 21
28.7483
  0
LINE
  8
0
 10
187.168
 20
28.7483
 11
187.025
 21
28.5285
  0
LINE
  8
0
 10
187.025
 20
28.5285
 11
186.86
 21
28.3249
  0
LINE
  8
0
 10
186.86
 20
28.3249
 11
186.675
 21
28.1396
  0
LINE
  8
0
 10
186.675
 20
28.1396
 11
186.471
 21
27.9747
  0
LINE
  8
0
 10
186.471
 20
27.9747
 11
186.252
 21
27.832
  0
LINE
  8
0
 10
186.252
 20
27.832
 11
186.018
 21
27.713
  0
LINE
  8
0
 10
186.018
 20
27.713
 11
185.774
 21
27.6191
  0
LINE
  8
0
 10
185.774
 20
27.6191
 11
185.52
 21
27.5513
  0
LINE
  8
0
 10
185.52
 20
27.5513
 11
185.262
 21
27.5103
  0
LINE
  8
0
 10
185.262
 20
27.5103
 11
185
 21
27.4966
  0
LINE
  8
0
 10
185
 20
27.4966
 11
184.738
 21
27.5103
  0
LINE
  8
0
 10
-185.247
 20
-70.5229
 11
-185.49
 21
-70.4816
  0
LINE
  8
0
 10
-185.49
 20
-70.4816
 11
-185.728
 21
-70.4132
  0
LINE
  8
0
 10
-185.728
 20
-70.4132
 11
-185.956
 21
-70.3186
  0
LINE
  8
0
 10
-185.956
 20
-70.3186
 11
-186.172
 21
-70.1991
  0
LINE
  8
0
 10
-186.172
 20
-70.1991
 11
-186.374
 21
-70.0561
  0
LINE
  8
0
 10
-186.374
 20
-70.0561
 11
-186.558
 21
-69.8914
  0
LINE
  8
0
 10
-186.558
 20
-69.8914
 11
-186.723
 21
-69.7072
  0
LINE
  8
0
 10
-186.723
 20
-69.7072
 11
-186.866
 21
-69.5057
  0
LINE
  8
0
 10
-186.866
 20
-69.5057
 11
-186.985
 21
-69.2894
  0
LINE
  8
0
 10
-186.985
 20
-69.2894
 11
-187.08
 21
-69.0611
  0
LINE
  8
0
 10
-187.08
 20
-69.0611
 11
-187.148
 21
-68.8237
  0
LINE
  8
0
 10
-187.148
 20
-68.8237
 11
-187.19
 21
-68.58
  0
LINE
  8
0
 10
-187.19
 20
-68.58
 11
-187.203
 21
-68.3333
  0
LINE
  8
0
 10
-187.203
 20
-68.3333
 11
-187.19
 21
-68.0866
  0
LINE
  8
0
 10
-187.19
 20
-68.0866
 11
-187.148
 21
-67.843
  0
LINE
  8
0
 10
-187.148
 20
-67.843
 11
-187.08
 21
-67.6056
  0
LINE
  8
0
 10
-187.08
 20
-67.6056
 11
-186.985
 21
-67.3773
  0
LINE
  8
0
 10
-186.985
 20
-67.3773
 11
-186.866
 21
-67.161
  0
LINE
  8
0
 10
-186.866
 20
-67.161
 11
-186.723
 21
-66.9595
  0
LINE
  8
0
 10
-186.723
 20
-66.9595
 11
-186.558
 21
-66.7753
  0
LINE
  8
0
 10
-186.558
 20
-66.7753
 11
-186.374
 21
-66.6106
  0
LINE
  8
0
 10
-186.374
 20
-66.6106
 11
-186.172
 21
-66.4676
  0
LINE
  8
0
 10
-186.172
 20
-66.4676
 11
-185.956
 21
-66.3481
  0
LINE
  8
0
 10
-185.956
 20
-66.3481
 11
-185.728
 21
-66.2535
  0
LINE
  8
0
 10
-185.728
 20
-66.2535
 11
-185.49
 21
-66.1851
  0
LINE
  8
0
 10
-185.49
 20
-66.1851
 11
-185.247
 21
-66.1437
  0
LINE
  8
0
 10
-185.247
 20
-66.1437
 11
-185
 21
-66.1299
  0
LINE
  8
0
 10
-185
 20
-66.1299
 11
-184.753
 21
-66.1437
  0
LINE
  8
0
 10
-184.753
 20
-66.1437
 11
-184.51
 21
-66.1851
  0
LINE
  8
0
 10
-184.51
 20
-66.1851
 11
-184.272
 21
-66.2535
  0
LINE
  8
0
 10
-184.272
 20
-66.2535
 11
-184.044
 21
-66.3481
  0
LINE
  8
0
 10
-184.044
 20
-66.3481
 11
-183.828
 21
-66.4676
  0
LINE
  8
0
 10
-183.828
 20
-66.4676
 11
-183.626
 21
-66.6106
  0
LINE
  8
0
 10
-183.626
 20
-66.6106
 11
-183.442
 21
-66.7753
  0
LINE
  8
0
 10
-183.442
 20
-66.7753
 11
-183.277
 21
-66.9595
  0
LINE
  8
0
 10
-183.277
 20
-66.9595
 11
-183.134
 21
-67.161
  0
LINE
  8
0
 10
-183.134
 20
-67.161
 11
-183.015
 21
-67.3773
  0
LINE
  8
0
 10
-183.015
 20
-67.3773
 11
-182.92
 21
-67.6056
  0
LINE
  8
0
 10
-182.92
 20
-67.6056
 11
-182.852
 21
-67.843
  0
LINE
  8
0
 10
-182.852
 20
-67.843
 11
-182.81
 21
-68.0866
  0
LINE
  8
0
 10
-182.81
 20
-68.0866
 11
-182.797
 21
-68.3333
  0
LINE
  8
0
 10
-182.797
 20
-68.3333
 11
-182.81
 21
-68.58
  0
LINE
  8
0
 10
-182.81
 20
-68.58
 11
-182.852
 21
-68.8237
  0
LINE
  8
0
 10
-182.852
 20
-68.8237
 11
-182.92
 21
-69.0611
  0
LINE
  8
0
 10
-182.92
 20
-69.0611
 11
-183.015
 21
-69.2894
  0
LINE
  8
0
 10
-183.015
 20
-69.2894
 11
-183.134
 21
-69.5057
  0
LINE
  8
0
 10
-183.134
 20
-69.5057
 11
-183.277
 21
-69.7072
  0
LINE
  8
0
 10
-183.277
 20
-69.7072
 11
-183.442
 21
-69.8914
  0
LINE
  8
0
 10
-183.442
 20
-69.8914
 11
-183.626
 21
-70.0561
  0
LINE
  8
0
 10
-183.626
 20
-70.0561
 11
-183.828
 21
-70.1991
  0
LINE
  8
0
 10
-183.828
 20
-70.1991
 11
-184.044
 21
-70.3186
  0
LINE
  8
0
 10
-184.044
 20
-70.3186
 11
-184.272
 21
-70.4132
  0
LINE
  8
0
 10
-184.272
 20
-70.4132
 11
-184.51
 21
-70.4816
  0
LINE
  8
0
 10
-184.51
 20
-70.4816
 11
-184.753
 21
-70.5229
  0
LINE
  8
0
 10
-184.753
 20
-70.5229
 11
-185
 21
-70.5368
  0
LINE
  8
0
 10
-185
 20
-70.5368
 11
-185.247
 21
-70.5229
  0
LINE
  8
0
 10
184.753
 20
-70.5229
 11
184.51
 21
-70.4816
  0
LINE
  8
0
 10
184.51
 20
-70.4816
 11
184.272
 21
-70.4132
  0
LINE
  8
0
 10
184.272
 20
-70.4132
 11
184.044
 21
-70.3186
  0
LINE
  8
0
 10
184.044
 20
-70.3186
 11
183.828
 21
-70.1991
  0
LINE
  8
0
 10
183.828
 20
-70.1991
 11
183.626
 21
-70.0561
  0
LINE
  8
0
 10
183.626
 20
-70.0561
 11
183.442
 21
-69.8914
  0
LINE
  8
0
 10
183.442
 20
-69.8914
 11
183.277
 21
-69.7072
  0
LINE
  8
0
 10
183.277
 20
-69.7072
 11
183.134
 21
-69.5057
  0
LINE
  8
0
 10
183.134
 20
-69.5057
 11
183.015
 21
-69.2894
  0
LINE
  8
0
 10
183.015
 20
-69.2894
 11
182.92
 21
-69.0611
  0
LINE
  8
0
 10
182.92
 20
-69.0611
 11
182.852
 21
-68.8237
  0
LINE
  8
0
 10
182.852
 20
-68.8237
 11
182.81
 21
-68.58
  0
LINE
  8
0
 10
182.81
 20
-68.58
 11
182.797
 21
-68.3333
  0
LINE
  8
0
 10
182.797
 20
-68.3333
 11
182.81
 21
-68.0866
  0
LINE
  8
0
 10
182.81
 20
-68.0866
 11
182.852
 21
-67.843
  0
LINE
  8
0
 10
182.852
 20
-67.843
 11
182.92
 21
-67.6056
  0
LINE
  8
0
 10
182.92
 20
-67.6056
 11
183.015
 21
-67.3773
  0
LINE
  8
0
 10
183.015
 20
-67.3773
 11
183.134
 21
-67.161
  0
LINE
  8
0
 10
183.134
 20
-67.161
 11
183.277
 21
-66.9595
  0
LINE
  8
0
 10
183.277
 20
-66.9595
 11
183.442
 21
-66.7753
  0
LINE
  8
0
 10
183.442
 20
-66.7753
 11
183.626
 21
-66.6106
  0
LINE
  8
0
 10
183.626
 20
-66.6106
 11
183.828
 21
-66.4676
  0
LINE
  8
0
 10
183.828
 20
-66.4676
 11
184.044
 21
-66.3481
  0
LINE
  8
0
 10
184.044
 20
-66.3481
 11
184.272
 21
-66.2535
  0
LINE
  8
0
 10
184.272
 20
-66.2535
 11
184.51
 21
-66.1851
  0
LINE
  8
0
 10
184.51
 20
-66.1851
 11
184.753
 21
-66.1437
  0
LINE
  8
0
 10
184.753
 20
-66.1437
 11
185
 21
-66.1299
  0
LINE
  8
0
 10
185
 20
-66.1299
 11
185.247
 21
-66.1437
  0
LINE
  8
0
 10
185.247
 20
-66.1437
 11
185.49
 21
-66.1851
  0
LINE
  8
0
 10
185.49
 20
-66.1851
 11
185.728
 21
-66.2535
  0
LINE
  8
0
 10
185.728
 20
-66.2535
 11
185.956
 21
-66.3481
  0
LINE
  8
0
 10
185.956
 20
-66.3481
 11
186.172
 21
-66.4676
  0
LINE
  8
0
 10
186.172
 20
-66.4676
 11
186.374
 21
-66.6106
  0
LINE
  8
0
 10
186.374
 20
-66.6106
 11
186.558
 21
-66.7753
  0
LINE
  8
0
 10
186.558
 20
-66.7753
 11
186.723
 21
-66.9595
  0
LINE
  8
0
 10
186.723
 20
-66.9595
 11
186.866
 21
-67.161
  0
LINE
  8
0
 10
186.866
 20
-67.161
 11
186.985
 21
-67.3773
  0
LINE
  8
0
 10
186.985
 20
-67.3773
 11
187.08
 21
-67.6056
  0
LINE
  8
0
 10
187.08
 20
-67.6056
 11
187.148
 21
-67.843
  0
LINE
  8
0
 10
187.148
 20
-67.843
 11
187.19
 21
-68.0866
  0
LINE
  8
0
 10
187.19
 20
-68.0866
 11
187.203
 21
-68.3333
  0
LINE
  8
0
 10
187.203
 20
-68.3333
 11
187.19
 21
-68.58
  0
LINE
  8
0
 10
187.19
 20
-68.58
 11
187.148
 21
-68.8237
  0
LINE
  8
0
 10
187.148
 20
-68.8237
 11
187.08
 21
-69.0611
  0
LINE
  8
0
 10
187.08
 20
-69.0611
 11
186.985
 21
-69.2894
  0
LINE
  8
0
 10
186.985
 20
-69.2894
 11
186.866
 21
-69.5057
  0
LINE
  8
0
 10
186.866
 20
-69.5057
 11
186.723
 21
-69.7072
  0
LINE
  8
0
 10
186.723
 20
-69.7072
 11
186.558
 21
-69.8914
  0
LINE
  8
0
 10
186.558
 20
-69.8914
 11
186.374
 21
-70.0561
  0
LINE
  8
0
 10
186.374
 20
-70.0561
 11
186.172
 21
-70.1991
  0
LINE
  8
0
 10
186.172
 20
-70.1991
 11
185.956
 21
-70.3186
  0
LINE
  8
0
 10
185.956
 20
-70.3186
 11
185.728
 21
-70.4132
  0
LINE
  8
0
 10
185.728
 20
-70.4132
 11
185.49
 21
-70.4816
  0
LINE
  8
0
 10
185.49
 20
-70.4816
 11
185.247
 21
-70.5229
  0
LINE
  8
0
 10
185.247
 20
-70.5229
 11
185
 21
-70.5368
  0
LINE
  8
0
 10
185
 20
-70.5368
 11
184.753
 21
-70.5229
  0
LINE
  8
0
 10
184.738
 20
-127.49
 11
184.48
 21
-127.449
  0
LINE
  8
0
 10
184.48
 20
-127.449
 11
184.226
 21
-127.381
  0
LINE
  8
0
 10
184.226
 20
-127.381
 11
183.982
 21
-127.287
  0
LINE
  8
0
 10
183.982
 20
-127.287
 11
183.748
 21
-127.168
  0
LINE
  8
0
 10
183.748
 20
-127.168
 11
183.529
 21
-127.025
  0
LINE
  8
0
 10
183.529
 20
-127.025
 11
183.325
 21
-126.86
  0
LINE
  8
0
 10
183.325
 20
-126.86
 11
183.14
 21
-126.675
  0
LINE
  8
0
 10
183.14
 20
-126.675
 11
182.975
 21
-126.471
  0
LINE
  8
0
 10
182.975
 20
-126.471
 11
182.832
 21
-126.252
  0
LINE
  8
0
 10
182.832
 20
-126.252
 11
182.713
 21
-126.018
  0
LINE
  8
0
 10
182.713
 20
-126.018
 11
182.619
 21
-125.774
  0
LINE
  8
0
 10
182.619
 20
-125.774
 11
182.551
 21
-125.52
  0
LINE
  8
0
 10
182.551
 20
-125.52
 11
182.51
 21
-125.262
  0
LINE
  8
0
 10
182.51
 20
-125.262
 11
182.497
 21
-125
  0
LINE
  8
0
 10
182.497
 20
-125
 11
182.51
 21
-124.738
  0
LINE
  8
0
 10
182.51
 20
-124.738
 11
182.551
 21
-124.48
  0
LINE
  8
0
 10
182.551
 20
-124.48
 11
182.619
 21
-124.226
  0
LINE
  8
0
 10
182.619
 20
-124.226
 11
182.713
 21
-123.982
  0
LINE
  8
0
 10
182.713
 20
-123.982
 11
182.832
 21
-123.748
  0
LINE
  8
0
 10
182.832
 20
-123.748
 11
182.975
 21
-123.529
  0
LINE
  8
0
 10
182.975
 20
-123.529
 11
183.14
 21
-123.325
  0
LINE
  8
0
 10
183.14
 20
-123.325
 11
183.325
 21
-123.14
  0
LINE
  8
0
 10
183.325
 20
-123.14
 11
183.529
 21
-122.975
  0
LINE
  8
0
 10
183.529
 20
-122.975
 11
183.748
 21
-122.832
  0
LINE
  8
0
 10
183.748
 20
-122.832
 11
183.982
 21
-122.713
  0
LINE
  8
0
 10
183.982
 20
-122.713
 11
184.226
 21
-122.619
  0
LINE
  8
0
 10
184.226
 20
-122.619
 11
184.48
 21
-122.551
  0
LINE
  8
0
 10
184.48
 20
-122.551
 11
184.738
 21
-122.51
  0
LINE
  8
0
 10
184.738
 20
-122.51
 11
185
 21
-122.497
  0
LINE
  8
0
 10
185
 20
-122.497
 11
185.262
 21
-122.51
  0
LINE
  8
0
 10
185.262
 20
-122.51
 11
185.52
 21
-122.551
  0
LINE
  8
0
 10
185.52
 20
-122.551
 11
185.774
 21
-122.619
  0
LINE
  8
0
 10
185.774
 20
-122.619
 11
186.018
 21
-122.713
  0
LINE
  8
0
 10
186.018
 20
-122.713
 11
186.252
 21
-122.832
  0
LINE
  8
0
 10
186.252
 20
-122.832
 11
186.471
 21
-122.975
  0
LINE
  8
0
 10
186.471
 20
-122.975
 11
186.675
 21
-123.14
  0
LINE
  8
0
 10
186.675
 20
-123.14
 11
186.86
 21
-123.325
  0
LINE
  8
0
 10
186.86
 20
-123.325
 11
187.025
 21
-123.529
  0
LINE
  8
0
 10
187.025
 20
-123.529
 11
187.168
 21
-123.748
  0
LINE
  8
0
 10
187.168
 20
-123.748
 11
187.287
 21
-123.982
  0
LINE
  8
0
 10
187.287
 20
-123.982
 11
187.381
 21
-124.226
  0
LINE
  8
0
 10
187.381
 20
-124.226
 11
187.449
 21
-124.48
  0
LINE
  8
0
 10
187.449
 20
-124.48
 11
187.49
 21
-124.738
  0
LINE
  8
0
 10
187.49
 20
-124.738
 11
187.503
 21
-125
  0
LINE
  8
0
 10
187.503
 20
-125
 11
187.49
 21
-125.262
  0
LINE
  8
0
 10
187.49
 20
-125.262
 11
187.449
 21
-125.52
  0
LINE
  8
0
 10
187.449
 20
-125.52
 11
187.381
 21
-125.774
  0
LINE
  8
0
 10
187.381
 20
-125.774
 11
187.287
 21
-126.018
  0
LINE
  8
0
 10
187.287
 20
-126.018
 11
187.168
 21
-126.252
  0
LINE
  8
0
 10
187.168
 20
-126.252
 11
187.025
 21
-126.471
  0
LINE
  8
0
 10
187.025
 20
-126.471
 11
186.86
 21
-126.675
  0
LINE
  8
0
 10
186.86
 20
-126.675
 11
186.675
 21
-126.86
  0
LINE
  8
0
 10
186.675
 20
-126.86
 11
186.471
 21
-127.025
  0
LINE
  8
0
 10
186.471
 20
-127.025
 11
186.252
 21
-127.168
  0
LINE
  8
0
 10
186.252
 20
-127.168
 11
186.018
 21
-127.287
  0
LINE
  8
0
 10
186.018
 20
-127.287
 11
185.774
 21
-127.381
  0
LINE
  8
0
 10
185.774
 20
-127.381
 11
185.52
 21
-127.449
  0
LINE
  8
0
 10
185.52
 20
-127.449
 11
185.262
 21
-127.49
  0
LINE
  8
0
 10
185.262
 20
-127.49
 11
185
 21
-127.503
  0
LINE
  8
0
 10
185
 20
-127.503
 11
184.738
 21
-127.49
  0
LINE
  8
0
 10
184.738
 20
-147.49
 11
184.48
 21
-147.449
  0
LINE
  8
0
 10
184.48
 20
-147.449
 11
184.226
 21
-147.381
  0
LINE
  8
0
 10
184.226
 20
-147.381
 11
183.982
 21
-147.287
  0
LINE
  8
0
 10
183.982
 20
-147.287
 11
183.748
 21
-147.168
  0
LINE
  8
0
 10
183.748
 20
-147.168
 11
183.529
 21
-147.025
  0
LINE
  8
0
 10
183.529
 20
-147.025
 11
183.325
 21
-146.86
  0
LINE
  8
0
 10
183.325
 20
-146.86
 11
183.14
 21
-146.675
  0
LINE
  8
0
 10
183.14
 20
-146.675
 11
182.975
 21
-146.471
  0
LINE
  8
0
 10
182.975
 20
-146.471
 11
182.832
 21
-146.252
  0
LINE
  8
0
 10
182.832
 20
-146.252
 11
182.713
 21
-146.018
  0
LINE
  8
0
 10
182.713
 20
-146.018
 11
182.619
 21
-145.774
  0
LINE
  8
0
 10
182.619
 20
-145.774
 11
182.551
 21
-145.52
  0
LINE
  8
0
 10
182.551
 20
-145.52
 11
182.51
 21
-145.262
  0
LINE
  8
0
 10
182.51
 20
-145.262
 11
182.497
 21
-145
  0
LINE
  8
0
 10
182.497
 20
-145
 11
182.51
 21
-144.738
  0
LINE
  8
0
 10
182.51
 20
-144.738
 11
182.551
 21
-144.48
  0
LINE
  8
0
 10
182.551
 20
-144.48
 11
182.619
 21
-144.226
  0
LINE
  8
0
 10
182.619
 20
-144.226
 11
182.713
 21
-143.982
  0
LINE
  8
0
 10
182.713
 20
-143.982
 11
182.832
 21
-143.748
  0
LINE
  8
0
 10
182.832
 20
-143.748
 11
182.975
 21
-143.529
  0
LINE
  8
0
 10
182.975
 20
-143.529
 11
183.14
 21
-143.325
  0
LINE
  8
0
 10
183.14
 20
-143.325
 11
183.325
 21
-143.14
  0
LINE
  8
0
 10
183.325
 20
-143.14
 11
183.529
 21
-142.975
  0
LINE
  8
0
 10
183.529
 20
-142.975
 11
183.748
 21
-142.832
  0
LINE
  8
0
 10
183.748
 20
-142.832
 11
183.982
 21
-142.713
  0
LINE
  8
0
 10
183.982
 20
-142.713
 11
184.226
 21
-142.619
  0
LINE
  8
0
 10
184.226
 20
-142.619
 11
184.48
 21
-142.551
  0
LINE
  8
0
 10
184.48
 20
-142.551
 11
184.738
 21
-142.51
  0
LINE
  8
0
 10
184.738
 20
-142.51
 11
185
 21
-142.497
  0
LINE
  8
0
 10
185
 20
-142.497
 11
185.262
 21
-142.51
  0
LINE
  8
0
 10
185.262
 20
-142.51
 11
185.52
 21
-142.551
  0
LINE
  8
0
 10
185.52
 20
-142.551
 11
185.774
 21
-142.619
  0
LINE
  8
0
 10
185.774
 20
-142.619
 11
186.018
 21
-142.713
  0
LINE
  8
0
 10
186.018
 20
-142.713
 11
186.252
 21
-142.832
  0
LINE
  8
0
 10
186.252
 20
-142.832
 11
186.471
 21
-142.975
  0
LINE
  8
0
 10
186.471
 20
-142.975
 11
186.675
 21
-143.14
  0
LINE
  8
0
 10
186.675
 20
-143.14
 11
186.86
 21
-143.325
  0
LINE
  8
0
 10
186.86
 20
-143.325
 11
187.025
 21
-143.529
  0
LINE
  8
0
 10
187.025
 20
-143.529
 11
187.168
 21
-143.748
  0
LINE
  8
0
 10
187.168
 20
-143.748
 11
187.287
 21
-143.982
  0
LINE
  8
0
 10
187.287
 20
-143.982
 11
187.381
 21
-144.226
  0
LINE
  8
0
 10
187.381
 20
-144.226
 11
187.449
 21
-144.48
  0
LINE
  8
0
 10
187.449
 20
-144.48
 11
187.49
 21
-144.738
  0
LINE
  8
0
 10
187.49
 20
-144.738
 11
187.503
 21
-145
  0
LINE
  8
0
 10
187.503
 20
-145
 11
187.49
 21
-145.262
  0
LINE
  8
0
 10
187.49
 20
-145.262
 11
187.449
 21
-145.52
  0
LINE
  8
0
 10
187.449
 20
-145.52
 11
187.381
 21
-145.774
  0
LINE
  8
0
 10
187.381
 20
-145.774
 11
187.287
 21
-146.018
  0
LINE
  8
0
 10
187.287
 20
-146.018
 11
187.168
 21
-146.252
  0
LINE
  8
0
 10
187.168
 20
-146.252
 11
187.025
 21
-146.471
  0
LINE
  8
0
 10
187.025
 20
-146.471
 11
186.86
 21
-146.675
  0
LINE
  8
0
 10
186.86
 20
-146.675
 11
186.675
 21
-146.86
  0
LINE
  8
0
 10
186.675
 20
-146.86
 11
186.471
 21
-147.025
  0
LINE
  8
0
 10
186.471
 20
-147.025
 11
186.252
 21
-147.168
  0
LINE
  8
0
 10
186.252
 20
-147.168
 11
186.018
 21
-147.287
  0
LINE
  8
0
 10
186.018
 20
-147.287
 11
185.774
 21
-147.381
  0
LINE
  8
0
 10
185.774
 20
-147.381
 11
185.52
 21
-147.449
  0
LINE
  8
0
 10
185.52
 20
-147.449
 11
185.262
 21
-147.49
  0
LINE
  8
0
 10
185.262
 20
-147.49
 11
185
 21
-147.503
  0
LINE
  8
0
 10
185
 20
-147.503
 11
184.738
 21
-147.49
  0
LINE
  8
0
 10
184.738
 20
-197.49
 11
184.48
 21
-197.449
  0
LINE
  8
0
 10
184.48
 20
-197.449
 11
184.226
 21
-197.381
  0
LINE
  8
0
 10
184.226
 20
-197.381
 11
183.982
 21
-197.287
  0
LINE
  8
0
 10
183.982
 20
-197.287
 11
183.748
 21
-197.168
  0
LINE
  8
0
 10
183.748
 20
-197.168
 11
183.529
 21
-197.025
  0
LINE
  8
0
 10
183.529
 20
-197.025
 11
183.325
 21
-196.86
  0
LINE
  8
0
 10
183.325
 20
-196.86
 11
183.14
 21
-196.675
  0
LINE
  8
0
 10
183.14
 20
-196.675
 11
182.975
 21
-196.471
  0
LINE
  8
0
 10
182.975
 20
-196.471
 11
182.832
 21
-196.252
  0
LINE
  8
0
 10
182.832
 20
-196.252
 11
182.713
 21
-196.018
  0
LINE
  8
0
 10
182.713
 20
-196.018
 11
182.619
 21
-195.774
  0
LINE
  8
0
 10
182.619
 20
-195.774
 11
182.551
 21
-195.52
  0
LINE
  8
0
 10
182.551
 20
-195.52
 11
182.51
 21
-195.262
  0
LINE
  8
0
 10
182.51
 20
-195.262
 11
182.497
 21
-195
  0
LINE
  8
0
 10
182.497
 20
-195
 11
182.51
 21
-194.738
  0
LINE
  8
0
 10
182.51
 20
-194.738
 11
182.551
 21
-194.48
  0
LINE
  8
0
 10
182.551
 20
-194.48
 11
182.619
 21
-194.226
  0
LINE
  8
0
 10
182.619
 20
-194.226
 11
182.713
 21
-193.982
  0
LINE
  8
0
 10
182.713
 20
-193.982
 11
182.832
 21
-193.748
  0
LINE
  8
0
 10
182.832
 20
-193.748
 11
182.975
 21
-193.529
  0
LINE
  8
0
 10
182.975
 20
-193.529
 11
183.14
 21
-193.325
  0
LINE
  8
0
 10
183.14
 20
-193.325
 11
183.325
 21
-193.14
  0
LINE
  8
0
 10
183.325
 20
-193.14
 11
183.529
 21
-192.975
  0
LINE
  8
0
 10
183.529
 20
-192.975
 11
183.748
 21
-192.832
  0
LINE
  8
0
 10
183.748
 20
-192.832
 11
183.982
 21
-192.713
  0
LINE
  8
0
 10
183.982
 20
-192.713
 11
184.226
 21
-192.619
  0
LINE
  8
0
 10
184.226
 20
-192.619
 11
184.48
 21
-192.551
  0
LINE
  8
0
 10
184.48
 20
-192.551
 11
184.738
 21
-192.51
  0
LINE
  8
0
 10
184.738
 20
-192.51
 11
185
 21
-192.497
  0
LINE
  8
0
 10
185
 20
-192.497
 11
185.262
 21
-192.51
  0
LINE
  8
0
 10
185.262
 20
-192.51
 11
185.52
 21
-192.551
  0
LINE
  8
0
 10
185.52
 20
-192.551
 11
185.774
 21
-192.619
  0
LINE
  8
0
 10
185.774
 20
-192.619
 11
186.018
 21
-192.713
  0
LINE
  8
0
 10
186.018
 20
-192.713
 11
186.252
 21
-192.832
  0
LINE
  8
0
 10
186.252
 20
-192.832
 11
186.471
 21
-192.975
  0
LINE
  8
0
 10
186.471
 20
-192.975
 11
186.675
 21
-193.14
  0
LINE
  8
0
 10
186.675
 20
-193.14
 11
186.86
 21
-193.325
  0
LINE
  8
0
 10
186.86
 20
-193.325
 11
187.025
 21
-193.529
  0
LINE
  8
0
 10
187.025
 20
-193.529
 11
187.168
 21
-193.748
  0
LINE
  8
0
 10
187.168
 20
-193.748
 11
187.287
 21
-193.982
  0
LINE
  8
0
 10
187.287
 20
-193.982
 11
187.381
 21
-194.226
  0
LINE
  8
0
 10
187.381
 20
-194.226
 11
187.449
 21
-194.48
  0
LINE
  8
0
 10
187.449
 20
-194.48
 11
187.49
 21
-194.738
  0
LINE
  8
0
 10
187.49
 20
-194.738
 11
187.503
 21
-195
  0
LINE
  8
0
 10
187.503
 20
-195
 11
187.49
 21
-195.262
  0
LINE
  8
0
 10
187.49
 20
-195.262
 11
187.449
 21
-195.52
  0
LINE
  8
0
 10
187.449
 20
-195.52
 11
187.381
 21
-195.774
  0
LINE
  8
0
 10
187.381
 20
-195.774
 11
187.287
 21
-196.018
  0
LINE
  8
0
 10
187.287
 20
-196.018
 11
187.168
 21
-196.252
  0
LINE
  8
0
 10
187.168
 20
-196.252
 11
187.025
 21
-196.471
  0
LINE
  8
0
 10
187.025
 20
-196.471
 11
186.86
 21
-196.675
  0
LINE
  8
0
 10
186.86
 20
-196.675
 11
186.675
 21
-196.86
  0
LINE
  8
0
 10
186.675
 20
-196.86
 11
186.471
 21
-197.025
  0
LINE
  8
0
 10
186.471
 20
-197.025
 11
186.252
 21
-197.168
  0
LINE
  8
0
 10
186.252
 20
-197.168
 11
186.018
 21
-197.287
  0
LINE
  8
0
 10
186.018
 20
-197.287
 11
185.774
 21
-197.381
  0
LINE
  8
0
 10
185.774
 20
-197.381
 11
185.52
 21
-197.449
  0
LINE
  8
0
 10
185.52
 20
-197.449
 11
185.262
 21
-197.49
  0
LINE
  8
0
 10
185.262
 20
-197.49
 11
185
 21
-197.503
  0
LINE
  8
0
 10
185
 20
-197.503
 11
184.738
 21
-197.49
  0
LINE
  8
0
 10
-185.262
 20
-197.49
 11
-185.52
 21
-197.449
  0
LINE
  8
0
 10
-185.52
 20
-197.449
 11
-185.774
 21
-197.381
  0
LINE
  8
0
 10
-185.774
 20
-197.381
 11
-186.018
 21
-197.287
  0
LINE
  8
0
 10
-186.018
 20
-197.287
 11
-186.252
 21
-197.168
  0
LINE
  8
0
 10
-186.252
 20
-197.168
 11
-186.471
 21
-197.025
  0
LINE
  8
0
 10
-186.471
 20
-197.025
 11
-186.675
 21
-196.86
  0
LINE
  8
0
 10
-186.675
 20
-196.86
 11
-186.86
 21
-196.675
  0
LINE
  8
0
 10
-186.86
 20
-196.675
 11
-187.025
 21
-196.471
  0
LINE
  8
0
 10
-187.025
 20
-196.471
 11
-187.168
 21
-196.252
  0
LINE
  8
0
 10
-187.168
 20
-196.252
 11
-187.287
 21
-196.018
  0
LINE
  8
0
 10
-187.287
 20
-196.018
 11
-187.381
 21
-195.774
  0
LINE
  8
0
 10
-187.381
 20
-195.774
 11
-187.449
 21
-195.52
  0
LINE
  8
0
 10
-187.449
 20
-195.52
 11
-187.49
 21
-195.262
  0
LINE
  8
0
 10
-187.49
 20
-195.262
 11
-187.503
 21
-195
  0
LINE
  8
0
 10
-187.503
 20
-195
 11
-187.49
 21
-194.738
  0
LINE
  8
0
 10
-187.49
 20
-194.738
 11
-187.449
 21
-194.48
  0
LINE
  8
0
 10
-187.449
 20
-194.48
 11
-187.381
 21
-194.226
  0
LINE
  8
0
 10
-187.381
 20
-194.226
 11
-187.287
 21
-193.982
  0
LINE
  8
0
 10
-187.287
 20
-193.982
 11
-187.168
 21
-193.748
  0
LINE
  8
0
 10
-187.168
 20
-193.748
 11
-187.025
 21
-193.529
  0
LINE
  8
0
 10
-187.025
 20
-193.529
 11
-186.86
 21
-193.325
  0
LINE
  8
0
 10
-186.86
 20
-193.325
 11
-186.675
 21
-193.14
  0
LINE
  8
0
 10
-186.675
 20
-193.14
 11
-186.471
 21
-192.975
  0
LINE
  8
0
 10
-186.471
 20
-192.975
 11
-186.252
 21
-192.832
  0
LINE
  8
0
 10
-186.252
 20
-192.832
 11
-186.018
 21
-192.713
  0
LINE
  8
0
 10
-186.018
 20
-192.713
 11
-185.774
 21
-192.619
  0
LINE
  8
0
 10
-185.774
 20
-192.619
 11
-185.52
 21
-192.551
  0
LINE
  8
0
 10
-185.52
 20
-192.551
 11
-185.262
 21
-192.51
  0
LINE
  8
0
 10
-185.262
 20
-192.51
 11
-185
 21
-192.497
  0
LINE
  8
0
 10
-185
 20
-192.497
 11
-184.738
 21
-192.51
  0
LINE
  8
0
 10
-184.738
 20
-192.51
 11
-184.48
 21
-192.551
  0
LINE
  8
0
 10
-184.48
 20
-192.551
 11
-184.226
 21
-192.619
  0
LINE
  8
0
 10
-184.226
 20
-192.619
 11
-183.982
 21
-192.713
  0
LINE
  8
0
 10
-183.982
 20
-192.713
 11
-183.748
 21
-192.832
  0
LINE
  8
0
 10
-183.748
 20
-192.832
 11
-183.529
 21
-192.975
  0
LINE
  8
0
 10
-183.529
 20
-192.975
 11
-183.325
 21
-193.14
  0
LINE
  8
0
 10
-183.325
 20
-193.14
 11
-183.14
 21
-193.325
  0
LINE
  8
0
 10
-183.14
 20
-193.325
 11
-182.975
 21
-193.529
  0
LINE
  8
0
 10
-182.975
 20
-193.529
 11
-182.832
 21
-193.748
  0
LINE
  8
0
 10
-182.832
 20
-193.748
 11
-182.713
 21
-193.982
  0
LINE
  8
0
 10
-182.713
 20
-193.982
 11
-182.619
 21
-194.226
  0
LINE
  8
0
 10
-182.619
 20
-194.226
 11
-182.551
 21
-194.48
  0
LINE
  8
0
 10
-182.551
 20
-194.48
 11
-182.51
 21
-194.738
  0
LINE
  8
0
 10
-182.51
 20
-194.738
 11
-182.497
 21
-195
  0
LINE
  8
0
 10
-182.497
 20
-195
 11
-182.51
 21
-195.262
  0
LINE
  8
0
 10
-182.51
 20
-195.262
 11
-182.551
 21
-195.52
  0
LINE
  8
0
 10
-182.551
 20
-195.52
 11
-182.619
 21
-195.774
  0
LINE
  8
0
 10
-182.619
 20
-195.774
 11
-182.713
 21
-196.018
  0
LINE
  8
0
 10
-182.713
 20
-196.018
 11
-182.832
 21
-196.252
  0
LINE
  8
0
 10
-182.832
 20
-196.252
 11
-182.975
 21
-196.471
  0
LINE
  8
0
 10
-182.975
 20
-196.471
 11
-183.14
 21
-196.675
  0
LINE
  8
0
 10
-183.14
 20
-196.675
 11
-183.325
 21
-196.86
  0
LINE
  8
0
 10
-183.325
 20
-196.86
 11
-183.529
 21
-197.025
  0
LINE
  8
0
 10
-183.529
 20
-197.025
 11
-183.748
 21
-197.168
  0
LINE
  8
0
 10
-183.748
 20
-197.168
 11
-183.982
 21
-197.287
  0
LINE
  8
0
 10
-183.982
 20
-197.287
 11
-184.226
 21
-197.381
  0
LINE
  8
0
 10
-184.226
 20
-197.381
 11
-184.48
 21
-197.449
  0
LINE
  8
0
 10
-184.48
 20
-197.449
 11
-184.738
 21
-197.49
  0
LINE
  8
0
 10
-184.738
 20
-197.49
 11
-185
 21
-197.503
  0
LINE
  8
0
 10
-185
 20
-197.503
 11
-185.262
 21
-197.49
  0
LINE
  8
0
 10
184.753
 20
-207.19
 11
184.51
 21
-207.148
  0
LINE
  8
0
 10
184.51
 20
-207.148
 11
184.272
 21
-207.08
  0
LINE
  8
0
 10
184.272
 20
-207.08
 11
184.044
 21
-206.985
  0
LINE
  8
0
 10
184.044
 20
-206.985
 11
183.828
 21
-206.866
  0
LINE
  8
0
 10
183.828
 20
-206.866
 11
183.626
 21
-206.723
  0
LINE
  8
0
 10
183.626
 20
-206.723
 11
183.442
 21
-206.558
  0
LINE
  8
0
 10
183.442
 20
-206.558
 11
183.277
 21
-206.374
  0
LINE
  8
0
 10
183.277
 20
-206.374
 11
183.134
 21
-206.172
  0
LINE
  8
0
 10
183.134
 20
-206.172
 11
183.015
 21
-205.956
  0
LINE
  8
0
 10
183.015
 20
-205.956
 11
182.92
 21
-205.728
  0
LINE
  8
0
 10
182.92
 20
-205.728
 11
182.852
 21
-205.49
  0
LINE
  8
0
 10
182.852
 20
-205.49
 11
182.81
 21
-205.247
  0
LINE
  8
0
 10
182.81
 20
-205.247
 11
182.797
 21
-205
  0
LINE
  8
0
 10
182.797
 20
-205
 11
182.81
 21
-204.753
  0
LINE
  8
0
 10
182.81
 20
-204.753
 11
182.852
 21
-204.51
  0
LINE
  8
0
 10
182.852
 20
-204.51
 11
182.92
 21
-204.272
  0
LINE
  8
0
 10
182.92
 20
-204.272
 11
183.015
 21
-204.044
  0
LINE
  8
0
 10
183.015
 20
-204.044
 11
183.134
 21
-203.828
  0
LINE
  8
0
 10
183.134
 20
-203.828
 11
183.277
 21
-203.626
  0
LINE
  8
0
 10
183.277
 20
-203.626
 11
183.442
 21
-203.442
  0
LINE
  8
0
 10
183.442
 20
-203.442
 11
183.626
 21
-203.277
  0
LINE
  8
0
 10
183.626
 20
-203.277
 11
183.828
 21
-203.134
  0
LINE
  8
0
 10
183.828
 20
-203.134
 11
184.044
 21
-203.015
  0
LINE
  8
0
 10
184.044
 20
-203.015
 11
184.272
 21
-202.92
  0
LINE
  8
0
 10
184.272
 20
-202.92
 11
184.51
 21
-202.852
  0
LINE
  8
0
 10
184.51
 20
-202.852
 11
184.753
 21
-202.81
  0
LINE
  8
0
 10
184.753
 20
-202.81
 11
185
 21
-202.797
  0
LINE
  8
0
 10
185
 20
-202.797
 11
185.247
 21
-202.81
  0
LINE
  8
0
 10
185.247
 20
-202.81
 11
185.49
 21
-202.852
  0
LINE
  8
0
 10
185.49
 20
-202.852
 11
185.728
 21
-202.92
  0
LINE
  8
0
 10
185.728
 20
-202.92
 11
185.956
 21
-203.015
  0
LINE
  8
0
 10
185.956
 20
-203.015
 11
186.172
 21
-203.134
  0
LINE
  8
0
 10
186.172
 20
-203.134
 11
186.374
 21
-203.277
  0
LINE
  8
0
 10
186.374
 20
-203.277
 11
186.558
 21
-203.442
  0
LINE
  8
0
 10
186.558
 20
-203.442
 11
186.723
 21
-203.626
  0
LINE
  8
0
 10
186.723
 20
-203.626
 11
186.866
 21
-203.828
  0
LINE
  8
0
 10
186.866
 20
-203.828
 11
186.985
 21
-204.044
  0
LINE
  8
0
 10
186.985
 20
-204.044
 11
187.08
 21
-204.272
  0
LINE
  8
0
 10
187.08
 20
-204.272
 11
187.148
 21
-204.51
  0
LINE
  8
0
 10
187.148
 20
-204.51
 11
187.19
 21
-204.753
  0
LINE
  8
0
 10
187.19
 20
-204.753
 11
187.203
 21
-205
  0
LINE
  8
0
 10
187.203
 20
-205
 11
187.19
 21
-205.247
  0
LINE
  8
0
 10
187.19
 20
-205.247
 11
187.148
 21
-205.49
  0
LINE
  8
0
 10
187.148
 20
-205.49
 11
187.08
 21
-205.728
  0
LINE
  8
0
 10
187.08
 20
-205.728
 11
186.985
 21
-205.956
  0
LINE
  8
0
 10
186.985
 20
-205.956
 11
186.866
 21
-206.172
  0
LINE
  8
0
 10
186.866
 20
-206.172
 11
186.723
 21
-206.374
  0
LINE
  8
0
 10
186.723
 20
-206.374
 11
186.558
 21
-206.558
  0
LINE
  8
0
 10
186.558
 20
-206.558
 11
186.374
 21
-206.723
  0
LINE
  8
0
 10
186.374
 20
-206.723
 11
186.172
 21
-206.866
  0
LINE
  8
0
 10
186.172
 20
-206.866
 11
185.956
 21
-206.985
  0
LINE
  8
0
 10
185.956
 20
-206.985
 11
185.728
 21
-207.08
  0
LINE
  8
0
 10
185.728
 20
-207.08
 11
185.49
 21
-207.148
  0
LINE
  8
0
 10
185.49
 20
-207.148
 11
185.247
 21
-207.19
  0
LINE
  8
0
 10
185.247
 20
-207.19
 11
185
 21
-207.203
  0
LINE
  8
0
 10
185
 20
-207.203
 11
184.753
 21
-207.19
  0
LINE
  8
0
 10
-185.247
 20
-207.19
 11
-185.49
 21
-207.148
  0
LINE
  8
0
 10
-185.49
 20
-207.148
 11
-185.728
 21
-207.08
  0
LINE
  8
0
 10
-185.728
 20
-207.08
 11
-185.956
 21
-206.985
  0
LINE
  8
0
 10
-185.956
 20
-206.985
 11
-186.172
 21
-206.866
  0
LINE
  8
0
 10
-186.172
 20
-206.866
 11
-186.374
 21
-206.723
  0
LINE
  8
0
 10
-186.374
 20
-206.723
 11
-186.558
 21
-206.558
  0
LINE
  8
0
 10
-186.558
 20
-206.558
 11
-186.723
 21
-206.374
  0
LINE
  8
0
 10
-186.723
 20
-206.374
 11
-186.866
 21
-206.172
  0
LINE
  8
0
 10
-186.866
 20
-206.172
 11
-186.985
 21
-205.956
  0
LINE
  8
0
 10
-186.985
 20
-205.956
 11
-187.08
 21
-205.728
  0
LINE
  8
0
 10
-187.08
 20
-205.728
 11
-187.148
 21
-205.49
  0
LINE
  8
0
 10
-187.148
 20
-205.49
 11
-187.19
 21
-205.247
  0
LINE
  8
0
 10
-187.19
 20
-205.247
 11
-187.203
 21
-205
  0
LINE
  8
0
 10
-187.203
 20
-205
 11
-187.19
 21
-204.753
  0
LINE
  8
0
 10
-187.19
 20
-204.753
 11
-187.148
 21
-204.51
  0
LINE
  8
0
 10
-187.148
 20
-204.51
 11
-187.08
 21
-204.272
  0
LINE
  8
0
 10
-187.08
 20
-204.272
 11
-186.985
 21
-204.044
  0
LINE
  8
0
 10
-186.985
 20
-204.044
 11
-186.866
 21
-203.828
  0
LINE
  8
0
 10
-186.866
 20
-203.828
 11
-186.723
 21
-203.626
  0
LINE
  8
0
 10
-186.723
 20
-203.626
 11
-186.558
 21
-203.442
  0
LINE
  8
0
 10
-186.558
 20
-203.442
 11
-186.374
 21
-203.277
  0
LINE
  8
0
 10
-186.374
 20
-203.277
 11
-186.172
 21
-203.134
  0
LINE
  8
0
 10
-186.172
 20
-203.134
 11
-185.956
 21
-203.015
  0
LINE
  8
0
 10
-185.956
 20
-203.015
 11
-185.728
 21
-202.92
  0
LINE
  8
0
 10
-185.728
 20
-202.92
 11
-185.49
 21
-202.852
  0
LINE
  8
0
 10
-185.49
 20
-202.852
 11
-185.247
 21
-202.81
  0
LINE
  8
0
 10
-185.247
 20
-202.81
 11
-185
 21
-202.797
  0
LINE
  8
0
 10
-185
 20
-202.797
 11
-184.753
 21
-202.81
  0
LINE
  8
0
 10
-184.753
 20
-202.81
 11
-184.51
 21
-202.852
  0
LINE
  8
0
 10
-184.51
 20
-202.852
 11
-184.272
 21
-202.92
  0
LINE
  8
0
 10
-184.272
 20
-202.92
 11
-184.044
 21
-203.015
  0
LINE
  8
0
 10
-184.044
 20
-203.015
 11
-183.828
 21
-203.134
  0
LINE
  8
0
 10
-183.828
 20
-203.134
 11
-183.626
 21
-203.277
  0
LINE
  8
0
 10
-183.626
 20
-203.277
 11
-183.442
 21
-203.442
  0
LINE
  8
0
 10
-183.442
 20
-203.442
 11
-183.277
 21
-203.626
  0
LINE
  8
0
 10
-183.277
 20
-203.626
 11
-183.134
 21
-203.828
  0
LINE
  8
0
 10
-183.134
 20
-203.828
 11
-183.015
 21
-204.044
  0
LINE
  8
0
 10
-183.015
 20
-204.044
 11
-182.92
 21
-204.272
  0
LINE
  8
0
 10
-182.92
 20
-204.272
 11
-182.852
 21
-204.51
  0
LINE
  8
0
 10
-182.852
 20
-204.51
 11
-182.81
 21
-204.753
  0
LINE
  8
0
 10
-182.81
 20
-204.753
 11
-182.797
 21
-205
  0
LINE
  8
0
 10
-182.797
 20
-205
 11
-182.81
 21
-205.247
  0
LINE
  8
0
 10
-182.81
 20
-205.247
 11
-182.852
 21
-205.49
  0
LINE
  8
0
 10
-182.852
 20
-205.49
 11
-182.92
 21
-205.728
  0
LINE
  8
0
 10
-182.92
 20
-205.728
 11
-183.015
 21
-205.956
  0
LINE
  8
0
 10
-183.015
 20
-205.956
 11
-183.134
 21
-206.172
  0
LINE
  8
0
 10
-183.134
 20
-206.172
 11
-183.277
 21
-206.374
  0
LINE
  8
0
 10
-183.277
 20
-206.374
 11
-183.442
 21
-206.558
  0
LINE
  8
0
 10
-183.442
 20
-206.558
 11
-183.626
 21
-206.723
  0
LINE
  8
0
 10
-183.626
 20
-206.723
 11
-183.828
 21
-206.866
  0
LINE
  8
0
 10
-183.828
 20
-206.866
 11
-184.044
 21
-206.985
  0
LINE
  8
0
 10
-184.044
 20
-206.985
 11
-184.272
 21
-207.08
  0
LINE
  8
0
 10
-184.272
 20
-207.08
 11
-184.51
 21
-207.148
  0
LINE
  8
0
 10
-184.51
 20
-207.148
 11
-184.753
 21
-207.19
  0
LINE
  8
0
 10
-184.753
 20
-207.19
 11
-185
 21
-207.203
  0
LINE
  8
0
 10
-185
 20
-207.203
 11
-185.247
 21
-207.19
  0
LINE
  8
0
 10
184.738
 20
-217.49
 11
184.48
 21
-217.449
  0
LINE
  8
0
 10
184.48
 20
-217.449
 11
184.226
 21
-217.381
  0
LINE
  8
0
 10
184.226
 20
-217.381
 11
183.982
 21
-217.287
  0
LINE
  8
0
 10
183.982
 20
-217.287
 11
183.748
 21
-217.168
  0
LINE
  8
0
 10
183.748
 20
-217.168
 11
183.529
 21
-217.025
  0
LINE
  8
0
 10
183.529
 20
-217.025
 11
183.325
 21
-216.86
  0
LINE
  8
0
 10
183.325
 20
-216.86
 11
183.14
 21
-216.675
  0
LINE
  8
0
 10
183.14
 20
-216.675
 11
182.975
 21
-216.471
  0
LINE
  8
0
 10
182.975
 20
-216.471
 11
182.832
 21
-216.252
  0
LINE
  8
0
 10
182.832
 20
-216.252
 11
182.713
 21
-216.018
  0
LINE
  8
0
 10
182.713
 20
-216.018
 11
182.619
 21
-215.774
  0
LINE
  8
0
 10
182.619
 20
-215.774
 11
182.551
 21
-215.52
  0
LINE
  8
0
 10
182.551
 20
-215.52
 11
182.51
 21
-215.262
  0
LINE
  8
0
 10
182.51
 20
-215.262
 11
182.497
 21
-215
  0
LINE
  8
0
 10
182.497
 20
-215
 11
182.51
 21
-214.738
  0
LINE
  8
0
 10
182.51
 20
-214.738
 11
182.551
 21
-214.48
  0
LINE
  8
0
 10
182.551
 20
-214.48
 11
182.619
 21
-214.226
  0
LINE
  8
0
 10
182.619
 20
-214.226
 11
182.713
 21
-213.982
  0
LINE
  8
0
 10
182.713
 20
-213.982
 11
182.832
 21
-213.748
  0
LINE
  8
0
 10
182.832
 20
-213.748
 11
182.975
 21
-213.529
  0
LINE
  8
0
 10
182.975
 20
-213.529
 11
183.14
 21
-213.325
  0
LINE
  8
0
 10
183.14
 20
-213.325
 11
183.325
 21
-213.14
  0
LINE
  8
0
 10
183.325
 20
-213.14
 11
183.529
 21
-212.975
  0
LINE
  8
0
 10
183.529
 20
-212.975
 11
183.748
 21
-212.832
  0
LINE
  8
0
 10
183.748
 20
-212.832
 11
183.982
 21
-212.713
  0
LINE
  8
0
 10
183.982
 20
-212.713
 11
184.226
 21
-212.619
  0
LINE
  8
0
 10
184.226
 20
-212.619
 11
184.48
 21
-212.551
  0
LINE
  8
0
 10
184.48
 20
-212.551
 11
184.738
 21
-212.51
  0
LINE
  8
0
 10
184.738
 20
-212.51
 11
185
 21
-212.497
  0
LINE
  8
0
 10
185
 20
-212.497
 11
185.262
 21
-212.51
  0
LINE
  8
0
 10
185.262
 20
-212.51
 11
185.52
 21
-212.551
  0
LINE
  8
0
 10
185.52
 20
-212.551
 11
185.774
 21
-212.619
  0
LINE
  8
0
 10
185.774
 20
-212.619
 11
186.018
 21
-212.713
  0
LINE
  8
0
 10
186.018
 20
-212.713
 11
186.252
 21
-212.832
  0
LINE
  8
0
 10
186.252
 20
-212.832
 11
186.471
 21
-212.975
  0
LINE
  8
0
 10
186.471
 20
-212.975
 11
186.675
 21
-213.14
  0
LINE
  8
0
 10
186.675
 20
-213.14
 11
186.86
 21
-213.325
  0
LINE
  8
0
 10
186.86
 20
-213.325
 11
187.025
 21
-213.529
  0
LINE
  8
0
 10
187.025
 20
-213.529
 11
187.168
 21
-213.748
  0
LINE
  8
0
 10
187.168
 20
-213.748
 11
187.287
 21
-213.982
  0
LINE
  8
0
 10
187.287
 20
-213.982
 11
187.381
 21
-214.226
  0
LINE
  8
0
 10
187.381
 20
-214.226
 11
187.449
 21
-214.48
  0
LINE
  8
0
 10
187.449
 20
-214.48
 11
187.49
 21
-214.738
  0
LINE
  8
0
 10
187.49
 20
-214.738
 11
187.503
 21
-215
  0
LINE
  8
0
 10
187.503
 20
-215
 11
187.49
 21
-215.262
  0
LINE
  8
0
 10
187.49
 20
-215.262
 11
187.449
 21
-215.52
  0
LINE
  8
0
 10
187.449
 20
-215.52
 11
187.381
 21
-215.774
  0
LINE
  8
0
 10
187.381
 20
-215.774
 11
187.287
 21
-216.018
  0
LINE
  8
0
 10
187.287
 20
-216.018
 11
187.168
 21
-216.252
  0
LINE
  8
0
 10
187.168
 20
-216.252
 11
187.025
 21
-216.471
  0
LINE
  8
0
 10
187.025
 20
-216.471
 11
186.86
 21
-216.675
  0
LINE
  8
0
 10
186.86
 20
-216.675
 11
186.675
 21
-216.86
  0
LINE
  8
0
 10
186.675
 20
-216.86
 11
186.471
 21
-217.025
  0
LINE
  8
0
 10
186.471
 20
-217.025
 11
186.252
 21
-217.168
  0
LINE
  8
0
 10
186.252
 20
-217.168
 11
186.018
 21
-217.287
  0
LINE
  8
0
 10
186.018
 20
-217.287
 11
185.774
 21
-217.381
  0
LINE
  8
0
 10
185.774
 20
-217.381
 11
185.52
 21
-217.449
  0
LINE
  8
0
 10
185.52
 20
-217.449
 11
185.262
 21
-217.49
  0
LINE
  8
0
 10
185.262
 20
-217.49
 11
185
 21
-217.503
  0
LINE
  8
0
 10
185
 20
-217.503
 11
184.738
 21
-217.49
  0
LINE
  8
0
 10
-185.262
 20
-217.49
 11
-185.52
 21
-217.449
  0
LINE
  8
0
 10
-185.52
 20
-217.449
 11
-185.774
 21
-217.381
  0
LINE
  8
0
 10
-185.774
 20
-217.381
 11
-186.018
 21
-217.287
  0
LINE
  8
0
 10
-186.018
 20
-217.287
 11
-186.252
 21
-217.168
  0
LINE
  8
0
 10
-186.252
 20
-217.168
 11
-186.471
 21
-217.025
  0
LINE
  8
0
 10
-186.471
 20
-217.025
 11
-186.675
 21
-216.86
  0
LINE
  8
0
 10
-186.675
 20
-216.86
 11
-186.86
 21
-216.675
  0
LINE
  8
0
 10
-186.86
 20
-216.675
 11
-187.025
 21
-216.471
  0
LINE
  8
0
 10
-187.025
 20
-216.471
 11
-187.168
 21
-216.252
  0
LINE
  8
0
 10
-187.168
 20
-216.252
 11
-187.287
 21
-216.018
  0
LINE
  8
0
 10
-187.287
 20
-216.018
 11
-187.381
 21
-215.774
  0
LINE
  8
0
 10
-187.381
 20
-215.774
 11
-187.449
 21
-215.52
  0
LINE
  8
0
 10
-187.449
 20
-215.52
 11
-187.49
 21
-215.262
  0
LINE
  8
0
 10
-187.49
 20
-215.262
 11
-187.503
 21
-215
  0
LINE
  8
0
 10
-187.503
 20
-215
 11
-187.49
 21
-214.738
  0
LINE
  8
0
 10
-187.49
 20
-214.738
 11
-187.449
 21
-214.48
  0
LINE
  8
0
 10
-187.449
 20
-214.48
 11
-187.381
 21
-214.226
  0
LINE
  8
0
 10
-187.381
 20
-214.226
 11
-187.287
 21
-213.982
  0
LINE
  8
0
 10
-187.287
 20
-213.982
 11
-187.168
 21
-213.748
  0
LINE
  8
0
 10
-187.168
 20
-213.748
 11
-187.025
 21
-213.529
  0
LINE
  8
0
 10
-187.025
 20
-213.529
 11
-186.86
 21
-213.325
  0
LINE
  8
0
 10
-186.86
 20
-213.325
 11
-186.675
 21
-213.14
  0
LINE
  8
0
 10
-186.675
 20
-213.14
 11
-186.471
 21
-212.975
  0
LINE
  8
0
 10
-186.471
 20
-212.975
 11
-186.252
 21
-212.832
  0
LINE
  8
0
 10
-186.252
 20
-212.832
 11
-186.018
 21
-212.713
  0
LINE
  8
0
 10
-186.018
 20
-212.713
 11
-185.774
 21
-212.619
  0
LINE
  8
0
 10
-185.774
 20
-212.619
 11
-185.52
 21
-212.551
  0
LINE
  8
0
 10
-185.52
 20
-212.551
 11
-185.262
 21
-212.51
  0
LINE
  8
0
 10
-185.262
 20
-212.51
 11
-185
 21
-212.497
  0
LINE
  8
0
 10
-185
 20
-212.497
 11
-184.738
 21
-212.51
  0
LINE
  8
0
 10
-184.738
 20
-212.51
 11
-184.48
 21
-212.551
  0
LINE
  8
0
 10
-184.48
 20
-212.551
 11
-184.226
 21
-212.619
  0
LINE
  8
0
 10
-184.226
 20
-212.619
 11
-183.982
 21
-212.713
  0
LINE
  8
0
 10
-183.982
 20
-212.713
 11
-183.748
 21
-212.832
  0
LINE
  8
0
 10
-183.748
 20
-212.832
 11
-183.529
 21
-212.975
  0
LINE
  8
0
 10
-183.529
 20
-212.975
 11
-183.325
 21
-213.14
  0
LINE
  8
0
 10
-183.325
 20
-213.14
 11
-183.14
 21
-213.325
  0
LINE
  8
0
 10
-183.14
 20
-213.325
 11
-182.975
 21
-213.529
  0
LINE
  8
0
 10
-182.975
 20
-213.529
 11
-182.832
 21
-213.748
  0
LINE
  8
0
 10
-182.832
 20
-213.748
 11
-182.713
 21
-213.982
  0
LINE
  8
0
 10
-182.713
 20
-213.982
 11
-182.619
 21
-214.226
  0
LINE
  8
0
 10
-182.619
 20
-214.226
 11
-182.551
 21
-214.48
  0
LINE
  8
0
 10
-182.551
 20
-214.48
 11
-182.51
 21
-214.738
  0
LINE
  8
0
 10
-182.51
 20
-214.738
 11
-182.497
 21
-215
  0
LINE
  8
0
 10
-182.497
 20
-215
 11
-182.51
 21
-215.262
  0
LINE
  8
0
 10
-182.51
 20
-215.262
 11
-182.551
 21
-215.52
  0
LINE
  8
0
 10
-182.551
 20
-215.52
 11
-182.619
 21
-215.774
  0
LINE
  8
0
 10
-182.619
 20
-215.774
 11
-182.713
 21
-216.018
  0
LINE
  8
0
 10
-182.713
 20
-216.018
 11
-182.832
 21
-216.252
  0
LINE
  8
0
 10
-182.832
 20
-216.252
 11
-182.975
 21
-216.471
  0
LINE
  8
0
 10
-182.975
 20
-216.471
 11
-183.14
 21
-216.675
  0
LINE
  8
0
 10
-183.14
 20
-216.675
 11
-183.325
 21
-216.86
  0
LINE
  8
0
 10
-183.325
 20
-216.86
 11
-183.529
 21
-217.025
  0
LINE
  8
0
 10
-183.529
 20
-217.025
 11
-183.748
 21
-217.168
  0
LINE
  8
0
 10
-183.748
 20
-217.168
 11
-183.982
 21
-217.287
  0
LINE
  8
0
 10
-183.982
 20
-217.287
 11
-184.226
 21
-217.381
  0
LINE
  8
0
 10
-184.226
 20
-217.381
 11
-184.48
 21
-217.449
  0
LINE
  8
0
 10
-184.48
 20
-217.449
 11
-184.738
 21
-217.49
  0
LINE
  8
0
 10
-184.738
 20
-217.49
 11
-185
 21
-217.503
  0
LINE
  8
0
 10
-185
 20
-217.503
 11
-185.262
 21
-217.49
  0
LINE
  8
0
 10
-125.247
 20
-217.19
 11
-125.49
 21
-217.148
  0
LINE
  8
0
 10
-125.49
 20
-217.148
 11
-125.728
 21
-217.08
  0
LINE
  8
0
 10
-125.728
 20
-217.08
 11
-125.956
 21
-216.985
  0
LINE
  8
0
 10
-125.956
 20
-216.985
 11
-126.172
 21
-216.866
  0
LINE
  8
0
 10
-126.172
 20
-216.866
 11
-126.374
 21
-216.723
  0
LINE
  8
0
 10
-126.374
 20
-216.723
 11
-126.558
 21
-216.558
  0
LINE
  8
0
 10
-126.558
 20
-216.558
 11
-126.723
 21
-216.374
  0
LINE
  8
0
 10
-126.723
 20
-216.374
 11
-126.866
 21
-216.172
  0
LINE
  8
0
 10
-126.866
 20
-216.172
 11
-126.985
 21
-215.956
  0
LINE
  8
0
 10
-126.985
 20
-215.956
 11
-127.08
 21
-215.728
  0
LINE
  8
0
 10
-127.08
 20
-215.728
 11
-127.148
 21
-215.49
  0
LINE
  8
0
 10
-127.148
 20
-215.49
 11
-127.19
 21
-215.247
  0
LINE
  8
0
 10
-127.19
 20
-215.247
 11
-127.203
 21
-215
  0
LINE
  8
0
 10
-127.203
 20
-215
 11
-127.19
 21
-214.753
  0
LINE
  8
0
 10
-127.19
 20
-214.753
 11
-127.148
 21
-214.51
  0
LINE
  8
0
 10
-127.148
 20
-214.51
 11
-127.08
 21
-214.272
  0
LINE
  8
0
 10
-127.08
 20
-214.272
 11
-126.985
 21
-214.044
  0
LINE
  8
0
 10
-126.985
 20
-214.044
 11
-126.866
 21
-213.828
  0
LINE
  8
0
 10
-126.866
 20
-213.828
 11
-126.723
 21
-213.626
  0
LINE
  8
0
 10
-126.723
 20
-213.626
 11
-126.558
 21
-213.442
  0
LINE
  8
0
 10
-126.558
 20
-213.442
 11
-126.374
 21
-213.277
  0
LINE
  8
0
 10
-126.374
 20
-213.277
 11
-126.172
 21
-213.134
  0
LINE
  8
0
 10
-126.172
 20
-213.134
 11
-125.956
 21
-213.015
  0
LINE
  8
0
 10
-125.956
 20
-213.015
 11
-125.728
 21
-212.92
  0
LINE
  8
0
 10
-125.728
 20
-212.92
 11
-125.49
 21
-212.852
  0
LINE
  8
0
 10
-125.49
 20
-212.852
 11
-125.247
 21
-212.81
  0
LINE
  8
0
 10
-125.247
 20
-212.81
 11
-125
 21
-212.797
  0
LINE
  8
0
 10
-125
 20
-212.797
 11
-124.753
 21
-212.81
  0
LINE
  8
0
 10
-124.753
 20
-212.81
 11
-124.51
 21
-212.852
  0
LINE
  8
0
 10
-124.51
 20
-212.852
 11
-124.272
 21
-212.92
  0
LINE
  8
0
 10
-124.272
 20
-212.92
 11
-124.044
 21
-213.015
  0
LINE
  8
0
 10
-124.044
 20
-213.015
 11
-123.828
 21
-213.134
  0
LINE
  8
0
 10
-123.828
 20
-213.134
 11
-123.626
 21
-213.277
  0
LINE
  8
0
 10
-123.626
 20
-213.277
 11
-123.442
 21
-213.442
  0
LINE
  8
0
 10
-123.442
 20
-213.442
 11
-123.277
 21
-213.626
  0
LINE
  8
0
 10
-123.277
 20
-213.626
 11
-123.134
 21
-213.828
  0
LINE
  8
0
 10
-123.134
 20
-213.828
 11
-123.015
 21
-214.044
  0
LINE
  8
0
 10
-123.015
 20
-214.044
 11
-122.92
 21
-214.272
  0
LINE
  8
0
 10
-122.92
 20
-214.272
 11
-122.852
 21
-214.51
  0
LINE
  8
0
 10
-122.852
 20
-214.51
 11
-122.81
 21
-214.753
  0
LINE
  8
0
 10
-122.81
 20
-214.753
 11
-122.797
 21
-215
  0
LINE
  8
0
 10
-122.797
 20
-215
 11
-122.81
 21
-215.247
  0
LINE
  8
0
 10
-122.81
 20
-215.247
 11
-122.852
 21
-215.49
  0
LINE
  8
0
 10
-122.852
 20
-215.49
 11
-122.92
 21
-215.728
  0
LINE
  8
0
 10
-122.92
 20
-215.728
 11
-123.015
 21
-215.956
  0
LINE
  8
0
 10
-123.015
 20
-215.956
 11
-123.134
 21
-216.172
  0
LINE
  8
0
 10
-123.134
 20
-216.172
 11
-123.277
 21
-216.374
  0
LINE
  8
0
 10
-123.277
 20
-216.374
 11
-123.442
 21
-216.558
  0
LINE
  8
0
 10
-123.442
 20
-216.558
 11
-123.626
 21
-216.723
  0
LINE
  8
0
 10
-123.626
 20
-216.723
 11
-123.828
 21
-216.866
  0
LINE
  8
0
 10
-123.828
 20
-216.866
 11
-124.044
 21
-216.985
  0
LINE
  8
0
 10
-124.044
 20
-216.985
 11
-124.272
 21
-217.08
  0
LINE
  8
0
 10
-124.272
 20
-217.08
 11
-124.51
 21
-217.148
  0
LINE
  8
0
 10
-124.51
 20
-217.148
 11
-124.753
 21
-217.19
  0
LINE
  8
0
 10
-124.753
 20
-217.19
 11
-125
 21
-217.203
  0
LINE
  8
0
 10
-125
 20
-217.203
 11
-125.247
 21
-217.19
  0
LINE
  8
0
 10
-0.246719
 20
-217.19
 11
-0.490326
 21
-217.148
  0
LINE
  8
0
 10
-0.490326
 20
-217.148
 11
-0.727768
 21
-217.08
  0
LINE
  8
0
 10
-0.727768
 20
-217.08
 11
-0.956055
 21
-216.985
  0
LINE
  8
0
 10
-0.956055
 20
-216.985
 11
-1.17232
 21
-216.866
  0
LINE
  8
0
 10
-1.17232
 20
-216.866
 11
-1.37384
 21
-216.723
  0
LINE
  8
0
 10
-1.37384
 20
-216.723
 11
-1.55809
 21
-216.558
  0
LINE
  8
0
 10
-1.55809
 20
-216.558
 11
-1.72275
 21
-216.374
  0
LINE
  8
0
 10
-1.72275
 20
-216.374
 11
-1.86574
 21
-216.172
  0
LINE
  8
0
 10
-1.86574
 20
-216.172
 11
-1.98526
 21
-215.956
  0
LINE
  8
0
 10
-1.98526
 20
-215.956
 11
-2.07982
 21
-215.728
  0
LINE
  8
0
 10
-2.07982
 20
-215.728
 11
-2.14822
 21
-215.49
  0
LINE
  8
0
 10
-2.14822
 20
-215.49
 11
-2.18962
 21
-215.247
  0
LINE
  8
0
 10
-2.18962
 20
-215.247
 11
-2.20348
 21
-215
  0
LINE
  8
0
 10
-2.20348
 20
-215
 11
-2.18962
 21
-214.753
  0
LINE
  8
0
 10
-2.18962
 20
-214.753
 11
-2.14822
 21
-214.51
  0
LINE
  8
0
 10
-2.14822
 20
-214.51
 11
-2.07982
 21
-214.272
  0
LINE
  8
0
 10
-2.07982
 20
-214.272
 11
-1.98526
 21
-214.044
  0
LINE
  8
0
 10
-1.98526
 20
-214.044
 11
-1.86574
 21
-213.828
  0
LINE
  8
0
 10
-1.86574
 20
-213.828
 11
-1.72275
 21
-213.626
  0
LINE
  8
0
 10
-1.72275
 20
-213.626
 11
-1.55809
 21
-213.442
  0
LINE
  8
0
 10
-1.55809
 20
-213.442
 11
-1.37384
 21
-213.277
  0
LINE
  8
0
 10
-1.37384
 20
-213.277
 11
-1.17232
 21
-213.134
  0
LINE
  8
0
 10
-1.17232
 20
-213.134
 11
-0.956055
 21
-213.015
  0
LINE
  8
0
 10
-0.956055
 20
-213.015
 11
-0.727768
 21
-212.92
  0
LINE
  8
0
 10
-0.727768
 20
-212.92
 11
-0.490326
 21
-212.852
  0
LINE
  8
0
 10
-0.490326
 20
-212.852
 11
-0.246719
 21
-212.81
  0
LINE
  8
0
 10
-0.246719
 20
-212.81
 11
0
 21
-212.797
  0
LINE
  8
0
 10
0
 20
-212.797
 11
0.246704
 21
-212.81
  0
LINE
  8
0
 10
0.246704
 20
-212.81
 11
0.490311
 21
-212.852
  0
LINE
  8
0
 10
0.490311
 20
-212.852
 11
0.727753
 21
-212.92
  0
LINE
  8
0
 10
0.727753
 20
-212.92
 11
0.956039
 21
-213.015
  0
LINE
  8
0
 10
0.956039
 20
-213.015
 11
1.1723
 21
-213.134
  0
LINE
  8
0
 10
1.1723
 20
-213.134
 11
1.37383
 21
-213.277
  0
LINE
  8
0
 10
1.37383
 20
-213.277
 11
1.55807
 21
-213.442
  0
LINE
  8
0
 10
1.55807
 20
-213.442
 11
1.72273
 21
-213.626
  0
LINE
  8
0
 10
1.72273
 20
-213.626
 11
1.86572
 21
-213.828
  0
LINE
  8
0
 10
1.86572
 20
-213.828
 11
1.98524
 21
-214.044
  0
LINE
  8
0
 10
1.98524
 20
-214.044
 11
2.0798
 21
-214.272
  0
LINE
  8
0
 10
2.0798
 20
-214.272
 11
2.14821
 21
-214.51
  0
LINE
  8
0
 10
2.14821
 20
-214.51
 11
2.18961
 21
-214.753
  0
LINE
  8
0
 10
2.18961
 20
-214.753
 11
2.20346
 21
-215
  0
LINE
  8
0
 10
2.20346
 20
-215
 11
2.18961
 21
-215.247
  0
LINE
  8
0
 10
2.18961
 20
-215.247
 11
2.14821
 21
-215.49
  0
LINE
  8
0
 10
2.14821
 20
-215.49
 11
2.0798
 21
-215.728
  0
LINE
  8
0
 10
2.0798
 20
-215.728
 11
1.98524
 21
-215.956
  0
LINE
  8
0
 10
1.98524
 20
-215.956
 11
1.86572
 21
-216.172
  0
LINE
  8
0
 10
1.86572
 20
-216.172
 11
1.72273
 21
-216.374
  0
LINE
  8
0
 10
1.72273
 20
-216.374
 11
1.55807
 21
-216.558
  0
LINE
  8
0
 10
1.55807
 20
-216.558
 11
1.37383
 21
-216.723
  0
LINE
  8
0
 10
1.37383
 20
-216.723
 11
1.1723
 21
-216.866
  0
LINE
  8
0
 10
1.1723
 20
-216.866
 11
0.956039
 21
-216.985
  0
LINE
  8
0
 10
0.956039
 20
-216.985
 11
0.727753
 21
-217.08
  0
LINE
  8
0
 10
0.727753
 20
-217.08
 11
0.490311
 21
-217.148
  0
LINE
  8
0
 10
0.490311
 20
-217.148
 11
0.246704
 21
-217.19
  0
LINE
  8
0
 10
0.246704
 20
-217.19
 11
0
 21
-217.203
  0
LINE
  8
0
 10
0
 20
-217.203
 11
-0.246719
 21
-217.19
  0
LINE
  8
0
 10
124.753
 20
-217.19
 11
124.51
 21
-217.148
  0
LINE
  8
0
 10
124.51
 20
-217.148
 11
124.272
 21
-217.08
  0
LINE
  8
0
 10
124.272
 20
-217.08
 11
124.044
 21
-216.985
  0
LINE
  8
0
 10
124.044
 20
-216.985
 11
123.828
 21
-216.866
  0
LINE
  8
0
 10
123.828
 20
-216.866
 11
123.626
 21
-216.723
  0
LINE
  8
0
 10
123.626
 20
-216.723
 11
123.442
 21
-216.558
  0
LINE
  8
0
 10
123.442
 20
-216.558
 11
123.277
 21
-216.374
  0
LINE
  8
0
 10
123.277
 20
-216.374
 11
123.134
 21
-216.172
  0
LINE
  8
0
 10
123.134
 20
-216.172
 11
123.015
 21
-215.956
  0
LINE
  8
0
 10
123.015
 20
-215.956
 11
122.92
 21
-215.728
  0
LINE
  8
0
 10
122.92
 20
-215.728
 11
122.852
 21
-215.49
  0
LINE
  8
0
 10
122.852
 20
-215.49
 11
122.81
 21
-215.247
  0
LINE
  8
0
 10
122.81
 20
-215.247
 11
122.797
 21
-215
  0
LINE
  8
0
 10
122.797
 20
-215
 11
122.81
 21
-214.753
  0
LINE
  8
0
 10
122.81
 20
-214.753
 11
122.852
 21
-214.51
  0
LINE
  8
0
 10
122.852
 20
-214.51
 11
122.92
 21
-214.272
  0
LINE
  8
0
 10
122.92
 20
-214.272
 11
123.015
 21
-214.044
  0
LINE
  8
0
 10
123.015
 20
-214.044
 11
123.134
 21
-213.828
  0
LINE
  8
0
 10
123.134
 20
-213.828
 11
123.277
 21
-213.626
  0
LINE
  8
0
 10
123.277
 20
-213.626
 11
123.442
 21
-213.442
  0
LINE
  8
0
 10
123.442
 20
-213.442
 11
123.626
 21
-213.277
  0
LINE
  8
0
 10
123.626
 20
-213.277
 11
123.828
 21
-213.134
  0
LINE
  8
0
 10
123.828
 20
-213.134
 11
124.044
 21
-213.015
  0
LINE
  8
0
 10
124.044
 20
-213.015
 11
124.272
 21
-212.92
  0
LINE
  8
0
 10
124.272
 20
-212.92
 11
124.51
 21
-212.852
  0
LINE
  8
0
 10
124.51
 20
-212.852
 11
124.753
 21
-212.81
  0
LINE
  8
0
 10
124.753
 20
-212.81
 11
125
 21
-212.797
  0
LINE
  8
0
 10
125
 20
-212.797
 11
125.247
 21
-212.81
  0
LINE
  8
0
 10
125.247
 20
-212.81
 11
125.49
 21
-212.852
  0
LINE
  8
0
 10
125.49
 20
-212.852
 11
125.728
 21
-212.92
  0
LINE
  8
0
 10
125.728
 20
-212.92
 11
125.956
 21
-213.015
  0
LINE
  8
0
 10
125.956
 20
-213.015
 11
126.172
 21
-213.134
  0
LINE
  8
0
 10
126.172
 20
-213.134
 11
126.374
 21
-213.277
  0
LINE
  8
0
 10
126.374
 20
-213.277
 11
126.558
 21
-213.442
  0
LINE
  8
0
 10
126.558
 20
-213.442
 11
126.723
 21
-213.626
  0
LINE
  8
0
 10
126.723
 20
-213.626
 11
126.866
 21
-213.828
  0
LINE
  8
0
 10
126.866
 20
-213.828
 11
126.985
 21
-214.044
  0
LINE
  8
0
 10
126.985
 20
-214.044
 11
127.08
 21
-214.272
  0
LINE
  8
0
 10
127.08
 20
-214.272
 11
127.148
 21
-214.51
  0
LINE
  8
0
 10
127.148
 20
-214.51
 11
127.19
 21
-214.753
  0
LINE
  8
0
 10
127.19
 20
-214.753
 11
127.203
 21
-215
  0
LINE
  8
0
 10
127.203
 20
-215
 11
127.19
 21
-215.247
  0
LINE
  8
0
 10
127.19
 20
-215.247
 11
127.148
 21
-215.49
  0
LINE
  8
0
 10
127.148
 20
-215.49
 11
127.08
 21
-215.728
  0
LINE
  8
0
 10
127.08
 20
-215.728
 11
126.985
 21
-215.956
  0
LINE
  8
0
 10
126.985
 20
-215.956
 11
126.866
 21
-216.172
  0
LINE
  8
0
 10
126.866
 20
-216.172
 11
126.723
 21
-216.374
  0
LINE
  8
0
 10
126.723
 20
-216.374
 11
126.558
 21
-216.558
  0
LINE
  8
0
 10
126.558
 20
-216.558
 11
126.374
 21
-216.723
  0
LINE
  8
0
 10
126.374
 20
-216.723
 11
126.172
 21
-216.866
  0
LINE
  8
0
 10
126.172
 20
-216.866
 11
125.956
 21
-216.985
  0
LINE
  8
0
 10
125.956
 20
-216.985
 11
125.728
 21
-217.08
  0
LINE
  8
0
 10
125.728
 20
-217.08
 11
125.49
 21
-217.148
  0
LINE
  8
0
 10
125.49
 20
-217.148
 11
125.247
 21
-217.19
  0
LINE
  8
0
 10
125.247
 20
-217.19
 11
125
 21
-217.203
  0
LINE
  8
0
 10
125
 20
-217.203
 11
124.753
 21
-217.19
  0
ENDSEC
  0
SECTION
  2
OBJECTS
  0
DICTIONARY
  0
ENDSEC
  0
EOF
