  0
SECTION
  2
BLOCKS
  0
ENDSEC
  0
SECTION
  2
ENTITIES
  0
LINE
  8
0
 10
194.223
 20
-199.975
 11
194.434
 21
-199.901
  0
LINE
  8
0
 10
194.434
 20
-199.901
 11
194.623
 21
-199.782
  0
LINE
  8
0
 10
194.623
 20
-199.782
 11
194.782
 21
-199.623
  0
LINE
  8
0
 10
194.782
 20
-199.623
 11
194.901
 21
-199.434
  0
LINE
  8
0
 10
194.901
 20
-199.434
 11
194.975
 21
-199.223
  0
LINE
  8
0
 10
194.975
 20
-199.223
 11
195
 21
-199
  0
LINE
  8
0
 10
195
 20
-199
 11
195
 21
199
  0
LINE
  8
0
 10
195
 20
199
 11
194.975
 21
199.223
  0
LINE
  8
0
 10
194.975
 20
199.223
 11
194.901
 21
199.434
  0
LINE
  8
0
 10
194.901
 20
199.434
 11
194.782
 21
199.623
  0
LINE
  8
0
 10
194.782
 20
199.623
 11
194.623
 21
199.782
  0
LINE
  8
0
 10
194.623
 20
199.782
 11
194.434
 21
199.901
  0
LINE
  8
0
 10
194.434
 20
199.901
 11
194.223
 21
199.975
  0
LINE
  8
0
 10
194.223
 20
199.975
 11
194
 21
200
  0
LINE
  8
0
 10
194
 20
200
 11
-194
 21
200
  0
LINE
  8
0
 10
-194
 20
200
 11
-194.223
 21
199.975
  0
LINE
  8
0
 10
-194.223
 20
199.975
 11
-194.434
 21
199.901
  0
LINE
  8
0
 10
-194.434
 20
199.901
 11
-194.623
 21
199.782
  0
LINE
  8
0
 10
-194.623
 20
199.782
 11
-194.782
 21
199.623
  0
LINE
  8
0
 10
-194.782
 20
199.623
 11
-194.901
 21
199.434
  0
LINE
  8
0
 10
-194.901
 20
199.434
 11
-194.975
 21
199.223
  0
LINE
  8
0
 10
-194.975
 20
199.223
 11
-195
 21
199
  0
LINE
  8
0
 10
-195
 20
199
 11
-195
 21
-199
  0
LINE
  8
0
 10
-195
 20
-199
 11
-194.975
 21
-199.223
  0
LINE
  8
0
 10
-194.975
 20
-199.223
 11
-194.901
 21
-199.434
  0
LINE
  8
0
 10
-194.901
 20
-199.434
 11
-194.782
 21
-199.623
  0
LINE
  8
0
 10
-194.782
 20
-199.623
 11
-194.623
 21
-199.782
  0
LINE
  8
0
 10
-194.623
 20
-199.782
 11
-194.434
 21
-199.901
  0
LINE
  8
0
 10
-194.434
 20
-199.901
 11
-194.223
 21
-199.975
  0
LINE
  8
0
 10
-194.223
 20
-199.975
 11
-194
 21
-200
  0
LINE
  8
0
 10
-194
 20
-200
 11
194
 21
-200
  0
LINE
  8
0
 10
194
 20
-200
 11
194.223
 21
-199.975
  0
LINE
  8
0
 10
164.738
 20
187.51
 11
164.48
 21
187.551
  0
LINE
  8
0
 10
164.48
 20
187.551
 11
164.226
 21
187.619
  0
LINE
  8
0
 10
164.226
 20
187.619
 11
163.982
 21
187.713
  0
LINE
  8
0
 10
163.982
 20
187.713
 11
163.748
 21
187.832
  0
LINE
  8
0
 10
163.748
 20
187.832
 11
163.529
 21
187.975
  0
LINE
  8
0
 10
163.529
 20
187.975
 11
163.325
 21
188.14
  0
LINE
  8
0
 10
163.325
 20
188.14
 11
163.14
 21
188.325
  0
LINE
  8
0
 10
163.14
 20
188.325
 11
162.975
 21
188.529
  0
LINE
  8
0
 10
162.975
 20
188.529
 11
162.832
 21
188.748
  0
LINE
  8
0
 10
162.832
 20
188.748
 11
162.713
 21
188.982
  0
LINE
  8
0
 10
162.713
 20
188.982
 11
162.619
 21
189.226
  0
LINE
  8
0
 10
162.619
 20
189.226
 11
162.551
 21
189.48
  0
LINE
  8
0
 10
162.551
 20
189.48
 11
162.51
 21
189.738
  0
LINE
  8
0
 10
162.51
 20
189.738
 11
162.497
 21
190
  0
LINE
  8
0
 10
162.497
 20
190
 11
162.51
 21
190.262
  0
LINE
  8
0
 10
162.51
 20
190.262
 11
162.551
 21
190.52
  0
LINE
  8
0
 10
162.551
 20
190.52
 11
162.619
 21
190.774
  0
LINE
  8
0
 10
162.619
 20
190.774
 11
162.713
 21
191.018
  0
LINE
  8
0
 10
162.713
 20
191.018
 11
162.832
 21
191.252
  0
LINE
  8
0
 10
162.832
 20
191.252
 11
162.975
 21
191.471
  0
LINE
  8
0
 10
162.975
 20
191.471
 11
163.14
 21
191.675
  0
LINE
  8
0
 10
163.14
 20
191.675
 11
163.325
 21
191.86
  0
LINE
  8
0
 10
163.325
 20
191.86
 11
163.529
 21
192.025
  0
LINE
  8
0
 10
163.529
 20
192.025
 11
163.748
 21
192.168
  0
LINE
  8
0
 10
163.748
 20
192.168
 11
163.982
 21
192.287
  0
LINE
  8
0
 10
163.982
 20
192.287
 11
164.226
 21
192.381
  0
LINE
  8
0
 10
164.226
 20
192.381
 11
164.48
 21
192.449
  0
LINE
  8
0
 10
164.48
 20
192.449
 11
164.738
 21
192.49
  0
LINE
  8
0
 10
164.738
 20
192.49
 11
165
 21
192.503
  0
LINE
  8
0
 10
165
 20
192.503
 11
165.262
 21
192.49
  0
LINE
  8
0
 10
165.262
 20
192.49
 11
165.52
 21
192.449
  0
LINE
  8
0
 10
165.52
 20
192.449
 11
165.774
 21
192.381
  0
LINE
  8
0
 10
165.774
 20
192.381
 11
166.018
 21
192.287
  0
LINE
  8
0
 10
166.018
 20
192.287
 11
166.252
 21
192.168
  0
LINE
  8
0
 10
166.252
 20
192.168
 11
166.471
 21
192.025
  0
LINE
  8
0
 10
166.471
 20
192.025
 11
166.675
 21
191.86
  0
LINE
  8
0
 10
166.675
 20
191.86
 11
166.86
 21
191.675
  0
LINE
  8
0
 10
166.86
 20
191.675
 11
167.025
 21
191.471
  0
LINE
  8
0
 10
167.025
 20
191.471
 11
167.168
 21
191.252
  0
LINE
  8
0
 10
167.168
 20
191.252
 11
167.287
 21
191.018
  0
LINE
  8
0
 10
167.287
 20
191.018
 11
167.381
 21
190.774
  0
LINE
  8
0
 10
167.381
 20
190.774
 11
167.449
 21
190.52
  0
LINE
  8
0
 10
167.449
 20
190.52
 11
167.49
 21
190.262
  0
LINE
  8
0
 10
167.49
 20
190.262
 11
167.503
 21
190
  0
LINE
  8
0
 10
167.503
 20
190
 11
167.49
 21
189.738
  0
LINE
  8
0
 10
167.49
 20
189.738
 11
167.449
 21
189.48
  0
LINE
  8
0
 10
167.449
 20
189.48
 11
167.381
 21
189.226
  0
LINE
  8
0
 10
167.381
 20
189.226
 11
167.287
 21
188.982
  0
LINE
  8
0
 10
167.287
 20
188.982
 11
167.168
 21
188.748
  0
LINE
  8
0
 10
167.168
 20
188.748
 11
167.025
 21
188.529
  0
LINE
  8
0
 10
167.025
 20
188.529
 11
166.86
 21
188.325
  0
LINE
  8
0
 10
166.86
 20
188.325
 11
166.675
 21
188.14
  0
LINE
  8
0
 10
166.675
 20
188.14
 11
166.471
 21
187.975
  0
LINE
  8
0
 10
166.471
 20
187.975
 11
166.252
 21
187.832
  0
LINE
  8
0
 10
166.252
 20
187.832
 11
166.018
 21
187.713
  0
LINE
  8
0
 10
166.018
 20
187.713
 11
165.774
 21
187.619
  0
LINE
  8
0
 10
165.774
 20
187.619
 11
165.52
 21
187.551
  0
LINE
  8
0
 10
165.52
 20
187.551
 11
165.262
 21
187.51
  0
LINE
  8
0
 10
165.262
 20
187.51
 11
165
 21
187.497
  0
LINE
  8
0
 10
165
 20
187.497
 11
164.738
 21
187.51
  0
LINE
  8
0
 10
-185.262
 20
187.51
 11
-185.52
 21
187.551
  0
LINE
  8
0
 10
-185.52
 20
187.551
 11
-185.774
 21
187.619
  0
LINE
  8
0
 10
-185.774
 20
187.619
 11
-186.018
 21
187.713
  0
LINE
  8
0
 10
-186.018
 20
187.713
 11
-186.252
 21
187.832
  0
LINE
  8
0
 10
-186.252
 20
187.832
 11
-186.471
 21
187.975
  0
LINE
  8
0
 10
-186.471
 20
187.975
 11
-186.675
 21
188.14
  0
LINE
  8
0
 10
-186.675
 20
188.14
 11
-186.86
 21
188.325
  0
LINE
  8
0
 10
-186.86
 20
188.325
 11
-187.025
 21
188.529
  0
LINE
  8
0
 10
-187.025
 20
188.529
 11
-187.168
 21
188.748
  0
LINE
  8
0
 10
-187.168
 20
188.748
 11
-187.287
 21
188.982
  0
LINE
  8
0
 10
-187.287
 20
188.982
 11
-187.381
 21
189.226
  0
LINE
  8
0
 10
-187.381
 20
189.226
 11
-187.449
 21
189.48
  0
LINE
  8
0
 10
-187.449
 20
189.48
 11
-187.49
 21
189.738
  0
LINE
  8
0
 10
-187.49
 20
189.738
 11
-187.503
 21
190
  0
LINE
  8
0
 10
-187.503
 20
190
 11
-187.49
 21
190.262
  0
LINE
  8
0
 10
-187.49
 20
190.262
 11
-187.449
 21
190.52
  0
LINE
  8
0
 10
-187.449
 20
190.52
 11
-187.381
 21
190.774
  0
LINE
  8
0
 10
-187.381
 20
190.774
 11
-187.287
 21
191.018
  0
LINE
  8
0
 10
-187.287
 20
191.018
 11
-187.168
 21
191.252
  0
LINE
  8
0
 10
-187.168
 20
191.252
 11
-187.025
 21
191.471
  0
LINE
  8
0
 10
-187.025
 20
191.471
 11
-186.86
 21
191.675
  0
LINE
  8
0
 10
-186.86
 20
191.675
 11
-186.675
 21
191.86
  0
LINE
  8
0
 10
-186.675
 20
191.86
 11
-186.471
 21
192.025
  0
LINE
  8
0
 10
-186.471
 20
192.025
 11
-186.252
 21
192.168
  0
LINE
  8
0
 10
-186.252
 20
192.168
 11
-186.018
 21
192.287
  0
LINE
  8
0
 10
-186.018
 20
192.287
 11
-185.774
 21
192.381
  0
LINE
  8
0
 10
-185.774
 20
192.381
 11
-185.52
 21
192.449
  0
LINE
  8
0
 10
-185.52
 20
192.449
 11
-185.262
 21
192.49
  0
LINE
  8
0
 10
-185.262
 20
192.49
 11
-185
 21
192.503
  0
LINE
  8
0
 10
-185
 20
192.503
 11
-184.738
 21
192.49
  0
LINE
  8
0
 10
-184.738
 20
192.49
 11
-184.48
 21
192.449
  0
LINE
  8
0
 10
-184.48
 20
192.449
 11
-184.226
 21
192.381
  0
LINE
  8
0
 10
-184.226
 20
192.381
 11
-183.982
 21
192.287
  0
LINE
  8
0
 10
-183.982
 20
192.287
 11
-183.748
 21
192.168
  0
LINE
  8
0
 10
-183.748
 20
192.168
 11
-183.529
 21
192.025
  0
LINE
  8
0
 10
-183.529
 20
192.025
 11
-183.325
 21
191.86
  0
LINE
  8
0
 10
-183.325
 20
191.86
 11
-183.14
 21
191.675
  0
LINE
  8
0
 10
-183.14
 20
191.675
 11
-182.975
 21
191.471
  0
LINE
  8
0
 10
-182.975
 20
191.471
 11
-182.832
 21
191.252
  0
LINE
  8
0
 10
-182.832
 20
191.252
 11
-182.713
 21
191.018
  0
LINE
  8
0
 10
-182.713
 20
191.018
 11
-182.619
 21
190.774
  0
LINE
  8
0
 10
-182.619
 20
190.774
 11
-182.551
 21
190.52
  0
LINE
  8
0
 10
-182.551
 20
190.52
 11
-182.51
 21
190.262
  0
LINE
  8
0
 10
-182.51
 20
190.262
 11
-182.497
 21
190
  0
LINE
  8
0
 10
-182.497
 20
190
 11
-182.51
 21
189.738
  0
LINE
  8
0
 10
-182.51
 20
189.738
 11
-182.551
 21
189.48
  0
LINE
  8
0
 10
-182.551
 20
189.48
 11
-182.619
 21
189.226
  0
LINE
  8
0
 10
-182.619
 20
189.226
 11
-182.713
 21
188.982
  0
LINE
  8
0
 10
-182.713
 20
188.982
 11
-182.832
 21
188.748
  0
LINE
  8
0
 10
-182.832
 20
188.748
 11
-182.975
 21
188.529
  0
LINE
  8
0
 10
-182.975
 20
188.529
 11
-183.14
 21
188.325
  0
LINE
  8
0
 10
-183.14
 20
188.325
 11
-183.325
 21
188.14
  0
LINE
  8
0
 10
-183.325
 20
188.14
 11
-183.529
 21
187.975
  0
LINE
  8
0
 10
-183.529
 20
187.975
 11
-183.748
 21
187.832
  0
LINE
  8
0
 10
-183.748
 20
187.832
 11
-183.982
 21
187.713
  0
LINE
  8
0
 10
-183.982
 20
187.713
 11
-184.226
 21
187.619
  0
LINE
  8
0
 10
-184.226
 20
187.619
 11
-184.48
 21
187.551
  0
LINE
  8
0
 10
-184.48
 20
187.551
 11
-184.738
 21
187.51
  0
LINE
  8
0
 10
-184.738
 20
187.51
 11
-185
 21
187.497
  0
LINE
  8
0
 10
-185
 20
187.497
 11
-185.262
 21
187.51
  0
LINE
  8
0
 10
184.738
 20
187.51
 11
184.48
 21
187.551
  0
LINE
  8
0
 10
184.48
 20
187.551
 11
184.226
 21
187.619
  0
LINE
  8
0
 10
184.226
 20
187.619
 11
183.982
 21
187.713
  0
LINE
  8
0
 10
183.982
 20
187.713
 11
183.748
 21
187.832
  0
LINE
  8
0
 10
183.748
 20
187.832
 11
183.529
 21
187.975
  0
LINE
  8
0
 10
183.529
 20
187.975
 11
183.325
 21
188.14
  0
LINE
  8
0
 10
183.325
 20
188.14
 11
183.14
 21
188.325
  0
LINE
  8
0
 10
183.14
 20
188.325
 11
182.975
 21
188.529
  0
LINE
  8
0
 10
182.975
 20
188.529
 11
182.832
 21
188.748
  0
LINE
  8
0
 10
182.832
 20
188.748
 11
182.713
 21
188.982
  0
LINE
  8
0
 10
182.713
 20
188.982
 11
182.619
 21
189.226
  0
LINE
  8
0
 10
182.619
 20
189.226
 11
182.551
 21
189.48
  0
LINE
  8
0
 10
182.551
 20
189.48
 11
182.51
 21
189.738
  0
LINE
  8
0
 10
182.51
 20
189.738
 11
182.497
 21
190
  0
LINE
  8
0
 10
182.497
 20
190
 11
182.51
 21
190.262
  0
LINE
  8
0
 10
182.51
 20
190.262
 11
182.551
 21
190.52
  0
LINE
  8
0
 10
182.551
 20
190.52
 11
182.619
 21
190.774
  0
LINE
  8
0
 10
182.619
 20
190.774
 11
182.713
 21
191.018
  0
LINE
  8
0
 10
182.713
 20
191.018
 11
182.832
 21
191.252
  0
LINE
  8
0
 10
182.832
 20
191.252
 11
182.975
 21
191.471
  0
LINE
  8
0
 10
182.975
 20
191.471
 11
183.14
 21
191.675
  0
LINE
  8
0
 10
183.14
 20
191.675
 11
183.325
 21
191.86
  0
LINE
  8
0
 10
183.325
 20
191.86
 11
183.529
 21
192.025
  0
LINE
  8
0
 10
183.529
 20
192.025
 11
183.748
 21
192.168
  0
LINE
  8
0
 10
183.748
 20
192.168
 11
183.982
 21
192.287
  0
LINE
  8
0
 10
183.982
 20
192.287
 11
184.226
 21
192.381
  0
LINE
  8
0
 10
184.226
 20
192.381
 11
184.48
 21
192.449
  0
LINE
  8
0
 10
184.48
 20
192.449
 11
184.738
 21
192.49
  0
LINE
  8
0
 10
184.738
 20
192.49
 11
185
 21
192.503
  0
LINE
  8
0
 10
185
 20
192.503
 11
185.262
 21
192.49
  0
LINE
  8
0
 10
185.262
 20
192.49
 11
185.52
 21
192.449
  0
LINE
  8
0
 10
185.52
 20
192.449
 11
185.774
 21
192.381
  0
LINE
  8
0
 10
185.774
 20
192.381
 11
186.018
 21
192.287
  0
LINE
  8
0
 10
186.018
 20
192.287
 11
186.252
 21
192.168
  0
LINE
  8
0
 10
186.252
 20
192.168
 11
186.471
 21
192.025
  0
LINE
  8
0
 10
186.471
 20
192.025
 11
186.675
 21
191.86
  0
LINE
  8
0
 10
186.675
 20
191.86
 11
186.86
 21
191.675
  0
LINE
  8
0
 10
186.86
 20
191.675
 11
187.025
 21
191.471
  0
LINE
  8
0
 10
187.025
 20
191.471
 11
187.168
 21
191.252
  0
LINE
  8
0
 10
187.168
 20
191.252
 11
187.287
 21
191.018
  0
LINE
  8
0
 10
187.287
 20
191.018
 11
187.381
 21
190.774
  0
LINE
  8
0
 10
187.381
 20
190.774
 11
187.449
 21
190.52
  0
LINE
  8
0
 10
187.449
 20
190.52
 11
187.49
 21
190.262
  0
LINE
  8
0
 10
187.49
 20
190.262
 11
187.503
 21
190
  0
LINE
  8
0
 10
187.503
 20
190
 11
187.49
 21
189.738
  0
LINE
  8
0
 10
187.49
 20
189.738
 11
187.449
 21
189.48
  0
LINE
  8
0
 10
187.449
 20
189.48
 11
187.381
 21
189.226
  0
LINE
  8
0
 10
187.381
 20
189.226
 11
187.287
 21
188.982
  0
LINE
  8
0
 10
187.287
 20
188.982
 11
187.168
 21
188.748
  0
LINE
  8
0
 10
187.168
 20
188.748
 11
187.025
 21
188.529
  0
LINE
  8
0
 10
187.025
 20
188.529
 11
186.86
 21
188.325
  0
LINE
  8
0
 10
186.86
 20
188.325
 11
186.675
 21
188.14
  0
LINE
  8
0
 10
186.675
 20
188.14
 11
186.471
 21
187.975
  0
LINE
  8
0
 10
186.471
 20
187.975
 11
186.252
 21
187.832
  0
LINE
  8
0
 10
186.252
 20
187.832
 11
186.018
 21
187.713
  0
LINE
  8
0
 10
186.018
 20
187.713
 11
185.774
 21
187.619
  0
LINE
  8
0
 10
185.774
 20
187.619
 11
185.52
 21
187.551
  0
LINE
  8
0
 10
185.52
 20
187.551
 11
185.262
 21
187.51
  0
LINE
  8
0
 10
185.262
 20
187.51
 11
185
 21
187.497
  0
LINE
  8
0
 10
185
 20
187.497
 11
184.738
 21
187.51
  0
LINE
  8
0
 10
-165.262
 20
187.51
 11
-165.52
 21
187.551
  0
LINE
  8
0
 10
-165.52
 20
187.551
 11
-165.774
 21
187.619
  0
LINE
  8
0
 10
-165.774
 20
187.619
 11
-166.018
 21
187.713
  0
LINE
  8
0
 10
-166.018
 20
187.713
 11
-166.252
 21
187.832
  0
LINE
  8
0
 10
-166.252
 20
187.832
 11
-166.471
 21
187.975
  0
LINE
  8
0
 10
-166.471
 20
187.975
 11
-166.675
 21
188.14
  0
LINE
  8
0
 10
-166.675
 20
188.14
 11
-166.86
 21
188.325
  0
LINE
  8
0
 10
-166.86
 20
188.325
 11
-167.025
 21
188.529
  0
LINE
  8
0
 10
-167.025
 20
188.529
 11
-167.168
 21
188.748
  0
LINE
  8
0
 10
-167.168
 20
188.748
 11
-167.287
 21
188.982
  0
LINE
  8
0
 10
-167.287
 20
188.982
 11
-167.381
 21
189.226
  0
LINE
  8
0
 10
-167.381
 20
189.226
 11
-167.449
 21
189.48
  0
LINE
  8
0
 10
-167.449
 20
189.48
 11
-167.49
 21
189.738
  0
LINE
  8
0
 10
-167.49
 20
189.738
 11
-167.503
 21
190
  0
LINE
  8
0
 10
-167.503
 20
190
 11
-167.49
 21
190.262
  0
LINE
  8
0
 10
-167.49
 20
190.262
 11
-167.449
 21
190.52
  0
LINE
  8
0
 10
-167.449
 20
190.52
 11
-167.381
 21
190.774
  0
LINE
  8
0
 10
-167.381
 20
190.774
 11
-167.287
 21
191.018
  0
LINE
  8
0
 10
-167.287
 20
191.018
 11
-167.168
 21
191.252
  0
LINE
  8
0
 10
-167.168
 20
191.252
 11
-167.025
 21
191.471
  0
LINE
  8
0
 10
-167.025
 20
191.471
 11
-166.86
 21
191.675
  0
LINE
  8
0
 10
-166.86
 20
191.675
 11
-166.675
 21
191.86
  0
LINE
  8
0
 10
-166.675
 20
191.86
 11
-166.471
 21
192.025
  0
LINE
  8
0
 10
-166.471
 20
192.025
 11
-166.252
 21
192.168
  0
LINE
  8
0
 10
-166.252
 20
192.168
 11
-166.018
 21
192.287
  0
LINE
  8
0
 10
-166.018
 20
192.287
 11
-165.774
 21
192.381
  0
LINE
  8
0
 10
-165.774
 20
192.381
 11
-165.52
 21
192.449
  0
LINE
  8
0
 10
-165.52
 20
192.449
 11
-165.262
 21
192.49
  0
LINE
  8
0
 10
-165.262
 20
192.49
 11
-165
 21
192.503
  0
LINE
  8
0
 10
-165
 20
192.503
 11
-164.738
 21
192.49
  0
LINE
  8
0
 10
-164.738
 20
192.49
 11
-164.48
 21
192.449
  0
LINE
  8
0
 10
-164.48
 20
192.449
 11
-164.226
 21
192.381
  0
LINE
  8
0
 10
-164.226
 20
192.381
 11
-163.982
 21
192.287
  0
LINE
  8
0
 10
-163.982
 20
192.287
 11
-163.748
 21
192.168
  0
LINE
  8
0
 10
-163.748
 20
192.168
 11
-163.529
 21
192.025
  0
LINE
  8
0
 10
-163.529
 20
192.025
 11
-163.325
 21
191.86
  0
LINE
  8
0
 10
-163.325
 20
191.86
 11
-163.14
 21
191.675
  0
LINE
  8
0
 10
-163.14
 20
191.675
 11
-162.975
 21
191.471
  0
LINE
  8
0
 10
-162.975
 20
191.471
 11
-162.832
 21
191.252
  0
LINE
  8
0
 10
-162.832
 20
191.252
 11
-162.713
 21
191.018
  0
LINE
  8
0
 10
-162.713
 20
191.018
 11
-162.619
 21
190.774
  0
LINE
  8
0
 10
-162.619
 20
190.774
 11
-162.551
 21
190.52
  0
LINE
  8
0
 10
-162.551
 20
190.52
 11
-162.51
 21
190.262
  0
LINE
  8
0
 10
-162.51
 20
190.262
 11
-162.497
 21
190
  0
LINE
  8
0
 10
-162.497
 20
190
 11
-162.51
 21
189.738
  0
LINE
  8
0
 10
-162.51
 20
189.738
 11
-162.551
 21
189.48
  0
LINE
  8
0
 10
-162.551
 20
189.48
 11
-162.619
 21
189.226
  0
LINE
  8
0
 10
-162.619
 20
189.226
 11
-162.713
 21
188.982
  0
LINE
  8
0
 10
-162.713
 20
188.982
 11
-162.832
 21
188.748
  0
LINE
  8
0
 10
-162.832
 20
188.748
 11
-162.975
 21
188.529
  0
LINE
  8
0
 10
-162.975
 20
188.529
 11
-163.14
 21
188.325
  0
LINE
  8
0
 10
-163.14
 20
188.325
 11
-163.325
 21
188.14
  0
LINE
  8
0
 10
-163.325
 20
188.14
 11
-163.529
 21
187.975
  0
LINE
  8
0
 10
-163.529
 20
187.975
 11
-163.748
 21
187.832
  0
LINE
  8
0
 10
-163.748
 20
187.832
 11
-163.982
 21
187.713
  0
LINE
  8
0
 10
-163.982
 20
187.713
 11
-164.226
 21
187.619
  0
LINE
  8
0
 10
-164.226
 20
187.619
 11
-164.48
 21
187.551
  0
LINE
  8
0
 10
-164.48
 20
187.551
 11
-164.738
 21
187.51
  0
LINE
  8
0
 10
-164.738
 20
187.51
 11
-165
 21
187.497
  0
LINE
  8
0
 10
-165
 20
187.497
 11
-165.262
 21
187.51
  0
LINE
  8
0
 10
-125.247
 20
187.81
 11
-125.49
 21
187.852
  0
LINE
  8
0
 10
-125.49
 20
187.852
 11
-125.728
 21
187.92
  0
LINE
  8
0
 10
-125.728
 20
187.92
 11
-125.956
 21
188.015
  0
LINE
  8
0
 10
-125.956
 20
188.015
 11
-126.172
 21
188.134
  0
LINE
  8
0
 10
-126.172
 20
188.134
 11
-126.374
 21
188.277
  0
LINE
  8
0
 10
-126.374
 20
188.277
 11
-126.558
 21
188.442
  0
LINE
  8
0
 10
-126.558
 20
188.442
 11
-126.723
 21
188.626
  0
LINE
  8
0
 10
-126.723
 20
188.626
 11
-126.866
 21
188.828
  0
LINE
  8
0
 10
-126.866
 20
188.828
 11
-126.985
 21
189.044
  0
LINE
  8
0
 10
-126.985
 20
189.044
 11
-127.08
 21
189.272
  0
LINE
  8
0
 10
-127.08
 20
189.272
 11
-127.148
 21
189.51
  0
LINE
  8
0
 10
-127.148
 20
189.51
 11
-127.19
 21
189.753
  0
LINE
  8
0
 10
-127.19
 20
189.753
 11
-127.203
 21
190
  0
LINE
  8
0
 10
-127.203
 20
190
 11
-127.19
 21
190.247
  0
LINE
  8
0
 10
-127.19
 20
190.247
 11
-127.148
 21
190.49
  0
LINE
  8
0
 10
-127.148
 20
190.49
 11
-127.08
 21
190.728
  0
LINE
  8
0
 10
-127.08
 20
190.728
 11
-126.985
 21
190.956
  0
LINE
  8
0
 10
-126.985
 20
190.956
 11
-126.866
 21
191.172
  0
LINE
  8
0
 10
-126.866
 20
191.172
 11
-126.723
 21
191.374
  0
LINE
  8
0
 10
-126.723
 20
191.374
 11
-126.558
 21
191.558
  0
LINE
  8
0
 10
-126.558
 20
191.558
 11
-126.374
 21
191.723
  0
LINE
  8
0
 10
-126.374
 20
191.723
 11
-126.172
 21
191.866
  0
LINE
  8
0
 10
-126.172
 20
191.866
 11
-125.956
 21
191.985
  0
LINE
  8
0
 10
-125.956
 20
191.985
 11
-125.728
 21
192.08
  0
LINE
  8
0
 10
-125.728
 20
192.08
 11
-125.49
 21
192.148
  0
LINE
  8
0
 10
-125.49
 20
192.148
 11
-125.247
 21
192.19
  0
LINE
  8
0
 10
-125.247
 20
192.19
 11
-125
 21
192.203
  0
LINE
  8
0
 10
-125
 20
192.203
 11
-124.753
 21
192.19
  0
LINE
  8
0
 10
-124.753
 20
192.19
 11
-124.51
 21
192.148
  0
LINE
  8
0
 10
-124.51
 20
192.148
 11
-124.272
 21
192.08
  0
LINE
  8
0
 10
-124.272
 20
192.08
 11
-124.044
 21
191.985
  0
LINE
  8
0
 10
-124.044
 20
191.985
 11
-123.828
 21
191.866
  0
LINE
  8
0
 10
-123.828
 20
191.866
 11
-123.626
 21
191.723
  0
LINE
  8
0
 10
-123.626
 20
191.723
 11
-123.442
 21
191.558
  0
LINE
  8
0
 10
-123.442
 20
191.558
 11
-123.277
 21
191.374
  0
LINE
  8
0
 10
-123.277
 20
191.374
 11
-123.134
 21
191.172
  0
LINE
  8
0
 10
-123.134
 20
191.172
 11
-123.015
 21
190.956
  0
LINE
  8
0
 10
-123.015
 20
190.956
 11
-122.92
 21
190.728
  0
LINE
  8
0
 10
-122.92
 20
190.728
 11
-122.852
 21
190.49
  0
LINE
  8
0
 10
-122.852
 20
190.49
 11
-122.81
 21
190.247
  0
LINE
  8
0
 10
-122.81
 20
190.247
 11
-122.797
 21
190
  0
LINE
  8
0
 10
-122.797
 20
190
 11
-122.81
 21
189.753
  0
LINE
  8
0
 10
-122.81
 20
189.753
 11
-122.852
 21
189.51
  0
LINE
  8
0
 10
-122.852
 20
189.51
 11
-122.92
 21
189.272
  0
LINE
  8
0
 10
-122.92
 20
189.272
 11
-123.015
 21
189.044
  0
LINE
  8
0
 10
-123.015
 20
189.044
 11
-123.134
 21
188.828
  0
LINE
  8
0
 10
-123.134
 20
188.828
 11
-123.277
 21
188.626
  0
LINE
  8
0
 10
-123.277
 20
188.626
 11
-123.442
 21
188.442
  0
LINE
  8
0
 10
-123.442
 20
188.442
 11
-123.626
 21
188.277
  0
LINE
  8
0
 10
-123.626
 20
188.277
 11
-123.828
 21
188.134
  0
LINE
  8
0
 10
-123.828
 20
188.134
 11
-124.044
 21
188.015
  0
LINE
  8
0
 10
-124.044
 20
188.015
 11
-124.272
 21
187.92
  0
LINE
  8
0
 10
-124.272
 20
187.92
 11
-124.51
 21
187.852
  0
LINE
  8
0
 10
-124.51
 20
187.852
 11
-124.753
 21
187.81
  0
LINE
  8
0
 10
-124.753
 20
187.81
 11
-125
 21
187.797
  0
LINE
  8
0
 10
-125
 20
187.797
 11
-125.247
 21
187.81
  0
LINE
  8
0
 10
-0.246719
 20
187.81
 11
-0.490326
 21
187.852
  0
LINE
  8
0
 10
-0.490326
 20
187.852
 11
-0.727768
 21
187.92
  0
LINE
  8
0
 10
-0.727768
 20
187.92
 11
-0.956055
 21
188.015
  0
LINE
  8
0
 10
-0.956055
 20
188.015
 11
-1.17232
 21
188.134
  0
LINE
  8
0
 10
-1.17232
 20
188.134
 11
-1.37384
 21
188.277
  0
LINE
  8
0
 10
-1.37384
 20
188.277
 11
-1.55809
 21
188.442
  0
LINE
  8
0
 10
-1.55809
 20
188.442
 11
-1.72275
 21
188.626
  0
LINE
  8
0
 10
-1.72275
 20
188.626
 11
-1.86574
 21
188.828
  0
LINE
  8
0
 10
-1.86574
 20
188.828
 11
-1.98526
 21
189.044
  0
LINE
  8
0
 10
-1.98526
 20
189.044
 11
-2.07982
 21
189.272
  0
LINE
  8
0
 10
-2.07982
 20
189.272
 11
-2.14822
 21
189.51
  0
LINE
  8
0
 10
-2.14822
 20
189.51
 11
-2.18962
 21
189.753
  0
LINE
  8
0
 10
-2.18962
 20
189.753
 11
-2.20348
 21
190
  0
LINE
  8
0
 10
-2.20348
 20
190
 11
-2.18962
 21
190.247
  0
LINE
  8
0
 10
-2.18962
 20
190.247
 11
-2.14822
 21
190.49
  0
LINE
  8
0
 10
-2.14822
 20
190.49
 11
-2.07982
 21
190.728
  0
LINE
  8
0
 10
-2.07982
 20
190.728
 11
-1.98526
 21
190.956
  0
LINE
  8
0
 10
-1.98526
 20
190.956
 11
-1.86574
 21
191.172
  0
LINE
  8
0
 10
-1.86574
 20
191.172
 11
-1.72275
 21
191.374
  0
LINE
  8
0
 10
-1.72275
 20
191.374
 11
-1.55809
 21
191.558
  0
LINE
  8
0
 10
-1.55809
 20
191.558
 11
-1.37384
 21
191.723
  0
LINE
  8
0
 10
-1.37384
 20
191.723
 11
-1.17232
 21
191.866
  0
LINE
  8
0
 10
-1.17232
 20
191.866
 11
-0.956055
 21
191.985
  0
LINE
  8
0
 10
-0.956055
 20
191.985
 11
-0.727768
 21
192.08
  0
LINE
  8
0
 10
-0.727768
 20
192.08
 11
-0.490326
 21
192.148
  0
LINE
  8
0
 10
-0.490326
 20
192.148
 11
-0.246719
 21
192.19
  0
LINE
  8
0
 10
-0.246719
 20
192.19
 11
0
 21
192.203
  0
LINE
  8
0
 10
0
 20
192.203
 11
0.246704
 21
192.19
  0
LINE
  8
0
 10
0.246704
 20
192.19
 11
0.490311
 21
192.148
  0
LINE
  8
0
 10
0.490311
 20
192.148
 11
0.727753
 21
192.08
  0
LINE
  8
0
 10
0.727753
 20
192.08
 11
0.956039
 21
191.985
  0
LINE
  8
0
 10
0.956039
 20
191.985
 11
1.1723
 21
191.866
  0
LINE
  8
0
 10
1.1723
 20
191.866
 11
1.37383
 21
191.723
  0
LINE
  8
0
 10
1.37383
 20
191.723
 11
1.55807
 21
191.558
  0
LINE
  8
0
 10
1.55807
 20
191.558
 11
1.72273
 21
191.374
  0
LINE
  8
0
 10
1.72273
 20
191.374
 11
1.86572
 21
191.172
  0
LINE
  8
0
 10
1.86572
 20
191.172
 11
1.98524
 21
190.956
  0
LINE
  8
0
 10
1.98524
 20
190.956
 11
2.0798
 21
190.728
  0
LINE
  8
0
 10
2.0798
 20
190.728
 11
2.14821
 21
190.49
  0
LINE
  8
0
 10
2.14821
 20
190.49
 11
2.18961
 21
190.247
  0
LINE
  8
0
 10
2.18961
 20
190.247
 11
2.20346
 21
190
  0
LINE
  8
0
 10
2.20346
 20
190
 11
2.18961
 21
189.753
  0
LINE
  8
0
 10
2.18961
 20
189.753
 11
2.14821
 21
189.51
  0
LINE
  8
0
 10
2.14821
 20
189.51
 11
2.0798
 21
189.272
  0
LINE
  8
0
 10
2.0798
 20
189.272
 11
1.98524
 21
189.044
  0
LINE
  8
0
 10
1.98524
 20
189.044
 11
1.86572
 21
188.828
  0
LINE
  8
0
 10
1.86572
 20
188.828
 11
1.72273
 21
188.626
  0
LINE
  8
0
 10
1.72273
 20
188.626
 11
1.55807
 21
188.442
  0
LINE
  8
0
 10
1.55807
 20
188.442
 11
1.37383
 21
188.277
  0
LINE
  8
0
 10
1.37383
 20
188.277
 11
1.1723
 21
188.134
  0
LINE
  8
0
 10
1.1723
 20
188.134
 11
0.956039
 21
188.015
  0
LINE
  8
0
 10
0.956039
 20
188.015
 11
0.727753
 21
187.92
  0
LINE
  8
0
 10
0.727753
 20
187.92
 11
0.490311
 21
187.852
  0
LINE
  8
0
 10
0.490311
 20
187.852
 11
0.246704
 21
187.81
  0
LINE
  8
0
 10
0.246704
 20
187.81
 11
0
 21
187.797
  0
LINE
  8
0
 10
0
 20
187.797
 11
-0.246719
 21
187.81
  0
LINE
  8
0
 10
124.753
 20
187.81
 11
124.51
 21
187.852
  0
LINE
  8
0
 10
124.51
 20
187.852
 11
124.272
 21
187.92
  0
LINE
  8
0
 10
124.272
 20
187.92
 11
124.044
 21
188.015
  0
LINE
  8
0
 10
124.044
 20
188.015
 11
123.828
 21
188.134
  0
LINE
  8
0
 10
123.828
 20
188.134
 11
123.626
 21
188.277
  0
LINE
  8
0
 10
123.626
 20
188.277
 11
123.442
 21
188.442
  0
LINE
  8
0
 10
123.442
 20
188.442
 11
123.277
 21
188.626
  0
LINE
  8
0
 10
123.277
 20
188.626
 11
123.134
 21
188.828
  0
LINE
  8
0
 10
123.134
 20
188.828
 11
123.015
 21
189.044
  0
LINE
  8
0
 10
123.015
 20
189.044
 11
122.92
 21
189.272
  0
LINE
  8
0
 10
122.92
 20
189.272
 11
122.852
 21
189.51
  0
LINE
  8
0
 10
122.852
 20
189.51
 11
122.81
 21
189.753
  0
LINE
  8
0
 10
122.81
 20
189.753
 11
122.797
 21
190
  0
LINE
  8
0
 10
122.797
 20
190
 11
122.81
 21
190.247
  0
LINE
  8
0
 10
122.81
 20
190.247
 11
122.852
 21
190.49
  0
LINE
  8
0
 10
122.852
 20
190.49
 11
122.92
 21
190.728
  0
LINE
  8
0
 10
122.92
 20
190.728
 11
123.015
 21
190.956
  0
LINE
  8
0
 10
123.015
 20
190.956
 11
123.134
 21
191.172
  0
LINE
  8
0
 10
123.134
 20
191.172
 11
123.277
 21
191.374
  0
LINE
  8
0
 10
123.277
 20
191.374
 11
123.442
 21
191.558
  0
LINE
  8
0
 10
123.442
 20
191.558
 11
123.626
 21
191.723
  0
LINE
  8
0
 10
123.626
 20
191.723
 11
123.828
 21
191.866
  0
LINE
  8
0
 10
123.828
 20
191.866
 11
124.044
 21
191.985
  0
LINE
  8
0
 10
124.044
 20
191.985
 11
124.272
 21
192.08
  0
LINE
  8
0
 10
124.272
 20
192.08
 11
124.51
 21
192.148
  0
LINE
  8
0
 10
124.51
 20
192.148
 11
124.753
 21
192.19
  0
LINE
  8
0
 10
124.753
 20
192.19
 11
125
 21
192.203
  0
LINE
  8
0
 10
125
 20
192.203
 11
125.247
 21
192.19
  0
LINE
  8
0
 10
125.247
 20
192.19
 11
125.49
 21
192.148
  0
LINE
  8
0
 10
125.49
 20
192.148
 11
125.728
 21
192.08
  0
LINE
  8
0
 10
125.728
 20
192.08
 11
125.956
 21
191.985
  0
LINE
  8
0
 10
125.956
 20
191.985
 11
126.172
 21
191.866
  0
LINE
  8
0
 10
126.172
 20
191.866
 11
126.374
 21
191.723
  0
LINE
  8
0
 10
126.374
 20
191.723
 11
126.558
 21
191.558
  0
LINE
  8
0
 10
126.558
 20
191.558
 11
126.723
 21
191.374
  0
LINE
  8
0
 10
126.723
 20
191.374
 11
126.866
 21
191.172
  0
LINE
  8
0
 10
126.866
 20
191.172
 11
126.985
 21
190.956
  0
LINE
  8
0
 10
126.985
 20
190.956
 11
127.08
 21
190.728
  0
LINE
  8
0
 10
127.08
 20
190.728
 11
127.148
 21
190.49
  0
LINE
  8
0
 10
127.148
 20
190.49
 11
127.19
 21
190.247
  0
LINE
  8
0
 10
127.19
 20
190.247
 11
127.203
 21
190
  0
LINE
  8
0
 10
127.203
 20
190
 11
127.19
 21
189.753
  0
LINE
  8
0
 10
127.19
 20
189.753
 11
127.148
 21
189.51
  0
LINE
  8
0
 10
127.148
 20
189.51
 11
127.08
 21
189.272
  0
LINE
  8
0
 10
127.08
 20
189.272
 11
126.985
 21
189.044
  0
LINE
  8
0
 10
126.985
 20
189.044
 11
126.866
 21
188.828
  0
LINE
  8
0
 10
126.866
 20
188.828
 11
126.723
 21
188.626
  0
LINE
  8
0
 10
126.723
 20
188.626
 11
126.558
 21
188.442
  0
LINE
  8
0
 10
126.558
 20
188.442
 11
126.374
 21
188.277
  0
LINE
  8
0
 10
126.374
 20
188.277
 11
126.172
 21
188.134
  0
LINE
  8
0
 10
126.172
 20
188.134
 11
125.956
 21
188.015
  0
LINE
  8
0
 10
125.956
 20
188.015
 11
125.728
 21
187.92
  0
LINE
  8
0
 10
125.728
 20
187.92
 11
125.49
 21
187.852
  0
LINE
  8
0
 10
125.49
 20
187.852
 11
125.247
 21
187.81
  0
LINE
  8
0
 10
125.247
 20
187.81
 11
125
 21
187.797
  0
LINE
  8
0
 10
125
 20
187.797
 11
124.753
 21
187.81
  0
LINE
  8
0
 10
-185.247
 20
177.81
 11
-185.49
 21
177.852
  0
LINE
  8
0
 10
-185.49
 20
177.852
 11
-185.728
 21
177.92
  0
LINE
  8
0
 10
-185.728
 20
177.92
 11
-185.956
 21
178.015
  0
LINE
  8
0
 10
-185.956
 20
178.015
 11
-186.172
 21
178.134
  0
LINE
  8
0
 10
-186.172
 20
178.134
 11
-186.374
 21
178.277
  0
LINE
  8
0
 10
-186.374
 20
178.277
 11
-186.558
 21
178.442
  0
LINE
  8
0
 10
-186.558
 20
178.442
 11
-186.723
 21
178.626
  0
LINE
  8
0
 10
-186.723
 20
178.626
 11
-186.866
 21
178.828
  0
LINE
  8
0
 10
-186.866
 20
178.828
 11
-186.985
 21
179.044
  0
LINE
  8
0
 10
-186.985
 20
179.044
 11
-187.08
 21
179.272
  0
LINE
  8
0
 10
-187.08
 20
179.272
 11
-187.148
 21
179.51
  0
LINE
  8
0
 10
-187.148
 20
179.51
 11
-187.19
 21
179.753
  0
LINE
  8
0
 10
-187.19
 20
179.753
 11
-187.203
 21
180
  0
LINE
  8
0
 10
-187.203
 20
180
 11
-187.19
 21
180.247
  0
LINE
  8
0
 10
-187.19
 20
180.247
 11
-187.148
 21
180.49
  0
LINE
  8
0
 10
-187.148
 20
180.49
 11
-187.08
 21
180.728
  0
LINE
  8
0
 10
-187.08
 20
180.728
 11
-186.985
 21
180.956
  0
LINE
  8
0
 10
-186.985
 20
180.956
 11
-186.866
 21
181.172
  0
LINE
  8
0
 10
-186.866
 20
181.172
 11
-186.723
 21
181.374
  0
LINE
  8
0
 10
-186.723
 20
181.374
 11
-186.558
 21
181.558
  0
LINE
  8
0
 10
-186.558
 20
181.558
 11
-186.374
 21
181.723
  0
LINE
  8
0
 10
-186.374
 20
181.723
 11
-186.172
 21
181.866
  0
LINE
  8
0
 10
-186.172
 20
181.866
 11
-185.956
 21
181.985
  0
LINE
  8
0
 10
-185.956
 20
181.985
 11
-185.728
 21
182.08
  0
LINE
  8
0
 10
-185.728
 20
182.08
 11
-185.49
 21
182.148
  0
LINE
  8
0
 10
-185.49
 20
182.148
 11
-185.247
 21
182.19
  0
LINE
  8
0
 10
-185.247
 20
182.19
 11
-185
 21
182.203
  0
LINE
  8
0
 10
-185
 20
182.203
 11
-184.753
 21
182.19
  0
LINE
  8
0
 10
-184.753
 20
182.19
 11
-184.51
 21
182.148
  0
LINE
  8
0
 10
-184.51
 20
182.148
 11
-184.272
 21
182.08
  0
LINE
  8
0
 10
-184.272
 20
182.08
 11
-184.044
 21
181.985
  0
LINE
  8
0
 10
-184.044
 20
181.985
 11
-183.828
 21
181.866
  0
LINE
  8
0
 10
-183.828
 20
181.866
 11
-183.626
 21
181.723
  0
LINE
  8
0
 10
-183.626
 20
181.723
 11
-183.442
 21
181.558
  0
LINE
  8
0
 10
-183.442
 20
181.558
 11
-183.277
 21
181.374
  0
LINE
  8
0
 10
-183.277
 20
181.374
 11
-183.134
 21
181.172
  0
LINE
  8
0
 10
-183.134
 20
181.172
 11
-183.015
 21
180.956
  0
LINE
  8
0
 10
-183.015
 20
180.956
 11
-182.92
 21
180.728
  0
LINE
  8
0
 10
-182.92
 20
180.728
 11
-182.852
 21
180.49
  0
LINE
  8
0
 10
-182.852
 20
180.49
 11
-182.81
 21
180.247
  0
LINE
  8
0
 10
-182.81
 20
180.247
 11
-182.797
 21
180
  0
LINE
  8
0
 10
-182.797
 20
180
 11
-182.81
 21
179.753
  0
LINE
  8
0
 10
-182.81
 20
179.753
 11
-182.852
 21
179.51
  0
LINE
  8
0
 10
-182.852
 20
179.51
 11
-182.92
 21
179.272
  0
LINE
  8
0
 10
-182.92
 20
179.272
 11
-183.015
 21
179.044
  0
LINE
  8
0
 10
-183.015
 20
179.044
 11
-183.134
 21
178.828
  0
LINE
  8
0
 10
-183.134
 20
178.828
 11
-183.277
 21
178.626
  0
LINE
  8
0
 10
-183.277
 20
178.626
 11
-183.442
 21
178.442
  0
LINE
  8
0
 10
-183.442
 20
178.442
 11
-183.626
 21
178.277
  0
LINE
  8
0
 10
-183.626
 20
178.277
 11
-183.828
 21
178.134
  0
LINE
  8
0
 10
-183.828
 20
178.134
 11
-184.044
 21
178.015
  0
LINE
  8
0
 10
-184.044
 20
178.015
 11
-184.272
 21
177.92
  0
LINE
  8
0
 10
-184.272
 20
177.92
 11
-184.51
 21
177.852
  0
LINE
  8
0
 10
-184.51
 20
177.852
 11
-184.753
 21
177.81
  0
LINE
  8
0
 10
-184.753
 20
177.81
 11
-185
 21
177.797
  0
LINE
  8
0
 10
-185
 20
177.797
 11
-185.247
 21
177.81
  0
LINE
  8
0
 10
184.753
 20
177.81
 11
184.51
 21
177.852
  0
LINE
  8
0
 10
184.51
 20
177.852
 11
184.272
 21
177.92
  0
LINE
  8
0
 10
184.272
 20
177.92
 11
184.044
 21
178.015
  0
LINE
  8
0
 10
184.044
 20
178.015
 11
183.828
 21
178.134
  0
LINE
  8
0
 10
183.828
 20
178.134
 11
183.626
 21
178.277
  0
LINE
  8
0
 10
183.626
 20
178.277
 11
183.442
 21
178.442
  0
LINE
  8
0
 10
183.442
 20
178.442
 11
183.277
 21
178.626
  0
LINE
  8
0
 10
183.277
 20
178.626
 11
183.134
 21
178.828
  0
LINE
  8
0
 10
183.134
 20
178.828
 11
183.015
 21
179.044
  0
LINE
  8
0
 10
183.015
 20
179.044
 11
182.92
 21
179.272
  0
LINE
  8
0
 10
182.92
 20
179.272
 11
182.852
 21
179.51
  0
LINE
  8
0
 10
182.852
 20
179.51
 11
182.81
 21
179.753
  0
LINE
  8
0
 10
182.81
 20
179.753
 11
182.797
 21
180
  0
LINE
  8
0
 10
182.797
 20
180
 11
182.81
 21
180.247
  0
LINE
  8
0
 10
182.81
 20
180.247
 11
182.852
 21
180.49
  0
LINE
  8
0
 10
182.852
 20
180.49
 11
182.92
 21
180.728
  0
LINE
  8
0
 10
182.92
 20
180.728
 11
183.015
 21
180.956
  0
LINE
  8
0
 10
183.015
 20
180.956
 11
183.134
 21
181.172
  0
LINE
  8
0
 10
183.134
 20
181.172
 11
183.277
 21
181.374
  0
LINE
  8
0
 10
183.277
 20
181.374
 11
183.442
 21
181.558
  0
LINE
  8
0
 10
183.442
 20
181.558
 11
183.626
 21
181.723
  0
LINE
  8
0
 10
183.626
 20
181.723
 11
183.828
 21
181.866
  0
LINE
  8
0
 10
183.828
 20
181.866
 11
184.044
 21
181.985
  0
LINE
  8
0
 10
184.044
 20
181.985
 11
184.272
 21
182.08
  0
LINE
  8
0
 10
184.272
 20
182.08
 11
184.51
 21
182.148
  0
LINE
  8
0
 10
184.51
 20
182.148
 11
184.753
 21
182.19
  0
LINE
  8
0
 10
184.753
 20
182.19
 11
185
 21
182.203
  0
LINE
  8
0
 10
185
 20
182.203
 11
185.247
 21
182.19
  0
LINE
  8
0
 10
185.247
 20
182.19
 11
185.49
 21
182.148
  0
LINE
  8
0
 10
185.49
 20
182.148
 11
185.728
 21
182.08
  0
LINE
  8
0
 10
185.728
 20
182.08
 11
185.956
 21
181.985
  0
LINE
  8
0
 10
185.956
 20
181.985
 11
186.172
 21
181.866
  0
LINE
  8
0
 10
186.172
 20
181.866
 11
186.374
 21
181.723
  0
LINE
  8
0
 10
186.374
 20
181.723
 11
186.558
 21
181.558
  0
LINE
  8
0
 10
186.558
 20
181.558
 11
186.723
 21
181.374
  0
LINE
  8
0
 10
186.723
 20
181.374
 11
186.866
 21
181.172
  0
LINE
  8
0
 10
186.866
 20
181.172
 11
186.985
 21
180.956
  0
LINE
  8
0
 10
186.985
 20
180.956
 11
187.08
 21
180.728
  0
LINE
  8
0
 10
187.08
 20
180.728
 11
187.148
 21
180.49
  0
LINE
  8
0
 10
187.148
 20
180.49
 11
187.19
 21
180.247
  0
LINE
  8
0
 10
187.19
 20
180.247
 11
187.203
 21
180
  0
LINE
  8
0
 10
187.203
 20
180
 11
187.19
 21
179.753
  0
LINE
  8
0
 10
187.19
 20
179.753
 11
187.148
 21
179.51
  0
LINE
  8
0
 10
187.148
 20
179.51
 11
187.08
 21
179.272
  0
LINE
  8
0
 10
187.08
 20
179.272
 11
186.985
 21
179.044
  0
LINE
  8
0
 10
186.985
 20
179.044
 11
186.866
 21
178.828
  0
LINE
  8
0
 10
186.866
 20
178.828
 11
186.723
 21
178.626
  0
LINE
  8
0
 10
186.723
 20
178.626
 11
186.558
 21
178.442
  0
LINE
  8
0
 10
186.558
 20
178.442
 11
186.374
 21
178.277
  0
LINE
  8
0
 10
186.374
 20
178.277
 11
186.172
 21
178.134
  0
LINE
  8
0
 10
186.172
 20
178.134
 11
185.956
 21
178.015
  0
LINE
  8
0
 10
185.956
 20
178.015
 11
185.728
 21
177.92
  0
LINE
  8
0
 10
185.728
 20
177.92
 11
185.49
 21
177.852
  0
LINE
  8
0
 10
185.49
 20
177.852
 11
185.247
 21
177.81
  0
LINE
  8
0
 10
185.247
 20
177.81
 11
185
 21
177.797
  0
LINE
  8
0
 10
185
 20
177.797
 11
184.753
 21
177.81
  0
LINE
  8
0
 10
-185.262
 20
112.51
 11
-185.52
 21
112.551
  0
LINE
  8
0
 10
-185.52
 20
112.551
 11
-185.774
 21
112.619
  0
LINE
  8
0
 10
-185.774
 20
112.619
 11
-186.018
 21
112.713
  0
LINE
  8
0
 10
-186.018
 20
112.713
 11
-186.252
 21
112.832
  0
LINE
  8
0
 10
-186.252
 20
112.832
 11
-186.471
 21
112.975
  0
LINE
  8
0
 10
-186.471
 20
112.975
 11
-186.675
 21
113.14
  0
LINE
  8
0
 10
-186.675
 20
113.14
 11
-186.86
 21
113.325
  0
LINE
  8
0
 10
-186.86
 20
113.325
 11
-187.025
 21
113.529
  0
LINE
  8
0
 10
-187.025
 20
113.529
 11
-187.168
 21
113.748
  0
LINE
  8
0
 10
-187.168
 20
113.748
 11
-187.287
 21
113.982
  0
LINE
  8
0
 10
-187.287
 20
113.982
 11
-187.381
 21
114.226
  0
LINE
  8
0
 10
-187.381
 20
114.226
 11
-187.449
 21
114.48
  0
LINE
  8
0
 10
-187.449
 20
114.48
 11
-187.49
 21
114.738
  0
LINE
  8
0
 10
-187.49
 20
114.738
 11
-187.503
 21
115
  0
LINE
  8
0
 10
-187.503
 20
115
 11
-187.49
 21
115.262
  0
LINE
  8
0
 10
-187.49
 20
115.262
 11
-187.449
 21
115.52
  0
LINE
  8
0
 10
-187.449
 20
115.52
 11
-187.381
 21
115.774
  0
LINE
  8
0
 10
-187.381
 20
115.774
 11
-187.287
 21
116.018
  0
LINE
  8
0
 10
-187.287
 20
116.018
 11
-187.168
 21
116.252
  0
LINE
  8
0
 10
-187.168
 20
116.252
 11
-187.025
 21
116.471
  0
LINE
  8
0
 10
-187.025
 20
116.471
 11
-186.86
 21
116.675
  0
LINE
  8
0
 10
-186.86
 20
116.675
 11
-186.675
 21
116.86
  0
LINE
  8
0
 10
-186.675
 20
116.86
 11
-186.471
 21
117.025
  0
LINE
  8
0
 10
-186.471
 20
117.025
 11
-186.252
 21
117.168
  0
LINE
  8
0
 10
-186.252
 20
117.168
 11
-186.018
 21
117.287
  0
LINE
  8
0
 10
-186.018
 20
117.287
 11
-185.774
 21
117.381
  0
LINE
  8
0
 10
-185.774
 20
117.381
 11
-185.52
 21
117.449
  0
LINE
  8
0
 10
-185.52
 20
117.449
 11
-185.262
 21
117.49
  0
LINE
  8
0
 10
-185.262
 20
117.49
 11
-185
 21
117.503
  0
LINE
  8
0
 10
-185
 20
117.503
 11
-184.738
 21
117.49
  0
LINE
  8
0
 10
-184.738
 20
117.49
 11
-184.48
 21
117.449
  0
LINE
  8
0
 10
-184.48
 20
117.449
 11
-184.226
 21
117.381
  0
LINE
  8
0
 10
-184.226
 20
117.381
 11
-183.982
 21
117.287
  0
LINE
  8
0
 10
-183.982
 20
117.287
 11
-183.748
 21
117.168
  0
LINE
  8
0
 10
-183.748
 20
117.168
 11
-183.529
 21
117.025
  0
LINE
  8
0
 10
-183.529
 20
117.025
 11
-183.325
 21
116.86
  0
LINE
  8
0
 10
-183.325
 20
116.86
 11
-183.14
 21
116.675
  0
LINE
  8
0
 10
-183.14
 20
116.675
 11
-182.975
 21
116.471
  0
LINE
  8
0
 10
-182.975
 20
116.471
 11
-182.832
 21
116.252
  0
LINE
  8
0
 10
-182.832
 20
116.252
 11
-182.713
 21
116.018
  0
LINE
  8
0
 10
-182.713
 20
116.018
 11
-182.619
 21
115.774
  0
LINE
  8
0
 10
-182.619
 20
115.774
 11
-182.551
 21
115.52
  0
LINE
  8
0
 10
-182.551
 20
115.52
 11
-182.51
 21
115.262
  0
LINE
  8
0
 10
-182.51
 20
115.262
 11
-182.497
 21
115
  0
LINE
  8
0
 10
-182.497
 20
115
 11
-182.51
 21
114.738
  0
LINE
  8
0
 10
-182.51
 20
114.738
 11
-182.551
 21
114.48
  0
LINE
  8
0
 10
-182.551
 20
114.48
 11
-182.619
 21
114.226
  0
LINE
  8
0
 10
-182.619
 20
114.226
 11
-182.713
 21
113.982
  0
LINE
  8
0
 10
-182.713
 20
113.982
 11
-182.832
 21
113.748
  0
LINE
  8
0
 10
-182.832
 20
113.748
 11
-182.975
 21
113.529
  0
LINE
  8
0
 10
-182.975
 20
113.529
 11
-183.14
 21
113.325
  0
LINE
  8
0
 10
-183.14
 20
113.325
 11
-183.325
 21
113.14
  0
LINE
  8
0
 10
-183.325
 20
113.14
 11
-183.529
 21
112.975
  0
LINE
  8
0
 10
-183.529
 20
112.975
 11
-183.748
 21
112.832
  0
LINE
  8
0
 10
-183.748
 20
112.832
 11
-183.982
 21
112.713
  0
LINE
  8
0
 10
-183.982
 20
112.713
 11
-184.226
 21
112.619
  0
LINE
  8
0
 10
-184.226
 20
112.619
 11
-184.48
 21
112.551
  0
LINE
  8
0
 10
-184.48
 20
112.551
 11
-184.738
 21
112.51
  0
LINE
  8
0
 10
-184.738
 20
112.51
 11
-185
 21
112.497
  0
LINE
  8
0
 10
-185
 20
112.497
 11
-185.262
 21
112.51
  0
LINE
  8
0
 10
3.2534
 20
94.8638
 11
3.0123
 21
94.9189
  0
LINE
  8
0
 10
3.0123
 20
94.9189
 11
2.78209
 21
95.0092
  0
LINE
  8
0
 10
2.78209
 20
95.0092
 11
2.56792
 21
95.1329
  0
LINE
  8
0
 10
2.56792
 20
95.1329
 11
2.37457
 21
95.2871
  0
LINE
  8
0
 10
2.37457
 20
95.2871
 11
2.20638
 21
95.4684
  0
LINE
  8
0
 10
2.20638
 20
95.4684
 11
2.06706
 21
95.6727
  0
LINE
  8
0
 10
2.06706
 20
95.6727
 11
1.95976
 21
95.8955
  0
LINE
  8
0
 10
1.95976
 20
95.8955
 11
1.88687
 21
96.1318
  0
LINE
  8
0
 10
1.88687
 20
96.1318
 11
1.85001
 21
96.3763
  0
LINE
  8
0
 10
1.85001
 20
96.3763
 11
1.85001
 21
96.6236
  0
LINE
  8
0
 10
1.85001
 20
96.6236
 11
1.88687
 21
96.8682
  0
LINE
  8
0
 10
1.88687
 20
96.8682
 11
1.95976
 21
97.1045
  0
LINE
  8
0
 10
1.95976
 20
97.1045
 11
2.06706
 21
97.3273
  0
LINE
  8
0
 10
2.06706
 20
97.3273
 11
2.20638
 21
97.5316
  0
LINE
  8
0
 10
2.20638
 20
97.5316
 11
2.37457
 21
97.7129
  0
LINE
  8
0
 10
2.37457
 20
97.7129
 11
2.56792
 21
97.8671
  0
LINE
  8
0
 10
2.56792
 20
97.8671
 11
2.78209
 21
97.9908
  0
LINE
  8
0
 10
2.78209
 20
97.9908
 11
3.0123
 21
98.0811
  0
LINE
  8
0
 10
3.0123
 20
98.0811
 11
3.2534
 21
98.1361
  0
LINE
  8
0
 10
3.2534
 20
98.1361
 11
3.5
 21
98.1546
  0
LINE
  8
0
 10
3.5
 20
98.1546
 11
3.74661
 21
98.1361
  0
LINE
  8
0
 10
3.74661
 20
98.1361
 11
3.98772
 21
98.0811
  0
LINE
  8
0
 10
3.98772
 20
98.0811
 11
4.21793
 21
97.9908
  0
LINE
  8
0
 10
4.21793
 20
97.9908
 11
4.4321
 21
97.8671
  0
LINE
  8
0
 10
4.4321
 20
97.8671
 11
4.62544
 21
97.7129
  0
LINE
  8
0
 10
4.62544
 20
97.7129
 11
4.79364
 21
97.5316
  0
LINE
  8
0
 10
4.79364
 20
97.5316
 11
4.93295
 21
97.3273
  0
LINE
  8
0
 10
4.93295
 20
97.3273
 11
5.04025
 21
97.1045
  0
LINE
  8
0
 10
5.04025
 20
97.1045
 11
5.11314
 21
96.8682
  0
LINE
  8
0
 10
5.11314
 20
96.8682
 11
5.15001
 21
96.6236
  0
LINE
  8
0
 10
5.15001
 20
96.6236
 11
5.15001
 21
96.3763
  0
LINE
  8
0
 10
5.15001
 20
96.3763
 11
5.11314
 21
96.1318
  0
LINE
  8
0
 10
5.11314
 20
96.1318
 11
5.04025
 21
95.8955
  0
LINE
  8
0
 10
5.04025
 20
95.8955
 11
4.93295
 21
95.6727
  0
LINE
  8
0
 10
4.93295
 20
95.6727
 11
4.79364
 21
95.4684
  0
LINE
  8
0
 10
4.79364
 20
95.4684
 11
4.62544
 21
95.2871
  0
LINE
  8
0
 10
4.62544
 20
95.2871
 11
4.4321
 21
95.1329
  0
LINE
  8
0
 10
4.4321
 20
95.1329
 11
4.21793
 21
95.0092
  0
LINE
  8
0
 10
4.21793
 20
95.0092
 11
3.98772
 21
94.9189
  0
LINE
  8
0
 10
3.98772
 20
94.9189
 11
3.74661
 21
94.8638
  0
LINE
  8
0
 10
3.74661
 20
94.8638
 11
3.5
 21
94.8454
  0
LINE
  8
0
 10
3.5
 20
94.8454
 11
3.2534
 21
94.8638
  0
LINE
  8
0
 10
52.2534
 20
94.8638
 11
52.0123
 21
94.9189
  0
LINE
  8
0
 10
52.0123
 20
94.9189
 11
51.7821
 21
95.0092
  0
LINE
  8
0
 10
51.7821
 20
95.0092
 11
51.5679
 21
95.1329
  0
LINE
  8
0
 10
51.5679
 20
95.1329
 11
51.3746
 21
95.2871
  0
LINE
  8
0
 10
51.3746
 20
95.2871
 11
51.2064
 21
95.4684
  0
LINE
  8
0
 10
51.2064
 20
95.4684
 11
51.067
 21
95.6727
  0
LINE
  8
0
 10
51.067
 20
95.6727
 11
50.9597
 21
95.8955
  0
LINE
  8
0
 10
50.9597
 20
95.8955
 11
50.8869
 21
96.1318
  0
LINE
  8
0
 10
50.8869
 20
96.1318
 11
50.85
 21
96.3763
  0
LINE
  8
0
 10
50.85
 20
96.3763
 11
50.85
 21
96.6236
  0
LINE
  8
0
 10
50.85
 20
96.6236
 11
50.8869
 21
96.8682
  0
LINE
  8
0
 10
50.8869
 20
96.8682
 11
50.9597
 21
97.1045
  0
LINE
  8
0
 10
50.9597
 20
97.1045
 11
51.067
 21
97.3273
  0
LINE
  8
0
 10
51.067
 20
97.3273
 11
51.2064
 21
97.5316
  0
LINE
  8
0
 10
51.2064
 20
97.5316
 11
51.3746
 21
97.7129
  0
LINE
  8
0
 10
51.3746
 20
97.7129
 11
51.5679
 21
97.8671
  0
LINE
  8
0
 10
51.5679
 20
97.8671
 11
51.7821
 21
97.9908
  0
LINE
  8
0
 10
51.7821
 20
97.9908
 11
52.0123
 21
98.0811
  0
LINE
  8
0
 10
52.0123
 20
98.0811
 11
52.2534
 21
98.1361
  0
LINE
  8
0
 10
52.2534
 20
98.1361
 11
52.5
 21
98.1546
  0
LINE
  8
0
 10
52.5
 20
98.1546
 11
52.7466
 21
98.1361
  0
LINE
  8
0
 10
52.7466
 20
98.1361
 11
52.9877
 21
98.0811
  0
LINE
  8
0
 10
52.9877
 20
98.0811
 11
53.2179
 21
97.9908
  0
LINE
  8
0
 10
53.2179
 20
97.9908
 11
53.4321
 21
97.8671
  0
LINE
  8
0
 10
53.4321
 20
97.8671
 11
53.6254
 21
97.7129
  0
LINE
  8
0
 10
53.6254
 20
97.7129
 11
53.7936
 21
97.5316
  0
LINE
  8
0
 10
53.7936
 20
97.5316
 11
53.9329
 21
97.3273
  0
LINE
  8
0
 10
53.9329
 20
97.3273
 11
54.0402
 21
97.1045
  0
LINE
  8
0
 10
54.0402
 20
97.1045
 11
54.1131
 21
96.8682
  0
LINE
  8
0
 10
54.1131
 20
96.8682
 11
54.15
 21
96.6236
  0
LINE
  8
0
 10
54.15
 20
96.6236
 11
54.15
 21
96.3763
  0
LINE
  8
0
 10
54.15
 20
96.3763
 11
54.1131
 21
96.1318
  0
LINE
  8
0
 10
54.1131
 20
96.1318
 11
54.0402
 21
95.8955
  0
LINE
  8
0
 10
54.0402
 20
95.8955
 11
53.9329
 21
95.6727
  0
LINE
  8
0
 10
53.9329
 20
95.6727
 11
53.7936
 21
95.4684
  0
LINE
  8
0
 10
53.7936
 20
95.4684
 11
53.6254
 21
95.2871
  0
LINE
  8
0
 10
53.6254
 20
95.2871
 11
53.4321
 21
95.1329
  0
LINE
  8
0
 10
53.4321
 20
95.1329
 11
53.2179
 21
95.0092
  0
LINE
  8
0
 10
53.2179
 20
95.0092
 11
52.9877
 21
94.9189
  0
LINE
  8
0
 10
52.9877
 20
94.9189
 11
52.7466
 21
94.8638
  0
LINE
  8
0
 10
52.7466
 20
94.8638
 11
52.5
 21
94.8454
  0
LINE
  8
0
 10
52.5
 20
94.8454
 11
52.2534
 21
94.8638
  0
LINE
  8
0
 10
-185.262
 20
92.5103
 11
-185.52
 21
92.5513
  0
LINE
  8
0
 10
-185.52
 20
92.5513
 11
-185.774
 21
92.6191
  0
LINE
  8
0
 10
-185.774
 20
92.6191
 11
-186.018
 21
92.713
  0
LINE
  8
0
 10
-186.018
 20
92.713
 11
-186.252
 21
92.832
  0
LINE
  8
0
 10
-186.252
 20
92.832
 11
-186.471
 21
92.9747
  0
LINE
  8
0
 10
-186.471
 20
92.9747
 11
-186.675
 21
93.1396
  0
LINE
  8
0
 10
-186.675
 20
93.1396
 11
-186.86
 21
93.3249
  0
LINE
  8
0
 10
-186.86
 20
93.3249
 11
-187.025
 21
93.5285
  0
LINE
  8
0
 10
-187.025
 20
93.5285
 11
-187.168
 21
93.7483
  0
LINE
  8
0
 10
-187.168
 20
93.7483
 11
-187.287
 21
93.9818
  0
LINE
  8
0
 10
-187.287
 20
93.9818
 11
-187.381
 21
94.2264
  0
LINE
  8
0
 10
-187.381
 20
94.2264
 11
-187.449
 21
94.4795
  0
LINE
  8
0
 10
-187.449
 20
94.4795
 11
-187.49
 21
94.7383
  0
LINE
  8
0
 10
-187.49
 20
94.7383
 11
-187.503
 21
95
  0
LINE
  8
0
 10
-187.503
 20
95
 11
-187.49
 21
95.2617
  0
LINE
  8
0
 10
-187.49
 20
95.2617
 11
-187.449
 21
95.5205
  0
LINE
  8
0
 10
-187.449
 20
95.5205
 11
-187.381
 21
95.7736
  0
LINE
  8
0
 10
-187.381
 20
95.7736
 11
-187.287
 21
96.0182
  0
LINE
  8
0
 10
-187.287
 20
96.0182
 11
-187.168
 21
96.2517
  0
LINE
  8
0
 10
-187.168
 20
96.2517
 11
-187.025
 21
96.4715
  0
LINE
  8
0
 10
-187.025
 20
96.4715
 11
-186.86
 21
96.6751
  0
LINE
  8
0
 10
-186.86
 20
96.6751
 11
-186.675
 21
96.8604
  0
LINE
  8
0
 10
-186.675
 20
96.8604
 11
-186.471
 21
97.0253
  0
LINE
  8
0
 10
-186.471
 20
97.0253
 11
-186.252
 21
97.168
  0
LINE
  8
0
 10
-186.252
 20
97.168
 11
-186.018
 21
97.287
  0
LINE
  8
0
 10
-186.018
 20
97.287
 11
-185.774
 21
97.3809
  0
LINE
  8
0
 10
-185.774
 20
97.3809
 11
-185.52
 21
97.4487
  0
LINE
  8
0
 10
-185.52
 20
97.4487
 11
-185.262
 21
97.4897
  0
LINE
  8
0
 10
-185.262
 20
97.4897
 11
-185
 21
97.5034
  0
LINE
  8
0
 10
-185
 20
97.5034
 11
-184.738
 21
97.4897
  0
LINE
  8
0
 10
-184.738
 20
97.4897
 11
-184.48
 21
97.4487
  0
LINE
  8
0
 10
-184.48
 20
97.4487
 11
-184.226
 21
97.3809
  0
LINE
  8
0
 10
-184.226
 20
97.3809
 11
-183.982
 21
97.287
  0
LINE
  8
0
 10
-183.982
 20
97.287
 11
-183.748
 21
97.168
  0
LINE
  8
0
 10
-183.748
 20
97.168
 11
-183.529
 21
97.0253
  0
LINE
  8
0
 10
-183.529
 20
97.0253
 11
-183.325
 21
96.8604
  0
LINE
  8
0
 10
-183.325
 20
96.8604
 11
-183.14
 21
96.6751
  0
LINE
  8
0
 10
-183.14
 20
96.6751
 11
-182.975
 21
96.4715
  0
LINE
  8
0
 10
-182.975
 20
96.4715
 11
-182.832
 21
96.2517
  0
LINE
  8
0
 10
-182.832
 20
96.2517
 11
-182.713
 21
96.0182
  0
LINE
  8
0
 10
-182.713
 20
96.0182
 11
-182.619
 21
95.7736
  0
LINE
  8
0
 10
-182.619
 20
95.7736
 11
-182.551
 21
95.5205
  0
LINE
  8
0
 10
-182.551
 20
95.5205
 11
-182.51
 21
95.2617
  0
LINE
  8
0
 10
-182.51
 20
95.2617
 11
-182.497
 21
95
  0
LINE
  8
0
 10
-182.497
 20
95
 11
-182.51
 21
94.7383
  0
LINE
  8
0
 10
-182.51
 20
94.7383
 11
-182.551
 21
94.4795
  0
LINE
  8
0
 10
-182.551
 20
94.4795
 11
-182.619
 21
94.2264
  0
LINE
  8
0
 10
-182.619
 20
94.2264
 11
-182.713
 21
93.9818
  0
LINE
  8
0
 10
-182.713
 20
93.9818
 11
-182.832
 21
93.7483
  0
LINE
  8
0
 10
-182.832
 20
93.7483
 11
-182.975
 21
93.5285
  0
LINE
  8
0
 10
-182.975
 20
93.5285
 11
-183.14
 21
93.3249
  0
LINE
  8
0
 10
-183.14
 20
93.3249
 11
-183.325
 21
93.1396
  0
LINE
  8
0
 10
-183.325
 20
93.1396
 11
-183.529
 21
92.9747
  0
LINE
  8
0
 10
-183.529
 20
92.9747
 11
-183.748
 21
92.832
  0
LINE
  8
0
 10
-183.748
 20
92.832
 11
-183.982
 21
92.713
  0
LINE
  8
0
 10
-183.982
 20
92.713
 11
-184.226
 21
92.6191
  0
LINE
  8
0
 10
-184.226
 20
92.6191
 11
-184.48
 21
92.5513
  0
LINE
  8
0
 10
-184.48
 20
92.5513
 11
-184.738
 21
92.5103
  0
LINE
  8
0
 10
-184.738
 20
92.5103
 11
-185
 21
92.4966
  0
LINE
  8
0
 10
-185
 20
92.4966
 11
-185.262
 21
92.5103
  0
LINE
  8
0
 10
-185.247
 20
57.8104
 11
-185.49
 21
57.8518
  0
LINE
  8
0
 10
-185.49
 20
57.8518
 11
-185.728
 21
57.9202
  0
LINE
  8
0
 10
-185.728
 20
57.9202
 11
-185.956
 21
58.0147
  0
LINE
  8
0
 10
-185.956
 20
58.0147
 11
-186.172
 21
58.1343
  0
LINE
  8
0
 10
-186.172
 20
58.1343
 11
-186.374
 21
58.2773
  0
LINE
  8
0
 10
-186.374
 20
58.2773
 11
-186.558
 21
58.4419
  0
LINE
  8
0
 10
-186.558
 20
58.4419
 11
-186.723
 21
58.6262
  0
LINE
  8
0
 10
-186.723
 20
58.6262
 11
-186.866
 21
58.8277
  0
LINE
  8
0
 10
-186.866
 20
58.8277
 11
-186.985
 21
59.0439
  0
LINE
  8
0
 10
-186.985
 20
59.0439
 11
-187.08
 21
59.2722
  0
LINE
  8
0
 10
-187.08
 20
59.2722
 11
-187.148
 21
59.5097
  0
LINE
  8
0
 10
-187.148
 20
59.5097
 11
-187.19
 21
59.7533
  0
LINE
  8
0
 10
-187.19
 20
59.7533
 11
-187.203
 21
60
  0
LINE
  8
0
 10
-187.203
 20
60
 11
-187.19
 21
60.2467
  0
LINE
  8
0
 10
-187.19
 20
60.2467
 11
-187.148
 21
60.4903
  0
LINE
  8
0
 10
-187.148
 20
60.4903
 11
-187.08
 21
60.7278
  0
LINE
  8
0
 10
-187.08
 20
60.7278
 11
-186.985
 21
60.956
  0
LINE
  8
0
 10
-186.985
 20
60.956
 11
-186.866
 21
61.1723
  0
LINE
  8
0
 10
-186.866
 20
61.1723
 11
-186.723
 21
61.3738
  0
LINE
  8
0
 10
-186.723
 20
61.3738
 11
-186.558
 21
61.5581
  0
LINE
  8
0
 10
-186.558
 20
61.5581
 11
-186.374
 21
61.7227
  0
LINE
  8
0
 10
-186.374
 20
61.7227
 11
-186.172
 21
61.8657
  0
LINE
  8
0
 10
-186.172
 20
61.8657
 11
-185.956
 21
61.9852
  0
LINE
  8
0
 10
-185.956
 20
61.9852
 11
-185.728
 21
62.0798
  0
LINE
  8
0
 10
-185.728
 20
62.0798
 11
-185.49
 21
62.1482
  0
LINE
  8
0
 10
-185.49
 20
62.1482
 11
-185.247
 21
62.1896
  0
LINE
  8
0
 10
-185.247
 20
62.1896
 11
-185
 21
62.2035
  0
LINE
  8
0
 10
-185
 20
62.2035
 11
-184.753
 21
62.1896
  0
LINE
  8
0
 10
-184.753
 20
62.1896
 11
-184.51
 21
62.1482
  0
LINE
  8
0
 10
-184.51
 20
62.1482
 11
-184.272
 21
62.0798
  0
LINE
  8
0
 10
-184.272
 20
62.0798
 11
-184.044
 21
61.9852
  0
LINE
  8
0
 10
-184.044
 20
61.9852
 11
-183.828
 21
61.8657
  0
LINE
  8
0
 10
-183.828
 20
61.8657
 11
-183.626
 21
61.7227
  0
LINE
  8
0
 10
-183.626
 20
61.7227
 11
-183.442
 21
61.5581
  0
LINE
  8
0
 10
-183.442
 20
61.5581
 11
-183.277
 21
61.3738
  0
LINE
  8
0
 10
-183.277
 20
61.3738
 11
-183.134
 21
61.1723
  0
LINE
  8
0
 10
-183.134
 20
61.1723
 11
-183.015
 21
60.956
  0
LINE
  8
0
 10
-183.015
 20
60.956
 11
-182.92
 21
60.7278
  0
LINE
  8
0
 10
-182.92
 20
60.7278
 11
-182.852
 21
60.4903
  0
LINE
  8
0
 10
-182.852
 20
60.4903
 11
-182.81
 21
60.2467
  0
LINE
  8
0
 10
-182.81
 20
60.2467
 11
-182.797
 21
60
  0
LINE
  8
0
 10
-182.797
 20
60
 11
-182.81
 21
59.7533
  0
LINE
  8
0
 10
-182.81
 20
59.7533
 11
-182.852
 21
59.5097
  0
LINE
  8
0
 10
-182.852
 20
59.5097
 11
-182.92
 21
59.2722
  0
LINE
  8
0
 10
-182.92
 20
59.2722
 11
-183.015
 21
59.0439
  0
LINE
  8
0
 10
-183.015
 20
59.0439
 11
-183.134
 21
58.8277
  0
LINE
  8
0
 10
-183.134
 20
58.8277
 11
-183.277
 21
58.6262
  0
LINE
  8
0
 10
-183.277
 20
58.6262
 11
-183.442
 21
58.4419
  0
LINE
  8
0
 10
-183.442
 20
58.4419
 11
-183.626
 21
58.2773
  0
LINE
  8
0
 10
-183.626
 20
58.2773
 11
-183.828
 21
58.1343
  0
LINE
  8
0
 10
-183.828
 20
58.1343
 11
-184.044
 21
58.0147
  0
LINE
  8
0
 10
-184.044
 20
58.0147
 11
-184.272
 21
57.9202
  0
LINE
  8
0
 10
-184.272
 20
57.9202
 11
-184.51
 21
57.8518
  0
LINE
  8
0
 10
-184.51
 20
57.8518
 11
-184.753
 21
57.8104
  0
LINE
  8
0
 10
-184.753
 20
57.8104
 11
-185
 21
57.7965
  0
LINE
  8
0
 10
-185
 20
57.7965
 11
-185.247
 21
57.8104
  0
LINE
  8
0
 10
184.753
 20
57.8104
 11
184.51
 21
57.8518
  0
LINE
  8
0
 10
184.51
 20
57.8518
 11
184.272
 21
57.9202
  0
LINE
  8
0
 10
184.272
 20
57.9202
 11
184.044
 21
58.0147
  0
LINE
  8
0
 10
184.044
 20
58.0147
 11
183.828
 21
58.1343
  0
LINE
  8
0
 10
183.828
 20
58.1343
 11
183.626
 21
58.2773
  0
LINE
  8
0
 10
183.626
 20
58.2773
 11
183.442
 21
58.4419
  0
LINE
  8
0
 10
183.442
 20
58.4419
 11
183.277
 21
58.6262
  0
LINE
  8
0
 10
183.277
 20
58.6262
 11
183.134
 21
58.8277
  0
LINE
  8
0
 10
183.134
 20
58.8277
 11
183.015
 21
59.0439
  0
LINE
  8
0
 10
183.015
 20
59.0439
 11
182.92
 21
59.2722
  0
LINE
  8
0
 10
182.92
 20
59.2722
 11
182.852
 21
59.5097
  0
LINE
  8
0
 10
182.852
 20
59.5097
 11
182.81
 21
59.7533
  0
LINE
  8
0
 10
182.81
 20
59.7533
 11
182.797
 21
60
  0
LINE
  8
0
 10
182.797
 20
60
 11
182.81
 21
60.2467
  0
LINE
  8
0
 10
182.81
 20
60.2467
 11
182.852
 21
60.4903
  0
LINE
  8
0
 10
182.852
 20
60.4903
 11
182.92
 21
60.7278
  0
LINE
  8
0
 10
182.92
 20
60.7278
 11
183.015
 21
60.956
  0
LINE
  8
0
 10
183.015
 20
60.956
 11
183.134
 21
61.1723
  0
LINE
  8
0
 10
183.134
 20
61.1723
 11
183.277
 21
61.3738
  0
LINE
  8
0
 10
183.277
 20
61.3738
 11
183.442
 21
61.5581
  0
LINE
  8
0
 10
183.442
 20
61.5581
 11
183.626
 21
61.7227
  0
LINE
  8
0
 10
183.626
 20
61.7227
 11
183.828
 21
61.8657
  0
LINE
  8
0
 10
183.828
 20
61.8657
 11
184.044
 21
61.9852
  0
LINE
  8
0
 10
184.044
 20
61.9852
 11
184.272
 21
62.0798
  0
LINE
  8
0
 10
184.272
 20
62.0798
 11
184.51
 21
62.1482
  0
LINE
  8
0
 10
184.51
 20
62.1482
 11
184.753
 21
62.1896
  0
LINE
  8
0
 10
184.753
 20
62.1896
 11
185
 21
62.2035
  0
LINE
  8
0
 10
185
 20
62.2035
 11
185.247
 21
62.1896
  0
LINE
  8
0
 10
185.247
 20
62.1896
 11
185.49
 21
62.1482
  0
LINE
  8
0
 10
185.49
 20
62.1482
 11
185.728
 21
62.0798
  0
LINE
  8
0
 10
185.728
 20
62.0798
 11
185.956
 21
61.9852
  0
LINE
  8
0
 10
185.956
 20
61.9852
 11
186.172
 21
61.8657
  0
LINE
  8
0
 10
186.172
 20
61.8657
 11
186.374
 21
61.7227
  0
LINE
  8
0
 10
186.374
 20
61.7227
 11
186.558
 21
61.5581
  0
LINE
  8
0
 10
186.558
 20
61.5581
 11
186.723
 21
61.3738
  0
LINE
  8
0
 10
186.723
 20
61.3738
 11
186.866
 21
61.1723
  0
LINE
  8
0
 10
186.866
 20
61.1723
 11
186.985
 21
60.956
  0
LINE
  8
0
 10
186.985
 20
60.956
 11
187.08
 21
60.7278
  0
LINE
  8
0
 10
187.08
 20
60.7278
 11
187.148
 21
60.4903
  0
LINE
  8
0
 10
187.148
 20
60.4903
 11
187.19
 21
60.2467
  0
LINE
  8
0
 10
187.19
 20
60.2467
 11
187.203
 21
60
  0
LINE
  8
0
 10
187.203
 20
60
 11
187.19
 21
59.7533
  0
LINE
  8
0
 10
187.19
 20
59.7533
 11
187.148
 21
59.5097
  0
LINE
  8
0
 10
187.148
 20
59.5097
 11
187.08
 21
59.2722
  0
LINE
  8
0
 10
187.08
 20
59.2722
 11
186.985
 21
59.0439
  0
LINE
  8
0
 10
186.985
 20
59.0439
 11
186.866
 21
58.8277
  0
LINE
  8
0
 10
186.866
 20
58.8277
 11
186.723
 21
58.6262
  0
LINE
  8
0
 10
186.723
 20
58.6262
 11
186.558
 21
58.4419
  0
LINE
  8
0
 10
186.558
 20
58.4419
 11
186.374
 21
58.2773
  0
LINE
  8
0
 10
186.374
 20
58.2773
 11
186.172
 21
58.1343
  0
LINE
  8
0
 10
186.172
 20
58.1343
 11
185.956
 21
58.0147
  0
LINE
  8
0
 10
185.956
 20
58.0147
 11
185.728
 21
57.9202
  0
LINE
  8
0
 10
185.728
 20
57.9202
 11
185.49
 21
57.8518
  0
LINE
  8
0
 10
185.49
 20
57.8518
 11
185.247
 21
57.8104
  0
LINE
  8
0
 10
185.247
 20
57.8104
 11
185
 21
57.7965
  0
LINE
  8
0
 10
185
 20
57.7965
 11
184.753
 21
57.8104
  0
LINE
  8
0
 10
3.2534
 20
36.8639
 11
3.0123
 21
36.9189
  0
LINE
  8
0
 10
3.0123
 20
36.9189
 11
2.78209
 21
37.0092
  0
LINE
  8
0
 10
2.78209
 20
37.0092
 11
2.56792
 21
37.1329
  0
LINE
  8
0
 10
2.56792
 20
37.1329
 11
2.37457
 21
37.2871
  0
LINE
  8
0
 10
2.37457
 20
37.2871
 11
2.20638
 21
37.4684
  0
LINE
  8
0
 10
2.20638
 20
37.4684
 11
2.06706
 21
37.6727
  0
LINE
  8
0
 10
2.06706
 20
37.6727
 11
1.95976
 21
37.8955
  0
LINE
  8
0
 10
1.95976
 20
37.8955
 11
1.88687
 21
38.1318
  0
LINE
  8
0
 10
1.88687
 20
38.1318
 11
1.85001
 21
38.3764
  0
LINE
  8
0
 10
1.85001
 20
38.3764
 11
1.85001
 21
38.6237
  0
LINE
  8
0
 10
1.85001
 20
38.6237
 11
1.88687
 21
38.8682
  0
LINE
  8
0
 10
1.88687
 20
38.8682
 11
1.95976
 21
39.1045
  0
LINE
  8
0
 10
1.95976
 20
39.1045
 11
2.06706
 21
39.3273
  0
LINE
  8
0
 10
2.06706
 20
39.3273
 11
2.20638
 21
39.5316
  0
LINE
  8
0
 10
2.20638
 20
39.5316
 11
2.37457
 21
39.7129
  0
LINE
  8
0
 10
2.37457
 20
39.7129
 11
2.56792
 21
39.8671
  0
LINE
  8
0
 10
2.56792
 20
39.8671
 11
2.78209
 21
39.9908
  0
LINE
  8
0
 10
2.78209
 20
39.9908
 11
3.0123
 21
40.0811
  0
LINE
  8
0
 10
3.0123
 20
40.0811
 11
3.2534
 21
40.1362
  0
LINE
  8
0
 10
3.2534
 20
40.1362
 11
3.5
 21
40.1546
  0
LINE
  8
0
 10
3.5
 20
40.1546
 11
3.74661
 21
40.1362
  0
LINE
  8
0
 10
3.74661
 20
40.1362
 11
3.98772
 21
40.0811
  0
LINE
  8
0
 10
3.98772
 20
40.0811
 11
4.21793
 21
39.9908
  0
LINE
  8
0
 10
4.21793
 20
39.9908
 11
4.4321
 21
39.8671
  0
LINE
  8
0
 10
4.4321
 20
39.8671
 11
4.62544
 21
39.7129
  0
LINE
  8
0
 10
4.62544
 20
39.7129
 11
4.79364
 21
39.5316
  0
LINE
  8
0
 10
4.79364
 20
39.5316
 11
4.93295
 21
39.3273
  0
LINE
  8
0
 10
4.93295
 20
39.3273
 11
5.04025
 21
39.1045
  0
LINE
  8
0
 10
5.04025
 20
39.1045
 11
5.11314
 21
38.8682
  0
LINE
  8
0
 10
5.11314
 20
38.8682
 11
5.15001
 21
38.6237
  0
LINE
  8
0
 10
5.15001
 20
38.6237
 11
5.15001
 21
38.3764
  0
LINE
  8
0
 10
5.15001
 20
38.3764
 11
5.11314
 21
38.1318
  0
LINE
  8
0
 10
5.11314
 20
38.1318
 11
5.04025
 21
37.8955
  0
LINE
  8
0
 10
5.04025
 20
37.8955
 11
4.93295
 21
37.6727
  0
LINE
  8
0
 10
4.93295
 20
37.6727
 11
4.79364
 21
37.4684
  0
LINE
  8
0
 10
4.79364
 20
37.4684
 11
4.62544
 21
37.2871
  0
LINE
  8
0
 10
4.62544
 20
37.2871
 11
4.4321
 21
37.1329
  0
LINE
  8
0
 10
4.4321
 20
37.1329
 11
4.21793
 21
37.0092
  0
LINE
  8
0
 10
4.21793
 20
37.0092
 11
3.98772
 21
36.9189
  0
LINE
  8
0
 10
3.98772
 20
36.9189
 11
3.74661
 21
36.8639
  0
LINE
  8
0
 10
3.74661
 20
36.8639
 11
3.5
 21
36.8454
  0
LINE
  8
0
 10
3.5
 20
36.8454
 11
3.2534
 21
36.8639
  0
LINE
  8
0
 10
52.2534
 20
36.8639
 11
52.0123
 21
36.9189
  0
LINE
  8
0
 10
52.0123
 20
36.9189
 11
51.7821
 21
37.0092
  0
LINE
  8
0
 10
51.7821
 20
37.0092
 11
51.5679
 21
37.1329
  0
LINE
  8
0
 10
51.5679
 20
37.1329
 11
51.3746
 21
37.2871
  0
LINE
  8
0
 10
51.3746
 20
37.2871
 11
51.2064
 21
37.4684
  0
LINE
  8
0
 10
51.2064
 20
37.4684
 11
51.067
 21
37.6727
  0
LINE
  8
0
 10
51.067
 20
37.6727
 11
50.9597
 21
37.8955
  0
LINE
  8
0
 10
50.9597
 20
37.8955
 11
50.8869
 21
38.1318
  0
LINE
  8
0
 10
50.8869
 20
38.1318
 11
50.85
 21
38.3764
  0
LINE
  8
0
 10
50.85
 20
38.3764
 11
50.85
 21
38.6237
  0
LINE
  8
0
 10
50.85
 20
38.6237
 11
50.8869
 21
38.8682
  0
LINE
  8
0
 10
50.8869
 20
38.8682
 11
50.9597
 21
39.1045
  0
LINE
  8
0
 10
50.9597
 20
39.1045
 11
51.067
 21
39.3273
  0
LINE
  8
0
 10
51.067
 20
39.3273
 11
51.2064
 21
39.5316
  0
LINE
  8
0
 10
51.2064
 20
39.5316
 11
51.3746
 21
39.7129
  0
LINE
  8
0
 10
51.3746
 20
39.7129
 11
51.5679
 21
39.8671
  0
LINE
  8
0
 10
51.5679
 20
39.8671
 11
51.7821
 21
39.9908
  0
LINE
  8
0
 10
51.7821
 20
39.9908
 11
52.0123
 21
40.0811
  0
LINE
  8
0
 10
52.0123
 20
40.0811
 11
52.2534
 21
40.1362
  0
LINE
  8
0
 10
52.2534
 20
40.1362
 11
52.5
 21
40.1546
  0
LINE
  8
0
 10
52.5
 20
40.1546
 11
52.7466
 21
40.1362
  0
LINE
  8
0
 10
52.7466
 20
40.1362
 11
52.9877
 21
40.0811
  0
LINE
  8
0
 10
52.9877
 20
40.0811
 11
53.2179
 21
39.9908
  0
LINE
  8
0
 10
53.2179
 20
39.9908
 11
53.4321
 21
39.8671
  0
LINE
  8
0
 10
53.4321
 20
39.8671
 11
53.6254
 21
39.7129
  0
LINE
  8
0
 10
53.6254
 20
39.7129
 11
53.7936
 21
39.5316
  0
LINE
  8
0
 10
53.7936
 20
39.5316
 11
53.9329
 21
39.3273
  0
LINE
  8
0
 10
53.9329
 20
39.3273
 11
54.0402
 21
39.1045
  0
LINE
  8
0
 10
54.0402
 20
39.1045
 11
54.1131
 21
38.8682
  0
LINE
  8
0
 10
54.1131
 20
38.8682
 11
54.15
 21
38.6237
  0
LINE
  8
0
 10
54.15
 20
38.6237
 11
54.15
 21
38.3764
  0
LINE
  8
0
 10
54.15
 20
38.3764
 11
54.1131
 21
38.1318
  0
LINE
  8
0
 10
54.1131
 20
38.1318
 11
54.0402
 21
37.8955
  0
LINE
  8
0
 10
54.0402
 20
37.8955
 11
53.9329
 21
37.6727
  0
LINE
  8
0
 10
53.9329
 20
37.6727
 11
53.7936
 21
37.4684
  0
LINE
  8
0
 10
53.7936
 20
37.4684
 11
53.6254
 21
37.2871
  0
LINE
  8
0
 10
53.6254
 20
37.2871
 11
53.4321
 21
37.1329
  0
LINE
  8
0
 10
53.4321
 20
37.1329
 11
53.2179
 21
37.0092
  0
LINE
  8
0
 10
53.2179
 20
37.0092
 11
52.9877
 21
36.9189
  0
LINE
  8
0
 10
52.9877
 20
36.9189
 11
52.7466
 21
36.8639
  0
LINE
  8
0
 10
52.7466
 20
36.8639
 11
52.5
 21
36.8454
  0
LINE
  8
0
 10
52.5
 20
36.8454
 11
52.2534
 21
36.8639
  0
LINE
  8
0
 10
170.753
 20
4.36385
 11
170.512
 21
4.41887
  0
LINE
  8
0
 10
170.512
 20
4.41887
 11
170.282
 21
4.50923
  0
LINE
  8
0
 10
170.282
 20
4.50923
 11
170.068
 21
4.63287
  0
LINE
  8
0
 10
170.068
 20
4.63287
 11
169.875
 21
4.78706
  0
LINE
  8
0
 10
169.875
 20
4.78706
 11
169.706
 21
4.96835
  0
LINE
  8
0
 10
169.706
 20
4.96835
 11
169.567
 21
5.17268
  0
LINE
  8
0
 10
169.567
 20
5.17268
 11
169.46
 21
5.39549
  0
LINE
  8
0
 10
169.46
 20
5.39549
 11
169.387
 21
5.63181
  0
LINE
  8
0
 10
169.387
 20
5.63181
 11
169.35
 21
5.87634
  0
LINE
  8
0
 10
169.35
 20
5.87634
 11
169.35
 21
6.12364
  0
LINE
  8
0
 10
169.35
 20
6.12364
 11
169.387
 21
6.36818
  0
LINE
  8
0
 10
169.387
 20
6.36818
 11
169.46
 21
6.60449
  0
LINE
  8
0
 10
169.46
 20
6.60449
 11
169.567
 21
6.8273
  0
LINE
  8
0
 10
169.567
 20
6.8273
 11
169.706
 21
7.03163
  0
LINE
  8
0
 10
169.706
 20
7.03163
 11
169.875
 21
7.21292
  0
LINE
  8
0
 10
169.875
 20
7.21292
 11
170.068
 21
7.36711
  0
LINE
  8
0
 10
170.068
 20
7.36711
 11
170.282
 21
7.49075
  0
LINE
  8
0
 10
170.282
 20
7.49075
 11
170.512
 21
7.58112
  0
LINE
  8
0
 10
170.512
 20
7.58112
 11
170.753
 21
7.63614
  0
LINE
  8
0
 10
170.753
 20
7.63614
 11
171
 21
7.65462
  0
LINE
  8
0
 10
171
 20
7.65462
 11
171.247
 21
7.63614
  0
LINE
  8
0
 10
171.247
 20
7.63614
 11
171.488
 21
7.58112
  0
LINE
  8
0
 10
171.488
 20
7.58112
 11
171.718
 21
7.49075
  0
LINE
  8
0
 10
171.718
 20
7.49075
 11
171.932
 21
7.36711
  0
LINE
  8
0
 10
171.932
 20
7.36711
 11
172.125
 21
7.21292
  0
LINE
  8
0
 10
172.125
 20
7.21292
 11
172.294
 21
7.03163
  0
LINE
  8
0
 10
172.294
 20
7.03163
 11
172.433
 21
6.8273
  0
LINE
  8
0
 10
172.433
 20
6.8273
 11
172.54
 21
6.60449
  0
LINE
  8
0
 10
172.54
 20
6.60449
 11
172.613
 21
6.36818
  0
LINE
  8
0
 10
172.613
 20
6.36818
 11
172.65
 21
6.12364
  0
LINE
  8
0
 10
172.65
 20
6.12364
 11
172.65
 21
5.87634
  0
LINE
  8
0
 10
172.65
 20
5.87634
 11
172.613
 21
5.63181
  0
LINE
  8
0
 10
172.613
 20
5.63181
 11
172.54
 21
5.39549
  0
LINE
  8
0
 10
172.54
 20
5.39549
 11
172.433
 21
5.17268
  0
LINE
  8
0
 10
172.433
 20
5.17268
 11
172.294
 21
4.96835
  0
LINE
  8
0
 10
172.294
 20
4.96835
 11
172.125
 21
4.78706
  0
LINE
  8
0
 10
172.125
 20
4.78706
 11
171.932
 21
4.63287
  0
LINE
  8
0
 10
171.932
 20
4.63287
 11
171.718
 21
4.50923
  0
LINE
  8
0
 10
171.718
 20
4.50923
 11
171.488
 21
4.41887
  0
LINE
  8
0
 10
171.488
 20
4.41887
 11
171.247
 21
4.36385
  0
LINE
  8
0
 10
171.247
 20
4.36385
 11
171
 21
4.34537
  0
LINE
  8
0
 10
171
 20
4.34537
 11
170.753
 21
4.36385
  0
LINE
  8
0
 10
93.7534
 20
4.36385
 11
93.5123
 21
4.41887
  0
LINE
  8
0
 10
93.5123
 20
4.41887
 11
93.2821
 21
4.50923
  0
LINE
  8
0
 10
93.2821
 20
4.50923
 11
93.0679
 21
4.63287
  0
LINE
  8
0
 10
93.0679
 20
4.63287
 11
92.8746
 21
4.78706
  0
LINE
  8
0
 10
92.8746
 20
4.78706
 11
92.7064
 21
4.96835
  0
LINE
  8
0
 10
92.7064
 20
4.96835
 11
92.5671
 21
5.17268
  0
LINE
  8
0
 10
92.5671
 20
5.17268
 11
92.4598
 21
5.39549
  0
LINE
  8
0
 10
92.4598
 20
5.39549
 11
92.3869
 21
5.63181
  0
LINE
  8
0
 10
92.3869
 20
5.63181
 11
92.35
 21
5.87634
  0
LINE
  8
0
 10
92.35
 20
5.87634
 11
92.35
 21
6.12364
  0
LINE
  8
0
 10
92.35
 20
6.12364
 11
92.3869
 21
6.36818
  0
LINE
  8
0
 10
92.3869
 20
6.36818
 11
92.4598
 21
6.60449
  0
LINE
  8
0
 10
92.4598
 20
6.60449
 11
92.5671
 21
6.8273
  0
LINE
  8
0
 10
92.5671
 20
6.8273
 11
92.7064
 21
7.03163
  0
LINE
  8
0
 10
92.7064
 20
7.03163
 11
92.8746
 21
7.21292
  0
LINE
  8
0
 10
92.8746
 20
7.21292
 11
93.0679
 21
7.36711
  0
LINE
  8
0
 10
93.0679
 20
7.36711
 11
93.2821
 21
7.49075
  0
LINE
  8
0
 10
93.2821
 20
7.49075
 11
93.5123
 21
7.58112
  0
LINE
  8
0
 10
93.5123
 20
7.58112
 11
93.7534
 21
7.63614
  0
LINE
  8
0
 10
93.7534
 20
7.63614
 11
94
 21
7.65462
  0
LINE
  8
0
 10
94
 20
7.65462
 11
94.2466
 21
7.63614
  0
LINE
  8
0
 10
94.2466
 20
7.63614
 11
94.4877
 21
7.58112
  0
LINE
  8
0
 10
94.4877
 20
7.58112
 11
94.7179
 21
7.49075
  0
LINE
  8
0
 10
94.7179
 20
7.49075
 11
94.9321
 21
7.36711
  0
LINE
  8
0
 10
94.9321
 20
7.36711
 11
95.1254
 21
7.21292
  0
LINE
  8
0
 10
95.1254
 20
7.21292
 11
95.2936
 21
7.03163
  0
LINE
  8
0
 10
95.2936
 20
7.03163
 11
95.433
 21
6.8273
  0
LINE
  8
0
 10
95.433
 20
6.8273
 11
95.5403
 21
6.60449
  0
LINE
  8
0
 10
95.5403
 20
6.60449
 11
95.6131
 21
6.36818
  0
LINE
  8
0
 10
95.6131
 20
6.36818
 11
95.65
 21
6.12364
  0
LINE
  8
0
 10
95.65
 20
6.12364
 11
95.65
 21
5.87634
  0
LINE
  8
0
 10
95.65
 20
5.87634
 11
95.6131
 21
5.63181
  0
LINE
  8
0
 10
95.6131
 20
5.63181
 11
95.5403
 21
5.39549
  0
LINE
  8
0
 10
95.5403
 20
5.39549
 11
95.433
 21
5.17268
  0
LINE
  8
0
 10
95.433
 20
5.17268
 11
95.2936
 21
4.96835
  0
LINE
  8
0
 10
95.2936
 20
4.96835
 11
95.1254
 21
4.78706
  0
LINE
  8
0
 10
95.1254
 20
4.78706
 11
94.9321
 21
4.63287
  0
LINE
  8
0
 10
94.9321
 20
4.63287
 11
94.7179
 21
4.50923
  0
LINE
  8
0
 10
94.7179
 20
4.50923
 11
94.4877
 21
4.41887
  0
LINE
  8
0
 10
94.4877
 20
4.41887
 11
94.2466
 21
4.36385
  0
LINE
  8
0
 10
94.2466
 20
4.36385
 11
94
 21
4.34537
  0
LINE
  8
0
 10
94
 20
4.34537
 11
93.7534
 21
4.36385
  0
LINE
  8
0
 10
184.738
 20
2.51027
 11
184.48
 21
2.55127
  0
LINE
  8
0
 10
184.48
 20
2.55127
 11
184.226
 21
2.61909
  0
LINE
  8
0
 10
184.226
 20
2.61909
 11
183.982
 21
2.713
  0
LINE
  8
0
 10
183.982
 20
2.713
 11
183.748
 21
2.83195
  0
LINE
  8
0
 10
183.748
 20
2.83195
 11
183.529
 21
2.97467
  0
LINE
  8
0
 10
183.529
 20
2.97467
 11
183.325
 21
3.13959
  0
LINE
  8
0
 10
183.325
 20
3.13959
 11
183.14
 21
3.32487
  0
LINE
  8
0
 10
183.14
 20
3.32487
 11
182.975
 21
3.52852
  0
LINE
  8
0
 10
182.975
 20
3.52852
 11
182.832
 21
3.74828
  0
LINE
  8
0
 10
182.832
 20
3.74828
 11
182.713
 21
3.98175
  0
LINE
  8
0
 10
182.713
 20
3.98175
 11
182.619
 21
4.22639
  0
LINE
  8
0
 10
182.619
 20
4.22639
 11
182.551
 21
4.47951
  0
LINE
  8
0
 10
182.551
 20
4.47951
 11
182.51
 21
4.73831
  0
LINE
  8
0
 10
182.51
 20
4.73831
 11
182.497
 21
5
  0
LINE
  8
0
 10
182.497
 20
5
 11
182.51
 21
5.26167
  0
LINE
  8
0
 10
182.51
 20
5.26167
 11
182.551
 21
5.52048
  0
LINE
  8
0
 10
182.551
 20
5.52048
 11
182.619
 21
5.77359
  0
LINE
  8
0
 10
182.619
 20
5.77359
 11
182.713
 21
6.01823
  0
LINE
  8
0
 10
182.713
 20
6.01823
 11
182.832
 21
6.25171
  0
LINE
  8
0
 10
182.832
 20
6.25171
 11
182.975
 21
6.47147
  0
LINE
  8
0
 10
182.975
 20
6.47147
 11
183.14
 21
6.67511
  0
LINE
  8
0
 10
183.14
 20
6.67511
 11
183.325
 21
6.8604
  0
LINE
  8
0
 10
183.325
 20
6.8604
 11
183.529
 21
7.02531
  0
LINE
  8
0
 10
183.529
 20
7.02531
 11
183.748
 21
7.16803
  0
LINE
  8
0
 10
183.748
 20
7.16803
 11
183.982
 21
7.28699
  0
LINE
  8
0
 10
183.982
 20
7.28699
 11
184.226
 21
7.38089
  0
LINE
  8
0
 10
184.226
 20
7.38089
 11
184.48
 21
7.44872
  0
LINE
  8
0
 10
184.48
 20
7.44872
 11
184.738
 21
7.48972
  0
LINE
  8
0
 10
184.738
 20
7.48972
 11
185
 21
7.50342
  0
LINE
  8
0
 10
185
 20
7.50342
 11
185.262
 21
7.48972
  0
LINE
  8
0
 10
185.262
 20
7.48972
 11
185.52
 21
7.44872
  0
LINE
  8
0
 10
185.52
 20
7.44872
 11
185.774
 21
7.38089
  0
LINE
  8
0
 10
185.774
 20
7.38089
 11
186.018
 21
7.28699
  0
LINE
  8
0
 10
186.018
 20
7.28699
 11
186.252
 21
7.16803
  0
LINE
  8
0
 10
186.252
 20
7.16803
 11
186.471
 21
7.02531
  0
LINE
  8
0
 10
186.471
 20
7.02531
 11
186.675
 21
6.8604
  0
LINE
  8
0
 10
186.675
 20
6.8604
 11
186.86
 21
6.67511
  0
LINE
  8
0
 10
186.86
 20
6.67511
 11
187.025
 21
6.47147
  0
LINE
  8
0
 10
187.025
 20
6.47147
 11
187.168
 21
6.25171
  0
LINE
  8
0
 10
187.168
 20
6.25171
 11
187.287
 21
6.01823
  0
LINE
  8
0
 10
187.287
 20
6.01823
 11
187.381
 21
5.77359
  0
LINE
  8
0
 10
187.381
 20
5.77359
 11
187.449
 21
5.52048
  0
LINE
  8
0
 10
187.449
 20
5.52048
 11
187.49
 21
5.26167
  0
LINE
  8
0
 10
187.49
 20
5.26167
 11
187.503
 21
5
  0
LINE
  8
0
 10
187.503
 20
5
 11
187.49
 21
4.73831
  0
LINE
  8
0
 10
187.49
 20
4.73831
 11
187.449
 21
4.47951
  0
LINE
  8
0
 10
187.449
 20
4.47951
 11
187.381
 21
4.22639
  0
LINE
  8
0
 10
187.381
 20
4.22639
 11
187.287
 21
3.98175
  0
LINE
  8
0
 10
187.287
 20
3.98175
 11
187.168
 21
3.74828
  0
LINE
  8
0
 10
187.168
 20
3.74828
 11
187.025
 21
3.52852
  0
LINE
  8
0
 10
187.025
 20
3.52852
 11
186.86
 21
3.32487
  0
LINE
  8
0
 10
186.86
 20
3.32487
 11
186.675
 21
3.13959
  0
LINE
  8
0
 10
186.675
 20
3.13959
 11
186.471
 21
2.97467
  0
LINE
  8
0
 10
186.471
 20
2.97467
 11
186.252
 21
2.83195
  0
LINE
  8
0
 10
186.252
 20
2.83195
 11
186.018
 21
2.713
  0
LINE
  8
0
 10
186.018
 20
2.713
 11
185.774
 21
2.61909
  0
LINE
  8
0
 10
185.774
 20
2.61909
 11
185.52
 21
2.55127
  0
LINE
  8
0
 10
185.52
 20
2.55127
 11
185.262
 21
2.51027
  0
LINE
  8
0
 10
185.262
 20
2.51027
 11
185
 21
2.49657
  0
LINE
  8
0
 10
185
 20
2.49657
 11
184.738
 21
2.51027
  0
LINE
  8
0
 10
184.738
 20
-17.4897
 11
184.48
 21
-17.4487
  0
LINE
  8
0
 10
184.48
 20
-17.4487
 11
184.226
 21
-17.3809
  0
LINE
  8
0
 10
184.226
 20
-17.3809
 11
183.982
 21
-17.287
  0
LINE
  8
0
 10
183.982
 20
-17.287
 11
183.748
 21
-17.168
  0
LINE
  8
0
 10
183.748
 20
-17.168
 11
183.529
 21
-17.0253
  0
LINE
  8
0
 10
183.529
 20
-17.0253
 11
183.325
 21
-16.8604
  0
LINE
  8
0
 10
183.325
 20
-16.8604
 11
183.14
 21
-16.6751
  0
LINE
  8
0
 10
183.14
 20
-16.6751
 11
182.975
 21
-16.4715
  0
LINE
  8
0
 10
182.975
 20
-16.4715
 11
182.832
 21
-16.2517
  0
LINE
  8
0
 10
182.832
 20
-16.2517
 11
182.713
 21
-16.0182
  0
LINE
  8
0
 10
182.713
 20
-16.0182
 11
182.619
 21
-15.7736
  0
LINE
  8
0
 10
182.619
 20
-15.7736
 11
182.551
 21
-15.5205
  0
LINE
  8
0
 10
182.551
 20
-15.5205
 11
182.51
 21
-15.2617
  0
LINE
  8
0
 10
182.51
 20
-15.2617
 11
182.497
 21
-15
  0
LINE
  8
0
 10
182.497
 20
-15
 11
182.51
 21
-14.7383
  0
LINE
  8
0
 10
182.51
 20
-14.7383
 11
182.551
 21
-14.4795
  0
LINE
  8
0
 10
182.551
 20
-14.4795
 11
182.619
 21
-14.2264
  0
LINE
  8
0
 10
182.619
 20
-14.2264
 11
182.713
 21
-13.9818
  0
LINE
  8
0
 10
182.713
 20
-13.9818
 11
182.832
 21
-13.7483
  0
LINE
  8
0
 10
182.832
 20
-13.7483
 11
182.975
 21
-13.5285
  0
LINE
  8
0
 10
182.975
 20
-13.5285
 11
183.14
 21
-13.3249
  0
LINE
  8
0
 10
183.14
 20
-13.3249
 11
183.325
 21
-13.1396
  0
LINE
  8
0
 10
183.325
 20
-13.1396
 11
183.529
 21
-12.9747
  0
LINE
  8
0
 10
183.529
 20
-12.9747
 11
183.748
 21
-12.832
  0
LINE
  8
0
 10
183.748
 20
-12.832
 11
183.982
 21
-12.713
  0
LINE
  8
0
 10
183.982
 20
-12.713
 11
184.226
 21
-12.6191
  0
LINE
  8
0
 10
184.226
 20
-12.6191
 11
184.48
 21
-12.5513
  0
LINE
  8
0
 10
184.48
 20
-12.5513
 11
184.738
 21
-12.5103
  0
LINE
  8
0
 10
184.738
 20
-12.5103
 11
185
 21
-12.4966
  0
LINE
  8
0
 10
185
 20
-12.4966
 11
185.262
 21
-12.5103
  0
LINE
  8
0
 10
185.262
 20
-12.5103
 11
185.52
 21
-12.5513
  0
LINE
  8
0
 10
185.52
 20
-12.5513
 11
185.774
 21
-12.6191
  0
LINE
  8
0
 10
185.774
 20
-12.6191
 11
186.018
 21
-12.713
  0
LINE
  8
0
 10
186.018
 20
-12.713
 11
186.252
 21
-12.832
  0
LINE
  8
0
 10
186.252
 20
-12.832
 11
186.471
 21
-12.9747
  0
LINE
  8
0
 10
186.471
 20
-12.9747
 11
186.675
 21
-13.1396
  0
LINE
  8
0
 10
186.675
 20
-13.1396
 11
186.86
 21
-13.3249
  0
LINE
  8
0
 10
186.86
 20
-13.3249
 11
187.025
 21
-13.5285
  0
LINE
  8
0
 10
187.025
 20
-13.5285
 11
187.168
 21
-13.7483
  0
LINE
  8
0
 10
187.168
 20
-13.7483
 11
187.287
 21
-13.9818
  0
LINE
  8
0
 10
187.287
 20
-13.9818
 11
187.381
 21
-14.2264
  0
LINE
  8
0
 10
187.381
 20
-14.2264
 11
187.449
 21
-14.4795
  0
LINE
  8
0
 10
187.449
 20
-14.4795
 11
187.49
 21
-14.7383
  0
LINE
  8
0
 10
187.49
 20
-14.7383
 11
187.503
 21
-15
  0
LINE
  8
0
 10
187.503
 20
-15
 11
187.49
 21
-15.2617
  0
LINE
  8
0
 10
187.49
 20
-15.2617
 11
187.449
 21
-15.5205
  0
LINE
  8
0
 10
187.449
 20
-15.5205
 11
187.381
 21
-15.7736
  0
LINE
  8
0
 10
187.381
 20
-15.7736
 11
187.287
 21
-16.0182
  0
LINE
  8
0
 10
187.287
 20
-16.0182
 11
187.168
 21
-16.2517
  0
LINE
  8
0
 10
187.168
 20
-16.2517
 11
187.025
 21
-16.4715
  0
LINE
  8
0
 10
187.025
 20
-16.4715
 11
186.86
 21
-16.6751
  0
LINE
  8
0
 10
186.86
 20
-16.6751
 11
186.675
 21
-16.8604
  0
LINE
  8
0
 10
186.675
 20
-16.8604
 11
186.471
 21
-17.0253
  0
LINE
  8
0
 10
186.471
 20
-17.0253
 11
186.252
 21
-17.168
  0
LINE
  8
0
 10
186.252
 20
-17.168
 11
186.018
 21
-17.287
  0
LINE
  8
0
 10
186.018
 20
-17.287
 11
185.774
 21
-17.3809
  0
LINE
  8
0
 10
185.774
 20
-17.3809
 11
185.52
 21
-17.4487
  0
LINE
  8
0
 10
185.52
 20
-17.4487
 11
185.262
 21
-17.4897
  0
LINE
  8
0
 10
185.262
 20
-17.4897
 11
185
 21
-17.5034
  0
LINE
  8
0
 10
185
 20
-17.5034
 11
184.738
 21
-17.4897
  0
LINE
  8
0
 10
-185.247
 20
-62.1896
 11
-185.49
 21
-62.1482
  0
LINE
  8
0
 10
-185.49
 20
-62.1482
 11
-185.728
 21
-62.0798
  0
LINE
  8
0
 10
-185.728
 20
-62.0798
 11
-185.956
 21
-61.9853
  0
LINE
  8
0
 10
-185.956
 20
-61.9853
 11
-186.172
 21
-61.8657
  0
LINE
  8
0
 10
-186.172
 20
-61.8657
 11
-186.374
 21
-61.7227
  0
LINE
  8
0
 10
-186.374
 20
-61.7227
 11
-186.558
 21
-61.5581
  0
LINE
  8
0
 10
-186.558
 20
-61.5581
 11
-186.723
 21
-61.3738
  0
LINE
  8
0
 10
-186.723
 20
-61.3738
 11
-186.866
 21
-61.1723
  0
LINE
  8
0
 10
-186.866
 20
-61.1723
 11
-186.985
 21
-60.9561
  0
LINE
  8
0
 10
-186.985
 20
-60.9561
 11
-187.08
 21
-60.7278
  0
LINE
  8
0
 10
-187.08
 20
-60.7278
 11
-187.148
 21
-60.4903
  0
LINE
  8
0
 10
-187.148
 20
-60.4903
 11
-187.19
 21
-60.2467
  0
LINE
  8
0
 10
-187.19
 20
-60.2467
 11
-187.203
 21
-60
  0
LINE
  8
0
 10
-187.203
 20
-60
 11
-187.19
 21
-59.7533
  0
LINE
  8
0
 10
-187.19
 20
-59.7533
 11
-187.148
 21
-59.5097
  0
LINE
  8
0
 10
-187.148
 20
-59.5097
 11
-187.08
 21
-59.2722
  0
LINE
  8
0
 10
-187.08
 20
-59.2722
 11
-186.985
 21
-59.044
  0
LINE
  8
0
 10
-186.985
 20
-59.044
 11
-186.866
 21
-58.8277
  0
LINE
  8
0
 10
-186.866
 20
-58.8277
 11
-186.723
 21
-58.6262
  0
LINE
  8
0
 10
-186.723
 20
-58.6262
 11
-186.558
 21
-58.4419
  0
LINE
  8
0
 10
-186.558
 20
-58.4419
 11
-186.374
 21
-58.2773
  0
LINE
  8
0
 10
-186.374
 20
-58.2773
 11
-186.172
 21
-58.1343
  0
LINE
  8
0
 10
-186.172
 20
-58.1343
 11
-185.956
 21
-58.0148
  0
LINE
  8
0
 10
-185.956
 20
-58.0148
 11
-185.728
 21
-57.9202
  0
LINE
  8
0
 10
-185.728
 20
-57.9202
 11
-185.49
 21
-57.8518
  0
LINE
  8
0
 10
-185.49
 20
-57.8518
 11
-185.247
 21
-57.8104
  0
LINE
  8
0
 10
-185.247
 20
-57.8104
 11
-185
 21
-57.7965
  0
LINE
  8
0
 10
-185
 20
-57.7965
 11
-184.753
 21
-57.8104
  0
LINE
  8
0
 10
-184.753
 20
-57.8104
 11
-184.51
 21
-57.8518
  0
LINE
  8
0
 10
-184.51
 20
-57.8518
 11
-184.272
 21
-57.9202
  0
LINE
  8
0
 10
-184.272
 20
-57.9202
 11
-184.044
 21
-58.0148
  0
LINE
  8
0
 10
-184.044
 20
-58.0148
 11
-183.828
 21
-58.1343
  0
LINE
  8
0
 10
-183.828
 20
-58.1343
 11
-183.626
 21
-58.2773
  0
LINE
  8
0
 10
-183.626
 20
-58.2773
 11
-183.442
 21
-58.4419
  0
LINE
  8
0
 10
-183.442
 20
-58.4419
 11
-183.277
 21
-58.6262
  0
LINE
  8
0
 10
-183.277
 20
-58.6262
 11
-183.134
 21
-58.8277
  0
LINE
  8
0
 10
-183.134
 20
-58.8277
 11
-183.015
 21
-59.044
  0
LINE
  8
0
 10
-183.015
 20
-59.044
 11
-182.92
 21
-59.2722
  0
LINE
  8
0
 10
-182.92
 20
-59.2722
 11
-182.852
 21
-59.5097
  0
LINE
  8
0
 10
-182.852
 20
-59.5097
 11
-182.81
 21
-59.7533
  0
LINE
  8
0
 10
-182.81
 20
-59.7533
 11
-182.797
 21
-60
  0
LINE
  8
0
 10
-182.797
 20
-60
 11
-182.81
 21
-60.2467
  0
LINE
  8
0
 10
-182.81
 20
-60.2467
 11
-182.852
 21
-60.4903
  0
LINE
  8
0
 10
-182.852
 20
-60.4903
 11
-182.92
 21
-60.7278
  0
LINE
  8
0
 10
-182.92
 20
-60.7278
 11
-183.015
 21
-60.9561
  0
LINE
  8
0
 10
-183.015
 20
-60.9561
 11
-183.134
 21
-61.1723
  0
LINE
  8
0
 10
-183.134
 20
-61.1723
 11
-183.277
 21
-61.3738
  0
LINE
  8
0
 10
-183.277
 20
-61.3738
 11
-183.442
 21
-61.5581
  0
LINE
  8
0
 10
-183.442
 20
-61.5581
 11
-183.626
 21
-61.7227
  0
LINE
  8
0
 10
-183.626
 20
-61.7227
 11
-183.828
 21
-61.8657
  0
LINE
  8
0
 10
-183.828
 20
-61.8657
 11
-184.044
 21
-61.9853
  0
LINE
  8
0
 10
-184.044
 20
-61.9853
 11
-184.272
 21
-62.0798
  0
LINE
  8
0
 10
-184.272
 20
-62.0798
 11
-184.51
 21
-62.1482
  0
LINE
  8
0
 10
-184.51
 20
-62.1482
 11
-184.753
 21
-62.1896
  0
LINE
  8
0
 10
-184.753
 20
-62.1896
 11
-185
 21
-62.2035
  0
LINE
  8
0
 10
-185
 20
-62.2035
 11
-185.247
 21
-62.1896
  0
LINE
  8
0
 10
184.753
 20
-62.1896
 11
184.51
 21
-62.1482
  0
LINE
  8
0
 10
184.51
 20
-62.1482
 11
184.272
 21
-62.0798
  0
LINE
  8
0
 10
184.272
 20
-62.0798
 11
184.044
 21
-61.9853
  0
LINE
  8
0
 10
184.044
 20
-61.9853
 11
183.828
 21
-61.8657
  0
LINE
  8
0
 10
183.828
 20
-61.8657
 11
183.626
 21
-61.7227
  0
LINE
  8
0
 10
183.626
 20
-61.7227
 11
183.442
 21
-61.5581
  0
LINE
  8
0
 10
183.442
 20
-61.5581
 11
183.277
 21
-61.3738
  0
LINE
  8
0
 10
183.277
 20
-61.3738
 11
183.134
 21
-61.1723
  0
LINE
  8
0
 10
183.134
 20
-61.1723
 11
183.015
 21
-60.9561
  0
LINE
  8
0
 10
183.015
 20
-60.9561
 11
182.92
 21
-60.7278
  0
LINE
  8
0
 10
182.92
 20
-60.7278
 11
182.852
 21
-60.4903
  0
LINE
  8
0
 10
182.852
 20
-60.4903
 11
182.81
 21
-60.2467
  0
LINE
  8
0
 10
182.81
 20
-60.2467
 11
182.797
 21
-60
  0
LINE
  8
0
 10
182.797
 20
-60
 11
182.81
 21
-59.7533
  0
LINE
  8
0
 10
182.81
 20
-59.7533
 11
182.852
 21
-59.5097
  0
LINE
  8
0
 10
182.852
 20
-59.5097
 11
182.92
 21
-59.2722
  0
LINE
  8
0
 10
182.92
 20
-59.2722
 11
183.015
 21
-59.044
  0
LINE
  8
0
 10
183.015
 20
-59.044
 11
183.134
 21
-58.8277
  0
LINE
  8
0
 10
183.134
 20
-58.8277
 11
183.277
 21
-58.6262
  0
LINE
  8
0
 10
183.277
 20
-58.6262
 11
183.442
 21
-58.4419
  0
LINE
  8
0
 10
183.442
 20
-58.4419
 11
183.626
 21
-58.2773
  0
LINE
  8
0
 10
183.626
 20
-58.2773
 11
183.828
 21
-58.1343
  0
LINE
  8
0
 10
183.828
 20
-58.1343
 11
184.044
 21
-58.0148
  0
LINE
  8
0
 10
184.044
 20
-58.0148
 11
184.272
 21
-57.9202
  0
LINE
  8
0
 10
184.272
 20
-57.9202
 11
184.51
 21
-57.8518
  0
LINE
  8
0
 10
184.51
 20
-57.8518
 11
184.753
 21
-57.8104
  0
LINE
  8
0
 10
184.753
 20
-57.8104
 11
185
 21
-57.7965
  0
LINE
  8
0
 10
185
 20
-57.7965
 11
185.247
 21
-57.8104
  0
LINE
  8
0
 10
185.247
 20
-57.8104
 11
185.49
 21
-57.8518
  0
LINE
  8
0
 10
185.49
 20
-57.8518
 11
185.728
 21
-57.9202
  0
LINE
  8
0
 10
185.728
 20
-57.9202
 11
185.956
 21
-58.0148
  0
LINE
  8
0
 10
185.956
 20
-58.0148
 11
186.172
 21
-58.1343
  0
LINE
  8
0
 10
186.172
 20
-58.1343
 11
186.374
 21
-58.2773
  0
LINE
  8
0
 10
186.374
 20
-58.2773
 11
186.558
 21
-58.4419
  0
LINE
  8
0
 10
186.558
 20
-58.4419
 11
186.723
 21
-58.6262
  0
LINE
  8
0
 10
186.723
 20
-58.6262
 11
186.866
 21
-58.8277
  0
LINE
  8
0
 10
186.866
 20
-58.8277
 11
186.985
 21
-59.044
  0
LINE
  8
0
 10
186.985
 20
-59.044
 11
187.08
 21
-59.2722
  0
LINE
  8
0
 10
187.08
 20
-59.2722
 11
187.148
 21
-59.5097
  0
LINE
  8
0
 10
187.148
 20
-59.5097
 11
187.19
 21
-59.7533
  0
LINE
  8
0
 10
187.19
 20
-59.7533
 11
187.203
 21
-60
  0
LINE
  8
0
 10
187.203
 20
-60
 11
187.19
 21
-60.2467
  0
LINE
  8
0
 10
187.19
 20
-60.2467
 11
187.148
 21
-60.4903
  0
LINE
  8
0
 10
187.148
 20
-60.4903
 11
187.08
 21
-60.7278
  0
LINE
  8
0
 10
187.08
 20
-60.7278
 11
186.985
 21
-60.9561
  0
LINE
  8
0
 10
186.985
 20
-60.9561
 11
186.866
 21
-61.1723
  0
LINE
  8
0
 10
186.866
 20
-61.1723
 11
186.723
 21
-61.3738
  0
LINE
  8
0
 10
186.723
 20
-61.3738
 11
186.558
 21
-61.5581
  0
LINE
  8
0
 10
186.558
 20
-61.5581
 11
186.374
 21
-61.7227
  0
LINE
  8
0
 10
186.374
 20
-61.7227
 11
186.172
 21
-61.8657
  0
LINE
  8
0
 10
186.172
 20
-61.8657
 11
185.956
 21
-61.9853
  0
LINE
  8
0
 10
185.956
 20
-61.9853
 11
185.728
 21
-62.0798
  0
LINE
  8
0
 10
185.728
 20
-62.0798
 11
185.49
 21
-62.1482
  0
LINE
  8
0
 10
185.49
 20
-62.1482
 11
185.247
 21
-62.1896
  0
LINE
  8
0
 10
185.247
 20
-62.1896
 11
185
 21
-62.2035
  0
LINE
  8
0
 10
185
 20
-62.2035
 11
184.753
 21
-62.1896
  0
LINE
  8
0
 10
7.25328
 20
-76.6896
 11
7.00967
 21
-76.6482
  0
LINE
  8
0
 10
7.00967
 20
-76.6482
 11
6.77223
 21
-76.5798
  0
LINE
  8
0
 10
6.77223
 20
-76.5798
 11
6.54395
 21
-76.4853
  0
LINE
  8
0
 10
6.54395
 20
-76.4853
 11
6.32768
 21
-76.3657
  0
LINE
  8
0
 10
6.32768
 20
-76.3657
 11
6.12616
 21
-76.2227
  0
LINE
  8
0
 10
6.12616
 20
-76.2227
 11
5.94191
 21
-76.0581
  0
LINE
  8
0
 10
5.94191
 20
-76.0581
 11
5.77725
 21
-75.8738
  0
LINE
  8
0
 10
5.77725
 20
-75.8738
 11
5.63426
 21
-75.6723
  0
LINE
  8
0
 10
5.63426
 20
-75.6723
 11
5.51474
 21
-75.4561
  0
LINE
  8
0
 10
5.51474
 20
-75.4561
 11
5.42018
 21
-75.2278
  0
LINE
  8
0
 10
5.42018
 20
-75.2278
 11
5.35178
 21
-74.9903
  0
LINE
  8
0
 10
5.35178
 20
-74.9903
 11
5.31038
 21
-74.7467
  0
LINE
  8
0
 10
5.31038
 20
-74.7467
 11
5.29652
 21
-74.5
  0
LINE
  8
0
 10
5.29652
 20
-74.5
 11
5.31038
 21
-74.2533
  0
LINE
  8
0
 10
5.31038
 20
-74.2533
 11
5.35178
 21
-74.0097
  0
LINE
  8
0
 10
5.35178
 20
-74.0097
 11
5.42018
 21
-73.7722
  0
LINE
  8
0
 10
5.42018
 20
-73.7722
 11
5.51474
 21
-73.544
  0
LINE
  8
0
 10
5.51474
 20
-73.544
 11
5.63426
 21
-73.3277
  0
LINE
  8
0
 10
5.63426
 20
-73.3277
 11
5.77725
 21
-73.1262
  0
LINE
  8
0
 10
5.77725
 20
-73.1262
 11
5.94191
 21
-72.9419
  0
LINE
  8
0
 10
5.94191
 20
-72.9419
 11
6.12616
 21
-72.7773
  0
LINE
  8
0
 10
6.12616
 20
-72.7773
 11
6.32768
 21
-72.6343
  0
LINE
  8
0
 10
6.32768
 20
-72.6343
 11
6.54395
 21
-72.5148
  0
LINE
  8
0
 10
6.54395
 20
-72.5148
 11
6.77223
 21
-72.4202
  0
LINE
  8
0
 10
6.77223
 20
-72.4202
 11
7.00967
 21
-72.3518
  0
LINE
  8
0
 10
7.00967
 20
-72.3518
 11
7.25328
 21
-72.3104
  0
LINE
  8
0
 10
7.25328
 20
-72.3104
 11
7.5
 21
-72.2965
  0
LINE
  8
0
 10
7.5
 20
-72.2965
 11
7.7467
 21
-72.3104
  0
LINE
  8
0
 10
7.7467
 20
-72.3104
 11
7.99031
 21
-72.3518
  0
LINE
  8
0
 10
7.99031
 20
-72.3518
 11
8.22775
 21
-72.4202
  0
LINE
  8
0
 10
8.22775
 20
-72.4202
 11
8.45604
 21
-72.5148
  0
LINE
  8
0
 10
8.45604
 20
-72.5148
 11
8.6723
 21
-72.6343
  0
LINE
  8
0
 10
8.6723
 20
-72.6343
 11
8.87383
 21
-72.7773
  0
LINE
  8
0
 10
8.87383
 20
-72.7773
 11
9.05807
 21
-72.9419
  0
LINE
  8
0
 10
9.05807
 20
-72.9419
 11
9.22273
 21
-73.1262
  0
LINE
  8
0
 10
9.22273
 20
-73.1262
 11
9.36572
 21
-73.3277
  0
LINE
  8
0
 10
9.36572
 20
-73.3277
 11
9.48524
 21
-73.544
  0
LINE
  8
0
 10
9.48524
 20
-73.544
 11
9.5798
 21
-73.7722
  0
LINE
  8
0
 10
9.5798
 20
-73.7722
 11
9.64821
 21
-74.0097
  0
LINE
  8
0
 10
9.64821
 20
-74.0097
 11
9.68961
 21
-74.2533
  0
LINE
  8
0
 10
9.68961
 20
-74.2533
 11
9.70346
 21
-74.5
  0
LINE
  8
0
 10
9.70346
 20
-74.5
 11
9.68961
 21
-74.7467
  0
LINE
  8
0
 10
9.68961
 20
-74.7467
 11
9.64821
 21
-74.9903
  0
LINE
  8
0
 10
9.64821
 20
-74.9903
 11
9.5798
 21
-75.2278
  0
LINE
  8
0
 10
9.5798
 20
-75.2278
 11
9.48524
 21
-75.4561
  0
LINE
  8
0
 10
9.48524
 20
-75.4561
 11
9.36572
 21
-75.6723
  0
LINE
  8
0
 10
9.36572
 20
-75.6723
 11
9.22273
 21
-75.8738
  0
LINE
  8
0
 10
9.22273
 20
-75.8738
 11
9.05807
 21
-76.0581
  0
LINE
  8
0
 10
9.05807
 20
-76.0581
 11
8.87383
 21
-76.2227
  0
LINE
  8
0
 10
8.87383
 20
-76.2227
 11
8.6723
 21
-76.3657
  0
LINE
  8
0
 10
8.6723
 20
-76.3657
 11
8.45604
 21
-76.4853
  0
LINE
  8
0
 10
8.45604
 20
-76.4853
 11
8.22775
 21
-76.5798
  0
LINE
  8
0
 10
8.22775
 20
-76.5798
 11
7.99031
 21
-76.6482
  0
LINE
  8
0
 10
7.99031
 20
-76.6482
 11
7.7467
 21
-76.6896
  0
LINE
  8
0
 10
7.7467
 20
-76.6896
 11
7.5
 21
-76.7035
  0
LINE
  8
0
 10
7.5
 20
-76.7035
 11
7.25328
 21
-76.6896
  0
LINE
  8
0
 10
-142.747
 20
-76.6896
 11
-142.99
 21
-76.6482
  0
LINE
  8
0
 10
-142.99
 20
-76.6482
 11
-143.228
 21
-76.5798
  0
LINE
  8
0
 10
-143.228
 20
-76.5798
 11
-143.456
 21
-76.4853
  0
LINE
  8
0
 10
-143.456
 20
-76.4853
 11
-143.672
 21
-76.3657
  0
LINE
  8
0
 10
-143.672
 20
-76.3657
 11
-143.874
 21
-76.2227
  0
LINE
  8
0
 10
-143.874
 20
-76.2227
 11
-144.058
 21
-76.0581
  0
LINE
  8
0
 10
-144.058
 20
-76.0581
 11
-144.223
 21
-75.8738
  0
LINE
  8
0
 10
-144.223
 20
-75.8738
 11
-144.366
 21
-75.6723
  0
LINE
  8
0
 10
-144.366
 20
-75.6723
 11
-144.485
 21
-75.4561
  0
LINE
  8
0
 10
-144.485
 20
-75.4561
 11
-144.58
 21
-75.2278
  0
LINE
  8
0
 10
-144.58
 20
-75.2278
 11
-144.648
 21
-74.9903
  0
LINE
  8
0
 10
-144.648
 20
-74.9903
 11
-144.69
 21
-74.7467
  0
LINE
  8
0
 10
-144.69
 20
-74.7467
 11
-144.703
 21
-74.5
  0
LINE
  8
0
 10
-144.703
 20
-74.5
 11
-144.69
 21
-74.2533
  0
LINE
  8
0
 10
-144.69
 20
-74.2533
 11
-144.648
 21
-74.0097
  0
LINE
  8
0
 10
-144.648
 20
-74.0097
 11
-144.58
 21
-73.7722
  0
LINE
  8
0
 10
-144.58
 20
-73.7722
 11
-144.485
 21
-73.544
  0
LINE
  8
0
 10
-144.485
 20
-73.544
 11
-144.366
 21
-73.3277
  0
LINE
  8
0
 10
-144.366
 20
-73.3277
 11
-144.223
 21
-73.1262
  0
LINE
  8
0
 10
-144.223
 20
-73.1262
 11
-144.058
 21
-72.9419
  0
LINE
  8
0
 10
-144.058
 20
-72.9419
 11
-143.874
 21
-72.7773
  0
LINE
  8
0
 10
-143.874
 20
-72.7773
 11
-143.672
 21
-72.6343
  0
LINE
  8
0
 10
-143.672
 20
-72.6343
 11
-143.456
 21
-72.5148
  0
LINE
  8
0
 10
-143.456
 20
-72.5148
 11
-143.228
 21
-72.4202
  0
LINE
  8
0
 10
-143.228
 20
-72.4202
 11
-142.99
 21
-72.3518
  0
LINE
  8
0
 10
-142.99
 20
-72.3518
 11
-142.747
 21
-72.3104
  0
LINE
  8
0
 10
-142.747
 20
-72.3104
 11
-142.5
 21
-72.2965
  0
LINE
  8
0
 10
-142.5
 20
-72.2965
 11
-142.253
 21
-72.3104
  0
LINE
  8
0
 10
-142.253
 20
-72.3104
 11
-142.01
 21
-72.3518
  0
LINE
  8
0
 10
-142.01
 20
-72.3518
 11
-141.772
 21
-72.4202
  0
LINE
  8
0
 10
-141.772
 20
-72.4202
 11
-141.544
 21
-72.5148
  0
LINE
  8
0
 10
-141.544
 20
-72.5148
 11
-141.328
 21
-72.6343
  0
LINE
  8
0
 10
-141.328
 20
-72.6343
 11
-141.126
 21
-72.7773
  0
LINE
  8
0
 10
-141.126
 20
-72.7773
 11
-140.942
 21
-72.9419
  0
LINE
  8
0
 10
-140.942
 20
-72.9419
 11
-140.777
 21
-73.1262
  0
LINE
  8
0
 10
-140.777
 20
-73.1262
 11
-140.634
 21
-73.3277
  0
LINE
  8
0
 10
-140.634
 20
-73.3277
 11
-140.515
 21
-73.544
  0
LINE
  8
0
 10
-140.515
 20
-73.544
 11
-140.42
 21
-73.7722
  0
LINE
  8
0
 10
-140.42
 20
-73.7722
 11
-140.352
 21
-74.0097
  0
LINE
  8
0
 10
-140.352
 20
-74.0097
 11
-140.31
 21
-74.2533
  0
LINE
  8
0
 10
-140.31
 20
-74.2533
 11
-140.297
 21
-74.5
  0
LINE
  8
0
 10
-140.297
 20
-74.5
 11
-140.31
 21
-74.7467
  0
LINE
  8
0
 10
-140.31
 20
-74.7467
 11
-140.352
 21
-74.9903
  0
LINE
  8
0
 10
-140.352
 20
-74.9903
 11
-140.42
 21
-75.2278
  0
LINE
  8
0
 10
-140.42
 20
-75.2278
 11
-140.515
 21
-75.4561
  0
LINE
  8
0
 10
-140.515
 20
-75.4561
 11
-140.634
 21
-75.6723
  0
LINE
  8
0
 10
-140.634
 20
-75.6723
 11
-140.777
 21
-75.8738
  0
LINE
  8
0
 10
-140.777
 20
-75.8738
 11
-140.942
 21
-76.0581
  0
LINE
  8
0
 10
-140.942
 20
-76.0581
 11
-141.126
 21
-76.2227
  0
LINE
  8
0
 10
-141.126
 20
-76.2227
 11
-141.328
 21
-76.3657
  0
LINE
  8
0
 10
-141.328
 20
-76.3657
 11
-141.544
 21
-76.4853
  0
LINE
  8
0
 10
-141.544
 20
-76.4853
 11
-141.772
 21
-76.5798
  0
LINE
  8
0
 10
-141.772
 20
-76.5798
 11
-142.01
 21
-76.6482
  0
LINE
  8
0
 10
-142.01
 20
-76.6482
 11
-142.253
 21
-76.6896
  0
LINE
  8
0
 10
-142.253
 20
-76.6896
 11
-142.5
 21
-76.7035
  0
LINE
  8
0
 10
-142.5
 20
-76.7035
 11
-142.747
 21
-76.6896
  0
LINE
  8
0
 10
170.753
 20
-97.6361
 11
170.512
 21
-97.5811
  0
LINE
  8
0
 10
170.512
 20
-97.5811
 11
170.282
 21
-97.4908
  0
LINE
  8
0
 10
170.282
 20
-97.4908
 11
170.068
 21
-97.3671
  0
LINE
  8
0
 10
170.068
 20
-97.3671
 11
169.875
 21
-97.2129
  0
LINE
  8
0
 10
169.875
 20
-97.2129
 11
169.706
 21
-97.0316
  0
LINE
  8
0
 10
169.706
 20
-97.0316
 11
169.567
 21
-96.8273
  0
LINE
  8
0
 10
169.567
 20
-96.8273
 11
169.46
 21
-96.6045
  0
LINE
  8
0
 10
169.46
 20
-96.6045
 11
169.387
 21
-96.3682
  0
LINE
  8
0
 10
169.387
 20
-96.3682
 11
169.35
 21
-96.1236
  0
LINE
  8
0
 10
169.35
 20
-96.1236
 11
169.35
 21
-95.8763
  0
LINE
  8
0
 10
169.35
 20
-95.8763
 11
169.387
 21
-95.6318
  0
LINE
  8
0
 10
169.387
 20
-95.6318
 11
169.46
 21
-95.3955
  0
LINE
  8
0
 10
169.46
 20
-95.3955
 11
169.567
 21
-95.1727
  0
LINE
  8
0
 10
169.567
 20
-95.1727
 11
169.706
 21
-94.9684
  0
LINE
  8
0
 10
169.706
 20
-94.9684
 11
169.875
 21
-94.7871
  0
LINE
  8
0
 10
169.875
 20
-94.7871
 11
170.068
 21
-94.6329
  0
LINE
  8
0
 10
170.068
 20
-94.6329
 11
170.282
 21
-94.5092
  0
LINE
  8
0
 10
170.282
 20
-94.5092
 11
170.512
 21
-94.4189
  0
LINE
  8
0
 10
170.512
 20
-94.4189
 11
170.753
 21
-94.3638
  0
LINE
  8
0
 10
170.753
 20
-94.3638
 11
171
 21
-94.3454
  0
LINE
  8
0
 10
171
 20
-94.3454
 11
171.247
 21
-94.3638
  0
LINE
  8
0
 10
171.247
 20
-94.3638
 11
171.488
 21
-94.4189
  0
LINE
  8
0
 10
171.488
 20
-94.4189
 11
171.718
 21
-94.5092
  0
LINE
  8
0
 10
171.718
 20
-94.5092
 11
171.932
 21
-94.6329
  0
LINE
  8
0
 10
171.932
 20
-94.6329
 11
172.125
 21
-94.7871
  0
LINE
  8
0
 10
172.125
 20
-94.7871
 11
172.294
 21
-94.9684
  0
LINE
  8
0
 10
172.294
 20
-94.9684
 11
172.433
 21
-95.1727
  0
LINE
  8
0
 10
172.433
 20
-95.1727
 11
172.54
 21
-95.3955
  0
LINE
  8
0
 10
172.54
 20
-95.3955
 11
172.613
 21
-95.6318
  0
LINE
  8
0
 10
172.613
 20
-95.6318
 11
172.65
 21
-95.8763
  0
LINE
  8
0
 10
172.65
 20
-95.8763
 11
172.65
 21
-96.1236
  0
LINE
  8
0
 10
172.65
 20
-96.1236
 11
172.613
 21
-96.3682
  0
LINE
  8
0
 10
172.613
 20
-96.3682
 11
172.54
 21
-96.6045
  0
LINE
  8
0
 10
172.54
 20
-96.6045
 11
172.433
 21
-96.8273
  0
LINE
  8
0
 10
172.433
 20
-96.8273
 11
172.294
 21
-97.0316
  0
LINE
  8
0
 10
172.294
 20
-97.0316
 11
172.125
 21
-97.2129
  0
LINE
  8
0
 10
172.125
 20
-97.2129
 11
171.932
 21
-97.3671
  0
LINE
  8
0
 10
171.932
 20
-97.3671
 11
171.718
 21
-97.4908
  0
LINE
  8
0
 10
171.718
 20
-97.4908
 11
171.488
 21
-97.5811
  0
LINE
  8
0
 10
171.488
 20
-97.5811
 11
171.247
 21
-97.6361
  0
LINE
  8
0
 10
171.247
 20
-97.6361
 11
171
 21
-97.6546
  0
LINE
  8
0
 10
171
 20
-97.6546
 11
170.753
 21
-97.6361
  0
LINE
  8
0
 10
93.7534
 20
-97.6361
 11
93.5123
 21
-97.5811
  0
LINE
  8
0
 10
93.5123
 20
-97.5811
 11
93.2821
 21
-97.4908
  0
LINE
  8
0
 10
93.2821
 20
-97.4908
 11
93.0679
 21
-97.3671
  0
LINE
  8
0
 10
93.0679
 20
-97.3671
 11
92.8746
 21
-97.2129
  0
LINE
  8
0
 10
92.8746
 20
-97.2129
 11
92.7064
 21
-97.0316
  0
LINE
  8
0
 10
92.7064
 20
-97.0316
 11
92.5671
 21
-96.8273
  0
LINE
  8
0
 10
92.5671
 20
-96.8273
 11
92.4598
 21
-96.6045
  0
LINE
  8
0
 10
92.4598
 20
-96.6045
 11
92.3869
 21
-96.3682
  0
LINE
  8
0
 10
92.3869
 20
-96.3682
 11
92.35
 21
-96.1236
  0
LINE
  8
0
 10
92.35
 20
-96.1236
 11
92.35
 21
-95.8763
  0
LINE
  8
0
 10
92.35
 20
-95.8763
 11
92.3869
 21
-95.6318
  0
LINE
  8
0
 10
92.3869
 20
-95.6318
 11
92.4598
 21
-95.3955
  0
LINE
  8
0
 10
92.4598
 20
-95.3955
 11
92.5671
 21
-95.1727
  0
LINE
  8
0
 10
92.5671
 20
-95.1727
 11
92.7064
 21
-94.9684
  0
LINE
  8
0
 10
92.7064
 20
-94.9684
 11
92.8746
 21
-94.7871
  0
LINE
  8
0
 10
92.8746
 20
-94.7871
 11
93.0679
 21
-94.6329
  0
LINE
  8
0
 10
93.0679
 20
-94.6329
 11
93.2821
 21
-94.5092
  0
LINE
  8
0
 10
93.2821
 20
-94.5092
 11
93.5123
 21
-94.4189
  0
LINE
  8
0
 10
93.5123
 20
-94.4189
 11
93.7534
 21
-94.3638
  0
LINE
  8
0
 10
93.7534
 20
-94.3638
 11
94
 21
-94.3454
  0
LINE
  8
0
 10
94
 20
-94.3454
 11
94.2466
 21
-94.3638
  0
LINE
  8
0
 10
94.2466
 20
-94.3638
 11
94.4877
 21
-94.4189
  0
LINE
  8
0
 10
94.4877
 20
-94.4189
 11
94.7179
 21
-94.5092
  0
LINE
  8
0
 10
94.7179
 20
-94.5092
 11
94.9321
 21
-94.6329
  0
LINE
  8
0
 10
94.9321
 20
-94.6329
 11
95.1254
 21
-94.7871
  0
LINE
  8
0
 10
95.1254
 20
-94.7871
 11
95.2936
 21
-94.9684
  0
LINE
  8
0
 10
95.2936
 20
-94.9684
 11
95.433
 21
-95.1727
  0
LINE
  8
0
 10
95.433
 20
-95.1727
 11
95.5403
 21
-95.3955
  0
LINE
  8
0
 10
95.5403
 20
-95.3955
 11
95.6131
 21
-95.6318
  0
LINE
  8
0
 10
95.6131
 20
-95.6318
 11
95.65
 21
-95.8763
  0
LINE
  8
0
 10
95.65
 20
-95.8763
 11
95.65
 21
-96.1236
  0
LINE
  8
0
 10
95.65
 20
-96.1236
 11
95.6131
 21
-96.3682
  0
LINE
  8
0
 10
95.6131
 20
-96.3682
 11
95.5403
 21
-96.6045
  0
LINE
  8
0
 10
95.5403
 20
-96.6045
 11
95.433
 21
-96.8273
  0
LINE
  8
0
 10
95.433
 20
-96.8273
 11
95.2936
 21
-97.0316
  0
LINE
  8
0
 10
95.2936
 20
-97.0316
 11
95.1254
 21
-97.2129
  0
LINE
  8
0
 10
95.1254
 20
-97.2129
 11
94.9321
 21
-97.3671
  0
LINE
  8
0
 10
94.9321
 20
-97.3671
 11
94.7179
 21
-97.4908
  0
LINE
  8
0
 10
94.7179
 20
-97.4908
 11
94.4877
 21
-97.5811
  0
LINE
  8
0
 10
94.4877
 20
-97.5811
 11
94.2466
 21
-97.6361
  0
LINE
  8
0
 10
94.2466
 20
-97.6361
 11
94
 21
-97.6546
  0
LINE
  8
0
 10
94
 20
-97.6546
 11
93.7534
 21
-97.6361
  0
LINE
  8
0
 10
-142.747
 20
-126.69
 11
-142.99
 21
-126.648
  0
LINE
  8
0
 10
-142.99
 20
-126.648
 11
-143.228
 21
-126.58
  0
LINE
  8
0
 10
-143.228
 20
-126.58
 11
-143.456
 21
-126.485
  0
LINE
  8
0
 10
-143.456
 20
-126.485
 11
-143.672
 21
-126.366
  0
LINE
  8
0
 10
-143.672
 20
-126.366
 11
-143.874
 21
-126.223
  0
LINE
  8
0
 10
-143.874
 20
-126.223
 11
-144.058
 21
-126.058
  0
LINE
  8
0
 10
-144.058
 20
-126.058
 11
-144.223
 21
-125.874
  0
LINE
  8
0
 10
-144.223
 20
-125.874
 11
-144.366
 21
-125.672
  0
LINE
  8
0
 10
-144.366
 20
-125.672
 11
-144.485
 21
-125.456
  0
LINE
  8
0
 10
-144.485
 20
-125.456
 11
-144.58
 21
-125.228
  0
LINE
  8
0
 10
-144.58
 20
-125.228
 11
-144.648
 21
-124.99
  0
LINE
  8
0
 10
-144.648
 20
-124.99
 11
-144.69
 21
-124.747
  0
LINE
  8
0
 10
-144.69
 20
-124.747
 11
-144.703
 21
-124.5
  0
LINE
  8
0
 10
-144.703
 20
-124.5
 11
-144.69
 21
-124.253
  0
LINE
  8
0
 10
-144.69
 20
-124.253
 11
-144.648
 21
-124.01
  0
LINE
  8
0
 10
-144.648
 20
-124.01
 11
-144.58
 21
-123.772
  0
LINE
  8
0
 10
-144.58
 20
-123.772
 11
-144.485
 21
-123.544
  0
LINE
  8
0
 10
-144.485
 20
-123.544
 11
-144.366
 21
-123.328
  0
LINE
  8
0
 10
-144.366
 20
-123.328
 11
-144.223
 21
-123.126
  0
LINE
  8
0
 10
-144.223
 20
-123.126
 11
-144.058
 21
-122.942
  0
LINE
  8
0
 10
-144.058
 20
-122.942
 11
-143.874
 21
-122.777
  0
LINE
  8
0
 10
-143.874
 20
-122.777
 11
-143.672
 21
-122.634
  0
LINE
  8
0
 10
-143.672
 20
-122.634
 11
-143.456
 21
-122.515
  0
LINE
  8
0
 10
-143.456
 20
-122.515
 11
-143.228
 21
-122.42
  0
LINE
  8
0
 10
-143.228
 20
-122.42
 11
-142.99
 21
-122.352
  0
LINE
  8
0
 10
-142.99
 20
-122.352
 11
-142.747
 21
-122.31
  0
LINE
  8
0
 10
-142.747
 20
-122.31
 11
-142.5
 21
-122.297
  0
LINE
  8
0
 10
-142.5
 20
-122.297
 11
-142.253
 21
-122.31
  0
LINE
  8
0
 10
-142.253
 20
-122.31
 11
-142.01
 21
-122.352
  0
LINE
  8
0
 10
-142.01
 20
-122.352
 11
-141.772
 21
-122.42
  0
LINE
  8
0
 10
-141.772
 20
-122.42
 11
-141.544
 21
-122.515
  0
LINE
  8
0
 10
-141.544
 20
-122.515
 11
-141.328
 21
-122.634
  0
LINE
  8
0
 10
-141.328
 20
-122.634
 11
-141.126
 21
-122.777
  0
LINE
  8
0
 10
-141.126
 20
-122.777
 11
-140.942
 21
-122.942
  0
LINE
  8
0
 10
-140.942
 20
-122.942
 11
-140.777
 21
-123.126
  0
LINE
  8
0
 10
-140.777
 20
-123.126
 11
-140.634
 21
-123.328
  0
LINE
  8
0
 10
-140.634
 20
-123.328
 11
-140.515
 21
-123.544
  0
LINE
  8
0
 10
-140.515
 20
-123.544
 11
-140.42
 21
-123.772
  0
LINE
  8
0
 10
-140.42
 20
-123.772
 11
-140.352
 21
-124.01
  0
LINE
  8
0
 10
-140.352
 20
-124.01
 11
-140.31
 21
-124.253
  0
LINE
  8
0
 10
-140.31
 20
-124.253
 11
-140.297
 21
-124.5
  0
LINE
  8
0
 10
-140.297
 20
-124.5
 11
-140.31
 21
-124.747
  0
LINE
  8
0
 10
-140.31
 20
-124.747
 11
-140.352
 21
-124.99
  0
LINE
  8
0
 10
-140.352
 20
-124.99
 11
-140.42
 21
-125.228
  0
LINE
  8
0
 10
-140.42
 20
-125.228
 11
-140.515
 21
-125.456
  0
LINE
  8
0
 10
-140.515
 20
-125.456
 11
-140.634
 21
-125.672
  0
LINE
  8
0
 10
-140.634
 20
-125.672
 11
-140.777
 21
-125.874
  0
LINE
  8
0
 10
-140.777
 20
-125.874
 11
-140.942
 21
-126.058
  0
LINE
  8
0
 10
-140.942
 20
-126.058
 11
-141.126
 21
-126.223
  0
LINE
  8
0
 10
-141.126
 20
-126.223
 11
-141.328
 21
-126.366
  0
LINE
  8
0
 10
-141.328
 20
-126.366
 11
-141.544
 21
-126.485
  0
LINE
  8
0
 10
-141.544
 20
-126.485
 11
-141.772
 21
-126.58
  0
LINE
  8
0
 10
-141.772
 20
-126.58
 11
-142.01
 21
-126.648
  0
LINE
  8
0
 10
-142.01
 20
-126.648
 11
-142.253
 21
-126.69
  0
LINE
  8
0
 10
-142.253
 20
-126.69
 11
-142.5
 21
-126.703
  0
LINE
  8
0
 10
-142.5
 20
-126.703
 11
-142.747
 21
-126.69
  0
LINE
  8
0
 10
7.25328
 20
-126.69
 11
7.00967
 21
-126.648
  0
LINE
  8
0
 10
7.00967
 20
-126.648
 11
6.77223
 21
-126.58
  0
LINE
  8
0
 10
6.77223
 20
-126.58
 11
6.54395
 21
-126.485
  0
LINE
  8
0
 10
6.54395
 20
-126.485
 11
6.32768
 21
-126.366
  0
LINE
  8
0
 10
6.32768
 20
-126.366
 11
6.12616
 21
-126.223
  0
LINE
  8
0
 10
6.12616
 20
-126.223
 11
5.94191
 21
-126.058
  0
LINE
  8
0
 10
5.94191
 20
-126.058
 11
5.77725
 21
-125.874
  0
LINE
  8
0
 10
5.77725
 20
-125.874
 11
5.63426
 21
-125.672
  0
LINE
  8
0
 10
5.63426
 20
-125.672
 11
5.51474
 21
-125.456
  0
LINE
  8
0
 10
5.51474
 20
-125.456
 11
5.42018
 21
-125.228
  0
LINE
  8
0
 10
5.42018
 20
-125.228
 11
5.35178
 21
-124.99
  0
LINE
  8
0
 10
5.35178
 20
-124.99
 11
5.31038
 21
-124.747
  0
LINE
  8
0
 10
5.31038
 20
-124.747
 11
5.29652
 21
-124.5
  0
LINE
  8
0
 10
5.29652
 20
-124.5
 11
5.31038
 21
-124.253
  0
LINE
  8
0
 10
5.31038
 20
-124.253
 11
5.35178
 21
-124.01
  0
LINE
  8
0
 10
5.35178
 20
-124.01
 11
5.42018
 21
-123.772
  0
LINE
  8
0
 10
5.42018
 20
-123.772
 11
5.51474
 21
-123.544
  0
LINE
  8
0
 10
5.51474
 20
-123.544
 11
5.63426
 21
-123.328
  0
LINE
  8
0
 10
5.63426
 20
-123.328
 11
5.77725
 21
-123.126
  0
LINE
  8
0
 10
5.77725
 20
-123.126
 11
5.94191
 21
-122.942
  0
LINE
  8
0
 10
5.94191
 20
-122.942
 11
6.12616
 21
-122.777
  0
LINE
  8
0
 10
6.12616
 20
-122.777
 11
6.32768
 21
-122.634
  0
LINE
  8
0
 10
6.32768
 20
-122.634
 11
6.54395
 21
-122.515
  0
LINE
  8
0
 10
6.54395
 20
-122.515
 11
6.77223
 21
-122.42
  0
LINE
  8
0
 10
6.77223
 20
-122.42
 11
7.00967
 21
-122.352
  0
LINE
  8
0
 10
7.00967
 20
-122.352
 11
7.25328
 21
-122.31
  0
LINE
  8
0
 10
7.25328
 20
-122.31
 11
7.5
 21
-122.297
  0
LINE
  8
0
 10
7.5
 20
-122.297
 11
7.7467
 21
-122.31
  0
LINE
  8
0
 10
7.7467
 20
-122.31
 11
7.99031
 21
-122.352
  0
LINE
  8
0
 10
7.99031
 20
-122.352
 11
8.22775
 21
-122.42
  0
LINE
  8
0
 10
8.22775
 20
-122.42
 11
8.45604
 21
-122.515
  0
LINE
  8
0
 10
8.45604
 20
-122.515
 11
8.6723
 21
-122.634
  0
LINE
  8
0
 10
8.6723
 20
-122.634
 11
8.87383
 21
-122.777
  0
LINE
  8
0
 10
8.87383
 20
-122.777
 11
9.05807
 21
-122.942
  0
LINE
  8
0
 10
9.05807
 20
-122.942
 11
9.22273
 21
-123.126
  0
LINE
  8
0
 10
9.22273
 20
-123.126
 11
9.36572
 21
-123.328
  0
LINE
  8
0
 10
9.36572
 20
-123.328
 11
9.48524
 21
-123.544
  0
LINE
  8
0
 10
9.48524
 20
-123.544
 11
9.5798
 21
-123.772
  0
LINE
  8
0
 10
9.5798
 20
-123.772
 11
9.64821
 21
-124.01
  0
LINE
  8
0
 10
9.64821
 20
-124.01
 11
9.68961
 21
-124.253
  0
LINE
  8
0
 10
9.68961
 20
-124.253
 11
9.70346
 21
-124.5
  0
LINE
  8
0
 10
9.70346
 20
-124.5
 11
9.68961
 21
-124.747
  0
LINE
  8
0
 10
9.68961
 20
-124.747
 11
9.64821
 21
-124.99
  0
LINE
  8
0
 10
9.64821
 20
-124.99
 11
9.5798
 21
-125.228
  0
LINE
  8
0
 10
9.5798
 20
-125.228
 11
9.48524
 21
-125.456
  0
LINE
  8
0
 10
9.48524
 20
-125.456
 11
9.36572
 21
-125.672
  0
LINE
  8
0
 10
9.36572
 20
-125.672
 11
9.22273
 21
-125.874
  0
LINE
  8
0
 10
9.22273
 20
-125.874
 11
9.05807
 21
-126.058
  0
LINE
  8
0
 10
9.05807
 20
-126.058
 11
8.87383
 21
-126.223
  0
LINE
  8
0
 10
8.87383
 20
-126.223
 11
8.6723
 21
-126.366
  0
LINE
  8
0
 10
8.6723
 20
-126.366
 11
8.45604
 21
-126.485
  0
LINE
  8
0
 10
8.45604
 20
-126.485
 11
8.22775
 21
-126.58
  0
LINE
  8
0
 10
8.22775
 20
-126.58
 11
7.99031
 21
-126.648
  0
LINE
  8
0
 10
7.99031
 20
-126.648
 11
7.7467
 21
-126.69
  0
LINE
  8
0
 10
7.7467
 20
-126.69
 11
7.5
 21
-126.703
  0
LINE
  8
0
 10
7.5
 20
-126.703
 11
7.25328
 21
-126.69
  0
LINE
  8
0
 10
184.738
 20
-172.49
 11
184.48
 21
-172.449
  0
LINE
  8
0
 10
184.48
 20
-172.449
 11
184.226
 21
-172.381
  0
LINE
  8
0
 10
184.226
 20
-172.381
 11
183.982
 21
-172.287
  0
LINE
  8
0
 10
183.982
 20
-172.287
 11
183.748
 21
-172.168
  0
LINE
  8
0
 10
183.748
 20
-172.168
 11
183.529
 21
-172.025
  0
LINE
  8
0
 10
183.529
 20
-172.025
 11
183.325
 21
-171.86
  0
LINE
  8
0
 10
183.325
 20
-171.86
 11
183.14
 21
-171.675
  0
LINE
  8
0
 10
183.14
 20
-171.675
 11
182.975
 21
-171.471
  0
LINE
  8
0
 10
182.975
 20
-171.471
 11
182.832
 21
-171.252
  0
LINE
  8
0
 10
182.832
 20
-171.252
 11
182.713
 21
-171.018
  0
LINE
  8
0
 10
182.713
 20
-171.018
 11
182.619
 21
-170.774
  0
LINE
  8
0
 10
182.619
 20
-170.774
 11
182.551
 21
-170.52
  0
LINE
  8
0
 10
182.551
 20
-170.52
 11
182.51
 21
-170.262
  0
LINE
  8
0
 10
182.51
 20
-170.262
 11
182.497
 21
-170
  0
LINE
  8
0
 10
182.497
 20
-170
 11
182.51
 21
-169.738
  0
LINE
  8
0
 10
182.51
 20
-169.738
 11
182.551
 21
-169.48
  0
LINE
  8
0
 10
182.551
 20
-169.48
 11
182.619
 21
-169.226
  0
LINE
  8
0
 10
182.619
 20
-169.226
 11
182.713
 21
-168.982
  0
LINE
  8
0
 10
182.713
 20
-168.982
 11
182.832
 21
-168.748
  0
LINE
  8
0
 10
182.832
 20
-168.748
 11
182.975
 21
-168.529
  0
LINE
  8
0
 10
182.975
 20
-168.529
 11
183.14
 21
-168.325
  0
LINE
  8
0
 10
183.14
 20
-168.325
 11
183.325
 21
-168.14
  0
LINE
  8
0
 10
183.325
 20
-168.14
 11
183.529
 21
-167.975
  0
LINE
  8
0
 10
183.529
 20
-167.975
 11
183.748
 21
-167.832
  0
LINE
  8
0
 10
183.748
 20
-167.832
 11
183.982
 21
-167.713
  0
LINE
  8
0
 10
183.982
 20
-167.713
 11
184.226
 21
-167.619
  0
LINE
  8
0
 10
184.226
 20
-167.619
 11
184.48
 21
-167.551
  0
LINE
  8
0
 10
184.48
 20
-167.551
 11
184.738
 21
-167.51
  0
LINE
  8
0
 10
184.738
 20
-167.51
 11
185
 21
-167.497
  0
LINE
  8
0
 10
185
 20
-167.497
 11
185.262
 21
-167.51
  0
LINE
  8
0
 10
185.262
 20
-167.51
 11
185.52
 21
-167.551
  0
LINE
  8
0
 10
185.52
 20
-167.551
 11
185.774
 21
-167.619
  0
LINE
  8
0
 10
185.774
 20
-167.619
 11
186.018
 21
-167.713
  0
LINE
  8
0
 10
186.018
 20
-167.713
 11
186.252
 21
-167.832
  0
LINE
  8
0
 10
186.252
 20
-167.832
 11
186.471
 21
-167.975
  0
LINE
  8
0
 10
186.471
 20
-167.975
 11
186.675
 21
-168.14
  0
LINE
  8
0
 10
186.675
 20
-168.14
 11
186.86
 21
-168.325
  0
LINE
  8
0
 10
186.86
 20
-168.325
 11
187.025
 21
-168.529
  0
LINE
  8
0
 10
187.025
 20
-168.529
 11
187.168
 21
-168.748
  0
LINE
  8
0
 10
187.168
 20
-168.748
 11
187.287
 21
-168.982
  0
LINE
  8
0
 10
187.287
 20
-168.982
 11
187.381
 21
-169.226
  0
LINE
  8
0
 10
187.381
 20
-169.226
 11
187.449
 21
-169.48
  0
LINE
  8
0
 10
187.449
 20
-169.48
 11
187.49
 21
-169.738
  0
LINE
  8
0
 10
187.49
 20
-169.738
 11
187.503
 21
-170
  0
LINE
  8
0
 10
187.503
 20
-170
 11
187.49
 21
-170.262
  0
LINE
  8
0
 10
187.49
 20
-170.262
 11
187.449
 21
-170.52
  0
LINE
  8
0
 10
187.449
 20
-170.52
 11
187.381
 21
-170.774
  0
LINE
  8
0
 10
187.381
 20
-170.774
 11
187.287
 21
-171.018
  0
LINE
  8
0
 10
187.287
 20
-171.018
 11
187.168
 21
-171.252
  0
LINE
  8
0
 10
187.168
 20
-171.252
 11
187.025
 21
-171.471
  0
LINE
  8
0
 10
187.025
 20
-171.471
 11
186.86
 21
-171.675
  0
LINE
  8
0
 10
186.86
 20
-171.675
 11
186.675
 21
-171.86
  0
LINE
  8
0
 10
186.675
 20
-171.86
 11
186.471
 21
-172.025
  0
LINE
  8
0
 10
186.471
 20
-172.025
 11
186.252
 21
-172.168
  0
LINE
  8
0
 10
186.252
 20
-172.168
 11
186.018
 21
-172.287
  0
LINE
  8
0
 10
186.018
 20
-172.287
 11
185.774
 21
-172.381
  0
LINE
  8
0
 10
185.774
 20
-172.381
 11
185.52
 21
-172.449
  0
LINE
  8
0
 10
185.52
 20
-172.449
 11
185.262
 21
-172.49
  0
LINE
  8
0
 10
185.262
 20
-172.49
 11
185
 21
-172.503
  0
LINE
  8
0
 10
185
 20
-172.503
 11
184.738
 21
-172.49
  0
LINE
  8
0
 10
-185.262
 20
-172.49
 11
-185.52
 21
-172.449
  0
LINE
  8
0
 10
-185.52
 20
-172.449
 11
-185.774
 21
-172.381
  0
LINE
  8
0
 10
-185.774
 20
-172.381
 11
-186.018
 21
-172.287
  0
LINE
  8
0
 10
-186.018
 20
-172.287
 11
-186.252
 21
-172.168
  0
LINE
  8
0
 10
-186.252
 20
-172.168
 11
-186.471
 21
-172.025
  0
LINE
  8
0
 10
-186.471
 20
-172.025
 11
-186.675
 21
-171.86
  0
LINE
  8
0
 10
-186.675
 20
-171.86
 11
-186.86
 21
-171.675
  0
LINE
  8
0
 10
-186.86
 20
-171.675
 11
-187.025
 21
-171.471
  0
LINE
  8
0
 10
-187.025
 20
-171.471
 11
-187.168
 21
-171.252
  0
LINE
  8
0
 10
-187.168
 20
-171.252
 11
-187.287
 21
-171.018
  0
LINE
  8
0
 10
-187.287
 20
-171.018
 11
-187.381
 21
-170.774
  0
LINE
  8
0
 10
-187.381
 20
-170.774
 11
-187.449
 21
-170.52
  0
LINE
  8
0
 10
-187.449
 20
-170.52
 11
-187.49
 21
-170.262
  0
LINE
  8
0
 10
-187.49
 20
-170.262
 11
-187.503
 21
-170
  0
LINE
  8
0
 10
-187.503
 20
-170
 11
-187.49
 21
-169.738
  0
LINE
  8
0
 10
-187.49
 20
-169.738
 11
-187.449
 21
-169.48
  0
LINE
  8
0
 10
-187.449
 20
-169.48
 11
-187.381
 21
-169.226
  0
LINE
  8
0
 10
-187.381
 20
-169.226
 11
-187.287
 21
-168.982
  0
LINE
  8
0
 10
-187.287
 20
-168.982
 11
-187.168
 21
-168.748
  0
LINE
  8
0
 10
-187.168
 20
-168.748
 11
-187.025
 21
-168.529
  0
LINE
  8
0
 10
-187.025
 20
-168.529
 11
-186.86
 21
-168.325
  0
LINE
  8
0
 10
-186.86
 20
-168.325
 11
-186.675
 21
-168.14
  0
LINE
  8
0
 10
-186.675
 20
-168.14
 11
-186.471
 21
-167.975
  0
LINE
  8
0
 10
-186.471
 20
-167.975
 11
-186.252
 21
-167.832
  0
LINE
  8
0
 10
-186.252
 20
-167.832
 11
-186.018
 21
-167.713
  0
LINE
  8
0
 10
-186.018
 20
-167.713
 11
-185.774
 21
-167.619
  0
LINE
  8
0
 10
-185.774
 20
-167.619
 11
-185.52
 21
-167.551
  0
LINE
  8
0
 10
-185.52
 20
-167.551
 11
-185.262
 21
-167.51
  0
LINE
  8
0
 10
-185.262
 20
-167.51
 11
-185
 21
-167.497
  0
LINE
  8
0
 10
-185
 20
-167.497
 11
-184.738
 21
-167.51
  0
LINE
  8
0
 10
-184.738
 20
-167.51
 11
-184.48
 21
-167.551
  0
LINE
  8
0
 10
-184.48
 20
-167.551
 11
-184.226
 21
-167.619
  0
LINE
  8
0
 10
-184.226
 20
-167.619
 11
-183.982
 21
-167.713
  0
LINE
  8
0
 10
-183.982
 20
-167.713
 11
-183.748
 21
-167.832
  0
LINE
  8
0
 10
-183.748
 20
-167.832
 11
-183.529
 21
-167.975
  0
LINE
  8
0
 10
-183.529
 20
-167.975
 11
-183.325
 21
-168.14
  0
LINE
  8
0
 10
-183.325
 20
-168.14
 11
-183.14
 21
-168.325
  0
LINE
  8
0
 10
-183.14
 20
-168.325
 11
-182.975
 21
-168.529
  0
LINE
  8
0
 10
-182.975
 20
-168.529
 11
-182.832
 21
-168.748
  0
LINE
  8
0
 10
-182.832
 20
-168.748
 11
-182.713
 21
-168.982
  0
LINE
  8
0
 10
-182.713
 20
-168.982
 11
-182.619
 21
-169.226
  0
LINE
  8
0
 10
-182.619
 20
-169.226
 11
-182.551
 21
-169.48
  0
LINE
  8
0
 10
-182.551
 20
-169.48
 11
-182.51
 21
-169.738
  0
LINE
  8
0
 10
-182.51
 20
-169.738
 11
-182.497
 21
-170
  0
LINE
  8
0
 10
-182.497
 20
-170
 11
-182.51
 21
-170.262
  0
LINE
  8
0
 10
-182.51
 20
-170.262
 11
-182.551
 21
-170.52
  0
LINE
  8
0
 10
-182.551
 20
-170.52
 11
-182.619
 21
-170.774
  0
LINE
  8
0
 10
-182.619
 20
-170.774
 11
-182.713
 21
-171.018
  0
LINE
  8
0
 10
-182.713
 20
-171.018
 11
-182.832
 21
-171.252
  0
LINE
  8
0
 10
-182.832
 20
-171.252
 11
-182.975
 21
-171.471
  0
LINE
  8
0
 10
-182.975
 20
-171.471
 11
-183.14
 21
-171.675
  0
LINE
  8
0
 10
-183.14
 20
-171.675
 11
-183.325
 21
-171.86
  0
LINE
  8
0
 10
-183.325
 20
-171.86
 11
-183.529
 21
-172.025
  0
LINE
  8
0
 10
-183.529
 20
-172.025
 11
-183.748
 21
-172.168
  0
LINE
  8
0
 10
-183.748
 20
-172.168
 11
-183.982
 21
-172.287
  0
LINE
  8
0
 10
-183.982
 20
-172.287
 11
-184.226
 21
-172.381
  0
LINE
  8
0
 10
-184.226
 20
-172.381
 11
-184.48
 21
-172.449
  0
LINE
  8
0
 10
-184.48
 20
-172.449
 11
-184.738
 21
-172.49
  0
LINE
  8
0
 10
-184.738
 20
-172.49
 11
-185
 21
-172.503
  0
LINE
  8
0
 10
-185
 20
-172.503
 11
-185.262
 21
-172.49
  0
LINE
  8
0
 10
-185.247
 20
-182.19
 11
-185.49
 21
-182.148
  0
LINE
  8
0
 10
-185.49
 20
-182.148
 11
-185.728
 21
-182.08
  0
LINE
  8
0
 10
-185.728
 20
-182.08
 11
-185.956
 21
-181.985
  0
LINE
  8
0
 10
-185.956
 20
-181.985
 11
-186.172
 21
-181.866
  0
LINE
  8
0
 10
-186.172
 20
-181.866
 11
-186.374
 21
-181.723
  0
LINE
  8
0
 10
-186.374
 20
-181.723
 11
-186.558
 21
-181.558
  0
LINE
  8
0
 10
-186.558
 20
-181.558
 11
-186.723
 21
-181.374
  0
LINE
  8
0
 10
-186.723
 20
-181.374
 11
-186.866
 21
-181.172
  0
LINE
  8
0
 10
-186.866
 20
-181.172
 11
-186.985
 21
-180.956
  0
LINE
  8
0
 10
-186.985
 20
-180.956
 11
-187.08
 21
-180.728
  0
LINE
  8
0
 10
-187.08
 20
-180.728
 11
-187.148
 21
-180.49
  0
LINE
  8
0
 10
-187.148
 20
-180.49
 11
-187.19
 21
-180.247
  0
LINE
  8
0
 10
-187.19
 20
-180.247
 11
-187.203
 21
-180
  0
LINE
  8
0
 10
-187.203
 20
-180
 11
-187.19
 21
-179.753
  0
LINE
  8
0
 10
-187.19
 20
-179.753
 11
-187.148
 21
-179.51
  0
LINE
  8
0
 10
-187.148
 20
-179.51
 11
-187.08
 21
-179.272
  0
LINE
  8
0
 10
-187.08
 20
-179.272
 11
-186.985
 21
-179.044
  0
LINE
  8
0
 10
-186.985
 20
-179.044
 11
-186.866
 21
-178.828
  0
LINE
  8
0
 10
-186.866
 20
-178.828
 11
-186.723
 21
-178.626
  0
LINE
  8
0
 10
-186.723
 20
-178.626
 11
-186.558
 21
-178.442
  0
LINE
  8
0
 10
-186.558
 20
-178.442
 11
-186.374
 21
-178.277
  0
LINE
  8
0
 10
-186.374
 20
-178.277
 11
-186.172
 21
-178.134
  0
LINE
  8
0
 10
-186.172
 20
-178.134
 11
-185.956
 21
-178.015
  0
LINE
  8
0
 10
-185.956
 20
-178.015
 11
-185.728
 21
-177.92
  0
LINE
  8
0
 10
-185.728
 20
-177.92
 11
-185.49
 21
-177.852
  0
LINE
  8
0
 10
-185.49
 20
-177.852
 11
-185.247
 21
-177.81
  0
LINE
  8
0
 10
-185.247
 20
-177.81
 11
-185
 21
-177.797
  0
LINE
  8
0
 10
-185
 20
-177.797
 11
-184.753
 21
-177.81
  0
LINE
  8
0
 10
-184.753
 20
-177.81
 11
-184.51
 21
-177.852
  0
LINE
  8
0
 10
-184.51
 20
-177.852
 11
-184.272
 21
-177.92
  0
LINE
  8
0
 10
-184.272
 20
-177.92
 11
-184.044
 21
-178.015
  0
LINE
  8
0
 10
-184.044
 20
-178.015
 11
-183.828
 21
-178.134
  0
LINE
  8
0
 10
-183.828
 20
-178.134
 11
-183.626
 21
-178.277
  0
LINE
  8
0
 10
-183.626
 20
-178.277
 11
-183.442
 21
-178.442
  0
LINE
  8
0
 10
-183.442
 20
-178.442
 11
-183.277
 21
-178.626
  0
LINE
  8
0
 10
-183.277
 20
-178.626
 11
-183.134
 21
-178.828
  0
LINE
  8
0
 10
-183.134
 20
-178.828
 11
-183.015
 21
-179.044
  0
LINE
  8
0
 10
-183.015
 20
-179.044
 11
-182.92
 21
-179.272
  0
LINE
  8
0
 10
-182.92
 20
-179.272
 11
-182.852
 21
-179.51
  0
LINE
  8
0
 10
-182.852
 20
-179.51
 11
-182.81
 21
-179.753
  0
LINE
  8
0
 10
-182.81
 20
-179.753
 11
-182.797
 21
-180
  0
LINE
  8
0
 10
-182.797
 20
-180
 11
-182.81
 21
-180.247
  0
LINE
  8
0
 10
-182.81
 20
-180.247
 11
-182.852
 21
-180.49
  0
LINE
  8
0
 10
-182.852
 20
-180.49
 11
-182.92
 21
-180.728
  0
LINE
  8
0
 10
-182.92
 20
-180.728
 11
-183.015
 21
-180.956
  0
LINE
  8
0
 10
-183.015
 20
-180.956
 11
-183.134
 21
-181.172
  0
LINE
  8
0
 10
-183.134
 20
-181.172
 11
-183.277
 21
-181.374
  0
LINE
  8
0
 10
-183.277
 20
-181.374
 11
-183.442
 21
-181.558
  0
LINE
  8
0
 10
-183.442
 20
-181.558
 11
-183.626
 21
-181.723
  0
LINE
  8
0
 10
-183.626
 20
-181.723
 11
-183.828
 21
-181.866
  0
LINE
  8
0
 10
-183.828
 20
-181.866
 11
-184.044
 21
-181.985
  0
LINE
  8
0
 10
-184.044
 20
-181.985
 11
-184.272
 21
-182.08
  0
LINE
  8
0
 10
-184.272
 20
-182.08
 11
-184.51
 21
-182.148
  0
LINE
  8
0
 10
-184.51
 20
-182.148
 11
-184.753
 21
-182.19
  0
LINE
  8
0
 10
-184.753
 20
-182.19
 11
-185
 21
-182.203
  0
LINE
  8
0
 10
-185
 20
-182.203
 11
-185.247
 21
-182.19
  0
LINE
  8
0
 10
184.753
 20
-182.19
 11
184.51
 21
-182.148
  0
LINE
  8
0
 10
184.51
 20
-182.148
 11
184.272
 21
-182.08
  0
LINE
  8
0
 10
184.272
 20
-182.08
 11
184.044
 21
-181.985
  0
LINE
  8
0
 10
184.044
 20
-181.985
 11
183.828
 21
-181.866
  0
LINE
  8
0
 10
183.828
 20
-181.866
 11
183.626
 21
-181.723
  0
LINE
  8
0
 10
183.626
 20
-181.723
 11
183.442
 21
-181.558
  0
LINE
  8
0
 10
183.442
 20
-181.558
 11
183.277
 21
-181.374
  0
LINE
  8
0
 10
183.277
 20
-181.374
 11
183.134
 21
-181.172
  0
LINE
  8
0
 10
183.134
 20
-181.172
 11
183.015
 21
-180.956
  0
LINE
  8
0
 10
183.015
 20
-180.956
 11
182.92
 21
-180.728
  0
LINE
  8
0
 10
182.92
 20
-180.728
 11
182.852
 21
-180.49
  0
LINE
  8
0
 10
182.852
 20
-180.49
 11
182.81
 21
-180.247
  0
LINE
  8
0
 10
182.81
 20
-180.247
 11
182.797
 21
-180
  0
LINE
  8
0
 10
182.797
 20
-180
 11
182.81
 21
-179.753
  0
LINE
  8
0
 10
182.81
 20
-179.753
 11
182.852
 21
-179.51
  0
LINE
  8
0
 10
182.852
 20
-179.51
 11
182.92
 21
-179.272
  0
LINE
  8
0
 10
182.92
 20
-179.272
 11
183.015
 21
-179.044
  0
LINE
  8
0
 10
183.015
 20
-179.044
 11
183.134
 21
-178.828
  0
LINE
  8
0
 10
183.134
 20
-178.828
 11
183.277
 21
-178.626
  0
LINE
  8
0
 10
183.277
 20
-178.626
 11
183.442
 21
-178.442
  0
LINE
  8
0
 10
183.442
 20
-178.442
 11
183.626
 21
-178.277
  0
LINE
  8
0
 10
183.626
 20
-178.277
 11
183.828
 21
-178.134
  0
LINE
  8
0
 10
183.828
 20
-178.134
 11
184.044
 21
-178.015
  0
LINE
  8
0
 10
184.044
 20
-178.015
 11
184.272
 21
-177.92
  0
LINE
  8
0
 10
184.272
 20
-177.92
 11
184.51
 21
-177.852
  0
LINE
  8
0
 10
184.51
 20
-177.852
 11
184.753
 21
-177.81
  0
LINE
  8
0
 10
184.753
 20
-177.81
 11
185
 21
-177.797
  0
LINE
  8
0
 10
185
 20
-177.797
 11
185.247
 21
-177.81
  0
LINE
  8
0
 10
185.247
 20
-177.81
 11
185.49
 21
-177.852
  0
LINE
  8
0
 10
185.49
 20
-177.852
 11
185.728
 21
-177.92
  0
LINE
  8
0
 10
185.728
 20
-177.92
 11
185.956
 21
-178.015
  0
LINE
  8
0
 10
185.956
 20
-178.015
 11
186.172
 21
-178.134
  0
LINE
  8
0
 10
186.172
 20
-178.134
 11
186.374
 21
-178.277
  0
LINE
  8
0
 10
186.374
 20
-178.277
 11
186.558
 21
-178.442
  0
LINE
  8
0
 10
186.558
 20
-178.442
 11
186.723
 21
-178.626
  0
LINE
  8
0
 10
186.723
 20
-178.626
 11
186.866
 21
-178.828
  0
LINE
  8
0
 10
186.866
 20
-178.828
 11
186.985
 21
-179.044
  0
LINE
  8
0
 10
186.985
 20
-179.044
 11
187.08
 21
-179.272
  0
LINE
  8
0
 10
187.08
 20
-179.272
 11
187.148
 21
-179.51
  0
LINE
  8
0
 10
187.148
 20
-179.51
 11
187.19
 21
-179.753
  0
LINE
  8
0
 10
187.19
 20
-179.753
 11
187.203
 21
-180
  0
LINE
  8
0
 10
187.203
 20
-180
 11
187.19
 21
-180.247
  0
LINE
  8
0
 10
187.19
 20
-180.247
 11
187.148
 21
-180.49
  0
LINE
  8
0
 10
187.148
 20
-180.49
 11
187.08
 21
-180.728
  0
LINE
  8
0
 10
187.08
 20
-180.728
 11
186.985
 21
-180.956
  0
LINE
  8
0
 10
186.985
 20
-180.956
 11
186.866
 21
-181.172
  0
LINE
  8
0
 10
186.866
 20
-181.172
 11
186.723
 21
-181.374
  0
LINE
  8
0
 10
186.723
 20
-181.374
 11
186.558
 21
-181.558
  0
LINE
  8
0
 10
186.558
 20
-181.558
 11
186.374
 21
-181.723
  0
LINE
  8
0
 10
186.374
 20
-181.723
 11
186.172
 21
-181.866
  0
LINE
  8
0
 10
186.172
 20
-181.866
 11
185.956
 21
-181.985
  0
LINE
  8
0
 10
185.956
 20
-181.985
 11
185.728
 21
-182.08
  0
LINE
  8
0
 10
185.728
 20
-182.08
 11
185.49
 21
-182.148
  0
LINE
  8
0
 10
185.49
 20
-182.148
 11
185.247
 21
-182.19
  0
LINE
  8
0
 10
185.247
 20
-182.19
 11
185
 21
-182.203
  0
LINE
  8
0
 10
185
 20
-182.203
 11
184.753
 21
-182.19
  0
LINE
  8
0
 10
184.738
 20
-192.49
 11
184.48
 21
-192.449
  0
LINE
  8
0
 10
184.48
 20
-192.449
 11
184.226
 21
-192.381
  0
LINE
  8
0
 10
184.226
 20
-192.381
 11
183.982
 21
-192.287
  0
LINE
  8
0
 10
183.982
 20
-192.287
 11
183.748
 21
-192.168
  0
LINE
  8
0
 10
183.748
 20
-192.168
 11
183.529
 21
-192.025
  0
LINE
  8
0
 10
183.529
 20
-192.025
 11
183.325
 21
-191.86
  0
LINE
  8
0
 10
183.325
 20
-191.86
 11
183.14
 21
-191.675
  0
LINE
  8
0
 10
183.14
 20
-191.675
 11
182.975
 21
-191.471
  0
LINE
  8
0
 10
182.975
 20
-191.471
 11
182.832
 21
-191.252
  0
LINE
  8
0
 10
182.832
 20
-191.252
 11
182.713
 21
-191.018
  0
LINE
  8
0
 10
182.713
 20
-191.018
 11
182.619
 21
-190.774
  0
LINE
  8
0
 10
182.619
 20
-190.774
 11
182.551
 21
-190.52
  0
LINE
  8
0
 10
182.551
 20
-190.52
 11
182.51
 21
-190.262
  0
LINE
  8
0
 10
182.51
 20
-190.262
 11
182.497
 21
-190
  0
LINE
  8
0
 10
182.497
 20
-190
 11
182.51
 21
-189.738
  0
LINE
  8
0
 10
182.51
 20
-189.738
 11
182.551
 21
-189.48
  0
LINE
  8
0
 10
182.551
 20
-189.48
 11
182.619
 21
-189.226
  0
LINE
  8
0
 10
182.619
 20
-189.226
 11
182.713
 21
-188.982
  0
LINE
  8
0
 10
182.713
 20
-188.982
 11
182.832
 21
-188.748
  0
LINE
  8
0
 10
182.832
 20
-188.748
 11
182.975
 21
-188.529
  0
LINE
  8
0
 10
182.975
 20
-188.529
 11
183.14
 21
-188.325
  0
LINE
  8
0
 10
183.14
 20
-188.325
 11
183.325
 21
-188.14
  0
LINE
  8
0
 10
183.325
 20
-188.14
 11
183.529
 21
-187.975
  0
LINE
  8
0
 10
183.529
 20
-187.975
 11
183.748
 21
-187.832
  0
LINE
  8
0
 10
183.748
 20
-187.832
 11
183.982
 21
-187.713
  0
LINE
  8
0
 10
183.982
 20
-187.713
 11
184.226
 21
-187.619
  0
LINE
  8
0
 10
184.226
 20
-187.619
 11
184.48
 21
-187.551
  0
LINE
  8
0
 10
184.48
 20
-187.551
 11
184.738
 21
-187.51
  0
LINE
  8
0
 10
184.738
 20
-187.51
 11
185
 21
-187.497
  0
LINE
  8
0
 10
185
 20
-187.497
 11
185.262
 21
-187.51
  0
LINE
  8
0
 10
185.262
 20
-187.51
 11
185.52
 21
-187.551
  0
LINE
  8
0
 10
185.52
 20
-187.551
 11
185.774
 21
-187.619
  0
LINE
  8
0
 10
185.774
 20
-187.619
 11
186.018
 21
-187.713
  0
LINE
  8
0
 10
186.018
 20
-187.713
 11
186.252
 21
-187.832
  0
LINE
  8
0
 10
186.252
 20
-187.832
 11
186.471
 21
-187.975
  0
LINE
  8
0
 10
186.471
 20
-187.975
 11
186.675
 21
-188.14
  0
LINE
  8
0
 10
186.675
 20
-188.14
 11
186.86
 21
-188.325
  0
LINE
  8
0
 10
186.86
 20
-188.325
 11
187.025
 21
-188.529
  0
LINE
  8
0
 10
187.025
 20
-188.529
 11
187.168
 21
-188.748
  0
LINE
  8
0
 10
187.168
 20
-188.748
 11
187.287
 21
-188.982
  0
LINE
  8
0
 10
187.287
 20
-188.982
 11
187.381
 21
-189.226
  0
LINE
  8
0
 10
187.381
 20
-189.226
 11
187.449
 21
-189.48
  0
LINE
  8
0
 10
187.449
 20
-189.48
 11
187.49
 21
-189.738
  0
LINE
  8
0
 10
187.49
 20
-189.738
 11
187.503
 21
-190
  0
LINE
  8
0
 10
187.503
 20
-190
 11
187.49
 21
-190.262
  0
LINE
  8
0
 10
187.49
 20
-190.262
 11
187.449
 21
-190.52
  0
LINE
  8
0
 10
187.449
 20
-190.52
 11
187.381
 21
-190.774
  0
LINE
  8
0
 10
187.381
 20
-190.774
 11
187.287
 21
-191.018
  0
LINE
  8
0
 10
187.287
 20
-191.018
 11
187.168
 21
-191.252
  0
LINE
  8
0
 10
187.168
 20
-191.252
 11
187.025
 21
-191.471
  0
LINE
  8
0
 10
187.025
 20
-191.471
 11
186.86
 21
-191.675
  0
LINE
  8
0
 10
186.86
 20
-191.675
 11
186.675
 21
-191.86
  0
LINE
  8
0
 10
186.675
 20
-191.86
 11
186.471
 21
-192.025
  0
LINE
  8
0
 10
186.471
 20
-192.025
 11
186.252
 21
-192.168
  0
LINE
  8
0
 10
186.252
 20
-192.168
 11
186.018
 21
-192.287
  0
LINE
  8
0
 10
186.018
 20
-192.287
 11
185.774
 21
-192.381
  0
LINE
  8
0
 10
185.774
 20
-192.381
 11
185.52
 21
-192.449
  0
LINE
  8
0
 10
185.52
 20
-192.449
 11
185.262
 21
-192.49
  0
LINE
  8
0
 10
185.262
 20
-192.49
 11
185
 21
-192.503
  0
LINE
  8
0
 10
185
 20
-192.503
 11
184.738
 21
-192.49
  0
LINE
  8
0
 10
-185.262
 20
-192.49
 11
-185.52
 21
-192.449
  0
LINE
  8
0
 10
-185.52
 20
-192.449
 11
-185.774
 21
-192.381
  0
LINE
  8
0
 10
-185.774
 20
-192.381
 11
-186.018
 21
-192.287
  0
LINE
  8
0
 10
-186.018
 20
-192.287
 11
-186.252
 21
-192.168
  0
LINE
  8
0
 10
-186.252
 20
-192.168
 11
-186.471
 21
-192.025
  0
LINE
  8
0
 10
-186.471
 20
-192.025
 11
-186.675
 21
-191.86
  0
LINE
  8
0
 10
-186.675
 20
-191.86
 11
-186.86
 21
-191.675
  0
LINE
  8
0
 10
-186.86
 20
-191.675
 11
-187.025
 21
-191.471
  0
LINE
  8
0
 10
-187.025
 20
-191.471
 11
-187.168
 21
-191.252
  0
LINE
  8
0
 10
-187.168
 20
-191.252
 11
-187.287
 21
-191.018
  0
LINE
  8
0
 10
-187.287
 20
-191.018
 11
-187.381
 21
-190.774
  0
LINE
  8
0
 10
-187.381
 20
-190.774
 11
-187.449
 21
-190.52
  0
LINE
  8
0
 10
-187.449
 20
-190.52
 11
-187.49
 21
-190.262
  0
LINE
  8
0
 10
-187.49
 20
-190.262
 11
-187.503
 21
-190
  0
LINE
  8
0
 10
-187.503
 20
-190
 11
-187.49
 21
-189.738
  0
LINE
  8
0
 10
-187.49
 20
-189.738
 11
-187.449
 21
-189.48
  0
LINE
  8
0
 10
-187.449
 20
-189.48
 11
-187.381
 21
-189.226
  0
LINE
  8
0
 10
-187.381
 20
-189.226
 11
-187.287
 21
-188.982
  0
LINE
  8
0
 10
-187.287
 20
-188.982
 11
-187.168
 21
-188.748
  0
LINE
  8
0
 10
-187.168
 20
-188.748
 11
-187.025
 21
-188.529
  0
LINE
  8
0
 10
-187.025
 20
-188.529
 11
-186.86
 21
-188.325
  0
LINE
  8
0
 10
-186.86
 20
-188.325
 11
-186.675
 21
-188.14
  0
LINE
  8
0
 10
-186.675
 20
-188.14
 11
-186.471
 21
-187.975
  0
LINE
  8
0
 10
-186.471
 20
-187.975
 11
-186.252
 21
-187.832
  0
LINE
  8
0
 10
-186.252
 20
-187.832
 11
-186.018
 21
-187.713
  0
LINE
  8
0
 10
-186.018
 20
-187.713
 11
-185.774
 21
-187.619
  0
LINE
  8
0
 10
-185.774
 20
-187.619
 11
-185.52
 21
-187.551
  0
LINE
  8
0
 10
-185.52
 20
-187.551
 11
-185.262
 21
-187.51
  0
LINE
  8
0
 10
-185.262
 20
-187.51
 11
-185
 21
-187.497
  0
LINE
  8
0
 10
-185
 20
-187.497
 11
-184.738
 21
-187.51
  0
LINE
  8
0
 10
-184.738
 20
-187.51
 11
-184.48
 21
-187.551
  0
LINE
  8
0
 10
-184.48
 20
-187.551
 11
-184.226
 21
-187.619
  0
LINE
  8
0
 10
-184.226
 20
-187.619
 11
-183.982
 21
-187.713
  0
LINE
  8
0
 10
-183.982
 20
-187.713
 11
-183.748
 21
-187.832
  0
LINE
  8
0
 10
-183.748
 20
-187.832
 11
-183.529
 21
-187.975
  0
LINE
  8
0
 10
-183.529
 20
-187.975
 11
-183.325
 21
-188.14
  0
LINE
  8
0
 10
-183.325
 20
-188.14
 11
-183.14
 21
-188.325
  0
LINE
  8
0
 10
-183.14
 20
-188.325
 11
-182.975
 21
-188.529
  0
LINE
  8
0
 10
-182.975
 20
-188.529
 11
-182.832
 21
-188.748
  0
LINE
  8
0
 10
-182.832
 20
-188.748
 11
-182.713
 21
-188.982
  0
LINE
  8
0
 10
-182.713
 20
-188.982
 11
-182.619
 21
-189.226
  0
LINE
  8
0
 10
-182.619
 20
-189.226
 11
-182.551
 21
-189.48
  0
LINE
  8
0
 10
-182.551
 20
-189.48
 11
-182.51
 21
-189.738
  0
LINE
  8
0
 10
-182.51
 20
-189.738
 11
-182.497
 21
-190
  0
LINE
  8
0
 10
-182.497
 20
-190
 11
-182.51
 21
-190.262
  0
LINE
  8
0
 10
-182.51
 20
-190.262
 11
-182.551
 21
-190.52
  0
LINE
  8
0
 10
-182.551
 20
-190.52
 11
-182.619
 21
-190.774
  0
LINE
  8
0
 10
-182.619
 20
-190.774
 11
-182.713
 21
-191.018
  0
LINE
  8
0
 10
-182.713
 20
-191.018
 11
-182.832
 21
-191.252
  0
LINE
  8
0
 10
-182.832
 20
-191.252
 11
-182.975
 21
-191.471
  0
LINE
  8
0
 10
-182.975
 20
-191.471
 11
-183.14
 21
-191.675
  0
LINE
  8
0
 10
-183.14
 20
-191.675
 11
-183.325
 21
-191.86
  0
LINE
  8
0
 10
-183.325
 20
-191.86
 11
-183.529
 21
-192.025
  0
LINE
  8
0
 10
-183.529
 20
-192.025
 11
-183.748
 21
-192.168
  0
LINE
  8
0
 10
-183.748
 20
-192.168
 11
-183.982
 21
-192.287
  0
LINE
  8
0
 10
-183.982
 20
-192.287
 11
-184.226
 21
-192.381
  0
LINE
  8
0
 10
-184.226
 20
-192.381
 11
-184.48
 21
-192.449
  0
LINE
  8
0
 10
-184.48
 20
-192.449
 11
-184.738
 21
-192.49
  0
LINE
  8
0
 10
-184.738
 20
-192.49
 11
-185
 21
-192.503
  0
LINE
  8
0
 10
-185
 20
-192.503
 11
-185.262
 21
-192.49
  0
LINE
  8
0
 10
-125.247
 20
-192.19
 11
-125.49
 21
-192.148
  0
LINE
  8
0
 10
-125.49
 20
-192.148
 11
-125.728
 21
-192.08
  0
LINE
  8
0
 10
-125.728
 20
-192.08
 11
-125.956
 21
-191.985
  0
LINE
  8
0
 10
-125.956
 20
-191.985
 11
-126.172
 21
-191.866
  0
LINE
  8
0
 10
-126.172
 20
-191.866
 11
-126.374
 21
-191.723
  0
LINE
  8
0
 10
-126.374
 20
-191.723
 11
-126.558
 21
-191.558
  0
LINE
  8
0
 10
-126.558
 20
-191.558
 11
-126.723
 21
-191.374
  0
LINE
  8
0
 10
-126.723
 20
-191.374
 11
-126.866
 21
-191.172
  0
LINE
  8
0
 10
-126.866
 20
-191.172
 11
-126.985
 21
-190.956
  0
LINE
  8
0
 10
-126.985
 20
-190.956
 11
-127.08
 21
-190.728
  0
LINE
  8
0
 10
-127.08
 20
-190.728
 11
-127.148
 21
-190.49
  0
LINE
  8
0
 10
-127.148
 20
-190.49
 11
-127.19
 21
-190.247
  0
LINE
  8
0
 10
-127.19
 20
-190.247
 11
-127.203
 21
-190
  0
LINE
  8
0
 10
-127.203
 20
-190
 11
-127.19
 21
-189.753
  0
LINE
  8
0
 10
-127.19
 20
-189.753
 11
-127.148
 21
-189.51
  0
LINE
  8
0
 10
-127.148
 20
-189.51
 11
-127.08
 21
-189.272
  0
LINE
  8
0
 10
-127.08
 20
-189.272
 11
-126.985
 21
-189.044
  0
LINE
  8
0
 10
-126.985
 20
-189.044
 11
-126.866
 21
-188.828
  0
LINE
  8
0
 10
-126.866
 20
-188.828
 11
-126.723
 21
-188.626
  0
LINE
  8
0
 10
-126.723
 20
-188.626
 11
-126.558
 21
-188.442
  0
LINE
  8
0
 10
-126.558
 20
-188.442
 11
-126.374
 21
-188.277
  0
LINE
  8
0
 10
-126.374
 20
-188.277
 11
-126.172
 21
-188.134
  0
LINE
  8
0
 10
-126.172
 20
-188.134
 11
-125.956
 21
-188.015
  0
LINE
  8
0
 10
-125.956
 20
-188.015
 11
-125.728
 21
-187.92
  0
LINE
  8
0
 10
-125.728
 20
-187.92
 11
-125.49
 21
-187.852
  0
LINE
  8
0
 10
-125.49
 20
-187.852
 11
-125.247
 21
-187.81
  0
LINE
  8
0
 10
-125.247
 20
-187.81
 11
-125
 21
-187.797
  0
LINE
  8
0
 10
-125
 20
-187.797
 11
-124.753
 21
-187.81
  0
LINE
  8
0
 10
-124.753
 20
-187.81
 11
-124.51
 21
-187.852
  0
LINE
  8
0
 10
-124.51
 20
-187.852
 11
-124.272
 21
-187.92
  0
LINE
  8
0
 10
-124.272
 20
-187.92
 11
-124.044
 21
-188.015
  0
LINE
  8
0
 10
-124.044
 20
-188.015
 11
-123.828
 21
-188.134
  0
LINE
  8
0
 10
-123.828
 20
-188.134
 11
-123.626
 21
-188.277
  0
LINE
  8
0
 10
-123.626
 20
-188.277
 11
-123.442
 21
-188.442
  0
LINE
  8
0
 10
-123.442
 20
-188.442
 11
-123.277
 21
-188.626
  0
LINE
  8
0
 10
-123.277
 20
-188.626
 11
-123.134
 21
-188.828
  0
LINE
  8
0
 10
-123.134
 20
-188.828
 11
-123.015
 21
-189.044
  0
LINE
  8
0
 10
-123.015
 20
-189.044
 11
-122.92
 21
-189.272
  0
LINE
  8
0
 10
-122.92
 20
-189.272
 11
-122.852
 21
-189.51
  0
LINE
  8
0
 10
-122.852
 20
-189.51
 11
-122.81
 21
-189.753
  0
LINE
  8
0
 10
-122.81
 20
-189.753
 11
-122.797
 21
-190
  0
LINE
  8
0
 10
-122.797
 20
-190
 11
-122.81
 21
-190.247
  0
LINE
  8
0
 10
-122.81
 20
-190.247
 11
-122.852
 21
-190.49
  0
LINE
  8
0
 10
-122.852
 20
-190.49
 11
-122.92
 21
-190.728
  0
LINE
  8
0
 10
-122.92
 20
-190.728
 11
-123.015
 21
-190.956
  0
LINE
  8
0
 10
-123.015
 20
-190.956
 11
-123.134
 21
-191.172
  0
LINE
  8
0
 10
-123.134
 20
-191.172
 11
-123.277
 21
-191.374
  0
LINE
  8
0
 10
-123.277
 20
-191.374
 11
-123.442
 21
-191.558
  0
LINE
  8
0
 10
-123.442
 20
-191.558
 11
-123.626
 21
-191.723
  0
LINE
  8
0
 10
-123.626
 20
-191.723
 11
-123.828
 21
-191.866
  0
LINE
  8
0
 10
-123.828
 20
-191.866
 11
-124.044
 21
-191.985
  0
LINE
  8
0
 10
-124.044
 20
-191.985
 11
-124.272
 21
-192.08
  0
LINE
  8
0
 10
-124.272
 20
-192.08
 11
-124.51
 21
-192.148
  0
LINE
  8
0
 10
-124.51
 20
-192.148
 11
-124.753
 21
-192.19
  0
LINE
  8
0
 10
-124.753
 20
-192.19
 11
-125
 21
-192.203
  0
LINE
  8
0
 10
-125
 20
-192.203
 11
-125.247
 21
-192.19
  0
LINE
  8
0
 10
-0.246719
 20
-192.19
 11
-0.490326
 21
-192.148
  0
LINE
  8
0
 10
-0.490326
 20
-192.148
 11
-0.727768
 21
-192.08
  0
LINE
  8
0
 10
-0.727768
 20
-192.08
 11
-0.956055
 21
-191.985
  0
LINE
  8
0
 10
-0.956055
 20
-191.985
 11
-1.17232
 21
-191.866
  0
LINE
  8
0
 10
-1.17232
 20
-191.866
 11
-1.37384
 21
-191.723
  0
LINE
  8
0
 10
-1.37384
 20
-191.723
 11
-1.55809
 21
-191.558
  0
LINE
  8
0
 10
-1.55809
 20
-191.558
 11
-1.72275
 21
-191.374
  0
LINE
  8
0
 10
-1.72275
 20
-191.374
 11
-1.86574
 21
-191.172
  0
LINE
  8
0
 10
-1.86574
 20
-191.172
 11
-1.98526
 21
-190.956
  0
LINE
  8
0
 10
-1.98526
 20
-190.956
 11
-2.07982
 21
-190.728
  0
LINE
  8
0
 10
-2.07982
 20
-190.728
 11
-2.14822
 21
-190.49
  0
LINE
  8
0
 10
-2.14822
 20
-190.49
 11
-2.18962
 21
-190.247
  0
LINE
  8
0
 10
-2.18962
 20
-190.247
 11
-2.20348
 21
-190
  0
LINE
  8
0
 10
-2.20348
 20
-190
 11
-2.18962
 21
-189.753
  0
LINE
  8
0
 10
-2.18962
 20
-189.753
 11
-2.14822
 21
-189.51
  0
LINE
  8
0
 10
-2.14822
 20
-189.51
 11
-2.07982
 21
-189.272
  0
LINE
  8
0
 10
-2.07982
 20
-189.272
 11
-1.98526
 21
-189.044
  0
LINE
  8
0
 10
-1.98526
 20
-189.044
 11
-1.86574
 21
-188.828
  0
LINE
  8
0
 10
-1.86574
 20
-188.828
 11
-1.72275
 21
-188.626
  0
LINE
  8
0
 10
-1.72275
 20
-188.626
 11
-1.55809
 21
-188.442
  0
LINE
  8
0
 10
-1.55809
 20
-188.442
 11
-1.37384
 21
-188.277
  0
LINE
  8
0
 10
-1.37384
 20
-188.277
 11
-1.17232
 21
-188.134
  0
LINE
  8
0
 10
-1.17232
 20
-188.134
 11
-0.956055
 21
-188.015
  0
LINE
  8
0
 10
-0.956055
 20
-188.015
 11
-0.727768
 21
-187.92
  0
LINE
  8
0
 10
-0.727768
 20
-187.92
 11
-0.490326
 21
-187.852
  0
LINE
  8
0
 10
-0.490326
 20
-187.852
 11
-0.246719
 21
-187.81
  0
LINE
  8
0
 10
-0.246719
 20
-187.81
 11
0
 21
-187.797
  0
LINE
  8
0
 10
0
 20
-187.797
 11
0.246704
 21
-187.81
  0
LINE
  8
0
 10
0.246704
 20
-187.81
 11
0.490311
 21
-187.852
  0
LINE
  8
0
 10
0.490311
 20
-187.852
 11
0.727753
 21
-187.92
  0
LINE
  8
0
 10
0.727753
 20
-187.92
 11
0.956039
 21
-188.015
  0
LINE
  8
0
 10
0.956039
 20
-188.015
 11
1.1723
 21
-188.134
  0
LINE
  8
0
 10
1.1723
 20
-188.134
 11
1.37383
 21
-188.277
  0
LINE
  8
0
 10
1.37383
 20
-188.277
 11
1.55807
 21
-188.442
  0
LINE
  8
0
 10
1.55807
 20
-188.442
 11
1.72273
 21
-188.626
  0
LINE
  8
0
 10
1.72273
 20
-188.626
 11
1.86572
 21
-188.828
  0
LINE
  8
0
 10
1.86572
 20
-188.828
 11
1.98524
 21
-189.044
  0
LINE
  8
0
 10
1.98524
 20
-189.044
 11
2.0798
 21
-189.272
  0
LINE
  8
0
 10
2.0798
 20
-189.272
 11
2.14821
 21
-189.51
  0
LINE
  8
0
 10
2.14821
 20
-189.51
 11
2.18961
 21
-189.753
  0
LINE
  8
0
 10
2.18961
 20
-189.753
 11
2.20346
 21
-190
  0
LINE
  8
0
 10
2.20346
 20
-190
 11
2.18961
 21
-190.247
  0
LINE
  8
0
 10
2.18961
 20
-190.247
 11
2.14821
 21
-190.49
  0
LINE
  8
0
 10
2.14821
 20
-190.49
 11
2.0798
 21
-190.728
  0
LINE
  8
0
 10
2.0798
 20
-190.728
 11
1.98524
 21
-190.956
  0
LINE
  8
0
 10
1.98524
 20
-190.956
 11
1.86572
 21
-191.172
  0
LINE
  8
0
 10
1.86572
 20
-191.172
 11
1.72273
 21
-191.374
  0
LINE
  8
0
 10
1.72273
 20
-191.374
 11
1.55807
 21
-191.558
  0
LINE
  8
0
 10
1.55807
 20
-191.558
 11
1.37383
 21
-191.723
  0
LINE
  8
0
 10
1.37383
 20
-191.723
 11
1.1723
 21
-191.866
  0
LINE
  8
0
 10
1.1723
 20
-191.866
 11
0.956039
 21
-191.985
  0
LINE
  8
0
 10
0.956039
 20
-191.985
 11
0.727753
 21
-192.08
  0
LINE
  8
0
 10
0.727753
 20
-192.08
 11
0.490311
 21
-192.148
  0
LINE
  8
0
 10
0.490311
 20
-192.148
 11
0.246704
 21
-192.19
  0
LINE
  8
0
 10
0.246704
 20
-192.19
 11
0
 21
-192.203
  0
LINE
  8
0
 10
0
 20
-192.203
 11
-0.246719
 21
-192.19
  0
LINE
  8
0
 10
124.753
 20
-192.19
 11
124.51
 21
-192.148
  0
LINE
  8
0
 10
124.51
 20
-192.148
 11
124.272
 21
-192.08
  0
LINE
  8
0
 10
124.272
 20
-192.08
 11
124.044
 21
-191.985
  0
LINE
  8
0
 10
124.044
 20
-191.985
 11
123.828
 21
-191.866
  0
LINE
  8
0
 10
123.828
 20
-191.866
 11
123.626
 21
-191.723
  0
LINE
  8
0
 10
123.626
 20
-191.723
 11
123.442
 21
-191.558
  0
LINE
  8
0
 10
123.442
 20
-191.558
 11
123.277
 21
-191.374
  0
LINE
  8
0
 10
123.277
 20
-191.374
 11
123.134
 21
-191.172
  0
LINE
  8
0
 10
123.134
 20
-191.172
 11
123.015
 21
-190.956
  0
LINE
  8
0
 10
123.015
 20
-190.956
 11
122.92
 21
-190.728
  0
LINE
  8
0
 10
122.92
 20
-190.728
 11
122.852
 21
-190.49
  0
LINE
  8
0
 10
122.852
 20
-190.49
 11
122.81
 21
-190.247
  0
LINE
  8
0
 10
122.81
 20
-190.247
 11
122.797
 21
-190
  0
LINE
  8
0
 10
122.797
 20
-190
 11
122.81
 21
-189.753
  0
LINE
  8
0
 10
122.81
 20
-189.753
 11
122.852
 21
-189.51
  0
LINE
  8
0
 10
122.852
 20
-189.51
 11
122.92
 21
-189.272
  0
LINE
  8
0
 10
122.92
 20
-189.272
 11
123.015
 21
-189.044
  0
LINE
  8
0
 10
123.015
 20
-189.044
 11
123.134
 21
-188.828
  0
LINE
  8
0
 10
123.134
 20
-188.828
 11
123.277
 21
-188.626
  0
LINE
  8
0
 10
123.277
 20
-188.626
 11
123.442
 21
-188.442
  0
LINE
  8
0
 10
123.442
 20
-188.442
 11
123.626
 21
-188.277
  0
LINE
  8
0
 10
123.626
 20
-188.277
 11
123.828
 21
-188.134
  0
LINE
  8
0
 10
123.828
 20
-188.134
 11
124.044
 21
-188.015
  0
LINE
  8
0
 10
124.044
 20
-188.015
 11
124.272
 21
-187.92
  0
LINE
  8
0
 10
124.272
 20
-187.92
 11
124.51
 21
-187.852
  0
LINE
  8
0
 10
124.51
 20
-187.852
 11
124.753
 21
-187.81
  0
LINE
  8
0
 10
124.753
 20
-187.81
 11
125
 21
-187.797
  0
LINE
  8
0
 10
125
 20
-187.797
 11
125.247
 21
-187.81
  0
LINE
  8
0
 10
125.247
 20
-187.81
 11
125.49
 21
-187.852
  0
LINE
  8
0
 10
125.49
 20
-187.852
 11
125.728
 21
-187.92
  0
LINE
  8
0
 10
125.728
 20
-187.92
 11
125.956
 21
-188.015
  0
LINE
  8
0
 10
125.956
 20
-188.015
 11
126.172
 21
-188.134
  0
LINE
  8
0
 10
126.172
 20
-188.134
 11
126.374
 21
-188.277
  0
LINE
  8
0
 10
126.374
 20
-188.277
 11
126.558
 21
-188.442
  0
LINE
  8
0
 10
126.558
 20
-188.442
 11
126.723
 21
-188.626
  0
LINE
  8
0
 10
126.723
 20
-188.626
 11
126.866
 21
-188.828
  0
LINE
  8
0
 10
126.866
 20
-188.828
 11
126.985
 21
-189.044
  0
LINE
  8
0
 10
126.985
 20
-189.044
 11
127.08
 21
-189.272
  0
LINE
  8
0
 10
127.08
 20
-189.272
 11
127.148
 21
-189.51
  0
LINE
  8
0
 10
127.148
 20
-189.51
 11
127.19
 21
-189.753
  0
LINE
  8
0
 10
127.19
 20
-189.753
 11
127.203
 21
-190
  0
LINE
  8
0
 10
127.203
 20
-190
 11
127.19
 21
-190.247
  0
LINE
  8
0
 10
127.19
 20
-190.247
 11
127.148
 21
-190.49
  0
LINE
  8
0
 10
127.148
 20
-190.49
 11
127.08
 21
-190.728
  0
LINE
  8
0
 10
127.08
 20
-190.728
 11
126.985
 21
-190.956
  0
LINE
  8
0
 10
126.985
 20
-190.956
 11
126.866
 21
-191.172
  0
LINE
  8
0
 10
126.866
 20
-191.172
 11
126.723
 21
-191.374
  0
LINE
  8
0
 10
126.723
 20
-191.374
 11
126.558
 21
-191.558
  0
LINE
  8
0
 10
126.558
 20
-191.558
 11
126.374
 21
-191.723
  0
LINE
  8
0
 10
126.374
 20
-191.723
 11
126.172
 21
-191.866
  0
LINE
  8
0
 10
126.172
 20
-191.866
 11
125.956
 21
-191.985
  0
LINE
  8
0
 10
125.956
 20
-191.985
 11
125.728
 21
-192.08
  0
LINE
  8
0
 10
125.728
 20
-192.08
 11
125.49
 21
-192.148
  0
LINE
  8
0
 10
125.49
 20
-192.148
 11
125.247
 21
-192.19
  0
LINE
  8
0
 10
125.247
 20
-192.19
 11
125
 21
-192.203
  0
LINE
  8
0
 10
125
 20
-192.203
 11
124.753
 21
-192.19
  0
ENDSEC
  0
SECTION
  2
OBJECTS
  0
DICTIONARY
  0
ENDSEC
  0
EOF
