  0
SECTION
  2
BLOCKS
  0
ENDSEC
  0
SECTION
  2
ENTITIES
  0
LINE
  8
0
 10
194.223
 20
-199.975
 11
194.434
 21
-199.901
  0
LINE
  8
0
 10
194.434
 20
-199.901
 11
194.623
 21
-199.782
  0
LINE
  8
0
 10
194.623
 20
-199.782
 11
194.782
 21
-199.623
  0
LINE
  8
0
 10
194.782
 20
-199.623
 11
194.901
 21
-199.434
  0
LINE
  8
0
 10
194.901
 20
-199.434
 11
194.975
 21
-199.223
  0
LINE
  8
0
 10
194.975
 20
-199.223
 11
195
 21
-199
  0
LINE
  8
0
 10
195
 20
-199
 11
195
 21
199
  0
LINE
  8
0
 10
195
 20
199
 11
194.975
 21
199.223
  0
LINE
  8
0
 10
194.975
 20
199.223
 11
194.901
 21
199.434
  0
LINE
  8
0
 10
194.901
 20
199.434
 11
194.782
 21
199.623
  0
LINE
  8
0
 10
194.782
 20
199.623
 11
194.623
 21
199.782
  0
LINE
  8
0
 10
194.623
 20
199.782
 11
194.434
 21
199.901
  0
LINE
  8
0
 10
194.434
 20
199.901
 11
194.223
 21
199.975
  0
LINE
  8
0
 10
194.223
 20
199.975
 11
194
 21
200
  0
LINE
  8
0
 10
194
 20
200
 11
-194
 21
200
  0
LINE
  8
0
 10
-194
 20
200
 11
-194.223
 21
199.975
  0
LINE
  8
0
 10
-194.223
 20
199.975
 11
-194.434
 21
199.901
  0
LINE
  8
0
 10
-194.434
 20
199.901
 11
-194.623
 21
199.782
  0
LINE
  8
0
 10
-194.623
 20
199.782
 11
-194.782
 21
199.623
  0
LINE
  8
0
 10
-194.782
 20
199.623
 11
-194.901
 21
199.434
  0
LINE
  8
0
 10
-194.901
 20
199.434
 11
-194.975
 21
199.223
  0
LINE
  8
0
 10
-194.975
 20
199.223
 11
-195
 21
199
  0
LINE
  8
0
 10
-195
 20
199
 11
-195
 21
-199
  0
LINE
  8
0
 10
-195
 20
-199
 11
-194.975
 21
-199.223
  0
LINE
  8
0
 10
-194.975
 20
-199.223
 11
-194.901
 21
-199.434
  0
LINE
  8
0
 10
-194.901
 20
-199.434
 11
-194.782
 21
-199.623
  0
LINE
  8
0
 10
-194.782
 20
-199.623
 11
-194.623
 21
-199.782
  0
LINE
  8
0
 10
-194.623
 20
-199.782
 11
-194.434
 21
-199.901
  0
LINE
  8
0
 10
-194.434
 20
-199.901
 11
-194.223
 21
-199.975
  0
LINE
  8
0
 10
-194.223
 20
-199.975
 11
-194
 21
-200
  0
LINE
  8
0
 10
-194
 20
-200
 11
194
 21
-200
  0
LINE
  8
0
 10
194
 20
-200
 11
194.223
 21
-199.975
  0
LINE
  8
0
 10
184.738
 20
187.51
 11
184.48
 21
187.551
  0
LINE
  8
0
 10
184.48
 20
187.551
 11
184.226
 21
187.619
  0
LINE
  8
0
 10
184.226
 20
187.619
 11
183.982
 21
187.713
  0
LINE
  8
0
 10
183.982
 20
187.713
 11
183.748
 21
187.832
  0
LINE
  8
0
 10
183.748
 20
187.832
 11
183.529
 21
187.975
  0
LINE
  8
0
 10
183.529
 20
187.975
 11
183.325
 21
188.14
  0
LINE
  8
0
 10
183.325
 20
188.14
 11
183.14
 21
188.325
  0
LINE
  8
0
 10
183.14
 20
188.325
 11
182.975
 21
188.529
  0
LINE
  8
0
 10
182.975
 20
188.529
 11
182.832
 21
188.748
  0
LINE
  8
0
 10
182.832
 20
188.748
 11
182.713
 21
188.982
  0
LINE
  8
0
 10
182.713
 20
188.982
 11
182.619
 21
189.226
  0
LINE
  8
0
 10
182.619
 20
189.226
 11
182.551
 21
189.48
  0
LINE
  8
0
 10
182.551
 20
189.48
 11
182.51
 21
189.738
  0
LINE
  8
0
 10
182.51
 20
189.738
 11
182.497
 21
190
  0
LINE
  8
0
 10
182.497
 20
190
 11
182.51
 21
190.262
  0
LINE
  8
0
 10
182.51
 20
190.262
 11
182.551
 21
190.52
  0
LINE
  8
0
 10
182.551
 20
190.52
 11
182.619
 21
190.774
  0
LINE
  8
0
 10
182.619
 20
190.774
 11
182.713
 21
191.018
  0
LINE
  8
0
 10
182.713
 20
191.018
 11
182.832
 21
191.252
  0
LINE
  8
0
 10
182.832
 20
191.252
 11
182.975
 21
191.471
  0
LINE
  8
0
 10
182.975
 20
191.471
 11
183.14
 21
191.675
  0
LINE
  8
0
 10
183.14
 20
191.675
 11
183.325
 21
191.86
  0
LINE
  8
0
 10
183.325
 20
191.86
 11
183.529
 21
192.025
  0
LINE
  8
0
 10
183.529
 20
192.025
 11
183.748
 21
192.168
  0
LINE
  8
0
 10
183.748
 20
192.168
 11
183.982
 21
192.287
  0
LINE
  8
0
 10
183.982
 20
192.287
 11
184.226
 21
192.381
  0
LINE
  8
0
 10
184.226
 20
192.381
 11
184.48
 21
192.449
  0
LINE
  8
0
 10
184.48
 20
192.449
 11
184.738
 21
192.49
  0
LINE
  8
0
 10
184.738
 20
192.49
 11
185
 21
192.503
  0
LINE
  8
0
 10
185
 20
192.503
 11
185.262
 21
192.49
  0
LINE
  8
0
 10
185.262
 20
192.49
 11
185.52
 21
192.449
  0
LINE
  8
0
 10
185.52
 20
192.449
 11
185.774
 21
192.381
  0
LINE
  8
0
 10
185.774
 20
192.381
 11
186.018
 21
192.287
  0
LINE
  8
0
 10
186.018
 20
192.287
 11
186.252
 21
192.168
  0
LINE
  8
0
 10
186.252
 20
192.168
 11
186.471
 21
192.025
  0
LINE
  8
0
 10
186.471
 20
192.025
 11
186.675
 21
191.86
  0
LINE
  8
0
 10
186.675
 20
191.86
 11
186.86
 21
191.675
  0
LINE
  8
0
 10
186.86
 20
191.675
 11
187.025
 21
191.471
  0
LINE
  8
0
 10
187.025
 20
191.471
 11
187.168
 21
191.252
  0
LINE
  8
0
 10
187.168
 20
191.252
 11
187.287
 21
191.018
  0
LINE
  8
0
 10
187.287
 20
191.018
 11
187.381
 21
190.774
  0
LINE
  8
0
 10
187.381
 20
190.774
 11
187.449
 21
190.52
  0
LINE
  8
0
 10
187.449
 20
190.52
 11
187.49
 21
190.262
  0
LINE
  8
0
 10
187.49
 20
190.262
 11
187.503
 21
190
  0
LINE
  8
0
 10
187.503
 20
190
 11
187.49
 21
189.738
  0
LINE
  8
0
 10
187.49
 20
189.738
 11
187.449
 21
189.48
  0
LINE
  8
0
 10
187.449
 20
189.48
 11
187.381
 21
189.226
  0
LINE
  8
0
 10
187.381
 20
189.226
 11
187.287
 21
188.982
  0
LINE
  8
0
 10
187.287
 20
188.982
 11
187.168
 21
188.748
  0
LINE
  8
0
 10
187.168
 20
188.748
 11
187.025
 21
188.529
  0
LINE
  8
0
 10
187.025
 20
188.529
 11
186.86
 21
188.325
  0
LINE
  8
0
 10
186.86
 20
188.325
 11
186.675
 21
188.14
  0
LINE
  8
0
 10
186.675
 20
188.14
 11
186.471
 21
187.975
  0
LINE
  8
0
 10
186.471
 20
187.975
 11
186.252
 21
187.832
  0
LINE
  8
0
 10
186.252
 20
187.832
 11
186.018
 21
187.713
  0
LINE
  8
0
 10
186.018
 20
187.713
 11
185.774
 21
187.619
  0
LINE
  8
0
 10
185.774
 20
187.619
 11
185.52
 21
187.551
  0
LINE
  8
0
 10
185.52
 20
187.551
 11
185.262
 21
187.51
  0
LINE
  8
0
 10
185.262
 20
187.51
 11
185
 21
187.497
  0
LINE
  8
0
 10
185
 20
187.497
 11
184.738
 21
187.51
  0
LINE
  8
0
 10
-165.262
 20
187.51
 11
-165.52
 21
187.551
  0
LINE
  8
0
 10
-165.52
 20
187.551
 11
-165.774
 21
187.619
  0
LINE
  8
0
 10
-165.774
 20
187.619
 11
-166.018
 21
187.713
  0
LINE
  8
0
 10
-166.018
 20
187.713
 11
-166.252
 21
187.832
  0
LINE
  8
0
 10
-166.252
 20
187.832
 11
-166.471
 21
187.975
  0
LINE
  8
0
 10
-166.471
 20
187.975
 11
-166.675
 21
188.14
  0
LINE
  8
0
 10
-166.675
 20
188.14
 11
-166.86
 21
188.325
  0
LINE
  8
0
 10
-166.86
 20
188.325
 11
-167.025
 21
188.529
  0
LINE
  8
0
 10
-167.025
 20
188.529
 11
-167.168
 21
188.748
  0
LINE
  8
0
 10
-167.168
 20
188.748
 11
-167.287
 21
188.982
  0
LINE
  8
0
 10
-167.287
 20
188.982
 11
-167.381
 21
189.226
  0
LINE
  8
0
 10
-167.381
 20
189.226
 11
-167.449
 21
189.48
  0
LINE
  8
0
 10
-167.449
 20
189.48
 11
-167.49
 21
189.738
  0
LINE
  8
0
 10
-167.49
 20
189.738
 11
-167.503
 21
190
  0
LINE
  8
0
 10
-167.503
 20
190
 11
-167.49
 21
190.262
  0
LINE
  8
0
 10
-167.49
 20
190.262
 11
-167.449
 21
190.52
  0
LINE
  8
0
 10
-167.449
 20
190.52
 11
-167.381
 21
190.774
  0
LINE
  8
0
 10
-167.381
 20
190.774
 11
-167.287
 21
191.018
  0
LINE
  8
0
 10
-167.287
 20
191.018
 11
-167.168
 21
191.252
  0
LINE
  8
0
 10
-167.168
 20
191.252
 11
-167.025
 21
191.471
  0
LINE
  8
0
 10
-167.025
 20
191.471
 11
-166.86
 21
191.675
  0
LINE
  8
0
 10
-166.86
 20
191.675
 11
-166.675
 21
191.86
  0
LINE
  8
0
 10
-166.675
 20
191.86
 11
-166.471
 21
192.025
  0
LINE
  8
0
 10
-166.471
 20
192.025
 11
-166.252
 21
192.168
  0
LINE
  8
0
 10
-166.252
 20
192.168
 11
-166.018
 21
192.287
  0
LINE
  8
0
 10
-166.018
 20
192.287
 11
-165.774
 21
192.381
  0
LINE
  8
0
 10
-165.774
 20
192.381
 11
-165.52
 21
192.449
  0
LINE
  8
0
 10
-165.52
 20
192.449
 11
-165.262
 21
192.49
  0
LINE
  8
0
 10
-165.262
 20
192.49
 11
-165
 21
192.503
  0
LINE
  8
0
 10
-165
 20
192.503
 11
-164.738
 21
192.49
  0
LINE
  8
0
 10
-164.738
 20
192.49
 11
-164.48
 21
192.449
  0
LINE
  8
0
 10
-164.48
 20
192.449
 11
-164.226
 21
192.381
  0
LINE
  8
0
 10
-164.226
 20
192.381
 11
-163.982
 21
192.287
  0
LINE
  8
0
 10
-163.982
 20
192.287
 11
-163.748
 21
192.168
  0
LINE
  8
0
 10
-163.748
 20
192.168
 11
-163.529
 21
192.025
  0
LINE
  8
0
 10
-163.529
 20
192.025
 11
-163.325
 21
191.86
  0
LINE
  8
0
 10
-163.325
 20
191.86
 11
-163.14
 21
191.675
  0
LINE
  8
0
 10
-163.14
 20
191.675
 11
-162.975
 21
191.471
  0
LINE
  8
0
 10
-162.975
 20
191.471
 11
-162.832
 21
191.252
  0
LINE
  8
0
 10
-162.832
 20
191.252
 11
-162.713
 21
191.018
  0
LINE
  8
0
 10
-162.713
 20
191.018
 11
-162.619
 21
190.774
  0
LINE
  8
0
 10
-162.619
 20
190.774
 11
-162.551
 21
190.52
  0
LINE
  8
0
 10
-162.551
 20
190.52
 11
-162.51
 21
190.262
  0
LINE
  8
0
 10
-162.51
 20
190.262
 11
-162.497
 21
190
  0
LINE
  8
0
 10
-162.497
 20
190
 11
-162.51
 21
189.738
  0
LINE
  8
0
 10
-162.51
 20
189.738
 11
-162.551
 21
189.48
  0
LINE
  8
0
 10
-162.551
 20
189.48
 11
-162.619
 21
189.226
  0
LINE
  8
0
 10
-162.619
 20
189.226
 11
-162.713
 21
188.982
  0
LINE
  8
0
 10
-162.713
 20
188.982
 11
-162.832
 21
188.748
  0
LINE
  8
0
 10
-162.832
 20
188.748
 11
-162.975
 21
188.529
  0
LINE
  8
0
 10
-162.975
 20
188.529
 11
-163.14
 21
188.325
  0
LINE
  8
0
 10
-163.14
 20
188.325
 11
-163.325
 21
188.14
  0
LINE
  8
0
 10
-163.325
 20
188.14
 11
-163.529
 21
187.975
  0
LINE
  8
0
 10
-163.529
 20
187.975
 11
-163.748
 21
187.832
  0
LINE
  8
0
 10
-163.748
 20
187.832
 11
-163.982
 21
187.713
  0
LINE
  8
0
 10
-163.982
 20
187.713
 11
-164.226
 21
187.619
  0
LINE
  8
0
 10
-164.226
 20
187.619
 11
-164.48
 21
187.551
  0
LINE
  8
0
 10
-164.48
 20
187.551
 11
-164.738
 21
187.51
  0
LINE
  8
0
 10
-164.738
 20
187.51
 11
-165
 21
187.497
  0
LINE
  8
0
 10
-165
 20
187.497
 11
-165.262
 21
187.51
  0
LINE
  8
0
 10
-145.262
 20
187.51
 11
-145.52
 21
187.551
  0
LINE
  8
0
 10
-145.52
 20
187.551
 11
-145.774
 21
187.619
  0
LINE
  8
0
 10
-145.774
 20
187.619
 11
-146.018
 21
187.713
  0
LINE
  8
0
 10
-146.018
 20
187.713
 11
-146.252
 21
187.832
  0
LINE
  8
0
 10
-146.252
 20
187.832
 11
-146.471
 21
187.975
  0
LINE
  8
0
 10
-146.471
 20
187.975
 11
-146.675
 21
188.14
  0
LINE
  8
0
 10
-146.675
 20
188.14
 11
-146.86
 21
188.325
  0
LINE
  8
0
 10
-146.86
 20
188.325
 11
-147.025
 21
188.529
  0
LINE
  8
0
 10
-147.025
 20
188.529
 11
-147.168
 21
188.748
  0
LINE
  8
0
 10
-147.168
 20
188.748
 11
-147.287
 21
188.982
  0
LINE
  8
0
 10
-147.287
 20
188.982
 11
-147.381
 21
189.226
  0
LINE
  8
0
 10
-147.381
 20
189.226
 11
-147.449
 21
189.48
  0
LINE
  8
0
 10
-147.449
 20
189.48
 11
-147.49
 21
189.738
  0
LINE
  8
0
 10
-147.49
 20
189.738
 11
-147.503
 21
190
  0
LINE
  8
0
 10
-147.503
 20
190
 11
-147.49
 21
190.262
  0
LINE
  8
0
 10
-147.49
 20
190.262
 11
-147.449
 21
190.52
  0
LINE
  8
0
 10
-147.449
 20
190.52
 11
-147.381
 21
190.774
  0
LINE
  8
0
 10
-147.381
 20
190.774
 11
-147.287
 21
191.018
  0
LINE
  8
0
 10
-147.287
 20
191.018
 11
-147.168
 21
191.252
  0
LINE
  8
0
 10
-147.168
 20
191.252
 11
-147.025
 21
191.471
  0
LINE
  8
0
 10
-147.025
 20
191.471
 11
-146.86
 21
191.675
  0
LINE
  8
0
 10
-146.86
 20
191.675
 11
-146.675
 21
191.86
  0
LINE
  8
0
 10
-146.675
 20
191.86
 11
-146.471
 21
192.025
  0
LINE
  8
0
 10
-146.471
 20
192.025
 11
-146.252
 21
192.168
  0
LINE
  8
0
 10
-146.252
 20
192.168
 11
-146.018
 21
192.287
  0
LINE
  8
0
 10
-146.018
 20
192.287
 11
-145.774
 21
192.381
  0
LINE
  8
0
 10
-145.774
 20
192.381
 11
-145.52
 21
192.449
  0
LINE
  8
0
 10
-145.52
 20
192.449
 11
-145.262
 21
192.49
  0
LINE
  8
0
 10
-145.262
 20
192.49
 11
-145
 21
192.503
  0
LINE
  8
0
 10
-145
 20
192.503
 11
-144.738
 21
192.49
  0
LINE
  8
0
 10
-144.738
 20
192.49
 11
-144.48
 21
192.449
  0
LINE
  8
0
 10
-144.48
 20
192.449
 11
-144.226
 21
192.381
  0
LINE
  8
0
 10
-144.226
 20
192.381
 11
-143.982
 21
192.287
  0
LINE
  8
0
 10
-143.982
 20
192.287
 11
-143.748
 21
192.168
  0
LINE
  8
0
 10
-143.748
 20
192.168
 11
-143.529
 21
192.025
  0
LINE
  8
0
 10
-143.529
 20
192.025
 11
-143.325
 21
191.86
  0
LINE
  8
0
 10
-143.325
 20
191.86
 11
-143.14
 21
191.675
  0
LINE
  8
0
 10
-143.14
 20
191.675
 11
-142.975
 21
191.471
  0
LINE
  8
0
 10
-142.975
 20
191.471
 11
-142.832
 21
191.252
  0
LINE
  8
0
 10
-142.832
 20
191.252
 11
-142.713
 21
191.018
  0
LINE
  8
0
 10
-142.713
 20
191.018
 11
-142.619
 21
190.774
  0
LINE
  8
0
 10
-142.619
 20
190.774
 11
-142.551
 21
190.52
  0
LINE
  8
0
 10
-142.551
 20
190.52
 11
-142.51
 21
190.262
  0
LINE
  8
0
 10
-142.51
 20
190.262
 11
-142.497
 21
190
  0
LINE
  8
0
 10
-142.497
 20
190
 11
-142.51
 21
189.738
  0
LINE
  8
0
 10
-142.51
 20
189.738
 11
-142.551
 21
189.48
  0
LINE
  8
0
 10
-142.551
 20
189.48
 11
-142.619
 21
189.226
  0
LINE
  8
0
 10
-142.619
 20
189.226
 11
-142.713
 21
188.982
  0
LINE
  8
0
 10
-142.713
 20
188.982
 11
-142.832
 21
188.748
  0
LINE
  8
0
 10
-142.832
 20
188.748
 11
-142.975
 21
188.529
  0
LINE
  8
0
 10
-142.975
 20
188.529
 11
-143.14
 21
188.325
  0
LINE
  8
0
 10
-143.14
 20
188.325
 11
-143.325
 21
188.14
  0
LINE
  8
0
 10
-143.325
 20
188.14
 11
-143.529
 21
187.975
  0
LINE
  8
0
 10
-143.529
 20
187.975
 11
-143.748
 21
187.832
  0
LINE
  8
0
 10
-143.748
 20
187.832
 11
-143.982
 21
187.713
  0
LINE
  8
0
 10
-143.982
 20
187.713
 11
-144.226
 21
187.619
  0
LINE
  8
0
 10
-144.226
 20
187.619
 11
-144.48
 21
187.551
  0
LINE
  8
0
 10
-144.48
 20
187.551
 11
-144.738
 21
187.51
  0
LINE
  8
0
 10
-144.738
 20
187.51
 11
-145
 21
187.497
  0
LINE
  8
0
 10
-145
 20
187.497
 11
-145.262
 21
187.51
  0
LINE
  8
0
 10
164.738
 20
187.51
 11
164.48
 21
187.551
  0
LINE
  8
0
 10
164.48
 20
187.551
 11
164.226
 21
187.619
  0
LINE
  8
0
 10
164.226
 20
187.619
 11
163.982
 21
187.713
  0
LINE
  8
0
 10
163.982
 20
187.713
 11
163.748
 21
187.832
  0
LINE
  8
0
 10
163.748
 20
187.832
 11
163.529
 21
187.975
  0
LINE
  8
0
 10
163.529
 20
187.975
 11
163.325
 21
188.14
  0
LINE
  8
0
 10
163.325
 20
188.14
 11
163.14
 21
188.325
  0
LINE
  8
0
 10
163.14
 20
188.325
 11
162.975
 21
188.529
  0
LINE
  8
0
 10
162.975
 20
188.529
 11
162.832
 21
188.748
  0
LINE
  8
0
 10
162.832
 20
188.748
 11
162.713
 21
188.982
  0
LINE
  8
0
 10
162.713
 20
188.982
 11
162.619
 21
189.226
  0
LINE
  8
0
 10
162.619
 20
189.226
 11
162.551
 21
189.48
  0
LINE
  8
0
 10
162.551
 20
189.48
 11
162.51
 21
189.738
  0
LINE
  8
0
 10
162.51
 20
189.738
 11
162.497
 21
190
  0
LINE
  8
0
 10
162.497
 20
190
 11
162.51
 21
190.262
  0
LINE
  8
0
 10
162.51
 20
190.262
 11
162.551
 21
190.52
  0
LINE
  8
0
 10
162.551
 20
190.52
 11
162.619
 21
190.774
  0
LINE
  8
0
 10
162.619
 20
190.774
 11
162.713
 21
191.018
  0
LINE
  8
0
 10
162.713
 20
191.018
 11
162.832
 21
191.252
  0
LINE
  8
0
 10
162.832
 20
191.252
 11
162.975
 21
191.471
  0
LINE
  8
0
 10
162.975
 20
191.471
 11
163.14
 21
191.675
  0
LINE
  8
0
 10
163.14
 20
191.675
 11
163.325
 21
191.86
  0
LINE
  8
0
 10
163.325
 20
191.86
 11
163.529
 21
192.025
  0
LINE
  8
0
 10
163.529
 20
192.025
 11
163.748
 21
192.168
  0
LINE
  8
0
 10
163.748
 20
192.168
 11
163.982
 21
192.287
  0
LINE
  8
0
 10
163.982
 20
192.287
 11
164.226
 21
192.381
  0
LINE
  8
0
 10
164.226
 20
192.381
 11
164.48
 21
192.449
  0
LINE
  8
0
 10
164.48
 20
192.449
 11
164.738
 21
192.49
  0
LINE
  8
0
 10
164.738
 20
192.49
 11
165
 21
192.503
  0
LINE
  8
0
 10
165
 20
192.503
 11
165.262
 21
192.49
  0
LINE
  8
0
 10
165.262
 20
192.49
 11
165.52
 21
192.449
  0
LINE
  8
0
 10
165.52
 20
192.449
 11
165.774
 21
192.381
  0
LINE
  8
0
 10
165.774
 20
192.381
 11
166.018
 21
192.287
  0
LINE
  8
0
 10
166.018
 20
192.287
 11
166.252
 21
192.168
  0
LINE
  8
0
 10
166.252
 20
192.168
 11
166.471
 21
192.025
  0
LINE
  8
0
 10
166.471
 20
192.025
 11
166.675
 21
191.86
  0
LINE
  8
0
 10
166.675
 20
191.86
 11
166.86
 21
191.675
  0
LINE
  8
0
 10
166.86
 20
191.675
 11
167.025
 21
191.471
  0
LINE
  8
0
 10
167.025
 20
191.471
 11
167.168
 21
191.252
  0
LINE
  8
0
 10
167.168
 20
191.252
 11
167.287
 21
191.018
  0
LINE
  8
0
 10
167.287
 20
191.018
 11
167.381
 21
190.774
  0
LINE
  8
0
 10
167.381
 20
190.774
 11
167.449
 21
190.52
  0
LINE
  8
0
 10
167.449
 20
190.52
 11
167.49
 21
190.262
  0
LINE
  8
0
 10
167.49
 20
190.262
 11
167.503
 21
190
  0
LINE
  8
0
 10
167.503
 20
190
 11
167.49
 21
189.738
  0
LINE
  8
0
 10
167.49
 20
189.738
 11
167.449
 21
189.48
  0
LINE
  8
0
 10
167.449
 20
189.48
 11
167.381
 21
189.226
  0
LINE
  8
0
 10
167.381
 20
189.226
 11
167.287
 21
188.982
  0
LINE
  8
0
 10
167.287
 20
188.982
 11
167.168
 21
188.748
  0
LINE
  8
0
 10
167.168
 20
188.748
 11
167.025
 21
188.529
  0
LINE
  8
0
 10
167.025
 20
188.529
 11
166.86
 21
188.325
  0
LINE
  8
0
 10
166.86
 20
188.325
 11
166.675
 21
188.14
  0
LINE
  8
0
 10
166.675
 20
188.14
 11
166.471
 21
187.975
  0
LINE
  8
0
 10
166.471
 20
187.975
 11
166.252
 21
187.832
  0
LINE
  8
0
 10
166.252
 20
187.832
 11
166.018
 21
187.713
  0
LINE
  8
0
 10
166.018
 20
187.713
 11
165.774
 21
187.619
  0
LINE
  8
0
 10
165.774
 20
187.619
 11
165.52
 21
187.551
  0
LINE
  8
0
 10
165.52
 20
187.551
 11
165.262
 21
187.51
  0
LINE
  8
0
 10
165.262
 20
187.51
 11
165
 21
187.497
  0
LINE
  8
0
 10
165
 20
187.497
 11
164.738
 21
187.51
  0
LINE
  8
0
 10
144.738
 20
187.51
 11
144.48
 21
187.551
  0
LINE
  8
0
 10
144.48
 20
187.551
 11
144.226
 21
187.619
  0
LINE
  8
0
 10
144.226
 20
187.619
 11
143.982
 21
187.713
  0
LINE
  8
0
 10
143.982
 20
187.713
 11
143.748
 21
187.832
  0
LINE
  8
0
 10
143.748
 20
187.832
 11
143.529
 21
187.975
  0
LINE
  8
0
 10
143.529
 20
187.975
 11
143.325
 21
188.14
  0
LINE
  8
0
 10
143.325
 20
188.14
 11
143.14
 21
188.325
  0
LINE
  8
0
 10
143.14
 20
188.325
 11
142.975
 21
188.529
  0
LINE
  8
0
 10
142.975
 20
188.529
 11
142.832
 21
188.748
  0
LINE
  8
0
 10
142.832
 20
188.748
 11
142.713
 21
188.982
  0
LINE
  8
0
 10
142.713
 20
188.982
 11
142.619
 21
189.226
  0
LINE
  8
0
 10
142.619
 20
189.226
 11
142.551
 21
189.48
  0
LINE
  8
0
 10
142.551
 20
189.48
 11
142.51
 21
189.738
  0
LINE
  8
0
 10
142.51
 20
189.738
 11
142.497
 21
190
  0
LINE
  8
0
 10
142.497
 20
190
 11
142.51
 21
190.262
  0
LINE
  8
0
 10
142.51
 20
190.262
 11
142.551
 21
190.52
  0
LINE
  8
0
 10
142.551
 20
190.52
 11
142.619
 21
190.774
  0
LINE
  8
0
 10
142.619
 20
190.774
 11
142.713
 21
191.018
  0
LINE
  8
0
 10
142.713
 20
191.018
 11
142.832
 21
191.252
  0
LINE
  8
0
 10
142.832
 20
191.252
 11
142.975
 21
191.471
  0
LINE
  8
0
 10
142.975
 20
191.471
 11
143.14
 21
191.675
  0
LINE
  8
0
 10
143.14
 20
191.675
 11
143.325
 21
191.86
  0
LINE
  8
0
 10
143.325
 20
191.86
 11
143.529
 21
192.025
  0
LINE
  8
0
 10
143.529
 20
192.025
 11
143.748
 21
192.168
  0
LINE
  8
0
 10
143.748
 20
192.168
 11
143.982
 21
192.287
  0
LINE
  8
0
 10
143.982
 20
192.287
 11
144.226
 21
192.381
  0
LINE
  8
0
 10
144.226
 20
192.381
 11
144.48
 21
192.449
  0
LINE
  8
0
 10
144.48
 20
192.449
 11
144.738
 21
192.49
  0
LINE
  8
0
 10
144.738
 20
192.49
 11
145
 21
192.503
  0
LINE
  8
0
 10
145
 20
192.503
 11
145.262
 21
192.49
  0
LINE
  8
0
 10
145.262
 20
192.49
 11
145.52
 21
192.449
  0
LINE
  8
0
 10
145.52
 20
192.449
 11
145.774
 21
192.381
  0
LINE
  8
0
 10
145.774
 20
192.381
 11
146.018
 21
192.287
  0
LINE
  8
0
 10
146.018
 20
192.287
 11
146.252
 21
192.168
  0
LINE
  8
0
 10
146.252
 20
192.168
 11
146.471
 21
192.025
  0
LINE
  8
0
 10
146.471
 20
192.025
 11
146.675
 21
191.86
  0
LINE
  8
0
 10
146.675
 20
191.86
 11
146.86
 21
191.675
  0
LINE
  8
0
 10
146.86
 20
191.675
 11
147.025
 21
191.471
  0
LINE
  8
0
 10
147.025
 20
191.471
 11
147.168
 21
191.252
  0
LINE
  8
0
 10
147.168
 20
191.252
 11
147.287
 21
191.018
  0
LINE
  8
0
 10
147.287
 20
191.018
 11
147.381
 21
190.774
  0
LINE
  8
0
 10
147.381
 20
190.774
 11
147.449
 21
190.52
  0
LINE
  8
0
 10
147.449
 20
190.52
 11
147.49
 21
190.262
  0
LINE
  8
0
 10
147.49
 20
190.262
 11
147.503
 21
190
  0
LINE
  8
0
 10
147.503
 20
190
 11
147.49
 21
189.738
  0
LINE
  8
0
 10
147.49
 20
189.738
 11
147.449
 21
189.48
  0
LINE
  8
0
 10
147.449
 20
189.48
 11
147.381
 21
189.226
  0
LINE
  8
0
 10
147.381
 20
189.226
 11
147.287
 21
188.982
  0
LINE
  8
0
 10
147.287
 20
188.982
 11
147.168
 21
188.748
  0
LINE
  8
0
 10
147.168
 20
188.748
 11
147.025
 21
188.529
  0
LINE
  8
0
 10
147.025
 20
188.529
 11
146.86
 21
188.325
  0
LINE
  8
0
 10
146.86
 20
188.325
 11
146.675
 21
188.14
  0
LINE
  8
0
 10
146.675
 20
188.14
 11
146.471
 21
187.975
  0
LINE
  8
0
 10
146.471
 20
187.975
 11
146.252
 21
187.832
  0
LINE
  8
0
 10
146.252
 20
187.832
 11
146.018
 21
187.713
  0
LINE
  8
0
 10
146.018
 20
187.713
 11
145.774
 21
187.619
  0
LINE
  8
0
 10
145.774
 20
187.619
 11
145.52
 21
187.551
  0
LINE
  8
0
 10
145.52
 20
187.551
 11
145.262
 21
187.51
  0
LINE
  8
0
 10
145.262
 20
187.51
 11
145
 21
187.497
  0
LINE
  8
0
 10
145
 20
187.497
 11
144.738
 21
187.51
  0
LINE
  8
0
 10
-185.262
 20
187.51
 11
-185.52
 21
187.551
  0
LINE
  8
0
 10
-185.52
 20
187.551
 11
-185.774
 21
187.619
  0
LINE
  8
0
 10
-185.774
 20
187.619
 11
-186.018
 21
187.713
  0
LINE
  8
0
 10
-186.018
 20
187.713
 11
-186.252
 21
187.832
  0
LINE
  8
0
 10
-186.252
 20
187.832
 11
-186.471
 21
187.975
  0
LINE
  8
0
 10
-186.471
 20
187.975
 11
-186.675
 21
188.14
  0
LINE
  8
0
 10
-186.675
 20
188.14
 11
-186.86
 21
188.325
  0
LINE
  8
0
 10
-186.86
 20
188.325
 11
-187.025
 21
188.529
  0
LINE
  8
0
 10
-187.025
 20
188.529
 11
-187.168
 21
188.748
  0
LINE
  8
0
 10
-187.168
 20
188.748
 11
-187.287
 21
188.982
  0
LINE
  8
0
 10
-187.287
 20
188.982
 11
-187.381
 21
189.226
  0
LINE
  8
0
 10
-187.381
 20
189.226
 11
-187.449
 21
189.48
  0
LINE
  8
0
 10
-187.449
 20
189.48
 11
-187.49
 21
189.738
  0
LINE
  8
0
 10
-187.49
 20
189.738
 11
-187.503
 21
190
  0
LINE
  8
0
 10
-187.503
 20
190
 11
-187.49
 21
190.262
  0
LINE
  8
0
 10
-187.49
 20
190.262
 11
-187.449
 21
190.52
  0
LINE
  8
0
 10
-187.449
 20
190.52
 11
-187.381
 21
190.774
  0
LINE
  8
0
 10
-187.381
 20
190.774
 11
-187.287
 21
191.018
  0
LINE
  8
0
 10
-187.287
 20
191.018
 11
-187.168
 21
191.252
  0
LINE
  8
0
 10
-187.168
 20
191.252
 11
-187.025
 21
191.471
  0
LINE
  8
0
 10
-187.025
 20
191.471
 11
-186.86
 21
191.675
  0
LINE
  8
0
 10
-186.86
 20
191.675
 11
-186.675
 21
191.86
  0
LINE
  8
0
 10
-186.675
 20
191.86
 11
-186.471
 21
192.025
  0
LINE
  8
0
 10
-186.471
 20
192.025
 11
-186.252
 21
192.168
  0
LINE
  8
0
 10
-186.252
 20
192.168
 11
-186.018
 21
192.287
  0
LINE
  8
0
 10
-186.018
 20
192.287
 11
-185.774
 21
192.381
  0
LINE
  8
0
 10
-185.774
 20
192.381
 11
-185.52
 21
192.449
  0
LINE
  8
0
 10
-185.52
 20
192.449
 11
-185.262
 21
192.49
  0
LINE
  8
0
 10
-185.262
 20
192.49
 11
-185
 21
192.503
  0
LINE
  8
0
 10
-185
 20
192.503
 11
-184.738
 21
192.49
  0
LINE
  8
0
 10
-184.738
 20
192.49
 11
-184.48
 21
192.449
  0
LINE
  8
0
 10
-184.48
 20
192.449
 11
-184.226
 21
192.381
  0
LINE
  8
0
 10
-184.226
 20
192.381
 11
-183.982
 21
192.287
  0
LINE
  8
0
 10
-183.982
 20
192.287
 11
-183.748
 21
192.168
  0
LINE
  8
0
 10
-183.748
 20
192.168
 11
-183.529
 21
192.025
  0
LINE
  8
0
 10
-183.529
 20
192.025
 11
-183.325
 21
191.86
  0
LINE
  8
0
 10
-183.325
 20
191.86
 11
-183.14
 21
191.675
  0
LINE
  8
0
 10
-183.14
 20
191.675
 11
-182.975
 21
191.471
  0
LINE
  8
0
 10
-182.975
 20
191.471
 11
-182.832
 21
191.252
  0
LINE
  8
0
 10
-182.832
 20
191.252
 11
-182.713
 21
191.018
  0
LINE
  8
0
 10
-182.713
 20
191.018
 11
-182.619
 21
190.774
  0
LINE
  8
0
 10
-182.619
 20
190.774
 11
-182.551
 21
190.52
  0
LINE
  8
0
 10
-182.551
 20
190.52
 11
-182.51
 21
190.262
  0
LINE
  8
0
 10
-182.51
 20
190.262
 11
-182.497
 21
190
  0
LINE
  8
0
 10
-182.497
 20
190
 11
-182.51
 21
189.738
  0
LINE
  8
0
 10
-182.51
 20
189.738
 11
-182.551
 21
189.48
  0
LINE
  8
0
 10
-182.551
 20
189.48
 11
-182.619
 21
189.226
  0
LINE
  8
0
 10
-182.619
 20
189.226
 11
-182.713
 21
188.982
  0
LINE
  8
0
 10
-182.713
 20
188.982
 11
-182.832
 21
188.748
  0
LINE
  8
0
 10
-182.832
 20
188.748
 11
-182.975
 21
188.529
  0
LINE
  8
0
 10
-182.975
 20
188.529
 11
-183.14
 21
188.325
  0
LINE
  8
0
 10
-183.14
 20
188.325
 11
-183.325
 21
188.14
  0
LINE
  8
0
 10
-183.325
 20
188.14
 11
-183.529
 21
187.975
  0
LINE
  8
0
 10
-183.529
 20
187.975
 11
-183.748
 21
187.832
  0
LINE
  8
0
 10
-183.748
 20
187.832
 11
-183.982
 21
187.713
  0
LINE
  8
0
 10
-183.982
 20
187.713
 11
-184.226
 21
187.619
  0
LINE
  8
0
 10
-184.226
 20
187.619
 11
-184.48
 21
187.551
  0
LINE
  8
0
 10
-184.48
 20
187.551
 11
-184.738
 21
187.51
  0
LINE
  8
0
 10
-184.738
 20
187.51
 11
-185
 21
187.497
  0
LINE
  8
0
 10
-185
 20
187.497
 11
-185.262
 21
187.51
  0
LINE
  8
0
 10
124.753
 20
187.81
 11
124.51
 21
187.852
  0
LINE
  8
0
 10
124.51
 20
187.852
 11
124.272
 21
187.92
  0
LINE
  8
0
 10
124.272
 20
187.92
 11
124.044
 21
188.015
  0
LINE
  8
0
 10
124.044
 20
188.015
 11
123.828
 21
188.134
  0
LINE
  8
0
 10
123.828
 20
188.134
 11
123.626
 21
188.277
  0
LINE
  8
0
 10
123.626
 20
188.277
 11
123.442
 21
188.442
  0
LINE
  8
0
 10
123.442
 20
188.442
 11
123.277
 21
188.626
  0
LINE
  8
0
 10
123.277
 20
188.626
 11
123.134
 21
188.828
  0
LINE
  8
0
 10
123.134
 20
188.828
 11
123.015
 21
189.044
  0
LINE
  8
0
 10
123.015
 20
189.044
 11
122.92
 21
189.272
  0
LINE
  8
0
 10
122.92
 20
189.272
 11
122.852
 21
189.51
  0
LINE
  8
0
 10
122.852
 20
189.51
 11
122.81
 21
189.753
  0
LINE
  8
0
 10
122.81
 20
189.753
 11
122.797
 21
190
  0
LINE
  8
0
 10
122.797
 20
190
 11
122.81
 21
190.247
  0
LINE
  8
0
 10
122.81
 20
190.247
 11
122.852
 21
190.49
  0
LINE
  8
0
 10
122.852
 20
190.49
 11
122.92
 21
190.728
  0
LINE
  8
0
 10
122.92
 20
190.728
 11
123.015
 21
190.956
  0
LINE
  8
0
 10
123.015
 20
190.956
 11
123.134
 21
191.172
  0
LINE
  8
0
 10
123.134
 20
191.172
 11
123.277
 21
191.374
  0
LINE
  8
0
 10
123.277
 20
191.374
 11
123.442
 21
191.558
  0
LINE
  8
0
 10
123.442
 20
191.558
 11
123.626
 21
191.723
  0
LINE
  8
0
 10
123.626
 20
191.723
 11
123.828
 21
191.866
  0
LINE
  8
0
 10
123.828
 20
191.866
 11
124.044
 21
191.985
  0
LINE
  8
0
 10
124.044
 20
191.985
 11
124.272
 21
192.08
  0
LINE
  8
0
 10
124.272
 20
192.08
 11
124.51
 21
192.148
  0
LINE
  8
0
 10
124.51
 20
192.148
 11
124.753
 21
192.19
  0
LINE
  8
0
 10
124.753
 20
192.19
 11
125
 21
192.203
  0
LINE
  8
0
 10
125
 20
192.203
 11
125.247
 21
192.19
  0
LINE
  8
0
 10
125.247
 20
192.19
 11
125.49
 21
192.148
  0
LINE
  8
0
 10
125.49
 20
192.148
 11
125.728
 21
192.08
  0
LINE
  8
0
 10
125.728
 20
192.08
 11
125.956
 21
191.985
  0
LINE
  8
0
 10
125.956
 20
191.985
 11
126.172
 21
191.866
  0
LINE
  8
0
 10
126.172
 20
191.866
 11
126.374
 21
191.723
  0
LINE
  8
0
 10
126.374
 20
191.723
 11
126.558
 21
191.558
  0
LINE
  8
0
 10
126.558
 20
191.558
 11
126.723
 21
191.374
  0
LINE
  8
0
 10
126.723
 20
191.374
 11
126.866
 21
191.172
  0
LINE
  8
0
 10
126.866
 20
191.172
 11
126.985
 21
190.956
  0
LINE
  8
0
 10
126.985
 20
190.956
 11
127.08
 21
190.728
  0
LINE
  8
0
 10
127.08
 20
190.728
 11
127.148
 21
190.49
  0
LINE
  8
0
 10
127.148
 20
190.49
 11
127.19
 21
190.247
  0
LINE
  8
0
 10
127.19
 20
190.247
 11
127.203
 21
190
  0
LINE
  8
0
 10
127.203
 20
190
 11
127.19
 21
189.753
  0
LINE
  8
0
 10
127.19
 20
189.753
 11
127.148
 21
189.51
  0
LINE
  8
0
 10
127.148
 20
189.51
 11
127.08
 21
189.272
  0
LINE
  8
0
 10
127.08
 20
189.272
 11
126.985
 21
189.044
  0
LINE
  8
0
 10
126.985
 20
189.044
 11
126.866
 21
188.828
  0
LINE
  8
0
 10
126.866
 20
188.828
 11
126.723
 21
188.626
  0
LINE
  8
0
 10
126.723
 20
188.626
 11
126.558
 21
188.442
  0
LINE
  8
0
 10
126.558
 20
188.442
 11
126.374
 21
188.277
  0
LINE
  8
0
 10
126.374
 20
188.277
 11
126.172
 21
188.134
  0
LINE
  8
0
 10
126.172
 20
188.134
 11
125.956
 21
188.015
  0
LINE
  8
0
 10
125.956
 20
188.015
 11
125.728
 21
187.92
  0
LINE
  8
0
 10
125.728
 20
187.92
 11
125.49
 21
187.852
  0
LINE
  8
0
 10
125.49
 20
187.852
 11
125.247
 21
187.81
  0
LINE
  8
0
 10
125.247
 20
187.81
 11
125
 21
187.797
  0
LINE
  8
0
 10
125
 20
187.797
 11
124.753
 21
187.81
  0
LINE
  8
0
 10
-0.246719
 20
187.81
 11
-0.490326
 21
187.852
  0
LINE
  8
0
 10
-0.490326
 20
187.852
 11
-0.727768
 21
187.92
  0
LINE
  8
0
 10
-0.727768
 20
187.92
 11
-0.956055
 21
188.015
  0
LINE
  8
0
 10
-0.956055
 20
188.015
 11
-1.17232
 21
188.134
  0
LINE
  8
0
 10
-1.17232
 20
188.134
 11
-1.37384
 21
188.277
  0
LINE
  8
0
 10
-1.37384
 20
188.277
 11
-1.55809
 21
188.442
  0
LINE
  8
0
 10
-1.55809
 20
188.442
 11
-1.72275
 21
188.626
  0
LINE
  8
0
 10
-1.72275
 20
188.626
 11
-1.86574
 21
188.828
  0
LINE
  8
0
 10
-1.86574
 20
188.828
 11
-1.98526
 21
189.044
  0
LINE
  8
0
 10
-1.98526
 20
189.044
 11
-2.07982
 21
189.272
  0
LINE
  8
0
 10
-2.07982
 20
189.272
 11
-2.14822
 21
189.51
  0
LINE
  8
0
 10
-2.14822
 20
189.51
 11
-2.18962
 21
189.753
  0
LINE
  8
0
 10
-2.18962
 20
189.753
 11
-2.20348
 21
190
  0
LINE
  8
0
 10
-2.20348
 20
190
 11
-2.18962
 21
190.247
  0
LINE
  8
0
 10
-2.18962
 20
190.247
 11
-2.14822
 21
190.49
  0
LINE
  8
0
 10
-2.14822
 20
190.49
 11
-2.07982
 21
190.728
  0
LINE
  8
0
 10
-2.07982
 20
190.728
 11
-1.98526
 21
190.956
  0
LINE
  8
0
 10
-1.98526
 20
190.956
 11
-1.86574
 21
191.172
  0
LINE
  8
0
 10
-1.86574
 20
191.172
 11
-1.72275
 21
191.374
  0
LINE
  8
0
 10
-1.72275
 20
191.374
 11
-1.55809
 21
191.558
  0
LINE
  8
0
 10
-1.55809
 20
191.558
 11
-1.37384
 21
191.723
  0
LINE
  8
0
 10
-1.37384
 20
191.723
 11
-1.17232
 21
191.866
  0
LINE
  8
0
 10
-1.17232
 20
191.866
 11
-0.956055
 21
191.985
  0
LINE
  8
0
 10
-0.956055
 20
191.985
 11
-0.727768
 21
192.08
  0
LINE
  8
0
 10
-0.727768
 20
192.08
 11
-0.490326
 21
192.148
  0
LINE
  8
0
 10
-0.490326
 20
192.148
 11
-0.246719
 21
192.19
  0
LINE
  8
0
 10
-0.246719
 20
192.19
 11
0
 21
192.203
  0
LINE
  8
0
 10
0
 20
192.203
 11
0.246704
 21
192.19
  0
LINE
  8
0
 10
0.246704
 20
192.19
 11
0.490311
 21
192.148
  0
LINE
  8
0
 10
0.490311
 20
192.148
 11
0.727753
 21
192.08
  0
LINE
  8
0
 10
0.727753
 20
192.08
 11
0.956039
 21
191.985
  0
LINE
  8
0
 10
0.956039
 20
191.985
 11
1.1723
 21
191.866
  0
LINE
  8
0
 10
1.1723
 20
191.866
 11
1.37383
 21
191.723
  0
LINE
  8
0
 10
1.37383
 20
191.723
 11
1.55807
 21
191.558
  0
LINE
  8
0
 10
1.55807
 20
191.558
 11
1.72273
 21
191.374
  0
LINE
  8
0
 10
1.72273
 20
191.374
 11
1.86572
 21
191.172
  0
LINE
  8
0
 10
1.86572
 20
191.172
 11
1.98524
 21
190.956
  0
LINE
  8
0
 10
1.98524
 20
190.956
 11
2.0798
 21
190.728
  0
LINE
  8
0
 10
2.0798
 20
190.728
 11
2.14821
 21
190.49
  0
LINE
  8
0
 10
2.14821
 20
190.49
 11
2.18961
 21
190.247
  0
LINE
  8
0
 10
2.18961
 20
190.247
 11
2.20346
 21
190
  0
LINE
  8
0
 10
2.20346
 20
190
 11
2.18961
 21
189.753
  0
LINE
  8
0
 10
2.18961
 20
189.753
 11
2.14821
 21
189.51
  0
LINE
  8
0
 10
2.14821
 20
189.51
 11
2.0798
 21
189.272
  0
LINE
  8
0
 10
2.0798
 20
189.272
 11
1.98524
 21
189.044
  0
LINE
  8
0
 10
1.98524
 20
189.044
 11
1.86572
 21
188.828
  0
LINE
  8
0
 10
1.86572
 20
188.828
 11
1.72273
 21
188.626
  0
LINE
  8
0
 10
1.72273
 20
188.626
 11
1.55807
 21
188.442
  0
LINE
  8
0
 10
1.55807
 20
188.442
 11
1.37383
 21
188.277
  0
LINE
  8
0
 10
1.37383
 20
188.277
 11
1.1723
 21
188.134
  0
LINE
  8
0
 10
1.1723
 20
188.134
 11
0.956039
 21
188.015
  0
LINE
  8
0
 10
0.956039
 20
188.015
 11
0.727753
 21
187.92
  0
LINE
  8
0
 10
0.727753
 20
187.92
 11
0.490311
 21
187.852
  0
LINE
  8
0
 10
0.490311
 20
187.852
 11
0.246704
 21
187.81
  0
LINE
  8
0
 10
0.246704
 20
187.81
 11
0
 21
187.797
  0
LINE
  8
0
 10
0
 20
187.797
 11
-0.246719
 21
187.81
  0
LINE
  8
0
 10
-125.247
 20
187.81
 11
-125.49
 21
187.852
  0
LINE
  8
0
 10
-125.49
 20
187.852
 11
-125.728
 21
187.92
  0
LINE
  8
0
 10
-125.728
 20
187.92
 11
-125.956
 21
188.015
  0
LINE
  8
0
 10
-125.956
 20
188.015
 11
-126.172
 21
188.134
  0
LINE
  8
0
 10
-126.172
 20
188.134
 11
-126.374
 21
188.277
  0
LINE
  8
0
 10
-126.374
 20
188.277
 11
-126.558
 21
188.442
  0
LINE
  8
0
 10
-126.558
 20
188.442
 11
-126.723
 21
188.626
  0
LINE
  8
0
 10
-126.723
 20
188.626
 11
-126.866
 21
188.828
  0
LINE
  8
0
 10
-126.866
 20
188.828
 11
-126.985
 21
189.044
  0
LINE
  8
0
 10
-126.985
 20
189.044
 11
-127.08
 21
189.272
  0
LINE
  8
0
 10
-127.08
 20
189.272
 11
-127.148
 21
189.51
  0
LINE
  8
0
 10
-127.148
 20
189.51
 11
-127.19
 21
189.753
  0
LINE
  8
0
 10
-127.19
 20
189.753
 11
-127.203
 21
190
  0
LINE
  8
0
 10
-127.203
 20
190
 11
-127.19
 21
190.247
  0
LINE
  8
0
 10
-127.19
 20
190.247
 11
-127.148
 21
190.49
  0
LINE
  8
0
 10
-127.148
 20
190.49
 11
-127.08
 21
190.728
  0
LINE
  8
0
 10
-127.08
 20
190.728
 11
-126.985
 21
190.956
  0
LINE
  8
0
 10
-126.985
 20
190.956
 11
-126.866
 21
191.172
  0
LINE
  8
0
 10
-126.866
 20
191.172
 11
-126.723
 21
191.374
  0
LINE
  8
0
 10
-126.723
 20
191.374
 11
-126.558
 21
191.558
  0
LINE
  8
0
 10
-126.558
 20
191.558
 11
-126.374
 21
191.723
  0
LINE
  8
0
 10
-126.374
 20
191.723
 11
-126.172
 21
191.866
  0
LINE
  8
0
 10
-126.172
 20
191.866
 11
-125.956
 21
191.985
  0
LINE
  8
0
 10
-125.956
 20
191.985
 11
-125.728
 21
192.08
  0
LINE
  8
0
 10
-125.728
 20
192.08
 11
-125.49
 21
192.148
  0
LINE
  8
0
 10
-125.49
 20
192.148
 11
-125.247
 21
192.19
  0
LINE
  8
0
 10
-125.247
 20
192.19
 11
-125
 21
192.203
  0
LINE
  8
0
 10
-125
 20
192.203
 11
-124.753
 21
192.19
  0
LINE
  8
0
 10
-124.753
 20
192.19
 11
-124.51
 21
192.148
  0
LINE
  8
0
 10
-124.51
 20
192.148
 11
-124.272
 21
192.08
  0
LINE
  8
0
 10
-124.272
 20
192.08
 11
-124.044
 21
191.985
  0
LINE
  8
0
 10
-124.044
 20
191.985
 11
-123.828
 21
191.866
  0
LINE
  8
0
 10
-123.828
 20
191.866
 11
-123.626
 21
191.723
  0
LINE
  8
0
 10
-123.626
 20
191.723
 11
-123.442
 21
191.558
  0
LINE
  8
0
 10
-123.442
 20
191.558
 11
-123.277
 21
191.374
  0
LINE
  8
0
 10
-123.277
 20
191.374
 11
-123.134
 21
191.172
  0
LINE
  8
0
 10
-123.134
 20
191.172
 11
-123.015
 21
190.956
  0
LINE
  8
0
 10
-123.015
 20
190.956
 11
-122.92
 21
190.728
  0
LINE
  8
0
 10
-122.92
 20
190.728
 11
-122.852
 21
190.49
  0
LINE
  8
0
 10
-122.852
 20
190.49
 11
-122.81
 21
190.247
  0
LINE
  8
0
 10
-122.81
 20
190.247
 11
-122.797
 21
190
  0
LINE
  8
0
 10
-122.797
 20
190
 11
-122.81
 21
189.753
  0
LINE
  8
0
 10
-122.81
 20
189.753
 11
-122.852
 21
189.51
  0
LINE
  8
0
 10
-122.852
 20
189.51
 11
-122.92
 21
189.272
  0
LINE
  8
0
 10
-122.92
 20
189.272
 11
-123.015
 21
189.044
  0
LINE
  8
0
 10
-123.015
 20
189.044
 11
-123.134
 21
188.828
  0
LINE
  8
0
 10
-123.134
 20
188.828
 11
-123.277
 21
188.626
  0
LINE
  8
0
 10
-123.277
 20
188.626
 11
-123.442
 21
188.442
  0
LINE
  8
0
 10
-123.442
 20
188.442
 11
-123.626
 21
188.277
  0
LINE
  8
0
 10
-123.626
 20
188.277
 11
-123.828
 21
188.134
  0
LINE
  8
0
 10
-123.828
 20
188.134
 11
-124.044
 21
188.015
  0
LINE
  8
0
 10
-124.044
 20
188.015
 11
-124.272
 21
187.92
  0
LINE
  8
0
 10
-124.272
 20
187.92
 11
-124.51
 21
187.852
  0
LINE
  8
0
 10
-124.51
 20
187.852
 11
-124.753
 21
187.81
  0
LINE
  8
0
 10
-124.753
 20
187.81
 11
-125
 21
187.797
  0
LINE
  8
0
 10
-125
 20
187.797
 11
-125.247
 21
187.81
  0
LINE
  8
0
 10
184.753
 20
177.81
 11
184.51
 21
177.852
  0
LINE
  8
0
 10
184.51
 20
177.852
 11
184.272
 21
177.92
  0
LINE
  8
0
 10
184.272
 20
177.92
 11
184.044
 21
178.015
  0
LINE
  8
0
 10
184.044
 20
178.015
 11
183.828
 21
178.134
  0
LINE
  8
0
 10
183.828
 20
178.134
 11
183.626
 21
178.277
  0
LINE
  8
0
 10
183.626
 20
178.277
 11
183.442
 21
178.442
  0
LINE
  8
0
 10
183.442
 20
178.442
 11
183.277
 21
178.626
  0
LINE
  8
0
 10
183.277
 20
178.626
 11
183.134
 21
178.828
  0
LINE
  8
0
 10
183.134
 20
178.828
 11
183.015
 21
179.044
  0
LINE
  8
0
 10
183.015
 20
179.044
 11
182.92
 21
179.272
  0
LINE
  8
0
 10
182.92
 20
179.272
 11
182.852
 21
179.51
  0
LINE
  8
0
 10
182.852
 20
179.51
 11
182.81
 21
179.753
  0
LINE
  8
0
 10
182.81
 20
179.753
 11
182.797
 21
180
  0
LINE
  8
0
 10
182.797
 20
180
 11
182.81
 21
180.247
  0
LINE
  8
0
 10
182.81
 20
180.247
 11
182.852
 21
180.49
  0
LINE
  8
0
 10
182.852
 20
180.49
 11
182.92
 21
180.728
  0
LINE
  8
0
 10
182.92
 20
180.728
 11
183.015
 21
180.956
  0
LINE
  8
0
 10
183.015
 20
180.956
 11
183.134
 21
181.172
  0
LINE
  8
0
 10
183.134
 20
181.172
 11
183.277
 21
181.374
  0
LINE
  8
0
 10
183.277
 20
181.374
 11
183.442
 21
181.558
  0
LINE
  8
0
 10
183.442
 20
181.558
 11
183.626
 21
181.723
  0
LINE
  8
0
 10
183.626
 20
181.723
 11
183.828
 21
181.866
  0
LINE
  8
0
 10
183.828
 20
181.866
 11
184.044
 21
181.985
  0
LINE
  8
0
 10
184.044
 20
181.985
 11
184.272
 21
182.08
  0
LINE
  8
0
 10
184.272
 20
182.08
 11
184.51
 21
182.148
  0
LINE
  8
0
 10
184.51
 20
182.148
 11
184.753
 21
182.19
  0
LINE
  8
0
 10
184.753
 20
182.19
 11
185
 21
182.203
  0
LINE
  8
0
 10
185
 20
182.203
 11
185.247
 21
182.19
  0
LINE
  8
0
 10
185.247
 20
182.19
 11
185.49
 21
182.148
  0
LINE
  8
0
 10
185.49
 20
182.148
 11
185.728
 21
182.08
  0
LINE
  8
0
 10
185.728
 20
182.08
 11
185.956
 21
181.985
  0
LINE
  8
0
 10
185.956
 20
181.985
 11
186.172
 21
181.866
  0
LINE
  8
0
 10
186.172
 20
181.866
 11
186.374
 21
181.723
  0
LINE
  8
0
 10
186.374
 20
181.723
 11
186.558
 21
181.558
  0
LINE
  8
0
 10
186.558
 20
181.558
 11
186.723
 21
181.374
  0
LINE
  8
0
 10
186.723
 20
181.374
 11
186.866
 21
181.172
  0
LINE
  8
0
 10
186.866
 20
181.172
 11
186.985
 21
180.956
  0
LINE
  8
0
 10
186.985
 20
180.956
 11
187.08
 21
180.728
  0
LINE
  8
0
 10
187.08
 20
180.728
 11
187.148
 21
180.49
  0
LINE
  8
0
 10
187.148
 20
180.49
 11
187.19
 21
180.247
  0
LINE
  8
0
 10
187.19
 20
180.247
 11
187.203
 21
180
  0
LINE
  8
0
 10
187.203
 20
180
 11
187.19
 21
179.753
  0
LINE
  8
0
 10
187.19
 20
179.753
 11
187.148
 21
179.51
  0
LINE
  8
0
 10
187.148
 20
179.51
 11
187.08
 21
179.272
  0
LINE
  8
0
 10
187.08
 20
179.272
 11
186.985
 21
179.044
  0
LINE
  8
0
 10
186.985
 20
179.044
 11
186.866
 21
178.828
  0
LINE
  8
0
 10
186.866
 20
178.828
 11
186.723
 21
178.626
  0
LINE
  8
0
 10
186.723
 20
178.626
 11
186.558
 21
178.442
  0
LINE
  8
0
 10
186.558
 20
178.442
 11
186.374
 21
178.277
  0
LINE
  8
0
 10
186.374
 20
178.277
 11
186.172
 21
178.134
  0
LINE
  8
0
 10
186.172
 20
178.134
 11
185.956
 21
178.015
  0
LINE
  8
0
 10
185.956
 20
178.015
 11
185.728
 21
177.92
  0
LINE
  8
0
 10
185.728
 20
177.92
 11
185.49
 21
177.852
  0
LINE
  8
0
 10
185.49
 20
177.852
 11
185.247
 21
177.81
  0
LINE
  8
0
 10
185.247
 20
177.81
 11
185
 21
177.797
  0
LINE
  8
0
 10
185
 20
177.797
 11
184.753
 21
177.81
  0
LINE
  8
0
 10
-185.247
 20
177.81
 11
-185.49
 21
177.852
  0
LINE
  8
0
 10
-185.49
 20
177.852
 11
-185.728
 21
177.92
  0
LINE
  8
0
 10
-185.728
 20
177.92
 11
-185.956
 21
178.015
  0
LINE
  8
0
 10
-185.956
 20
178.015
 11
-186.172
 21
178.134
  0
LINE
  8
0
 10
-186.172
 20
178.134
 11
-186.374
 21
178.277
  0
LINE
  8
0
 10
-186.374
 20
178.277
 11
-186.558
 21
178.442
  0
LINE
  8
0
 10
-186.558
 20
178.442
 11
-186.723
 21
178.626
  0
LINE
  8
0
 10
-186.723
 20
178.626
 11
-186.866
 21
178.828
  0
LINE
  8
0
 10
-186.866
 20
178.828
 11
-186.985
 21
179.044
  0
LINE
  8
0
 10
-186.985
 20
179.044
 11
-187.08
 21
179.272
  0
LINE
  8
0
 10
-187.08
 20
179.272
 11
-187.148
 21
179.51
  0
LINE
  8
0
 10
-187.148
 20
179.51
 11
-187.19
 21
179.753
  0
LINE
  8
0
 10
-187.19
 20
179.753
 11
-187.203
 21
180
  0
LINE
  8
0
 10
-187.203
 20
180
 11
-187.19
 21
180.247
  0
LINE
  8
0
 10
-187.19
 20
180.247
 11
-187.148
 21
180.49
  0
LINE
  8
0
 10
-187.148
 20
180.49
 11
-187.08
 21
180.728
  0
LINE
  8
0
 10
-187.08
 20
180.728
 11
-186.985
 21
180.956
  0
LINE
  8
0
 10
-186.985
 20
180.956
 11
-186.866
 21
181.172
  0
LINE
  8
0
 10
-186.866
 20
181.172
 11
-186.723
 21
181.374
  0
LINE
  8
0
 10
-186.723
 20
181.374
 11
-186.558
 21
181.558
  0
LINE
  8
0
 10
-186.558
 20
181.558
 11
-186.374
 21
181.723
  0
LINE
  8
0
 10
-186.374
 20
181.723
 11
-186.172
 21
181.866
  0
LINE
  8
0
 10
-186.172
 20
181.866
 11
-185.956
 21
181.985
  0
LINE
  8
0
 10
-185.956
 20
181.985
 11
-185.728
 21
182.08
  0
LINE
  8
0
 10
-185.728
 20
182.08
 11
-185.49
 21
182.148
  0
LINE
  8
0
 10
-185.49
 20
182.148
 11
-185.247
 21
182.19
  0
LINE
  8
0
 10
-185.247
 20
182.19
 11
-185
 21
182.203
  0
LINE
  8
0
 10
-185
 20
182.203
 11
-184.753
 21
182.19
  0
LINE
  8
0
 10
-184.753
 20
182.19
 11
-184.51
 21
182.148
  0
LINE
  8
0
 10
-184.51
 20
182.148
 11
-184.272
 21
182.08
  0
LINE
  8
0
 10
-184.272
 20
182.08
 11
-184.044
 21
181.985
  0
LINE
  8
0
 10
-184.044
 20
181.985
 11
-183.828
 21
181.866
  0
LINE
  8
0
 10
-183.828
 20
181.866
 11
-183.626
 21
181.723
  0
LINE
  8
0
 10
-183.626
 20
181.723
 11
-183.442
 21
181.558
  0
LINE
  8
0
 10
-183.442
 20
181.558
 11
-183.277
 21
181.374
  0
LINE
  8
0
 10
-183.277
 20
181.374
 11
-183.134
 21
181.172
  0
LINE
  8
0
 10
-183.134
 20
181.172
 11
-183.015
 21
180.956
  0
LINE
  8
0
 10
-183.015
 20
180.956
 11
-182.92
 21
180.728
  0
LINE
  8
0
 10
-182.92
 20
180.728
 11
-182.852
 21
180.49
  0
LINE
  8
0
 10
-182.852
 20
180.49
 11
-182.81
 21
180.247
  0
LINE
  8
0
 10
-182.81
 20
180.247
 11
-182.797
 21
180
  0
LINE
  8
0
 10
-182.797
 20
180
 11
-182.81
 21
179.753
  0
LINE
  8
0
 10
-182.81
 20
179.753
 11
-182.852
 21
179.51
  0
LINE
  8
0
 10
-182.852
 20
179.51
 11
-182.92
 21
179.272
  0
LINE
  8
0
 10
-182.92
 20
179.272
 11
-183.015
 21
179.044
  0
LINE
  8
0
 10
-183.015
 20
179.044
 11
-183.134
 21
178.828
  0
LINE
  8
0
 10
-183.134
 20
178.828
 11
-183.277
 21
178.626
  0
LINE
  8
0
 10
-183.277
 20
178.626
 11
-183.442
 21
178.442
  0
LINE
  8
0
 10
-183.442
 20
178.442
 11
-183.626
 21
178.277
  0
LINE
  8
0
 10
-183.626
 20
178.277
 11
-183.828
 21
178.134
  0
LINE
  8
0
 10
-183.828
 20
178.134
 11
-184.044
 21
178.015
  0
LINE
  8
0
 10
-184.044
 20
178.015
 11
-184.272
 21
177.92
  0
LINE
  8
0
 10
-184.272
 20
177.92
 11
-184.51
 21
177.852
  0
LINE
  8
0
 10
-184.51
 20
177.852
 11
-184.753
 21
177.81
  0
LINE
  8
0
 10
-184.753
 20
177.81
 11
-185
 21
177.797
  0
LINE
  8
0
 10
-185
 20
177.797
 11
-185.247
 21
177.81
  0
LINE
  8
0
 10
-185.262
 20
112.51
 11
-185.52
 21
112.551
  0
LINE
  8
0
 10
-185.52
 20
112.551
 11
-185.774
 21
112.619
  0
LINE
  8
0
 10
-185.774
 20
112.619
 11
-186.018
 21
112.713
  0
LINE
  8
0
 10
-186.018
 20
112.713
 11
-186.252
 21
112.832
  0
LINE
  8
0
 10
-186.252
 20
112.832
 11
-186.471
 21
112.975
  0
LINE
  8
0
 10
-186.471
 20
112.975
 11
-186.675
 21
113.14
  0
LINE
  8
0
 10
-186.675
 20
113.14
 11
-186.86
 21
113.325
  0
LINE
  8
0
 10
-186.86
 20
113.325
 11
-187.025
 21
113.529
  0
LINE
  8
0
 10
-187.025
 20
113.529
 11
-187.168
 21
113.748
  0
LINE
  8
0
 10
-187.168
 20
113.748
 11
-187.287
 21
113.982
  0
LINE
  8
0
 10
-187.287
 20
113.982
 11
-187.381
 21
114.226
  0
LINE
  8
0
 10
-187.381
 20
114.226
 11
-187.449
 21
114.48
  0
LINE
  8
0
 10
-187.449
 20
114.48
 11
-187.49
 21
114.738
  0
LINE
  8
0
 10
-187.49
 20
114.738
 11
-187.503
 21
115
  0
LINE
  8
0
 10
-187.503
 20
115
 11
-187.49
 21
115.262
  0
LINE
  8
0
 10
-187.49
 20
115.262
 11
-187.449
 21
115.52
  0
LINE
  8
0
 10
-187.449
 20
115.52
 11
-187.381
 21
115.774
  0
LINE
  8
0
 10
-187.381
 20
115.774
 11
-187.287
 21
116.018
  0
LINE
  8
0
 10
-187.287
 20
116.018
 11
-187.168
 21
116.252
  0
LINE
  8
0
 10
-187.168
 20
116.252
 11
-187.025
 21
116.471
  0
LINE
  8
0
 10
-187.025
 20
116.471
 11
-186.86
 21
116.675
  0
LINE
  8
0
 10
-186.86
 20
116.675
 11
-186.675
 21
116.86
  0
LINE
  8
0
 10
-186.675
 20
116.86
 11
-186.471
 21
117.025
  0
LINE
  8
0
 10
-186.471
 20
117.025
 11
-186.252
 21
117.168
  0
LINE
  8
0
 10
-186.252
 20
117.168
 11
-186.018
 21
117.287
  0
LINE
  8
0
 10
-186.018
 20
117.287
 11
-185.774
 21
117.381
  0
LINE
  8
0
 10
-185.774
 20
117.381
 11
-185.52
 21
117.449
  0
LINE
  8
0
 10
-185.52
 20
117.449
 11
-185.262
 21
117.49
  0
LINE
  8
0
 10
-185.262
 20
117.49
 11
-185
 21
117.503
  0
LINE
  8
0
 10
-185
 20
117.503
 11
-184.738
 21
117.49
  0
LINE
  8
0
 10
-184.738
 20
117.49
 11
-184.48
 21
117.449
  0
LINE
  8
0
 10
-184.48
 20
117.449
 11
-184.226
 21
117.381
  0
LINE
  8
0
 10
-184.226
 20
117.381
 11
-183.982
 21
117.287
  0
LINE
  8
0
 10
-183.982
 20
117.287
 11
-183.748
 21
117.168
  0
LINE
  8
0
 10
-183.748
 20
117.168
 11
-183.529
 21
117.025
  0
LINE
  8
0
 10
-183.529
 20
117.025
 11
-183.325
 21
116.86
  0
LINE
  8
0
 10
-183.325
 20
116.86
 11
-183.14
 21
116.675
  0
LINE
  8
0
 10
-183.14
 20
116.675
 11
-182.975
 21
116.471
  0
LINE
  8
0
 10
-182.975
 20
116.471
 11
-182.832
 21
116.252
  0
LINE
  8
0
 10
-182.832
 20
116.252
 11
-182.713
 21
116.018
  0
LINE
  8
0
 10
-182.713
 20
116.018
 11
-182.619
 21
115.774
  0
LINE
  8
0
 10
-182.619
 20
115.774
 11
-182.551
 21
115.52
  0
LINE
  8
0
 10
-182.551
 20
115.52
 11
-182.51
 21
115.262
  0
LINE
  8
0
 10
-182.51
 20
115.262
 11
-182.497
 21
115
  0
LINE
  8
0
 10
-182.497
 20
115
 11
-182.51
 21
114.738
  0
LINE
  8
0
 10
-182.51
 20
114.738
 11
-182.551
 21
114.48
  0
LINE
  8
0
 10
-182.551
 20
114.48
 11
-182.619
 21
114.226
  0
LINE
  8
0
 10
-182.619
 20
114.226
 11
-182.713
 21
113.982
  0
LINE
  8
0
 10
-182.713
 20
113.982
 11
-182.832
 21
113.748
  0
LINE
  8
0
 10
-182.832
 20
113.748
 11
-182.975
 21
113.529
  0
LINE
  8
0
 10
-182.975
 20
113.529
 11
-183.14
 21
113.325
  0
LINE
  8
0
 10
-183.14
 20
113.325
 11
-183.325
 21
113.14
  0
LINE
  8
0
 10
-183.325
 20
113.14
 11
-183.529
 21
112.975
  0
LINE
  8
0
 10
-183.529
 20
112.975
 11
-183.748
 21
112.832
  0
LINE
  8
0
 10
-183.748
 20
112.832
 11
-183.982
 21
112.713
  0
LINE
  8
0
 10
-183.982
 20
112.713
 11
-184.226
 21
112.619
  0
LINE
  8
0
 10
-184.226
 20
112.619
 11
-184.48
 21
112.551
  0
LINE
  8
0
 10
-184.48
 20
112.551
 11
-184.738
 21
112.51
  0
LINE
  8
0
 10
-184.738
 20
112.51
 11
-185
 21
112.497
  0
LINE
  8
0
 10
-185
 20
112.497
 11
-185.262
 21
112.51
  0
LINE
  8
0
 10
-185.262
 20
92.5103
 11
-185.52
 21
92.5513
  0
LINE
  8
0
 10
-185.52
 20
92.5513
 11
-185.774
 21
92.6191
  0
LINE
  8
0
 10
-185.774
 20
92.6191
 11
-186.018
 21
92.713
  0
LINE
  8
0
 10
-186.018
 20
92.713
 11
-186.252
 21
92.832
  0
LINE
  8
0
 10
-186.252
 20
92.832
 11
-186.471
 21
92.9747
  0
LINE
  8
0
 10
-186.471
 20
92.9747
 11
-186.675
 21
93.1396
  0
LINE
  8
0
 10
-186.675
 20
93.1396
 11
-186.86
 21
93.3249
  0
LINE
  8
0
 10
-186.86
 20
93.3249
 11
-187.025
 21
93.5285
  0
LINE
  8
0
 10
-187.025
 20
93.5285
 11
-187.168
 21
93.7483
  0
LINE
  8
0
 10
-187.168
 20
93.7483
 11
-187.287
 21
93.9818
  0
LINE
  8
0
 10
-187.287
 20
93.9818
 11
-187.381
 21
94.2264
  0
LINE
  8
0
 10
-187.381
 20
94.2264
 11
-187.449
 21
94.4795
  0
LINE
  8
0
 10
-187.449
 20
94.4795
 11
-187.49
 21
94.7383
  0
LINE
  8
0
 10
-187.49
 20
94.7383
 11
-187.503
 21
95
  0
LINE
  8
0
 10
-187.503
 20
95
 11
-187.49
 21
95.2617
  0
LINE
  8
0
 10
-187.49
 20
95.2617
 11
-187.449
 21
95.5205
  0
LINE
  8
0
 10
-187.449
 20
95.5205
 11
-187.381
 21
95.7736
  0
LINE
  8
0
 10
-187.381
 20
95.7736
 11
-187.287
 21
96.0182
  0
LINE
  8
0
 10
-187.287
 20
96.0182
 11
-187.168
 21
96.2517
  0
LINE
  8
0
 10
-187.168
 20
96.2517
 11
-187.025
 21
96.4715
  0
LINE
  8
0
 10
-187.025
 20
96.4715
 11
-186.86
 21
96.6751
  0
LINE
  8
0
 10
-186.86
 20
96.6751
 11
-186.675
 21
96.8604
  0
LINE
  8
0
 10
-186.675
 20
96.8604
 11
-186.471
 21
97.0253
  0
LINE
  8
0
 10
-186.471
 20
97.0253
 11
-186.252
 21
97.168
  0
LINE
  8
0
 10
-186.252
 20
97.168
 11
-186.018
 21
97.287
  0
LINE
  8
0
 10
-186.018
 20
97.287
 11
-185.774
 21
97.3809
  0
LINE
  8
0
 10
-185.774
 20
97.3809
 11
-185.52
 21
97.4487
  0
LINE
  8
0
 10
-185.52
 20
97.4487
 11
-185.262
 21
97.4897
  0
LINE
  8
0
 10
-185.262
 20
97.4897
 11
-185
 21
97.5034
  0
LINE
  8
0
 10
-185
 20
97.5034
 11
-184.738
 21
97.4897
  0
LINE
  8
0
 10
-184.738
 20
97.4897
 11
-184.48
 21
97.4487
  0
LINE
  8
0
 10
-184.48
 20
97.4487
 11
-184.226
 21
97.3809
  0
LINE
  8
0
 10
-184.226
 20
97.3809
 11
-183.982
 21
97.287
  0
LINE
  8
0
 10
-183.982
 20
97.287
 11
-183.748
 21
97.168
  0
LINE
  8
0
 10
-183.748
 20
97.168
 11
-183.529
 21
97.0253
  0
LINE
  8
0
 10
-183.529
 20
97.0253
 11
-183.325
 21
96.8604
  0
LINE
  8
0
 10
-183.325
 20
96.8604
 11
-183.14
 21
96.6751
  0
LINE
  8
0
 10
-183.14
 20
96.6751
 11
-182.975
 21
96.4715
  0
LINE
  8
0
 10
-182.975
 20
96.4715
 11
-182.832
 21
96.2517
  0
LINE
  8
0
 10
-182.832
 20
96.2517
 11
-182.713
 21
96.0182
  0
LINE
  8
0
 10
-182.713
 20
96.0182
 11
-182.619
 21
95.7736
  0
LINE
  8
0
 10
-182.619
 20
95.7736
 11
-182.551
 21
95.5205
  0
LINE
  8
0
 10
-182.551
 20
95.5205
 11
-182.51
 21
95.2617
  0
LINE
  8
0
 10
-182.51
 20
95.2617
 11
-182.497
 21
95
  0
LINE
  8
0
 10
-182.497
 20
95
 11
-182.51
 21
94.7383
  0
LINE
  8
0
 10
-182.51
 20
94.7383
 11
-182.551
 21
94.4795
  0
LINE
  8
0
 10
-182.551
 20
94.4795
 11
-182.619
 21
94.2264
  0
LINE
  8
0
 10
-182.619
 20
94.2264
 11
-182.713
 21
93.9818
  0
LINE
  8
0
 10
-182.713
 20
93.9818
 11
-182.832
 21
93.7483
  0
LINE
  8
0
 10
-182.832
 20
93.7483
 11
-182.975
 21
93.5285
  0
LINE
  8
0
 10
-182.975
 20
93.5285
 11
-183.14
 21
93.3249
  0
LINE
  8
0
 10
-183.14
 20
93.3249
 11
-183.325
 21
93.1396
  0
LINE
  8
0
 10
-183.325
 20
93.1396
 11
-183.529
 21
92.9747
  0
LINE
  8
0
 10
-183.529
 20
92.9747
 11
-183.748
 21
92.832
  0
LINE
  8
0
 10
-183.748
 20
92.832
 11
-183.982
 21
92.713
  0
LINE
  8
0
 10
-183.982
 20
92.713
 11
-184.226
 21
92.6191
  0
LINE
  8
0
 10
-184.226
 20
92.6191
 11
-184.48
 21
92.5513
  0
LINE
  8
0
 10
-184.48
 20
92.5513
 11
-184.738
 21
92.5103
  0
LINE
  8
0
 10
-184.738
 20
92.5103
 11
-185
 21
92.4966
  0
LINE
  8
0
 10
-185
 20
92.4966
 11
-185.262
 21
92.5103
  0
LINE
  8
0
 10
184.753
 20
57.8104
 11
184.51
 21
57.8518
  0
LINE
  8
0
 10
184.51
 20
57.8518
 11
184.272
 21
57.9202
  0
LINE
  8
0
 10
184.272
 20
57.9202
 11
184.044
 21
58.0147
  0
LINE
  8
0
 10
184.044
 20
58.0147
 11
183.828
 21
58.1343
  0
LINE
  8
0
 10
183.828
 20
58.1343
 11
183.626
 21
58.2773
  0
LINE
  8
0
 10
183.626
 20
58.2773
 11
183.442
 21
58.4419
  0
LINE
  8
0
 10
183.442
 20
58.4419
 11
183.277
 21
58.6262
  0
LINE
  8
0
 10
183.277
 20
58.6262
 11
183.134
 21
58.8277
  0
LINE
  8
0
 10
183.134
 20
58.8277
 11
183.015
 21
59.0439
  0
LINE
  8
0
 10
183.015
 20
59.0439
 11
182.92
 21
59.2722
  0
LINE
  8
0
 10
182.92
 20
59.2722
 11
182.852
 21
59.5097
  0
LINE
  8
0
 10
182.852
 20
59.5097
 11
182.81
 21
59.7533
  0
LINE
  8
0
 10
182.81
 20
59.7533
 11
182.797
 21
60
  0
LINE
  8
0
 10
182.797
 20
60
 11
182.81
 21
60.2467
  0
LINE
  8
0
 10
182.81
 20
60.2467
 11
182.852
 21
60.4903
  0
LINE
  8
0
 10
182.852
 20
60.4903
 11
182.92
 21
60.7278
  0
LINE
  8
0
 10
182.92
 20
60.7278
 11
183.015
 21
60.956
  0
LINE
  8
0
 10
183.015
 20
60.956
 11
183.134
 21
61.1723
  0
LINE
  8
0
 10
183.134
 20
61.1723
 11
183.277
 21
61.3738
  0
LINE
  8
0
 10
183.277
 20
61.3738
 11
183.442
 21
61.5581
  0
LINE
  8
0
 10
183.442
 20
61.5581
 11
183.626
 21
61.7227
  0
LINE
  8
0
 10
183.626
 20
61.7227
 11
183.828
 21
61.8657
  0
LINE
  8
0
 10
183.828
 20
61.8657
 11
184.044
 21
61.9852
  0
LINE
  8
0
 10
184.044
 20
61.9852
 11
184.272
 21
62.0798
  0
LINE
  8
0
 10
184.272
 20
62.0798
 11
184.51
 21
62.1482
  0
LINE
  8
0
 10
184.51
 20
62.1482
 11
184.753
 21
62.1896
  0
LINE
  8
0
 10
184.753
 20
62.1896
 11
185
 21
62.2035
  0
LINE
  8
0
 10
185
 20
62.2035
 11
185.247
 21
62.1896
  0
LINE
  8
0
 10
185.247
 20
62.1896
 11
185.49
 21
62.1482
  0
LINE
  8
0
 10
185.49
 20
62.1482
 11
185.728
 21
62.0798
  0
LINE
  8
0
 10
185.728
 20
62.0798
 11
185.956
 21
61.9852
  0
LINE
  8
0
 10
185.956
 20
61.9852
 11
186.172
 21
61.8657
  0
LINE
  8
0
 10
186.172
 20
61.8657
 11
186.374
 21
61.7227
  0
LINE
  8
0
 10
186.374
 20
61.7227
 11
186.558
 21
61.5581
  0
LINE
  8
0
 10
186.558
 20
61.5581
 11
186.723
 21
61.3738
  0
LINE
  8
0
 10
186.723
 20
61.3738
 11
186.866
 21
61.1723
  0
LINE
  8
0
 10
186.866
 20
61.1723
 11
186.985
 21
60.956
  0
LINE
  8
0
 10
186.985
 20
60.956
 11
187.08
 21
60.7278
  0
LINE
  8
0
 10
187.08
 20
60.7278
 11
187.148
 21
60.4903
  0
LINE
  8
0
 10
187.148
 20
60.4903
 11
187.19
 21
60.2467
  0
LINE
  8
0
 10
187.19
 20
60.2467
 11
187.203
 21
60
  0
LINE
  8
0
 10
187.203
 20
60
 11
187.19
 21
59.7533
  0
LINE
  8
0
 10
187.19
 20
59.7533
 11
187.148
 21
59.5097
  0
LINE
  8
0
 10
187.148
 20
59.5097
 11
187.08
 21
59.2722
  0
LINE
  8
0
 10
187.08
 20
59.2722
 11
186.985
 21
59.0439
  0
LINE
  8
0
 10
186.985
 20
59.0439
 11
186.866
 21
58.8277
  0
LINE
  8
0
 10
186.866
 20
58.8277
 11
186.723
 21
58.6262
  0
LINE
  8
0
 10
186.723
 20
58.6262
 11
186.558
 21
58.4419
  0
LINE
  8
0
 10
186.558
 20
58.4419
 11
186.374
 21
58.2773
  0
LINE
  8
0
 10
186.374
 20
58.2773
 11
186.172
 21
58.1343
  0
LINE
  8
0
 10
186.172
 20
58.1343
 11
185.956
 21
58.0147
  0
LINE
  8
0
 10
185.956
 20
58.0147
 11
185.728
 21
57.9202
  0
LINE
  8
0
 10
185.728
 20
57.9202
 11
185.49
 21
57.8518
  0
LINE
  8
0
 10
185.49
 20
57.8518
 11
185.247
 21
57.8104
  0
LINE
  8
0
 10
185.247
 20
57.8104
 11
185
 21
57.7965
  0
LINE
  8
0
 10
185
 20
57.7965
 11
184.753
 21
57.8104
  0
LINE
  8
0
 10
-185.247
 20
57.8104
 11
-185.49
 21
57.8518
  0
LINE
  8
0
 10
-185.49
 20
57.8518
 11
-185.728
 21
57.9202
  0
LINE
  8
0
 10
-185.728
 20
57.9202
 11
-185.956
 21
58.0147
  0
LINE
  8
0
 10
-185.956
 20
58.0147
 11
-186.172
 21
58.1343
  0
LINE
  8
0
 10
-186.172
 20
58.1343
 11
-186.374
 21
58.2773
  0
LINE
  8
0
 10
-186.374
 20
58.2773
 11
-186.558
 21
58.4419
  0
LINE
  8
0
 10
-186.558
 20
58.4419
 11
-186.723
 21
58.6262
  0
LINE
  8
0
 10
-186.723
 20
58.6262
 11
-186.866
 21
58.8277
  0
LINE
  8
0
 10
-186.866
 20
58.8277
 11
-186.985
 21
59.0439
  0
LINE
  8
0
 10
-186.985
 20
59.0439
 11
-187.08
 21
59.2722
  0
LINE
  8
0
 10
-187.08
 20
59.2722
 11
-187.148
 21
59.5097
  0
LINE
  8
0
 10
-187.148
 20
59.5097
 11
-187.19
 21
59.7533
  0
LINE
  8
0
 10
-187.19
 20
59.7533
 11
-187.203
 21
60
  0
LINE
  8
0
 10
-187.203
 20
60
 11
-187.19
 21
60.2467
  0
LINE
  8
0
 10
-187.19
 20
60.2467
 11
-187.148
 21
60.4903
  0
LINE
  8
0
 10
-187.148
 20
60.4903
 11
-187.08
 21
60.7278
  0
LINE
  8
0
 10
-187.08
 20
60.7278
 11
-186.985
 21
60.956
  0
LINE
  8
0
 10
-186.985
 20
60.956
 11
-186.866
 21
61.1723
  0
LINE
  8
0
 10
-186.866
 20
61.1723
 11
-186.723
 21
61.3738
  0
LINE
  8
0
 10
-186.723
 20
61.3738
 11
-186.558
 21
61.5581
  0
LINE
  8
0
 10
-186.558
 20
61.5581
 11
-186.374
 21
61.7227
  0
LINE
  8
0
 10
-186.374
 20
61.7227
 11
-186.172
 21
61.8657
  0
LINE
  8
0
 10
-186.172
 20
61.8657
 11
-185.956
 21
61.9852
  0
LINE
  8
0
 10
-185.956
 20
61.9852
 11
-185.728
 21
62.0798
  0
LINE
  8
0
 10
-185.728
 20
62.0798
 11
-185.49
 21
62.1482
  0
LINE
  8
0
 10
-185.49
 20
62.1482
 11
-185.247
 21
62.1896
  0
LINE
  8
0
 10
-185.247
 20
62.1896
 11
-185
 21
62.2035
  0
LINE
  8
0
 10
-185
 20
62.2035
 11
-184.753
 21
62.1896
  0
LINE
  8
0
 10
-184.753
 20
62.1896
 11
-184.51
 21
62.1482
  0
LINE
  8
0
 10
-184.51
 20
62.1482
 11
-184.272
 21
62.0798
  0
LINE
  8
0
 10
-184.272
 20
62.0798
 11
-184.044
 21
61.9852
  0
LINE
  8
0
 10
-184.044
 20
61.9852
 11
-183.828
 21
61.8657
  0
LINE
  8
0
 10
-183.828
 20
61.8657
 11
-183.626
 21
61.7227
  0
LINE
  8
0
 10
-183.626
 20
61.7227
 11
-183.442
 21
61.5581
  0
LINE
  8
0
 10
-183.442
 20
61.5581
 11
-183.277
 21
61.3738
  0
LINE
  8
0
 10
-183.277
 20
61.3738
 11
-183.134
 21
61.1723
  0
LINE
  8
0
 10
-183.134
 20
61.1723
 11
-183.015
 21
60.956
  0
LINE
  8
0
 10
-183.015
 20
60.956
 11
-182.92
 21
60.7278
  0
LINE
  8
0
 10
-182.92
 20
60.7278
 11
-182.852
 21
60.4903
  0
LINE
  8
0
 10
-182.852
 20
60.4903
 11
-182.81
 21
60.2467
  0
LINE
  8
0
 10
-182.81
 20
60.2467
 11
-182.797
 21
60
  0
LINE
  8
0
 10
-182.797
 20
60
 11
-182.81
 21
59.7533
  0
LINE
  8
0
 10
-182.81
 20
59.7533
 11
-182.852
 21
59.5097
  0
LINE
  8
0
 10
-182.852
 20
59.5097
 11
-182.92
 21
59.2722
  0
LINE
  8
0
 10
-182.92
 20
59.2722
 11
-183.015
 21
59.0439
  0
LINE
  8
0
 10
-183.015
 20
59.0439
 11
-183.134
 21
58.8277
  0
LINE
  8
0
 10
-183.134
 20
58.8277
 11
-183.277
 21
58.6262
  0
LINE
  8
0
 10
-183.277
 20
58.6262
 11
-183.442
 21
58.4419
  0
LINE
  8
0
 10
-183.442
 20
58.4419
 11
-183.626
 21
58.2773
  0
LINE
  8
0
 10
-183.626
 20
58.2773
 11
-183.828
 21
58.1343
  0
LINE
  8
0
 10
-183.828
 20
58.1343
 11
-184.044
 21
58.0147
  0
LINE
  8
0
 10
-184.044
 20
58.0147
 11
-184.272
 21
57.9202
  0
LINE
  8
0
 10
-184.272
 20
57.9202
 11
-184.51
 21
57.8518
  0
LINE
  8
0
 10
-184.51
 20
57.8518
 11
-184.753
 21
57.8104
  0
LINE
  8
0
 10
-184.753
 20
57.8104
 11
-185
 21
57.7965
  0
LINE
  8
0
 10
-185
 20
57.7965
 11
-185.247
 21
57.8104
  0
LINE
  8
0
 10
184.738
 20
22.5103
 11
184.48
 21
22.5513
  0
LINE
  8
0
 10
184.48
 20
22.5513
 11
184.226
 21
22.6191
  0
LINE
  8
0
 10
184.226
 20
22.6191
 11
183.982
 21
22.713
  0
LINE
  8
0
 10
183.982
 20
22.713
 11
183.748
 21
22.832
  0
LINE
  8
0
 10
183.748
 20
22.832
 11
183.529
 21
22.9747
  0
LINE
  8
0
 10
183.529
 20
22.9747
 11
183.325
 21
23.1396
  0
LINE
  8
0
 10
183.325
 20
23.1396
 11
183.14
 21
23.3249
  0
LINE
  8
0
 10
183.14
 20
23.3249
 11
182.975
 21
23.5285
  0
LINE
  8
0
 10
182.975
 20
23.5285
 11
182.832
 21
23.7483
  0
LINE
  8
0
 10
182.832
 20
23.7483
 11
182.713
 21
23.9818
  0
LINE
  8
0
 10
182.713
 20
23.9818
 11
182.619
 21
24.2264
  0
LINE
  8
0
 10
182.619
 20
24.2264
 11
182.551
 21
24.4795
  0
LINE
  8
0
 10
182.551
 20
24.4795
 11
182.51
 21
24.7383
  0
LINE
  8
0
 10
182.51
 20
24.7383
 11
182.497
 21
25
  0
LINE
  8
0
 10
182.497
 20
25
 11
182.51
 21
25.2617
  0
LINE
  8
0
 10
182.51
 20
25.2617
 11
182.551
 21
25.5205
  0
LINE
  8
0
 10
182.551
 20
25.5205
 11
182.619
 21
25.7736
  0
LINE
  8
0
 10
182.619
 20
25.7736
 11
182.713
 21
26.0182
  0
LINE
  8
0
 10
182.713
 20
26.0182
 11
182.832
 21
26.2517
  0
LINE
  8
0
 10
182.832
 20
26.2517
 11
182.975
 21
26.4715
  0
LINE
  8
0
 10
182.975
 20
26.4715
 11
183.14
 21
26.6751
  0
LINE
  8
0
 10
183.14
 20
26.6751
 11
183.325
 21
26.8604
  0
LINE
  8
0
 10
183.325
 20
26.8604
 11
183.529
 21
27.0253
  0
LINE
  8
0
 10
183.529
 20
27.0253
 11
183.748
 21
27.168
  0
LINE
  8
0
 10
183.748
 20
27.168
 11
183.982
 21
27.287
  0
LINE
  8
0
 10
183.982
 20
27.287
 11
184.226
 21
27.3809
  0
LINE
  8
0
 10
184.226
 20
27.3809
 11
184.48
 21
27.4487
  0
LINE
  8
0
 10
184.48
 20
27.4487
 11
184.738
 21
27.4897
  0
LINE
  8
0
 10
184.738
 20
27.4897
 11
185
 21
27.5034
  0
LINE
  8
0
 10
185
 20
27.5034
 11
185.262
 21
27.4897
  0
LINE
  8
0
 10
185.262
 20
27.4897
 11
185.52
 21
27.4487
  0
LINE
  8
0
 10
185.52
 20
27.4487
 11
185.774
 21
27.3809
  0
LINE
  8
0
 10
185.774
 20
27.3809
 11
186.018
 21
27.287
  0
LINE
  8
0
 10
186.018
 20
27.287
 11
186.252
 21
27.168
  0
LINE
  8
0
 10
186.252
 20
27.168
 11
186.471
 21
27.0253
  0
LINE
  8
0
 10
186.471
 20
27.0253
 11
186.675
 21
26.8604
  0
LINE
  8
0
 10
186.675
 20
26.8604
 11
186.86
 21
26.6751
  0
LINE
  8
0
 10
186.86
 20
26.6751
 11
187.025
 21
26.4715
  0
LINE
  8
0
 10
187.025
 20
26.4715
 11
187.168
 21
26.2517
  0
LINE
  8
0
 10
187.168
 20
26.2517
 11
187.287
 21
26.0182
  0
LINE
  8
0
 10
187.287
 20
26.0182
 11
187.381
 21
25.7736
  0
LINE
  8
0
 10
187.381
 20
25.7736
 11
187.449
 21
25.5205
  0
LINE
  8
0
 10
187.449
 20
25.5205
 11
187.49
 21
25.2617
  0
LINE
  8
0
 10
187.49
 20
25.2617
 11
187.503
 21
25
  0
LINE
  8
0
 10
187.503
 20
25
 11
187.49
 21
24.7383
  0
LINE
  8
0
 10
187.49
 20
24.7383
 11
187.449
 21
24.4795
  0
LINE
  8
0
 10
187.449
 20
24.4795
 11
187.381
 21
24.2264
  0
LINE
  8
0
 10
187.381
 20
24.2264
 11
187.287
 21
23.9818
  0
LINE
  8
0
 10
187.287
 20
23.9818
 11
187.168
 21
23.7483
  0
LINE
  8
0
 10
187.168
 20
23.7483
 11
187.025
 21
23.5285
  0
LINE
  8
0
 10
187.025
 20
23.5285
 11
186.86
 21
23.3249
  0
LINE
  8
0
 10
186.86
 20
23.3249
 11
186.675
 21
23.1396
  0
LINE
  8
0
 10
186.675
 20
23.1396
 11
186.471
 21
22.9747
  0
LINE
  8
0
 10
186.471
 20
22.9747
 11
186.252
 21
22.832
  0
LINE
  8
0
 10
186.252
 20
22.832
 11
186.018
 21
22.713
  0
LINE
  8
0
 10
186.018
 20
22.713
 11
185.774
 21
22.6191
  0
LINE
  8
0
 10
185.774
 20
22.6191
 11
185.52
 21
22.5513
  0
LINE
  8
0
 10
185.52
 20
22.5513
 11
185.262
 21
22.5103
  0
LINE
  8
0
 10
185.262
 20
22.5103
 11
185
 21
22.4966
  0
LINE
  8
0
 10
185
 20
22.4966
 11
184.738
 21
22.5103
  0
LINE
  8
0
 10
184.738
 20
2.51027
 11
184.48
 21
2.55127
  0
LINE
  8
0
 10
184.48
 20
2.55127
 11
184.226
 21
2.61909
  0
LINE
  8
0
 10
184.226
 20
2.61909
 11
183.982
 21
2.713
  0
LINE
  8
0
 10
183.982
 20
2.713
 11
183.748
 21
2.83195
  0
LINE
  8
0
 10
183.748
 20
2.83195
 11
183.529
 21
2.97467
  0
LINE
  8
0
 10
183.529
 20
2.97467
 11
183.325
 21
3.13959
  0
LINE
  8
0
 10
183.325
 20
3.13959
 11
183.14
 21
3.32487
  0
LINE
  8
0
 10
183.14
 20
3.32487
 11
182.975
 21
3.52852
  0
LINE
  8
0
 10
182.975
 20
3.52852
 11
182.832
 21
3.74828
  0
LINE
  8
0
 10
182.832
 20
3.74828
 11
182.713
 21
3.98175
  0
LINE
  8
0
 10
182.713
 20
3.98175
 11
182.619
 21
4.22639
  0
LINE
  8
0
 10
182.619
 20
4.22639
 11
182.551
 21
4.47951
  0
LINE
  8
0
 10
182.551
 20
4.47951
 11
182.51
 21
4.73831
  0
LINE
  8
0
 10
182.51
 20
4.73831
 11
182.497
 21
5
  0
LINE
  8
0
 10
182.497
 20
5
 11
182.51
 21
5.26167
  0
LINE
  8
0
 10
182.51
 20
5.26167
 11
182.551
 21
5.52048
  0
LINE
  8
0
 10
182.551
 20
5.52048
 11
182.619
 21
5.77359
  0
LINE
  8
0
 10
182.619
 20
5.77359
 11
182.713
 21
6.01823
  0
LINE
  8
0
 10
182.713
 20
6.01823
 11
182.832
 21
6.25171
  0
LINE
  8
0
 10
182.832
 20
6.25171
 11
182.975
 21
6.47147
  0
LINE
  8
0
 10
182.975
 20
6.47147
 11
183.14
 21
6.67511
  0
LINE
  8
0
 10
183.14
 20
6.67511
 11
183.325
 21
6.8604
  0
LINE
  8
0
 10
183.325
 20
6.8604
 11
183.529
 21
7.02531
  0
LINE
  8
0
 10
183.529
 20
7.02531
 11
183.748
 21
7.16803
  0
LINE
  8
0
 10
183.748
 20
7.16803
 11
183.982
 21
7.28699
  0
LINE
  8
0
 10
183.982
 20
7.28699
 11
184.226
 21
7.38089
  0
LINE
  8
0
 10
184.226
 20
7.38089
 11
184.48
 21
7.44872
  0
LINE
  8
0
 10
184.48
 20
7.44872
 11
184.738
 21
7.48972
  0
LINE
  8
0
 10
184.738
 20
7.48972
 11
185
 21
7.50342
  0
LINE
  8
0
 10
185
 20
7.50342
 11
185.262
 21
7.48972
  0
LINE
  8
0
 10
185.262
 20
7.48972
 11
185.52
 21
7.44872
  0
LINE
  8
0
 10
185.52
 20
7.44872
 11
185.774
 21
7.38089
  0
LINE
  8
0
 10
185.774
 20
7.38089
 11
186.018
 21
7.28699
  0
LINE
  8
0
 10
186.018
 20
7.28699
 11
186.252
 21
7.16803
  0
LINE
  8
0
 10
186.252
 20
7.16803
 11
186.471
 21
7.02531
  0
LINE
  8
0
 10
186.471
 20
7.02531
 11
186.675
 21
6.8604
  0
LINE
  8
0
 10
186.675
 20
6.8604
 11
186.86
 21
6.67511
  0
LINE
  8
0
 10
186.86
 20
6.67511
 11
187.025
 21
6.47147
  0
LINE
  8
0
 10
187.025
 20
6.47147
 11
187.168
 21
6.25171
  0
LINE
  8
0
 10
187.168
 20
6.25171
 11
187.287
 21
6.01823
  0
LINE
  8
0
 10
187.287
 20
6.01823
 11
187.381
 21
5.77359
  0
LINE
  8
0
 10
187.381
 20
5.77359
 11
187.449
 21
5.52048
  0
LINE
  8
0
 10
187.449
 20
5.52048
 11
187.49
 21
5.26167
  0
LINE
  8
0
 10
187.49
 20
5.26167
 11
187.503
 21
5
  0
LINE
  8
0
 10
187.503
 20
5
 11
187.49
 21
4.73831
  0
LINE
  8
0
 10
187.49
 20
4.73831
 11
187.449
 21
4.47951
  0
LINE
  8
0
 10
187.449
 20
4.47951
 11
187.381
 21
4.22639
  0
LINE
  8
0
 10
187.381
 20
4.22639
 11
187.287
 21
3.98175
  0
LINE
  8
0
 10
187.287
 20
3.98175
 11
187.168
 21
3.74828
  0
LINE
  8
0
 10
187.168
 20
3.74828
 11
187.025
 21
3.52852
  0
LINE
  8
0
 10
187.025
 20
3.52852
 11
186.86
 21
3.32487
  0
LINE
  8
0
 10
186.86
 20
3.32487
 11
186.675
 21
3.13959
  0
LINE
  8
0
 10
186.675
 20
3.13959
 11
186.471
 21
2.97467
  0
LINE
  8
0
 10
186.471
 20
2.97467
 11
186.252
 21
2.83195
  0
LINE
  8
0
 10
186.252
 20
2.83195
 11
186.018
 21
2.713
  0
LINE
  8
0
 10
186.018
 20
2.713
 11
185.774
 21
2.61909
  0
LINE
  8
0
 10
185.774
 20
2.61909
 11
185.52
 21
2.55127
  0
LINE
  8
0
 10
185.52
 20
2.55127
 11
185.262
 21
2.51027
  0
LINE
  8
0
 10
185.262
 20
2.51027
 11
185
 21
2.49657
  0
LINE
  8
0
 10
185
 20
2.49657
 11
184.738
 21
2.51027
  0
LINE
  8
0
 10
-185.247
 20
-62.1896
 11
-185.49
 21
-62.1482
  0
LINE
  8
0
 10
-185.49
 20
-62.1482
 11
-185.728
 21
-62.0798
  0
LINE
  8
0
 10
-185.728
 20
-62.0798
 11
-185.956
 21
-61.9853
  0
LINE
  8
0
 10
-185.956
 20
-61.9853
 11
-186.172
 21
-61.8657
  0
LINE
  8
0
 10
-186.172
 20
-61.8657
 11
-186.374
 21
-61.7227
  0
LINE
  8
0
 10
-186.374
 20
-61.7227
 11
-186.558
 21
-61.5581
  0
LINE
  8
0
 10
-186.558
 20
-61.5581
 11
-186.723
 21
-61.3738
  0
LINE
  8
0
 10
-186.723
 20
-61.3738
 11
-186.866
 21
-61.1723
  0
LINE
  8
0
 10
-186.866
 20
-61.1723
 11
-186.985
 21
-60.9561
  0
LINE
  8
0
 10
-186.985
 20
-60.9561
 11
-187.08
 21
-60.7278
  0
LINE
  8
0
 10
-187.08
 20
-60.7278
 11
-187.148
 21
-60.4903
  0
LINE
  8
0
 10
-187.148
 20
-60.4903
 11
-187.19
 21
-60.2467
  0
LINE
  8
0
 10
-187.19
 20
-60.2467
 11
-187.203
 21
-60
  0
LINE
  8
0
 10
-187.203
 20
-60
 11
-187.19
 21
-59.7533
  0
LINE
  8
0
 10
-187.19
 20
-59.7533
 11
-187.148
 21
-59.5097
  0
LINE
  8
0
 10
-187.148
 20
-59.5097
 11
-187.08
 21
-59.2722
  0
LINE
  8
0
 10
-187.08
 20
-59.2722
 11
-186.985
 21
-59.044
  0
LINE
  8
0
 10
-186.985
 20
-59.044
 11
-186.866
 21
-58.8277
  0
LINE
  8
0
 10
-186.866
 20
-58.8277
 11
-186.723
 21
-58.6262
  0
LINE
  8
0
 10
-186.723
 20
-58.6262
 11
-186.558
 21
-58.4419
  0
LINE
  8
0
 10
-186.558
 20
-58.4419
 11
-186.374
 21
-58.2773
  0
LINE
  8
0
 10
-186.374
 20
-58.2773
 11
-186.172
 21
-58.1343
  0
LINE
  8
0
 10
-186.172
 20
-58.1343
 11
-185.956
 21
-58.0148
  0
LINE
  8
0
 10
-185.956
 20
-58.0148
 11
-185.728
 21
-57.9202
  0
LINE
  8
0
 10
-185.728
 20
-57.9202
 11
-185.49
 21
-57.8518
  0
LINE
  8
0
 10
-185.49
 20
-57.8518
 11
-185.247
 21
-57.8104
  0
LINE
  8
0
 10
-185.247
 20
-57.8104
 11
-185
 21
-57.7965
  0
LINE
  8
0
 10
-185
 20
-57.7965
 11
-184.753
 21
-57.8104
  0
LINE
  8
0
 10
-184.753
 20
-57.8104
 11
-184.51
 21
-57.8518
  0
LINE
  8
0
 10
-184.51
 20
-57.8518
 11
-184.272
 21
-57.9202
  0
LINE
  8
0
 10
-184.272
 20
-57.9202
 11
-184.044
 21
-58.0148
  0
LINE
  8
0
 10
-184.044
 20
-58.0148
 11
-183.828
 21
-58.1343
  0
LINE
  8
0
 10
-183.828
 20
-58.1343
 11
-183.626
 21
-58.2773
  0
LINE
  8
0
 10
-183.626
 20
-58.2773
 11
-183.442
 21
-58.4419
  0
LINE
  8
0
 10
-183.442
 20
-58.4419
 11
-183.277
 21
-58.6262
  0
LINE
  8
0
 10
-183.277
 20
-58.6262
 11
-183.134
 21
-58.8277
  0
LINE
  8
0
 10
-183.134
 20
-58.8277
 11
-183.015
 21
-59.044
  0
LINE
  8
0
 10
-183.015
 20
-59.044
 11
-182.92
 21
-59.2722
  0
LINE
  8
0
 10
-182.92
 20
-59.2722
 11
-182.852
 21
-59.5097
  0
LINE
  8
0
 10
-182.852
 20
-59.5097
 11
-182.81
 21
-59.7533
  0
LINE
  8
0
 10
-182.81
 20
-59.7533
 11
-182.797
 21
-60
  0
LINE
  8
0
 10
-182.797
 20
-60
 11
-182.81
 21
-60.2467
  0
LINE
  8
0
 10
-182.81
 20
-60.2467
 11
-182.852
 21
-60.4903
  0
LINE
  8
0
 10
-182.852
 20
-60.4903
 11
-182.92
 21
-60.7278
  0
LINE
  8
0
 10
-182.92
 20
-60.7278
 11
-183.015
 21
-60.9561
  0
LINE
  8
0
 10
-183.015
 20
-60.9561
 11
-183.134
 21
-61.1723
  0
LINE
  8
0
 10
-183.134
 20
-61.1723
 11
-183.277
 21
-61.3738
  0
LINE
  8
0
 10
-183.277
 20
-61.3738
 11
-183.442
 21
-61.5581
  0
LINE
  8
0
 10
-183.442
 20
-61.5581
 11
-183.626
 21
-61.7227
  0
LINE
  8
0
 10
-183.626
 20
-61.7227
 11
-183.828
 21
-61.8657
  0
LINE
  8
0
 10
-183.828
 20
-61.8657
 11
-184.044
 21
-61.9853
  0
LINE
  8
0
 10
-184.044
 20
-61.9853
 11
-184.272
 21
-62.0798
  0
LINE
  8
0
 10
-184.272
 20
-62.0798
 11
-184.51
 21
-62.1482
  0
LINE
  8
0
 10
-184.51
 20
-62.1482
 11
-184.753
 21
-62.1896
  0
LINE
  8
0
 10
-184.753
 20
-62.1896
 11
-185
 21
-62.2035
  0
LINE
  8
0
 10
-185
 20
-62.2035
 11
-185.247
 21
-62.1896
  0
LINE
  8
0
 10
184.753
 20
-62.1896
 11
184.51
 21
-62.1482
  0
LINE
  8
0
 10
184.51
 20
-62.1482
 11
184.272
 21
-62.0798
  0
LINE
  8
0
 10
184.272
 20
-62.0798
 11
184.044
 21
-61.9853
  0
LINE
  8
0
 10
184.044
 20
-61.9853
 11
183.828
 21
-61.8657
  0
LINE
  8
0
 10
183.828
 20
-61.8657
 11
183.626
 21
-61.7227
  0
LINE
  8
0
 10
183.626
 20
-61.7227
 11
183.442
 21
-61.5581
  0
LINE
  8
0
 10
183.442
 20
-61.5581
 11
183.277
 21
-61.3738
  0
LINE
  8
0
 10
183.277
 20
-61.3738
 11
183.134
 21
-61.1723
  0
LINE
  8
0
 10
183.134
 20
-61.1723
 11
183.015
 21
-60.9561
  0
LINE
  8
0
 10
183.015
 20
-60.9561
 11
182.92
 21
-60.7278
  0
LINE
  8
0
 10
182.92
 20
-60.7278
 11
182.852
 21
-60.4903
  0
LINE
  8
0
 10
182.852
 20
-60.4903
 11
182.81
 21
-60.2467
  0
LINE
  8
0
 10
182.81
 20
-60.2467
 11
182.797
 21
-60
  0
LINE
  8
0
 10
182.797
 20
-60
 11
182.81
 21
-59.7533
  0
LINE
  8
0
 10
182.81
 20
-59.7533
 11
182.852
 21
-59.5097
  0
LINE
  8
0
 10
182.852
 20
-59.5097
 11
182.92
 21
-59.2722
  0
LINE
  8
0
 10
182.92
 20
-59.2722
 11
183.015
 21
-59.044
  0
LINE
  8
0
 10
183.015
 20
-59.044
 11
183.134
 21
-58.8277
  0
LINE
  8
0
 10
183.134
 20
-58.8277
 11
183.277
 21
-58.6262
  0
LINE
  8
0
 10
183.277
 20
-58.6262
 11
183.442
 21
-58.4419
  0
LINE
  8
0
 10
183.442
 20
-58.4419
 11
183.626
 21
-58.2773
  0
LINE
  8
0
 10
183.626
 20
-58.2773
 11
183.828
 21
-58.1343
  0
LINE
  8
0
 10
183.828
 20
-58.1343
 11
184.044
 21
-58.0148
  0
LINE
  8
0
 10
184.044
 20
-58.0148
 11
184.272
 21
-57.9202
  0
LINE
  8
0
 10
184.272
 20
-57.9202
 11
184.51
 21
-57.8518
  0
LINE
  8
0
 10
184.51
 20
-57.8518
 11
184.753
 21
-57.8104
  0
LINE
  8
0
 10
184.753
 20
-57.8104
 11
185
 21
-57.7965
  0
LINE
  8
0
 10
185
 20
-57.7965
 11
185.247
 21
-57.8104
  0
LINE
  8
0
 10
185.247
 20
-57.8104
 11
185.49
 21
-57.8518
  0
LINE
  8
0
 10
185.49
 20
-57.8518
 11
185.728
 21
-57.9202
  0
LINE
  8
0
 10
185.728
 20
-57.9202
 11
185.956
 21
-58.0148
  0
LINE
  8
0
 10
185.956
 20
-58.0148
 11
186.172
 21
-58.1343
  0
LINE
  8
0
 10
186.172
 20
-58.1343
 11
186.374
 21
-58.2773
  0
LINE
  8
0
 10
186.374
 20
-58.2773
 11
186.558
 21
-58.4419
  0
LINE
  8
0
 10
186.558
 20
-58.4419
 11
186.723
 21
-58.6262
  0
LINE
  8
0
 10
186.723
 20
-58.6262
 11
186.866
 21
-58.8277
  0
LINE
  8
0
 10
186.866
 20
-58.8277
 11
186.985
 21
-59.044
  0
LINE
  8
0
 10
186.985
 20
-59.044
 11
187.08
 21
-59.2722
  0
LINE
  8
0
 10
187.08
 20
-59.2722
 11
187.148
 21
-59.5097
  0
LINE
  8
0
 10
187.148
 20
-59.5097
 11
187.19
 21
-59.7533
  0
LINE
  8
0
 10
187.19
 20
-59.7533
 11
187.203
 21
-60
  0
LINE
  8
0
 10
187.203
 20
-60
 11
187.19
 21
-60.2467
  0
LINE
  8
0
 10
187.19
 20
-60.2467
 11
187.148
 21
-60.4903
  0
LINE
  8
0
 10
187.148
 20
-60.4903
 11
187.08
 21
-60.7278
  0
LINE
  8
0
 10
187.08
 20
-60.7278
 11
186.985
 21
-60.9561
  0
LINE
  8
0
 10
186.985
 20
-60.9561
 11
186.866
 21
-61.1723
  0
LINE
  8
0
 10
186.866
 20
-61.1723
 11
186.723
 21
-61.3738
  0
LINE
  8
0
 10
186.723
 20
-61.3738
 11
186.558
 21
-61.5581
  0
LINE
  8
0
 10
186.558
 20
-61.5581
 11
186.374
 21
-61.7227
  0
LINE
  8
0
 10
186.374
 20
-61.7227
 11
186.172
 21
-61.8657
  0
LINE
  8
0
 10
186.172
 20
-61.8657
 11
185.956
 21
-61.9853
  0
LINE
  8
0
 10
185.956
 20
-61.9853
 11
185.728
 21
-62.0798
  0
LINE
  8
0
 10
185.728
 20
-62.0798
 11
185.49
 21
-62.1482
  0
LINE
  8
0
 10
185.49
 20
-62.1482
 11
185.247
 21
-62.1896
  0
LINE
  8
0
 10
185.247
 20
-62.1896
 11
185
 21
-62.2035
  0
LINE
  8
0
 10
185
 20
-62.2035
 11
184.753
 21
-62.1896
  0
LINE
  8
0
 10
184.738
 20
-102.49
 11
184.48
 21
-102.449
  0
LINE
  8
0
 10
184.48
 20
-102.449
 11
184.226
 21
-102.381
  0
LINE
  8
0
 10
184.226
 20
-102.381
 11
183.982
 21
-102.287
  0
LINE
  8
0
 10
183.982
 20
-102.287
 11
183.748
 21
-102.168
  0
LINE
  8
0
 10
183.748
 20
-102.168
 11
183.529
 21
-102.025
  0
LINE
  8
0
 10
183.529
 20
-102.025
 11
183.325
 21
-101.86
  0
LINE
  8
0
 10
183.325
 20
-101.86
 11
183.14
 21
-101.675
  0
LINE
  8
0
 10
183.14
 20
-101.675
 11
182.975
 21
-101.471
  0
LINE
  8
0
 10
182.975
 20
-101.471
 11
182.832
 21
-101.252
  0
LINE
  8
0
 10
182.832
 20
-101.252
 11
182.713
 21
-101.018
  0
LINE
  8
0
 10
182.713
 20
-101.018
 11
182.619
 21
-100.774
  0
LINE
  8
0
 10
182.619
 20
-100.774
 11
182.551
 21
-100.52
  0
LINE
  8
0
 10
182.551
 20
-100.52
 11
182.51
 21
-100.262
  0
LINE
  8
0
 10
182.51
 20
-100.262
 11
182.497
 21
-100
  0
LINE
  8
0
 10
182.497
 20
-100
 11
182.51
 21
-99.7383
  0
LINE
  8
0
 10
182.51
 20
-99.7383
 11
182.551
 21
-99.4795
  0
LINE
  8
0
 10
182.551
 20
-99.4795
 11
182.619
 21
-99.2264
  0
LINE
  8
0
 10
182.619
 20
-99.2264
 11
182.713
 21
-98.9818
  0
LINE
  8
0
 10
182.713
 20
-98.9818
 11
182.832
 21
-98.7483
  0
LINE
  8
0
 10
182.832
 20
-98.7483
 11
182.975
 21
-98.5285
  0
LINE
  8
0
 10
182.975
 20
-98.5285
 11
183.14
 21
-98.3249
  0
LINE
  8
0
 10
183.14
 20
-98.3249
 11
183.325
 21
-98.1396
  0
LINE
  8
0
 10
183.325
 20
-98.1396
 11
183.529
 21
-97.9747
  0
LINE
  8
0
 10
183.529
 20
-97.9747
 11
183.748
 21
-97.832
  0
LINE
  8
0
 10
183.748
 20
-97.832
 11
183.982
 21
-97.713
  0
LINE
  8
0
 10
183.982
 20
-97.713
 11
184.226
 21
-97.6191
  0
LINE
  8
0
 10
184.226
 20
-97.6191
 11
184.48
 21
-97.5513
  0
LINE
  8
0
 10
184.48
 20
-97.5513
 11
184.738
 21
-97.5103
  0
LINE
  8
0
 10
184.738
 20
-97.5103
 11
185
 21
-97.4966
  0
LINE
  8
0
 10
185
 20
-97.4966
 11
185.262
 21
-97.5103
  0
LINE
  8
0
 10
185.262
 20
-97.5103
 11
185.52
 21
-97.5513
  0
LINE
  8
0
 10
185.52
 20
-97.5513
 11
185.774
 21
-97.6191
  0
LINE
  8
0
 10
185.774
 20
-97.6191
 11
186.018
 21
-97.713
  0
LINE
  8
0
 10
186.018
 20
-97.713
 11
186.252
 21
-97.832
  0
LINE
  8
0
 10
186.252
 20
-97.832
 11
186.471
 21
-97.9747
  0
LINE
  8
0
 10
186.471
 20
-97.9747
 11
186.675
 21
-98.1396
  0
LINE
  8
0
 10
186.675
 20
-98.1396
 11
186.86
 21
-98.3249
  0
LINE
  8
0
 10
186.86
 20
-98.3249
 11
187.025
 21
-98.5285
  0
LINE
  8
0
 10
187.025
 20
-98.5285
 11
187.168
 21
-98.7483
  0
LINE
  8
0
 10
187.168
 20
-98.7483
 11
187.287
 21
-98.9818
  0
LINE
  8
0
 10
187.287
 20
-98.9818
 11
187.381
 21
-99.2264
  0
LINE
  8
0
 10
187.381
 20
-99.2264
 11
187.449
 21
-99.4795
  0
LINE
  8
0
 10
187.449
 20
-99.4795
 11
187.49
 21
-99.7383
  0
LINE
  8
0
 10
187.49
 20
-99.7383
 11
187.503
 21
-100
  0
LINE
  8
0
 10
187.503
 20
-100
 11
187.49
 21
-100.262
  0
LINE
  8
0
 10
187.49
 20
-100.262
 11
187.449
 21
-100.52
  0
LINE
  8
0
 10
187.449
 20
-100.52
 11
187.381
 21
-100.774
  0
LINE
  8
0
 10
187.381
 20
-100.774
 11
187.287
 21
-101.018
  0
LINE
  8
0
 10
187.287
 20
-101.018
 11
187.168
 21
-101.252
  0
LINE
  8
0
 10
187.168
 20
-101.252
 11
187.025
 21
-101.471
  0
LINE
  8
0
 10
187.025
 20
-101.471
 11
186.86
 21
-101.675
  0
LINE
  8
0
 10
186.86
 20
-101.675
 11
186.675
 21
-101.86
  0
LINE
  8
0
 10
186.675
 20
-101.86
 11
186.471
 21
-102.025
  0
LINE
  8
0
 10
186.471
 20
-102.025
 11
186.252
 21
-102.168
  0
LINE
  8
0
 10
186.252
 20
-102.168
 11
186.018
 21
-102.287
  0
LINE
  8
0
 10
186.018
 20
-102.287
 11
185.774
 21
-102.381
  0
LINE
  8
0
 10
185.774
 20
-102.381
 11
185.52
 21
-102.449
  0
LINE
  8
0
 10
185.52
 20
-102.449
 11
185.262
 21
-102.49
  0
LINE
  8
0
 10
185.262
 20
-102.49
 11
185
 21
-102.503
  0
LINE
  8
0
 10
185
 20
-102.503
 11
184.738
 21
-102.49
  0
LINE
  8
0
 10
184.738
 20
-122.49
 11
184.48
 21
-122.449
  0
LINE
  8
0
 10
184.48
 20
-122.449
 11
184.226
 21
-122.381
  0
LINE
  8
0
 10
184.226
 20
-122.381
 11
183.982
 21
-122.287
  0
LINE
  8
0
 10
183.982
 20
-122.287
 11
183.748
 21
-122.168
  0
LINE
  8
0
 10
183.748
 20
-122.168
 11
183.529
 21
-122.025
  0
LINE
  8
0
 10
183.529
 20
-122.025
 11
183.325
 21
-121.86
  0
LINE
  8
0
 10
183.325
 20
-121.86
 11
183.14
 21
-121.675
  0
LINE
  8
0
 10
183.14
 20
-121.675
 11
182.975
 21
-121.471
  0
LINE
  8
0
 10
182.975
 20
-121.471
 11
182.832
 21
-121.252
  0
LINE
  8
0
 10
182.832
 20
-121.252
 11
182.713
 21
-121.018
  0
LINE
  8
0
 10
182.713
 20
-121.018
 11
182.619
 21
-120.774
  0
LINE
  8
0
 10
182.619
 20
-120.774
 11
182.551
 21
-120.52
  0
LINE
  8
0
 10
182.551
 20
-120.52
 11
182.51
 21
-120.262
  0
LINE
  8
0
 10
182.51
 20
-120.262
 11
182.497
 21
-120
  0
LINE
  8
0
 10
182.497
 20
-120
 11
182.51
 21
-119.738
  0
LINE
  8
0
 10
182.51
 20
-119.738
 11
182.551
 21
-119.48
  0
LINE
  8
0
 10
182.551
 20
-119.48
 11
182.619
 21
-119.226
  0
LINE
  8
0
 10
182.619
 20
-119.226
 11
182.713
 21
-118.982
  0
LINE
  8
0
 10
182.713
 20
-118.982
 11
182.832
 21
-118.748
  0
LINE
  8
0
 10
182.832
 20
-118.748
 11
182.975
 21
-118.529
  0
LINE
  8
0
 10
182.975
 20
-118.529
 11
183.14
 21
-118.325
  0
LINE
  8
0
 10
183.14
 20
-118.325
 11
183.325
 21
-118.14
  0
LINE
  8
0
 10
183.325
 20
-118.14
 11
183.529
 21
-117.975
  0
LINE
  8
0
 10
183.529
 20
-117.975
 11
183.748
 21
-117.832
  0
LINE
  8
0
 10
183.748
 20
-117.832
 11
183.982
 21
-117.713
  0
LINE
  8
0
 10
183.982
 20
-117.713
 11
184.226
 21
-117.619
  0
LINE
  8
0
 10
184.226
 20
-117.619
 11
184.48
 21
-117.551
  0
LINE
  8
0
 10
184.48
 20
-117.551
 11
184.738
 21
-117.51
  0
LINE
  8
0
 10
184.738
 20
-117.51
 11
185
 21
-117.497
  0
LINE
  8
0
 10
185
 20
-117.497
 11
185.262
 21
-117.51
  0
LINE
  8
0
 10
185.262
 20
-117.51
 11
185.52
 21
-117.551
  0
LINE
  8
0
 10
185.52
 20
-117.551
 11
185.774
 21
-117.619
  0
LINE
  8
0
 10
185.774
 20
-117.619
 11
186.018
 21
-117.713
  0
LINE
  8
0
 10
186.018
 20
-117.713
 11
186.252
 21
-117.832
  0
LINE
  8
0
 10
186.252
 20
-117.832
 11
186.471
 21
-117.975
  0
LINE
  8
0
 10
186.471
 20
-117.975
 11
186.675
 21
-118.14
  0
LINE
  8
0
 10
186.675
 20
-118.14
 11
186.86
 21
-118.325
  0
LINE
  8
0
 10
186.86
 20
-118.325
 11
187.025
 21
-118.529
  0
LINE
  8
0
 10
187.025
 20
-118.529
 11
187.168
 21
-118.748
  0
LINE
  8
0
 10
187.168
 20
-118.748
 11
187.287
 21
-118.982
  0
LINE
  8
0
 10
187.287
 20
-118.982
 11
187.381
 21
-119.226
  0
LINE
  8
0
 10
187.381
 20
-119.226
 11
187.449
 21
-119.48
  0
LINE
  8
0
 10
187.449
 20
-119.48
 11
187.49
 21
-119.738
  0
LINE
  8
0
 10
187.49
 20
-119.738
 11
187.503
 21
-120
  0
LINE
  8
0
 10
187.503
 20
-120
 11
187.49
 21
-120.262
  0
LINE
  8
0
 10
187.49
 20
-120.262
 11
187.449
 21
-120.52
  0
LINE
  8
0
 10
187.449
 20
-120.52
 11
187.381
 21
-120.774
  0
LINE
  8
0
 10
187.381
 20
-120.774
 11
187.287
 21
-121.018
  0
LINE
  8
0
 10
187.287
 20
-121.018
 11
187.168
 21
-121.252
  0
LINE
  8
0
 10
187.168
 20
-121.252
 11
187.025
 21
-121.471
  0
LINE
  8
0
 10
187.025
 20
-121.471
 11
186.86
 21
-121.675
  0
LINE
  8
0
 10
186.86
 20
-121.675
 11
186.675
 21
-121.86
  0
LINE
  8
0
 10
186.675
 20
-121.86
 11
186.471
 21
-122.025
  0
LINE
  8
0
 10
186.471
 20
-122.025
 11
186.252
 21
-122.168
  0
LINE
  8
0
 10
186.252
 20
-122.168
 11
186.018
 21
-122.287
  0
LINE
  8
0
 10
186.018
 20
-122.287
 11
185.774
 21
-122.381
  0
LINE
  8
0
 10
185.774
 20
-122.381
 11
185.52
 21
-122.449
  0
LINE
  8
0
 10
185.52
 20
-122.449
 11
185.262
 21
-122.49
  0
LINE
  8
0
 10
185.262
 20
-122.49
 11
185
 21
-122.503
  0
LINE
  8
0
 10
185
 20
-122.503
 11
184.738
 21
-122.49
  0
LINE
  8
0
 10
184.738
 20
-172.49
 11
184.48
 21
-172.449
  0
LINE
  8
0
 10
184.48
 20
-172.449
 11
184.226
 21
-172.381
  0
LINE
  8
0
 10
184.226
 20
-172.381
 11
183.982
 21
-172.287
  0
LINE
  8
0
 10
183.982
 20
-172.287
 11
183.748
 21
-172.168
  0
LINE
  8
0
 10
183.748
 20
-172.168
 11
183.529
 21
-172.025
  0
LINE
  8
0
 10
183.529
 20
-172.025
 11
183.325
 21
-171.86
  0
LINE
  8
0
 10
183.325
 20
-171.86
 11
183.14
 21
-171.675
  0
LINE
  8
0
 10
183.14
 20
-171.675
 11
182.975
 21
-171.471
  0
LINE
  8
0
 10
182.975
 20
-171.471
 11
182.832
 21
-171.252
  0
LINE
  8
0
 10
182.832
 20
-171.252
 11
182.713
 21
-171.018
  0
LINE
  8
0
 10
182.713
 20
-171.018
 11
182.619
 21
-170.774
  0
LINE
  8
0
 10
182.619
 20
-170.774
 11
182.551
 21
-170.52
  0
LINE
  8
0
 10
182.551
 20
-170.52
 11
182.51
 21
-170.262
  0
LINE
  8
0
 10
182.51
 20
-170.262
 11
182.497
 21
-170
  0
LINE
  8
0
 10
182.497
 20
-170
 11
182.51
 21
-169.738
  0
LINE
  8
0
 10
182.51
 20
-169.738
 11
182.551
 21
-169.48
  0
LINE
  8
0
 10
182.551
 20
-169.48
 11
182.619
 21
-169.226
  0
LINE
  8
0
 10
182.619
 20
-169.226
 11
182.713
 21
-168.982
  0
LINE
  8
0
 10
182.713
 20
-168.982
 11
182.832
 21
-168.748
  0
LINE
  8
0
 10
182.832
 20
-168.748
 11
182.975
 21
-168.529
  0
LINE
  8
0
 10
182.975
 20
-168.529
 11
183.14
 21
-168.325
  0
LINE
  8
0
 10
183.14
 20
-168.325
 11
183.325
 21
-168.14
  0
LINE
  8
0
 10
183.325
 20
-168.14
 11
183.529
 21
-167.975
  0
LINE
  8
0
 10
183.529
 20
-167.975
 11
183.748
 21
-167.832
  0
LINE
  8
0
 10
183.748
 20
-167.832
 11
183.982
 21
-167.713
  0
LINE
  8
0
 10
183.982
 20
-167.713
 11
184.226
 21
-167.619
  0
LINE
  8
0
 10
184.226
 20
-167.619
 11
184.48
 21
-167.551
  0
LINE
  8
0
 10
184.48
 20
-167.551
 11
184.738
 21
-167.51
  0
LINE
  8
0
 10
184.738
 20
-167.51
 11
185
 21
-167.497
  0
LINE
  8
0
 10
185
 20
-167.497
 11
185.262
 21
-167.51
  0
LINE
  8
0
 10
185.262
 20
-167.51
 11
185.52
 21
-167.551
  0
LINE
  8
0
 10
185.52
 20
-167.551
 11
185.774
 21
-167.619
  0
LINE
  8
0
 10
185.774
 20
-167.619
 11
186.018
 21
-167.713
  0
LINE
  8
0
 10
186.018
 20
-167.713
 11
186.252
 21
-167.832
  0
LINE
  8
0
 10
186.252
 20
-167.832
 11
186.471
 21
-167.975
  0
LINE
  8
0
 10
186.471
 20
-167.975
 11
186.675
 21
-168.14
  0
LINE
  8
0
 10
186.675
 20
-168.14
 11
186.86
 21
-168.325
  0
LINE
  8
0
 10
186.86
 20
-168.325
 11
187.025
 21
-168.529
  0
LINE
  8
0
 10
187.025
 20
-168.529
 11
187.168
 21
-168.748
  0
LINE
  8
0
 10
187.168
 20
-168.748
 11
187.287
 21
-168.982
  0
LINE
  8
0
 10
187.287
 20
-168.982
 11
187.381
 21
-169.226
  0
LINE
  8
0
 10
187.381
 20
-169.226
 11
187.449
 21
-169.48
  0
LINE
  8
0
 10
187.449
 20
-169.48
 11
187.49
 21
-169.738
  0
LINE
  8
0
 10
187.49
 20
-169.738
 11
187.503
 21
-170
  0
LINE
  8
0
 10
187.503
 20
-170
 11
187.49
 21
-170.262
  0
LINE
  8
0
 10
187.49
 20
-170.262
 11
187.449
 21
-170.52
  0
LINE
  8
0
 10
187.449
 20
-170.52
 11
187.381
 21
-170.774
  0
LINE
  8
0
 10
187.381
 20
-170.774
 11
187.287
 21
-171.018
  0
LINE
  8
0
 10
187.287
 20
-171.018
 11
187.168
 21
-171.252
  0
LINE
  8
0
 10
187.168
 20
-171.252
 11
187.025
 21
-171.471
  0
LINE
  8
0
 10
187.025
 20
-171.471
 11
186.86
 21
-171.675
  0
LINE
  8
0
 10
186.86
 20
-171.675
 11
186.675
 21
-171.86
  0
LINE
  8
0
 10
186.675
 20
-171.86
 11
186.471
 21
-172.025
  0
LINE
  8
0
 10
186.471
 20
-172.025
 11
186.252
 21
-172.168
  0
LINE
  8
0
 10
186.252
 20
-172.168
 11
186.018
 21
-172.287
  0
LINE
  8
0
 10
186.018
 20
-172.287
 11
185.774
 21
-172.381
  0
LINE
  8
0
 10
185.774
 20
-172.381
 11
185.52
 21
-172.449
  0
LINE
  8
0
 10
185.52
 20
-172.449
 11
185.262
 21
-172.49
  0
LINE
  8
0
 10
185.262
 20
-172.49
 11
185
 21
-172.503
  0
LINE
  8
0
 10
185
 20
-172.503
 11
184.738
 21
-172.49
  0
LINE
  8
0
 10
-185.262
 20
-172.49
 11
-185.52
 21
-172.449
  0
LINE
  8
0
 10
-185.52
 20
-172.449
 11
-185.774
 21
-172.381
  0
LINE
  8
0
 10
-185.774
 20
-172.381
 11
-186.018
 21
-172.287
  0
LINE
  8
0
 10
-186.018
 20
-172.287
 11
-186.252
 21
-172.168
  0
LINE
  8
0
 10
-186.252
 20
-172.168
 11
-186.471
 21
-172.025
  0
LINE
  8
0
 10
-186.471
 20
-172.025
 11
-186.675
 21
-171.86
  0
LINE
  8
0
 10
-186.675
 20
-171.86
 11
-186.86
 21
-171.675
  0
LINE
  8
0
 10
-186.86
 20
-171.675
 11
-187.025
 21
-171.471
  0
LINE
  8
0
 10
-187.025
 20
-171.471
 11
-187.168
 21
-171.252
  0
LINE
  8
0
 10
-187.168
 20
-171.252
 11
-187.287
 21
-171.018
  0
LINE
  8
0
 10
-187.287
 20
-171.018
 11
-187.381
 21
-170.774
  0
LINE
  8
0
 10
-187.381
 20
-170.774
 11
-187.449
 21
-170.52
  0
LINE
  8
0
 10
-187.449
 20
-170.52
 11
-187.49
 21
-170.262
  0
LINE
  8
0
 10
-187.49
 20
-170.262
 11
-187.503
 21
-170
  0
LINE
  8
0
 10
-187.503
 20
-170
 11
-187.49
 21
-169.738
  0
LINE
  8
0
 10
-187.49
 20
-169.738
 11
-187.449
 21
-169.48
  0
LINE
  8
0
 10
-187.449
 20
-169.48
 11
-187.381
 21
-169.226
  0
LINE
  8
0
 10
-187.381
 20
-169.226
 11
-187.287
 21
-168.982
  0
LINE
  8
0
 10
-187.287
 20
-168.982
 11
-187.168
 21
-168.748
  0
LINE
  8
0
 10
-187.168
 20
-168.748
 11
-187.025
 21
-168.529
  0
LINE
  8
0
 10
-187.025
 20
-168.529
 11
-186.86
 21
-168.325
  0
LINE
  8
0
 10
-186.86
 20
-168.325
 11
-186.675
 21
-168.14
  0
LINE
  8
0
 10
-186.675
 20
-168.14
 11
-186.471
 21
-167.975
  0
LINE
  8
0
 10
-186.471
 20
-167.975
 11
-186.252
 21
-167.832
  0
LINE
  8
0
 10
-186.252
 20
-167.832
 11
-186.018
 21
-167.713
  0
LINE
  8
0
 10
-186.018
 20
-167.713
 11
-185.774
 21
-167.619
  0
LINE
  8
0
 10
-185.774
 20
-167.619
 11
-185.52
 21
-167.551
  0
LINE
  8
0
 10
-185.52
 20
-167.551
 11
-185.262
 21
-167.51
  0
LINE
  8
0
 10
-185.262
 20
-167.51
 11
-185
 21
-167.497
  0
LINE
  8
0
 10
-185
 20
-167.497
 11
-184.738
 21
-167.51
  0
LINE
  8
0
 10
-184.738
 20
-167.51
 11
-184.48
 21
-167.551
  0
LINE
  8
0
 10
-184.48
 20
-167.551
 11
-184.226
 21
-167.619
  0
LINE
  8
0
 10
-184.226
 20
-167.619
 11
-183.982
 21
-167.713
  0
LINE
  8
0
 10
-183.982
 20
-167.713
 11
-183.748
 21
-167.832
  0
LINE
  8
0
 10
-183.748
 20
-167.832
 11
-183.529
 21
-167.975
  0
LINE
  8
0
 10
-183.529
 20
-167.975
 11
-183.325
 21
-168.14
  0
LINE
  8
0
 10
-183.325
 20
-168.14
 11
-183.14
 21
-168.325
  0
LINE
  8
0
 10
-183.14
 20
-168.325
 11
-182.975
 21
-168.529
  0
LINE
  8
0
 10
-182.975
 20
-168.529
 11
-182.832
 21
-168.748
  0
LINE
  8
0
 10
-182.832
 20
-168.748
 11
-182.713
 21
-168.982
  0
LINE
  8
0
 10
-182.713
 20
-168.982
 11
-182.619
 21
-169.226
  0
LINE
  8
0
 10
-182.619
 20
-169.226
 11
-182.551
 21
-169.48
  0
LINE
  8
0
 10
-182.551
 20
-169.48
 11
-182.51
 21
-169.738
  0
LINE
  8
0
 10
-182.51
 20
-169.738
 11
-182.497
 21
-170
  0
LINE
  8
0
 10
-182.497
 20
-170
 11
-182.51
 21
-170.262
  0
LINE
  8
0
 10
-182.51
 20
-170.262
 11
-182.551
 21
-170.52
  0
LINE
  8
0
 10
-182.551
 20
-170.52
 11
-182.619
 21
-170.774
  0
LINE
  8
0
 10
-182.619
 20
-170.774
 11
-182.713
 21
-171.018
  0
LINE
  8
0
 10
-182.713
 20
-171.018
 11
-182.832
 21
-171.252
  0
LINE
  8
0
 10
-182.832
 20
-171.252
 11
-182.975
 21
-171.471
  0
LINE
  8
0
 10
-182.975
 20
-171.471
 11
-183.14
 21
-171.675
  0
LINE
  8
0
 10
-183.14
 20
-171.675
 11
-183.325
 21
-171.86
  0
LINE
  8
0
 10
-183.325
 20
-171.86
 11
-183.529
 21
-172.025
  0
LINE
  8
0
 10
-183.529
 20
-172.025
 11
-183.748
 21
-172.168
  0
LINE
  8
0
 10
-183.748
 20
-172.168
 11
-183.982
 21
-172.287
  0
LINE
  8
0
 10
-183.982
 20
-172.287
 11
-184.226
 21
-172.381
  0
LINE
  8
0
 10
-184.226
 20
-172.381
 11
-184.48
 21
-172.449
  0
LINE
  8
0
 10
-184.48
 20
-172.449
 11
-184.738
 21
-172.49
  0
LINE
  8
0
 10
-184.738
 20
-172.49
 11
-185
 21
-172.503
  0
LINE
  8
0
 10
-185
 20
-172.503
 11
-185.262
 21
-172.49
  0
LINE
  8
0
 10
184.753
 20
-182.19
 11
184.51
 21
-182.148
  0
LINE
  8
0
 10
184.51
 20
-182.148
 11
184.272
 21
-182.08
  0
LINE
  8
0
 10
184.272
 20
-182.08
 11
184.044
 21
-181.985
  0
LINE
  8
0
 10
184.044
 20
-181.985
 11
183.828
 21
-181.866
  0
LINE
  8
0
 10
183.828
 20
-181.866
 11
183.626
 21
-181.723
  0
LINE
  8
0
 10
183.626
 20
-181.723
 11
183.442
 21
-181.558
  0
LINE
  8
0
 10
183.442
 20
-181.558
 11
183.277
 21
-181.374
  0
LINE
  8
0
 10
183.277
 20
-181.374
 11
183.134
 21
-181.172
  0
LINE
  8
0
 10
183.134
 20
-181.172
 11
183.015
 21
-180.956
  0
LINE
  8
0
 10
183.015
 20
-180.956
 11
182.92
 21
-180.728
  0
LINE
  8
0
 10
182.92
 20
-180.728
 11
182.852
 21
-180.49
  0
LINE
  8
0
 10
182.852
 20
-180.49
 11
182.81
 21
-180.247
  0
LINE
  8
0
 10
182.81
 20
-180.247
 11
182.797
 21
-180
  0
LINE
  8
0
 10
182.797
 20
-180
 11
182.81
 21
-179.753
  0
LINE
  8
0
 10
182.81
 20
-179.753
 11
182.852
 21
-179.51
  0
LINE
  8
0
 10
182.852
 20
-179.51
 11
182.92
 21
-179.272
  0
LINE
  8
0
 10
182.92
 20
-179.272
 11
183.015
 21
-179.044
  0
LINE
  8
0
 10
183.015
 20
-179.044
 11
183.134
 21
-178.828
  0
LINE
  8
0
 10
183.134
 20
-178.828
 11
183.277
 21
-178.626
  0
LINE
  8
0
 10
183.277
 20
-178.626
 11
183.442
 21
-178.442
  0
LINE
  8
0
 10
183.442
 20
-178.442
 11
183.626
 21
-178.277
  0
LINE
  8
0
 10
183.626
 20
-178.277
 11
183.828
 21
-178.134
  0
LINE
  8
0
 10
183.828
 20
-178.134
 11
184.044
 21
-178.015
  0
LINE
  8
0
 10
184.044
 20
-178.015
 11
184.272
 21
-177.92
  0
LINE
  8
0
 10
184.272
 20
-177.92
 11
184.51
 21
-177.852
  0
LINE
  8
0
 10
184.51
 20
-177.852
 11
184.753
 21
-177.81
  0
LINE
  8
0
 10
184.753
 20
-177.81
 11
185
 21
-177.797
  0
LINE
  8
0
 10
185
 20
-177.797
 11
185.247
 21
-177.81
  0
LINE
  8
0
 10
185.247
 20
-177.81
 11
185.49
 21
-177.852
  0
LINE
  8
0
 10
185.49
 20
-177.852
 11
185.728
 21
-177.92
  0
LINE
  8
0
 10
185.728
 20
-177.92
 11
185.956
 21
-178.015
  0
LINE
  8
0
 10
185.956
 20
-178.015
 11
186.172
 21
-178.134
  0
LINE
  8
0
 10
186.172
 20
-178.134
 11
186.374
 21
-178.277
  0
LINE
  8
0
 10
186.374
 20
-178.277
 11
186.558
 21
-178.442
  0
LINE
  8
0
 10
186.558
 20
-178.442
 11
186.723
 21
-178.626
  0
LINE
  8
0
 10
186.723
 20
-178.626
 11
186.866
 21
-178.828
  0
LINE
  8
0
 10
186.866
 20
-178.828
 11
186.985
 21
-179.044
  0
LINE
  8
0
 10
186.985
 20
-179.044
 11
187.08
 21
-179.272
  0
LINE
  8
0
 10
187.08
 20
-179.272
 11
187.148
 21
-179.51
  0
LINE
  8
0
 10
187.148
 20
-179.51
 11
187.19
 21
-179.753
  0
LINE
  8
0
 10
187.19
 20
-179.753
 11
187.203
 21
-180
  0
LINE
  8
0
 10
187.203
 20
-180
 11
187.19
 21
-180.247
  0
LINE
  8
0
 10
187.19
 20
-180.247
 11
187.148
 21
-180.49
  0
LINE
  8
0
 10
187.148
 20
-180.49
 11
187.08
 21
-180.728
  0
LINE
  8
0
 10
187.08
 20
-180.728
 11
186.985
 21
-180.956
  0
LINE
  8
0
 10
186.985
 20
-180.956
 11
186.866
 21
-181.172
  0
LINE
  8
0
 10
186.866
 20
-181.172
 11
186.723
 21
-181.374
  0
LINE
  8
0
 10
186.723
 20
-181.374
 11
186.558
 21
-181.558
  0
LINE
  8
0
 10
186.558
 20
-181.558
 11
186.374
 21
-181.723
  0
LINE
  8
0
 10
186.374
 20
-181.723
 11
186.172
 21
-181.866
  0
LINE
  8
0
 10
186.172
 20
-181.866
 11
185.956
 21
-181.985
  0
LINE
  8
0
 10
185.956
 20
-181.985
 11
185.728
 21
-182.08
  0
LINE
  8
0
 10
185.728
 20
-182.08
 11
185.49
 21
-182.148
  0
LINE
  8
0
 10
185.49
 20
-182.148
 11
185.247
 21
-182.19
  0
LINE
  8
0
 10
185.247
 20
-182.19
 11
185
 21
-182.203
  0
LINE
  8
0
 10
185
 20
-182.203
 11
184.753
 21
-182.19
  0
LINE
  8
0
 10
-185.247
 20
-182.19
 11
-185.49
 21
-182.148
  0
LINE
  8
0
 10
-185.49
 20
-182.148
 11
-185.728
 21
-182.08
  0
LINE
  8
0
 10
-185.728
 20
-182.08
 11
-185.956
 21
-181.985
  0
LINE
  8
0
 10
-185.956
 20
-181.985
 11
-186.172
 21
-181.866
  0
LINE
  8
0
 10
-186.172
 20
-181.866
 11
-186.374
 21
-181.723
  0
LINE
  8
0
 10
-186.374
 20
-181.723
 11
-186.558
 21
-181.558
  0
LINE
  8
0
 10
-186.558
 20
-181.558
 11
-186.723
 21
-181.374
  0
LINE
  8
0
 10
-186.723
 20
-181.374
 11
-186.866
 21
-181.172
  0
LINE
  8
0
 10
-186.866
 20
-181.172
 11
-186.985
 21
-180.956
  0
LINE
  8
0
 10
-186.985
 20
-180.956
 11
-187.08
 21
-180.728
  0
LINE
  8
0
 10
-187.08
 20
-180.728
 11
-187.148
 21
-180.49
  0
LINE
  8
0
 10
-187.148
 20
-180.49
 11
-187.19
 21
-180.247
  0
LINE
  8
0
 10
-187.19
 20
-180.247
 11
-187.203
 21
-180
  0
LINE
  8
0
 10
-187.203
 20
-180
 11
-187.19
 21
-179.753
  0
LINE
  8
0
 10
-187.19
 20
-179.753
 11
-187.148
 21
-179.51
  0
LINE
  8
0
 10
-187.148
 20
-179.51
 11
-187.08
 21
-179.272
  0
LINE
  8
0
 10
-187.08
 20
-179.272
 11
-186.985
 21
-179.044
  0
LINE
  8
0
 10
-186.985
 20
-179.044
 11
-186.866
 21
-178.828
  0
LINE
  8
0
 10
-186.866
 20
-178.828
 11
-186.723
 21
-178.626
  0
LINE
  8
0
 10
-186.723
 20
-178.626
 11
-186.558
 21
-178.442
  0
LINE
  8
0
 10
-186.558
 20
-178.442
 11
-186.374
 21
-178.277
  0
LINE
  8
0
 10
-186.374
 20
-178.277
 11
-186.172
 21
-178.134
  0
LINE
  8
0
 10
-186.172
 20
-178.134
 11
-185.956
 21
-178.015
  0
LINE
  8
0
 10
-185.956
 20
-178.015
 11
-185.728
 21
-177.92
  0
LINE
  8
0
 10
-185.728
 20
-177.92
 11
-185.49
 21
-177.852
  0
LINE
  8
0
 10
-185.49
 20
-177.852
 11
-185.247
 21
-177.81
  0
LINE
  8
0
 10
-185.247
 20
-177.81
 11
-185
 21
-177.797
  0
LINE
  8
0
 10
-185
 20
-177.797
 11
-184.753
 21
-177.81
  0
LINE
  8
0
 10
-184.753
 20
-177.81
 11
-184.51
 21
-177.852
  0
LINE
  8
0
 10
-184.51
 20
-177.852
 11
-184.272
 21
-177.92
  0
LINE
  8
0
 10
-184.272
 20
-177.92
 11
-184.044
 21
-178.015
  0
LINE
  8
0
 10
-184.044
 20
-178.015
 11
-183.828
 21
-178.134
  0
LINE
  8
0
 10
-183.828
 20
-178.134
 11
-183.626
 21
-178.277
  0
LINE
  8
0
 10
-183.626
 20
-178.277
 11
-183.442
 21
-178.442
  0
LINE
  8
0
 10
-183.442
 20
-178.442
 11
-183.277
 21
-178.626
  0
LINE
  8
0
 10
-183.277
 20
-178.626
 11
-183.134
 21
-178.828
  0
LINE
  8
0
 10
-183.134
 20
-178.828
 11
-183.015
 21
-179.044
  0
LINE
  8
0
 10
-183.015
 20
-179.044
 11
-182.92
 21
-179.272
  0
LINE
  8
0
 10
-182.92
 20
-179.272
 11
-182.852
 21
-179.51
  0
LINE
  8
0
 10
-182.852
 20
-179.51
 11
-182.81
 21
-179.753
  0
LINE
  8
0
 10
-182.81
 20
-179.753
 11
-182.797
 21
-180
  0
LINE
  8
0
 10
-182.797
 20
-180
 11
-182.81
 21
-180.247
  0
LINE
  8
0
 10
-182.81
 20
-180.247
 11
-182.852
 21
-180.49
  0
LINE
  8
0
 10
-182.852
 20
-180.49
 11
-182.92
 21
-180.728
  0
LINE
  8
0
 10
-182.92
 20
-180.728
 11
-183.015
 21
-180.956
  0
LINE
  8
0
 10
-183.015
 20
-180.956
 11
-183.134
 21
-181.172
  0
LINE
  8
0
 10
-183.134
 20
-181.172
 11
-183.277
 21
-181.374
  0
LINE
  8
0
 10
-183.277
 20
-181.374
 11
-183.442
 21
-181.558
  0
LINE
  8
0
 10
-183.442
 20
-181.558
 11
-183.626
 21
-181.723
  0
LINE
  8
0
 10
-183.626
 20
-181.723
 11
-183.828
 21
-181.866
  0
LINE
  8
0
 10
-183.828
 20
-181.866
 11
-184.044
 21
-181.985
  0
LINE
  8
0
 10
-184.044
 20
-181.985
 11
-184.272
 21
-182.08
  0
LINE
  8
0
 10
-184.272
 20
-182.08
 11
-184.51
 21
-182.148
  0
LINE
  8
0
 10
-184.51
 20
-182.148
 11
-184.753
 21
-182.19
  0
LINE
  8
0
 10
-184.753
 20
-182.19
 11
-185
 21
-182.203
  0
LINE
  8
0
 10
-185
 20
-182.203
 11
-185.247
 21
-182.19
  0
LINE
  8
0
 10
184.738
 20
-192.49
 11
184.48
 21
-192.449
  0
LINE
  8
0
 10
184.48
 20
-192.449
 11
184.226
 21
-192.381
  0
LINE
  8
0
 10
184.226
 20
-192.381
 11
183.982
 21
-192.287
  0
LINE
  8
0
 10
183.982
 20
-192.287
 11
183.748
 21
-192.168
  0
LINE
  8
0
 10
183.748
 20
-192.168
 11
183.529
 21
-192.025
  0
LINE
  8
0
 10
183.529
 20
-192.025
 11
183.325
 21
-191.86
  0
LINE
  8
0
 10
183.325
 20
-191.86
 11
183.14
 21
-191.675
  0
LINE
  8
0
 10
183.14
 20
-191.675
 11
182.975
 21
-191.471
  0
LINE
  8
0
 10
182.975
 20
-191.471
 11
182.832
 21
-191.252
  0
LINE
  8
0
 10
182.832
 20
-191.252
 11
182.713
 21
-191.018
  0
LINE
  8
0
 10
182.713
 20
-191.018
 11
182.619
 21
-190.774
  0
LINE
  8
0
 10
182.619
 20
-190.774
 11
182.551
 21
-190.52
  0
LINE
  8
0
 10
182.551
 20
-190.52
 11
182.51
 21
-190.262
  0
LINE
  8
0
 10
182.51
 20
-190.262
 11
182.497
 21
-190
  0
LINE
  8
0
 10
182.497
 20
-190
 11
182.51
 21
-189.738
  0
LINE
  8
0
 10
182.51
 20
-189.738
 11
182.551
 21
-189.48
  0
LINE
  8
0
 10
182.551
 20
-189.48
 11
182.619
 21
-189.226
  0
LINE
  8
0
 10
182.619
 20
-189.226
 11
182.713
 21
-188.982
  0
LINE
  8
0
 10
182.713
 20
-188.982
 11
182.832
 21
-188.748
  0
LINE
  8
0
 10
182.832
 20
-188.748
 11
182.975
 21
-188.529
  0
LINE
  8
0
 10
182.975
 20
-188.529
 11
183.14
 21
-188.325
  0
LINE
  8
0
 10
183.14
 20
-188.325
 11
183.325
 21
-188.14
  0
LINE
  8
0
 10
183.325
 20
-188.14
 11
183.529
 21
-187.975
  0
LINE
  8
0
 10
183.529
 20
-187.975
 11
183.748
 21
-187.832
  0
LINE
  8
0
 10
183.748
 20
-187.832
 11
183.982
 21
-187.713
  0
LINE
  8
0
 10
183.982
 20
-187.713
 11
184.226
 21
-187.619
  0
LINE
  8
0
 10
184.226
 20
-187.619
 11
184.48
 21
-187.551
  0
LINE
  8
0
 10
184.48
 20
-187.551
 11
184.738
 21
-187.51
  0
LINE
  8
0
 10
184.738
 20
-187.51
 11
185
 21
-187.497
  0
LINE
  8
0
 10
185
 20
-187.497
 11
185.262
 21
-187.51
  0
LINE
  8
0
 10
185.262
 20
-187.51
 11
185.52
 21
-187.551
  0
LINE
  8
0
 10
185.52
 20
-187.551
 11
185.774
 21
-187.619
  0
LINE
  8
0
 10
185.774
 20
-187.619
 11
186.018
 21
-187.713
  0
LINE
  8
0
 10
186.018
 20
-187.713
 11
186.252
 21
-187.832
  0
LINE
  8
0
 10
186.252
 20
-187.832
 11
186.471
 21
-187.975
  0
LINE
  8
0
 10
186.471
 20
-187.975
 11
186.675
 21
-188.14
  0
LINE
  8
0
 10
186.675
 20
-188.14
 11
186.86
 21
-188.325
  0
LINE
  8
0
 10
186.86
 20
-188.325
 11
187.025
 21
-188.529
  0
LINE
  8
0
 10
187.025
 20
-188.529
 11
187.168
 21
-188.748
  0
LINE
  8
0
 10
187.168
 20
-188.748
 11
187.287
 21
-188.982
  0
LINE
  8
0
 10
187.287
 20
-188.982
 11
187.381
 21
-189.226
  0
LINE
  8
0
 10
187.381
 20
-189.226
 11
187.449
 21
-189.48
  0
LINE
  8
0
 10
187.449
 20
-189.48
 11
187.49
 21
-189.738
  0
LINE
  8
0
 10
187.49
 20
-189.738
 11
187.503
 21
-190
  0
LINE
  8
0
 10
187.503
 20
-190
 11
187.49
 21
-190.262
  0
LINE
  8
0
 10
187.49
 20
-190.262
 11
187.449
 21
-190.52
  0
LINE
  8
0
 10
187.449
 20
-190.52
 11
187.381
 21
-190.774
  0
LINE
  8
0
 10
187.381
 20
-190.774
 11
187.287
 21
-191.018
  0
LINE
  8
0
 10
187.287
 20
-191.018
 11
187.168
 21
-191.252
  0
LINE
  8
0
 10
187.168
 20
-191.252
 11
187.025
 21
-191.471
  0
LINE
  8
0
 10
187.025
 20
-191.471
 11
186.86
 21
-191.675
  0
LINE
  8
0
 10
186.86
 20
-191.675
 11
186.675
 21
-191.86
  0
LINE
  8
0
 10
186.675
 20
-191.86
 11
186.471
 21
-192.025
  0
LINE
  8
0
 10
186.471
 20
-192.025
 11
186.252
 21
-192.168
  0
LINE
  8
0
 10
186.252
 20
-192.168
 11
186.018
 21
-192.287
  0
LINE
  8
0
 10
186.018
 20
-192.287
 11
185.774
 21
-192.381
  0
LINE
  8
0
 10
185.774
 20
-192.381
 11
185.52
 21
-192.449
  0
LINE
  8
0
 10
185.52
 20
-192.449
 11
185.262
 21
-192.49
  0
LINE
  8
0
 10
185.262
 20
-192.49
 11
185
 21
-192.503
  0
LINE
  8
0
 10
185
 20
-192.503
 11
184.738
 21
-192.49
  0
LINE
  8
0
 10
-185.262
 20
-192.49
 11
-185.52
 21
-192.449
  0
LINE
  8
0
 10
-185.52
 20
-192.449
 11
-185.774
 21
-192.381
  0
LINE
  8
0
 10
-185.774
 20
-192.381
 11
-186.018
 21
-192.287
  0
LINE
  8
0
 10
-186.018
 20
-192.287
 11
-186.252
 21
-192.168
  0
LINE
  8
0
 10
-186.252
 20
-192.168
 11
-186.471
 21
-192.025
  0
LINE
  8
0
 10
-186.471
 20
-192.025
 11
-186.675
 21
-191.86
  0
LINE
  8
0
 10
-186.675
 20
-191.86
 11
-186.86
 21
-191.675
  0
LINE
  8
0
 10
-186.86
 20
-191.675
 11
-187.025
 21
-191.471
  0
LINE
  8
0
 10
-187.025
 20
-191.471
 11
-187.168
 21
-191.252
  0
LINE
  8
0
 10
-187.168
 20
-191.252
 11
-187.287
 21
-191.018
  0
LINE
  8
0
 10
-187.287
 20
-191.018
 11
-187.381
 21
-190.774
  0
LINE
  8
0
 10
-187.381
 20
-190.774
 11
-187.449
 21
-190.52
  0
LINE
  8
0
 10
-187.449
 20
-190.52
 11
-187.49
 21
-190.262
  0
LINE
  8
0
 10
-187.49
 20
-190.262
 11
-187.503
 21
-190
  0
LINE
  8
0
 10
-187.503
 20
-190
 11
-187.49
 21
-189.738
  0
LINE
  8
0
 10
-187.49
 20
-189.738
 11
-187.449
 21
-189.48
  0
LINE
  8
0
 10
-187.449
 20
-189.48
 11
-187.381
 21
-189.226
  0
LINE
  8
0
 10
-187.381
 20
-189.226
 11
-187.287
 21
-188.982
  0
LINE
  8
0
 10
-187.287
 20
-188.982
 11
-187.168
 21
-188.748
  0
LINE
  8
0
 10
-187.168
 20
-188.748
 11
-187.025
 21
-188.529
  0
LINE
  8
0
 10
-187.025
 20
-188.529
 11
-186.86
 21
-188.325
  0
LINE
  8
0
 10
-186.86
 20
-188.325
 11
-186.675
 21
-188.14
  0
LINE
  8
0
 10
-186.675
 20
-188.14
 11
-186.471
 21
-187.975
  0
LINE
  8
0
 10
-186.471
 20
-187.975
 11
-186.252
 21
-187.832
  0
LINE
  8
0
 10
-186.252
 20
-187.832
 11
-186.018
 21
-187.713
  0
LINE
  8
0
 10
-186.018
 20
-187.713
 11
-185.774
 21
-187.619
  0
LINE
  8
0
 10
-185.774
 20
-187.619
 11
-185.52
 21
-187.551
  0
LINE
  8
0
 10
-185.52
 20
-187.551
 11
-185.262
 21
-187.51
  0
LINE
  8
0
 10
-185.262
 20
-187.51
 11
-185
 21
-187.497
  0
LINE
  8
0
 10
-185
 20
-187.497
 11
-184.738
 21
-187.51
  0
LINE
  8
0
 10
-184.738
 20
-187.51
 11
-184.48
 21
-187.551
  0
LINE
  8
0
 10
-184.48
 20
-187.551
 11
-184.226
 21
-187.619
  0
LINE
  8
0
 10
-184.226
 20
-187.619
 11
-183.982
 21
-187.713
  0
LINE
  8
0
 10
-183.982
 20
-187.713
 11
-183.748
 21
-187.832
  0
LINE
  8
0
 10
-183.748
 20
-187.832
 11
-183.529
 21
-187.975
  0
LINE
  8
0
 10
-183.529
 20
-187.975
 11
-183.325
 21
-188.14
  0
LINE
  8
0
 10
-183.325
 20
-188.14
 11
-183.14
 21
-188.325
  0
LINE
  8
0
 10
-183.14
 20
-188.325
 11
-182.975
 21
-188.529
  0
LINE
  8
0
 10
-182.975
 20
-188.529
 11
-182.832
 21
-188.748
  0
LINE
  8
0
 10
-182.832
 20
-188.748
 11
-182.713
 21
-188.982
  0
LINE
  8
0
 10
-182.713
 20
-188.982
 11
-182.619
 21
-189.226
  0
LINE
  8
0
 10
-182.619
 20
-189.226
 11
-182.551
 21
-189.48
  0
LINE
  8
0
 10
-182.551
 20
-189.48
 11
-182.51
 21
-189.738
  0
LINE
  8
0
 10
-182.51
 20
-189.738
 11
-182.497
 21
-190
  0
LINE
  8
0
 10
-182.497
 20
-190
 11
-182.51
 21
-190.262
  0
LINE
  8
0
 10
-182.51
 20
-190.262
 11
-182.551
 21
-190.52
  0
LINE
  8
0
 10
-182.551
 20
-190.52
 11
-182.619
 21
-190.774
  0
LINE
  8
0
 10
-182.619
 20
-190.774
 11
-182.713
 21
-191.018
  0
LINE
  8
0
 10
-182.713
 20
-191.018
 11
-182.832
 21
-191.252
  0
LINE
  8
0
 10
-182.832
 20
-191.252
 11
-182.975
 21
-191.471
  0
LINE
  8
0
 10
-182.975
 20
-191.471
 11
-183.14
 21
-191.675
  0
LINE
  8
0
 10
-183.14
 20
-191.675
 11
-183.325
 21
-191.86
  0
LINE
  8
0
 10
-183.325
 20
-191.86
 11
-183.529
 21
-192.025
  0
LINE
  8
0
 10
-183.529
 20
-192.025
 11
-183.748
 21
-192.168
  0
LINE
  8
0
 10
-183.748
 20
-192.168
 11
-183.982
 21
-192.287
  0
LINE
  8
0
 10
-183.982
 20
-192.287
 11
-184.226
 21
-192.381
  0
LINE
  8
0
 10
-184.226
 20
-192.381
 11
-184.48
 21
-192.449
  0
LINE
  8
0
 10
-184.48
 20
-192.449
 11
-184.738
 21
-192.49
  0
LINE
  8
0
 10
-184.738
 20
-192.49
 11
-185
 21
-192.503
  0
LINE
  8
0
 10
-185
 20
-192.503
 11
-185.262
 21
-192.49
  0
LINE
  8
0
 10
-125.247
 20
-192.19
 11
-125.49
 21
-192.148
  0
LINE
  8
0
 10
-125.49
 20
-192.148
 11
-125.728
 21
-192.08
  0
LINE
  8
0
 10
-125.728
 20
-192.08
 11
-125.956
 21
-191.985
  0
LINE
  8
0
 10
-125.956
 20
-191.985
 11
-126.172
 21
-191.866
  0
LINE
  8
0
 10
-126.172
 20
-191.866
 11
-126.374
 21
-191.723
  0
LINE
  8
0
 10
-126.374
 20
-191.723
 11
-126.558
 21
-191.558
  0
LINE
  8
0
 10
-126.558
 20
-191.558
 11
-126.723
 21
-191.374
  0
LINE
  8
0
 10
-126.723
 20
-191.374
 11
-126.866
 21
-191.172
  0
LINE
  8
0
 10
-126.866
 20
-191.172
 11
-126.985
 21
-190.956
  0
LINE
  8
0
 10
-126.985
 20
-190.956
 11
-127.08
 21
-190.728
  0
LINE
  8
0
 10
-127.08
 20
-190.728
 11
-127.148
 21
-190.49
  0
LINE
  8
0
 10
-127.148
 20
-190.49
 11
-127.19
 21
-190.247
  0
LINE
  8
0
 10
-127.19
 20
-190.247
 11
-127.203
 21
-190
  0
LINE
  8
0
 10
-127.203
 20
-190
 11
-127.19
 21
-189.753
  0
LINE
  8
0
 10
-127.19
 20
-189.753
 11
-127.148
 21
-189.51
  0
LINE
  8
0
 10
-127.148
 20
-189.51
 11
-127.08
 21
-189.272
  0
LINE
  8
0
 10
-127.08
 20
-189.272
 11
-126.985
 21
-189.044
  0
LINE
  8
0
 10
-126.985
 20
-189.044
 11
-126.866
 21
-188.828
  0
LINE
  8
0
 10
-126.866
 20
-188.828
 11
-126.723
 21
-188.626
  0
LINE
  8
0
 10
-126.723
 20
-188.626
 11
-126.558
 21
-188.442
  0
LINE
  8
0
 10
-126.558
 20
-188.442
 11
-126.374
 21
-188.277
  0
LINE
  8
0
 10
-126.374
 20
-188.277
 11
-126.172
 21
-188.134
  0
LINE
  8
0
 10
-126.172
 20
-188.134
 11
-125.956
 21
-188.015
  0
LINE
  8
0
 10
-125.956
 20
-188.015
 11
-125.728
 21
-187.92
  0
LINE
  8
0
 10
-125.728
 20
-187.92
 11
-125.49
 21
-187.852
  0
LINE
  8
0
 10
-125.49
 20
-187.852
 11
-125.247
 21
-187.81
  0
LINE
  8
0
 10
-125.247
 20
-187.81
 11
-125
 21
-187.797
  0
LINE
  8
0
 10
-125
 20
-187.797
 11
-124.753
 21
-187.81
  0
LINE
  8
0
 10
-124.753
 20
-187.81
 11
-124.51
 21
-187.852
  0
LINE
  8
0
 10
-124.51
 20
-187.852
 11
-124.272
 21
-187.92
  0
LINE
  8
0
 10
-124.272
 20
-187.92
 11
-124.044
 21
-188.015
  0
LINE
  8
0
 10
-124.044
 20
-188.015
 11
-123.828
 21
-188.134
  0
LINE
  8
0
 10
-123.828
 20
-188.134
 11
-123.626
 21
-188.277
  0
LINE
  8
0
 10
-123.626
 20
-188.277
 11
-123.442
 21
-188.442
  0
LINE
  8
0
 10
-123.442
 20
-188.442
 11
-123.277
 21
-188.626
  0
LINE
  8
0
 10
-123.277
 20
-188.626
 11
-123.134
 21
-188.828
  0
LINE
  8
0
 10
-123.134
 20
-188.828
 11
-123.015
 21
-189.044
  0
LINE
  8
0
 10
-123.015
 20
-189.044
 11
-122.92
 21
-189.272
  0
LINE
  8
0
 10
-122.92
 20
-189.272
 11
-122.852
 21
-189.51
  0
LINE
  8
0
 10
-122.852
 20
-189.51
 11
-122.81
 21
-189.753
  0
LINE
  8
0
 10
-122.81
 20
-189.753
 11
-122.797
 21
-190
  0
LINE
  8
0
 10
-122.797
 20
-190
 11
-122.81
 21
-190.247
  0
LINE
  8
0
 10
-122.81
 20
-190.247
 11
-122.852
 21
-190.49
  0
LINE
  8
0
 10
-122.852
 20
-190.49
 11
-122.92
 21
-190.728
  0
LINE
  8
0
 10
-122.92
 20
-190.728
 11
-123.015
 21
-190.956
  0
LINE
  8
0
 10
-123.015
 20
-190.956
 11
-123.134
 21
-191.172
  0
LINE
  8
0
 10
-123.134
 20
-191.172
 11
-123.277
 21
-191.374
  0
LINE
  8
0
 10
-123.277
 20
-191.374
 11
-123.442
 21
-191.558
  0
LINE
  8
0
 10
-123.442
 20
-191.558
 11
-123.626
 21
-191.723
  0
LINE
  8
0
 10
-123.626
 20
-191.723
 11
-123.828
 21
-191.866
  0
LINE
  8
0
 10
-123.828
 20
-191.866
 11
-124.044
 21
-191.985
  0
LINE
  8
0
 10
-124.044
 20
-191.985
 11
-124.272
 21
-192.08
  0
LINE
  8
0
 10
-124.272
 20
-192.08
 11
-124.51
 21
-192.148
  0
LINE
  8
0
 10
-124.51
 20
-192.148
 11
-124.753
 21
-192.19
  0
LINE
  8
0
 10
-124.753
 20
-192.19
 11
-125
 21
-192.203
  0
LINE
  8
0
 10
-125
 20
-192.203
 11
-125.247
 21
-192.19
  0
LINE
  8
0
 10
-0.246719
 20
-192.19
 11
-0.490326
 21
-192.148
  0
LINE
  8
0
 10
-0.490326
 20
-192.148
 11
-0.727768
 21
-192.08
  0
LINE
  8
0
 10
-0.727768
 20
-192.08
 11
-0.956055
 21
-191.985
  0
LINE
  8
0
 10
-0.956055
 20
-191.985
 11
-1.17232
 21
-191.866
  0
LINE
  8
0
 10
-1.17232
 20
-191.866
 11
-1.37384
 21
-191.723
  0
LINE
  8
0
 10
-1.37384
 20
-191.723
 11
-1.55809
 21
-191.558
  0
LINE
  8
0
 10
-1.55809
 20
-191.558
 11
-1.72275
 21
-191.374
  0
LINE
  8
0
 10
-1.72275
 20
-191.374
 11
-1.86574
 21
-191.172
  0
LINE
  8
0
 10
-1.86574
 20
-191.172
 11
-1.98526
 21
-190.956
  0
LINE
  8
0
 10
-1.98526
 20
-190.956
 11
-2.07982
 21
-190.728
  0
LINE
  8
0
 10
-2.07982
 20
-190.728
 11
-2.14822
 21
-190.49
  0
LINE
  8
0
 10
-2.14822
 20
-190.49
 11
-2.18962
 21
-190.247
  0
LINE
  8
0
 10
-2.18962
 20
-190.247
 11
-2.20348
 21
-190
  0
LINE
  8
0
 10
-2.20348
 20
-190
 11
-2.18962
 21
-189.753
  0
LINE
  8
0
 10
-2.18962
 20
-189.753
 11
-2.14822
 21
-189.51
  0
LINE
  8
0
 10
-2.14822
 20
-189.51
 11
-2.07982
 21
-189.272
  0
LINE
  8
0
 10
-2.07982
 20
-189.272
 11
-1.98526
 21
-189.044
  0
LINE
  8
0
 10
-1.98526
 20
-189.044
 11
-1.86574
 21
-188.828
  0
LINE
  8
0
 10
-1.86574
 20
-188.828
 11
-1.72275
 21
-188.626
  0
LINE
  8
0
 10
-1.72275
 20
-188.626
 11
-1.55809
 21
-188.442
  0
LINE
  8
0
 10
-1.55809
 20
-188.442
 11
-1.37384
 21
-188.277
  0
LINE
  8
0
 10
-1.37384
 20
-188.277
 11
-1.17232
 21
-188.134
  0
LINE
  8
0
 10
-1.17232
 20
-188.134
 11
-0.956055
 21
-188.015
  0
LINE
  8
0
 10
-0.956055
 20
-188.015
 11
-0.727768
 21
-187.92
  0
LINE
  8
0
 10
-0.727768
 20
-187.92
 11
-0.490326
 21
-187.852
  0
LINE
  8
0
 10
-0.490326
 20
-187.852
 11
-0.246719
 21
-187.81
  0
LINE
  8
0
 10
-0.246719
 20
-187.81
 11
0
 21
-187.797
  0
LINE
  8
0
 10
0
 20
-187.797
 11
0.246704
 21
-187.81
  0
LINE
  8
0
 10
0.246704
 20
-187.81
 11
0.490311
 21
-187.852
  0
LINE
  8
0
 10
0.490311
 20
-187.852
 11
0.727753
 21
-187.92
  0
LINE
  8
0
 10
0.727753
 20
-187.92
 11
0.956039
 21
-188.015
  0
LINE
  8
0
 10
0.956039
 20
-188.015
 11
1.1723
 21
-188.134
  0
LINE
  8
0
 10
1.1723
 20
-188.134
 11
1.37383
 21
-188.277
  0
LINE
  8
0
 10
1.37383
 20
-188.277
 11
1.55807
 21
-188.442
  0
LINE
  8
0
 10
1.55807
 20
-188.442
 11
1.72273
 21
-188.626
  0
LINE
  8
0
 10
1.72273
 20
-188.626
 11
1.86572
 21
-188.828
  0
LINE
  8
0
 10
1.86572
 20
-188.828
 11
1.98524
 21
-189.044
  0
LINE
  8
0
 10
1.98524
 20
-189.044
 11
2.0798
 21
-189.272
  0
LINE
  8
0
 10
2.0798
 20
-189.272
 11
2.14821
 21
-189.51
  0
LINE
  8
0
 10
2.14821
 20
-189.51
 11
2.18961
 21
-189.753
  0
LINE
  8
0
 10
2.18961
 20
-189.753
 11
2.20346
 21
-190
  0
LINE
  8
0
 10
2.20346
 20
-190
 11
2.18961
 21
-190.247
  0
LINE
  8
0
 10
2.18961
 20
-190.247
 11
2.14821
 21
-190.49
  0
LINE
  8
0
 10
2.14821
 20
-190.49
 11
2.0798
 21
-190.728
  0
LINE
  8
0
 10
2.0798
 20
-190.728
 11
1.98524
 21
-190.956
  0
LINE
  8
0
 10
1.98524
 20
-190.956
 11
1.86572
 21
-191.172
  0
LINE
  8
0
 10
1.86572
 20
-191.172
 11
1.72273
 21
-191.374
  0
LINE
  8
0
 10
1.72273
 20
-191.374
 11
1.55807
 21
-191.558
  0
LINE
  8
0
 10
1.55807
 20
-191.558
 11
1.37383
 21
-191.723
  0
LINE
  8
0
 10
1.37383
 20
-191.723
 11
1.1723
 21
-191.866
  0
LINE
  8
0
 10
1.1723
 20
-191.866
 11
0.956039
 21
-191.985
  0
LINE
  8
0
 10
0.956039
 20
-191.985
 11
0.727753
 21
-192.08
  0
LINE
  8
0
 10
0.727753
 20
-192.08
 11
0.490311
 21
-192.148
  0
LINE
  8
0
 10
0.490311
 20
-192.148
 11
0.246704
 21
-192.19
  0
LINE
  8
0
 10
0.246704
 20
-192.19
 11
0
 21
-192.203
  0
LINE
  8
0
 10
0
 20
-192.203
 11
-0.246719
 21
-192.19
  0
LINE
  8
0
 10
124.753
 20
-192.19
 11
124.51
 21
-192.148
  0
LINE
  8
0
 10
124.51
 20
-192.148
 11
124.272
 21
-192.08
  0
LINE
  8
0
 10
124.272
 20
-192.08
 11
124.044
 21
-191.985
  0
LINE
  8
0
 10
124.044
 20
-191.985
 11
123.828
 21
-191.866
  0
LINE
  8
0
 10
123.828
 20
-191.866
 11
123.626
 21
-191.723
  0
LINE
  8
0
 10
123.626
 20
-191.723
 11
123.442
 21
-191.558
  0
LINE
  8
0
 10
123.442
 20
-191.558
 11
123.277
 21
-191.374
  0
LINE
  8
0
 10
123.277
 20
-191.374
 11
123.134
 21
-191.172
  0
LINE
  8
0
 10
123.134
 20
-191.172
 11
123.015
 21
-190.956
  0
LINE
  8
0
 10
123.015
 20
-190.956
 11
122.92
 21
-190.728
  0
LINE
  8
0
 10
122.92
 20
-190.728
 11
122.852
 21
-190.49
  0
LINE
  8
0
 10
122.852
 20
-190.49
 11
122.81
 21
-190.247
  0
LINE
  8
0
 10
122.81
 20
-190.247
 11
122.797
 21
-190
  0
LINE
  8
0
 10
122.797
 20
-190
 11
122.81
 21
-189.753
  0
LINE
  8
0
 10
122.81
 20
-189.753
 11
122.852
 21
-189.51
  0
LINE
  8
0
 10
122.852
 20
-189.51
 11
122.92
 21
-189.272
  0
LINE
  8
0
 10
122.92
 20
-189.272
 11
123.015
 21
-189.044
  0
LINE
  8
0
 10
123.015
 20
-189.044
 11
123.134
 21
-188.828
  0
LINE
  8
0
 10
123.134
 20
-188.828
 11
123.277
 21
-188.626
  0
LINE
  8
0
 10
123.277
 20
-188.626
 11
123.442
 21
-188.442
  0
LINE
  8
0
 10
123.442
 20
-188.442
 11
123.626
 21
-188.277
  0
LINE
  8
0
 10
123.626
 20
-188.277
 11
123.828
 21
-188.134
  0
LINE
  8
0
 10
123.828
 20
-188.134
 11
124.044
 21
-188.015
  0
LINE
  8
0
 10
124.044
 20
-188.015
 11
124.272
 21
-187.92
  0
LINE
  8
0
 10
124.272
 20
-187.92
 11
124.51
 21
-187.852
  0
LINE
  8
0
 10
124.51
 20
-187.852
 11
124.753
 21
-187.81
  0
LINE
  8
0
 10
124.753
 20
-187.81
 11
125
 21
-187.797
  0
LINE
  8
0
 10
125
 20
-187.797
 11
125.247
 21
-187.81
  0
LINE
  8
0
 10
125.247
 20
-187.81
 11
125.49
 21
-187.852
  0
LINE
  8
0
 10
125.49
 20
-187.852
 11
125.728
 21
-187.92
  0
LINE
  8
0
 10
125.728
 20
-187.92
 11
125.956
 21
-188.015
  0
LINE
  8
0
 10
125.956
 20
-188.015
 11
126.172
 21
-188.134
  0
LINE
  8
0
 10
126.172
 20
-188.134
 11
126.374
 21
-188.277
  0
LINE
  8
0
 10
126.374
 20
-188.277
 11
126.558
 21
-188.442
  0
LINE
  8
0
 10
126.558
 20
-188.442
 11
126.723
 21
-188.626
  0
LINE
  8
0
 10
126.723
 20
-188.626
 11
126.866
 21
-188.828
  0
LINE
  8
0
 10
126.866
 20
-188.828
 11
126.985
 21
-189.044
  0
LINE
  8
0
 10
126.985
 20
-189.044
 11
127.08
 21
-189.272
  0
LINE
  8
0
 10
127.08
 20
-189.272
 11
127.148
 21
-189.51
  0
LINE
  8
0
 10
127.148
 20
-189.51
 11
127.19
 21
-189.753
  0
LINE
  8
0
 10
127.19
 20
-189.753
 11
127.203
 21
-190
  0
LINE
  8
0
 10
127.203
 20
-190
 11
127.19
 21
-190.247
  0
LINE
  8
0
 10
127.19
 20
-190.247
 11
127.148
 21
-190.49
  0
LINE
  8
0
 10
127.148
 20
-190.49
 11
127.08
 21
-190.728
  0
LINE
  8
0
 10
127.08
 20
-190.728
 11
126.985
 21
-190.956
  0
LINE
  8
0
 10
126.985
 20
-190.956
 11
126.866
 21
-191.172
  0
LINE
  8
0
 10
126.866
 20
-191.172
 11
126.723
 21
-191.374
  0
LINE
  8
0
 10
126.723
 20
-191.374
 11
126.558
 21
-191.558
  0
LINE
  8
0
 10
126.558
 20
-191.558
 11
126.374
 21
-191.723
  0
LINE
  8
0
 10
126.374
 20
-191.723
 11
126.172
 21
-191.866
  0
LINE
  8
0
 10
126.172
 20
-191.866
 11
125.956
 21
-191.985
  0
LINE
  8
0
 10
125.956
 20
-191.985
 11
125.728
 21
-192.08
  0
LINE
  8
0
 10
125.728
 20
-192.08
 11
125.49
 21
-192.148
  0
LINE
  8
0
 10
125.49
 20
-192.148
 11
125.247
 21
-192.19
  0
LINE
  8
0
 10
125.247
 20
-192.19
 11
125
 21
-192.203
  0
LINE
  8
0
 10
125
 20
-192.203
 11
124.753
 21
-192.19
  0
ENDSEC
  0
SECTION
  2
OBJECTS
  0
DICTIONARY
  0
ENDSEC
  0
EOF
