  0
SECTION
  2
BLOCKS
  0
ENDSEC
  0
SECTION
  2
ENTITIES
  0
LINE
  8
0
 10
118.735
 20
-184.982
 11
118.964
 21
-184.927
  0
LINE
  8
0
 10
118.964
 20
-184.927
 11
119.181
 21
-184.837
  0
LINE
  8
0
 10
119.181
 20
-184.837
 11
119.382
 21
-184.714
  0
LINE
  8
0
 10
119.382
 20
-184.714
 11
119.561
 21
-184.561
  0
LINE
  8
0
 10
119.561
 20
-184.561
 11
119.714
 21
-184.382
  0
LINE
  8
0
 10
119.714
 20
-184.382
 11
119.837
 21
-184.181
  0
LINE
  8
0
 10
119.837
 20
-184.181
 11
119.927
 21
-183.964
  0
LINE
  8
0
 10
119.927
 20
-183.964
 11
119.982
 21
-183.735
  0
LINE
  8
0
 10
119.982
 20
-183.735
 11
120
 21
-183.5
  0
LINE
  8
0
 10
120
 20
-183.5
 11
120
 21
183.5
  0
LINE
  8
0
 10
120
 20
183.5
 11
119.982
 21
183.735
  0
LINE
  8
0
 10
119.982
 20
183.735
 11
119.927
 21
183.964
  0
LINE
  8
0
 10
119.927
 20
183.964
 11
119.837
 21
184.181
  0
LINE
  8
0
 10
119.837
 20
184.181
 11
119.714
 21
184.382
  0
LINE
  8
0
 10
119.714
 20
184.382
 11
119.561
 21
184.561
  0
LINE
  8
0
 10
119.561
 20
184.561
 11
119.382
 21
184.714
  0
LINE
  8
0
 10
119.382
 20
184.714
 11
119.181
 21
184.837
  0
LINE
  8
0
 10
119.181
 20
184.837
 11
118.964
 21
184.927
  0
LINE
  8
0
 10
118.964
 20
184.927
 11
118.735
 21
184.982
  0
LINE
  8
0
 10
118.735
 20
184.982
 11
118.5
 21
185
  0
LINE
  8
0
 10
118.5
 20
185
 11
-21.0943
 21
185
  0
LINE
  8
0
 10
-21.0943
 20
185
 11
-21.2482
 21
184.987
  0
LINE
  8
0
 10
-21.2482
 20
184.987
 11
-21.4896
 21
184.926
  0
LINE
  8
0
 10
-21.4896
 20
184.926
 11
-21.7177
 21
184.826
  0
LINE
  8
0
 10
-21.7177
 20
184.826
 11
-21.9261
 21
184.69
  0
LINE
  8
0
 10
-21.9261
 20
184.69
 11
-22.1093
 21
184.521
  0
LINE
  8
0
 10
-22.1093
 20
184.521
 11
-22.2623
 21
184.325
  0
LINE
  8
0
 10
-22.2623
 20
184.325
 11
-22.3808
 21
184.106
  0
LINE
  8
0
 10
-22.3808
 20
184.106
 11
-22.4617
 21
183.87
  0
LINE
  8
0
 10
-22.4617
 20
183.87
 11
-22.5
 21
183.64
  0
LINE
  8
0
 10
-22.5
 20
183.64
 11
-22.5
 21
161
  0
LINE
  8
0
 10
-22.5
 20
161
 11
-22.5185
 21
160.765
  0
LINE
  8
0
 10
-22.5185
 20
160.765
 11
-22.5734
 21
160.536
  0
LINE
  8
0
 10
-22.5734
 20
160.536
 11
-22.6635
 21
160.319
  0
LINE
  8
0
 10
-22.6635
 20
160.319
 11
-22.7865
 21
160.118
  0
LINE
  8
0
 10
-22.7865
 20
160.118
 11
-22.9393
 21
159.939
  0
LINE
  8
0
 10
-22.9393
 20
159.939
 11
-23.1183
 21
159.786
  0
LINE
  8
0
 10
-23.1183
 20
159.786
 11
-23.319
 21
159.663
  0
LINE
  8
0
 10
-23.319
 20
159.663
 11
-23.5365
 21
159.573
  0
LINE
  8
0
 10
-23.5365
 20
159.573
 11
-23.7654
 21
159.518
  0
LINE
  8
0
 10
-23.7654
 20
159.518
 11
-24
 21
159.5
  0
LINE
  8
0
 10
-24
 20
159.5
 11
-39
 21
159.5
  0
LINE
  8
0
 10
-39
 20
159.5
 11
-39.2346
 21
159.518
  0
LINE
  8
0
 10
-39.2346
 20
159.518
 11
-39.4635
 21
159.573
  0
LINE
  8
0
 10
-39.4635
 20
159.573
 11
-39.681
 21
159.663
  0
LINE
  8
0
 10
-39.681
 20
159.663
 11
-39.8817
 21
159.786
  0
LINE
  8
0
 10
-39.8817
 20
159.786
 11
-40.0607
 21
159.939
  0
LINE
  8
0
 10
-40.0607
 20
159.939
 11
-40.2135
 21
160.118
  0
LINE
  8
0
 10
-40.2135
 20
160.118
 11
-40.3365
 21
160.319
  0
LINE
  8
0
 10
-40.3365
 20
160.319
 11
-40.4266
 21
160.536
  0
LINE
  8
0
 10
-40.4266
 20
160.536
 11
-40.4815
 21
160.765
  0
LINE
  8
0
 10
-40.4815
 20
160.765
 11
-40.5
 21
161
  0
LINE
  8
0
 10
-40.5
 20
161
 11
-40.5
 21
183.594
  0
LINE
  8
0
 10
-40.5
 20
183.594
 11
-40.5127
 21
183.748
  0
LINE
  8
0
 10
-40.5127
 20
183.748
 11
-40.5739
 21
183.99
  0
LINE
  8
0
 10
-40.5739
 20
183.99
 11
-40.6739
 21
184.218
  0
LINE
  8
0
 10
-40.6739
 20
184.218
 11
-40.8101
 21
184.426
  0
LINE
  8
0
 10
-40.8101
 20
184.426
 11
-40.9788
 21
184.609
  0
LINE
  8
0
 10
-40.9788
 20
184.609
 11
-41.1753
 21
184.762
  0
LINE
  8
0
 10
-41.1753
 20
184.762
 11
-41.3943
 21
184.881
  0
LINE
  8
0
 10
-41.3943
 20
184.881
 11
-41.6299
 21
184.962
  0
LINE
  8
0
 10
-41.6299
 20
184.962
 11
-41.8596
 21
185
  0
LINE
  8
0
 10
-41.8596
 20
185
 11
-65.3443
 21
185
  0
LINE
  8
0
 10
-65.3443
 20
185
 11
-65.4982
 21
184.987
  0
LINE
  8
0
 10
-65.4982
 20
184.987
 11
-65.7396
 21
184.926
  0
LINE
  8
0
 10
-65.7396
 20
184.926
 11
-65.9677
 21
184.826
  0
LINE
  8
0
 10
-65.9677
 20
184.826
 11
-66.1761
 21
184.69
  0
LINE
  8
0
 10
-66.1761
 20
184.69
 11
-66.3593
 21
184.521
  0
LINE
  8
0
 10
-66.3593
 20
184.521
 11
-66.5123
 21
184.325
  0
LINE
  8
0
 10
-66.5123
 20
184.325
 11
-66.6308
 21
184.106
  0
LINE
  8
0
 10
-66.6308
 20
184.106
 11
-66.7117
 21
183.87
  0
LINE
  8
0
 10
-66.7117
 20
183.87
 11
-66.75
 21
183.64
  0
LINE
  8
0
 10
-66.75
 20
183.64
 11
-66.75
 21
150
  0
LINE
  8
0
 10
-66.75
 20
150
 11
-66.7685
 21
149.765
  0
LINE
  8
0
 10
-66.7685
 20
149.765
 11
-66.8234
 21
149.536
  0
LINE
  8
0
 10
-66.8234
 20
149.536
 11
-66.9135
 21
149.319
  0
LINE
  8
0
 10
-66.9135
 20
149.319
 11
-67.0365
 21
149.118
  0
LINE
  8
0
 10
-67.0365
 20
149.118
 11
-67.1893
 21
148.939
  0
LINE
  8
0
 10
-67.1893
 20
148.939
 11
-67.3683
 21
148.786
  0
LINE
  8
0
 10
-67.3683
 20
148.786
 11
-67.569
 21
148.663
  0
LINE
  8
0
 10
-67.569
 20
148.663
 11
-67.7865
 21
148.573
  0
LINE
  8
0
 10
-67.7865
 20
148.573
 11
-68.0154
 21
148.518
  0
LINE
  8
0
 10
-68.0154
 20
148.518
 11
-68.25
 21
148.5
  0
LINE
  8
0
 10
-68.25
 20
148.5
 11
-90.25
 21
148.5
  0
LINE
  8
0
 10
-90.25
 20
148.5
 11
-90.4846
 21
148.518
  0
LINE
  8
0
 10
-90.4846
 20
148.518
 11
-90.7135
 21
148.573
  0
LINE
  8
0
 10
-90.7135
 20
148.573
 11
-90.931
 21
148.663
  0
LINE
  8
0
 10
-90.931
 20
148.663
 11
-91.1317
 21
148.786
  0
LINE
  8
0
 10
-91.1317
 20
148.786
 11
-91.3107
 21
148.939
  0
LINE
  8
0
 10
-91.3107
 20
148.939
 11
-91.4635
 21
149.118
  0
LINE
  8
0
 10
-91.4635
 20
149.118
 11
-91.5865
 21
149.319
  0
LINE
  8
0
 10
-91.5865
 20
149.319
 11
-91.6766
 21
149.536
  0
LINE
  8
0
 10
-91.6766
 20
149.536
 11
-91.7315
 21
149.765
  0
LINE
  8
0
 10
-91.7315
 20
149.765
 11
-91.75
 21
150
  0
LINE
  8
0
 10
-91.75
 20
150
 11
-91.75
 21
183.594
  0
LINE
  8
0
 10
-91.75
 20
183.594
 11
-91.7627
 21
183.748
  0
LINE
  8
0
 10
-91.7627
 20
183.748
 11
-91.8239
 21
183.99
  0
LINE
  8
0
 10
-91.8239
 20
183.99
 11
-91.9239
 21
184.218
  0
LINE
  8
0
 10
-91.9239
 20
184.218
 11
-92.0601
 21
184.426
  0
LINE
  8
0
 10
-92.0601
 20
184.426
 11
-92.2288
 21
184.609
  0
LINE
  8
0
 10
-92.2288
 20
184.609
 11
-92.4253
 21
184.762
  0
LINE
  8
0
 10
-92.4253
 20
184.762
 11
-92.6443
 21
184.881
  0
LINE
  8
0
 10
-92.6443
 20
184.881
 11
-92.8799
 21
184.962
  0
LINE
  8
0
 10
-92.8799
 20
184.962
 11
-93.1096
 21
185
  0
LINE
  8
0
 10
-93.1096
 20
185
 11
-118.5
 21
185
  0
LINE
  8
0
 10
-118.5
 20
185
 11
-118.735
 21
184.982
  0
LINE
  8
0
 10
-118.735
 20
184.982
 11
-118.964
 21
184.927
  0
LINE
  8
0
 10
-118.964
 20
184.927
 11
-119.181
 21
184.837
  0
LINE
  8
0
 10
-119.181
 20
184.837
 11
-119.382
 21
184.714
  0
LINE
  8
0
 10
-119.382
 20
184.714
 11
-119.561
 21
184.561
  0
LINE
  8
0
 10
-119.561
 20
184.561
 11
-119.714
 21
184.382
  0
LINE
  8
0
 10
-119.714
 20
184.382
 11
-119.837
 21
184.181
  0
LINE
  8
0
 10
-119.837
 20
184.181
 11
-119.927
 21
183.964
  0
LINE
  8
0
 10
-119.927
 20
183.964
 11
-119.982
 21
183.735
  0
LINE
  8
0
 10
-119.982
 20
183.735
 11
-120
 21
183.5
  0
LINE
  8
0
 10
-120
 20
183.5
 11
-120
 21
-183.5
  0
LINE
  8
0
 10
-120
 20
-183.5
 11
-119.982
 21
-183.735
  0
LINE
  8
0
 10
-119.982
 20
-183.735
 11
-119.927
 21
-183.964
  0
LINE
  8
0
 10
-119.927
 20
-183.964
 11
-119.837
 21
-184.181
  0
LINE
  8
0
 10
-119.837
 20
-184.181
 11
-119.714
 21
-184.382
  0
LINE
  8
0
 10
-119.714
 20
-184.382
 11
-119.561
 21
-184.561
  0
LINE
  8
0
 10
-119.561
 20
-184.561
 11
-119.382
 21
-184.714
  0
LINE
  8
0
 10
-119.382
 20
-184.714
 11
-119.181
 21
-184.837
  0
LINE
  8
0
 10
-119.181
 20
-184.837
 11
-118.964
 21
-184.927
  0
LINE
  8
0
 10
-118.964
 20
-184.927
 11
-118.735
 21
-184.982
  0
LINE
  8
0
 10
-118.735
 20
-184.982
 11
-118.5
 21
-185
  0
LINE
  8
0
 10
-118.5
 20
-185
 11
118.5
 21
-185
  0
LINE
  8
0
 10
118.5
 20
-185
 11
118.735
 21
-184.982
  0
LINE
  8
0
 10
-100.123
 20
173.355
 11
-100.367
 21
173.391
  0
LINE
  8
0
 10
-100.367
 20
173.391
 11
-100.603
 21
173.464
  0
LINE
  8
0
 10
-100.603
 20
173.464
 11
-100.825
 21
173.571
  0
LINE
  8
0
 10
-100.825
 20
173.571
 11
-101.029
 21
173.71
  0
LINE
  8
0
 10
-101.029
 20
173.71
 11
-101.21
 21
173.878
  0
LINE
  8
0
 10
-101.21
 20
173.878
 11
-101.363
 21
174.071
  0
LINE
  8
0
 10
-101.363
 20
174.071
 11
-101.487
 21
174.284
  0
LINE
  8
0
 10
-101.487
 20
174.284
 11
-101.577
 21
174.514
  0
LINE
  8
0
 10
-101.577
 20
174.514
 11
-101.632
 21
174.754
  0
LINE
  8
0
 10
-101.632
 20
174.754
 11
-101.65
 21
175
  0
LINE
  8
0
 10
-101.65
 20
175
 11
-101.632
 21
175.246
  0
LINE
  8
0
 10
-101.632
 20
175.246
 11
-101.577
 21
175.486
  0
LINE
  8
0
 10
-101.577
 20
175.486
 11
-101.487
 21
175.716
  0
LINE
  8
0
 10
-101.487
 20
175.716
 11
-101.363
 21
175.929
  0
LINE
  8
0
 10
-101.363
 20
175.929
 11
-101.21
 21
176.122
  0
LINE
  8
0
 10
-101.21
 20
176.122
 11
-101.029
 21
176.29
  0
LINE
  8
0
 10
-101.029
 20
176.29
 11
-100.825
 21
176.429
  0
LINE
  8
0
 10
-100.825
 20
176.429
 11
-100.603
 21
176.536
  0
LINE
  8
0
 10
-100.603
 20
176.536
 11
-100.367
 21
176.609
  0
LINE
  8
0
 10
-100.367
 20
176.609
 11
-100.123
 21
176.645
  0
LINE
  8
0
 10
-100.123
 20
176.645
 11
-99.8767
 21
176.645
  0
LINE
  8
0
 10
-99.8767
 20
176.645
 11
-99.6328
 21
176.609
  0
LINE
  8
0
 10
-99.6328
 20
176.609
 11
-99.3972
 21
176.536
  0
LINE
  8
0
 10
-99.3972
 20
176.536
 11
-99.175
 21
176.429
  0
LINE
  8
0
 10
-99.175
 20
176.429
 11
-98.9712
 21
176.29
  0
LINE
  8
0
 10
-98.9712
 20
176.29
 11
-98.7905
 21
176.122
  0
LINE
  8
0
 10
-98.7905
 20
176.122
 11
-98.6367
 21
175.929
  0
LINE
  8
0
 10
-98.6367
 20
175.929
 11
-98.5134
 21
175.716
  0
LINE
  8
0
 10
-98.5134
 20
175.716
 11
-98.4233
 21
175.486
  0
LINE
  8
0
 10
-98.4233
 20
175.486
 11
-98.3684
 21
175.246
  0
LINE
  8
0
 10
-98.3684
 20
175.246
 11
-98.35
 21
175
  0
LINE
  8
0
 10
-98.35
 20
175
 11
-98.3684
 21
174.754
  0
LINE
  8
0
 10
-98.3684
 20
174.754
 11
-98.4233
 21
174.514
  0
LINE
  8
0
 10
-98.4233
 20
174.514
 11
-98.5134
 21
174.284
  0
LINE
  8
0
 10
-98.5134
 20
174.284
 11
-98.6367
 21
174.071
  0
LINE
  8
0
 10
-98.6367
 20
174.071
 11
-98.7905
 21
173.878
  0
LINE
  8
0
 10
-98.7905
 20
173.878
 11
-98.9712
 21
173.71
  0
LINE
  8
0
 10
-98.9712
 20
173.71
 11
-99.175
 21
173.571
  0
LINE
  8
0
 10
-99.175
 20
173.571
 11
-99.3972
 21
173.464
  0
LINE
  8
0
 10
-99.3972
 20
173.464
 11
-99.6328
 21
173.391
  0
LINE
  8
0
 10
-99.6328
 20
173.391
 11
-99.8767
 21
173.355
  0
LINE
  8
0
 10
-99.8767
 20
173.355
 11
-100.123
 21
173.355
  0
LINE
  8
0
 10
-0.123291
 20
173.355
 11
-0.367157
 21
173.391
  0
LINE
  8
0
 10
-0.367157
 20
173.391
 11
-0.602798
 21
173.464
  0
LINE
  8
0
 10
-0.602798
 20
173.464
 11
-0.824997
 21
173.571
  0
LINE
  8
0
 10
-0.824997
 20
173.571
 11
-1.02875
 21
173.71
  0
LINE
  8
0
 10
-1.02875
 20
173.71
 11
-1.20953
 21
173.878
  0
LINE
  8
0
 10
-1.20953
 20
173.878
 11
-1.36328
 21
174.071
  0
LINE
  8
0
 10
-1.36328
 20
174.071
 11
-1.48659
 21
174.284
  0
LINE
  8
0
 10
-1.48659
 20
174.284
 11
-1.57669
 21
174.514
  0
LINE
  8
0
 10
-1.57669
 20
174.514
 11
-1.63156
 21
174.754
  0
LINE
  8
0
 10
-1.63156
 20
174.754
 11
-1.64999
 21
175
  0
LINE
  8
0
 10
-1.64999
 20
175
 11
-1.63156
 21
175.246
  0
LINE
  8
0
 10
-1.63156
 20
175.246
 11
-1.57669
 21
175.486
  0
LINE
  8
0
 10
-1.57669
 20
175.486
 11
-1.48659
 21
175.716
  0
LINE
  8
0
 10
-1.48659
 20
175.716
 11
-1.36328
 21
175.929
  0
LINE
  8
0
 10
-1.36328
 20
175.929
 11
-1.20953
 21
176.122
  0
LINE
  8
0
 10
-1.20953
 20
176.122
 11
-1.02875
 21
176.29
  0
LINE
  8
0
 10
-1.02875
 20
176.29
 11
-0.824997
 21
176.429
  0
LINE
  8
0
 10
-0.824997
 20
176.429
 11
-0.602798
 21
176.536
  0
LINE
  8
0
 10
-0.602798
 20
176.536
 11
-0.367157
 21
176.609
  0
LINE
  8
0
 10
-0.367157
 20
176.609
 11
-0.123291
 21
176.645
  0
LINE
  8
0
 10
-0.123291
 20
176.645
 11
0.123291
 21
176.645
  0
LINE
  8
0
 10
0.123291
 20
176.645
 11
0.367157
 21
176.609
  0
LINE
  8
0
 10
0.367157
 20
176.609
 11
0.602798
 21
176.536
  0
LINE
  8
0
 10
0.602798
 20
176.536
 11
0.824997
 21
176.429
  0
LINE
  8
0
 10
0.824997
 20
176.429
 11
1.02875
 21
176.29
  0
LINE
  8
0
 10
1.02875
 20
176.29
 11
1.20953
 21
176.122
  0
LINE
  8
0
 10
1.20953
 20
176.122
 11
1.36328
 21
175.929
  0
LINE
  8
0
 10
1.36328
 20
175.929
 11
1.48659
 21
175.716
  0
LINE
  8
0
 10
1.48659
 20
175.716
 11
1.57669
 21
175.486
  0
LINE
  8
0
 10
1.57669
 20
175.486
 11
1.63156
 21
175.246
  0
LINE
  8
0
 10
1.63156
 20
175.246
 11
1.64999
 21
175
  0
LINE
  8
0
 10
1.64999
 20
175
 11
1.63156
 21
174.754
  0
LINE
  8
0
 10
1.63156
 20
174.754
 11
1.57669
 21
174.514
  0
LINE
  8
0
 10
1.57669
 20
174.514
 11
1.48659
 21
174.284
  0
LINE
  8
0
 10
1.48659
 20
174.284
 11
1.36328
 21
174.071
  0
LINE
  8
0
 10
1.36328
 20
174.071
 11
1.20953
 21
173.878
  0
LINE
  8
0
 10
1.20953
 20
173.878
 11
1.02875
 21
173.71
  0
LINE
  8
0
 10
1.02875
 20
173.71
 11
0.824997
 21
173.571
  0
LINE
  8
0
 10
0.824997
 20
173.571
 11
0.602798
 21
173.464
  0
LINE
  8
0
 10
0.602798
 20
173.464
 11
0.367157
 21
173.391
  0
LINE
  8
0
 10
0.367157
 20
173.391
 11
0.123291
 21
173.355
  0
LINE
  8
0
 10
0.123291
 20
173.355
 11
-0.123291
 21
173.355
  0
LINE
  8
0
 10
99.8767
 20
173.355
 11
99.6328
 21
173.391
  0
LINE
  8
0
 10
99.6328
 20
173.391
 11
99.3972
 21
173.464
  0
LINE
  8
0
 10
99.3972
 20
173.464
 11
99.175
 21
173.571
  0
LINE
  8
0
 10
99.175
 20
173.571
 11
98.9712
 21
173.71
  0
LINE
  8
0
 10
98.9712
 20
173.71
 11
98.7905
 21
173.878
  0
LINE
  8
0
 10
98.7905
 20
173.878
 11
98.6367
 21
174.071
  0
LINE
  8
0
 10
98.6367
 20
174.071
 11
98.5134
 21
174.284
  0
LINE
  8
0
 10
98.5134
 20
174.284
 11
98.4233
 21
174.514
  0
LINE
  8
0
 10
98.4233
 20
174.514
 11
98.3684
 21
174.754
  0
LINE
  8
0
 10
98.3684
 20
174.754
 11
98.35
 21
175
  0
LINE
  8
0
 10
98.35
 20
175
 11
98.3684
 21
175.246
  0
LINE
  8
0
 10
98.3684
 20
175.246
 11
98.4233
 21
175.486
  0
LINE
  8
0
 10
98.4233
 20
175.486
 11
98.5134
 21
175.716
  0
LINE
  8
0
 10
98.5134
 20
175.716
 11
98.6367
 21
175.929
  0
LINE
  8
0
 10
98.6367
 20
175.929
 11
98.7905
 21
176.122
  0
LINE
  8
0
 10
98.7905
 20
176.122
 11
98.9712
 21
176.29
  0
LINE
  8
0
 10
98.9712
 20
176.29
 11
99.175
 21
176.429
  0
LINE
  8
0
 10
99.175
 20
176.429
 11
99.3972
 21
176.536
  0
LINE
  8
0
 10
99.3972
 20
176.536
 11
99.6328
 21
176.609
  0
LINE
  8
0
 10
99.6328
 20
176.609
 11
99.8767
 21
176.645
  0
LINE
  8
0
 10
99.8767
 20
176.645
 11
100.123
 21
176.645
  0
LINE
  8
0
 10
100.123
 20
176.645
 11
100.367
 21
176.609
  0
LINE
  8
0
 10
100.367
 20
176.609
 11
100.603
 21
176.536
  0
LINE
  8
0
 10
100.603
 20
176.536
 11
100.825
 21
176.429
  0
LINE
  8
0
 10
100.825
 20
176.429
 11
101.029
 21
176.29
  0
LINE
  8
0
 10
101.029
 20
176.29
 11
101.21
 21
176.122
  0
LINE
  8
0
 10
101.21
 20
176.122
 11
101.363
 21
175.929
  0
LINE
  8
0
 10
101.363
 20
175.929
 11
101.487
 21
175.716
  0
LINE
  8
0
 10
101.487
 20
175.716
 11
101.577
 21
175.486
  0
LINE
  8
0
 10
101.577
 20
175.486
 11
101.632
 21
175.246
  0
LINE
  8
0
 10
101.632
 20
175.246
 11
101.65
 21
175
  0
LINE
  8
0
 10
101.65
 20
175
 11
101.632
 21
174.754
  0
LINE
  8
0
 10
101.632
 20
174.754
 11
101.577
 21
174.514
  0
LINE
  8
0
 10
101.577
 20
174.514
 11
101.487
 21
174.284
  0
LINE
  8
0
 10
101.487
 20
174.284
 11
101.363
 21
174.071
  0
LINE
  8
0
 10
101.363
 20
174.071
 11
101.21
 21
173.878
  0
LINE
  8
0
 10
101.21
 20
173.878
 11
101.029
 21
173.71
  0
LINE
  8
0
 10
101.029
 20
173.71
 11
100.825
 21
173.571
  0
LINE
  8
0
 10
100.825
 20
173.571
 11
100.603
 21
173.464
  0
LINE
  8
0
 10
100.603
 20
173.464
 11
100.367
 21
173.391
  0
LINE
  8
0
 10
100.367
 20
173.391
 11
100.123
 21
173.355
  0
LINE
  8
0
 10
100.123
 20
173.355
 11
99.8767
 21
173.355
  0
LINE
  8
0
 10
-116.123
 20
119.605
 11
-116.367
 21
119.641
  0
LINE
  8
0
 10
-116.367
 20
119.641
 11
-116.603
 21
119.714
  0
LINE
  8
0
 10
-116.603
 20
119.714
 11
-116.825
 21
119.821
  0
LINE
  8
0
 10
-116.825
 20
119.821
 11
-117.029
 21
119.96
  0
LINE
  8
0
 10
-117.029
 20
119.96
 11
-117.21
 21
120.128
  0
LINE
  8
0
 10
-117.21
 20
120.128
 11
-117.363
 21
120.321
  0
LINE
  8
0
 10
-117.363
 20
120.321
 11
-117.487
 21
120.534
  0
LINE
  8
0
 10
-117.487
 20
120.534
 11
-117.577
 21
120.764
  0
LINE
  8
0
 10
-117.577
 20
120.764
 11
-117.632
 21
121.004
  0
LINE
  8
0
 10
-117.632
 20
121.004
 11
-117.65
 21
121.25
  0
LINE
  8
0
 10
-117.65
 20
121.25
 11
-117.632
 21
121.496
  0
LINE
  8
0
 10
-117.632
 20
121.496
 11
-117.577
 21
121.736
  0
LINE
  8
0
 10
-117.577
 20
121.736
 11
-117.487
 21
121.966
  0
LINE
  8
0
 10
-117.487
 20
121.966
 11
-117.363
 21
122.179
  0
LINE
  8
0
 10
-117.363
 20
122.179
 11
-117.21
 21
122.372
  0
LINE
  8
0
 10
-117.21
 20
122.372
 11
-117.029
 21
122.54
  0
LINE
  8
0
 10
-117.029
 20
122.54
 11
-116.825
 21
122.679
  0
LINE
  8
0
 10
-116.825
 20
122.679
 11
-116.603
 21
122.786
  0
LINE
  8
0
 10
-116.603
 20
122.786
 11
-116.367
 21
122.859
  0
LINE
  8
0
 10
-116.367
 20
122.859
 11
-116.123
 21
122.895
  0
LINE
  8
0
 10
-116.123
 20
122.895
 11
-115.877
 21
122.895
  0
LINE
  8
0
 10
-115.877
 20
122.895
 11
-115.633
 21
122.859
  0
LINE
  8
0
 10
-115.633
 20
122.859
 11
-115.397
 21
122.786
  0
LINE
  8
0
 10
-115.397
 20
122.786
 11
-115.175
 21
122.679
  0
LINE
  8
0
 10
-115.175
 20
122.679
 11
-114.971
 21
122.54
  0
LINE
  8
0
 10
-114.971
 20
122.54
 11
-114.79
 21
122.372
  0
LINE
  8
0
 10
-114.79
 20
122.372
 11
-114.637
 21
122.179
  0
LINE
  8
0
 10
-114.637
 20
122.179
 11
-114.513
 21
121.966
  0
LINE
  8
0
 10
-114.513
 20
121.966
 11
-114.423
 21
121.736
  0
LINE
  8
0
 10
-114.423
 20
121.736
 11
-114.368
 21
121.496
  0
LINE
  8
0
 10
-114.368
 20
121.496
 11
-114.35
 21
121.25
  0
LINE
  8
0
 10
-114.35
 20
121.25
 11
-114.368
 21
121.004
  0
LINE
  8
0
 10
-114.368
 20
121.004
 11
-114.423
 21
120.764
  0
LINE
  8
0
 10
-114.423
 20
120.764
 11
-114.513
 21
120.534
  0
LINE
  8
0
 10
-114.513
 20
120.534
 11
-114.637
 21
120.321
  0
LINE
  8
0
 10
-114.637
 20
120.321
 11
-114.79
 21
120.128
  0
LINE
  8
0
 10
-114.79
 20
120.128
 11
-114.971
 21
119.96
  0
LINE
  8
0
 10
-114.971
 20
119.96
 11
-115.175
 21
119.821
  0
LINE
  8
0
 10
-115.175
 20
119.821
 11
-115.397
 21
119.714
  0
LINE
  8
0
 10
-115.397
 20
119.714
 11
-115.633
 21
119.641
  0
LINE
  8
0
 10
-115.633
 20
119.641
 11
-115.877
 21
119.605
  0
LINE
  8
0
 10
-115.877
 20
119.605
 11
-116.123
 21
119.605
  0
LINE
  8
0
 10
-116.123
 20
32.1046
 11
-116.367
 21
32.1414
  0
LINE
  8
0
 10
-116.367
 20
32.1414
 11
-116.603
 21
32.2141
  0
LINE
  8
0
 10
-116.603
 20
32.2141
 11
-116.825
 21
32.321
  0
LINE
  8
0
 10
-116.825
 20
32.321
 11
-117.029
 21
32.46
  0
LINE
  8
0
 10
-117.029
 20
32.46
 11
-117.21
 21
32.6277
  0
LINE
  8
0
 10
-117.21
 20
32.6277
 11
-117.363
 21
32.8205
  0
LINE
  8
0
 10
-117.363
 20
32.8205
 11
-117.487
 21
33.0341
  0
LINE
  8
0
 10
-117.487
 20
33.0341
 11
-117.577
 21
33.2636
  0
LINE
  8
0
 10
-117.577
 20
33.2636
 11
-117.632
 21
33.5041
  0
LINE
  8
0
 10
-117.632
 20
33.5041
 11
-117.65
 21
33.75
  0
LINE
  8
0
 10
-117.65
 20
33.75
 11
-117.632
 21
33.9959
  0
LINE
  8
0
 10
-117.632
 20
33.9959
 11
-117.577
 21
34.2363
  0
LINE
  8
0
 10
-117.577
 20
34.2363
 11
-117.487
 21
34.4659
  0
LINE
  8
0
 10
-117.487
 20
34.4659
 11
-117.363
 21
34.6795
  0
LINE
  8
0
 10
-117.363
 20
34.6795
 11
-117.21
 21
34.8723
  0
LINE
  8
0
 10
-117.21
 20
34.8723
 11
-117.029
 21
35.04
  0
LINE
  8
0
 10
-117.029
 20
35.04
 11
-116.825
 21
35.1789
  0
LINE
  8
0
 10
-116.825
 20
35.1789
 11
-116.603
 21
35.2859
  0
LINE
  8
0
 10
-116.603
 20
35.2859
 11
-116.367
 21
35.3586
  0
LINE
  8
0
 10
-116.367
 20
35.3586
 11
-116.123
 21
35.3954
  0
LINE
  8
0
 10
-116.123
 20
35.3954
 11
-115.877
 21
35.3954
  0
LINE
  8
0
 10
-115.877
 20
35.3954
 11
-115.633
 21
35.3586
  0
LINE
  8
0
 10
-115.633
 20
35.3586
 11
-115.397
 21
35.2859
  0
LINE
  8
0
 10
-115.397
 20
35.2859
 11
-115.175
 21
35.1789
  0
LINE
  8
0
 10
-115.175
 20
35.1789
 11
-114.971
 21
35.04
  0
LINE
  8
0
 10
-114.971
 20
35.04
 11
-114.79
 21
34.8723
  0
LINE
  8
0
 10
-114.79
 20
34.8723
 11
-114.637
 21
34.6795
  0
LINE
  8
0
 10
-114.637
 20
34.6795
 11
-114.513
 21
34.4659
  0
LINE
  8
0
 10
-114.513
 20
34.4659
 11
-114.423
 21
34.2363
  0
LINE
  8
0
 10
-114.423
 20
34.2363
 11
-114.368
 21
33.9959
  0
LINE
  8
0
 10
-114.368
 20
33.9959
 11
-114.35
 21
33.75
  0
LINE
  8
0
 10
-114.35
 20
33.75
 11
-114.368
 21
33.5041
  0
LINE
  8
0
 10
-114.368
 20
33.5041
 11
-114.423
 21
33.2636
  0
LINE
  8
0
 10
-114.423
 20
33.2636
 11
-114.513
 21
33.0341
  0
LINE
  8
0
 10
-114.513
 20
33.0341
 11
-114.637
 21
32.8205
  0
LINE
  8
0
 10
-114.637
 20
32.8205
 11
-114.79
 21
32.6277
  0
LINE
  8
0
 10
-114.79
 20
32.6277
 11
-114.971
 21
32.46
  0
LINE
  8
0
 10
-114.971
 20
32.46
 11
-115.175
 21
32.321
  0
LINE
  8
0
 10
-115.175
 20
32.321
 11
-115.397
 21
32.2141
  0
LINE
  8
0
 10
-115.397
 20
32.2141
 11
-115.633
 21
32.1414
  0
LINE
  8
0
 10
-115.633
 20
32.1414
 11
-115.877
 21
32.1046
  0
LINE
  8
0
 10
-115.877
 20
32.1046
 11
-116.123
 21
32.1046
  0
LINE
  8
0
 10
-116.123
 20
-55.3954
 11
-116.367
 21
-55.3586
  0
LINE
  8
0
 10
-116.367
 20
-55.3586
 11
-116.603
 21
-55.2859
  0
LINE
  8
0
 10
-116.603
 20
-55.2859
 11
-116.825
 21
-55.1789
  0
LINE
  8
0
 10
-116.825
 20
-55.1789
 11
-117.029
 21
-55.04
  0
LINE
  8
0
 10
-117.029
 20
-55.04
 11
-117.21
 21
-54.8723
  0
LINE
  8
0
 10
-117.21
 20
-54.8723
 11
-117.363
 21
-54.6795
  0
LINE
  8
0
 10
-117.363
 20
-54.6795
 11
-117.487
 21
-54.4659
  0
LINE
  8
0
 10
-117.487
 20
-54.4659
 11
-117.577
 21
-54.2363
  0
LINE
  8
0
 10
-117.577
 20
-54.2363
 11
-117.632
 21
-53.9959
  0
LINE
  8
0
 10
-117.632
 20
-53.9959
 11
-117.65
 21
-53.75
  0
LINE
  8
0
 10
-117.65
 20
-53.75
 11
-117.632
 21
-53.5041
  0
LINE
  8
0
 10
-117.632
 20
-53.5041
 11
-117.577
 21
-53.2636
  0
LINE
  8
0
 10
-117.577
 20
-53.2636
 11
-117.487
 21
-53.0341
  0
LINE
  8
0
 10
-117.487
 20
-53.0341
 11
-117.363
 21
-52.8205
  0
LINE
  8
0
 10
-117.363
 20
-52.8205
 11
-117.21
 21
-52.6277
  0
LINE
  8
0
 10
-117.21
 20
-52.6277
 11
-117.029
 21
-52.46
  0
LINE
  8
0
 10
-117.029
 20
-52.46
 11
-116.825
 21
-52.321
  0
LINE
  8
0
 10
-116.825
 20
-52.321
 11
-116.603
 21
-52.2141
  0
LINE
  8
0
 10
-116.603
 20
-52.2141
 11
-116.367
 21
-52.1414
  0
LINE
  8
0
 10
-116.367
 20
-52.1414
 11
-116.123
 21
-52.1046
  0
LINE
  8
0
 10
-116.123
 20
-52.1046
 11
-115.877
 21
-52.1046
  0
LINE
  8
0
 10
-115.877
 20
-52.1046
 11
-115.633
 21
-52.1414
  0
LINE
  8
0
 10
-115.633
 20
-52.1414
 11
-115.397
 21
-52.2141
  0
LINE
  8
0
 10
-115.397
 20
-52.2141
 11
-115.175
 21
-52.321
  0
LINE
  8
0
 10
-115.175
 20
-52.321
 11
-114.971
 21
-52.46
  0
LINE
  8
0
 10
-114.971
 20
-52.46
 11
-114.79
 21
-52.6277
  0
LINE
  8
0
 10
-114.79
 20
-52.6277
 11
-114.637
 21
-52.8205
  0
LINE
  8
0
 10
-114.637
 20
-52.8205
 11
-114.513
 21
-53.0341
  0
LINE
  8
0
 10
-114.513
 20
-53.0341
 11
-114.423
 21
-53.2636
  0
LINE
  8
0
 10
-114.423
 20
-53.2636
 11
-114.368
 21
-53.5041
  0
LINE
  8
0
 10
-114.368
 20
-53.5041
 11
-114.35
 21
-53.75
  0
LINE
  8
0
 10
-114.35
 20
-53.75
 11
-114.368
 21
-53.9959
  0
LINE
  8
0
 10
-114.368
 20
-53.9959
 11
-114.423
 21
-54.2363
  0
LINE
  8
0
 10
-114.423
 20
-54.2363
 11
-114.513
 21
-54.4659
  0
LINE
  8
0
 10
-114.513
 20
-54.4659
 11
-114.637
 21
-54.6795
  0
LINE
  8
0
 10
-114.637
 20
-54.6795
 11
-114.79
 21
-54.8723
  0
LINE
  8
0
 10
-114.79
 20
-54.8723
 11
-114.971
 21
-55.04
  0
LINE
  8
0
 10
-114.971
 20
-55.04
 11
-115.175
 21
-55.1789
  0
LINE
  8
0
 10
-115.175
 20
-55.1789
 11
-115.397
 21
-55.2859
  0
LINE
  8
0
 10
-115.397
 20
-55.2859
 11
-115.633
 21
-55.3586
  0
LINE
  8
0
 10
-115.633
 20
-55.3586
 11
-115.877
 21
-55.3954
  0
LINE
  8
0
 10
-115.877
 20
-55.3954
 11
-116.123
 21
-55.3954
  0
LINE
  8
0
 10
115.877
 20
-55.3954
 11
115.633
 21
-55.3586
  0
LINE
  8
0
 10
115.633
 20
-55.3586
 11
115.397
 21
-55.2859
  0
LINE
  8
0
 10
115.397
 20
-55.2859
 11
115.175
 21
-55.1789
  0
LINE
  8
0
 10
115.175
 20
-55.1789
 11
114.971
 21
-55.04
  0
LINE
  8
0
 10
114.971
 20
-55.04
 11
114.79
 21
-54.8723
  0
LINE
  8
0
 10
114.79
 20
-54.8723
 11
114.637
 21
-54.6795
  0
LINE
  8
0
 10
114.637
 20
-54.6795
 11
114.513
 21
-54.4659
  0
LINE
  8
0
 10
114.513
 20
-54.4659
 11
114.423
 21
-54.2363
  0
LINE
  8
0
 10
114.423
 20
-54.2363
 11
114.368
 21
-53.9959
  0
LINE
  8
0
 10
114.368
 20
-53.9959
 11
114.35
 21
-53.75
  0
LINE
  8
0
 10
114.35
 20
-53.75
 11
114.368
 21
-53.5041
  0
LINE
  8
0
 10
114.368
 20
-53.5041
 11
114.423
 21
-53.2636
  0
LINE
  8
0
 10
114.423
 20
-53.2636
 11
114.513
 21
-53.0341
  0
LINE
  8
0
 10
114.513
 20
-53.0341
 11
114.637
 21
-52.8205
  0
LINE
  8
0
 10
114.637
 20
-52.8205
 11
114.79
 21
-52.6277
  0
LINE
  8
0
 10
114.79
 20
-52.6277
 11
114.971
 21
-52.46
  0
LINE
  8
0
 10
114.971
 20
-52.46
 11
115.175
 21
-52.321
  0
LINE
  8
0
 10
115.175
 20
-52.321
 11
115.397
 21
-52.2141
  0
LINE
  8
0
 10
115.397
 20
-52.2141
 11
115.633
 21
-52.1414
  0
LINE
  8
0
 10
115.633
 20
-52.1414
 11
115.877
 21
-52.1046
  0
LINE
  8
0
 10
115.877
 20
-52.1046
 11
116.123
 21
-52.1046
  0
LINE
  8
0
 10
116.123
 20
-52.1046
 11
116.367
 21
-52.1414
  0
LINE
  8
0
 10
116.367
 20
-52.1414
 11
116.603
 21
-52.2141
  0
LINE
  8
0
 10
116.603
 20
-52.2141
 11
116.825
 21
-52.321
  0
LINE
  8
0
 10
116.825
 20
-52.321
 11
117.029
 21
-52.46
  0
LINE
  8
0
 10
117.029
 20
-52.46
 11
117.21
 21
-52.6277
  0
LINE
  8
0
 10
117.21
 20
-52.6277
 11
117.363
 21
-52.8205
  0
LINE
  8
0
 10
117.363
 20
-52.8205
 11
117.487
 21
-53.0341
  0
LINE
  8
0
 10
117.487
 20
-53.0341
 11
117.577
 21
-53.2636
  0
LINE
  8
0
 10
117.577
 20
-53.2636
 11
117.632
 21
-53.5041
  0
LINE
  8
0
 10
117.632
 20
-53.5041
 11
117.65
 21
-53.75
  0
LINE
  8
0
 10
117.65
 20
-53.75
 11
117.632
 21
-53.9959
  0
LINE
  8
0
 10
117.632
 20
-53.9959
 11
117.577
 21
-54.2363
  0
LINE
  8
0
 10
117.577
 20
-54.2363
 11
117.487
 21
-54.4659
  0
LINE
  8
0
 10
117.487
 20
-54.4659
 11
117.363
 21
-54.6795
  0
LINE
  8
0
 10
117.363
 20
-54.6795
 11
117.21
 21
-54.8723
  0
LINE
  8
0
 10
117.21
 20
-54.8723
 11
117.029
 21
-55.04
  0
LINE
  8
0
 10
117.029
 20
-55.04
 11
116.825
 21
-55.1789
  0
LINE
  8
0
 10
116.825
 20
-55.1789
 11
116.603
 21
-55.2859
  0
LINE
  8
0
 10
116.603
 20
-55.2859
 11
116.367
 21
-55.3586
  0
LINE
  8
0
 10
116.367
 20
-55.3586
 11
116.123
 21
-55.3954
  0
LINE
  8
0
 10
116.123
 20
-55.3954
 11
115.877
 21
-55.3954
  0
LINE
  8
0
 10
-116.123
 20
-142.895
 11
-116.367
 21
-142.859
  0
LINE
  8
0
 10
-116.367
 20
-142.859
 11
-116.603
 21
-142.786
  0
LINE
  8
0
 10
-116.603
 20
-142.786
 11
-116.825
 21
-142.679
  0
LINE
  8
0
 10
-116.825
 20
-142.679
 11
-117.029
 21
-142.54
  0
LINE
  8
0
 10
-117.029
 20
-142.54
 11
-117.21
 21
-142.372
  0
LINE
  8
0
 10
-117.21
 20
-142.372
 11
-117.363
 21
-142.179
  0
LINE
  8
0
 10
-117.363
 20
-142.179
 11
-117.487
 21
-141.966
  0
LINE
  8
0
 10
-117.487
 20
-141.966
 11
-117.577
 21
-141.736
  0
LINE
  8
0
 10
-117.577
 20
-141.736
 11
-117.632
 21
-141.496
  0
LINE
  8
0
 10
-117.632
 20
-141.496
 11
-117.65
 21
-141.25
  0
LINE
  8
0
 10
-117.65
 20
-141.25
 11
-117.632
 21
-141.004
  0
LINE
  8
0
 10
-117.632
 20
-141.004
 11
-117.577
 21
-140.764
  0
LINE
  8
0
 10
-117.577
 20
-140.764
 11
-117.487
 21
-140.534
  0
LINE
  8
0
 10
-117.487
 20
-140.534
 11
-117.363
 21
-140.321
  0
LINE
  8
0
 10
-117.363
 20
-140.321
 11
-117.21
 21
-140.128
  0
LINE
  8
0
 10
-117.21
 20
-140.128
 11
-117.029
 21
-139.96
  0
LINE
  8
0
 10
-117.029
 20
-139.96
 11
-116.825
 21
-139.821
  0
LINE
  8
0
 10
-116.825
 20
-139.821
 11
-116.603
 21
-139.714
  0
LINE
  8
0
 10
-116.603
 20
-139.714
 11
-116.367
 21
-139.641
  0
LINE
  8
0
 10
-116.367
 20
-139.641
 11
-116.123
 21
-139.605
  0
LINE
  8
0
 10
-116.123
 20
-139.605
 11
-115.877
 21
-139.605
  0
LINE
  8
0
 10
-115.877
 20
-139.605
 11
-115.633
 21
-139.641
  0
LINE
  8
0
 10
-115.633
 20
-139.641
 11
-115.397
 21
-139.714
  0
LINE
  8
0
 10
-115.397
 20
-139.714
 11
-115.175
 21
-139.821
  0
LINE
  8
0
 10
-115.175
 20
-139.821
 11
-114.971
 21
-139.96
  0
LINE
  8
0
 10
-114.971
 20
-139.96
 11
-114.79
 21
-140.128
  0
LINE
  8
0
 10
-114.79
 20
-140.128
 11
-114.637
 21
-140.321
  0
LINE
  8
0
 10
-114.637
 20
-140.321
 11
-114.513
 21
-140.534
  0
LINE
  8
0
 10
-114.513
 20
-140.534
 11
-114.423
 21
-140.764
  0
LINE
  8
0
 10
-114.423
 20
-140.764
 11
-114.368
 21
-141.004
  0
LINE
  8
0
 10
-114.368
 20
-141.004
 11
-114.35
 21
-141.25
  0
LINE
  8
0
 10
-114.35
 20
-141.25
 11
-114.368
 21
-141.496
  0
LINE
  8
0
 10
-114.368
 20
-141.496
 11
-114.423
 21
-141.736
  0
LINE
  8
0
 10
-114.423
 20
-141.736
 11
-114.513
 21
-141.966
  0
LINE
  8
0
 10
-114.513
 20
-141.966
 11
-114.637
 21
-142.179
  0
LINE
  8
0
 10
-114.637
 20
-142.179
 11
-114.79
 21
-142.372
  0
LINE
  8
0
 10
-114.79
 20
-142.372
 11
-114.971
 21
-142.54
  0
LINE
  8
0
 10
-114.971
 20
-142.54
 11
-115.175
 21
-142.679
  0
LINE
  8
0
 10
-115.175
 20
-142.679
 11
-115.397
 21
-142.786
  0
LINE
  8
0
 10
-115.397
 20
-142.786
 11
-115.633
 21
-142.859
  0
LINE
  8
0
 10
-115.633
 20
-142.859
 11
-115.877
 21
-142.895
  0
LINE
  8
0
 10
-115.877
 20
-142.895
 11
-116.123
 21
-142.895
  0
LINE
  8
0
 10
-100.123
 20
-178.645
 11
-100.367
 21
-178.609
  0
LINE
  8
0
 10
-100.367
 20
-178.609
 11
-100.603
 21
-178.536
  0
LINE
  8
0
 10
-100.603
 20
-178.536
 11
-100.825
 21
-178.429
  0
LINE
  8
0
 10
-100.825
 20
-178.429
 11
-101.029
 21
-178.29
  0
LINE
  8
0
 10
-101.029
 20
-178.29
 11
-101.21
 21
-178.122
  0
LINE
  8
0
 10
-101.21
 20
-178.122
 11
-101.363
 21
-177.929
  0
LINE
  8
0
 10
-101.363
 20
-177.929
 11
-101.487
 21
-177.716
  0
LINE
  8
0
 10
-101.487
 20
-177.716
 11
-101.577
 21
-177.486
  0
LINE
  8
0
 10
-101.577
 20
-177.486
 11
-101.632
 21
-177.246
  0
LINE
  8
0
 10
-101.632
 20
-177.246
 11
-101.65
 21
-177
  0
LINE
  8
0
 10
-101.65
 20
-177
 11
-101.632
 21
-176.754
  0
LINE
  8
0
 10
-101.632
 20
-176.754
 11
-101.577
 21
-176.514
  0
LINE
  8
0
 10
-101.577
 20
-176.514
 11
-101.487
 21
-176.284
  0
LINE
  8
0
 10
-101.487
 20
-176.284
 11
-101.363
 21
-176.071
  0
LINE
  8
0
 10
-101.363
 20
-176.071
 11
-101.21
 21
-175.878
  0
LINE
  8
0
 10
-101.21
 20
-175.878
 11
-101.029
 21
-175.71
  0
LINE
  8
0
 10
-101.029
 20
-175.71
 11
-100.825
 21
-175.571
  0
LINE
  8
0
 10
-100.825
 20
-175.571
 11
-100.603
 21
-175.464
  0
LINE
  8
0
 10
-100.603
 20
-175.464
 11
-100.367
 21
-175.391
  0
LINE
  8
0
 10
-100.367
 20
-175.391
 11
-100.123
 21
-175.355
  0
LINE
  8
0
 10
-100.123
 20
-175.355
 11
-99.8767
 21
-175.355
  0
LINE
  8
0
 10
-99.8767
 20
-175.355
 11
-99.6328
 21
-175.391
  0
LINE
  8
0
 10
-99.6328
 20
-175.391
 11
-99.3972
 21
-175.464
  0
LINE
  8
0
 10
-99.3972
 20
-175.464
 11
-99.175
 21
-175.571
  0
LINE
  8
0
 10
-99.175
 20
-175.571
 11
-98.9712
 21
-175.71
  0
LINE
  8
0
 10
-98.9712
 20
-175.71
 11
-98.7905
 21
-175.878
  0
LINE
  8
0
 10
-98.7905
 20
-175.878
 11
-98.6367
 21
-176.071
  0
LINE
  8
0
 10
-98.6367
 20
-176.071
 11
-98.5134
 21
-176.284
  0
LINE
  8
0
 10
-98.5134
 20
-176.284
 11
-98.4233
 21
-176.514
  0
LINE
  8
0
 10
-98.4233
 20
-176.514
 11
-98.3684
 21
-176.754
  0
LINE
  8
0
 10
-98.3684
 20
-176.754
 11
-98.35
 21
-177
  0
LINE
  8
0
 10
-98.35
 20
-177
 11
-98.3684
 21
-177.246
  0
LINE
  8
0
 10
-98.3684
 20
-177.246
 11
-98.4233
 21
-177.486
  0
LINE
  8
0
 10
-98.4233
 20
-177.486
 11
-98.5134
 21
-177.716
  0
LINE
  8
0
 10
-98.5134
 20
-177.716
 11
-98.6367
 21
-177.929
  0
LINE
  8
0
 10
-98.6367
 20
-177.929
 11
-98.7905
 21
-178.122
  0
LINE
  8
0
 10
-98.7905
 20
-178.122
 11
-98.9712
 21
-178.29
  0
LINE
  8
0
 10
-98.9712
 20
-178.29
 11
-99.175
 21
-178.429
  0
LINE
  8
0
 10
-99.175
 20
-178.429
 11
-99.3972
 21
-178.536
  0
LINE
  8
0
 10
-99.3972
 20
-178.536
 11
-99.6328
 21
-178.609
  0
LINE
  8
0
 10
-99.6328
 20
-178.609
 11
-99.8767
 21
-178.645
  0
LINE
  8
0
 10
-99.8767
 20
-178.645
 11
-100.123
 21
-178.645
  0
LINE
  8
0
 10
-0.123291
 20
-178.645
 11
-0.367157
 21
-178.609
  0
LINE
  8
0
 10
-0.367157
 20
-178.609
 11
-0.602798
 21
-178.536
  0
LINE
  8
0
 10
-0.602798
 20
-178.536
 11
-0.824997
 21
-178.429
  0
LINE
  8
0
 10
-0.824997
 20
-178.429
 11
-1.02875
 21
-178.29
  0
LINE
  8
0
 10
-1.02875
 20
-178.29
 11
-1.20953
 21
-178.122
  0
LINE
  8
0
 10
-1.20953
 20
-178.122
 11
-1.36328
 21
-177.929
  0
LINE
  8
0
 10
-1.36328
 20
-177.929
 11
-1.48659
 21
-177.716
  0
LINE
  8
0
 10
-1.48659
 20
-177.716
 11
-1.57669
 21
-177.486
  0
LINE
  8
0
 10
-1.57669
 20
-177.486
 11
-1.63156
 21
-177.246
  0
LINE
  8
0
 10
-1.63156
 20
-177.246
 11
-1.64999
 21
-177
  0
LINE
  8
0
 10
-1.64999
 20
-177
 11
-1.63156
 21
-176.754
  0
LINE
  8
0
 10
-1.63156
 20
-176.754
 11
-1.57669
 21
-176.514
  0
LINE
  8
0
 10
-1.57669
 20
-176.514
 11
-1.48659
 21
-176.284
  0
LINE
  8
0
 10
-1.48659
 20
-176.284
 11
-1.36328
 21
-176.071
  0
LINE
  8
0
 10
-1.36328
 20
-176.071
 11
-1.20953
 21
-175.878
  0
LINE
  8
0
 10
-1.20953
 20
-175.878
 11
-1.02875
 21
-175.71
  0
LINE
  8
0
 10
-1.02875
 20
-175.71
 11
-0.824997
 21
-175.571
  0
LINE
  8
0
 10
-0.824997
 20
-175.571
 11
-0.602798
 21
-175.464
  0
LINE
  8
0
 10
-0.602798
 20
-175.464
 11
-0.367157
 21
-175.391
  0
LINE
  8
0
 10
-0.367157
 20
-175.391
 11
-0.123291
 21
-175.355
  0
LINE
  8
0
 10
-0.123291
 20
-175.355
 11
0.123291
 21
-175.355
  0
LINE
  8
0
 10
0.123291
 20
-175.355
 11
0.367157
 21
-175.391
  0
LINE
  8
0
 10
0.367157
 20
-175.391
 11
0.602798
 21
-175.464
  0
LINE
  8
0
 10
0.602798
 20
-175.464
 11
0.824997
 21
-175.571
  0
LINE
  8
0
 10
0.824997
 20
-175.571
 11
1.02875
 21
-175.71
  0
LINE
  8
0
 10
1.02875
 20
-175.71
 11
1.20953
 21
-175.878
  0
LINE
  8
0
 10
1.20953
 20
-175.878
 11
1.36328
 21
-176.071
  0
LINE
  8
0
 10
1.36328
 20
-176.071
 11
1.48659
 21
-176.284
  0
LINE
  8
0
 10
1.48659
 20
-176.284
 11
1.57669
 21
-176.514
  0
LINE
  8
0
 10
1.57669
 20
-176.514
 11
1.63156
 21
-176.754
  0
LINE
  8
0
 10
1.63156
 20
-176.754
 11
1.64999
 21
-177
  0
LINE
  8
0
 10
1.64999
 20
-177
 11
1.63156
 21
-177.246
  0
LINE
  8
0
 10
1.63156
 20
-177.246
 11
1.57669
 21
-177.486
  0
LINE
  8
0
 10
1.57669
 20
-177.486
 11
1.48659
 21
-177.716
  0
LINE
  8
0
 10
1.48659
 20
-177.716
 11
1.36328
 21
-177.929
  0
LINE
  8
0
 10
1.36328
 20
-177.929
 11
1.20953
 21
-178.122
  0
LINE
  8
0
 10
1.20953
 20
-178.122
 11
1.02875
 21
-178.29
  0
LINE
  8
0
 10
1.02875
 20
-178.29
 11
0.824997
 21
-178.429
  0
LINE
  8
0
 10
0.824997
 20
-178.429
 11
0.602798
 21
-178.536
  0
LINE
  8
0
 10
0.602798
 20
-178.536
 11
0.367157
 21
-178.609
  0
LINE
  8
0
 10
0.367157
 20
-178.609
 11
0.123291
 21
-178.645
  0
LINE
  8
0
 10
0.123291
 20
-178.645
 11
-0.123291
 21
-178.645
  0
LINE
  8
0
 10
99.8767
 20
-178.645
 11
99.6328
 21
-178.609
  0
LINE
  8
0
 10
99.6328
 20
-178.609
 11
99.3972
 21
-178.536
  0
LINE
  8
0
 10
99.3972
 20
-178.536
 11
99.175
 21
-178.429
  0
LINE
  8
0
 10
99.175
 20
-178.429
 11
98.9712
 21
-178.29
  0
LINE
  8
0
 10
98.9712
 20
-178.29
 11
98.7905
 21
-178.122
  0
LINE
  8
0
 10
98.7905
 20
-178.122
 11
98.6367
 21
-177.929
  0
LINE
  8
0
 10
98.6367
 20
-177.929
 11
98.5134
 21
-177.716
  0
LINE
  8
0
 10
98.5134
 20
-177.716
 11
98.4233
 21
-177.486
  0
LINE
  8
0
 10
98.4233
 20
-177.486
 11
98.3684
 21
-177.246
  0
LINE
  8
0
 10
98.3684
 20
-177.246
 11
98.35
 21
-177
  0
LINE
  8
0
 10
98.35
 20
-177
 11
98.3684
 21
-176.754
  0
LINE
  8
0
 10
98.3684
 20
-176.754
 11
98.4233
 21
-176.514
  0
LINE
  8
0
 10
98.4233
 20
-176.514
 11
98.5134
 21
-176.284
  0
LINE
  8
0
 10
98.5134
 20
-176.284
 11
98.6367
 21
-176.071
  0
LINE
  8
0
 10
98.6367
 20
-176.071
 11
98.7905
 21
-175.878
  0
LINE
  8
0
 10
98.7905
 20
-175.878
 11
98.9712
 21
-175.71
  0
LINE
  8
0
 10
98.9712
 20
-175.71
 11
99.175
 21
-175.571
  0
LINE
  8
0
 10
99.175
 20
-175.571
 11
99.3972
 21
-175.464
  0
LINE
  8
0
 10
99.3972
 20
-175.464
 11
99.6328
 21
-175.391
  0
LINE
  8
0
 10
99.6328
 20
-175.391
 11
99.8767
 21
-175.355
  0
LINE
  8
0
 10
99.8767
 20
-175.355
 11
100.123
 21
-175.355
  0
LINE
  8
0
 10
100.123
 20
-175.355
 11
100.367
 21
-175.391
  0
LINE
  8
0
 10
100.367
 20
-175.391
 11
100.603
 21
-175.464
  0
LINE
  8
0
 10
100.603
 20
-175.464
 11
100.825
 21
-175.571
  0
LINE
  8
0
 10
100.825
 20
-175.571
 11
101.029
 21
-175.71
  0
LINE
  8
0
 10
101.029
 20
-175.71
 11
101.21
 21
-175.878
  0
LINE
  8
0
 10
101.21
 20
-175.878
 11
101.363
 21
-176.071
  0
LINE
  8
0
 10
101.363
 20
-176.071
 11
101.487
 21
-176.284
  0
LINE
  8
0
 10
101.487
 20
-176.284
 11
101.577
 21
-176.514
  0
LINE
  8
0
 10
101.577
 20
-176.514
 11
101.632
 21
-176.754
  0
LINE
  8
0
 10
101.632
 20
-176.754
 11
101.65
 21
-177
  0
LINE
  8
0
 10
101.65
 20
-177
 11
101.632
 21
-177.246
  0
LINE
  8
0
 10
101.632
 20
-177.246
 11
101.577
 21
-177.486
  0
LINE
  8
0
 10
101.577
 20
-177.486
 11
101.487
 21
-177.716
  0
LINE
  8
0
 10
101.487
 20
-177.716
 11
101.363
 21
-177.929
  0
LINE
  8
0
 10
101.363
 20
-177.929
 11
101.21
 21
-178.122
  0
LINE
  8
0
 10
101.21
 20
-178.122
 11
101.029
 21
-178.29
  0
LINE
  8
0
 10
101.029
 20
-178.29
 11
100.825
 21
-178.429
  0
LINE
  8
0
 10
100.825
 20
-178.429
 11
100.603
 21
-178.536
  0
LINE
  8
0
 10
100.603
 20
-178.536
 11
100.367
 21
-178.609
  0
LINE
  8
0
 10
100.367
 20
-178.609
 11
100.123
 21
-178.645
  0
LINE
  8
0
 10
100.123
 20
-178.645
 11
99.8767
 21
-178.645
  0
ENDSEC
  0
SECTION
  2
OBJECTS
  0
DICTIONARY
  0
ENDSEC
  0
EOF
