  0
SECTION
  2
BLOCKS
  0
ENDSEC
  0
SECTION
  2
ENTITIES
  0
LINE
  8
0
 10
193.241
 20
-194.985
 11
193.479
 21
-194.942
  0
LINE
  8
0
 10
193.479
 20
-194.942
 11
193.709
 21
-194.87
  0
LINE
  8
0
 10
193.709
 20
-194.87
 11
193.929
 21
-194.771
  0
LINE
  8
0
 10
193.929
 20
-194.771
 11
194.136
 21
-194.646
  0
LINE
  8
0
 10
194.136
 20
-194.646
 11
194.326
 21
-194.497
  0
LINE
  8
0
 10
194.326
 20
-194.497
 11
194.497
 21
-194.326
  0
LINE
  8
0
 10
194.497
 20
-194.326
 11
194.646
 21
-194.136
  0
LINE
  8
0
 10
194.646
 20
-194.136
 11
194.771
 21
-193.929
  0
LINE
  8
0
 10
194.771
 20
-193.929
 11
194.87
 21
-193.709
  0
LINE
  8
0
 10
194.87
 20
-193.709
 11
194.942
 21
-193.479
  0
LINE
  8
0
 10
194.942
 20
-193.479
 11
194.985
 21
-193.241
  0
LINE
  8
0
 10
194.985
 20
-193.241
 11
195
 21
-193
  0
LINE
  8
0
 10
195
 20
-193
 11
195
 21
193
  0
LINE
  8
0
 10
195
 20
193
 11
194.985
 21
193.241
  0
LINE
  8
0
 10
194.985
 20
193.241
 11
194.942
 21
193.479
  0
LINE
  8
0
 10
194.942
 20
193.479
 11
194.87
 21
193.709
  0
LINE
  8
0
 10
194.87
 20
193.709
 11
194.771
 21
193.929
  0
LINE
  8
0
 10
194.771
 20
193.929
 11
194.646
 21
194.136
  0
LINE
  8
0
 10
194.646
 20
194.136
 11
194.497
 21
194.326
  0
LINE
  8
0
 10
194.497
 20
194.326
 11
194.326
 21
194.497
  0
LINE
  8
0
 10
194.326
 20
194.497
 11
194.136
 21
194.646
  0
LINE
  8
0
 10
194.136
 20
194.646
 11
193.929
 21
194.771
  0
LINE
  8
0
 10
193.929
 20
194.771
 11
193.709
 21
194.87
  0
LINE
  8
0
 10
193.709
 20
194.87
 11
193.479
 21
194.942
  0
LINE
  8
0
 10
193.479
 20
194.942
 11
193.241
 21
194.985
  0
LINE
  8
0
 10
193.241
 20
194.985
 11
193
 21
195
  0
LINE
  8
0
 10
193
 20
195
 11
-193
 21
195
  0
LINE
  8
0
 10
-193
 20
195
 11
-193.241
 21
194.985
  0
LINE
  8
0
 10
-193.241
 20
194.985
 11
-193.479
 21
194.942
  0
LINE
  8
0
 10
-193.479
 20
194.942
 11
-193.709
 21
194.87
  0
LINE
  8
0
 10
-193.709
 20
194.87
 11
-193.929
 21
194.771
  0
LINE
  8
0
 10
-193.929
 20
194.771
 11
-194.136
 21
194.646
  0
LINE
  8
0
 10
-194.136
 20
194.646
 11
-194.326
 21
194.497
  0
LINE
  8
0
 10
-194.326
 20
194.497
 11
-194.497
 21
194.326
  0
LINE
  8
0
 10
-194.497
 20
194.326
 11
-194.646
 21
194.136
  0
LINE
  8
0
 10
-194.646
 20
194.136
 11
-194.771
 21
193.929
  0
LINE
  8
0
 10
-194.771
 20
193.929
 11
-194.87
 21
193.709
  0
LINE
  8
0
 10
-194.87
 20
193.709
 11
-194.942
 21
193.479
  0
LINE
  8
0
 10
-194.942
 20
193.479
 11
-194.985
 21
193.241
  0
LINE
  8
0
 10
-194.985
 20
193.241
 11
-195
 21
193
  0
LINE
  8
0
 10
-195
 20
193
 11
-195
 21
-193
  0
LINE
  8
0
 10
-195
 20
-193
 11
-194.985
 21
-193.241
  0
LINE
  8
0
 10
-194.985
 20
-193.241
 11
-194.942
 21
-193.479
  0
LINE
  8
0
 10
-194.942
 20
-193.479
 11
-194.87
 21
-193.709
  0
LINE
  8
0
 10
-194.87
 20
-193.709
 11
-194.771
 21
-193.929
  0
LINE
  8
0
 10
-194.771
 20
-193.929
 11
-194.646
 21
-194.136
  0
LINE
  8
0
 10
-194.646
 20
-194.136
 11
-194.497
 21
-194.326
  0
LINE
  8
0
 10
-194.497
 20
-194.326
 11
-194.326
 21
-194.497
  0
LINE
  8
0
 10
-194.326
 20
-194.497
 11
-194.136
 21
-194.646
  0
LINE
  8
0
 10
-194.136
 20
-194.646
 11
-193.929
 21
-194.771
  0
LINE
  8
0
 10
-193.929
 20
-194.771
 11
-193.709
 21
-194.87
  0
LINE
  8
0
 10
-193.709
 20
-194.87
 11
-193.479
 21
-194.942
  0
LINE
  8
0
 10
-193.479
 20
-194.942
 11
-193.241
 21
-194.985
  0
LINE
  8
0
 10
-193.241
 20
-194.985
 11
-193
 21
-195
  0
LINE
  8
0
 10
-193
 20
-195
 11
193
 21
-195
  0
LINE
  8
0
 10
193
 20
-195
 11
193.241
 21
-194.985
  0
LINE
  8
0
 10
184.665
 20
181.813
 11
184.334
 21
181.866
  0
LINE
  8
0
 10
184.334
 20
181.866
 11
184.01
 21
181.952
  0
LINE
  8
0
 10
184.01
 20
181.952
 11
183.697
 21
182.073
  0
LINE
  8
0
 10
183.697
 20
182.073
 11
183.398
 21
182.225
  0
LINE
  8
0
 10
183.398
 20
182.225
 11
183.117
 21
182.408
  0
LINE
  8
0
 10
183.117
 20
182.408
 11
182.856
 21
182.619
  0
LINE
  8
0
 10
182.856
 20
182.619
 11
182.619
 21
182.856
  0
LINE
  8
0
 10
182.619
 20
182.856
 11
182.408
 21
183.117
  0
LINE
  8
0
 10
182.408
 20
183.117
 11
182.225
 21
183.398
  0
LINE
  8
0
 10
182.225
 20
183.398
 11
182.073
 21
183.697
  0
LINE
  8
0
 10
182.073
 20
183.697
 11
181.952
 21
184.01
  0
LINE
  8
0
 10
181.952
 20
184.01
 11
181.866
 21
184.334
  0
LINE
  8
0
 10
181.866
 20
184.334
 11
181.813
 21
184.665
  0
LINE
  8
0
 10
181.813
 20
184.665
 11
181.796
 21
185
  0
LINE
  8
0
 10
181.796
 20
185
 11
181.813
 21
185.335
  0
LINE
  8
0
 10
181.813
 20
185.335
 11
181.866
 21
185.666
  0
LINE
  8
0
 10
181.866
 20
185.666
 11
181.952
 21
185.99
  0
LINE
  8
0
 10
181.952
 20
185.99
 11
182.073
 21
186.303
  0
LINE
  8
0
 10
182.073
 20
186.303
 11
182.225
 21
186.602
  0
LINE
  8
0
 10
182.225
 20
186.602
 11
182.408
 21
186.883
  0
LINE
  8
0
 10
182.408
 20
186.883
 11
182.619
 21
187.144
  0
LINE
  8
0
 10
182.619
 20
187.144
 11
182.856
 21
187.381
  0
LINE
  8
0
 10
182.856
 20
187.381
 11
183.117
 21
187.592
  0
LINE
  8
0
 10
183.117
 20
187.592
 11
183.398
 21
187.775
  0
LINE
  8
0
 10
183.398
 20
187.775
 11
183.697
 21
187.927
  0
LINE
  8
0
 10
183.697
 20
187.927
 11
184.01
 21
188.048
  0
LINE
  8
0
 10
184.01
 20
188.048
 11
184.334
 21
188.134
  0
LINE
  8
0
 10
184.334
 20
188.134
 11
184.665
 21
188.187
  0
LINE
  8
0
 10
184.665
 20
188.187
 11
185
 21
188.204
  0
LINE
  8
0
 10
185
 20
188.204
 11
185.335
 21
188.187
  0
LINE
  8
0
 10
185.335
 20
188.187
 11
185.666
 21
188.134
  0
LINE
  8
0
 10
185.666
 20
188.134
 11
185.99
 21
188.048
  0
LINE
  8
0
 10
185.99
 20
188.048
 11
186.303
 21
187.927
  0
LINE
  8
0
 10
186.303
 20
187.927
 11
186.602
 21
187.775
  0
LINE
  8
0
 10
186.602
 20
187.775
 11
186.883
 21
187.592
  0
LINE
  8
0
 10
186.883
 20
187.592
 11
187.144
 21
187.381
  0
LINE
  8
0
 10
187.144
 20
187.381
 11
187.381
 21
187.144
  0
LINE
  8
0
 10
187.381
 20
187.144
 11
187.592
 21
186.883
  0
LINE
  8
0
 10
187.592
 20
186.883
 11
187.775
 21
186.602
  0
LINE
  8
0
 10
187.775
 20
186.602
 11
187.927
 21
186.303
  0
LINE
  8
0
 10
187.927
 20
186.303
 11
188.048
 21
185.99
  0
LINE
  8
0
 10
188.048
 20
185.99
 11
188.134
 21
185.666
  0
LINE
  8
0
 10
188.134
 20
185.666
 11
188.187
 21
185.335
  0
LINE
  8
0
 10
188.187
 20
185.335
 11
188.204
 21
185
  0
LINE
  8
0
 10
188.204
 20
185
 11
188.187
 21
184.665
  0
LINE
  8
0
 10
188.187
 20
184.665
 11
188.134
 21
184.334
  0
LINE
  8
0
 10
188.134
 20
184.334
 11
188.048
 21
184.01
  0
LINE
  8
0
 10
188.048
 20
184.01
 11
187.927
 21
183.697
  0
LINE
  8
0
 10
187.927
 20
183.697
 11
187.775
 21
183.398
  0
LINE
  8
0
 10
187.775
 20
183.398
 11
187.592
 21
183.117
  0
LINE
  8
0
 10
187.592
 20
183.117
 11
187.381
 21
182.856
  0
LINE
  8
0
 10
187.381
 20
182.856
 11
187.144
 21
182.619
  0
LINE
  8
0
 10
187.144
 20
182.619
 11
186.883
 21
182.408
  0
LINE
  8
0
 10
186.883
 20
182.408
 11
186.602
 21
182.225
  0
LINE
  8
0
 10
186.602
 20
182.225
 11
186.303
 21
182.073
  0
LINE
  8
0
 10
186.303
 20
182.073
 11
185.99
 21
181.952
  0
LINE
  8
0
 10
185.99
 20
181.952
 11
185.666
 21
181.866
  0
LINE
  8
0
 10
185.666
 20
181.866
 11
185.335
 21
181.813
  0
LINE
  8
0
 10
185.335
 20
181.813
 11
185
 21
181.796
  0
LINE
  8
0
 10
185
 20
181.796
 11
184.665
 21
181.813
  0
LINE
  8
0
 10
-185.335
 20
181.813
 11
-185.666
 21
181.866
  0
LINE
  8
0
 10
-185.666
 20
181.866
 11
-185.99
 21
181.952
  0
LINE
  8
0
 10
-185.99
 20
181.952
 11
-186.303
 21
182.073
  0
LINE
  8
0
 10
-186.303
 20
182.073
 11
-186.602
 21
182.225
  0
LINE
  8
0
 10
-186.602
 20
182.225
 11
-186.883
 21
182.408
  0
LINE
  8
0
 10
-186.883
 20
182.408
 11
-187.144
 21
182.619
  0
LINE
  8
0
 10
-187.144
 20
182.619
 11
-187.381
 21
182.856
  0
LINE
  8
0
 10
-187.381
 20
182.856
 11
-187.592
 21
183.117
  0
LINE
  8
0
 10
-187.592
 20
183.117
 11
-187.775
 21
183.398
  0
LINE
  8
0
 10
-187.775
 20
183.398
 11
-187.927
 21
183.697
  0
LINE
  8
0
 10
-187.927
 20
183.697
 11
-188.048
 21
184.01
  0
LINE
  8
0
 10
-188.048
 20
184.01
 11
-188.134
 21
184.334
  0
LINE
  8
0
 10
-188.134
 20
184.334
 11
-188.187
 21
184.665
  0
LINE
  8
0
 10
-188.187
 20
184.665
 11
-188.204
 21
185
  0
LINE
  8
0
 10
-188.204
 20
185
 11
-188.187
 21
185.335
  0
LINE
  8
0
 10
-188.187
 20
185.335
 11
-188.134
 21
185.666
  0
LINE
  8
0
 10
-188.134
 20
185.666
 11
-188.048
 21
185.99
  0
LINE
  8
0
 10
-188.048
 20
185.99
 11
-187.927
 21
186.303
  0
LINE
  8
0
 10
-187.927
 20
186.303
 11
-187.775
 21
186.602
  0
LINE
  8
0
 10
-187.775
 20
186.602
 11
-187.592
 21
186.883
  0
LINE
  8
0
 10
-187.592
 20
186.883
 11
-187.381
 21
187.144
  0
LINE
  8
0
 10
-187.381
 20
187.144
 11
-187.144
 21
187.381
  0
LINE
  8
0
 10
-187.144
 20
187.381
 11
-186.883
 21
187.592
  0
LINE
  8
0
 10
-186.883
 20
187.592
 11
-186.602
 21
187.775
  0
LINE
  8
0
 10
-186.602
 20
187.775
 11
-186.303
 21
187.927
  0
LINE
  8
0
 10
-186.303
 20
187.927
 11
-185.99
 21
188.048
  0
LINE
  8
0
 10
-185.99
 20
188.048
 11
-185.666
 21
188.134
  0
LINE
  8
0
 10
-185.666
 20
188.134
 11
-185.335
 21
188.187
  0
LINE
  8
0
 10
-185.335
 20
188.187
 11
-185
 21
188.204
  0
LINE
  8
0
 10
-185
 20
188.204
 11
-184.665
 21
188.187
  0
LINE
  8
0
 10
-184.665
 20
188.187
 11
-184.334
 21
188.134
  0
LINE
  8
0
 10
-184.334
 20
188.134
 11
-184.01
 21
188.048
  0
LINE
  8
0
 10
-184.01
 20
188.048
 11
-183.697
 21
187.927
  0
LINE
  8
0
 10
-183.697
 20
187.927
 11
-183.398
 21
187.775
  0
LINE
  8
0
 10
-183.398
 20
187.775
 11
-183.117
 21
187.592
  0
LINE
  8
0
 10
-183.117
 20
187.592
 11
-182.856
 21
187.381
  0
LINE
  8
0
 10
-182.856
 20
187.381
 11
-182.619
 21
187.144
  0
LINE
  8
0
 10
-182.619
 20
187.144
 11
-182.408
 21
186.883
  0
LINE
  8
0
 10
-182.408
 20
186.883
 11
-182.225
 21
186.602
  0
LINE
  8
0
 10
-182.225
 20
186.602
 11
-182.073
 21
186.303
  0
LINE
  8
0
 10
-182.073
 20
186.303
 11
-181.952
 21
185.99
  0
LINE
  8
0
 10
-181.952
 20
185.99
 11
-181.866
 21
185.666
  0
LINE
  8
0
 10
-181.866
 20
185.666
 11
-181.813
 21
185.335
  0
LINE
  8
0
 10
-181.813
 20
185.335
 11
-181.796
 21
185
  0
LINE
  8
0
 10
-181.796
 20
185
 11
-181.813
 21
184.665
  0
LINE
  8
0
 10
-181.813
 20
184.665
 11
-181.866
 21
184.334
  0
LINE
  8
0
 10
-181.866
 20
184.334
 11
-181.952
 21
184.01
  0
LINE
  8
0
 10
-181.952
 20
184.01
 11
-182.073
 21
183.697
  0
LINE
  8
0
 10
-182.073
 20
183.697
 11
-182.225
 21
183.398
  0
LINE
  8
0
 10
-182.225
 20
183.398
 11
-182.408
 21
183.117
  0
LINE
  8
0
 10
-182.408
 20
183.117
 11
-182.619
 21
182.856
  0
LINE
  8
0
 10
-182.619
 20
182.856
 11
-182.856
 21
182.619
  0
LINE
  8
0
 10
-182.856
 20
182.619
 11
-183.117
 21
182.408
  0
LINE
  8
0
 10
-183.117
 20
182.408
 11
-183.398
 21
182.225
  0
LINE
  8
0
 10
-183.398
 20
182.225
 11
-183.697
 21
182.073
  0
LINE
  8
0
 10
-183.697
 20
182.073
 11
-184.01
 21
181.952
  0
LINE
  8
0
 10
-184.01
 20
181.952
 11
-184.334
 21
181.866
  0
LINE
  8
0
 10
-184.334
 20
181.866
 11
-184.665
 21
181.813
  0
LINE
  8
0
 10
-184.665
 20
181.813
 11
-185
 21
181.796
  0
LINE
  8
0
 10
-185
 20
181.796
 11
-185.335
 21
181.813
  0
LINE
  8
0
 10
53.0866
 20
182.81
 11
52.843
 21
182.852
  0
LINE
  8
0
 10
52.843
 20
182.852
 11
52.6056
 21
182.92
  0
LINE
  8
0
 10
52.6056
 20
182.92
 11
52.3773
 21
183.015
  0
LINE
  8
0
 10
52.3773
 20
183.015
 11
52.161
 21
183.134
  0
LINE
  8
0
 10
52.161
 20
183.134
 11
51.9595
 21
183.277
  0
LINE
  8
0
 10
51.9595
 20
183.277
 11
51.7752
 21
183.442
  0
LINE
  8
0
 10
51.7752
 20
183.442
 11
51.6106
 21
183.626
  0
LINE
  8
0
 10
51.6106
 20
183.626
 11
51.4676
 21
183.828
  0
LINE
  8
0
 10
51.4676
 20
183.828
 11
51.3481
 21
184.044
  0
LINE
  8
0
 10
51.3481
 20
184.044
 11
51.2535
 21
184.272
  0
LINE
  8
0
 10
51.2535
 20
184.272
 11
51.1851
 21
184.51
  0
LINE
  8
0
 10
51.1851
 20
184.51
 11
51.1437
 21
184.753
  0
LINE
  8
0
 10
51.1437
 20
184.753
 11
51.1299
 21
185
  0
LINE
  8
0
 10
51.1299
 20
185
 11
51.1437
 21
185.247
  0
LINE
  8
0
 10
51.1437
 20
185.247
 11
51.1851
 21
185.49
  0
LINE
  8
0
 10
51.1851
 20
185.49
 11
51.2535
 21
185.728
  0
LINE
  8
0
 10
51.2535
 20
185.728
 11
51.3481
 21
185.956
  0
LINE
  8
0
 10
51.3481
 20
185.956
 11
51.4676
 21
186.172
  0
LINE
  8
0
 10
51.4676
 20
186.172
 11
51.6106
 21
186.374
  0
LINE
  8
0
 10
51.6106
 20
186.374
 11
51.7752
 21
186.558
  0
LINE
  8
0
 10
51.7752
 20
186.558
 11
51.9595
 21
186.723
  0
LINE
  8
0
 10
51.9595
 20
186.723
 11
52.161
 21
186.866
  0
LINE
  8
0
 10
52.161
 20
186.866
 11
52.3773
 21
186.985
  0
LINE
  8
0
 10
52.3773
 20
186.985
 11
52.6056
 21
187.08
  0
LINE
  8
0
 10
52.6056
 20
187.08
 11
52.843
 21
187.148
  0
LINE
  8
0
 10
52.843
 20
187.148
 11
53.0866
 21
187.19
  0
LINE
  8
0
 10
53.0866
 20
187.19
 11
53.3333
 21
187.203
  0
LINE
  8
0
 10
53.3333
 20
187.203
 11
53.58
 21
187.19
  0
LINE
  8
0
 10
53.58
 20
187.19
 11
53.8236
 21
187.148
  0
LINE
  8
0
 10
53.8236
 20
187.148
 11
54.0611
 21
187.08
  0
LINE
  8
0
 10
54.0611
 20
187.08
 11
54.2894
 21
186.985
  0
LINE
  8
0
 10
54.2894
 20
186.985
 11
54.5056
 21
186.866
  0
LINE
  8
0
 10
54.5056
 20
186.866
 11
54.7072
 21
186.723
  0
LINE
  8
0
 10
54.7072
 20
186.723
 11
54.8914
 21
186.558
  0
LINE
  8
0
 10
54.8914
 20
186.558
 11
55.0561
 21
186.374
  0
LINE
  8
0
 10
55.0561
 20
186.374
 11
55.1991
 21
186.172
  0
LINE
  8
0
 10
55.1991
 20
186.172
 11
55.3186
 21
185.956
  0
LINE
  8
0
 10
55.3186
 20
185.956
 11
55.4131
 21
185.728
  0
LINE
  8
0
 10
55.4131
 20
185.728
 11
55.4816
 21
185.49
  0
LINE
  8
0
 10
55.4816
 20
185.49
 11
55.5229
 21
185.247
  0
LINE
  8
0
 10
55.5229
 20
185.247
 11
55.5368
 21
185
  0
LINE
  8
0
 10
55.5368
 20
185
 11
55.5229
 21
184.753
  0
LINE
  8
0
 10
55.5229
 20
184.753
 11
55.4816
 21
184.51
  0
LINE
  8
0
 10
55.4816
 20
184.51
 11
55.4131
 21
184.272
  0
LINE
  8
0
 10
55.4131
 20
184.272
 11
55.3186
 21
184.044
  0
LINE
  8
0
 10
55.3186
 20
184.044
 11
55.1991
 21
183.828
  0
LINE
  8
0
 10
55.1991
 20
183.828
 11
55.0561
 21
183.626
  0
LINE
  8
0
 10
55.0561
 20
183.626
 11
54.8914
 21
183.442
  0
LINE
  8
0
 10
54.8914
 20
183.442
 11
54.7072
 21
183.277
  0
LINE
  8
0
 10
54.7072
 20
183.277
 11
54.5056
 21
183.134
  0
LINE
  8
0
 10
54.5056
 20
183.134
 11
54.2894
 21
183.015
  0
LINE
  8
0
 10
54.2894
 20
183.015
 11
54.0611
 21
182.92
  0
LINE
  8
0
 10
54.0611
 20
182.92
 11
53.8236
 21
182.852
  0
LINE
  8
0
 10
53.8236
 20
182.852
 11
53.58
 21
182.81
  0
LINE
  8
0
 10
53.58
 20
182.81
 11
53.3333
 21
182.797
  0
LINE
  8
0
 10
53.3333
 20
182.797
 11
53.0866
 21
182.81
  0
LINE
  8
0
 10
159.753
 20
182.81
 11
159.51
 21
182.852
  0
LINE
  8
0
 10
159.51
 20
182.852
 11
159.272
 21
182.92
  0
LINE
  8
0
 10
159.272
 20
182.92
 11
159.044
 21
183.015
  0
LINE
  8
0
 10
159.044
 20
183.015
 11
158.828
 21
183.134
  0
LINE
  8
0
 10
158.828
 20
183.134
 11
158.626
 21
183.277
  0
LINE
  8
0
 10
158.626
 20
183.277
 11
158.442
 21
183.442
  0
LINE
  8
0
 10
158.442
 20
183.442
 11
158.277
 21
183.626
  0
LINE
  8
0
 10
158.277
 20
183.626
 11
158.134
 21
183.828
  0
LINE
  8
0
 10
158.134
 20
183.828
 11
158.015
 21
184.044
  0
LINE
  8
0
 10
158.015
 20
184.044
 11
157.92
 21
184.272
  0
LINE
  8
0
 10
157.92
 20
184.272
 11
157.852
 21
184.51
  0
LINE
  8
0
 10
157.852
 20
184.51
 11
157.81
 21
184.753
  0
LINE
  8
0
 10
157.81
 20
184.753
 11
157.797
 21
185
  0
LINE
  8
0
 10
157.797
 20
185
 11
157.81
 21
185.247
  0
LINE
  8
0
 10
157.81
 20
185.247
 11
157.852
 21
185.49
  0
LINE
  8
0
 10
157.852
 20
185.49
 11
157.92
 21
185.728
  0
LINE
  8
0
 10
157.92
 20
185.728
 11
158.015
 21
185.956
  0
LINE
  8
0
 10
158.015
 20
185.956
 11
158.134
 21
186.172
  0
LINE
  8
0
 10
158.134
 20
186.172
 11
158.277
 21
186.374
  0
LINE
  8
0
 10
158.277
 20
186.374
 11
158.442
 21
186.558
  0
LINE
  8
0
 10
158.442
 20
186.558
 11
158.626
 21
186.723
  0
LINE
  8
0
 10
158.626
 20
186.723
 11
158.828
 21
186.866
  0
LINE
  8
0
 10
158.828
 20
186.866
 11
159.044
 21
186.985
  0
LINE
  8
0
 10
159.044
 20
186.985
 11
159.272
 21
187.08
  0
LINE
  8
0
 10
159.272
 20
187.08
 11
159.51
 21
187.148
  0
LINE
  8
0
 10
159.51
 20
187.148
 11
159.753
 21
187.19
  0
LINE
  8
0
 10
159.753
 20
187.19
 11
160
 21
187.203
  0
LINE
  8
0
 10
160
 20
187.203
 11
160.247
 21
187.19
  0
LINE
  8
0
 10
160.247
 20
187.19
 11
160.49
 21
187.148
  0
LINE
  8
0
 10
160.49
 20
187.148
 11
160.728
 21
187.08
  0
LINE
  8
0
 10
160.728
 20
187.08
 11
160.956
 21
186.985
  0
LINE
  8
0
 10
160.956
 20
186.985
 11
161.172
 21
186.866
  0
LINE
  8
0
 10
161.172
 20
186.866
 11
161.374
 21
186.723
  0
LINE
  8
0
 10
161.374
 20
186.723
 11
161.558
 21
186.558
  0
LINE
  8
0
 10
161.558
 20
186.558
 11
161.723
 21
186.374
  0
LINE
  8
0
 10
161.723
 20
186.374
 11
161.866
 21
186.172
  0
LINE
  8
0
 10
161.866
 20
186.172
 11
161.985
 21
185.956
  0
LINE
  8
0
 10
161.985
 20
185.956
 11
162.08
 21
185.728
  0
LINE
  8
0
 10
162.08
 20
185.728
 11
162.148
 21
185.49
  0
LINE
  8
0
 10
162.148
 20
185.49
 11
162.19
 21
185.247
  0
LINE
  8
0
 10
162.19
 20
185.247
 11
162.203
 21
185
  0
LINE
  8
0
 10
162.203
 20
185
 11
162.19
 21
184.753
  0
LINE
  8
0
 10
162.19
 20
184.753
 11
162.148
 21
184.51
  0
LINE
  8
0
 10
162.148
 20
184.51
 11
162.08
 21
184.272
  0
LINE
  8
0
 10
162.08
 20
184.272
 11
161.985
 21
184.044
  0
LINE
  8
0
 10
161.985
 20
184.044
 11
161.866
 21
183.828
  0
LINE
  8
0
 10
161.866
 20
183.828
 11
161.723
 21
183.626
  0
LINE
  8
0
 10
161.723
 20
183.626
 11
161.558
 21
183.442
  0
LINE
  8
0
 10
161.558
 20
183.442
 11
161.374
 21
183.277
  0
LINE
  8
0
 10
161.374
 20
183.277
 11
161.172
 21
183.134
  0
LINE
  8
0
 10
161.172
 20
183.134
 11
160.956
 21
183.015
  0
LINE
  8
0
 10
160.956
 20
183.015
 11
160.728
 21
182.92
  0
LINE
  8
0
 10
160.728
 20
182.92
 11
160.49
 21
182.852
  0
LINE
  8
0
 10
160.49
 20
182.852
 11
160.247
 21
182.81
  0
LINE
  8
0
 10
160.247
 20
182.81
 11
160
 21
182.797
  0
LINE
  8
0
 10
160
 20
182.797
 11
159.753
 21
182.81
  0
LINE
  8
0
 10
-53.58
 20
182.81
 11
-53.8237
 21
182.852
  0
LINE
  8
0
 10
-53.8237
 20
182.852
 11
-54.0611
 21
182.92
  0
LINE
  8
0
 10
-54.0611
 20
182.92
 11
-54.2894
 21
183.015
  0
LINE
  8
0
 10
-54.2894
 20
183.015
 11
-54.5057
 21
183.134
  0
LINE
  8
0
 10
-54.5057
 20
183.134
 11
-54.7072
 21
183.277
  0
LINE
  8
0
 10
-54.7072
 20
183.277
 11
-54.8914
 21
183.442
  0
LINE
  8
0
 10
-54.8914
 20
183.442
 11
-55.0561
 21
183.626
  0
LINE
  8
0
 10
-55.0561
 20
183.626
 11
-55.1991
 21
183.828
  0
LINE
  8
0
 10
-55.1991
 20
183.828
 11
-55.3186
 21
184.044
  0
LINE
  8
0
 10
-55.3186
 20
184.044
 11
-55.4132
 21
184.272
  0
LINE
  8
0
 10
-55.4132
 20
184.272
 11
-55.4816
 21
184.51
  0
LINE
  8
0
 10
-55.4816
 20
184.51
 11
-55.5229
 21
184.753
  0
LINE
  8
0
 10
-55.5229
 20
184.753
 11
-55.5368
 21
185
  0
LINE
  8
0
 10
-55.5368
 20
185
 11
-55.5229
 21
185.247
  0
LINE
  8
0
 10
-55.5229
 20
185.247
 11
-55.4816
 21
185.49
  0
LINE
  8
0
 10
-55.4816
 20
185.49
 11
-55.4132
 21
185.728
  0
LINE
  8
0
 10
-55.4132
 20
185.728
 11
-55.3186
 21
185.956
  0
LINE
  8
0
 10
-55.3186
 20
185.956
 11
-55.1991
 21
186.172
  0
LINE
  8
0
 10
-55.1991
 20
186.172
 11
-55.0561
 21
186.374
  0
LINE
  8
0
 10
-55.0561
 20
186.374
 11
-54.8914
 21
186.558
  0
LINE
  8
0
 10
-54.8914
 20
186.558
 11
-54.7072
 21
186.723
  0
LINE
  8
0
 10
-54.7072
 20
186.723
 11
-54.5057
 21
186.866
  0
LINE
  8
0
 10
-54.5057
 20
186.866
 11
-54.2894
 21
186.985
  0
LINE
  8
0
 10
-54.2894
 20
186.985
 11
-54.0611
 21
187.08
  0
LINE
  8
0
 10
-54.0611
 20
187.08
 11
-53.8237
 21
187.148
  0
LINE
  8
0
 10
-53.8237
 20
187.148
 11
-53.58
 21
187.19
  0
LINE
  8
0
 10
-53.58
 20
187.19
 11
-53.3333
 21
187.203
  0
LINE
  8
0
 10
-53.3333
 20
187.203
 11
-53.0866
 21
187.19
  0
LINE
  8
0
 10
-53.0866
 20
187.19
 11
-52.843
 21
187.148
  0
LINE
  8
0
 10
-52.843
 20
187.148
 11
-52.6056
 21
187.08
  0
LINE
  8
0
 10
-52.6056
 20
187.08
 11
-52.3773
 21
186.985
  0
LINE
  8
0
 10
-52.3773
 20
186.985
 11
-52.161
 21
186.866
  0
LINE
  8
0
 10
-52.161
 20
186.866
 11
-51.9595
 21
186.723
  0
LINE
  8
0
 10
-51.9595
 20
186.723
 11
-51.7753
 21
186.558
  0
LINE
  8
0
 10
-51.7753
 20
186.558
 11
-51.6106
 21
186.374
  0
LINE
  8
0
 10
-51.6106
 20
186.374
 11
-51.4676
 21
186.172
  0
LINE
  8
0
 10
-51.4676
 20
186.172
 11
-51.3481
 21
185.956
  0
LINE
  8
0
 10
-51.3481
 20
185.956
 11
-51.2535
 21
185.728
  0
LINE
  8
0
 10
-51.2535
 20
185.728
 11
-51.1851
 21
185.49
  0
LINE
  8
0
 10
-51.1851
 20
185.49
 11
-51.1437
 21
185.247
  0
LINE
  8
0
 10
-51.1437
 20
185.247
 11
-51.1299
 21
185
  0
LINE
  8
0
 10
-51.1299
 20
185
 11
-51.1437
 21
184.753
  0
LINE
  8
0
 10
-51.1437
 20
184.753
 11
-51.1851
 21
184.51
  0
LINE
  8
0
 10
-51.1851
 20
184.51
 11
-51.2535
 21
184.272
  0
LINE
  8
0
 10
-51.2535
 20
184.272
 11
-51.3481
 21
184.044
  0
LINE
  8
0
 10
-51.3481
 20
184.044
 11
-51.4676
 21
183.828
  0
LINE
  8
0
 10
-51.4676
 20
183.828
 11
-51.6106
 21
183.626
  0
LINE
  8
0
 10
-51.6106
 20
183.626
 11
-51.7753
 21
183.442
  0
LINE
  8
0
 10
-51.7753
 20
183.442
 11
-51.9595
 21
183.277
  0
LINE
  8
0
 10
-51.9595
 20
183.277
 11
-52.161
 21
183.134
  0
LINE
  8
0
 10
-52.161
 20
183.134
 11
-52.3773
 21
183.015
  0
LINE
  8
0
 10
-52.3773
 20
183.015
 11
-52.6056
 21
182.92
  0
LINE
  8
0
 10
-52.6056
 20
182.92
 11
-52.843
 21
182.852
  0
LINE
  8
0
 10
-52.843
 20
182.852
 11
-53.0866
 21
182.81
  0
LINE
  8
0
 10
-53.0866
 20
182.81
 11
-53.3333
 21
182.797
  0
LINE
  8
0
 10
-53.3333
 20
182.797
 11
-53.58
 21
182.81
  0
LINE
  8
0
 10
-160.247
 20
182.81
 11
-160.49
 21
182.852
  0
LINE
  8
0
 10
-160.49
 20
182.852
 11
-160.728
 21
182.92
  0
LINE
  8
0
 10
-160.728
 20
182.92
 11
-160.956
 21
183.015
  0
LINE
  8
0
 10
-160.956
 20
183.015
 11
-161.172
 21
183.134
  0
LINE
  8
0
 10
-161.172
 20
183.134
 11
-161.374
 21
183.277
  0
LINE
  8
0
 10
-161.374
 20
183.277
 11
-161.558
 21
183.442
  0
LINE
  8
0
 10
-161.558
 20
183.442
 11
-161.723
 21
183.626
  0
LINE
  8
0
 10
-161.723
 20
183.626
 11
-161.866
 21
183.828
  0
LINE
  8
0
 10
-161.866
 20
183.828
 11
-161.985
 21
184.044
  0
LINE
  8
0
 10
-161.985
 20
184.044
 11
-162.08
 21
184.272
  0
LINE
  8
0
 10
-162.08
 20
184.272
 11
-162.148
 21
184.51
  0
LINE
  8
0
 10
-162.148
 20
184.51
 11
-162.19
 21
184.753
  0
LINE
  8
0
 10
-162.19
 20
184.753
 11
-162.203
 21
185
  0
LINE
  8
0
 10
-162.203
 20
185
 11
-162.19
 21
185.247
  0
LINE
  8
0
 10
-162.19
 20
185.247
 11
-162.148
 21
185.49
  0
LINE
  8
0
 10
-162.148
 20
185.49
 11
-162.08
 21
185.728
  0
LINE
  8
0
 10
-162.08
 20
185.728
 11
-161.985
 21
185.956
  0
LINE
  8
0
 10
-161.985
 20
185.956
 11
-161.866
 21
186.172
  0
LINE
  8
0
 10
-161.866
 20
186.172
 11
-161.723
 21
186.374
  0
LINE
  8
0
 10
-161.723
 20
186.374
 11
-161.558
 21
186.558
  0
LINE
  8
0
 10
-161.558
 20
186.558
 11
-161.374
 21
186.723
  0
LINE
  8
0
 10
-161.374
 20
186.723
 11
-161.172
 21
186.866
  0
LINE
  8
0
 10
-161.172
 20
186.866
 11
-160.956
 21
186.985
  0
LINE
  8
0
 10
-160.956
 20
186.985
 11
-160.728
 21
187.08
  0
LINE
  8
0
 10
-160.728
 20
187.08
 11
-160.49
 21
187.148
  0
LINE
  8
0
 10
-160.49
 20
187.148
 11
-160.247
 21
187.19
  0
LINE
  8
0
 10
-160.247
 20
187.19
 11
-160
 21
187.203
  0
LINE
  8
0
 10
-160
 20
187.203
 11
-159.753
 21
187.19
  0
LINE
  8
0
 10
-159.753
 20
187.19
 11
-159.51
 21
187.148
  0
LINE
  8
0
 10
-159.51
 20
187.148
 11
-159.272
 21
187.08
  0
LINE
  8
0
 10
-159.272
 20
187.08
 11
-159.044
 21
186.985
  0
LINE
  8
0
 10
-159.044
 20
186.985
 11
-158.828
 21
186.866
  0
LINE
  8
0
 10
-158.828
 20
186.866
 11
-158.626
 21
186.723
  0
LINE
  8
0
 10
-158.626
 20
186.723
 11
-158.442
 21
186.558
  0
LINE
  8
0
 10
-158.442
 20
186.558
 11
-158.277
 21
186.374
  0
LINE
  8
0
 10
-158.277
 20
186.374
 11
-158.134
 21
186.172
  0
LINE
  8
0
 10
-158.134
 20
186.172
 11
-158.015
 21
185.956
  0
LINE
  8
0
 10
-158.015
 20
185.956
 11
-157.92
 21
185.728
  0
LINE
  8
0
 10
-157.92
 20
185.728
 11
-157.852
 21
185.49
  0
LINE
  8
0
 10
-157.852
 20
185.49
 11
-157.81
 21
185.247
  0
LINE
  8
0
 10
-157.81
 20
185.247
 11
-157.797
 21
185
  0
LINE
  8
0
 10
-157.797
 20
185
 11
-157.81
 21
184.753
  0
LINE
  8
0
 10
-157.81
 20
184.753
 11
-157.852
 21
184.51
  0
LINE
  8
0
 10
-157.852
 20
184.51
 11
-157.92
 21
184.272
  0
LINE
  8
0
 10
-157.92
 20
184.272
 11
-158.015
 21
184.044
  0
LINE
  8
0
 10
-158.015
 20
184.044
 11
-158.134
 21
183.828
  0
LINE
  8
0
 10
-158.134
 20
183.828
 11
-158.277
 21
183.626
  0
LINE
  8
0
 10
-158.277
 20
183.626
 11
-158.442
 21
183.442
  0
LINE
  8
0
 10
-158.442
 20
183.442
 11
-158.626
 21
183.277
  0
LINE
  8
0
 10
-158.626
 20
183.277
 11
-158.828
 21
183.134
  0
LINE
  8
0
 10
-158.828
 20
183.134
 11
-159.044
 21
183.015
  0
LINE
  8
0
 10
-159.044
 20
183.015
 11
-159.272
 21
182.92
  0
LINE
  8
0
 10
-159.272
 20
182.92
 11
-159.51
 21
182.852
  0
LINE
  8
0
 10
-159.51
 20
182.852
 11
-159.753
 21
182.81
  0
LINE
  8
0
 10
-159.753
 20
182.81
 11
-160
 21
182.797
  0
LINE
  8
0
 10
-160
 20
182.797
 11
-160.247
 21
182.81
  0
LINE
  8
0
 10
-185.247
 20
157.81
 11
-185.49
 21
157.852
  0
LINE
  8
0
 10
-185.49
 20
157.852
 11
-185.728
 21
157.92
  0
LINE
  8
0
 10
-185.728
 20
157.92
 11
-185.956
 21
158.015
  0
LINE
  8
0
 10
-185.956
 20
158.015
 11
-186.172
 21
158.134
  0
LINE
  8
0
 10
-186.172
 20
158.134
 11
-186.374
 21
158.277
  0
LINE
  8
0
 10
-186.374
 20
158.277
 11
-186.558
 21
158.442
  0
LINE
  8
0
 10
-186.558
 20
158.442
 11
-186.723
 21
158.626
  0
LINE
  8
0
 10
-186.723
 20
158.626
 11
-186.866
 21
158.828
  0
LINE
  8
0
 10
-186.866
 20
158.828
 11
-186.985
 21
159.044
  0
LINE
  8
0
 10
-186.985
 20
159.044
 11
-187.08
 21
159.272
  0
LINE
  8
0
 10
-187.08
 20
159.272
 11
-187.148
 21
159.51
  0
LINE
  8
0
 10
-187.148
 20
159.51
 11
-187.19
 21
159.753
  0
LINE
  8
0
 10
-187.19
 20
159.753
 11
-187.203
 21
160
  0
LINE
  8
0
 10
-187.203
 20
160
 11
-187.19
 21
160.247
  0
LINE
  8
0
 10
-187.19
 20
160.247
 11
-187.148
 21
160.49
  0
LINE
  8
0
 10
-187.148
 20
160.49
 11
-187.08
 21
160.728
  0
LINE
  8
0
 10
-187.08
 20
160.728
 11
-186.985
 21
160.956
  0
LINE
  8
0
 10
-186.985
 20
160.956
 11
-186.866
 21
161.172
  0
LINE
  8
0
 10
-186.866
 20
161.172
 11
-186.723
 21
161.374
  0
LINE
  8
0
 10
-186.723
 20
161.374
 11
-186.558
 21
161.558
  0
LINE
  8
0
 10
-186.558
 20
161.558
 11
-186.374
 21
161.723
  0
LINE
  8
0
 10
-186.374
 20
161.723
 11
-186.172
 21
161.866
  0
LINE
  8
0
 10
-186.172
 20
161.866
 11
-185.956
 21
161.985
  0
LINE
  8
0
 10
-185.956
 20
161.985
 11
-185.728
 21
162.08
  0
LINE
  8
0
 10
-185.728
 20
162.08
 11
-185.49
 21
162.148
  0
LINE
  8
0
 10
-185.49
 20
162.148
 11
-185.247
 21
162.19
  0
LINE
  8
0
 10
-185.247
 20
162.19
 11
-185
 21
162.203
  0
LINE
  8
0
 10
-185
 20
162.203
 11
-184.753
 21
162.19
  0
LINE
  8
0
 10
-184.753
 20
162.19
 11
-184.51
 21
162.148
  0
LINE
  8
0
 10
-184.51
 20
162.148
 11
-184.272
 21
162.08
  0
LINE
  8
0
 10
-184.272
 20
162.08
 11
-184.044
 21
161.985
  0
LINE
  8
0
 10
-184.044
 20
161.985
 11
-183.828
 21
161.866
  0
LINE
  8
0
 10
-183.828
 20
161.866
 11
-183.626
 21
161.723
  0
LINE
  8
0
 10
-183.626
 20
161.723
 11
-183.442
 21
161.558
  0
LINE
  8
0
 10
-183.442
 20
161.558
 11
-183.277
 21
161.374
  0
LINE
  8
0
 10
-183.277
 20
161.374
 11
-183.134
 21
161.172
  0
LINE
  8
0
 10
-183.134
 20
161.172
 11
-183.015
 21
160.956
  0
LINE
  8
0
 10
-183.015
 20
160.956
 11
-182.92
 21
160.728
  0
LINE
  8
0
 10
-182.92
 20
160.728
 11
-182.852
 21
160.49
  0
LINE
  8
0
 10
-182.852
 20
160.49
 11
-182.81
 21
160.247
  0
LINE
  8
0
 10
-182.81
 20
160.247
 11
-182.797
 21
160
  0
LINE
  8
0
 10
-182.797
 20
160
 11
-182.81
 21
159.753
  0
LINE
  8
0
 10
-182.81
 20
159.753
 11
-182.852
 21
159.51
  0
LINE
  8
0
 10
-182.852
 20
159.51
 11
-182.92
 21
159.272
  0
LINE
  8
0
 10
-182.92
 20
159.272
 11
-183.015
 21
159.044
  0
LINE
  8
0
 10
-183.015
 20
159.044
 11
-183.134
 21
158.828
  0
LINE
  8
0
 10
-183.134
 20
158.828
 11
-183.277
 21
158.626
  0
LINE
  8
0
 10
-183.277
 20
158.626
 11
-183.442
 21
158.442
  0
LINE
  8
0
 10
-183.442
 20
158.442
 11
-183.626
 21
158.277
  0
LINE
  8
0
 10
-183.626
 20
158.277
 11
-183.828
 21
158.134
  0
LINE
  8
0
 10
-183.828
 20
158.134
 11
-184.044
 21
158.015
  0
LINE
  8
0
 10
-184.044
 20
158.015
 11
-184.272
 21
157.92
  0
LINE
  8
0
 10
-184.272
 20
157.92
 11
-184.51
 21
157.852
  0
LINE
  8
0
 10
-184.51
 20
157.852
 11
-184.753
 21
157.81
  0
LINE
  8
0
 10
-184.753
 20
157.81
 11
-185
 21
157.797
  0
LINE
  8
0
 10
-185
 20
157.797
 11
-185.247
 21
157.81
  0
LINE
  8
0
 10
184.753
 20
157.81
 11
184.51
 21
157.852
  0
LINE
  8
0
 10
184.51
 20
157.852
 11
184.272
 21
157.92
  0
LINE
  8
0
 10
184.272
 20
157.92
 11
184.044
 21
158.015
  0
LINE
  8
0
 10
184.044
 20
158.015
 11
183.828
 21
158.134
  0
LINE
  8
0
 10
183.828
 20
158.134
 11
183.626
 21
158.277
  0
LINE
  8
0
 10
183.626
 20
158.277
 11
183.442
 21
158.442
  0
LINE
  8
0
 10
183.442
 20
158.442
 11
183.277
 21
158.626
  0
LINE
  8
0
 10
183.277
 20
158.626
 11
183.134
 21
158.828
  0
LINE
  8
0
 10
183.134
 20
158.828
 11
183.015
 21
159.044
  0
LINE
  8
0
 10
183.015
 20
159.044
 11
182.92
 21
159.272
  0
LINE
  8
0
 10
182.92
 20
159.272
 11
182.852
 21
159.51
  0
LINE
  8
0
 10
182.852
 20
159.51
 11
182.81
 21
159.753
  0
LINE
  8
0
 10
182.81
 20
159.753
 11
182.797
 21
160
  0
LINE
  8
0
 10
182.797
 20
160
 11
182.81
 21
160.247
  0
LINE
  8
0
 10
182.81
 20
160.247
 11
182.852
 21
160.49
  0
LINE
  8
0
 10
182.852
 20
160.49
 11
182.92
 21
160.728
  0
LINE
  8
0
 10
182.92
 20
160.728
 11
183.015
 21
160.956
  0
LINE
  8
0
 10
183.015
 20
160.956
 11
183.134
 21
161.172
  0
LINE
  8
0
 10
183.134
 20
161.172
 11
183.277
 21
161.374
  0
LINE
  8
0
 10
183.277
 20
161.374
 11
183.442
 21
161.558
  0
LINE
  8
0
 10
183.442
 20
161.558
 11
183.626
 21
161.723
  0
LINE
  8
0
 10
183.626
 20
161.723
 11
183.828
 21
161.866
  0
LINE
  8
0
 10
183.828
 20
161.866
 11
184.044
 21
161.985
  0
LINE
  8
0
 10
184.044
 20
161.985
 11
184.272
 21
162.08
  0
LINE
  8
0
 10
184.272
 20
162.08
 11
184.51
 21
162.148
  0
LINE
  8
0
 10
184.51
 20
162.148
 11
184.753
 21
162.19
  0
LINE
  8
0
 10
184.753
 20
162.19
 11
185
 21
162.203
  0
LINE
  8
0
 10
185
 20
162.203
 11
185.247
 21
162.19
  0
LINE
  8
0
 10
185.247
 20
162.19
 11
185.49
 21
162.148
  0
LINE
  8
0
 10
185.49
 20
162.148
 11
185.728
 21
162.08
  0
LINE
  8
0
 10
185.728
 20
162.08
 11
185.956
 21
161.985
  0
LINE
  8
0
 10
185.956
 20
161.985
 11
186.172
 21
161.866
  0
LINE
  8
0
 10
186.172
 20
161.866
 11
186.374
 21
161.723
  0
LINE
  8
0
 10
186.374
 20
161.723
 11
186.558
 21
161.558
  0
LINE
  8
0
 10
186.558
 20
161.558
 11
186.723
 21
161.374
  0
LINE
  8
0
 10
186.723
 20
161.374
 11
186.866
 21
161.172
  0
LINE
  8
0
 10
186.866
 20
161.172
 11
186.985
 21
160.956
  0
LINE
  8
0
 10
186.985
 20
160.956
 11
187.08
 21
160.728
  0
LINE
  8
0
 10
187.08
 20
160.728
 11
187.148
 21
160.49
  0
LINE
  8
0
 10
187.148
 20
160.49
 11
187.19
 21
160.247
  0
LINE
  8
0
 10
187.19
 20
160.247
 11
187.203
 21
160
  0
LINE
  8
0
 10
187.203
 20
160
 11
187.19
 21
159.753
  0
LINE
  8
0
 10
187.19
 20
159.753
 11
187.148
 21
159.51
  0
LINE
  8
0
 10
187.148
 20
159.51
 11
187.08
 21
159.272
  0
LINE
  8
0
 10
187.08
 20
159.272
 11
186.985
 21
159.044
  0
LINE
  8
0
 10
186.985
 20
159.044
 11
186.866
 21
158.828
  0
LINE
  8
0
 10
186.866
 20
158.828
 11
186.723
 21
158.626
  0
LINE
  8
0
 10
186.723
 20
158.626
 11
186.558
 21
158.442
  0
LINE
  8
0
 10
186.558
 20
158.442
 11
186.374
 21
158.277
  0
LINE
  8
0
 10
186.374
 20
158.277
 11
186.172
 21
158.134
  0
LINE
  8
0
 10
186.172
 20
158.134
 11
185.956
 21
158.015
  0
LINE
  8
0
 10
185.956
 20
158.015
 11
185.728
 21
157.92
  0
LINE
  8
0
 10
185.728
 20
157.92
 11
185.49
 21
157.852
  0
LINE
  8
0
 10
185.49
 20
157.852
 11
185.247
 21
157.81
  0
LINE
  8
0
 10
185.247
 20
157.81
 11
185
 21
157.797
  0
LINE
  8
0
 10
185
 20
157.797
 11
184.753
 21
157.81
  0
LINE
  8
0
 10
106.255
 20
150.768
 11
106.019
 21
150.84
  0
LINE
  8
0
 10
106.019
 20
150.84
 11
105.802
 21
150.956
  0
LINE
  8
0
 10
105.802
 20
150.956
 11
105.612
 21
151.112
  0
LINE
  8
0
 10
105.612
 20
151.112
 11
105.456
 21
151.302
  0
LINE
  8
0
 10
105.456
 20
151.302
 11
105.34
 21
151.519
  0
LINE
  8
0
 10
105.34
 20
151.519
 11
105.268
 21
151.755
  0
LINE
  8
0
 10
105.268
 20
151.755
 11
105.244
 21
152
  0
LINE
  8
0
 10
105.244
 20
152
 11
105.268
 21
152.245
  0
LINE
  8
0
 10
105.268
 20
152.245
 11
105.34
 21
152.481
  0
LINE
  8
0
 10
105.34
 20
152.481
 11
105.456
 21
152.698
  0
LINE
  8
0
 10
105.456
 20
152.698
 11
105.612
 21
152.888
  0
LINE
  8
0
 10
105.612
 20
152.888
 11
105.802
 21
153.044
  0
LINE
  8
0
 10
105.802
 20
153.044
 11
106.019
 21
153.16
  0
LINE
  8
0
 10
106.019
 20
153.16
 11
106.255
 21
153.232
  0
LINE
  8
0
 10
106.255
 20
153.232
 11
106.5
 21
153.256
  0
LINE
  8
0
 10
106.5
 20
153.256
 11
106.745
 21
153.232
  0
LINE
  8
0
 10
106.745
 20
153.232
 11
106.981
 21
153.16
  0
LINE
  8
0
 10
106.981
 20
153.16
 11
107.198
 21
153.044
  0
LINE
  8
0
 10
107.198
 20
153.044
 11
107.388
 21
152.888
  0
LINE
  8
0
 10
107.388
 20
152.888
 11
107.544
 21
152.698
  0
LINE
  8
0
 10
107.544
 20
152.698
 11
107.66
 21
152.481
  0
LINE
  8
0
 10
107.66
 20
152.481
 11
107.732
 21
152.245
  0
LINE
  8
0
 10
107.732
 20
152.245
 11
107.756
 21
152
  0
LINE
  8
0
 10
107.756
 20
152
 11
107.732
 21
151.755
  0
LINE
  8
0
 10
107.732
 20
151.755
 11
107.66
 21
151.519
  0
LINE
  8
0
 10
107.66
 20
151.519
 11
107.544
 21
151.302
  0
LINE
  8
0
 10
107.544
 20
151.302
 11
107.388
 21
151.112
  0
LINE
  8
0
 10
107.388
 20
151.112
 11
107.198
 21
150.956
  0
LINE
  8
0
 10
107.198
 20
150.956
 11
106.981
 21
150.84
  0
LINE
  8
0
 10
106.981
 20
150.84
 11
106.745
 21
150.768
  0
LINE
  8
0
 10
106.745
 20
150.768
 11
106.5
 21
150.744
  0
LINE
  8
0
 10
106.5
 20
150.744
 11
106.255
 21
150.768
  0
LINE
  8
0
 10
76.955
 20
150.768
 11
76.7193
 21
150.84
  0
LINE
  8
0
 10
76.7193
 20
150.84
 11
76.5022
 21
150.956
  0
LINE
  8
0
 10
76.5022
 20
150.956
 11
76.3118
 21
151.112
  0
LINE
  8
0
 10
76.3118
 20
151.112
 11
76.1556
 21
151.302
  0
LINE
  8
0
 10
76.1556
 20
151.302
 11
76.0396
 21
151.519
  0
LINE
  8
0
 10
76.0396
 20
151.519
 11
75.9681
 21
151.755
  0
LINE
  8
0
 10
75.9681
 20
151.755
 11
75.944
 21
152
  0
LINE
  8
0
 10
75.944
 20
152
 11
75.9681
 21
152.245
  0
LINE
  8
0
 10
75.9681
 20
152.245
 11
76.0396
 21
152.481
  0
LINE
  8
0
 10
76.0396
 20
152.481
 11
76.1556
 21
152.698
  0
LINE
  8
0
 10
76.1556
 20
152.698
 11
76.3118
 21
152.888
  0
LINE
  8
0
 10
76.3118
 20
152.888
 11
76.5022
 21
153.044
  0
LINE
  8
0
 10
76.5022
 20
153.044
 11
76.7193
 21
153.16
  0
LINE
  8
0
 10
76.7193
 20
153.16
 11
76.955
 21
153.232
  0
LINE
  8
0
 10
76.955
 20
153.232
 11
77.2
 21
153.256
  0
LINE
  8
0
 10
77.2
 20
153.256
 11
77.445
 21
153.232
  0
LINE
  8
0
 10
77.445
 20
153.232
 11
77.6807
 21
153.16
  0
LINE
  8
0
 10
77.6807
 20
153.16
 11
77.8978
 21
153.044
  0
LINE
  8
0
 10
77.8978
 20
153.044
 11
78.0882
 21
152.888
  0
LINE
  8
0
 10
78.0882
 20
152.888
 11
78.2444
 21
152.698
  0
LINE
  8
0
 10
78.2444
 20
152.698
 11
78.3604
 21
152.481
  0
LINE
  8
0
 10
78.3604
 20
152.481
 11
78.4319
 21
152.245
  0
LINE
  8
0
 10
78.4319
 20
152.245
 11
78.456
 21
152
  0
LINE
  8
0
 10
78.456
 20
152
 11
78.4319
 21
151.755
  0
LINE
  8
0
 10
78.4319
 20
151.755
 11
78.3604
 21
151.519
  0
LINE
  8
0
 10
78.3604
 20
151.519
 11
78.2444
 21
151.302
  0
LINE
  8
0
 10
78.2444
 20
151.302
 11
78.0882
 21
151.112
  0
LINE
  8
0
 10
78.0882
 20
151.112
 11
77.8978
 21
150.956
  0
LINE
  8
0
 10
77.8978
 20
150.956
 11
77.6807
 21
150.84
  0
LINE
  8
0
 10
77.6807
 20
150.84
 11
77.445
 21
150.768
  0
LINE
  8
0
 10
77.445
 20
150.768
 11
77.2
 21
150.744
  0
LINE
  8
0
 10
77.2
 20
150.744
 11
76.955
 21
150.768
  0
LINE
  8
0
 10
52.2533
 20
148.81
 11
52.0097
 21
148.852
  0
LINE
  8
0
 10
52.0097
 20
148.852
 11
51.7722
 21
148.92
  0
LINE
  8
0
 10
51.7722
 20
148.92
 11
51.5439
 21
149.015
  0
LINE
  8
0
 10
51.5439
 20
149.015
 11
51.3277
 21
149.134
  0
LINE
  8
0
 10
51.3277
 20
149.134
 11
51.1262
 21
149.277
  0
LINE
  8
0
 10
51.1262
 20
149.277
 11
50.9419
 21
149.442
  0
LINE
  8
0
 10
50.9419
 20
149.442
 11
50.7773
 21
149.626
  0
LINE
  8
0
 10
50.7773
 20
149.626
 11
50.6343
 21
149.828
  0
LINE
  8
0
 10
50.6343
 20
149.828
 11
50.5147
 21
150.044
  0
LINE
  8
0
 10
50.5147
 20
150.044
 11
50.4202
 21
150.272
  0
LINE
  8
0
 10
50.4202
 20
150.272
 11
50.3518
 21
150.51
  0
LINE
  8
0
 10
50.3518
 20
150.51
 11
50.3104
 21
150.753
  0
LINE
  8
0
 10
50.3104
 20
150.753
 11
50.2965
 21
151
  0
LINE
  8
0
 10
50.2965
 20
151
 11
50.3104
 21
151.247
  0
LINE
  8
0
 10
50.3104
 20
151.247
 11
50.3518
 21
151.49
  0
LINE
  8
0
 10
50.3518
 20
151.49
 11
50.4202
 21
151.728
  0
LINE
  8
0
 10
50.4202
 20
151.728
 11
50.5147
 21
151.956
  0
LINE
  8
0
 10
50.5147
 20
151.956
 11
50.6343
 21
152.172
  0
LINE
  8
0
 10
50.6343
 20
152.172
 11
50.7773
 21
152.374
  0
LINE
  8
0
 10
50.7773
 20
152.374
 11
50.9419
 21
152.558
  0
LINE
  8
0
 10
50.9419
 20
152.558
 11
51.1262
 21
152.723
  0
LINE
  8
0
 10
51.1262
 20
152.723
 11
51.3277
 21
152.866
  0
LINE
  8
0
 10
51.3277
 20
152.866
 11
51.5439
 21
152.985
  0
LINE
  8
0
 10
51.5439
 20
152.985
 11
51.7722
 21
153.08
  0
LINE
  8
0
 10
51.7722
 20
153.08
 11
52.0097
 21
153.148
  0
LINE
  8
0
 10
52.0097
 20
153.148
 11
52.2533
 21
153.19
  0
LINE
  8
0
 10
52.2533
 20
153.19
 11
52.5
 21
153.203
  0
LINE
  8
0
 10
52.5
 20
153.203
 11
52.7467
 21
153.19
  0
LINE
  8
0
 10
52.7467
 20
153.19
 11
52.9903
 21
153.148
  0
LINE
  8
0
 10
52.9903
 20
153.148
 11
53.2278
 21
153.08
  0
LINE
  8
0
 10
53.2278
 20
153.08
 11
53.456
 21
152.985
  0
LINE
  8
0
 10
53.456
 20
152.985
 11
53.6723
 21
152.866
  0
LINE
  8
0
 10
53.6723
 20
152.866
 11
53.8738
 21
152.723
  0
LINE
  8
0
 10
53.8738
 20
152.723
 11
54.0581
 21
152.558
  0
LINE
  8
0
 10
54.0581
 20
152.558
 11
54.2227
 21
152.374
  0
LINE
  8
0
 10
54.2227
 20
152.374
 11
54.3657
 21
152.172
  0
LINE
  8
0
 10
54.3657
 20
152.172
 11
54.4852
 21
151.956
  0
LINE
  8
0
 10
54.4852
 20
151.956
 11
54.5798
 21
151.728
  0
LINE
  8
0
 10
54.5798
 20
151.728
 11
54.6482
 21
151.49
  0
LINE
  8
0
 10
54.6482
 20
151.49
 11
54.6896
 21
151.247
  0
LINE
  8
0
 10
54.6896
 20
151.247
 11
54.7035
 21
151
  0
LINE
  8
0
 10
54.7035
 20
151
 11
54.6896
 21
150.753
  0
LINE
  8
0
 10
54.6896
 20
150.753
 11
54.6482
 21
150.51
  0
LINE
  8
0
 10
54.6482
 20
150.51
 11
54.5798
 21
150.272
  0
LINE
  8
0
 10
54.5798
 20
150.272
 11
54.4852
 21
150.044
  0
LINE
  8
0
 10
54.4852
 20
150.044
 11
54.3657
 21
149.828
  0
LINE
  8
0
 10
54.3657
 20
149.828
 11
54.2227
 21
149.626
  0
LINE
  8
0
 10
54.2227
 20
149.626
 11
54.0581
 21
149.442
  0
LINE
  8
0
 10
54.0581
 20
149.442
 11
53.8738
 21
149.277
  0
LINE
  8
0
 10
53.8738
 20
149.277
 11
53.6723
 21
149.134
  0
LINE
  8
0
 10
53.6723
 20
149.134
 11
53.456
 21
149.015
  0
LINE
  8
0
 10
53.456
 20
149.015
 11
53.2278
 21
148.92
  0
LINE
  8
0
 10
53.2278
 20
148.92
 11
52.9903
 21
148.852
  0
LINE
  8
0
 10
52.9903
 20
148.852
 11
52.7467
 21
148.81
  0
LINE
  8
0
 10
52.7467
 20
148.81
 11
52.5
 21
148.797
  0
LINE
  8
0
 10
52.5
 20
148.797
 11
52.2533
 21
148.81
  0
LINE
  8
0
 10
106.255
 20
76.3681
 11
106.019
 21
76.4396
  0
LINE
  8
0
 10
106.019
 20
76.4396
 11
105.802
 21
76.5556
  0
LINE
  8
0
 10
105.802
 20
76.5556
 11
105.612
 21
76.7118
  0
LINE
  8
0
 10
105.612
 20
76.7118
 11
105.456
 21
76.9022
  0
LINE
  8
0
 10
105.456
 20
76.9022
 11
105.34
 21
77.1193
  0
LINE
  8
0
 10
105.34
 20
77.1193
 11
105.268
 21
77.3549
  0
LINE
  8
0
 10
105.268
 20
77.3549
 11
105.244
 21
77.6
  0
LINE
  8
0
 10
105.244
 20
77.6
 11
105.268
 21
77.845
  0
LINE
  8
0
 10
105.268
 20
77.845
 11
105.34
 21
78.0807
  0
LINE
  8
0
 10
105.34
 20
78.0807
 11
105.456
 21
78.2978
  0
LINE
  8
0
 10
105.456
 20
78.2978
 11
105.612
 21
78.4882
  0
LINE
  8
0
 10
105.612
 20
78.4882
 11
105.802
 21
78.6444
  0
LINE
  8
0
 10
105.802
 20
78.6444
 11
106.019
 21
78.7604
  0
LINE
  8
0
 10
106.019
 20
78.7604
 11
106.255
 21
78.8319
  0
LINE
  8
0
 10
106.255
 20
78.8319
 11
106.5
 21
78.856
  0
LINE
  8
0
 10
106.5
 20
78.856
 11
106.745
 21
78.8319
  0
LINE
  8
0
 10
106.745
 20
78.8319
 11
106.981
 21
78.7604
  0
LINE
  8
0
 10
106.981
 20
78.7604
 11
107.198
 21
78.6444
  0
LINE
  8
0
 10
107.198
 20
78.6444
 11
107.388
 21
78.4882
  0
LINE
  8
0
 10
107.388
 20
78.4882
 11
107.544
 21
78.2978
  0
LINE
  8
0
 10
107.544
 20
78.2978
 11
107.66
 21
78.0807
  0
LINE
  8
0
 10
107.66
 20
78.0807
 11
107.732
 21
77.845
  0
LINE
  8
0
 10
107.732
 20
77.845
 11
107.756
 21
77.6
  0
LINE
  8
0
 10
107.756
 20
77.6
 11
107.732
 21
77.3549
  0
LINE
  8
0
 10
107.732
 20
77.3549
 11
107.66
 21
77.1193
  0
LINE
  8
0
 10
107.66
 20
77.1193
 11
107.544
 21
76.9022
  0
LINE
  8
0
 10
107.544
 20
76.9022
 11
107.388
 21
76.7118
  0
LINE
  8
0
 10
107.388
 20
76.7118
 11
107.198
 21
76.5556
  0
LINE
  8
0
 10
107.198
 20
76.5556
 11
106.981
 21
76.4396
  0
LINE
  8
0
 10
106.981
 20
76.4396
 11
106.745
 21
76.3681
  0
LINE
  8
0
 10
106.745
 20
76.3681
 11
106.5
 21
76.3439
  0
LINE
  8
0
 10
106.5
 20
76.3439
 11
106.255
 21
76.3681
  0
LINE
  8
0
 10
76.955
 20
76.3681
 11
76.7193
 21
76.4396
  0
LINE
  8
0
 10
76.7193
 20
76.4396
 11
76.5022
 21
76.5556
  0
LINE
  8
0
 10
76.5022
 20
76.5556
 11
76.3118
 21
76.7118
  0
LINE
  8
0
 10
76.3118
 20
76.7118
 11
76.1556
 21
76.9022
  0
LINE
  8
0
 10
76.1556
 20
76.9022
 11
76.0396
 21
77.1193
  0
LINE
  8
0
 10
76.0396
 20
77.1193
 11
75.9681
 21
77.3549
  0
LINE
  8
0
 10
75.9681
 20
77.3549
 11
75.944
 21
77.6
  0
LINE
  8
0
 10
75.944
 20
77.6
 11
75.9681
 21
77.845
  0
LINE
  8
0
 10
75.9681
 20
77.845
 11
76.0396
 21
78.0807
  0
LINE
  8
0
 10
76.0396
 20
78.0807
 11
76.1556
 21
78.2978
  0
LINE
  8
0
 10
76.1556
 20
78.2978
 11
76.3118
 21
78.4882
  0
LINE
  8
0
 10
76.3118
 20
78.4882
 11
76.5022
 21
78.6444
  0
LINE
  8
0
 10
76.5022
 20
78.6444
 11
76.7193
 21
78.7604
  0
LINE
  8
0
 10
76.7193
 20
78.7604
 11
76.955
 21
78.8319
  0
LINE
  8
0
 10
76.955
 20
78.8319
 11
77.2
 21
78.856
  0
LINE
  8
0
 10
77.2
 20
78.856
 11
77.445
 21
78.8319
  0
LINE
  8
0
 10
77.445
 20
78.8319
 11
77.6807
 21
78.7604
  0
LINE
  8
0
 10
77.6807
 20
78.7604
 11
77.8978
 21
78.6444
  0
LINE
  8
0
 10
77.8978
 20
78.6444
 11
78.0882
 21
78.4882
  0
LINE
  8
0
 10
78.0882
 20
78.4882
 11
78.2444
 21
78.2978
  0
LINE
  8
0
 10
78.2444
 20
78.2978
 11
78.3604
 21
78.0807
  0
LINE
  8
0
 10
78.3604
 20
78.0807
 11
78.4319
 21
77.845
  0
LINE
  8
0
 10
78.4319
 20
77.845
 11
78.456
 21
77.6
  0
LINE
  8
0
 10
78.456
 20
77.6
 11
78.4319
 21
77.3549
  0
LINE
  8
0
 10
78.4319
 20
77.3549
 11
78.3604
 21
77.1193
  0
LINE
  8
0
 10
78.3604
 20
77.1193
 11
78.2444
 21
76.9022
  0
LINE
  8
0
 10
78.2444
 20
76.9022
 11
78.0882
 21
76.7118
  0
LINE
  8
0
 10
78.0882
 20
76.7118
 11
77.8978
 21
76.5556
  0
LINE
  8
0
 10
77.8978
 20
76.5556
 11
77.6807
 21
76.4396
  0
LINE
  8
0
 10
77.6807
 20
76.4396
 11
77.445
 21
76.3681
  0
LINE
  8
0
 10
77.445
 20
76.3681
 11
77.2
 21
76.3439
  0
LINE
  8
0
 10
77.2
 20
76.3439
 11
76.955
 21
76.3681
  0
LINE
  8
0
 10
-185.247
 20
51.1437
 11
-185.49
 21
51.1851
  0
LINE
  8
0
 10
-185.49
 20
51.1851
 11
-185.728
 21
51.2535
  0
LINE
  8
0
 10
-185.728
 20
51.2535
 11
-185.956
 21
51.3481
  0
LINE
  8
0
 10
-185.956
 20
51.3481
 11
-186.172
 21
51.4676
  0
LINE
  8
0
 10
-186.172
 20
51.4676
 11
-186.374
 21
51.6106
  0
LINE
  8
0
 10
-186.374
 20
51.6106
 11
-186.558
 21
51.7752
  0
LINE
  8
0
 10
-186.558
 20
51.7752
 11
-186.723
 21
51.9595
  0
LINE
  8
0
 10
-186.723
 20
51.9595
 11
-186.866
 21
52.161
  0
LINE
  8
0
 10
-186.866
 20
52.161
 11
-186.985
 21
52.3773
  0
LINE
  8
0
 10
-186.985
 20
52.3773
 11
-187.08
 21
52.6056
  0
LINE
  8
0
 10
-187.08
 20
52.6056
 11
-187.148
 21
52.843
  0
LINE
  8
0
 10
-187.148
 20
52.843
 11
-187.19
 21
53.0866
  0
LINE
  8
0
 10
-187.19
 20
53.0866
 11
-187.203
 21
53.3333
  0
LINE
  8
0
 10
-187.203
 20
53.3333
 11
-187.19
 21
53.58
  0
LINE
  8
0
 10
-187.19
 20
53.58
 11
-187.148
 21
53.8236
  0
LINE
  8
0
 10
-187.148
 20
53.8236
 11
-187.08
 21
54.0611
  0
LINE
  8
0
 10
-187.08
 20
54.0611
 11
-186.985
 21
54.2894
  0
LINE
  8
0
 10
-186.985
 20
54.2894
 11
-186.866
 21
54.5056
  0
LINE
  8
0
 10
-186.866
 20
54.5056
 11
-186.723
 21
54.7072
  0
LINE
  8
0
 10
-186.723
 20
54.7072
 11
-186.558
 21
54.8914
  0
LINE
  8
0
 10
-186.558
 20
54.8914
 11
-186.374
 21
55.0561
  0
LINE
  8
0
 10
-186.374
 20
55.0561
 11
-186.172
 21
55.1991
  0
LINE
  8
0
 10
-186.172
 20
55.1991
 11
-185.956
 21
55.3186
  0
LINE
  8
0
 10
-185.956
 20
55.3186
 11
-185.728
 21
55.4131
  0
LINE
  8
0
 10
-185.728
 20
55.4131
 11
-185.49
 21
55.4816
  0
LINE
  8
0
 10
-185.49
 20
55.4816
 11
-185.247
 21
55.5229
  0
LINE
  8
0
 10
-185.247
 20
55.5229
 11
-185
 21
55.5368
  0
LINE
  8
0
 10
-185
 20
55.5368
 11
-184.753
 21
55.5229
  0
LINE
  8
0
 10
-184.753
 20
55.5229
 11
-184.51
 21
55.4816
  0
LINE
  8
0
 10
-184.51
 20
55.4816
 11
-184.272
 21
55.4131
  0
LINE
  8
0
 10
-184.272
 20
55.4131
 11
-184.044
 21
55.3186
  0
LINE
  8
0
 10
-184.044
 20
55.3186
 11
-183.828
 21
55.1991
  0
LINE
  8
0
 10
-183.828
 20
55.1991
 11
-183.626
 21
55.0561
  0
LINE
  8
0
 10
-183.626
 20
55.0561
 11
-183.442
 21
54.8914
  0
LINE
  8
0
 10
-183.442
 20
54.8914
 11
-183.277
 21
54.7072
  0
LINE
  8
0
 10
-183.277
 20
54.7072
 11
-183.134
 21
54.5056
  0
LINE
  8
0
 10
-183.134
 20
54.5056
 11
-183.015
 21
54.2894
  0
LINE
  8
0
 10
-183.015
 20
54.2894
 11
-182.92
 21
54.0611
  0
LINE
  8
0
 10
-182.92
 20
54.0611
 11
-182.852
 21
53.8236
  0
LINE
  8
0
 10
-182.852
 20
53.8236
 11
-182.81
 21
53.58
  0
LINE
  8
0
 10
-182.81
 20
53.58
 11
-182.797
 21
53.3333
  0
LINE
  8
0
 10
-182.797
 20
53.3333
 11
-182.81
 21
53.0866
  0
LINE
  8
0
 10
-182.81
 20
53.0866
 11
-182.852
 21
52.843
  0
LINE
  8
0
 10
-182.852
 20
52.843
 11
-182.92
 21
52.6056
  0
LINE
  8
0
 10
-182.92
 20
52.6056
 11
-183.015
 21
52.3773
  0
LINE
  8
0
 10
-183.015
 20
52.3773
 11
-183.134
 21
52.161
  0
LINE
  8
0
 10
-183.134
 20
52.161
 11
-183.277
 21
51.9595
  0
LINE
  8
0
 10
-183.277
 20
51.9595
 11
-183.442
 21
51.7752
  0
LINE
  8
0
 10
-183.442
 20
51.7752
 11
-183.626
 21
51.6106
  0
LINE
  8
0
 10
-183.626
 20
51.6106
 11
-183.828
 21
51.4676
  0
LINE
  8
0
 10
-183.828
 20
51.4676
 11
-184.044
 21
51.3481
  0
LINE
  8
0
 10
-184.044
 20
51.3481
 11
-184.272
 21
51.2535
  0
LINE
  8
0
 10
-184.272
 20
51.2535
 11
-184.51
 21
51.1851
  0
LINE
  8
0
 10
-184.51
 20
51.1851
 11
-184.753
 21
51.1437
  0
LINE
  8
0
 10
-184.753
 20
51.1437
 11
-185
 21
51.1299
  0
LINE
  8
0
 10
-185
 20
51.1299
 11
-185.247
 21
51.1437
  0
LINE
  8
0
 10
184.753
 20
51.1437
 11
184.51
 21
51.1851
  0
LINE
  8
0
 10
184.51
 20
51.1851
 11
184.272
 21
51.2535
  0
LINE
  8
0
 10
184.272
 20
51.2535
 11
184.044
 21
51.3481
  0
LINE
  8
0
 10
184.044
 20
51.3481
 11
183.828
 21
51.4676
  0
LINE
  8
0
 10
183.828
 20
51.4676
 11
183.626
 21
51.6106
  0
LINE
  8
0
 10
183.626
 20
51.6106
 11
183.442
 21
51.7752
  0
LINE
  8
0
 10
183.442
 20
51.7752
 11
183.277
 21
51.9595
  0
LINE
  8
0
 10
183.277
 20
51.9595
 11
183.134
 21
52.161
  0
LINE
  8
0
 10
183.134
 20
52.161
 11
183.015
 21
52.3773
  0
LINE
  8
0
 10
183.015
 20
52.3773
 11
182.92
 21
52.6056
  0
LINE
  8
0
 10
182.92
 20
52.6056
 11
182.852
 21
52.843
  0
LINE
  8
0
 10
182.852
 20
52.843
 11
182.81
 21
53.0866
  0
LINE
  8
0
 10
182.81
 20
53.0866
 11
182.797
 21
53.3333
  0
LINE
  8
0
 10
182.797
 20
53.3333
 11
182.81
 21
53.58
  0
LINE
  8
0
 10
182.81
 20
53.58
 11
182.852
 21
53.8236
  0
LINE
  8
0
 10
182.852
 20
53.8236
 11
182.92
 21
54.0611
  0
LINE
  8
0
 10
182.92
 20
54.0611
 11
183.015
 21
54.2894
  0
LINE
  8
0
 10
183.015
 20
54.2894
 11
183.134
 21
54.5056
  0
LINE
  8
0
 10
183.134
 20
54.5056
 11
183.277
 21
54.7072
  0
LINE
  8
0
 10
183.277
 20
54.7072
 11
183.442
 21
54.8914
  0
LINE
  8
0
 10
183.442
 20
54.8914
 11
183.626
 21
55.0561
  0
LINE
  8
0
 10
183.626
 20
55.0561
 11
183.828
 21
55.1991
  0
LINE
  8
0
 10
183.828
 20
55.1991
 11
184.044
 21
55.3186
  0
LINE
  8
0
 10
184.044
 20
55.3186
 11
184.272
 21
55.4131
  0
LINE
  8
0
 10
184.272
 20
55.4131
 11
184.51
 21
55.4816
  0
LINE
  8
0
 10
184.51
 20
55.4816
 11
184.753
 21
55.5229
  0
LINE
  8
0
 10
184.753
 20
55.5229
 11
185
 21
55.5368
  0
LINE
  8
0
 10
185
 20
55.5368
 11
185.247
 21
55.5229
  0
LINE
  8
0
 10
185.247
 20
55.5229
 11
185.49
 21
55.4816
  0
LINE
  8
0
 10
185.49
 20
55.4816
 11
185.728
 21
55.4131
  0
LINE
  8
0
 10
185.728
 20
55.4131
 11
185.956
 21
55.3186
  0
LINE
  8
0
 10
185.956
 20
55.3186
 11
186.172
 21
55.1991
  0
LINE
  8
0
 10
186.172
 20
55.1991
 11
186.374
 21
55.0561
  0
LINE
  8
0
 10
186.374
 20
55.0561
 11
186.558
 21
54.8914
  0
LINE
  8
0
 10
186.558
 20
54.8914
 11
186.723
 21
54.7072
  0
LINE
  8
0
 10
186.723
 20
54.7072
 11
186.866
 21
54.5056
  0
LINE
  8
0
 10
186.866
 20
54.5056
 11
186.985
 21
54.2894
  0
LINE
  8
0
 10
186.985
 20
54.2894
 11
187.08
 21
54.0611
  0
LINE
  8
0
 10
187.08
 20
54.0611
 11
187.148
 21
53.8236
  0
LINE
  8
0
 10
187.148
 20
53.8236
 11
187.19
 21
53.58
  0
LINE
  8
0
 10
187.19
 20
53.58
 11
187.203
 21
53.3333
  0
LINE
  8
0
 10
187.203
 20
53.3333
 11
187.19
 21
53.0866
  0
LINE
  8
0
 10
187.19
 20
53.0866
 11
187.148
 21
52.843
  0
LINE
  8
0
 10
187.148
 20
52.843
 11
187.08
 21
52.6056
  0
LINE
  8
0
 10
187.08
 20
52.6056
 11
186.985
 21
52.3773
  0
LINE
  8
0
 10
186.985
 20
52.3773
 11
186.866
 21
52.161
  0
LINE
  8
0
 10
186.866
 20
52.161
 11
186.723
 21
51.9595
  0
LINE
  8
0
 10
186.723
 20
51.9595
 11
186.558
 21
51.7752
  0
LINE
  8
0
 10
186.558
 20
51.7752
 11
186.374
 21
51.6106
  0
LINE
  8
0
 10
186.374
 20
51.6106
 11
186.172
 21
51.4676
  0
LINE
  8
0
 10
186.172
 20
51.4676
 11
185.956
 21
51.3481
  0
LINE
  8
0
 10
185.956
 20
51.3481
 11
185.728
 21
51.2535
  0
LINE
  8
0
 10
185.728
 20
51.2535
 11
185.49
 21
51.1851
  0
LINE
  8
0
 10
185.49
 20
51.1851
 11
185.247
 21
51.1437
  0
LINE
  8
0
 10
185.247
 20
51.1437
 11
185
 21
51.1299
  0
LINE
  8
0
 10
185
 20
51.1299
 11
184.753
 21
51.1437
  0
LINE
  8
0
 10
98.2534
 20
16.2538
 11
98.0123
 21
16.3089
  0
LINE
  8
0
 10
98.0123
 20
16.3089
 11
97.7821
 21
16.3992
  0
LINE
  8
0
 10
97.7821
 20
16.3992
 11
97.5679
 21
16.5229
  0
LINE
  8
0
 10
97.5679
 20
16.5229
 11
97.3746
 21
16.6771
  0
LINE
  8
0
 10
97.3746
 20
16.6771
 11
97.2064
 21
16.8583
  0
LINE
  8
0
 10
97.2064
 20
16.8583
 11
97.0671
 21
17.0627
  0
LINE
  8
0
 10
97.0671
 20
17.0627
 11
96.9598
 21
17.2855
  0
LINE
  8
0
 10
96.9598
 20
17.2855
 11
96.8869
 21
17.5218
  0
LINE
  8
0
 10
96.8869
 20
17.5218
 11
96.85
 21
17.7663
  0
LINE
  8
0
 10
96.85
 20
17.7663
 11
96.85
 21
18.0136
  0
LINE
  8
0
 10
96.85
 20
18.0136
 11
96.8869
 21
18.2582
  0
LINE
  8
0
 10
96.8869
 20
18.2582
 11
96.9598
 21
18.4945
  0
LINE
  8
0
 10
96.9598
 20
18.4945
 11
97.0671
 21
18.7173
  0
LINE
  8
0
 10
97.0671
 20
18.7173
 11
97.2064
 21
18.9216
  0
LINE
  8
0
 10
97.2064
 20
18.9216
 11
97.3746
 21
19.1029
  0
LINE
  8
0
 10
97.3746
 20
19.1029
 11
97.5679
 21
19.2571
  0
LINE
  8
0
 10
97.5679
 20
19.2571
 11
97.7821
 21
19.3808
  0
LINE
  8
0
 10
97.7821
 20
19.3808
 11
98.0123
 21
19.4711
  0
LINE
  8
0
 10
98.0123
 20
19.4711
 11
98.2534
 21
19.5261
  0
LINE
  8
0
 10
98.2534
 20
19.5261
 11
98.5
 21
19.5446
  0
LINE
  8
0
 10
98.5
 20
19.5446
 11
98.7466
 21
19.5261
  0
LINE
  8
0
 10
98.7466
 20
19.5261
 11
98.9877
 21
19.4711
  0
LINE
  8
0
 10
98.9877
 20
19.4711
 11
99.2179
 21
19.3808
  0
LINE
  8
0
 10
99.2179
 20
19.3808
 11
99.4321
 21
19.2571
  0
LINE
  8
0
 10
99.4321
 20
19.2571
 11
99.6254
 21
19.1029
  0
LINE
  8
0
 10
99.6254
 20
19.1029
 11
99.7936
 21
18.9216
  0
LINE
  8
0
 10
99.7936
 20
18.9216
 11
99.933
 21
18.7173
  0
LINE
  8
0
 10
99.933
 20
18.7173
 11
100.04
 21
18.4945
  0
LINE
  8
0
 10
100.04
 20
18.4945
 11
100.113
 21
18.2582
  0
LINE
  8
0
 10
100.113
 20
18.2582
 11
100.15
 21
18.0136
  0
LINE
  8
0
 10
100.15
 20
18.0136
 11
100.15
 21
17.7663
  0
LINE
  8
0
 10
100.15
 20
17.7663
 11
100.113
 21
17.5218
  0
LINE
  8
0
 10
100.113
 20
17.5218
 11
100.04
 21
17.2855
  0
LINE
  8
0
 10
100.04
 20
17.2855
 11
99.933
 21
17.0627
  0
LINE
  8
0
 10
99.933
 20
17.0627
 11
99.7936
 21
16.8583
  0
LINE
  8
0
 10
99.7936
 20
16.8583
 11
99.6254
 21
16.6771
  0
LINE
  8
0
 10
99.6254
 20
16.6771
 11
99.4321
 21
16.5229
  0
LINE
  8
0
 10
99.4321
 20
16.5229
 11
99.2179
 21
16.3992
  0
LINE
  8
0
 10
99.2179
 20
16.3992
 11
98.9877
 21
16.3089
  0
LINE
  8
0
 10
98.9877
 20
16.3089
 11
98.7466
 21
16.2538
  0
LINE
  8
0
 10
98.7466
 20
16.2538
 11
98.5
 21
16.2354
  0
LINE
  8
0
 10
98.5
 20
16.2354
 11
98.2534
 21
16.2538
  0
LINE
  8
0
 10
162.753
 20
16.2538
 11
162.512
 21
16.3089
  0
LINE
  8
0
 10
162.512
 20
16.3089
 11
162.282
 21
16.3992
  0
LINE
  8
0
 10
162.282
 20
16.3992
 11
162.068
 21
16.5229
  0
LINE
  8
0
 10
162.068
 20
16.5229
 11
161.875
 21
16.6771
  0
LINE
  8
0
 10
161.875
 20
16.6771
 11
161.706
 21
16.8583
  0
LINE
  8
0
 10
161.706
 20
16.8583
 11
161.567
 21
17.0627
  0
LINE
  8
0
 10
161.567
 20
17.0627
 11
161.46
 21
17.2855
  0
LINE
  8
0
 10
161.46
 20
17.2855
 11
161.387
 21
17.5218
  0
LINE
  8
0
 10
161.387
 20
17.5218
 11
161.35
 21
17.7663
  0
LINE
  8
0
 10
161.35
 20
17.7663
 11
161.35
 21
18.0136
  0
LINE
  8
0
 10
161.35
 20
18.0136
 11
161.387
 21
18.2582
  0
LINE
  8
0
 10
161.387
 20
18.2582
 11
161.46
 21
18.4945
  0
LINE
  8
0
 10
161.46
 20
18.4945
 11
161.567
 21
18.7173
  0
LINE
  8
0
 10
161.567
 20
18.7173
 11
161.706
 21
18.9216
  0
LINE
  8
0
 10
161.706
 20
18.9216
 11
161.875
 21
19.1029
  0
LINE
  8
0
 10
161.875
 20
19.1029
 11
162.068
 21
19.2571
  0
LINE
  8
0
 10
162.068
 20
19.2571
 11
162.282
 21
19.3808
  0
LINE
  8
0
 10
162.282
 20
19.3808
 11
162.512
 21
19.4711
  0
LINE
  8
0
 10
162.512
 20
19.4711
 11
162.753
 21
19.5261
  0
LINE
  8
0
 10
162.753
 20
19.5261
 11
163
 21
19.5446
  0
LINE
  8
0
 10
163
 20
19.5446
 11
163.247
 21
19.5261
  0
LINE
  8
0
 10
163.247
 20
19.5261
 11
163.488
 21
19.4711
  0
LINE
  8
0
 10
163.488
 20
19.4711
 11
163.718
 21
19.3808
  0
LINE
  8
0
 10
163.718
 20
19.3808
 11
163.932
 21
19.2571
  0
LINE
  8
0
 10
163.932
 20
19.2571
 11
164.125
 21
19.1029
  0
LINE
  8
0
 10
164.125
 20
19.1029
 11
164.294
 21
18.9216
  0
LINE
  8
0
 10
164.294
 20
18.9216
 11
164.433
 21
18.7173
  0
LINE
  8
0
 10
164.433
 20
18.7173
 11
164.54
 21
18.4945
  0
LINE
  8
0
 10
164.54
 20
18.4945
 11
164.613
 21
18.2582
  0
LINE
  8
0
 10
164.613
 20
18.2582
 11
164.65
 21
18.0136
  0
LINE
  8
0
 10
164.65
 20
18.0136
 11
164.65
 21
17.7663
  0
LINE
  8
0
 10
164.65
 20
17.7663
 11
164.613
 21
17.5218
  0
LINE
  8
0
 10
164.613
 20
17.5218
 11
164.54
 21
17.2855
  0
LINE
  8
0
 10
164.54
 20
17.2855
 11
164.433
 21
17.0627
  0
LINE
  8
0
 10
164.433
 20
17.0627
 11
164.294
 21
16.8583
  0
LINE
  8
0
 10
164.294
 20
16.8583
 11
164.125
 21
16.6771
  0
LINE
  8
0
 10
164.125
 20
16.6771
 11
163.932
 21
16.5229
  0
LINE
  8
0
 10
163.932
 20
16.5229
 11
163.718
 21
16.3992
  0
LINE
  8
0
 10
163.718
 20
16.3992
 11
163.488
 21
16.3089
  0
LINE
  8
0
 10
163.488
 20
16.3089
 11
163.247
 21
16.2538
  0
LINE
  8
0
 10
163.247
 20
16.2538
 11
163
 21
16.2354
  0
LINE
  8
0
 10
163
 20
16.2354
 11
162.753
 21
16.2538
  0
LINE
  8
0
 10
184.753
 20
-55.5229
 11
184.51
 21
-55.4816
  0
LINE
  8
0
 10
184.51
 20
-55.4816
 11
184.272
 21
-55.4132
  0
LINE
  8
0
 10
184.272
 20
-55.4132
 11
184.044
 21
-55.3186
  0
LINE
  8
0
 10
184.044
 20
-55.3186
 11
183.828
 21
-55.1991
  0
LINE
  8
0
 10
183.828
 20
-55.1991
 11
183.626
 21
-55.0561
  0
LINE
  8
0
 10
183.626
 20
-55.0561
 11
183.442
 21
-54.8914
  0
LINE
  8
0
 10
183.442
 20
-54.8914
 11
183.277
 21
-54.7072
  0
LINE
  8
0
 10
183.277
 20
-54.7072
 11
183.134
 21
-54.5057
  0
LINE
  8
0
 10
183.134
 20
-54.5057
 11
183.015
 21
-54.2894
  0
LINE
  8
0
 10
183.015
 20
-54.2894
 11
182.92
 21
-54.0611
  0
LINE
  8
0
 10
182.92
 20
-54.0611
 11
182.852
 21
-53.8237
  0
LINE
  8
0
 10
182.852
 20
-53.8237
 11
182.81
 21
-53.58
  0
LINE
  8
0
 10
182.81
 20
-53.58
 11
182.797
 21
-53.3333
  0
LINE
  8
0
 10
182.797
 20
-53.3333
 11
182.81
 21
-53.0866
  0
LINE
  8
0
 10
182.81
 20
-53.0866
 11
182.852
 21
-52.843
  0
LINE
  8
0
 10
182.852
 20
-52.843
 11
182.92
 21
-52.6056
  0
LINE
  8
0
 10
182.92
 20
-52.6056
 11
183.015
 21
-52.3773
  0
LINE
  8
0
 10
183.015
 20
-52.3773
 11
183.134
 21
-52.161
  0
LINE
  8
0
 10
183.134
 20
-52.161
 11
183.277
 21
-51.9595
  0
LINE
  8
0
 10
183.277
 20
-51.9595
 11
183.442
 21
-51.7753
  0
LINE
  8
0
 10
183.442
 20
-51.7753
 11
183.626
 21
-51.6106
  0
LINE
  8
0
 10
183.626
 20
-51.6106
 11
183.828
 21
-51.4676
  0
LINE
  8
0
 10
183.828
 20
-51.4676
 11
184.044
 21
-51.3481
  0
LINE
  8
0
 10
184.044
 20
-51.3481
 11
184.272
 21
-51.2535
  0
LINE
  8
0
 10
184.272
 20
-51.2535
 11
184.51
 21
-51.1851
  0
LINE
  8
0
 10
184.51
 20
-51.1851
 11
184.753
 21
-51.1437
  0
LINE
  8
0
 10
184.753
 20
-51.1437
 11
185
 21
-51.1299
  0
LINE
  8
0
 10
185
 20
-51.1299
 11
185.247
 21
-51.1437
  0
LINE
  8
0
 10
185.247
 20
-51.1437
 11
185.49
 21
-51.1851
  0
LINE
  8
0
 10
185.49
 20
-51.1851
 11
185.728
 21
-51.2535
  0
LINE
  8
0
 10
185.728
 20
-51.2535
 11
185.956
 21
-51.3481
  0
LINE
  8
0
 10
185.956
 20
-51.3481
 11
186.172
 21
-51.4676
  0
LINE
  8
0
 10
186.172
 20
-51.4676
 11
186.374
 21
-51.6106
  0
LINE
  8
0
 10
186.374
 20
-51.6106
 11
186.558
 21
-51.7753
  0
LINE
  8
0
 10
186.558
 20
-51.7753
 11
186.723
 21
-51.9595
  0
LINE
  8
0
 10
186.723
 20
-51.9595
 11
186.866
 21
-52.161
  0
LINE
  8
0
 10
186.866
 20
-52.161
 11
186.985
 21
-52.3773
  0
LINE
  8
0
 10
186.985
 20
-52.3773
 11
187.08
 21
-52.6056
  0
LINE
  8
0
 10
187.08
 20
-52.6056
 11
187.148
 21
-52.843
  0
LINE
  8
0
 10
187.148
 20
-52.843
 11
187.19
 21
-53.0866
  0
LINE
  8
0
 10
187.19
 20
-53.0866
 11
187.203
 21
-53.3333
  0
LINE
  8
0
 10
187.203
 20
-53.3333
 11
187.19
 21
-53.58
  0
LINE
  8
0
 10
187.19
 20
-53.58
 11
187.148
 21
-53.8237
  0
LINE
  8
0
 10
187.148
 20
-53.8237
 11
187.08
 21
-54.0611
  0
LINE
  8
0
 10
187.08
 20
-54.0611
 11
186.985
 21
-54.2894
  0
LINE
  8
0
 10
186.985
 20
-54.2894
 11
186.866
 21
-54.5057
  0
LINE
  8
0
 10
186.866
 20
-54.5057
 11
186.723
 21
-54.7072
  0
LINE
  8
0
 10
186.723
 20
-54.7072
 11
186.558
 21
-54.8914
  0
LINE
  8
0
 10
186.558
 20
-54.8914
 11
186.374
 21
-55.0561
  0
LINE
  8
0
 10
186.374
 20
-55.0561
 11
186.172
 21
-55.1991
  0
LINE
  8
0
 10
186.172
 20
-55.1991
 11
185.956
 21
-55.3186
  0
LINE
  8
0
 10
185.956
 20
-55.3186
 11
185.728
 21
-55.4132
  0
LINE
  8
0
 10
185.728
 20
-55.4132
 11
185.49
 21
-55.4816
  0
LINE
  8
0
 10
185.49
 20
-55.4816
 11
185.247
 21
-55.5229
  0
LINE
  8
0
 10
185.247
 20
-55.5229
 11
185
 21
-55.5368
  0
LINE
  8
0
 10
185
 20
-55.5368
 11
184.753
 21
-55.5229
  0
LINE
  8
0
 10
-185.247
 20
-55.5229
 11
-185.49
 21
-55.4816
  0
LINE
  8
0
 10
-185.49
 20
-55.4816
 11
-185.728
 21
-55.4132
  0
LINE
  8
0
 10
-185.728
 20
-55.4132
 11
-185.956
 21
-55.3186
  0
LINE
  8
0
 10
-185.956
 20
-55.3186
 11
-186.172
 21
-55.1991
  0
LINE
  8
0
 10
-186.172
 20
-55.1991
 11
-186.374
 21
-55.0561
  0
LINE
  8
0
 10
-186.374
 20
-55.0561
 11
-186.558
 21
-54.8914
  0
LINE
  8
0
 10
-186.558
 20
-54.8914
 11
-186.723
 21
-54.7072
  0
LINE
  8
0
 10
-186.723
 20
-54.7072
 11
-186.866
 21
-54.5057
  0
LINE
  8
0
 10
-186.866
 20
-54.5057
 11
-186.985
 21
-54.2894
  0
LINE
  8
0
 10
-186.985
 20
-54.2894
 11
-187.08
 21
-54.0611
  0
LINE
  8
0
 10
-187.08
 20
-54.0611
 11
-187.148
 21
-53.8237
  0
LINE
  8
0
 10
-187.148
 20
-53.8237
 11
-187.19
 21
-53.58
  0
LINE
  8
0
 10
-187.19
 20
-53.58
 11
-187.203
 21
-53.3333
  0
LINE
  8
0
 10
-187.203
 20
-53.3333
 11
-187.19
 21
-53.0866
  0
LINE
  8
0
 10
-187.19
 20
-53.0866
 11
-187.148
 21
-52.843
  0
LINE
  8
0
 10
-187.148
 20
-52.843
 11
-187.08
 21
-52.6056
  0
LINE
  8
0
 10
-187.08
 20
-52.6056
 11
-186.985
 21
-52.3773
  0
LINE
  8
0
 10
-186.985
 20
-52.3773
 11
-186.866
 21
-52.161
  0
LINE
  8
0
 10
-186.866
 20
-52.161
 11
-186.723
 21
-51.9595
  0
LINE
  8
0
 10
-186.723
 20
-51.9595
 11
-186.558
 21
-51.7753
  0
LINE
  8
0
 10
-186.558
 20
-51.7753
 11
-186.374
 21
-51.6106
  0
LINE
  8
0
 10
-186.374
 20
-51.6106
 11
-186.172
 21
-51.4676
  0
LINE
  8
0
 10
-186.172
 20
-51.4676
 11
-185.956
 21
-51.3481
  0
LINE
  8
0
 10
-185.956
 20
-51.3481
 11
-185.728
 21
-51.2535
  0
LINE
  8
0
 10
-185.728
 20
-51.2535
 11
-185.49
 21
-51.1851
  0
LINE
  8
0
 10
-185.49
 20
-51.1851
 11
-185.247
 21
-51.1437
  0
LINE
  8
0
 10
-185.247
 20
-51.1437
 11
-185
 21
-51.1299
  0
LINE
  8
0
 10
-185
 20
-51.1299
 11
-184.753
 21
-51.1437
  0
LINE
  8
0
 10
-184.753
 20
-51.1437
 11
-184.51
 21
-51.1851
  0
LINE
  8
0
 10
-184.51
 20
-51.1851
 11
-184.272
 21
-51.2535
  0
LINE
  8
0
 10
-184.272
 20
-51.2535
 11
-184.044
 21
-51.3481
  0
LINE
  8
0
 10
-184.044
 20
-51.3481
 11
-183.828
 21
-51.4676
  0
LINE
  8
0
 10
-183.828
 20
-51.4676
 11
-183.626
 21
-51.6106
  0
LINE
  8
0
 10
-183.626
 20
-51.6106
 11
-183.442
 21
-51.7753
  0
LINE
  8
0
 10
-183.442
 20
-51.7753
 11
-183.277
 21
-51.9595
  0
LINE
  8
0
 10
-183.277
 20
-51.9595
 11
-183.134
 21
-52.161
  0
LINE
  8
0
 10
-183.134
 20
-52.161
 11
-183.015
 21
-52.3773
  0
LINE
  8
0
 10
-183.015
 20
-52.3773
 11
-182.92
 21
-52.6056
  0
LINE
  8
0
 10
-182.92
 20
-52.6056
 11
-182.852
 21
-52.843
  0
LINE
  8
0
 10
-182.852
 20
-52.843
 11
-182.81
 21
-53.0866
  0
LINE
  8
0
 10
-182.81
 20
-53.0866
 11
-182.797
 21
-53.3333
  0
LINE
  8
0
 10
-182.797
 20
-53.3333
 11
-182.81
 21
-53.58
  0
LINE
  8
0
 10
-182.81
 20
-53.58
 11
-182.852
 21
-53.8237
  0
LINE
  8
0
 10
-182.852
 20
-53.8237
 11
-182.92
 21
-54.0611
  0
LINE
  8
0
 10
-182.92
 20
-54.0611
 11
-183.015
 21
-54.2894
  0
LINE
  8
0
 10
-183.015
 20
-54.2894
 11
-183.134
 21
-54.5057
  0
LINE
  8
0
 10
-183.134
 20
-54.5057
 11
-183.277
 21
-54.7072
  0
LINE
  8
0
 10
-183.277
 20
-54.7072
 11
-183.442
 21
-54.8914
  0
LINE
  8
0
 10
-183.442
 20
-54.8914
 11
-183.626
 21
-55.0561
  0
LINE
  8
0
 10
-183.626
 20
-55.0561
 11
-183.828
 21
-55.1991
  0
LINE
  8
0
 10
-183.828
 20
-55.1991
 11
-184.044
 21
-55.3186
  0
LINE
  8
0
 10
-184.044
 20
-55.3186
 11
-184.272
 21
-55.4132
  0
LINE
  8
0
 10
-184.272
 20
-55.4132
 11
-184.51
 21
-55.4816
  0
LINE
  8
0
 10
-184.51
 20
-55.4816
 11
-184.753
 21
-55.5229
  0
LINE
  8
0
 10
-184.753
 20
-55.5229
 11
-185
 21
-55.5368
  0
LINE
  8
0
 10
-185
 20
-55.5368
 11
-185.247
 21
-55.5229
  0
LINE
  8
0
 10
17.2533
 20
-81.1896
 11
17.0097
 21
-81.1482
  0
LINE
  8
0
 10
17.0097
 20
-81.1482
 11
16.7722
 21
-81.0798
  0
LINE
  8
0
 10
16.7722
 20
-81.0798
 11
16.544
 21
-80.9852
  0
LINE
  8
0
 10
16.544
 20
-80.9852
 11
16.3277
 21
-80.8657
  0
LINE
  8
0
 10
16.3277
 20
-80.8657
 11
16.1262
 21
-80.7227
  0
LINE
  8
0
 10
16.1262
 20
-80.7227
 11
15.9419
 21
-80.5581
  0
LINE
  8
0
 10
15.9419
 20
-80.5581
 11
15.7773
 21
-80.3738
  0
LINE
  8
0
 10
15.7773
 20
-80.3738
 11
15.6343
 21
-80.1723
  0
LINE
  8
0
 10
15.6343
 20
-80.1723
 11
15.5148
 21
-79.956
  0
LINE
  8
0
 10
15.5148
 20
-79.956
 11
15.4202
 21
-79.7278
  0
LINE
  8
0
 10
15.4202
 20
-79.7278
 11
15.3518
 21
-79.4903
  0
LINE
  8
0
 10
15.3518
 20
-79.4903
 11
15.3104
 21
-79.2467
  0
LINE
  8
0
 10
15.3104
 20
-79.2467
 11
15.2965
 21
-79
  0
LINE
  8
0
 10
15.2965
 20
-79
 11
15.3104
 21
-78.7533
  0
LINE
  8
0
 10
15.3104
 20
-78.7533
 11
15.3518
 21
-78.5097
  0
LINE
  8
0
 10
15.3518
 20
-78.5097
 11
15.4202
 21
-78.2722
  0
LINE
  8
0
 10
15.4202
 20
-78.2722
 11
15.5148
 21
-78.0439
  0
LINE
  8
0
 10
15.5148
 20
-78.0439
 11
15.6343
 21
-77.8277
  0
LINE
  8
0
 10
15.6343
 20
-77.8277
 11
15.7773
 21
-77.6262
  0
LINE
  8
0
 10
15.7773
 20
-77.6262
 11
15.9419
 21
-77.4419
  0
LINE
  8
0
 10
15.9419
 20
-77.4419
 11
16.1262
 21
-77.2773
  0
LINE
  8
0
 10
16.1262
 20
-77.2773
 11
16.3277
 21
-77.1343
  0
LINE
  8
0
 10
16.3277
 20
-77.1343
 11
16.544
 21
-77.0147
  0
LINE
  8
0
 10
16.544
 20
-77.0147
 11
16.7722
 21
-76.9202
  0
LINE
  8
0
 10
16.7722
 20
-76.9202
 11
17.0097
 21
-76.8518
  0
LINE
  8
0
 10
17.0097
 20
-76.8518
 11
17.2533
 21
-76.8104
  0
LINE
  8
0
 10
17.2533
 20
-76.8104
 11
17.5
 21
-76.7965
  0
LINE
  8
0
 10
17.5
 20
-76.7965
 11
17.7467
 21
-76.8104
  0
LINE
  8
0
 10
17.7467
 20
-76.8104
 11
17.9903
 21
-76.8518
  0
LINE
  8
0
 10
17.9903
 20
-76.8518
 11
18.2278
 21
-76.9202
  0
LINE
  8
0
 10
18.2278
 20
-76.9202
 11
18.4561
 21
-77.0147
  0
LINE
  8
0
 10
18.4561
 20
-77.0147
 11
18.6723
 21
-77.1343
  0
LINE
  8
0
 10
18.6723
 20
-77.1343
 11
18.8738
 21
-77.2773
  0
LINE
  8
0
 10
18.8738
 20
-77.2773
 11
19.0581
 21
-77.4419
  0
LINE
  8
0
 10
19.0581
 20
-77.4419
 11
19.2227
 21
-77.6262
  0
LINE
  8
0
 10
19.2227
 20
-77.6262
 11
19.3657
 21
-77.8277
  0
LINE
  8
0
 10
19.3657
 20
-77.8277
 11
19.4853
 21
-78.0439
  0
LINE
  8
0
 10
19.4853
 20
-78.0439
 11
19.5798
 21
-78.2722
  0
LINE
  8
0
 10
19.5798
 20
-78.2722
 11
19.6482
 21
-78.5097
  0
LINE
  8
0
 10
19.6482
 20
-78.5097
 11
19.6896
 21
-78.7533
  0
LINE
  8
0
 10
19.6896
 20
-78.7533
 11
19.7035
 21
-79
  0
LINE
  8
0
 10
19.7035
 20
-79
 11
19.6896
 21
-79.2467
  0
LINE
  8
0
 10
19.6896
 20
-79.2467
 11
19.6482
 21
-79.4903
  0
LINE
  8
0
 10
19.6482
 20
-79.4903
 11
19.5798
 21
-79.7278
  0
LINE
  8
0
 10
19.5798
 20
-79.7278
 11
19.4853
 21
-79.956
  0
LINE
  8
0
 10
19.4853
 20
-79.956
 11
19.3657
 21
-80.1723
  0
LINE
  8
0
 10
19.3657
 20
-80.1723
 11
19.2227
 21
-80.3738
  0
LINE
  8
0
 10
19.2227
 20
-80.3738
 11
19.0581
 21
-80.5581
  0
LINE
  8
0
 10
19.0581
 20
-80.5581
 11
18.8738
 21
-80.7227
  0
LINE
  8
0
 10
18.8738
 20
-80.7227
 11
18.6723
 21
-80.8657
  0
LINE
  8
0
 10
18.6723
 20
-80.8657
 11
18.4561
 21
-80.9852
  0
LINE
  8
0
 10
18.4561
 20
-80.9852
 11
18.2278
 21
-81.0798
  0
LINE
  8
0
 10
18.2278
 20
-81.0798
 11
17.9903
 21
-81.1482
  0
LINE
  8
0
 10
17.9903
 20
-81.1482
 11
17.7467
 21
-81.1896
  0
LINE
  8
0
 10
17.7467
 20
-81.1896
 11
17.5
 21
-81.2035
  0
LINE
  8
0
 10
17.5
 20
-81.2035
 11
17.2533
 21
-81.1896
  0
LINE
  8
0
 10
98.2534
 20
-112.136
 11
98.0123
 21
-112.081
  0
LINE
  8
0
 10
98.0123
 20
-112.081
 11
97.7821
 21
-111.991
  0
LINE
  8
0
 10
97.7821
 20
-111.991
 11
97.5679
 21
-111.867
  0
LINE
  8
0
 10
97.5679
 20
-111.867
 11
97.3746
 21
-111.713
  0
LINE
  8
0
 10
97.3746
 20
-111.713
 11
97.2064
 21
-111.532
  0
LINE
  8
0
 10
97.2064
 20
-111.532
 11
97.0671
 21
-111.327
  0
LINE
  8
0
 10
97.0671
 20
-111.327
 11
96.9598
 21
-111.105
  0
LINE
  8
0
 10
96.9598
 20
-111.105
 11
96.8869
 21
-110.868
  0
LINE
  8
0
 10
96.8869
 20
-110.868
 11
96.85
 21
-110.624
  0
LINE
  8
0
 10
96.85
 20
-110.624
 11
96.85
 21
-110.376
  0
LINE
  8
0
 10
96.85
 20
-110.376
 11
96.8869
 21
-110.132
  0
LINE
  8
0
 10
96.8869
 20
-110.132
 11
96.9598
 21
-109.895
  0
LINE
  8
0
 10
96.9598
 20
-109.895
 11
97.0671
 21
-109.673
  0
LINE
  8
0
 10
97.0671
 20
-109.673
 11
97.2064
 21
-109.468
  0
LINE
  8
0
 10
97.2064
 20
-109.468
 11
97.3746
 21
-109.287
  0
LINE
  8
0
 10
97.3746
 20
-109.287
 11
97.5679
 21
-109.133
  0
LINE
  8
0
 10
97.5679
 20
-109.133
 11
97.7821
 21
-109.009
  0
LINE
  8
0
 10
97.7821
 20
-109.009
 11
98.0123
 21
-108.919
  0
LINE
  8
0
 10
98.0123
 20
-108.919
 11
98.2534
 21
-108.864
  0
LINE
  8
0
 10
98.2534
 20
-108.864
 11
98.5
 21
-108.845
  0
LINE
  8
0
 10
98.5
 20
-108.845
 11
98.7466
 21
-108.864
  0
LINE
  8
0
 10
98.7466
 20
-108.864
 11
98.9877
 21
-108.919
  0
LINE
  8
0
 10
98.9877
 20
-108.919
 11
99.2179
 21
-109.009
  0
LINE
  8
0
 10
99.2179
 20
-109.009
 11
99.4321
 21
-109.133
  0
LINE
  8
0
 10
99.4321
 20
-109.133
 11
99.6254
 21
-109.287
  0
LINE
  8
0
 10
99.6254
 20
-109.287
 11
99.7936
 21
-109.468
  0
LINE
  8
0
 10
99.7936
 20
-109.468
 11
99.933
 21
-109.673
  0
LINE
  8
0
 10
99.933
 20
-109.673
 11
100.04
 21
-109.895
  0
LINE
  8
0
 10
100.04
 20
-109.895
 11
100.113
 21
-110.132
  0
LINE
  8
0
 10
100.113
 20
-110.132
 11
100.15
 21
-110.376
  0
LINE
  8
0
 10
100.15
 20
-110.376
 11
100.15
 21
-110.624
  0
LINE
  8
0
 10
100.15
 20
-110.624
 11
100.113
 21
-110.868
  0
LINE
  8
0
 10
100.113
 20
-110.868
 11
100.04
 21
-111.105
  0
LINE
  8
0
 10
100.04
 20
-111.105
 11
99.933
 21
-111.327
  0
LINE
  8
0
 10
99.933
 20
-111.327
 11
99.7936
 21
-111.532
  0
LINE
  8
0
 10
99.7936
 20
-111.532
 11
99.6254
 21
-111.713
  0
LINE
  8
0
 10
99.6254
 20
-111.713
 11
99.4321
 21
-111.867
  0
LINE
  8
0
 10
99.4321
 20
-111.867
 11
99.2179
 21
-111.991
  0
LINE
  8
0
 10
99.2179
 20
-111.991
 11
98.9877
 21
-112.081
  0
LINE
  8
0
 10
98.9877
 20
-112.081
 11
98.7466
 21
-112.136
  0
LINE
  8
0
 10
98.7466
 20
-112.136
 11
98.5
 21
-112.155
  0
LINE
  8
0
 10
98.5
 20
-112.155
 11
98.2534
 21
-112.136
  0
LINE
  8
0
 10
184.753
 20
-162.19
 11
184.51
 21
-162.148
  0
LINE
  8
0
 10
184.51
 20
-162.148
 11
184.272
 21
-162.08
  0
LINE
  8
0
 10
184.272
 20
-162.08
 11
184.044
 21
-161.985
  0
LINE
  8
0
 10
184.044
 20
-161.985
 11
183.828
 21
-161.866
  0
LINE
  8
0
 10
183.828
 20
-161.866
 11
183.626
 21
-161.723
  0
LINE
  8
0
 10
183.626
 20
-161.723
 11
183.442
 21
-161.558
  0
LINE
  8
0
 10
183.442
 20
-161.558
 11
183.277
 21
-161.374
  0
LINE
  8
0
 10
183.277
 20
-161.374
 11
183.134
 21
-161.172
  0
LINE
  8
0
 10
183.134
 20
-161.172
 11
183.015
 21
-160.956
  0
LINE
  8
0
 10
183.015
 20
-160.956
 11
182.92
 21
-160.728
  0
LINE
  8
0
 10
182.92
 20
-160.728
 11
182.852
 21
-160.49
  0
LINE
  8
0
 10
182.852
 20
-160.49
 11
182.81
 21
-160.247
  0
LINE
  8
0
 10
182.81
 20
-160.247
 11
182.797
 21
-160
  0
LINE
  8
0
 10
182.797
 20
-160
 11
182.81
 21
-159.753
  0
LINE
  8
0
 10
182.81
 20
-159.753
 11
182.852
 21
-159.51
  0
LINE
  8
0
 10
182.852
 20
-159.51
 11
182.92
 21
-159.272
  0
LINE
  8
0
 10
182.92
 20
-159.272
 11
183.015
 21
-159.044
  0
LINE
  8
0
 10
183.015
 20
-159.044
 11
183.134
 21
-158.828
  0
LINE
  8
0
 10
183.134
 20
-158.828
 11
183.277
 21
-158.626
  0
LINE
  8
0
 10
183.277
 20
-158.626
 11
183.442
 21
-158.442
  0
LINE
  8
0
 10
183.442
 20
-158.442
 11
183.626
 21
-158.277
  0
LINE
  8
0
 10
183.626
 20
-158.277
 11
183.828
 21
-158.134
  0
LINE
  8
0
 10
183.828
 20
-158.134
 11
184.044
 21
-158.015
  0
LINE
  8
0
 10
184.044
 20
-158.015
 11
184.272
 21
-157.92
  0
LINE
  8
0
 10
184.272
 20
-157.92
 11
184.51
 21
-157.852
  0
LINE
  8
0
 10
184.51
 20
-157.852
 11
184.753
 21
-157.81
  0
LINE
  8
0
 10
184.753
 20
-157.81
 11
185
 21
-157.797
  0
LINE
  8
0
 10
185
 20
-157.797
 11
185.247
 21
-157.81
  0
LINE
  8
0
 10
185.247
 20
-157.81
 11
185.49
 21
-157.852
  0
LINE
  8
0
 10
185.49
 20
-157.852
 11
185.728
 21
-157.92
  0
LINE
  8
0
 10
185.728
 20
-157.92
 11
185.956
 21
-158.015
  0
LINE
  8
0
 10
185.956
 20
-158.015
 11
186.172
 21
-158.134
  0
LINE
  8
0
 10
186.172
 20
-158.134
 11
186.374
 21
-158.277
  0
LINE
  8
0
 10
186.374
 20
-158.277
 11
186.558
 21
-158.442
  0
LINE
  8
0
 10
186.558
 20
-158.442
 11
186.723
 21
-158.626
  0
LINE
  8
0
 10
186.723
 20
-158.626
 11
186.866
 21
-158.828
  0
LINE
  8
0
 10
186.866
 20
-158.828
 11
186.985
 21
-159.044
  0
LINE
  8
0
 10
186.985
 20
-159.044
 11
187.08
 21
-159.272
  0
LINE
  8
0
 10
187.08
 20
-159.272
 11
187.148
 21
-159.51
  0
LINE
  8
0
 10
187.148
 20
-159.51
 11
187.19
 21
-159.753
  0
LINE
  8
0
 10
187.19
 20
-159.753
 11
187.203
 21
-160
  0
LINE
  8
0
 10
187.203
 20
-160
 11
187.19
 21
-160.247
  0
LINE
  8
0
 10
187.19
 20
-160.247
 11
187.148
 21
-160.49
  0
LINE
  8
0
 10
187.148
 20
-160.49
 11
187.08
 21
-160.728
  0
LINE
  8
0
 10
187.08
 20
-160.728
 11
186.985
 21
-160.956
  0
LINE
  8
0
 10
186.985
 20
-160.956
 11
186.866
 21
-161.172
  0
LINE
  8
0
 10
186.866
 20
-161.172
 11
186.723
 21
-161.374
  0
LINE
  8
0
 10
186.723
 20
-161.374
 11
186.558
 21
-161.558
  0
LINE
  8
0
 10
186.558
 20
-161.558
 11
186.374
 21
-161.723
  0
LINE
  8
0
 10
186.374
 20
-161.723
 11
186.172
 21
-161.866
  0
LINE
  8
0
 10
186.172
 20
-161.866
 11
185.956
 21
-161.985
  0
LINE
  8
0
 10
185.956
 20
-161.985
 11
185.728
 21
-162.08
  0
LINE
  8
0
 10
185.728
 20
-162.08
 11
185.49
 21
-162.148
  0
LINE
  8
0
 10
185.49
 20
-162.148
 11
185.247
 21
-162.19
  0
LINE
  8
0
 10
185.247
 20
-162.19
 11
185
 21
-162.203
  0
LINE
  8
0
 10
185
 20
-162.203
 11
184.753
 21
-162.19
  0
LINE
  8
0
 10
-185.247
 20
-162.19
 11
-185.49
 21
-162.148
  0
LINE
  8
0
 10
-185.49
 20
-162.148
 11
-185.728
 21
-162.08
  0
LINE
  8
0
 10
-185.728
 20
-162.08
 11
-185.956
 21
-161.985
  0
LINE
  8
0
 10
-185.956
 20
-161.985
 11
-186.172
 21
-161.866
  0
LINE
  8
0
 10
-186.172
 20
-161.866
 11
-186.374
 21
-161.723
  0
LINE
  8
0
 10
-186.374
 20
-161.723
 11
-186.558
 21
-161.558
  0
LINE
  8
0
 10
-186.558
 20
-161.558
 11
-186.723
 21
-161.374
  0
LINE
  8
0
 10
-186.723
 20
-161.374
 11
-186.866
 21
-161.172
  0
LINE
  8
0
 10
-186.866
 20
-161.172
 11
-186.985
 21
-160.956
  0
LINE
  8
0
 10
-186.985
 20
-160.956
 11
-187.08
 21
-160.728
  0
LINE
  8
0
 10
-187.08
 20
-160.728
 11
-187.148
 21
-160.49
  0
LINE
  8
0
 10
-187.148
 20
-160.49
 11
-187.19
 21
-160.247
  0
LINE
  8
0
 10
-187.19
 20
-160.247
 11
-187.203
 21
-160
  0
LINE
  8
0
 10
-187.203
 20
-160
 11
-187.19
 21
-159.753
  0
LINE
  8
0
 10
-187.19
 20
-159.753
 11
-187.148
 21
-159.51
  0
LINE
  8
0
 10
-187.148
 20
-159.51
 11
-187.08
 21
-159.272
  0
LINE
  8
0
 10
-187.08
 20
-159.272
 11
-186.985
 21
-159.044
  0
LINE
  8
0
 10
-186.985
 20
-159.044
 11
-186.866
 21
-158.828
  0
LINE
  8
0
 10
-186.866
 20
-158.828
 11
-186.723
 21
-158.626
  0
LINE
  8
0
 10
-186.723
 20
-158.626
 11
-186.558
 21
-158.442
  0
LINE
  8
0
 10
-186.558
 20
-158.442
 11
-186.374
 21
-158.277
  0
LINE
  8
0
 10
-186.374
 20
-158.277
 11
-186.172
 21
-158.134
  0
LINE
  8
0
 10
-186.172
 20
-158.134
 11
-185.956
 21
-158.015
  0
LINE
  8
0
 10
-185.956
 20
-158.015
 11
-185.728
 21
-157.92
  0
LINE
  8
0
 10
-185.728
 20
-157.92
 11
-185.49
 21
-157.852
  0
LINE
  8
0
 10
-185.49
 20
-157.852
 11
-185.247
 21
-157.81
  0
LINE
  8
0
 10
-185.247
 20
-157.81
 11
-185
 21
-157.797
  0
LINE
  8
0
 10
-185
 20
-157.797
 11
-184.753
 21
-157.81
  0
LINE
  8
0
 10
-184.753
 20
-157.81
 11
-184.51
 21
-157.852
  0
LINE
  8
0
 10
-184.51
 20
-157.852
 11
-184.272
 21
-157.92
  0
LINE
  8
0
 10
-184.272
 20
-157.92
 11
-184.044
 21
-158.015
  0
LINE
  8
0
 10
-184.044
 20
-158.015
 11
-183.828
 21
-158.134
  0
LINE
  8
0
 10
-183.828
 20
-158.134
 11
-183.626
 21
-158.277
  0
LINE
  8
0
 10
-183.626
 20
-158.277
 11
-183.442
 21
-158.442
  0
LINE
  8
0
 10
-183.442
 20
-158.442
 11
-183.277
 21
-158.626
  0
LINE
  8
0
 10
-183.277
 20
-158.626
 11
-183.134
 21
-158.828
  0
LINE
  8
0
 10
-183.134
 20
-158.828
 11
-183.015
 21
-159.044
  0
LINE
  8
0
 10
-183.015
 20
-159.044
 11
-182.92
 21
-159.272
  0
LINE
  8
0
 10
-182.92
 20
-159.272
 11
-182.852
 21
-159.51
  0
LINE
  8
0
 10
-182.852
 20
-159.51
 11
-182.81
 21
-159.753
  0
LINE
  8
0
 10
-182.81
 20
-159.753
 11
-182.797
 21
-160
  0
LINE
  8
0
 10
-182.797
 20
-160
 11
-182.81
 21
-160.247
  0
LINE
  8
0
 10
-182.81
 20
-160.247
 11
-182.852
 21
-160.49
  0
LINE
  8
0
 10
-182.852
 20
-160.49
 11
-182.92
 21
-160.728
  0
LINE
  8
0
 10
-182.92
 20
-160.728
 11
-183.015
 21
-160.956
  0
LINE
  8
0
 10
-183.015
 20
-160.956
 11
-183.134
 21
-161.172
  0
LINE
  8
0
 10
-183.134
 20
-161.172
 11
-183.277
 21
-161.374
  0
LINE
  8
0
 10
-183.277
 20
-161.374
 11
-183.442
 21
-161.558
  0
LINE
  8
0
 10
-183.442
 20
-161.558
 11
-183.626
 21
-161.723
  0
LINE
  8
0
 10
-183.626
 20
-161.723
 11
-183.828
 21
-161.866
  0
LINE
  8
0
 10
-183.828
 20
-161.866
 11
-184.044
 21
-161.985
  0
LINE
  8
0
 10
-184.044
 20
-161.985
 11
-184.272
 21
-162.08
  0
LINE
  8
0
 10
-184.272
 20
-162.08
 11
-184.51
 21
-162.148
  0
LINE
  8
0
 10
-184.51
 20
-162.148
 11
-184.753
 21
-162.19
  0
LINE
  8
0
 10
-184.753
 20
-162.19
 11
-185
 21
-162.203
  0
LINE
  8
0
 10
-185
 20
-162.203
 11
-185.247
 21
-162.19
  0
LINE
  8
0
 10
184.665
 20
-188.187
 11
184.334
 21
-188.134
  0
LINE
  8
0
 10
184.334
 20
-188.134
 11
184.01
 21
-188.048
  0
LINE
  8
0
 10
184.01
 20
-188.048
 11
183.697
 21
-187.927
  0
LINE
  8
0
 10
183.697
 20
-187.927
 11
183.398
 21
-187.775
  0
LINE
  8
0
 10
183.398
 20
-187.775
 11
183.117
 21
-187.592
  0
LINE
  8
0
 10
183.117
 20
-187.592
 11
182.856
 21
-187.381
  0
LINE
  8
0
 10
182.856
 20
-187.381
 11
182.619
 21
-187.144
  0
LINE
  8
0
 10
182.619
 20
-187.144
 11
182.408
 21
-186.883
  0
LINE
  8
0
 10
182.408
 20
-186.883
 11
182.225
 21
-186.602
  0
LINE
  8
0
 10
182.225
 20
-186.602
 11
182.073
 21
-186.303
  0
LINE
  8
0
 10
182.073
 20
-186.303
 11
181.952
 21
-185.99
  0
LINE
  8
0
 10
181.952
 20
-185.99
 11
181.866
 21
-185.666
  0
LINE
  8
0
 10
181.866
 20
-185.666
 11
181.813
 21
-185.335
  0
LINE
  8
0
 10
181.813
 20
-185.335
 11
181.796
 21
-185
  0
LINE
  8
0
 10
181.796
 20
-185
 11
181.813
 21
-184.665
  0
LINE
  8
0
 10
181.813
 20
-184.665
 11
181.866
 21
-184.334
  0
LINE
  8
0
 10
181.866
 20
-184.334
 11
181.952
 21
-184.01
  0
LINE
  8
0
 10
181.952
 20
-184.01
 11
182.073
 21
-183.697
  0
LINE
  8
0
 10
182.073
 20
-183.697
 11
182.225
 21
-183.398
  0
LINE
  8
0
 10
182.225
 20
-183.398
 11
182.408
 21
-183.117
  0
LINE
  8
0
 10
182.408
 20
-183.117
 11
182.619
 21
-182.856
  0
LINE
  8
0
 10
182.619
 20
-182.856
 11
182.856
 21
-182.619
  0
LINE
  8
0
 10
182.856
 20
-182.619
 11
183.117
 21
-182.408
  0
LINE
  8
0
 10
183.117
 20
-182.408
 11
183.398
 21
-182.225
  0
LINE
  8
0
 10
183.398
 20
-182.225
 11
183.697
 21
-182.073
  0
LINE
  8
0
 10
183.697
 20
-182.073
 11
184.01
 21
-181.952
  0
LINE
  8
0
 10
184.01
 20
-181.952
 11
184.334
 21
-181.866
  0
LINE
  8
0
 10
184.334
 20
-181.866
 11
184.665
 21
-181.813
  0
LINE
  8
0
 10
184.665
 20
-181.813
 11
185
 21
-181.796
  0
LINE
  8
0
 10
185
 20
-181.796
 11
185.335
 21
-181.813
  0
LINE
  8
0
 10
185.335
 20
-181.813
 11
185.666
 21
-181.866
  0
LINE
  8
0
 10
185.666
 20
-181.866
 11
185.99
 21
-181.952
  0
LINE
  8
0
 10
185.99
 20
-181.952
 11
186.303
 21
-182.073
  0
LINE
  8
0
 10
186.303
 20
-182.073
 11
186.602
 21
-182.225
  0
LINE
  8
0
 10
186.602
 20
-182.225
 11
186.883
 21
-182.408
  0
LINE
  8
0
 10
186.883
 20
-182.408
 11
187.144
 21
-182.619
  0
LINE
  8
0
 10
187.144
 20
-182.619
 11
187.381
 21
-182.856
  0
LINE
  8
0
 10
187.381
 20
-182.856
 11
187.592
 21
-183.117
  0
LINE
  8
0
 10
187.592
 20
-183.117
 11
187.775
 21
-183.398
  0
LINE
  8
0
 10
187.775
 20
-183.398
 11
187.927
 21
-183.697
  0
LINE
  8
0
 10
187.927
 20
-183.697
 11
188.048
 21
-184.01
  0
LINE
  8
0
 10
188.048
 20
-184.01
 11
188.134
 21
-184.334
  0
LINE
  8
0
 10
188.134
 20
-184.334
 11
188.187
 21
-184.665
  0
LINE
  8
0
 10
188.187
 20
-184.665
 11
188.204
 21
-185
  0
LINE
  8
0
 10
188.204
 20
-185
 11
188.187
 21
-185.335
  0
LINE
  8
0
 10
188.187
 20
-185.335
 11
188.134
 21
-185.666
  0
LINE
  8
0
 10
188.134
 20
-185.666
 11
188.048
 21
-185.99
  0
LINE
  8
0
 10
188.048
 20
-185.99
 11
187.927
 21
-186.303
  0
LINE
  8
0
 10
187.927
 20
-186.303
 11
187.775
 21
-186.602
  0
LINE
  8
0
 10
187.775
 20
-186.602
 11
187.592
 21
-186.883
  0
LINE
  8
0
 10
187.592
 20
-186.883
 11
187.381
 21
-187.144
  0
LINE
  8
0
 10
187.381
 20
-187.144
 11
187.144
 21
-187.381
  0
LINE
  8
0
 10
187.144
 20
-187.381
 11
186.883
 21
-187.592
  0
LINE
  8
0
 10
186.883
 20
-187.592
 11
186.602
 21
-187.775
  0
LINE
  8
0
 10
186.602
 20
-187.775
 11
186.303
 21
-187.927
  0
LINE
  8
0
 10
186.303
 20
-187.927
 11
185.99
 21
-188.048
  0
LINE
  8
0
 10
185.99
 20
-188.048
 11
185.666
 21
-188.134
  0
LINE
  8
0
 10
185.666
 20
-188.134
 11
185.335
 21
-188.187
  0
LINE
  8
0
 10
185.335
 20
-188.187
 11
185
 21
-188.204
  0
LINE
  8
0
 10
185
 20
-188.204
 11
184.665
 21
-188.187
  0
LINE
  8
0
 10
-185.335
 20
-188.187
 11
-185.666
 21
-188.134
  0
LINE
  8
0
 10
-185.666
 20
-188.134
 11
-185.99
 21
-188.048
  0
LINE
  8
0
 10
-185.99
 20
-188.048
 11
-186.303
 21
-187.927
  0
LINE
  8
0
 10
-186.303
 20
-187.927
 11
-186.602
 21
-187.775
  0
LINE
  8
0
 10
-186.602
 20
-187.775
 11
-186.883
 21
-187.592
  0
LINE
  8
0
 10
-186.883
 20
-187.592
 11
-187.144
 21
-187.381
  0
LINE
  8
0
 10
-187.144
 20
-187.381
 11
-187.381
 21
-187.144
  0
LINE
  8
0
 10
-187.381
 20
-187.144
 11
-187.592
 21
-186.883
  0
LINE
  8
0
 10
-187.592
 20
-186.883
 11
-187.775
 21
-186.602
  0
LINE
  8
0
 10
-187.775
 20
-186.602
 11
-187.927
 21
-186.303
  0
LINE
  8
0
 10
-187.927
 20
-186.303
 11
-188.048
 21
-185.99
  0
LINE
  8
0
 10
-188.048
 20
-185.99
 11
-188.134
 21
-185.666
  0
LINE
  8
0
 10
-188.134
 20
-185.666
 11
-188.187
 21
-185.335
  0
LINE
  8
0
 10
-188.187
 20
-185.335
 11
-188.204
 21
-185
  0
LINE
  8
0
 10
-188.204
 20
-185
 11
-188.187
 21
-184.665
  0
LINE
  8
0
 10
-188.187
 20
-184.665
 11
-188.134
 21
-184.334
  0
LINE
  8
0
 10
-188.134
 20
-184.334
 11
-188.048
 21
-184.01
  0
LINE
  8
0
 10
-188.048
 20
-184.01
 11
-187.927
 21
-183.697
  0
LINE
  8
0
 10
-187.927
 20
-183.697
 11
-187.775
 21
-183.398
  0
LINE
  8
0
 10
-187.775
 20
-183.398
 11
-187.592
 21
-183.117
  0
LINE
  8
0
 10
-187.592
 20
-183.117
 11
-187.381
 21
-182.856
  0
LINE
  8
0
 10
-187.381
 20
-182.856
 11
-187.144
 21
-182.619
  0
LINE
  8
0
 10
-187.144
 20
-182.619
 11
-186.883
 21
-182.408
  0
LINE
  8
0
 10
-186.883
 20
-182.408
 11
-186.602
 21
-182.225
  0
LINE
  8
0
 10
-186.602
 20
-182.225
 11
-186.303
 21
-182.073
  0
LINE
  8
0
 10
-186.303
 20
-182.073
 11
-185.99
 21
-181.952
  0
LINE
  8
0
 10
-185.99
 20
-181.952
 11
-185.666
 21
-181.866
  0
LINE
  8
0
 10
-185.666
 20
-181.866
 11
-185.335
 21
-181.813
  0
LINE
  8
0
 10
-185.335
 20
-181.813
 11
-185
 21
-181.796
  0
LINE
  8
0
 10
-185
 20
-181.796
 11
-184.665
 21
-181.813
  0
LINE
  8
0
 10
-184.665
 20
-181.813
 11
-184.334
 21
-181.866
  0
LINE
  8
0
 10
-184.334
 20
-181.866
 11
-184.01
 21
-181.952
  0
LINE
  8
0
 10
-184.01
 20
-181.952
 11
-183.697
 21
-182.073
  0
LINE
  8
0
 10
-183.697
 20
-182.073
 11
-183.398
 21
-182.225
  0
LINE
  8
0
 10
-183.398
 20
-182.225
 11
-183.117
 21
-182.408
  0
LINE
  8
0
 10
-183.117
 20
-182.408
 11
-182.856
 21
-182.619
  0
LINE
  8
0
 10
-182.856
 20
-182.619
 11
-182.619
 21
-182.856
  0
LINE
  8
0
 10
-182.619
 20
-182.856
 11
-182.408
 21
-183.117
  0
LINE
  8
0
 10
-182.408
 20
-183.117
 11
-182.225
 21
-183.398
  0
LINE
  8
0
 10
-182.225
 20
-183.398
 11
-182.073
 21
-183.697
  0
LINE
  8
0
 10
-182.073
 20
-183.697
 11
-181.952
 21
-184.01
  0
LINE
  8
0
 10
-181.952
 20
-184.01
 11
-181.866
 21
-184.334
  0
LINE
  8
0
 10
-181.866
 20
-184.334
 11
-181.813
 21
-184.665
  0
LINE
  8
0
 10
-181.813
 20
-184.665
 11
-181.796
 21
-185
  0
LINE
  8
0
 10
-181.796
 20
-185
 11
-181.813
 21
-185.335
  0
LINE
  8
0
 10
-181.813
 20
-185.335
 11
-181.866
 21
-185.666
  0
LINE
  8
0
 10
-181.866
 20
-185.666
 11
-181.952
 21
-185.99
  0
LINE
  8
0
 10
-181.952
 20
-185.99
 11
-182.073
 21
-186.303
  0
LINE
  8
0
 10
-182.073
 20
-186.303
 11
-182.225
 21
-186.602
  0
LINE
  8
0
 10
-182.225
 20
-186.602
 11
-182.408
 21
-186.883
  0
LINE
  8
0
 10
-182.408
 20
-186.883
 11
-182.619
 21
-187.144
  0
LINE
  8
0
 10
-182.619
 20
-187.144
 11
-182.856
 21
-187.381
  0
LINE
  8
0
 10
-182.856
 20
-187.381
 11
-183.117
 21
-187.592
  0
LINE
  8
0
 10
-183.117
 20
-187.592
 11
-183.398
 21
-187.775
  0
LINE
  8
0
 10
-183.398
 20
-187.775
 11
-183.697
 21
-187.927
  0
LINE
  8
0
 10
-183.697
 20
-187.927
 11
-184.01
 21
-188.048
  0
LINE
  8
0
 10
-184.01
 20
-188.048
 11
-184.334
 21
-188.134
  0
LINE
  8
0
 10
-184.334
 20
-188.134
 11
-184.665
 21
-188.187
  0
LINE
  8
0
 10
-184.665
 20
-188.187
 11
-185
 21
-188.204
  0
LINE
  8
0
 10
-185
 20
-188.204
 11
-185.335
 21
-188.187
  0
LINE
  8
0
 10
159.753
 20
-187.19
 11
159.51
 21
-187.148
  0
LINE
  8
0
 10
159.51
 20
-187.148
 11
159.272
 21
-187.08
  0
LINE
  8
0
 10
159.272
 20
-187.08
 11
159.044
 21
-186.985
  0
LINE
  8
0
 10
159.044
 20
-186.985
 11
158.828
 21
-186.866
  0
LINE
  8
0
 10
158.828
 20
-186.866
 11
158.626
 21
-186.723
  0
LINE
  8
0
 10
158.626
 20
-186.723
 11
158.442
 21
-186.558
  0
LINE
  8
0
 10
158.442
 20
-186.558
 11
158.277
 21
-186.374
  0
LINE
  8
0
 10
158.277
 20
-186.374
 11
158.134
 21
-186.172
  0
LINE
  8
0
 10
158.134
 20
-186.172
 11
158.015
 21
-185.956
  0
LINE
  8
0
 10
158.015
 20
-185.956
 11
157.92
 21
-185.728
  0
LINE
  8
0
 10
157.92
 20
-185.728
 11
157.852
 21
-185.49
  0
LINE
  8
0
 10
157.852
 20
-185.49
 11
157.81
 21
-185.247
  0
LINE
  8
0
 10
157.81
 20
-185.247
 11
157.797
 21
-185
  0
LINE
  8
0
 10
157.797
 20
-185
 11
157.81
 21
-184.753
  0
LINE
  8
0
 10
157.81
 20
-184.753
 11
157.852
 21
-184.51
  0
LINE
  8
0
 10
157.852
 20
-184.51
 11
157.92
 21
-184.272
  0
LINE
  8
0
 10
157.92
 20
-184.272
 11
158.015
 21
-184.044
  0
LINE
  8
0
 10
158.015
 20
-184.044
 11
158.134
 21
-183.828
  0
LINE
  8
0
 10
158.134
 20
-183.828
 11
158.277
 21
-183.626
  0
LINE
  8
0
 10
158.277
 20
-183.626
 11
158.442
 21
-183.442
  0
LINE
  8
0
 10
158.442
 20
-183.442
 11
158.626
 21
-183.277
  0
LINE
  8
0
 10
158.626
 20
-183.277
 11
158.828
 21
-183.134
  0
LINE
  8
0
 10
158.828
 20
-183.134
 11
159.044
 21
-183.015
  0
LINE
  8
0
 10
159.044
 20
-183.015
 11
159.272
 21
-182.92
  0
LINE
  8
0
 10
159.272
 20
-182.92
 11
159.51
 21
-182.852
  0
LINE
  8
0
 10
159.51
 20
-182.852
 11
159.753
 21
-182.81
  0
LINE
  8
0
 10
159.753
 20
-182.81
 11
160
 21
-182.797
  0
LINE
  8
0
 10
160
 20
-182.797
 11
160.247
 21
-182.81
  0
LINE
  8
0
 10
160.247
 20
-182.81
 11
160.49
 21
-182.852
  0
LINE
  8
0
 10
160.49
 20
-182.852
 11
160.728
 21
-182.92
  0
LINE
  8
0
 10
160.728
 20
-182.92
 11
160.956
 21
-183.015
  0
LINE
  8
0
 10
160.956
 20
-183.015
 11
161.172
 21
-183.134
  0
LINE
  8
0
 10
161.172
 20
-183.134
 11
161.374
 21
-183.277
  0
LINE
  8
0
 10
161.374
 20
-183.277
 11
161.558
 21
-183.442
  0
LINE
  8
0
 10
161.558
 20
-183.442
 11
161.723
 21
-183.626
  0
LINE
  8
0
 10
161.723
 20
-183.626
 11
161.866
 21
-183.828
  0
LINE
  8
0
 10
161.866
 20
-183.828
 11
161.985
 21
-184.044
  0
LINE
  8
0
 10
161.985
 20
-184.044
 11
162.08
 21
-184.272
  0
LINE
  8
0
 10
162.08
 20
-184.272
 11
162.148
 21
-184.51
  0
LINE
  8
0
 10
162.148
 20
-184.51
 11
162.19
 21
-184.753
  0
LINE
  8
0
 10
162.19
 20
-184.753
 11
162.203
 21
-185
  0
LINE
  8
0
 10
162.203
 20
-185
 11
162.19
 21
-185.247
  0
LINE
  8
0
 10
162.19
 20
-185.247
 11
162.148
 21
-185.49
  0
LINE
  8
0
 10
162.148
 20
-185.49
 11
162.08
 21
-185.728
  0
LINE
  8
0
 10
162.08
 20
-185.728
 11
161.985
 21
-185.956
  0
LINE
  8
0
 10
161.985
 20
-185.956
 11
161.866
 21
-186.172
  0
LINE
  8
0
 10
161.866
 20
-186.172
 11
161.723
 21
-186.374
  0
LINE
  8
0
 10
161.723
 20
-186.374
 11
161.558
 21
-186.558
  0
LINE
  8
0
 10
161.558
 20
-186.558
 11
161.374
 21
-186.723
  0
LINE
  8
0
 10
161.374
 20
-186.723
 11
161.172
 21
-186.866
  0
LINE
  8
0
 10
161.172
 20
-186.866
 11
160.956
 21
-186.985
  0
LINE
  8
0
 10
160.956
 20
-186.985
 11
160.728
 21
-187.08
  0
LINE
  8
0
 10
160.728
 20
-187.08
 11
160.49
 21
-187.148
  0
LINE
  8
0
 10
160.49
 20
-187.148
 11
160.247
 21
-187.19
  0
LINE
  8
0
 10
160.247
 20
-187.19
 11
160
 21
-187.203
  0
LINE
  8
0
 10
160
 20
-187.203
 11
159.753
 21
-187.19
  0
LINE
  8
0
 10
-160.247
 20
-187.19
 11
-160.49
 21
-187.148
  0
LINE
  8
0
 10
-160.49
 20
-187.148
 11
-160.728
 21
-187.08
  0
LINE
  8
0
 10
-160.728
 20
-187.08
 11
-160.956
 21
-186.985
  0
LINE
  8
0
 10
-160.956
 20
-186.985
 11
-161.172
 21
-186.866
  0
LINE
  8
0
 10
-161.172
 20
-186.866
 11
-161.374
 21
-186.723
  0
LINE
  8
0
 10
-161.374
 20
-186.723
 11
-161.558
 21
-186.558
  0
LINE
  8
0
 10
-161.558
 20
-186.558
 11
-161.723
 21
-186.374
  0
LINE
  8
0
 10
-161.723
 20
-186.374
 11
-161.866
 21
-186.172
  0
LINE
  8
0
 10
-161.866
 20
-186.172
 11
-161.985
 21
-185.956
  0
LINE
  8
0
 10
-161.985
 20
-185.956
 11
-162.08
 21
-185.728
  0
LINE
  8
0
 10
-162.08
 20
-185.728
 11
-162.148
 21
-185.49
  0
LINE
  8
0
 10
-162.148
 20
-185.49
 11
-162.19
 21
-185.247
  0
LINE
  8
0
 10
-162.19
 20
-185.247
 11
-162.203
 21
-185
  0
LINE
  8
0
 10
-162.203
 20
-185
 11
-162.19
 21
-184.753
  0
LINE
  8
0
 10
-162.19
 20
-184.753
 11
-162.148
 21
-184.51
  0
LINE
  8
0
 10
-162.148
 20
-184.51
 11
-162.08
 21
-184.272
  0
LINE
  8
0
 10
-162.08
 20
-184.272
 11
-161.985
 21
-184.044
  0
LINE
  8
0
 10
-161.985
 20
-184.044
 11
-161.866
 21
-183.828
  0
LINE
  8
0
 10
-161.866
 20
-183.828
 11
-161.723
 21
-183.626
  0
LINE
  8
0
 10
-161.723
 20
-183.626
 11
-161.558
 21
-183.442
  0
LINE
  8
0
 10
-161.558
 20
-183.442
 11
-161.374
 21
-183.277
  0
LINE
  8
0
 10
-161.374
 20
-183.277
 11
-161.172
 21
-183.134
  0
LINE
  8
0
 10
-161.172
 20
-183.134
 11
-160.956
 21
-183.015
  0
LINE
  8
0
 10
-160.956
 20
-183.015
 11
-160.728
 21
-182.92
  0
LINE
  8
0
 10
-160.728
 20
-182.92
 11
-160.49
 21
-182.852
  0
LINE
  8
0
 10
-160.49
 20
-182.852
 11
-160.247
 21
-182.81
  0
LINE
  8
0
 10
-160.247
 20
-182.81
 11
-160
 21
-182.797
  0
LINE
  8
0
 10
-160
 20
-182.797
 11
-159.753
 21
-182.81
  0
LINE
  8
0
 10
-159.753
 20
-182.81
 11
-159.51
 21
-182.852
  0
LINE
  8
0
 10
-159.51
 20
-182.852
 11
-159.272
 21
-182.92
  0
LINE
  8
0
 10
-159.272
 20
-182.92
 11
-159.044
 21
-183.015
  0
LINE
  8
0
 10
-159.044
 20
-183.015
 11
-158.828
 21
-183.134
  0
LINE
  8
0
 10
-158.828
 20
-183.134
 11
-158.626
 21
-183.277
  0
LINE
  8
0
 10
-158.626
 20
-183.277
 11
-158.442
 21
-183.442
  0
LINE
  8
0
 10
-158.442
 20
-183.442
 11
-158.277
 21
-183.626
  0
LINE
  8
0
 10
-158.277
 20
-183.626
 11
-158.134
 21
-183.828
  0
LINE
  8
0
 10
-158.134
 20
-183.828
 11
-158.015
 21
-184.044
  0
LINE
  8
0
 10
-158.015
 20
-184.044
 11
-157.92
 21
-184.272
  0
LINE
  8
0
 10
-157.92
 20
-184.272
 11
-157.852
 21
-184.51
  0
LINE
  8
0
 10
-157.852
 20
-184.51
 11
-157.81
 21
-184.753
  0
LINE
  8
0
 10
-157.81
 20
-184.753
 11
-157.797
 21
-185
  0
LINE
  8
0
 10
-157.797
 20
-185
 11
-157.81
 21
-185.247
  0
LINE
  8
0
 10
-157.81
 20
-185.247
 11
-157.852
 21
-185.49
  0
LINE
  8
0
 10
-157.852
 20
-185.49
 11
-157.92
 21
-185.728
  0
LINE
  8
0
 10
-157.92
 20
-185.728
 11
-158.015
 21
-185.956
  0
LINE
  8
0
 10
-158.015
 20
-185.956
 11
-158.134
 21
-186.172
  0
LINE
  8
0
 10
-158.134
 20
-186.172
 11
-158.277
 21
-186.374
  0
LINE
  8
0
 10
-158.277
 20
-186.374
 11
-158.442
 21
-186.558
  0
LINE
  8
0
 10
-158.442
 20
-186.558
 11
-158.626
 21
-186.723
  0
LINE
  8
0
 10
-158.626
 20
-186.723
 11
-158.828
 21
-186.866
  0
LINE
  8
0
 10
-158.828
 20
-186.866
 11
-159.044
 21
-186.985
  0
LINE
  8
0
 10
-159.044
 20
-186.985
 11
-159.272
 21
-187.08
  0
LINE
  8
0
 10
-159.272
 20
-187.08
 11
-159.51
 21
-187.148
  0
LINE
  8
0
 10
-159.51
 20
-187.148
 11
-159.753
 21
-187.19
  0
LINE
  8
0
 10
-159.753
 20
-187.19
 11
-160
 21
-187.203
  0
LINE
  8
0
 10
-160
 20
-187.203
 11
-160.247
 21
-187.19
  0
LINE
  8
0
 10
53.0866
 20
-187.19
 11
52.843
 21
-187.148
  0
LINE
  8
0
 10
52.843
 20
-187.148
 11
52.6056
 21
-187.08
  0
LINE
  8
0
 10
52.6056
 20
-187.08
 11
52.3773
 21
-186.985
  0
LINE
  8
0
 10
52.3773
 20
-186.985
 11
52.161
 21
-186.866
  0
LINE
  8
0
 10
52.161
 20
-186.866
 11
51.9595
 21
-186.723
  0
LINE
  8
0
 10
51.9595
 20
-186.723
 11
51.7752
 21
-186.558
  0
LINE
  8
0
 10
51.7752
 20
-186.558
 11
51.6106
 21
-186.374
  0
LINE
  8
0
 10
51.6106
 20
-186.374
 11
51.4676
 21
-186.172
  0
LINE
  8
0
 10
51.4676
 20
-186.172
 11
51.3481
 21
-185.956
  0
LINE
  8
0
 10
51.3481
 20
-185.956
 11
51.2535
 21
-185.728
  0
LINE
  8
0
 10
51.2535
 20
-185.728
 11
51.1851
 21
-185.49
  0
LINE
  8
0
 10
51.1851
 20
-185.49
 11
51.1437
 21
-185.247
  0
LINE
  8
0
 10
51.1437
 20
-185.247
 11
51.1299
 21
-185
  0
LINE
  8
0
 10
51.1299
 20
-185
 11
51.1437
 21
-184.753
  0
LINE
  8
0
 10
51.1437
 20
-184.753
 11
51.1851
 21
-184.51
  0
LINE
  8
0
 10
51.1851
 20
-184.51
 11
51.2535
 21
-184.272
  0
LINE
  8
0
 10
51.2535
 20
-184.272
 11
51.3481
 21
-184.044
  0
LINE
  8
0
 10
51.3481
 20
-184.044
 11
51.4676
 21
-183.828
  0
LINE
  8
0
 10
51.4676
 20
-183.828
 11
51.6106
 21
-183.626
  0
LINE
  8
0
 10
51.6106
 20
-183.626
 11
51.7752
 21
-183.442
  0
LINE
  8
0
 10
51.7752
 20
-183.442
 11
51.9595
 21
-183.277
  0
LINE
  8
0
 10
51.9595
 20
-183.277
 11
52.161
 21
-183.134
  0
LINE
  8
0
 10
52.161
 20
-183.134
 11
52.3773
 21
-183.015
  0
LINE
  8
0
 10
52.3773
 20
-183.015
 11
52.6056
 21
-182.92
  0
LINE
  8
0
 10
52.6056
 20
-182.92
 11
52.843
 21
-182.852
  0
LINE
  8
0
 10
52.843
 20
-182.852
 11
53.0866
 21
-182.81
  0
LINE
  8
0
 10
53.0866
 20
-182.81
 11
53.3333
 21
-182.797
  0
LINE
  8
0
 10
53.3333
 20
-182.797
 11
53.58
 21
-182.81
  0
LINE
  8
0
 10
53.58
 20
-182.81
 11
53.8236
 21
-182.852
  0
LINE
  8
0
 10
53.8236
 20
-182.852
 11
54.0611
 21
-182.92
  0
LINE
  8
0
 10
54.0611
 20
-182.92
 11
54.2894
 21
-183.015
  0
LINE
  8
0
 10
54.2894
 20
-183.015
 11
54.5056
 21
-183.134
  0
LINE
  8
0
 10
54.5056
 20
-183.134
 11
54.7072
 21
-183.277
  0
LINE
  8
0
 10
54.7072
 20
-183.277
 11
54.8914
 21
-183.442
  0
LINE
  8
0
 10
54.8914
 20
-183.442
 11
55.0561
 21
-183.626
  0
LINE
  8
0
 10
55.0561
 20
-183.626
 11
55.1991
 21
-183.828
  0
LINE
  8
0
 10
55.1991
 20
-183.828
 11
55.3186
 21
-184.044
  0
LINE
  8
0
 10
55.3186
 20
-184.044
 11
55.4131
 21
-184.272
  0
LINE
  8
0
 10
55.4131
 20
-184.272
 11
55.4816
 21
-184.51
  0
LINE
  8
0
 10
55.4816
 20
-184.51
 11
55.5229
 21
-184.753
  0
LINE
  8
0
 10
55.5229
 20
-184.753
 11
55.5368
 21
-185
  0
LINE
  8
0
 10
55.5368
 20
-185
 11
55.5229
 21
-185.247
  0
LINE
  8
0
 10
55.5229
 20
-185.247
 11
55.4816
 21
-185.49
  0
LINE
  8
0
 10
55.4816
 20
-185.49
 11
55.4131
 21
-185.728
  0
LINE
  8
0
 10
55.4131
 20
-185.728
 11
55.3186
 21
-185.956
  0
LINE
  8
0
 10
55.3186
 20
-185.956
 11
55.1991
 21
-186.172
  0
LINE
  8
0
 10
55.1991
 20
-186.172
 11
55.0561
 21
-186.374
  0
LINE
  8
0
 10
55.0561
 20
-186.374
 11
54.8914
 21
-186.558
  0
LINE
  8
0
 10
54.8914
 20
-186.558
 11
54.7072
 21
-186.723
  0
LINE
  8
0
 10
54.7072
 20
-186.723
 11
54.5056
 21
-186.866
  0
LINE
  8
0
 10
54.5056
 20
-186.866
 11
54.2894
 21
-186.985
  0
LINE
  8
0
 10
54.2894
 20
-186.985
 11
54.0611
 21
-187.08
  0
LINE
  8
0
 10
54.0611
 20
-187.08
 11
53.8236
 21
-187.148
  0
LINE
  8
0
 10
53.8236
 20
-187.148
 11
53.58
 21
-187.19
  0
LINE
  8
0
 10
53.58
 20
-187.19
 11
53.3333
 21
-187.203
  0
LINE
  8
0
 10
53.3333
 20
-187.203
 11
53.0866
 21
-187.19
  0
LINE
  8
0
 10
-53.58
 20
-187.19
 11
-53.8237
 21
-187.148
  0
LINE
  8
0
 10
-53.8237
 20
-187.148
 11
-54.0611
 21
-187.08
  0
LINE
  8
0
 10
-54.0611
 20
-187.08
 11
-54.2894
 21
-186.985
  0
LINE
  8
0
 10
-54.2894
 20
-186.985
 11
-54.5057
 21
-186.866
  0
LINE
  8
0
 10
-54.5057
 20
-186.866
 11
-54.7072
 21
-186.723
  0
LINE
  8
0
 10
-54.7072
 20
-186.723
 11
-54.8914
 21
-186.558
  0
LINE
  8
0
 10
-54.8914
 20
-186.558
 11
-55.0561
 21
-186.374
  0
LINE
  8
0
 10
-55.0561
 20
-186.374
 11
-55.1991
 21
-186.172
  0
LINE
  8
0
 10
-55.1991
 20
-186.172
 11
-55.3186
 21
-185.956
  0
LINE
  8
0
 10
-55.3186
 20
-185.956
 11
-55.4132
 21
-185.728
  0
LINE
  8
0
 10
-55.4132
 20
-185.728
 11
-55.4816
 21
-185.49
  0
LINE
  8
0
 10
-55.4816
 20
-185.49
 11
-55.5229
 21
-185.247
  0
LINE
  8
0
 10
-55.5229
 20
-185.247
 11
-55.5368
 21
-185
  0
LINE
  8
0
 10
-55.5368
 20
-185
 11
-55.5229
 21
-184.753
  0
LINE
  8
0
 10
-55.5229
 20
-184.753
 11
-55.4816
 21
-184.51
  0
LINE
  8
0
 10
-55.4816
 20
-184.51
 11
-55.4132
 21
-184.272
  0
LINE
  8
0
 10
-55.4132
 20
-184.272
 11
-55.3186
 21
-184.044
  0
LINE
  8
0
 10
-55.3186
 20
-184.044
 11
-55.1991
 21
-183.828
  0
LINE
  8
0
 10
-55.1991
 20
-183.828
 11
-55.0561
 21
-183.626
  0
LINE
  8
0
 10
-55.0561
 20
-183.626
 11
-54.8914
 21
-183.442
  0
LINE
  8
0
 10
-54.8914
 20
-183.442
 11
-54.7072
 21
-183.277
  0
LINE
  8
0
 10
-54.7072
 20
-183.277
 11
-54.5057
 21
-183.134
  0
LINE
  8
0
 10
-54.5057
 20
-183.134
 11
-54.2894
 21
-183.015
  0
LINE
  8
0
 10
-54.2894
 20
-183.015
 11
-54.0611
 21
-182.92
  0
LINE
  8
0
 10
-54.0611
 20
-182.92
 11
-53.8237
 21
-182.852
  0
LINE
  8
0
 10
-53.8237
 20
-182.852
 11
-53.58
 21
-182.81
  0
LINE
  8
0
 10
-53.58
 20
-182.81
 11
-53.3333
 21
-182.797
  0
LINE
  8
0
 10
-53.3333
 20
-182.797
 11
-53.0866
 21
-182.81
  0
LINE
  8
0
 10
-53.0866
 20
-182.81
 11
-52.843
 21
-182.852
  0
LINE
  8
0
 10
-52.843
 20
-182.852
 11
-52.6056
 21
-182.92
  0
LINE
  8
0
 10
-52.6056
 20
-182.92
 11
-52.3773
 21
-183.015
  0
LINE
  8
0
 10
-52.3773
 20
-183.015
 11
-52.161
 21
-183.134
  0
LINE
  8
0
 10
-52.161
 20
-183.134
 11
-51.9595
 21
-183.277
  0
LINE
  8
0
 10
-51.9595
 20
-183.277
 11
-51.7753
 21
-183.442
  0
LINE
  8
0
 10
-51.7753
 20
-183.442
 11
-51.6106
 21
-183.626
  0
LINE
  8
0
 10
-51.6106
 20
-183.626
 11
-51.4676
 21
-183.828
  0
LINE
  8
0
 10
-51.4676
 20
-183.828
 11
-51.3481
 21
-184.044
  0
LINE
  8
0
 10
-51.3481
 20
-184.044
 11
-51.2535
 21
-184.272
  0
LINE
  8
0
 10
-51.2535
 20
-184.272
 11
-51.1851
 21
-184.51
  0
LINE
  8
0
 10
-51.1851
 20
-184.51
 11
-51.1437
 21
-184.753
  0
LINE
  8
0
 10
-51.1437
 20
-184.753
 11
-51.1299
 21
-185
  0
LINE
  8
0
 10
-51.1299
 20
-185
 11
-51.1437
 21
-185.247
  0
LINE
  8
0
 10
-51.1437
 20
-185.247
 11
-51.1851
 21
-185.49
  0
LINE
  8
0
 10
-51.1851
 20
-185.49
 11
-51.2535
 21
-185.728
  0
LINE
  8
0
 10
-51.2535
 20
-185.728
 11
-51.3481
 21
-185.956
  0
LINE
  8
0
 10
-51.3481
 20
-185.956
 11
-51.4676
 21
-186.172
  0
LINE
  8
0
 10
-51.4676
 20
-186.172
 11
-51.6106
 21
-186.374
  0
LINE
  8
0
 10
-51.6106
 20
-186.374
 11
-51.7753
 21
-186.558
  0
LINE
  8
0
 10
-51.7753
 20
-186.558
 11
-51.9595
 21
-186.723
  0
LINE
  8
0
 10
-51.9595
 20
-186.723
 11
-52.161
 21
-186.866
  0
LINE
  8
0
 10
-52.161
 20
-186.866
 11
-52.3773
 21
-186.985
  0
LINE
  8
0
 10
-52.3773
 20
-186.985
 11
-52.6056
 21
-187.08
  0
LINE
  8
0
 10
-52.6056
 20
-187.08
 11
-52.843
 21
-187.148
  0
LINE
  8
0
 10
-52.843
 20
-187.148
 11
-53.0866
 21
-187.19
  0
LINE
  8
0
 10
-53.0866
 20
-187.19
 11
-53.3333
 21
-187.203
  0
LINE
  8
0
 10
-53.3333
 20
-187.203
 11
-53.58
 21
-187.19
  0
ENDSEC
  0
SECTION
  2
OBJECTS
  0
DICTIONARY
  0
ENDSEC
  0
EOF
