  0
SECTION
  2
BLOCKS
  0
ENDSEC
  0
SECTION
  2
ENTITIES
  0
LINE
  8
0
 10
129.223
 20
-184.975
 11
129.434
 21
-184.901
  0
LINE
  8
0
 10
129.434
 20
-184.901
 11
129.623
 21
-184.782
  0
LINE
  8
0
 10
129.623
 20
-184.782
 11
129.782
 21
-184.623
  0
LINE
  8
0
 10
129.782
 20
-184.623
 11
129.901
 21
-184.434
  0
LINE
  8
0
 10
129.901
 20
-184.434
 11
129.975
 21
-184.223
  0
LINE
  8
0
 10
129.975
 20
-184.223
 11
130
 21
-184
  0
LINE
  8
0
 10
130
 20
-184
 11
130
 21
184
  0
LINE
  8
0
 10
130
 20
184
 11
129.975
 21
184.223
  0
LINE
  8
0
 10
129.975
 20
184.223
 11
129.901
 21
184.434
  0
LINE
  8
0
 10
129.901
 20
184.434
 11
129.782
 21
184.623
  0
LINE
  8
0
 10
129.782
 20
184.623
 11
129.623
 21
184.782
  0
LINE
  8
0
 10
129.623
 20
184.782
 11
129.434
 21
184.901
  0
LINE
  8
0
 10
129.434
 20
184.901
 11
129.223
 21
184.975
  0
LINE
  8
0
 10
129.223
 20
184.975
 11
129
 21
185
  0
LINE
  8
0
 10
129
 20
185
 11
-129
 21
185
  0
LINE
  8
0
 10
-129
 20
185
 11
-129.223
 21
184.975
  0
LINE
  8
0
 10
-129.223
 20
184.975
 11
-129.434
 21
184.901
  0
LINE
  8
0
 10
-129.434
 20
184.901
 11
-129.623
 21
184.782
  0
LINE
  8
0
 10
-129.623
 20
184.782
 11
-129.782
 21
184.623
  0
LINE
  8
0
 10
-129.782
 20
184.623
 11
-129.901
 21
184.434
  0
LINE
  8
0
 10
-129.901
 20
184.434
 11
-129.975
 21
184.223
  0
LINE
  8
0
 10
-129.975
 20
184.223
 11
-130
 21
184
  0
LINE
  8
0
 10
-130
 20
184
 11
-130
 21
-184
  0
LINE
  8
0
 10
-130
 20
-184
 11
-129.975
 21
-184.223
  0
LINE
  8
0
 10
-129.975
 20
-184.223
 11
-129.901
 21
-184.434
  0
LINE
  8
0
 10
-129.901
 20
-184.434
 11
-129.782
 21
-184.623
  0
LINE
  8
0
 10
-129.782
 20
-184.623
 11
-129.623
 21
-184.782
  0
LINE
  8
0
 10
-129.623
 20
-184.782
 11
-129.434
 21
-184.901
  0
LINE
  8
0
 10
-129.434
 20
-184.901
 11
-129.223
 21
-184.975
  0
LINE
  8
0
 10
-129.223
 20
-184.975
 11
-129
 21
-185
  0
LINE
  8
0
 10
-129
 20
-185
 11
129
 21
-185
  0
LINE
  8
0
 10
129
 20
-185
 11
129.223
 21
-184.975
  0
LINE
  8
0
 10
-120.123
 20
173.355
 11
-120.367
 21
173.391
  0
LINE
  8
0
 10
-120.367
 20
173.391
 11
-120.603
 21
173.464
  0
LINE
  8
0
 10
-120.603
 20
173.464
 11
-120.825
 21
173.571
  0
LINE
  8
0
 10
-120.825
 20
173.571
 11
-121.029
 21
173.71
  0
LINE
  8
0
 10
-121.029
 20
173.71
 11
-121.21
 21
173.878
  0
LINE
  8
0
 10
-121.21
 20
173.878
 11
-121.363
 21
174.071
  0
LINE
  8
0
 10
-121.363
 20
174.071
 11
-121.487
 21
174.284
  0
LINE
  8
0
 10
-121.487
 20
174.284
 11
-121.577
 21
174.514
  0
LINE
  8
0
 10
-121.577
 20
174.514
 11
-121.632
 21
174.754
  0
LINE
  8
0
 10
-121.632
 20
174.754
 11
-121.65
 21
175
  0
LINE
  8
0
 10
-121.65
 20
175
 11
-121.632
 21
175.246
  0
LINE
  8
0
 10
-121.632
 20
175.246
 11
-121.577
 21
175.486
  0
LINE
  8
0
 10
-121.577
 20
175.486
 11
-121.487
 21
175.716
  0
LINE
  8
0
 10
-121.487
 20
175.716
 11
-121.363
 21
175.929
  0
LINE
  8
0
 10
-121.363
 20
175.929
 11
-121.21
 21
176.122
  0
LINE
  8
0
 10
-121.21
 20
176.122
 11
-121.029
 21
176.29
  0
LINE
  8
0
 10
-121.029
 20
176.29
 11
-120.825
 21
176.429
  0
LINE
  8
0
 10
-120.825
 20
176.429
 11
-120.603
 21
176.536
  0
LINE
  8
0
 10
-120.603
 20
176.536
 11
-120.367
 21
176.609
  0
LINE
  8
0
 10
-120.367
 20
176.609
 11
-120.123
 21
176.645
  0
LINE
  8
0
 10
-120.123
 20
176.645
 11
-119.877
 21
176.645
  0
LINE
  8
0
 10
-119.877
 20
176.645
 11
-119.633
 21
176.609
  0
LINE
  8
0
 10
-119.633
 20
176.609
 11
-119.397
 21
176.536
  0
LINE
  8
0
 10
-119.397
 20
176.536
 11
-119.175
 21
176.429
  0
LINE
  8
0
 10
-119.175
 20
176.429
 11
-118.971
 21
176.29
  0
LINE
  8
0
 10
-118.971
 20
176.29
 11
-118.79
 21
176.122
  0
LINE
  8
0
 10
-118.79
 20
176.122
 11
-118.637
 21
175.929
  0
LINE
  8
0
 10
-118.637
 20
175.929
 11
-118.513
 21
175.716
  0
LINE
  8
0
 10
-118.513
 20
175.716
 11
-118.423
 21
175.486
  0
LINE
  8
0
 10
-118.423
 20
175.486
 11
-118.368
 21
175.246
  0
LINE
  8
0
 10
-118.368
 20
175.246
 11
-118.35
 21
175
  0
LINE
  8
0
 10
-118.35
 20
175
 11
-118.368
 21
174.754
  0
LINE
  8
0
 10
-118.368
 20
174.754
 11
-118.423
 21
174.514
  0
LINE
  8
0
 10
-118.423
 20
174.514
 11
-118.513
 21
174.284
  0
LINE
  8
0
 10
-118.513
 20
174.284
 11
-118.637
 21
174.071
  0
LINE
  8
0
 10
-118.637
 20
174.071
 11
-118.79
 21
173.878
  0
LINE
  8
0
 10
-118.79
 20
173.878
 11
-118.971
 21
173.71
  0
LINE
  8
0
 10
-118.971
 20
173.71
 11
-119.175
 21
173.571
  0
LINE
  8
0
 10
-119.175
 20
173.571
 11
-119.397
 21
173.464
  0
LINE
  8
0
 10
-119.397
 20
173.464
 11
-119.633
 21
173.391
  0
LINE
  8
0
 10
-119.633
 20
173.391
 11
-119.877
 21
173.355
  0
LINE
  8
0
 10
-119.877
 20
173.355
 11
-120.123
 21
173.355
  0
LINE
  8
0
 10
-0.123291
 20
173.355
 11
-0.367157
 21
173.391
  0
LINE
  8
0
 10
-0.367157
 20
173.391
 11
-0.602798
 21
173.464
  0
LINE
  8
0
 10
-0.602798
 20
173.464
 11
-0.824997
 21
173.571
  0
LINE
  8
0
 10
-0.824997
 20
173.571
 11
-1.02875
 21
173.71
  0
LINE
  8
0
 10
-1.02875
 20
173.71
 11
-1.20953
 21
173.878
  0
LINE
  8
0
 10
-1.20953
 20
173.878
 11
-1.36328
 21
174.071
  0
LINE
  8
0
 10
-1.36328
 20
174.071
 11
-1.48659
 21
174.284
  0
LINE
  8
0
 10
-1.48659
 20
174.284
 11
-1.57669
 21
174.514
  0
LINE
  8
0
 10
-1.57669
 20
174.514
 11
-1.63156
 21
174.754
  0
LINE
  8
0
 10
-1.63156
 20
174.754
 11
-1.64999
 21
175
  0
LINE
  8
0
 10
-1.64999
 20
175
 11
-1.63156
 21
175.246
  0
LINE
  8
0
 10
-1.63156
 20
175.246
 11
-1.57669
 21
175.486
  0
LINE
  8
0
 10
-1.57669
 20
175.486
 11
-1.48659
 21
175.716
  0
LINE
  8
0
 10
-1.48659
 20
175.716
 11
-1.36328
 21
175.929
  0
LINE
  8
0
 10
-1.36328
 20
175.929
 11
-1.20953
 21
176.122
  0
LINE
  8
0
 10
-1.20953
 20
176.122
 11
-1.02875
 21
176.29
  0
LINE
  8
0
 10
-1.02875
 20
176.29
 11
-0.824997
 21
176.429
  0
LINE
  8
0
 10
-0.824997
 20
176.429
 11
-0.602798
 21
176.536
  0
LINE
  8
0
 10
-0.602798
 20
176.536
 11
-0.367157
 21
176.609
  0
LINE
  8
0
 10
-0.367157
 20
176.609
 11
-0.123291
 21
176.645
  0
LINE
  8
0
 10
-0.123291
 20
176.645
 11
0.123291
 21
176.645
  0
LINE
  8
0
 10
0.123291
 20
176.645
 11
0.367157
 21
176.609
  0
LINE
  8
0
 10
0.367157
 20
176.609
 11
0.602798
 21
176.536
  0
LINE
  8
0
 10
0.602798
 20
176.536
 11
0.824997
 21
176.429
  0
LINE
  8
0
 10
0.824997
 20
176.429
 11
1.02875
 21
176.29
  0
LINE
  8
0
 10
1.02875
 20
176.29
 11
1.20953
 21
176.122
  0
LINE
  8
0
 10
1.20953
 20
176.122
 11
1.36328
 21
175.929
  0
LINE
  8
0
 10
1.36328
 20
175.929
 11
1.48659
 21
175.716
  0
LINE
  8
0
 10
1.48659
 20
175.716
 11
1.57669
 21
175.486
  0
LINE
  8
0
 10
1.57669
 20
175.486
 11
1.63156
 21
175.246
  0
LINE
  8
0
 10
1.63156
 20
175.246
 11
1.64999
 21
175
  0
LINE
  8
0
 10
1.64999
 20
175
 11
1.63156
 21
174.754
  0
LINE
  8
0
 10
1.63156
 20
174.754
 11
1.57669
 21
174.514
  0
LINE
  8
0
 10
1.57669
 20
174.514
 11
1.48659
 21
174.284
  0
LINE
  8
0
 10
1.48659
 20
174.284
 11
1.36328
 21
174.071
  0
LINE
  8
0
 10
1.36328
 20
174.071
 11
1.20953
 21
173.878
  0
LINE
  8
0
 10
1.20953
 20
173.878
 11
1.02875
 21
173.71
  0
LINE
  8
0
 10
1.02875
 20
173.71
 11
0.824997
 21
173.571
  0
LINE
  8
0
 10
0.824997
 20
173.571
 11
0.602798
 21
173.464
  0
LINE
  8
0
 10
0.602798
 20
173.464
 11
0.367157
 21
173.391
  0
LINE
  8
0
 10
0.367157
 20
173.391
 11
0.123291
 21
173.355
  0
LINE
  8
0
 10
0.123291
 20
173.355
 11
-0.123291
 21
173.355
  0
LINE
  8
0
 10
119.877
 20
173.355
 11
119.633
 21
173.391
  0
LINE
  8
0
 10
119.633
 20
173.391
 11
119.397
 21
173.464
  0
LINE
  8
0
 10
119.397
 20
173.464
 11
119.175
 21
173.571
  0
LINE
  8
0
 10
119.175
 20
173.571
 11
118.971
 21
173.71
  0
LINE
  8
0
 10
118.971
 20
173.71
 11
118.79
 21
173.878
  0
LINE
  8
0
 10
118.79
 20
173.878
 11
118.637
 21
174.071
  0
LINE
  8
0
 10
118.637
 20
174.071
 11
118.513
 21
174.284
  0
LINE
  8
0
 10
118.513
 20
174.284
 11
118.423
 21
174.514
  0
LINE
  8
0
 10
118.423
 20
174.514
 11
118.368
 21
174.754
  0
LINE
  8
0
 10
118.368
 20
174.754
 11
118.35
 21
175
  0
LINE
  8
0
 10
118.35
 20
175
 11
118.368
 21
175.246
  0
LINE
  8
0
 10
118.368
 20
175.246
 11
118.423
 21
175.486
  0
LINE
  8
0
 10
118.423
 20
175.486
 11
118.513
 21
175.716
  0
LINE
  8
0
 10
118.513
 20
175.716
 11
118.637
 21
175.929
  0
LINE
  8
0
 10
118.637
 20
175.929
 11
118.79
 21
176.122
  0
LINE
  8
0
 10
118.79
 20
176.122
 11
118.971
 21
176.29
  0
LINE
  8
0
 10
118.971
 20
176.29
 11
119.175
 21
176.429
  0
LINE
  8
0
 10
119.175
 20
176.429
 11
119.397
 21
176.536
  0
LINE
  8
0
 10
119.397
 20
176.536
 11
119.633
 21
176.609
  0
LINE
  8
0
 10
119.633
 20
176.609
 11
119.877
 21
176.645
  0
LINE
  8
0
 10
119.877
 20
176.645
 11
120.123
 21
176.645
  0
LINE
  8
0
 10
120.123
 20
176.645
 11
120.367
 21
176.609
  0
LINE
  8
0
 10
120.367
 20
176.609
 11
120.603
 21
176.536
  0
LINE
  8
0
 10
120.603
 20
176.536
 11
120.825
 21
176.429
  0
LINE
  8
0
 10
120.825
 20
176.429
 11
121.029
 21
176.29
  0
LINE
  8
0
 10
121.029
 20
176.29
 11
121.21
 21
176.122
  0
LINE
  8
0
 10
121.21
 20
176.122
 11
121.363
 21
175.929
  0
LINE
  8
0
 10
121.363
 20
175.929
 11
121.487
 21
175.716
  0
LINE
  8
0
 10
121.487
 20
175.716
 11
121.577
 21
175.486
  0
LINE
  8
0
 10
121.577
 20
175.486
 11
121.632
 21
175.246
  0
LINE
  8
0
 10
121.632
 20
175.246
 11
121.65
 21
175
  0
LINE
  8
0
 10
121.65
 20
175
 11
121.632
 21
174.754
  0
LINE
  8
0
 10
121.632
 20
174.754
 11
121.577
 21
174.514
  0
LINE
  8
0
 10
121.577
 20
174.514
 11
121.487
 21
174.284
  0
LINE
  8
0
 10
121.487
 20
174.284
 11
121.363
 21
174.071
  0
LINE
  8
0
 10
121.363
 20
174.071
 11
121.21
 21
173.878
  0
LINE
  8
0
 10
121.21
 20
173.878
 11
121.029
 21
173.71
  0
LINE
  8
0
 10
121.029
 20
173.71
 11
120.825
 21
173.571
  0
LINE
  8
0
 10
120.825
 20
173.571
 11
120.603
 21
173.464
  0
LINE
  8
0
 10
120.603
 20
173.464
 11
120.367
 21
173.391
  0
LINE
  8
0
 10
120.367
 20
173.391
 11
120.123
 21
173.355
  0
LINE
  8
0
 10
120.123
 20
173.355
 11
119.877
 21
173.355
  0
LINE
  8
0
 10
-126.123
 20
119.605
 11
-126.367
 21
119.641
  0
LINE
  8
0
 10
-126.367
 20
119.641
 11
-126.603
 21
119.714
  0
LINE
  8
0
 10
-126.603
 20
119.714
 11
-126.825
 21
119.821
  0
LINE
  8
0
 10
-126.825
 20
119.821
 11
-127.029
 21
119.96
  0
LINE
  8
0
 10
-127.029
 20
119.96
 11
-127.21
 21
120.128
  0
LINE
  8
0
 10
-127.21
 20
120.128
 11
-127.363
 21
120.321
  0
LINE
  8
0
 10
-127.363
 20
120.321
 11
-127.487
 21
120.534
  0
LINE
  8
0
 10
-127.487
 20
120.534
 11
-127.577
 21
120.764
  0
LINE
  8
0
 10
-127.577
 20
120.764
 11
-127.632
 21
121.004
  0
LINE
  8
0
 10
-127.632
 20
121.004
 11
-127.65
 21
121.25
  0
LINE
  8
0
 10
-127.65
 20
121.25
 11
-127.632
 21
121.496
  0
LINE
  8
0
 10
-127.632
 20
121.496
 11
-127.577
 21
121.736
  0
LINE
  8
0
 10
-127.577
 20
121.736
 11
-127.487
 21
121.966
  0
LINE
  8
0
 10
-127.487
 20
121.966
 11
-127.363
 21
122.179
  0
LINE
  8
0
 10
-127.363
 20
122.179
 11
-127.21
 21
122.372
  0
LINE
  8
0
 10
-127.21
 20
122.372
 11
-127.029
 21
122.54
  0
LINE
  8
0
 10
-127.029
 20
122.54
 11
-126.825
 21
122.679
  0
LINE
  8
0
 10
-126.825
 20
122.679
 11
-126.603
 21
122.786
  0
LINE
  8
0
 10
-126.603
 20
122.786
 11
-126.367
 21
122.859
  0
LINE
  8
0
 10
-126.367
 20
122.859
 11
-126.123
 21
122.895
  0
LINE
  8
0
 10
-126.123
 20
122.895
 11
-125.877
 21
122.895
  0
LINE
  8
0
 10
-125.877
 20
122.895
 11
-125.633
 21
122.859
  0
LINE
  8
0
 10
-125.633
 20
122.859
 11
-125.397
 21
122.786
  0
LINE
  8
0
 10
-125.397
 20
122.786
 11
-125.175
 21
122.679
  0
LINE
  8
0
 10
-125.175
 20
122.679
 11
-124.971
 21
122.54
  0
LINE
  8
0
 10
-124.971
 20
122.54
 11
-124.79
 21
122.372
  0
LINE
  8
0
 10
-124.79
 20
122.372
 11
-124.637
 21
122.179
  0
LINE
  8
0
 10
-124.637
 20
122.179
 11
-124.513
 21
121.966
  0
LINE
  8
0
 10
-124.513
 20
121.966
 11
-124.423
 21
121.736
  0
LINE
  8
0
 10
-124.423
 20
121.736
 11
-124.368
 21
121.496
  0
LINE
  8
0
 10
-124.368
 20
121.496
 11
-124.35
 21
121.25
  0
LINE
  8
0
 10
-124.35
 20
121.25
 11
-124.368
 21
121.004
  0
LINE
  8
0
 10
-124.368
 20
121.004
 11
-124.423
 21
120.764
  0
LINE
  8
0
 10
-124.423
 20
120.764
 11
-124.513
 21
120.534
  0
LINE
  8
0
 10
-124.513
 20
120.534
 11
-124.637
 21
120.321
  0
LINE
  8
0
 10
-124.637
 20
120.321
 11
-124.79
 21
120.128
  0
LINE
  8
0
 10
-124.79
 20
120.128
 11
-124.971
 21
119.96
  0
LINE
  8
0
 10
-124.971
 20
119.96
 11
-125.175
 21
119.821
  0
LINE
  8
0
 10
-125.175
 20
119.821
 11
-125.397
 21
119.714
  0
LINE
  8
0
 10
-125.397
 20
119.714
 11
-125.633
 21
119.641
  0
LINE
  8
0
 10
-125.633
 20
119.641
 11
-125.877
 21
119.605
  0
LINE
  8
0
 10
-125.877
 20
119.605
 11
-126.123
 21
119.605
  0
LINE
  8
0
 10
-126.123
 20
32.1046
 11
-126.367
 21
32.1414
  0
LINE
  8
0
 10
-126.367
 20
32.1414
 11
-126.603
 21
32.2141
  0
LINE
  8
0
 10
-126.603
 20
32.2141
 11
-126.825
 21
32.321
  0
LINE
  8
0
 10
-126.825
 20
32.321
 11
-127.029
 21
32.46
  0
LINE
  8
0
 10
-127.029
 20
32.46
 11
-127.21
 21
32.6277
  0
LINE
  8
0
 10
-127.21
 20
32.6277
 11
-127.363
 21
32.8205
  0
LINE
  8
0
 10
-127.363
 20
32.8205
 11
-127.487
 21
33.0341
  0
LINE
  8
0
 10
-127.487
 20
33.0341
 11
-127.577
 21
33.2636
  0
LINE
  8
0
 10
-127.577
 20
33.2636
 11
-127.632
 21
33.5041
  0
LINE
  8
0
 10
-127.632
 20
33.5041
 11
-127.65
 21
33.75
  0
LINE
  8
0
 10
-127.65
 20
33.75
 11
-127.632
 21
33.9959
  0
LINE
  8
0
 10
-127.632
 20
33.9959
 11
-127.577
 21
34.2363
  0
LINE
  8
0
 10
-127.577
 20
34.2363
 11
-127.487
 21
34.4659
  0
LINE
  8
0
 10
-127.487
 20
34.4659
 11
-127.363
 21
34.6795
  0
LINE
  8
0
 10
-127.363
 20
34.6795
 11
-127.21
 21
34.8723
  0
LINE
  8
0
 10
-127.21
 20
34.8723
 11
-127.029
 21
35.04
  0
LINE
  8
0
 10
-127.029
 20
35.04
 11
-126.825
 21
35.1789
  0
LINE
  8
0
 10
-126.825
 20
35.1789
 11
-126.603
 21
35.2859
  0
LINE
  8
0
 10
-126.603
 20
35.2859
 11
-126.367
 21
35.3586
  0
LINE
  8
0
 10
-126.367
 20
35.3586
 11
-126.123
 21
35.3954
  0
LINE
  8
0
 10
-126.123
 20
35.3954
 11
-125.877
 21
35.3954
  0
LINE
  8
0
 10
-125.877
 20
35.3954
 11
-125.633
 21
35.3586
  0
LINE
  8
0
 10
-125.633
 20
35.3586
 11
-125.397
 21
35.2859
  0
LINE
  8
0
 10
-125.397
 20
35.2859
 11
-125.175
 21
35.1789
  0
LINE
  8
0
 10
-125.175
 20
35.1789
 11
-124.971
 21
35.04
  0
LINE
  8
0
 10
-124.971
 20
35.04
 11
-124.79
 21
34.8723
  0
LINE
  8
0
 10
-124.79
 20
34.8723
 11
-124.637
 21
34.6795
  0
LINE
  8
0
 10
-124.637
 20
34.6795
 11
-124.513
 21
34.4659
  0
LINE
  8
0
 10
-124.513
 20
34.4659
 11
-124.423
 21
34.2363
  0
LINE
  8
0
 10
-124.423
 20
34.2363
 11
-124.368
 21
33.9959
  0
LINE
  8
0
 10
-124.368
 20
33.9959
 11
-124.35
 21
33.75
  0
LINE
  8
0
 10
-124.35
 20
33.75
 11
-124.368
 21
33.5041
  0
LINE
  8
0
 10
-124.368
 20
33.5041
 11
-124.423
 21
33.2636
  0
LINE
  8
0
 10
-124.423
 20
33.2636
 11
-124.513
 21
33.0341
  0
LINE
  8
0
 10
-124.513
 20
33.0341
 11
-124.637
 21
32.8205
  0
LINE
  8
0
 10
-124.637
 20
32.8205
 11
-124.79
 21
32.6277
  0
LINE
  8
0
 10
-124.79
 20
32.6277
 11
-124.971
 21
32.46
  0
LINE
  8
0
 10
-124.971
 20
32.46
 11
-125.175
 21
32.321
  0
LINE
  8
0
 10
-125.175
 20
32.321
 11
-125.397
 21
32.2141
  0
LINE
  8
0
 10
-125.397
 20
32.2141
 11
-125.633
 21
32.1414
  0
LINE
  8
0
 10
-125.633
 20
32.1414
 11
-125.877
 21
32.1046
  0
LINE
  8
0
 10
-125.877
 20
32.1046
 11
-126.123
 21
32.1046
  0
LINE
  8
0
 10
-126.123
 20
-55.3954
 11
-126.367
 21
-55.3586
  0
LINE
  8
0
 10
-126.367
 20
-55.3586
 11
-126.603
 21
-55.2859
  0
LINE
  8
0
 10
-126.603
 20
-55.2859
 11
-126.825
 21
-55.1789
  0
LINE
  8
0
 10
-126.825
 20
-55.1789
 11
-127.029
 21
-55.04
  0
LINE
  8
0
 10
-127.029
 20
-55.04
 11
-127.21
 21
-54.8723
  0
LINE
  8
0
 10
-127.21
 20
-54.8723
 11
-127.363
 21
-54.6795
  0
LINE
  8
0
 10
-127.363
 20
-54.6795
 11
-127.487
 21
-54.4659
  0
LINE
  8
0
 10
-127.487
 20
-54.4659
 11
-127.577
 21
-54.2363
  0
LINE
  8
0
 10
-127.577
 20
-54.2363
 11
-127.632
 21
-53.9959
  0
LINE
  8
0
 10
-127.632
 20
-53.9959
 11
-127.65
 21
-53.75
  0
LINE
  8
0
 10
-127.65
 20
-53.75
 11
-127.632
 21
-53.5041
  0
LINE
  8
0
 10
-127.632
 20
-53.5041
 11
-127.577
 21
-53.2636
  0
LINE
  8
0
 10
-127.577
 20
-53.2636
 11
-127.487
 21
-53.0341
  0
LINE
  8
0
 10
-127.487
 20
-53.0341
 11
-127.363
 21
-52.8205
  0
LINE
  8
0
 10
-127.363
 20
-52.8205
 11
-127.21
 21
-52.6277
  0
LINE
  8
0
 10
-127.21
 20
-52.6277
 11
-127.029
 21
-52.46
  0
LINE
  8
0
 10
-127.029
 20
-52.46
 11
-126.825
 21
-52.321
  0
LINE
  8
0
 10
-126.825
 20
-52.321
 11
-126.603
 21
-52.2141
  0
LINE
  8
0
 10
-126.603
 20
-52.2141
 11
-126.367
 21
-52.1414
  0
LINE
  8
0
 10
-126.367
 20
-52.1414
 11
-126.123
 21
-52.1046
  0
LINE
  8
0
 10
-126.123
 20
-52.1046
 11
-125.877
 21
-52.1046
  0
LINE
  8
0
 10
-125.877
 20
-52.1046
 11
-125.633
 21
-52.1414
  0
LINE
  8
0
 10
-125.633
 20
-52.1414
 11
-125.397
 21
-52.2141
  0
LINE
  8
0
 10
-125.397
 20
-52.2141
 11
-125.175
 21
-52.321
  0
LINE
  8
0
 10
-125.175
 20
-52.321
 11
-124.971
 21
-52.46
  0
LINE
  8
0
 10
-124.971
 20
-52.46
 11
-124.79
 21
-52.6277
  0
LINE
  8
0
 10
-124.79
 20
-52.6277
 11
-124.637
 21
-52.8205
  0
LINE
  8
0
 10
-124.637
 20
-52.8205
 11
-124.513
 21
-53.0341
  0
LINE
  8
0
 10
-124.513
 20
-53.0341
 11
-124.423
 21
-53.2636
  0
LINE
  8
0
 10
-124.423
 20
-53.2636
 11
-124.368
 21
-53.5041
  0
LINE
  8
0
 10
-124.368
 20
-53.5041
 11
-124.35
 21
-53.75
  0
LINE
  8
0
 10
-124.35
 20
-53.75
 11
-124.368
 21
-53.9959
  0
LINE
  8
0
 10
-124.368
 20
-53.9959
 11
-124.423
 21
-54.2363
  0
LINE
  8
0
 10
-124.423
 20
-54.2363
 11
-124.513
 21
-54.4659
  0
LINE
  8
0
 10
-124.513
 20
-54.4659
 11
-124.637
 21
-54.6795
  0
LINE
  8
0
 10
-124.637
 20
-54.6795
 11
-124.79
 21
-54.8723
  0
LINE
  8
0
 10
-124.79
 20
-54.8723
 11
-124.971
 21
-55.04
  0
LINE
  8
0
 10
-124.971
 20
-55.04
 11
-125.175
 21
-55.1789
  0
LINE
  8
0
 10
-125.175
 20
-55.1789
 11
-125.397
 21
-55.2859
  0
LINE
  8
0
 10
-125.397
 20
-55.2859
 11
-125.633
 21
-55.3586
  0
LINE
  8
0
 10
-125.633
 20
-55.3586
 11
-125.877
 21
-55.3954
  0
LINE
  8
0
 10
-125.877
 20
-55.3954
 11
-126.123
 21
-55.3954
  0
LINE
  8
0
 10
-126.123
 20
-142.895
 11
-126.367
 21
-142.859
  0
LINE
  8
0
 10
-126.367
 20
-142.859
 11
-126.603
 21
-142.786
  0
LINE
  8
0
 10
-126.603
 20
-142.786
 11
-126.825
 21
-142.679
  0
LINE
  8
0
 10
-126.825
 20
-142.679
 11
-127.029
 21
-142.54
  0
LINE
  8
0
 10
-127.029
 20
-142.54
 11
-127.21
 21
-142.372
  0
LINE
  8
0
 10
-127.21
 20
-142.372
 11
-127.363
 21
-142.179
  0
LINE
  8
0
 10
-127.363
 20
-142.179
 11
-127.487
 21
-141.966
  0
LINE
  8
0
 10
-127.487
 20
-141.966
 11
-127.577
 21
-141.736
  0
LINE
  8
0
 10
-127.577
 20
-141.736
 11
-127.632
 21
-141.496
  0
LINE
  8
0
 10
-127.632
 20
-141.496
 11
-127.65
 21
-141.25
  0
LINE
  8
0
 10
-127.65
 20
-141.25
 11
-127.632
 21
-141.004
  0
LINE
  8
0
 10
-127.632
 20
-141.004
 11
-127.577
 21
-140.764
  0
LINE
  8
0
 10
-127.577
 20
-140.764
 11
-127.487
 21
-140.534
  0
LINE
  8
0
 10
-127.487
 20
-140.534
 11
-127.363
 21
-140.321
  0
LINE
  8
0
 10
-127.363
 20
-140.321
 11
-127.21
 21
-140.128
  0
LINE
  8
0
 10
-127.21
 20
-140.128
 11
-127.029
 21
-139.96
  0
LINE
  8
0
 10
-127.029
 20
-139.96
 11
-126.825
 21
-139.821
  0
LINE
  8
0
 10
-126.825
 20
-139.821
 11
-126.603
 21
-139.714
  0
LINE
  8
0
 10
-126.603
 20
-139.714
 11
-126.367
 21
-139.641
  0
LINE
  8
0
 10
-126.367
 20
-139.641
 11
-126.123
 21
-139.605
  0
LINE
  8
0
 10
-126.123
 20
-139.605
 11
-125.877
 21
-139.605
  0
LINE
  8
0
 10
-125.877
 20
-139.605
 11
-125.633
 21
-139.641
  0
LINE
  8
0
 10
-125.633
 20
-139.641
 11
-125.397
 21
-139.714
  0
LINE
  8
0
 10
-125.397
 20
-139.714
 11
-125.175
 21
-139.821
  0
LINE
  8
0
 10
-125.175
 20
-139.821
 11
-124.971
 21
-139.96
  0
LINE
  8
0
 10
-124.971
 20
-139.96
 11
-124.79
 21
-140.128
  0
LINE
  8
0
 10
-124.79
 20
-140.128
 11
-124.637
 21
-140.321
  0
LINE
  8
0
 10
-124.637
 20
-140.321
 11
-124.513
 21
-140.534
  0
LINE
  8
0
 10
-124.513
 20
-140.534
 11
-124.423
 21
-140.764
  0
LINE
  8
0
 10
-124.423
 20
-140.764
 11
-124.368
 21
-141.004
  0
LINE
  8
0
 10
-124.368
 20
-141.004
 11
-124.35
 21
-141.25
  0
LINE
  8
0
 10
-124.35
 20
-141.25
 11
-124.368
 21
-141.496
  0
LINE
  8
0
 10
-124.368
 20
-141.496
 11
-124.423
 21
-141.736
  0
LINE
  8
0
 10
-124.423
 20
-141.736
 11
-124.513
 21
-141.966
  0
LINE
  8
0
 10
-124.513
 20
-141.966
 11
-124.637
 21
-142.179
  0
LINE
  8
0
 10
-124.637
 20
-142.179
 11
-124.79
 21
-142.372
  0
LINE
  8
0
 10
-124.79
 20
-142.372
 11
-124.971
 21
-142.54
  0
LINE
  8
0
 10
-124.971
 20
-142.54
 11
-125.175
 21
-142.679
  0
LINE
  8
0
 10
-125.175
 20
-142.679
 11
-125.397
 21
-142.786
  0
LINE
  8
0
 10
-125.397
 20
-142.786
 11
-125.633
 21
-142.859
  0
LINE
  8
0
 10
-125.633
 20
-142.859
 11
-125.877
 21
-142.895
  0
LINE
  8
0
 10
-125.877
 20
-142.895
 11
-126.123
 21
-142.895
  0
LINE
  8
0
 10
-112.123
 20
-178.645
 11
-112.367
 21
-178.609
  0
LINE
  8
0
 10
-112.367
 20
-178.609
 11
-112.603
 21
-178.536
  0
LINE
  8
0
 10
-112.603
 20
-178.536
 11
-112.825
 21
-178.429
  0
LINE
  8
0
 10
-112.825
 20
-178.429
 11
-113.029
 21
-178.29
  0
LINE
  8
0
 10
-113.029
 20
-178.29
 11
-113.21
 21
-178.122
  0
LINE
  8
0
 10
-113.21
 20
-178.122
 11
-113.363
 21
-177.929
  0
LINE
  8
0
 10
-113.363
 20
-177.929
 11
-113.487
 21
-177.716
  0
LINE
  8
0
 10
-113.487
 20
-177.716
 11
-113.577
 21
-177.486
  0
LINE
  8
0
 10
-113.577
 20
-177.486
 11
-113.632
 21
-177.246
  0
LINE
  8
0
 10
-113.632
 20
-177.246
 11
-113.65
 21
-177
  0
LINE
  8
0
 10
-113.65
 20
-177
 11
-113.632
 21
-176.754
  0
LINE
  8
0
 10
-113.632
 20
-176.754
 11
-113.577
 21
-176.514
  0
LINE
  8
0
 10
-113.577
 20
-176.514
 11
-113.487
 21
-176.284
  0
LINE
  8
0
 10
-113.487
 20
-176.284
 11
-113.363
 21
-176.071
  0
LINE
  8
0
 10
-113.363
 20
-176.071
 11
-113.21
 21
-175.878
  0
LINE
  8
0
 10
-113.21
 20
-175.878
 11
-113.029
 21
-175.71
  0
LINE
  8
0
 10
-113.029
 20
-175.71
 11
-112.825
 21
-175.571
  0
LINE
  8
0
 10
-112.825
 20
-175.571
 11
-112.603
 21
-175.464
  0
LINE
  8
0
 10
-112.603
 20
-175.464
 11
-112.367
 21
-175.391
  0
LINE
  8
0
 10
-112.367
 20
-175.391
 11
-112.123
 21
-175.355
  0
LINE
  8
0
 10
-112.123
 20
-175.355
 11
-111.877
 21
-175.355
  0
LINE
  8
0
 10
-111.877
 20
-175.355
 11
-111.633
 21
-175.391
  0
LINE
  8
0
 10
-111.633
 20
-175.391
 11
-111.397
 21
-175.464
  0
LINE
  8
0
 10
-111.397
 20
-175.464
 11
-111.175
 21
-175.571
  0
LINE
  8
0
 10
-111.175
 20
-175.571
 11
-110.971
 21
-175.71
  0
LINE
  8
0
 10
-110.971
 20
-175.71
 11
-110.79
 21
-175.878
  0
LINE
  8
0
 10
-110.79
 20
-175.878
 11
-110.637
 21
-176.071
  0
LINE
  8
0
 10
-110.637
 20
-176.071
 11
-110.513
 21
-176.284
  0
LINE
  8
0
 10
-110.513
 20
-176.284
 11
-110.423
 21
-176.514
  0
LINE
  8
0
 10
-110.423
 20
-176.514
 11
-110.368
 21
-176.754
  0
LINE
  8
0
 10
-110.368
 20
-176.754
 11
-110.35
 21
-177
  0
LINE
  8
0
 10
-110.35
 20
-177
 11
-110.368
 21
-177.246
  0
LINE
  8
0
 10
-110.368
 20
-177.246
 11
-110.423
 21
-177.486
  0
LINE
  8
0
 10
-110.423
 20
-177.486
 11
-110.513
 21
-177.716
  0
LINE
  8
0
 10
-110.513
 20
-177.716
 11
-110.637
 21
-177.929
  0
LINE
  8
0
 10
-110.637
 20
-177.929
 11
-110.79
 21
-178.122
  0
LINE
  8
0
 10
-110.79
 20
-178.122
 11
-110.971
 21
-178.29
  0
LINE
  8
0
 10
-110.971
 20
-178.29
 11
-111.175
 21
-178.429
  0
LINE
  8
0
 10
-111.175
 20
-178.429
 11
-111.397
 21
-178.536
  0
LINE
  8
0
 10
-111.397
 20
-178.536
 11
-111.633
 21
-178.609
  0
LINE
  8
0
 10
-111.633
 20
-178.609
 11
-111.877
 21
-178.645
  0
LINE
  8
0
 10
-111.877
 20
-178.645
 11
-112.123
 21
-178.645
  0
LINE
  8
0
 10
3.87669
 20
-178.645
 11
3.63283
 21
-178.609
  0
LINE
  8
0
 10
3.63283
 20
-178.609
 11
3.39719
 21
-178.536
  0
LINE
  8
0
 10
3.39719
 20
-178.536
 11
3.17499
 21
-178.429
  0
LINE
  8
0
 10
3.17499
 20
-178.429
 11
2.97124
 21
-178.29
  0
LINE
  8
0
 10
2.97124
 20
-178.29
 11
2.79045
 21
-178.122
  0
LINE
  8
0
 10
2.79045
 20
-178.122
 11
2.6367
 21
-177.929
  0
LINE
  8
0
 10
2.6367
 20
-177.929
 11
2.5134
 21
-177.716
  0
LINE
  8
0
 10
2.5134
 20
-177.716
 11
2.42329
 21
-177.486
  0
LINE
  8
0
 10
2.42329
 20
-177.486
 11
2.36842
 21
-177.246
  0
LINE
  8
0
 10
2.36842
 20
-177.246
 11
2.34999
 21
-177
  0
LINE
  8
0
 10
2.34999
 20
-177
 11
2.36842
 21
-176.754
  0
LINE
  8
0
 10
2.36842
 20
-176.754
 11
2.42329
 21
-176.514
  0
LINE
  8
0
 10
2.42329
 20
-176.514
 11
2.5134
 21
-176.284
  0
LINE
  8
0
 10
2.5134
 20
-176.284
 11
2.6367
 21
-176.071
  0
LINE
  8
0
 10
2.6367
 20
-176.071
 11
2.79045
 21
-175.878
  0
LINE
  8
0
 10
2.79045
 20
-175.878
 11
2.97124
 21
-175.71
  0
LINE
  8
0
 10
2.97124
 20
-175.71
 11
3.17499
 21
-175.571
  0
LINE
  8
0
 10
3.17499
 20
-175.571
 11
3.39719
 21
-175.464
  0
LINE
  8
0
 10
3.39719
 20
-175.464
 11
3.63283
 21
-175.391
  0
LINE
  8
0
 10
3.63283
 20
-175.391
 11
3.87669
 21
-175.355
  0
LINE
  8
0
 10
3.87669
 20
-175.355
 11
4.12329
 21
-175.355
  0
LINE
  8
0
 10
4.12329
 20
-175.355
 11
4.36716
 21
-175.391
  0
LINE
  8
0
 10
4.36716
 20
-175.391
 11
4.6028
 21
-175.464
  0
LINE
  8
0
 10
4.6028
 20
-175.464
 11
4.825
 21
-175.571
  0
LINE
  8
0
 10
4.825
 20
-175.571
 11
5.02875
 21
-175.71
  0
LINE
  8
0
 10
5.02875
 20
-175.71
 11
5.20953
 21
-175.878
  0
LINE
  8
0
 10
5.20953
 20
-175.878
 11
5.36328
 21
-176.071
  0
LINE
  8
0
 10
5.36328
 20
-176.071
 11
5.48659
 21
-176.284
  0
LINE
  8
0
 10
5.48659
 20
-176.284
 11
5.57669
 21
-176.514
  0
LINE
  8
0
 10
5.57669
 20
-176.514
 11
5.63156
 21
-176.754
  0
LINE
  8
0
 10
5.63156
 20
-176.754
 11
5.64999
 21
-177
  0
LINE
  8
0
 10
5.64999
 20
-177
 11
5.63156
 21
-177.246
  0
LINE
  8
0
 10
5.63156
 20
-177.246
 11
5.57669
 21
-177.486
  0
LINE
  8
0
 10
5.57669
 20
-177.486
 11
5.48659
 21
-177.716
  0
LINE
  8
0
 10
5.48659
 20
-177.716
 11
5.36328
 21
-177.929
  0
LINE
  8
0
 10
5.36328
 20
-177.929
 11
5.20953
 21
-178.122
  0
LINE
  8
0
 10
5.20953
 20
-178.122
 11
5.02875
 21
-178.29
  0
LINE
  8
0
 10
5.02875
 20
-178.29
 11
4.825
 21
-178.429
  0
LINE
  8
0
 10
4.825
 20
-178.429
 11
4.6028
 21
-178.536
  0
LINE
  8
0
 10
4.6028
 20
-178.536
 11
4.36716
 21
-178.609
  0
LINE
  8
0
 10
4.36716
 20
-178.609
 11
4.12329
 21
-178.645
  0
LINE
  8
0
 10
4.12329
 20
-178.645
 11
3.87669
 21
-178.645
  0
LINE
  8
0
 10
119.877
 20
-178.645
 11
119.633
 21
-178.609
  0
LINE
  8
0
 10
119.633
 20
-178.609
 11
119.397
 21
-178.536
  0
LINE
  8
0
 10
119.397
 20
-178.536
 11
119.175
 21
-178.429
  0
LINE
  8
0
 10
119.175
 20
-178.429
 11
118.971
 21
-178.29
  0
LINE
  8
0
 10
118.971
 20
-178.29
 11
118.79
 21
-178.122
  0
LINE
  8
0
 10
118.79
 20
-178.122
 11
118.637
 21
-177.929
  0
LINE
  8
0
 10
118.637
 20
-177.929
 11
118.513
 21
-177.716
  0
LINE
  8
0
 10
118.513
 20
-177.716
 11
118.423
 21
-177.486
  0
LINE
  8
0
 10
118.423
 20
-177.486
 11
118.368
 21
-177.246
  0
LINE
  8
0
 10
118.368
 20
-177.246
 11
118.35
 21
-177
  0
LINE
  8
0
 10
118.35
 20
-177
 11
118.368
 21
-176.754
  0
LINE
  8
0
 10
118.368
 20
-176.754
 11
118.423
 21
-176.514
  0
LINE
  8
0
 10
118.423
 20
-176.514
 11
118.513
 21
-176.284
  0
LINE
  8
0
 10
118.513
 20
-176.284
 11
118.637
 21
-176.071
  0
LINE
  8
0
 10
118.637
 20
-176.071
 11
118.79
 21
-175.878
  0
LINE
  8
0
 10
118.79
 20
-175.878
 11
118.971
 21
-175.71
  0
LINE
  8
0
 10
118.971
 20
-175.71
 11
119.175
 21
-175.571
  0
LINE
  8
0
 10
119.175
 20
-175.571
 11
119.397
 21
-175.464
  0
LINE
  8
0
 10
119.397
 20
-175.464
 11
119.633
 21
-175.391
  0
LINE
  8
0
 10
119.633
 20
-175.391
 11
119.877
 21
-175.355
  0
LINE
  8
0
 10
119.877
 20
-175.355
 11
120.123
 21
-175.355
  0
LINE
  8
0
 10
120.123
 20
-175.355
 11
120.367
 21
-175.391
  0
LINE
  8
0
 10
120.367
 20
-175.391
 11
120.603
 21
-175.464
  0
LINE
  8
0
 10
120.603
 20
-175.464
 11
120.825
 21
-175.571
  0
LINE
  8
0
 10
120.825
 20
-175.571
 11
121.029
 21
-175.71
  0
LINE
  8
0
 10
121.029
 20
-175.71
 11
121.21
 21
-175.878
  0
LINE
  8
0
 10
121.21
 20
-175.878
 11
121.363
 21
-176.071
  0
LINE
  8
0
 10
121.363
 20
-176.071
 11
121.487
 21
-176.284
  0
LINE
  8
0
 10
121.487
 20
-176.284
 11
121.577
 21
-176.514
  0
LINE
  8
0
 10
121.577
 20
-176.514
 11
121.632
 21
-176.754
  0
LINE
  8
0
 10
121.632
 20
-176.754
 11
121.65
 21
-177
  0
LINE
  8
0
 10
121.65
 20
-177
 11
121.632
 21
-177.246
  0
LINE
  8
0
 10
121.632
 20
-177.246
 11
121.577
 21
-177.486
  0
LINE
  8
0
 10
121.577
 20
-177.486
 11
121.487
 21
-177.716
  0
LINE
  8
0
 10
121.487
 20
-177.716
 11
121.363
 21
-177.929
  0
LINE
  8
0
 10
121.363
 20
-177.929
 11
121.21
 21
-178.122
  0
LINE
  8
0
 10
121.21
 20
-178.122
 11
121.029
 21
-178.29
  0
LINE
  8
0
 10
121.029
 20
-178.29
 11
120.825
 21
-178.429
  0
LINE
  8
0
 10
120.825
 20
-178.429
 11
120.603
 21
-178.536
  0
LINE
  8
0
 10
120.603
 20
-178.536
 11
120.367
 21
-178.609
  0
LINE
  8
0
 10
120.367
 20
-178.609
 11
120.123
 21
-178.645
  0
LINE
  8
0
 10
120.123
 20
-178.645
 11
119.877
 21
-178.645
  0
ENDSEC
  0
SECTION
  2
OBJECTS
  0
DICTIONARY
  0
ENDSEC
  0
EOF
