  0
SECTION
  2
BLOCKS
  0
ENDSEC
  0
SECTION
  2
ENTITIES
  0
LINE
  8
0
 10
193.241
 20
-194.985
 11
193.479
 21
-194.942
  0
LINE
  8
0
 10
193.479
 20
-194.942
 11
193.709
 21
-194.87
  0
LINE
  8
0
 10
193.709
 20
-194.87
 11
193.929
 21
-194.771
  0
LINE
  8
0
 10
193.929
 20
-194.771
 11
194.136
 21
-194.646
  0
LINE
  8
0
 10
194.136
 20
-194.646
 11
194.326
 21
-194.497
  0
LINE
  8
0
 10
194.326
 20
-194.497
 11
194.497
 21
-194.326
  0
LINE
  8
0
 10
194.497
 20
-194.326
 11
194.646
 21
-194.136
  0
LINE
  8
0
 10
194.646
 20
-194.136
 11
194.771
 21
-193.929
  0
LINE
  8
0
 10
194.771
 20
-193.929
 11
194.87
 21
-193.709
  0
LINE
  8
0
 10
194.87
 20
-193.709
 11
194.942
 21
-193.479
  0
LINE
  8
0
 10
194.942
 20
-193.479
 11
194.985
 21
-193.241
  0
LINE
  8
0
 10
194.985
 20
-193.241
 11
195
 21
-193
  0
LINE
  8
0
 10
195
 20
-193
 11
195
 21
193
  0
LINE
  8
0
 10
195
 20
193
 11
194.985
 21
193.241
  0
LINE
  8
0
 10
194.985
 20
193.241
 11
194.942
 21
193.479
  0
LINE
  8
0
 10
194.942
 20
193.479
 11
194.87
 21
193.709
  0
LINE
  8
0
 10
194.87
 20
193.709
 11
194.771
 21
193.929
  0
LINE
  8
0
 10
194.771
 20
193.929
 11
194.646
 21
194.136
  0
LINE
  8
0
 10
194.646
 20
194.136
 11
194.497
 21
194.326
  0
LINE
  8
0
 10
194.497
 20
194.326
 11
194.326
 21
194.497
  0
LINE
  8
0
 10
194.326
 20
194.497
 11
194.136
 21
194.646
  0
LINE
  8
0
 10
194.136
 20
194.646
 11
193.929
 21
194.771
  0
LINE
  8
0
 10
193.929
 20
194.771
 11
193.709
 21
194.87
  0
LINE
  8
0
 10
193.709
 20
194.87
 11
193.479
 21
194.942
  0
LINE
  8
0
 10
193.479
 20
194.942
 11
193.241
 21
194.985
  0
LINE
  8
0
 10
193.241
 20
194.985
 11
193
 21
195
  0
LINE
  8
0
 10
193
 20
195
 11
-193
 21
195
  0
LINE
  8
0
 10
-193
 20
195
 11
-193.241
 21
194.985
  0
LINE
  8
0
 10
-193.241
 20
194.985
 11
-193.479
 21
194.942
  0
LINE
  8
0
 10
-193.479
 20
194.942
 11
-193.709
 21
194.87
  0
LINE
  8
0
 10
-193.709
 20
194.87
 11
-193.929
 21
194.771
  0
LINE
  8
0
 10
-193.929
 20
194.771
 11
-194.136
 21
194.646
  0
LINE
  8
0
 10
-194.136
 20
194.646
 11
-194.326
 21
194.497
  0
LINE
  8
0
 10
-194.326
 20
194.497
 11
-194.497
 21
194.326
  0
LINE
  8
0
 10
-194.497
 20
194.326
 11
-194.646
 21
194.136
  0
LINE
  8
0
 10
-194.646
 20
194.136
 11
-194.771
 21
193.929
  0
LINE
  8
0
 10
-194.771
 20
193.929
 11
-194.87
 21
193.709
  0
LINE
  8
0
 10
-194.87
 20
193.709
 11
-194.942
 21
193.479
  0
LINE
  8
0
 10
-194.942
 20
193.479
 11
-194.985
 21
193.241
  0
LINE
  8
0
 10
-194.985
 20
193.241
 11
-195
 21
193
  0
LINE
  8
0
 10
-195
 20
193
 11
-195
 21
-193
  0
LINE
  8
0
 10
-195
 20
-193
 11
-194.985
 21
-193.241
  0
LINE
  8
0
 10
-194.985
 20
-193.241
 11
-194.942
 21
-193.479
  0
LINE
  8
0
 10
-194.942
 20
-193.479
 11
-194.87
 21
-193.709
  0
LINE
  8
0
 10
-194.87
 20
-193.709
 11
-194.771
 21
-193.929
  0
LINE
  8
0
 10
-194.771
 20
-193.929
 11
-194.646
 21
-194.136
  0
LINE
  8
0
 10
-194.646
 20
-194.136
 11
-194.497
 21
-194.326
  0
LINE
  8
0
 10
-194.497
 20
-194.326
 11
-194.326
 21
-194.497
  0
LINE
  8
0
 10
-194.326
 20
-194.497
 11
-194.136
 21
-194.646
  0
LINE
  8
0
 10
-194.136
 20
-194.646
 11
-193.929
 21
-194.771
  0
LINE
  8
0
 10
-193.929
 20
-194.771
 11
-193.709
 21
-194.87
  0
LINE
  8
0
 10
-193.709
 20
-194.87
 11
-193.479
 21
-194.942
  0
LINE
  8
0
 10
-193.479
 20
-194.942
 11
-193.241
 21
-194.985
  0
LINE
  8
0
 10
-193.241
 20
-194.985
 11
-193
 21
-195
  0
LINE
  8
0
 10
-193
 20
-195
 11
193
 21
-195
  0
LINE
  8
0
 10
193
 20
-195
 11
193.241
 21
-194.985
  0
LINE
  8
0
 10
184.665
 20
181.813
 11
184.334
 21
181.866
  0
LINE
  8
0
 10
184.334
 20
181.866
 11
184.01
 21
181.952
  0
LINE
  8
0
 10
184.01
 20
181.952
 11
183.697
 21
182.073
  0
LINE
  8
0
 10
183.697
 20
182.073
 11
183.398
 21
182.225
  0
LINE
  8
0
 10
183.398
 20
182.225
 11
183.117
 21
182.408
  0
LINE
  8
0
 10
183.117
 20
182.408
 11
182.856
 21
182.619
  0
LINE
  8
0
 10
182.856
 20
182.619
 11
182.619
 21
182.856
  0
LINE
  8
0
 10
182.619
 20
182.856
 11
182.408
 21
183.117
  0
LINE
  8
0
 10
182.408
 20
183.117
 11
182.225
 21
183.398
  0
LINE
  8
0
 10
182.225
 20
183.398
 11
182.073
 21
183.697
  0
LINE
  8
0
 10
182.073
 20
183.697
 11
181.952
 21
184.01
  0
LINE
  8
0
 10
181.952
 20
184.01
 11
181.866
 21
184.334
  0
LINE
  8
0
 10
181.866
 20
184.334
 11
181.813
 21
184.665
  0
LINE
  8
0
 10
181.813
 20
184.665
 11
181.796
 21
185
  0
LINE
  8
0
 10
181.796
 20
185
 11
181.813
 21
185.335
  0
LINE
  8
0
 10
181.813
 20
185.335
 11
181.866
 21
185.666
  0
LINE
  8
0
 10
181.866
 20
185.666
 11
181.952
 21
185.99
  0
LINE
  8
0
 10
181.952
 20
185.99
 11
182.073
 21
186.303
  0
LINE
  8
0
 10
182.073
 20
186.303
 11
182.225
 21
186.602
  0
LINE
  8
0
 10
182.225
 20
186.602
 11
182.408
 21
186.883
  0
LINE
  8
0
 10
182.408
 20
186.883
 11
182.619
 21
187.144
  0
LINE
  8
0
 10
182.619
 20
187.144
 11
182.856
 21
187.381
  0
LINE
  8
0
 10
182.856
 20
187.381
 11
183.117
 21
187.592
  0
LINE
  8
0
 10
183.117
 20
187.592
 11
183.398
 21
187.775
  0
LINE
  8
0
 10
183.398
 20
187.775
 11
183.697
 21
187.927
  0
LINE
  8
0
 10
183.697
 20
187.927
 11
184.01
 21
188.048
  0
LINE
  8
0
 10
184.01
 20
188.048
 11
184.334
 21
188.134
  0
LINE
  8
0
 10
184.334
 20
188.134
 11
184.665
 21
188.187
  0
LINE
  8
0
 10
184.665
 20
188.187
 11
185
 21
188.204
  0
LINE
  8
0
 10
185
 20
188.204
 11
185.335
 21
188.187
  0
LINE
  8
0
 10
185.335
 20
188.187
 11
185.666
 21
188.134
  0
LINE
  8
0
 10
185.666
 20
188.134
 11
185.99
 21
188.048
  0
LINE
  8
0
 10
185.99
 20
188.048
 11
186.303
 21
187.927
  0
LINE
  8
0
 10
186.303
 20
187.927
 11
186.602
 21
187.775
  0
LINE
  8
0
 10
186.602
 20
187.775
 11
186.883
 21
187.592
  0
LINE
  8
0
 10
186.883
 20
187.592
 11
187.144
 21
187.381
  0
LINE
  8
0
 10
187.144
 20
187.381
 11
187.381
 21
187.144
  0
LINE
  8
0
 10
187.381
 20
187.144
 11
187.592
 21
186.883
  0
LINE
  8
0
 10
187.592
 20
186.883
 11
187.775
 21
186.602
  0
LINE
  8
0
 10
187.775
 20
186.602
 11
187.927
 21
186.303
  0
LINE
  8
0
 10
187.927
 20
186.303
 11
188.048
 21
185.99
  0
LINE
  8
0
 10
188.048
 20
185.99
 11
188.134
 21
185.666
  0
LINE
  8
0
 10
188.134
 20
185.666
 11
188.187
 21
185.335
  0
LINE
  8
0
 10
188.187
 20
185.335
 11
188.204
 21
185
  0
LINE
  8
0
 10
188.204
 20
185
 11
188.187
 21
184.665
  0
LINE
  8
0
 10
188.187
 20
184.665
 11
188.134
 21
184.334
  0
LINE
  8
0
 10
188.134
 20
184.334
 11
188.048
 21
184.01
  0
LINE
  8
0
 10
188.048
 20
184.01
 11
187.927
 21
183.697
  0
LINE
  8
0
 10
187.927
 20
183.697
 11
187.775
 21
183.398
  0
LINE
  8
0
 10
187.775
 20
183.398
 11
187.592
 21
183.117
  0
LINE
  8
0
 10
187.592
 20
183.117
 11
187.381
 21
182.856
  0
LINE
  8
0
 10
187.381
 20
182.856
 11
187.144
 21
182.619
  0
LINE
  8
0
 10
187.144
 20
182.619
 11
186.883
 21
182.408
  0
LINE
  8
0
 10
186.883
 20
182.408
 11
186.602
 21
182.225
  0
LINE
  8
0
 10
186.602
 20
182.225
 11
186.303
 21
182.073
  0
LINE
  8
0
 10
186.303
 20
182.073
 11
185.99
 21
181.952
  0
LINE
  8
0
 10
185.99
 20
181.952
 11
185.666
 21
181.866
  0
LINE
  8
0
 10
185.666
 20
181.866
 11
185.335
 21
181.813
  0
LINE
  8
0
 10
185.335
 20
181.813
 11
185
 21
181.796
  0
LINE
  8
0
 10
185
 20
181.796
 11
184.665
 21
181.813
  0
LINE
  8
0
 10
-185.335
 20
181.813
 11
-185.666
 21
181.866
  0
LINE
  8
0
 10
-185.666
 20
181.866
 11
-185.99
 21
181.952
  0
LINE
  8
0
 10
-185.99
 20
181.952
 11
-186.303
 21
182.073
  0
LINE
  8
0
 10
-186.303
 20
182.073
 11
-186.602
 21
182.225
  0
LINE
  8
0
 10
-186.602
 20
182.225
 11
-186.883
 21
182.408
  0
LINE
  8
0
 10
-186.883
 20
182.408
 11
-187.144
 21
182.619
  0
LINE
  8
0
 10
-187.144
 20
182.619
 11
-187.381
 21
182.856
  0
LINE
  8
0
 10
-187.381
 20
182.856
 11
-187.592
 21
183.117
  0
LINE
  8
0
 10
-187.592
 20
183.117
 11
-187.775
 21
183.398
  0
LINE
  8
0
 10
-187.775
 20
183.398
 11
-187.927
 21
183.697
  0
LINE
  8
0
 10
-187.927
 20
183.697
 11
-188.048
 21
184.01
  0
LINE
  8
0
 10
-188.048
 20
184.01
 11
-188.134
 21
184.334
  0
LINE
  8
0
 10
-188.134
 20
184.334
 11
-188.187
 21
184.665
  0
LINE
  8
0
 10
-188.187
 20
184.665
 11
-188.204
 21
185
  0
LINE
  8
0
 10
-188.204
 20
185
 11
-188.187
 21
185.335
  0
LINE
  8
0
 10
-188.187
 20
185.335
 11
-188.134
 21
185.666
  0
LINE
  8
0
 10
-188.134
 20
185.666
 11
-188.048
 21
185.99
  0
LINE
  8
0
 10
-188.048
 20
185.99
 11
-187.927
 21
186.303
  0
LINE
  8
0
 10
-187.927
 20
186.303
 11
-187.775
 21
186.602
  0
LINE
  8
0
 10
-187.775
 20
186.602
 11
-187.592
 21
186.883
  0
LINE
  8
0
 10
-187.592
 20
186.883
 11
-187.381
 21
187.144
  0
LINE
  8
0
 10
-187.381
 20
187.144
 11
-187.144
 21
187.381
  0
LINE
  8
0
 10
-187.144
 20
187.381
 11
-186.883
 21
187.592
  0
LINE
  8
0
 10
-186.883
 20
187.592
 11
-186.602
 21
187.775
  0
LINE
  8
0
 10
-186.602
 20
187.775
 11
-186.303
 21
187.927
  0
LINE
  8
0
 10
-186.303
 20
187.927
 11
-185.99
 21
188.048
  0
LINE
  8
0
 10
-185.99
 20
188.048
 11
-185.666
 21
188.134
  0
LINE
  8
0
 10
-185.666
 20
188.134
 11
-185.335
 21
188.187
  0
LINE
  8
0
 10
-185.335
 20
188.187
 11
-185
 21
188.204
  0
LINE
  8
0
 10
-185
 20
188.204
 11
-184.665
 21
188.187
  0
LINE
  8
0
 10
-184.665
 20
188.187
 11
-184.334
 21
188.134
  0
LINE
  8
0
 10
-184.334
 20
188.134
 11
-184.01
 21
188.048
  0
LINE
  8
0
 10
-184.01
 20
188.048
 11
-183.697
 21
187.927
  0
LINE
  8
0
 10
-183.697
 20
187.927
 11
-183.398
 21
187.775
  0
LINE
  8
0
 10
-183.398
 20
187.775
 11
-183.117
 21
187.592
  0
LINE
  8
0
 10
-183.117
 20
187.592
 11
-182.856
 21
187.381
  0
LINE
  8
0
 10
-182.856
 20
187.381
 11
-182.619
 21
187.144
  0
LINE
  8
0
 10
-182.619
 20
187.144
 11
-182.408
 21
186.883
  0
LINE
  8
0
 10
-182.408
 20
186.883
 11
-182.225
 21
186.602
  0
LINE
  8
0
 10
-182.225
 20
186.602
 11
-182.073
 21
186.303
  0
LINE
  8
0
 10
-182.073
 20
186.303
 11
-181.952
 21
185.99
  0
LINE
  8
0
 10
-181.952
 20
185.99
 11
-181.866
 21
185.666
  0
LINE
  8
0
 10
-181.866
 20
185.666
 11
-181.813
 21
185.335
  0
LINE
  8
0
 10
-181.813
 20
185.335
 11
-181.796
 21
185
  0
LINE
  8
0
 10
-181.796
 20
185
 11
-181.813
 21
184.665
  0
LINE
  8
0
 10
-181.813
 20
184.665
 11
-181.866
 21
184.334
  0
LINE
  8
0
 10
-181.866
 20
184.334
 11
-181.952
 21
184.01
  0
LINE
  8
0
 10
-181.952
 20
184.01
 11
-182.073
 21
183.697
  0
LINE
  8
0
 10
-182.073
 20
183.697
 11
-182.225
 21
183.398
  0
LINE
  8
0
 10
-182.225
 20
183.398
 11
-182.408
 21
183.117
  0
LINE
  8
0
 10
-182.408
 20
183.117
 11
-182.619
 21
182.856
  0
LINE
  8
0
 10
-182.619
 20
182.856
 11
-182.856
 21
182.619
  0
LINE
  8
0
 10
-182.856
 20
182.619
 11
-183.117
 21
182.408
  0
LINE
  8
0
 10
-183.117
 20
182.408
 11
-183.398
 21
182.225
  0
LINE
  8
0
 10
-183.398
 20
182.225
 11
-183.697
 21
182.073
  0
LINE
  8
0
 10
-183.697
 20
182.073
 11
-184.01
 21
181.952
  0
LINE
  8
0
 10
-184.01
 20
181.952
 11
-184.334
 21
181.866
  0
LINE
  8
0
 10
-184.334
 20
181.866
 11
-184.665
 21
181.813
  0
LINE
  8
0
 10
-184.665
 20
181.813
 11
-185
 21
181.796
  0
LINE
  8
0
 10
-185
 20
181.796
 11
-185.335
 21
181.813
  0
LINE
  8
0
 10
53.0866
 20
182.81
 11
52.843
 21
182.852
  0
LINE
  8
0
 10
52.843
 20
182.852
 11
52.6056
 21
182.92
  0
LINE
  8
0
 10
52.6056
 20
182.92
 11
52.3773
 21
183.015
  0
LINE
  8
0
 10
52.3773
 20
183.015
 11
52.161
 21
183.134
  0
LINE
  8
0
 10
52.161
 20
183.134
 11
51.9595
 21
183.277
  0
LINE
  8
0
 10
51.9595
 20
183.277
 11
51.7752
 21
183.442
  0
LINE
  8
0
 10
51.7752
 20
183.442
 11
51.6106
 21
183.626
  0
LINE
  8
0
 10
51.6106
 20
183.626
 11
51.4676
 21
183.828
  0
LINE
  8
0
 10
51.4676
 20
183.828
 11
51.3481
 21
184.044
  0
LINE
  8
0
 10
51.3481
 20
184.044
 11
51.2535
 21
184.272
  0
LINE
  8
0
 10
51.2535
 20
184.272
 11
51.1851
 21
184.51
  0
LINE
  8
0
 10
51.1851
 20
184.51
 11
51.1437
 21
184.753
  0
LINE
  8
0
 10
51.1437
 20
184.753
 11
51.1299
 21
185
  0
LINE
  8
0
 10
51.1299
 20
185
 11
51.1437
 21
185.247
  0
LINE
  8
0
 10
51.1437
 20
185.247
 11
51.1851
 21
185.49
  0
LINE
  8
0
 10
51.1851
 20
185.49
 11
51.2535
 21
185.728
  0
LINE
  8
0
 10
51.2535
 20
185.728
 11
51.3481
 21
185.956
  0
LINE
  8
0
 10
51.3481
 20
185.956
 11
51.4676
 21
186.172
  0
LINE
  8
0
 10
51.4676
 20
186.172
 11
51.6106
 21
186.374
  0
LINE
  8
0
 10
51.6106
 20
186.374
 11
51.7752
 21
186.558
  0
LINE
  8
0
 10
51.7752
 20
186.558
 11
51.9595
 21
186.723
  0
LINE
  8
0
 10
51.9595
 20
186.723
 11
52.161
 21
186.866
  0
LINE
  8
0
 10
52.161
 20
186.866
 11
52.3773
 21
186.985
  0
LINE
  8
0
 10
52.3773
 20
186.985
 11
52.6056
 21
187.08
  0
LINE
  8
0
 10
52.6056
 20
187.08
 11
52.843
 21
187.148
  0
LINE
  8
0
 10
52.843
 20
187.148
 11
53.0866
 21
187.19
  0
LINE
  8
0
 10
53.0866
 20
187.19
 11
53.3333
 21
187.203
  0
LINE
  8
0
 10
53.3333
 20
187.203
 11
53.58
 21
187.19
  0
LINE
  8
0
 10
53.58
 20
187.19
 11
53.8236
 21
187.148
  0
LINE
  8
0
 10
53.8236
 20
187.148
 11
54.0611
 21
187.08
  0
LINE
  8
0
 10
54.0611
 20
187.08
 11
54.2894
 21
186.985
  0
LINE
  8
0
 10
54.2894
 20
186.985
 11
54.5056
 21
186.866
  0
LINE
  8
0
 10
54.5056
 20
186.866
 11
54.7072
 21
186.723
  0
LINE
  8
0
 10
54.7072
 20
186.723
 11
54.8914
 21
186.558
  0
LINE
  8
0
 10
54.8914
 20
186.558
 11
55.0561
 21
186.374
  0
LINE
  8
0
 10
55.0561
 20
186.374
 11
55.1991
 21
186.172
  0
LINE
  8
0
 10
55.1991
 20
186.172
 11
55.3186
 21
185.956
  0
LINE
  8
0
 10
55.3186
 20
185.956
 11
55.4131
 21
185.728
  0
LINE
  8
0
 10
55.4131
 20
185.728
 11
55.4816
 21
185.49
  0
LINE
  8
0
 10
55.4816
 20
185.49
 11
55.5229
 21
185.247
  0
LINE
  8
0
 10
55.5229
 20
185.247
 11
55.5368
 21
185
  0
LINE
  8
0
 10
55.5368
 20
185
 11
55.5229
 21
184.753
  0
LINE
  8
0
 10
55.5229
 20
184.753
 11
55.4816
 21
184.51
  0
LINE
  8
0
 10
55.4816
 20
184.51
 11
55.4131
 21
184.272
  0
LINE
  8
0
 10
55.4131
 20
184.272
 11
55.3186
 21
184.044
  0
LINE
  8
0
 10
55.3186
 20
184.044
 11
55.1991
 21
183.828
  0
LINE
  8
0
 10
55.1991
 20
183.828
 11
55.0561
 21
183.626
  0
LINE
  8
0
 10
55.0561
 20
183.626
 11
54.8914
 21
183.442
  0
LINE
  8
0
 10
54.8914
 20
183.442
 11
54.7072
 21
183.277
  0
LINE
  8
0
 10
54.7072
 20
183.277
 11
54.5056
 21
183.134
  0
LINE
  8
0
 10
54.5056
 20
183.134
 11
54.2894
 21
183.015
  0
LINE
  8
0
 10
54.2894
 20
183.015
 11
54.0611
 21
182.92
  0
LINE
  8
0
 10
54.0611
 20
182.92
 11
53.8236
 21
182.852
  0
LINE
  8
0
 10
53.8236
 20
182.852
 11
53.58
 21
182.81
  0
LINE
  8
0
 10
53.58
 20
182.81
 11
53.3333
 21
182.797
  0
LINE
  8
0
 10
53.3333
 20
182.797
 11
53.0866
 21
182.81
  0
LINE
  8
0
 10
159.753
 20
182.81
 11
159.51
 21
182.852
  0
LINE
  8
0
 10
159.51
 20
182.852
 11
159.272
 21
182.92
  0
LINE
  8
0
 10
159.272
 20
182.92
 11
159.044
 21
183.015
  0
LINE
  8
0
 10
159.044
 20
183.015
 11
158.828
 21
183.134
  0
LINE
  8
0
 10
158.828
 20
183.134
 11
158.626
 21
183.277
  0
LINE
  8
0
 10
158.626
 20
183.277
 11
158.442
 21
183.442
  0
LINE
  8
0
 10
158.442
 20
183.442
 11
158.277
 21
183.626
  0
LINE
  8
0
 10
158.277
 20
183.626
 11
158.134
 21
183.828
  0
LINE
  8
0
 10
158.134
 20
183.828
 11
158.015
 21
184.044
  0
LINE
  8
0
 10
158.015
 20
184.044
 11
157.92
 21
184.272
  0
LINE
  8
0
 10
157.92
 20
184.272
 11
157.852
 21
184.51
  0
LINE
  8
0
 10
157.852
 20
184.51
 11
157.81
 21
184.753
  0
LINE
  8
0
 10
157.81
 20
184.753
 11
157.797
 21
185
  0
LINE
  8
0
 10
157.797
 20
185
 11
157.81
 21
185.247
  0
LINE
  8
0
 10
157.81
 20
185.247
 11
157.852
 21
185.49
  0
LINE
  8
0
 10
157.852
 20
185.49
 11
157.92
 21
185.728
  0
LINE
  8
0
 10
157.92
 20
185.728
 11
158.015
 21
185.956
  0
LINE
  8
0
 10
158.015
 20
185.956
 11
158.134
 21
186.172
  0
LINE
  8
0
 10
158.134
 20
186.172
 11
158.277
 21
186.374
  0
LINE
  8
0
 10
158.277
 20
186.374
 11
158.442
 21
186.558
  0
LINE
  8
0
 10
158.442
 20
186.558
 11
158.626
 21
186.723
  0
LINE
  8
0
 10
158.626
 20
186.723
 11
158.828
 21
186.866
  0
LINE
  8
0
 10
158.828
 20
186.866
 11
159.044
 21
186.985
  0
LINE
  8
0
 10
159.044
 20
186.985
 11
159.272
 21
187.08
  0
LINE
  8
0
 10
159.272
 20
187.08
 11
159.51
 21
187.148
  0
LINE
  8
0
 10
159.51
 20
187.148
 11
159.753
 21
187.19
  0
LINE
  8
0
 10
159.753
 20
187.19
 11
160
 21
187.203
  0
LINE
  8
0
 10
160
 20
187.203
 11
160.247
 21
187.19
  0
LINE
  8
0
 10
160.247
 20
187.19
 11
160.49
 21
187.148
  0
LINE
  8
0
 10
160.49
 20
187.148
 11
160.728
 21
187.08
  0
LINE
  8
0
 10
160.728
 20
187.08
 11
160.956
 21
186.985
  0
LINE
  8
0
 10
160.956
 20
186.985
 11
161.172
 21
186.866
  0
LINE
  8
0
 10
161.172
 20
186.866
 11
161.374
 21
186.723
  0
LINE
  8
0
 10
161.374
 20
186.723
 11
161.558
 21
186.558
  0
LINE
  8
0
 10
161.558
 20
186.558
 11
161.723
 21
186.374
  0
LINE
  8
0
 10
161.723
 20
186.374
 11
161.866
 21
186.172
  0
LINE
  8
0
 10
161.866
 20
186.172
 11
161.985
 21
185.956
  0
LINE
  8
0
 10
161.985
 20
185.956
 11
162.08
 21
185.728
  0
LINE
  8
0
 10
162.08
 20
185.728
 11
162.148
 21
185.49
  0
LINE
  8
0
 10
162.148
 20
185.49
 11
162.19
 21
185.247
  0
LINE
  8
0
 10
162.19
 20
185.247
 11
162.203
 21
185
  0
LINE
  8
0
 10
162.203
 20
185
 11
162.19
 21
184.753
  0
LINE
  8
0
 10
162.19
 20
184.753
 11
162.148
 21
184.51
  0
LINE
  8
0
 10
162.148
 20
184.51
 11
162.08
 21
184.272
  0
LINE
  8
0
 10
162.08
 20
184.272
 11
161.985
 21
184.044
  0
LINE
  8
0
 10
161.985
 20
184.044
 11
161.866
 21
183.828
  0
LINE
  8
0
 10
161.866
 20
183.828
 11
161.723
 21
183.626
  0
LINE
  8
0
 10
161.723
 20
183.626
 11
161.558
 21
183.442
  0
LINE
  8
0
 10
161.558
 20
183.442
 11
161.374
 21
183.277
  0
LINE
  8
0
 10
161.374
 20
183.277
 11
161.172
 21
183.134
  0
LINE
  8
0
 10
161.172
 20
183.134
 11
160.956
 21
183.015
  0
LINE
  8
0
 10
160.956
 20
183.015
 11
160.728
 21
182.92
  0
LINE
  8
0
 10
160.728
 20
182.92
 11
160.49
 21
182.852
  0
LINE
  8
0
 10
160.49
 20
182.852
 11
160.247
 21
182.81
  0
LINE
  8
0
 10
160.247
 20
182.81
 11
160
 21
182.797
  0
LINE
  8
0
 10
160
 20
182.797
 11
159.753
 21
182.81
  0
LINE
  8
0
 10
-160.247
 20
182.81
 11
-160.49
 21
182.852
  0
LINE
  8
0
 10
-160.49
 20
182.852
 11
-160.728
 21
182.92
  0
LINE
  8
0
 10
-160.728
 20
182.92
 11
-160.956
 21
183.015
  0
LINE
  8
0
 10
-160.956
 20
183.015
 11
-161.172
 21
183.134
  0
LINE
  8
0
 10
-161.172
 20
183.134
 11
-161.374
 21
183.277
  0
LINE
  8
0
 10
-161.374
 20
183.277
 11
-161.558
 21
183.442
  0
LINE
  8
0
 10
-161.558
 20
183.442
 11
-161.723
 21
183.626
  0
LINE
  8
0
 10
-161.723
 20
183.626
 11
-161.866
 21
183.828
  0
LINE
  8
0
 10
-161.866
 20
183.828
 11
-161.985
 21
184.044
  0
LINE
  8
0
 10
-161.985
 20
184.044
 11
-162.08
 21
184.272
  0
LINE
  8
0
 10
-162.08
 20
184.272
 11
-162.148
 21
184.51
  0
LINE
  8
0
 10
-162.148
 20
184.51
 11
-162.19
 21
184.753
  0
LINE
  8
0
 10
-162.19
 20
184.753
 11
-162.203
 21
185
  0
LINE
  8
0
 10
-162.203
 20
185
 11
-162.19
 21
185.247
  0
LINE
  8
0
 10
-162.19
 20
185.247
 11
-162.148
 21
185.49
  0
LINE
  8
0
 10
-162.148
 20
185.49
 11
-162.08
 21
185.728
  0
LINE
  8
0
 10
-162.08
 20
185.728
 11
-161.985
 21
185.956
  0
LINE
  8
0
 10
-161.985
 20
185.956
 11
-161.866
 21
186.172
  0
LINE
  8
0
 10
-161.866
 20
186.172
 11
-161.723
 21
186.374
  0
LINE
  8
0
 10
-161.723
 20
186.374
 11
-161.558
 21
186.558
  0
LINE
  8
0
 10
-161.558
 20
186.558
 11
-161.374
 21
186.723
  0
LINE
  8
0
 10
-161.374
 20
186.723
 11
-161.172
 21
186.866
  0
LINE
  8
0
 10
-161.172
 20
186.866
 11
-160.956
 21
186.985
  0
LINE
  8
0
 10
-160.956
 20
186.985
 11
-160.728
 21
187.08
  0
LINE
  8
0
 10
-160.728
 20
187.08
 11
-160.49
 21
187.148
  0
LINE
  8
0
 10
-160.49
 20
187.148
 11
-160.247
 21
187.19
  0
LINE
  8
0
 10
-160.247
 20
187.19
 11
-160
 21
187.203
  0
LINE
  8
0
 10
-160
 20
187.203
 11
-159.753
 21
187.19
  0
LINE
  8
0
 10
-159.753
 20
187.19
 11
-159.51
 21
187.148
  0
LINE
  8
0
 10
-159.51
 20
187.148
 11
-159.272
 21
187.08
  0
LINE
  8
0
 10
-159.272
 20
187.08
 11
-159.044
 21
186.985
  0
LINE
  8
0
 10
-159.044
 20
186.985
 11
-158.828
 21
186.866
  0
LINE
  8
0
 10
-158.828
 20
186.866
 11
-158.626
 21
186.723
  0
LINE
  8
0
 10
-158.626
 20
186.723
 11
-158.442
 21
186.558
  0
LINE
  8
0
 10
-158.442
 20
186.558
 11
-158.277
 21
186.374
  0
LINE
  8
0
 10
-158.277
 20
186.374
 11
-158.134
 21
186.172
  0
LINE
  8
0
 10
-158.134
 20
186.172
 11
-158.015
 21
185.956
  0
LINE
  8
0
 10
-158.015
 20
185.956
 11
-157.92
 21
185.728
  0
LINE
  8
0
 10
-157.92
 20
185.728
 11
-157.852
 21
185.49
  0
LINE
  8
0
 10
-157.852
 20
185.49
 11
-157.81
 21
185.247
  0
LINE
  8
0
 10
-157.81
 20
185.247
 11
-157.797
 21
185
  0
LINE
  8
0
 10
-157.797
 20
185
 11
-157.81
 21
184.753
  0
LINE
  8
0
 10
-157.81
 20
184.753
 11
-157.852
 21
184.51
  0
LINE
  8
0
 10
-157.852
 20
184.51
 11
-157.92
 21
184.272
  0
LINE
  8
0
 10
-157.92
 20
184.272
 11
-158.015
 21
184.044
  0
LINE
  8
0
 10
-158.015
 20
184.044
 11
-158.134
 21
183.828
  0
LINE
  8
0
 10
-158.134
 20
183.828
 11
-158.277
 21
183.626
  0
LINE
  8
0
 10
-158.277
 20
183.626
 11
-158.442
 21
183.442
  0
LINE
  8
0
 10
-158.442
 20
183.442
 11
-158.626
 21
183.277
  0
LINE
  8
0
 10
-158.626
 20
183.277
 11
-158.828
 21
183.134
  0
LINE
  8
0
 10
-158.828
 20
183.134
 11
-159.044
 21
183.015
  0
LINE
  8
0
 10
-159.044
 20
183.015
 11
-159.272
 21
182.92
  0
LINE
  8
0
 10
-159.272
 20
182.92
 11
-159.51
 21
182.852
  0
LINE
  8
0
 10
-159.51
 20
182.852
 11
-159.753
 21
182.81
  0
LINE
  8
0
 10
-159.753
 20
182.81
 11
-160
 21
182.797
  0
LINE
  8
0
 10
-160
 20
182.797
 11
-160.247
 21
182.81
  0
LINE
  8
0
 10
-53.58
 20
182.81
 11
-53.8237
 21
182.852
  0
LINE
  8
0
 10
-53.8237
 20
182.852
 11
-54.0611
 21
182.92
  0
LINE
  8
0
 10
-54.0611
 20
182.92
 11
-54.2894
 21
183.015
  0
LINE
  8
0
 10
-54.2894
 20
183.015
 11
-54.5057
 21
183.134
  0
LINE
  8
0
 10
-54.5057
 20
183.134
 11
-54.7072
 21
183.277
  0
LINE
  8
0
 10
-54.7072
 20
183.277
 11
-54.8914
 21
183.442
  0
LINE
  8
0
 10
-54.8914
 20
183.442
 11
-55.0561
 21
183.626
  0
LINE
  8
0
 10
-55.0561
 20
183.626
 11
-55.1991
 21
183.828
  0
LINE
  8
0
 10
-55.1991
 20
183.828
 11
-55.3186
 21
184.044
  0
LINE
  8
0
 10
-55.3186
 20
184.044
 11
-55.4132
 21
184.272
  0
LINE
  8
0
 10
-55.4132
 20
184.272
 11
-55.4816
 21
184.51
  0
LINE
  8
0
 10
-55.4816
 20
184.51
 11
-55.5229
 21
184.753
  0
LINE
  8
0
 10
-55.5229
 20
184.753
 11
-55.5368
 21
185
  0
LINE
  8
0
 10
-55.5368
 20
185
 11
-55.5229
 21
185.247
  0
LINE
  8
0
 10
-55.5229
 20
185.247
 11
-55.4816
 21
185.49
  0
LINE
  8
0
 10
-55.4816
 20
185.49
 11
-55.4132
 21
185.728
  0
LINE
  8
0
 10
-55.4132
 20
185.728
 11
-55.3186
 21
185.956
  0
LINE
  8
0
 10
-55.3186
 20
185.956
 11
-55.1991
 21
186.172
  0
LINE
  8
0
 10
-55.1991
 20
186.172
 11
-55.0561
 21
186.374
  0
LINE
  8
0
 10
-55.0561
 20
186.374
 11
-54.8914
 21
186.558
  0
LINE
  8
0
 10
-54.8914
 20
186.558
 11
-54.7072
 21
186.723
  0
LINE
  8
0
 10
-54.7072
 20
186.723
 11
-54.5057
 21
186.866
  0
LINE
  8
0
 10
-54.5057
 20
186.866
 11
-54.2894
 21
186.985
  0
LINE
  8
0
 10
-54.2894
 20
186.985
 11
-54.0611
 21
187.08
  0
LINE
  8
0
 10
-54.0611
 20
187.08
 11
-53.8237
 21
187.148
  0
LINE
  8
0
 10
-53.8237
 20
187.148
 11
-53.58
 21
187.19
  0
LINE
  8
0
 10
-53.58
 20
187.19
 11
-53.3333
 21
187.203
  0
LINE
  8
0
 10
-53.3333
 20
187.203
 11
-53.0866
 21
187.19
  0
LINE
  8
0
 10
-53.0866
 20
187.19
 11
-52.843
 21
187.148
  0
LINE
  8
0
 10
-52.843
 20
187.148
 11
-52.6056
 21
187.08
  0
LINE
  8
0
 10
-52.6056
 20
187.08
 11
-52.3773
 21
186.985
  0
LINE
  8
0
 10
-52.3773
 20
186.985
 11
-52.161
 21
186.866
  0
LINE
  8
0
 10
-52.161
 20
186.866
 11
-51.9595
 21
186.723
  0
LINE
  8
0
 10
-51.9595
 20
186.723
 11
-51.7753
 21
186.558
  0
LINE
  8
0
 10
-51.7753
 20
186.558
 11
-51.6106
 21
186.374
  0
LINE
  8
0
 10
-51.6106
 20
186.374
 11
-51.4676
 21
186.172
  0
LINE
  8
0
 10
-51.4676
 20
186.172
 11
-51.3481
 21
185.956
  0
LINE
  8
0
 10
-51.3481
 20
185.956
 11
-51.2535
 21
185.728
  0
LINE
  8
0
 10
-51.2535
 20
185.728
 11
-51.1851
 21
185.49
  0
LINE
  8
0
 10
-51.1851
 20
185.49
 11
-51.1437
 21
185.247
  0
LINE
  8
0
 10
-51.1437
 20
185.247
 11
-51.1299
 21
185
  0
LINE
  8
0
 10
-51.1299
 20
185
 11
-51.1437
 21
184.753
  0
LINE
  8
0
 10
-51.1437
 20
184.753
 11
-51.1851
 21
184.51
  0
LINE
  8
0
 10
-51.1851
 20
184.51
 11
-51.2535
 21
184.272
  0
LINE
  8
0
 10
-51.2535
 20
184.272
 11
-51.3481
 21
184.044
  0
LINE
  8
0
 10
-51.3481
 20
184.044
 11
-51.4676
 21
183.828
  0
LINE
  8
0
 10
-51.4676
 20
183.828
 11
-51.6106
 21
183.626
  0
LINE
  8
0
 10
-51.6106
 20
183.626
 11
-51.7753
 21
183.442
  0
LINE
  8
0
 10
-51.7753
 20
183.442
 11
-51.9595
 21
183.277
  0
LINE
  8
0
 10
-51.9595
 20
183.277
 11
-52.161
 21
183.134
  0
LINE
  8
0
 10
-52.161
 20
183.134
 11
-52.3773
 21
183.015
  0
LINE
  8
0
 10
-52.3773
 20
183.015
 11
-52.6056
 21
182.92
  0
LINE
  8
0
 10
-52.6056
 20
182.92
 11
-52.843
 21
182.852
  0
LINE
  8
0
 10
-52.843
 20
182.852
 11
-53.0866
 21
182.81
  0
LINE
  8
0
 10
-53.0866
 20
182.81
 11
-53.3333
 21
182.797
  0
LINE
  8
0
 10
-53.3333
 20
182.797
 11
-53.58
 21
182.81
  0
LINE
  8
0
 10
-185.247
 20
157.81
 11
-185.49
 21
157.852
  0
LINE
  8
0
 10
-185.49
 20
157.852
 11
-185.728
 21
157.92
  0
LINE
  8
0
 10
-185.728
 20
157.92
 11
-185.956
 21
158.015
  0
LINE
  8
0
 10
-185.956
 20
158.015
 11
-186.172
 21
158.134
  0
LINE
  8
0
 10
-186.172
 20
158.134
 11
-186.374
 21
158.277
  0
LINE
  8
0
 10
-186.374
 20
158.277
 11
-186.558
 21
158.442
  0
LINE
  8
0
 10
-186.558
 20
158.442
 11
-186.723
 21
158.626
  0
LINE
  8
0
 10
-186.723
 20
158.626
 11
-186.866
 21
158.828
  0
LINE
  8
0
 10
-186.866
 20
158.828
 11
-186.985
 21
159.044
  0
LINE
  8
0
 10
-186.985
 20
159.044
 11
-187.08
 21
159.272
  0
LINE
  8
0
 10
-187.08
 20
159.272
 11
-187.148
 21
159.51
  0
LINE
  8
0
 10
-187.148
 20
159.51
 11
-187.19
 21
159.753
  0
LINE
  8
0
 10
-187.19
 20
159.753
 11
-187.203
 21
160
  0
LINE
  8
0
 10
-187.203
 20
160
 11
-187.19
 21
160.247
  0
LINE
  8
0
 10
-187.19
 20
160.247
 11
-187.148
 21
160.49
  0
LINE
  8
0
 10
-187.148
 20
160.49
 11
-187.08
 21
160.728
  0
LINE
  8
0
 10
-187.08
 20
160.728
 11
-186.985
 21
160.956
  0
LINE
  8
0
 10
-186.985
 20
160.956
 11
-186.866
 21
161.172
  0
LINE
  8
0
 10
-186.866
 20
161.172
 11
-186.723
 21
161.374
  0
LINE
  8
0
 10
-186.723
 20
161.374
 11
-186.558
 21
161.558
  0
LINE
  8
0
 10
-186.558
 20
161.558
 11
-186.374
 21
161.723
  0
LINE
  8
0
 10
-186.374
 20
161.723
 11
-186.172
 21
161.866
  0
LINE
  8
0
 10
-186.172
 20
161.866
 11
-185.956
 21
161.985
  0
LINE
  8
0
 10
-185.956
 20
161.985
 11
-185.728
 21
162.08
  0
LINE
  8
0
 10
-185.728
 20
162.08
 11
-185.49
 21
162.148
  0
LINE
  8
0
 10
-185.49
 20
162.148
 11
-185.247
 21
162.19
  0
LINE
  8
0
 10
-185.247
 20
162.19
 11
-185
 21
162.203
  0
LINE
  8
0
 10
-185
 20
162.203
 11
-184.753
 21
162.19
  0
LINE
  8
0
 10
-184.753
 20
162.19
 11
-184.51
 21
162.148
  0
LINE
  8
0
 10
-184.51
 20
162.148
 11
-184.272
 21
162.08
  0
LINE
  8
0
 10
-184.272
 20
162.08
 11
-184.044
 21
161.985
  0
LINE
  8
0
 10
-184.044
 20
161.985
 11
-183.828
 21
161.866
  0
LINE
  8
0
 10
-183.828
 20
161.866
 11
-183.626
 21
161.723
  0
LINE
  8
0
 10
-183.626
 20
161.723
 11
-183.442
 21
161.558
  0
LINE
  8
0
 10
-183.442
 20
161.558
 11
-183.277
 21
161.374
  0
LINE
  8
0
 10
-183.277
 20
161.374
 11
-183.134
 21
161.172
  0
LINE
  8
0
 10
-183.134
 20
161.172
 11
-183.015
 21
160.956
  0
LINE
  8
0
 10
-183.015
 20
160.956
 11
-182.92
 21
160.728
  0
LINE
  8
0
 10
-182.92
 20
160.728
 11
-182.852
 21
160.49
  0
LINE
  8
0
 10
-182.852
 20
160.49
 11
-182.81
 21
160.247
  0
LINE
  8
0
 10
-182.81
 20
160.247
 11
-182.797
 21
160
  0
LINE
  8
0
 10
-182.797
 20
160
 11
-182.81
 21
159.753
  0
LINE
  8
0
 10
-182.81
 20
159.753
 11
-182.852
 21
159.51
  0
LINE
  8
0
 10
-182.852
 20
159.51
 11
-182.92
 21
159.272
  0
LINE
  8
0
 10
-182.92
 20
159.272
 11
-183.015
 21
159.044
  0
LINE
  8
0
 10
-183.015
 20
159.044
 11
-183.134
 21
158.828
  0
LINE
  8
0
 10
-183.134
 20
158.828
 11
-183.277
 21
158.626
  0
LINE
  8
0
 10
-183.277
 20
158.626
 11
-183.442
 21
158.442
  0
LINE
  8
0
 10
-183.442
 20
158.442
 11
-183.626
 21
158.277
  0
LINE
  8
0
 10
-183.626
 20
158.277
 11
-183.828
 21
158.134
  0
LINE
  8
0
 10
-183.828
 20
158.134
 11
-184.044
 21
158.015
  0
LINE
  8
0
 10
-184.044
 20
158.015
 11
-184.272
 21
157.92
  0
LINE
  8
0
 10
-184.272
 20
157.92
 11
-184.51
 21
157.852
  0
LINE
  8
0
 10
-184.51
 20
157.852
 11
-184.753
 21
157.81
  0
LINE
  8
0
 10
-184.753
 20
157.81
 11
-185
 21
157.797
  0
LINE
  8
0
 10
-185
 20
157.797
 11
-185.247
 21
157.81
  0
LINE
  8
0
 10
184.753
 20
157.81
 11
184.51
 21
157.852
  0
LINE
  8
0
 10
184.51
 20
157.852
 11
184.272
 21
157.92
  0
LINE
  8
0
 10
184.272
 20
157.92
 11
184.044
 21
158.015
  0
LINE
  8
0
 10
184.044
 20
158.015
 11
183.828
 21
158.134
  0
LINE
  8
0
 10
183.828
 20
158.134
 11
183.626
 21
158.277
  0
LINE
  8
0
 10
183.626
 20
158.277
 11
183.442
 21
158.442
  0
LINE
  8
0
 10
183.442
 20
158.442
 11
183.277
 21
158.626
  0
LINE
  8
0
 10
183.277
 20
158.626
 11
183.134
 21
158.828
  0
LINE
  8
0
 10
183.134
 20
158.828
 11
183.015
 21
159.044
  0
LINE
  8
0
 10
183.015
 20
159.044
 11
182.92
 21
159.272
  0
LINE
  8
0
 10
182.92
 20
159.272
 11
182.852
 21
159.51
  0
LINE
  8
0
 10
182.852
 20
159.51
 11
182.81
 21
159.753
  0
LINE
  8
0
 10
182.81
 20
159.753
 11
182.797
 21
160
  0
LINE
  8
0
 10
182.797
 20
160
 11
182.81
 21
160.247
  0
LINE
  8
0
 10
182.81
 20
160.247
 11
182.852
 21
160.49
  0
LINE
  8
0
 10
182.852
 20
160.49
 11
182.92
 21
160.728
  0
LINE
  8
0
 10
182.92
 20
160.728
 11
183.015
 21
160.956
  0
LINE
  8
0
 10
183.015
 20
160.956
 11
183.134
 21
161.172
  0
LINE
  8
0
 10
183.134
 20
161.172
 11
183.277
 21
161.374
  0
LINE
  8
0
 10
183.277
 20
161.374
 11
183.442
 21
161.558
  0
LINE
  8
0
 10
183.442
 20
161.558
 11
183.626
 21
161.723
  0
LINE
  8
0
 10
183.626
 20
161.723
 11
183.828
 21
161.866
  0
LINE
  8
0
 10
183.828
 20
161.866
 11
184.044
 21
161.985
  0
LINE
  8
0
 10
184.044
 20
161.985
 11
184.272
 21
162.08
  0
LINE
  8
0
 10
184.272
 20
162.08
 11
184.51
 21
162.148
  0
LINE
  8
0
 10
184.51
 20
162.148
 11
184.753
 21
162.19
  0
LINE
  8
0
 10
184.753
 20
162.19
 11
185
 21
162.203
  0
LINE
  8
0
 10
185
 20
162.203
 11
185.247
 21
162.19
  0
LINE
  8
0
 10
185.247
 20
162.19
 11
185.49
 21
162.148
  0
LINE
  8
0
 10
185.49
 20
162.148
 11
185.728
 21
162.08
  0
LINE
  8
0
 10
185.728
 20
162.08
 11
185.956
 21
161.985
  0
LINE
  8
0
 10
185.956
 20
161.985
 11
186.172
 21
161.866
  0
LINE
  8
0
 10
186.172
 20
161.866
 11
186.374
 21
161.723
  0
LINE
  8
0
 10
186.374
 20
161.723
 11
186.558
 21
161.558
  0
LINE
  8
0
 10
186.558
 20
161.558
 11
186.723
 21
161.374
  0
LINE
  8
0
 10
186.723
 20
161.374
 11
186.866
 21
161.172
  0
LINE
  8
0
 10
186.866
 20
161.172
 11
186.985
 21
160.956
  0
LINE
  8
0
 10
186.985
 20
160.956
 11
187.08
 21
160.728
  0
LINE
  8
0
 10
187.08
 20
160.728
 11
187.148
 21
160.49
  0
LINE
  8
0
 10
187.148
 20
160.49
 11
187.19
 21
160.247
  0
LINE
  8
0
 10
187.19
 20
160.247
 11
187.203
 21
160
  0
LINE
  8
0
 10
187.203
 20
160
 11
187.19
 21
159.753
  0
LINE
  8
0
 10
187.19
 20
159.753
 11
187.148
 21
159.51
  0
LINE
  8
0
 10
187.148
 20
159.51
 11
187.08
 21
159.272
  0
LINE
  8
0
 10
187.08
 20
159.272
 11
186.985
 21
159.044
  0
LINE
  8
0
 10
186.985
 20
159.044
 11
186.866
 21
158.828
  0
LINE
  8
0
 10
186.866
 20
158.828
 11
186.723
 21
158.626
  0
LINE
  8
0
 10
186.723
 20
158.626
 11
186.558
 21
158.442
  0
LINE
  8
0
 10
186.558
 20
158.442
 11
186.374
 21
158.277
  0
LINE
  8
0
 10
186.374
 20
158.277
 11
186.172
 21
158.134
  0
LINE
  8
0
 10
186.172
 20
158.134
 11
185.956
 21
158.015
  0
LINE
  8
0
 10
185.956
 20
158.015
 11
185.728
 21
157.92
  0
LINE
  8
0
 10
185.728
 20
157.92
 11
185.49
 21
157.852
  0
LINE
  8
0
 10
185.49
 20
157.852
 11
185.247
 21
157.81
  0
LINE
  8
0
 10
185.247
 20
157.81
 11
185
 21
157.797
  0
LINE
  8
0
 10
185
 20
157.797
 11
184.753
 21
157.81
  0
LINE
  8
0
 10
131.255
 20
130.768
 11
131.019
 21
130.84
  0
LINE
  8
0
 10
131.019
 20
130.84
 11
130.802
 21
130.956
  0
LINE
  8
0
 10
130.802
 20
130.956
 11
130.612
 21
131.112
  0
LINE
  8
0
 10
130.612
 20
131.112
 11
130.456
 21
131.302
  0
LINE
  8
0
 10
130.456
 20
131.302
 11
130.34
 21
131.519
  0
LINE
  8
0
 10
130.34
 20
131.519
 11
130.268
 21
131.755
  0
LINE
  8
0
 10
130.268
 20
131.755
 11
130.244
 21
132
  0
LINE
  8
0
 10
130.244
 20
132
 11
130.268
 21
132.245
  0
LINE
  8
0
 10
130.268
 20
132.245
 11
130.34
 21
132.481
  0
LINE
  8
0
 10
130.34
 20
132.481
 11
130.456
 21
132.698
  0
LINE
  8
0
 10
130.456
 20
132.698
 11
130.612
 21
132.888
  0
LINE
  8
0
 10
130.612
 20
132.888
 11
130.802
 21
133.044
  0
LINE
  8
0
 10
130.802
 20
133.044
 11
131.019
 21
133.16
  0
LINE
  8
0
 10
131.019
 20
133.16
 11
131.255
 21
133.232
  0
LINE
  8
0
 10
131.255
 20
133.232
 11
131.5
 21
133.256
  0
LINE
  8
0
 10
131.5
 20
133.256
 11
131.745
 21
133.232
  0
LINE
  8
0
 10
131.745
 20
133.232
 11
131.981
 21
133.16
  0
LINE
  8
0
 10
131.981
 20
133.16
 11
132.198
 21
133.044
  0
LINE
  8
0
 10
132.198
 20
133.044
 11
132.388
 21
132.888
  0
LINE
  8
0
 10
132.388
 20
132.888
 11
132.544
 21
132.698
  0
LINE
  8
0
 10
132.544
 20
132.698
 11
132.66
 21
132.481
  0
LINE
  8
0
 10
132.66
 20
132.481
 11
132.732
 21
132.245
  0
LINE
  8
0
 10
132.732
 20
132.245
 11
132.756
 21
132
  0
LINE
  8
0
 10
132.756
 20
132
 11
132.732
 21
131.755
  0
LINE
  8
0
 10
132.732
 20
131.755
 11
132.66
 21
131.519
  0
LINE
  8
0
 10
132.66
 20
131.519
 11
132.544
 21
131.302
  0
LINE
  8
0
 10
132.544
 20
131.302
 11
132.388
 21
131.112
  0
LINE
  8
0
 10
132.388
 20
131.112
 11
132.198
 21
130.956
  0
LINE
  8
0
 10
132.198
 20
130.956
 11
131.981
 21
130.84
  0
LINE
  8
0
 10
131.981
 20
130.84
 11
131.745
 21
130.768
  0
LINE
  8
0
 10
131.745
 20
130.768
 11
131.5
 21
130.744
  0
LINE
  8
0
 10
131.5
 20
130.744
 11
131.255
 21
130.768
  0
LINE
  8
0
 10
101.955
 20
130.768
 11
101.719
 21
130.84
  0
LINE
  8
0
 10
101.719
 20
130.84
 11
101.502
 21
130.956
  0
LINE
  8
0
 10
101.502
 20
130.956
 11
101.312
 21
131.112
  0
LINE
  8
0
 10
101.312
 20
131.112
 11
101.156
 21
131.302
  0
LINE
  8
0
 10
101.156
 20
131.302
 11
101.04
 21
131.519
  0
LINE
  8
0
 10
101.04
 20
131.519
 11
100.968
 21
131.755
  0
LINE
  8
0
 10
100.968
 20
131.755
 11
100.944
 21
132
  0
LINE
  8
0
 10
100.944
 20
132
 11
100.968
 21
132.245
  0
LINE
  8
0
 10
100.968
 20
132.245
 11
101.04
 21
132.481
  0
LINE
  8
0
 10
101.04
 20
132.481
 11
101.156
 21
132.698
  0
LINE
  8
0
 10
101.156
 20
132.698
 11
101.312
 21
132.888
  0
LINE
  8
0
 10
101.312
 20
132.888
 11
101.502
 21
133.044
  0
LINE
  8
0
 10
101.502
 20
133.044
 11
101.719
 21
133.16
  0
LINE
  8
0
 10
101.719
 20
133.16
 11
101.955
 21
133.232
  0
LINE
  8
0
 10
101.955
 20
133.232
 11
102.2
 21
133.256
  0
LINE
  8
0
 10
102.2
 20
133.256
 11
102.445
 21
133.232
  0
LINE
  8
0
 10
102.445
 20
133.232
 11
102.681
 21
133.16
  0
LINE
  8
0
 10
102.681
 20
133.16
 11
102.898
 21
133.044
  0
LINE
  8
0
 10
102.898
 20
133.044
 11
103.088
 21
132.888
  0
LINE
  8
0
 10
103.088
 20
132.888
 11
103.244
 21
132.698
  0
LINE
  8
0
 10
103.244
 20
132.698
 11
103.36
 21
132.481
  0
LINE
  8
0
 10
103.36
 20
132.481
 11
103.432
 21
132.245
  0
LINE
  8
0
 10
103.432
 20
132.245
 11
103.456
 21
132
  0
LINE
  8
0
 10
103.456
 20
132
 11
103.432
 21
131.755
  0
LINE
  8
0
 10
103.432
 20
131.755
 11
103.36
 21
131.519
  0
LINE
  8
0
 10
103.36
 20
131.519
 11
103.244
 21
131.302
  0
LINE
  8
0
 10
103.244
 20
131.302
 11
103.088
 21
131.112
  0
LINE
  8
0
 10
103.088
 20
131.112
 11
102.898
 21
130.956
  0
LINE
  8
0
 10
102.898
 20
130.956
 11
102.681
 21
130.84
  0
LINE
  8
0
 10
102.681
 20
130.84
 11
102.445
 21
130.768
  0
LINE
  8
0
 10
102.445
 20
130.768
 11
102.2
 21
130.744
  0
LINE
  8
0
 10
102.2
 20
130.744
 11
101.955
 21
130.768
  0
LINE
  8
0
 10
7.25328
 20
128.81
 11
7.00967
 21
128.852
  0
LINE
  8
0
 10
7.00967
 20
128.852
 11
6.77223
 21
128.92
  0
LINE
  8
0
 10
6.77223
 20
128.92
 11
6.54395
 21
129.015
  0
LINE
  8
0
 10
6.54395
 20
129.015
 11
6.32768
 21
129.134
  0
LINE
  8
0
 10
6.32768
 20
129.134
 11
6.12616
 21
129.277
  0
LINE
  8
0
 10
6.12616
 20
129.277
 11
5.94191
 21
129.442
  0
LINE
  8
0
 10
5.94191
 20
129.442
 11
5.77725
 21
129.626
  0
LINE
  8
0
 10
5.77725
 20
129.626
 11
5.63426
 21
129.828
  0
LINE
  8
0
 10
5.63426
 20
129.828
 11
5.51474
 21
130.044
  0
LINE
  8
0
 10
5.51474
 20
130.044
 11
5.42018
 21
130.272
  0
LINE
  8
0
 10
5.42018
 20
130.272
 11
5.35178
 21
130.51
  0
LINE
  8
0
 10
5.35178
 20
130.51
 11
5.31038
 21
130.753
  0
LINE
  8
0
 10
5.31038
 20
130.753
 11
5.29652
 21
131
  0
LINE
  8
0
 10
5.29652
 20
131
 11
5.31038
 21
131.247
  0
LINE
  8
0
 10
5.31038
 20
131.247
 11
5.35178
 21
131.49
  0
LINE
  8
0
 10
5.35178
 20
131.49
 11
5.42018
 21
131.728
  0
LINE
  8
0
 10
5.42018
 20
131.728
 11
5.51474
 21
131.956
  0
LINE
  8
0
 10
5.51474
 20
131.956
 11
5.63426
 21
132.172
  0
LINE
  8
0
 10
5.63426
 20
132.172
 11
5.77725
 21
132.374
  0
LINE
  8
0
 10
5.77725
 20
132.374
 11
5.94191
 21
132.558
  0
LINE
  8
0
 10
5.94191
 20
132.558
 11
6.12616
 21
132.723
  0
LINE
  8
0
 10
6.12616
 20
132.723
 11
6.32768
 21
132.866
  0
LINE
  8
0
 10
6.32768
 20
132.866
 11
6.54395
 21
132.985
  0
LINE
  8
0
 10
6.54395
 20
132.985
 11
6.77223
 21
133.08
  0
LINE
  8
0
 10
6.77223
 20
133.08
 11
7.00967
 21
133.148
  0
LINE
  8
0
 10
7.00967
 20
133.148
 11
7.25328
 21
133.19
  0
LINE
  8
0
 10
7.25328
 20
133.19
 11
7.5
 21
133.203
  0
LINE
  8
0
 10
7.5
 20
133.203
 11
7.7467
 21
133.19
  0
LINE
  8
0
 10
7.7467
 20
133.19
 11
7.99031
 21
133.148
  0
LINE
  8
0
 10
7.99031
 20
133.148
 11
8.22775
 21
133.08
  0
LINE
  8
0
 10
8.22775
 20
133.08
 11
8.45604
 21
132.985
  0
LINE
  8
0
 10
8.45604
 20
132.985
 11
8.6723
 21
132.866
  0
LINE
  8
0
 10
8.6723
 20
132.866
 11
8.87383
 21
132.723
  0
LINE
  8
0
 10
8.87383
 20
132.723
 11
9.05807
 21
132.558
  0
LINE
  8
0
 10
9.05807
 20
132.558
 11
9.22273
 21
132.374
  0
LINE
  8
0
 10
9.22273
 20
132.374
 11
9.36572
 21
132.172
  0
LINE
  8
0
 10
9.36572
 20
132.172
 11
9.48524
 21
131.956
  0
LINE
  8
0
 10
9.48524
 20
131.956
 11
9.5798
 21
131.728
  0
LINE
  8
0
 10
9.5798
 20
131.728
 11
9.64821
 21
131.49
  0
LINE
  8
0
 10
9.64821
 20
131.49
 11
9.68961
 21
131.247
  0
LINE
  8
0
 10
9.68961
 20
131.247
 11
9.70346
 21
131
  0
LINE
  8
0
 10
9.70346
 20
131
 11
9.68961
 21
130.753
  0
LINE
  8
0
 10
9.68961
 20
130.753
 11
9.64821
 21
130.51
  0
LINE
  8
0
 10
9.64821
 20
130.51
 11
9.5798
 21
130.272
  0
LINE
  8
0
 10
9.5798
 20
130.272
 11
9.48524
 21
130.044
  0
LINE
  8
0
 10
9.48524
 20
130.044
 11
9.36572
 21
129.828
  0
LINE
  8
0
 10
9.36572
 20
129.828
 11
9.22273
 21
129.626
  0
LINE
  8
0
 10
9.22273
 20
129.626
 11
9.05807
 21
129.442
  0
LINE
  8
0
 10
9.05807
 20
129.442
 11
8.87383
 21
129.277
  0
LINE
  8
0
 10
8.87383
 20
129.277
 11
8.6723
 21
129.134
  0
LINE
  8
0
 10
8.6723
 20
129.134
 11
8.45604
 21
129.015
  0
LINE
  8
0
 10
8.45604
 20
129.015
 11
8.22775
 21
128.92
  0
LINE
  8
0
 10
8.22775
 20
128.92
 11
7.99031
 21
128.852
  0
LINE
  8
0
 10
7.99031
 20
128.852
 11
7.7467
 21
128.81
  0
LINE
  8
0
 10
7.7467
 20
128.81
 11
7.5
 21
128.797
  0
LINE
  8
0
 10
7.5
 20
128.797
 11
7.25328
 21
128.81
  0
LINE
  8
0
 10
-41.1236
 20
129.6
 11
-41.3682
 21
129.637
  0
LINE
  8
0
 10
-41.3682
 20
129.637
 11
-41.6045
 21
129.71
  0
LINE
  8
0
 10
-41.6045
 20
129.71
 11
-41.8273
 21
129.817
  0
LINE
  8
0
 10
-41.8273
 20
129.817
 11
-42.0316
 21
129.956
  0
LINE
  8
0
 10
-42.0316
 20
129.956
 11
-42.2129
 21
130.125
  0
LINE
  8
0
 10
-42.2129
 20
130.125
 11
-42.3671
 21
130.318
  0
LINE
  8
0
 10
-42.3671
 20
130.318
 11
-42.4908
 21
130.532
  0
LINE
  8
0
 10
-42.4908
 20
130.532
 11
-42.5811
 21
130.762
  0
LINE
  8
0
 10
-42.5811
 20
130.762
 11
-42.6361
 21
131.003
  0
LINE
  8
0
 10
-42.6361
 20
131.003
 11
-42.6546
 21
131.25
  0
LINE
  8
0
 10
-42.6546
 20
131.25
 11
-42.6361
 21
131.497
  0
LINE
  8
0
 10
-42.6361
 20
131.497
 11
-42.5811
 21
131.738
  0
LINE
  8
0
 10
-42.5811
 20
131.738
 11
-42.4908
 21
131.968
  0
LINE
  8
0
 10
-42.4908
 20
131.968
 11
-42.3671
 21
132.182
  0
LINE
  8
0
 10
-42.3671
 20
132.182
 11
-42.2129
 21
132.375
  0
LINE
  8
0
 10
-42.2129
 20
132.375
 11
-42.0316
 21
132.544
  0
LINE
  8
0
 10
-42.0316
 20
132.544
 11
-41.8273
 21
132.683
  0
LINE
  8
0
 10
-41.8273
 20
132.683
 11
-41.6045
 21
132.79
  0
LINE
  8
0
 10
-41.6045
 20
132.79
 11
-41.3682
 21
132.863
  0
LINE
  8
0
 10
-41.3682
 20
132.863
 11
-41.1236
 21
132.9
  0
LINE
  8
0
 10
-41.1236
 20
132.9
 11
-40.8763
 21
132.9
  0
LINE
  8
0
 10
-40.8763
 20
132.9
 11
-40.6318
 21
132.863
  0
LINE
  8
0
 10
-40.6318
 20
132.863
 11
-40.3955
 21
132.79
  0
LINE
  8
0
 10
-40.3955
 20
132.79
 11
-40.1727
 21
132.683
  0
LINE
  8
0
 10
-40.1727
 20
132.683
 11
-39.9684
 21
132.544
  0
LINE
  8
0
 10
-39.9684
 20
132.544
 11
-39.7871
 21
132.375
  0
LINE
  8
0
 10
-39.7871
 20
132.375
 11
-39.6329
 21
132.182
  0
LINE
  8
0
 10
-39.6329
 20
132.182
 11
-39.5092
 21
131.968
  0
LINE
  8
0
 10
-39.5092
 20
131.968
 11
-39.4189
 21
131.738
  0
LINE
  8
0
 10
-39.4189
 20
131.738
 11
-39.3638
 21
131.497
  0
LINE
  8
0
 10
-39.3638
 20
131.497
 11
-39.3454
 21
131.25
  0
LINE
  8
0
 10
-39.3454
 20
131.25
 11
-39.3638
 21
131.003
  0
LINE
  8
0
 10
-39.3638
 20
131.003
 11
-39.4189
 21
130.762
  0
LINE
  8
0
 10
-39.4189
 20
130.762
 11
-39.5092
 21
130.532
  0
LINE
  8
0
 10
-39.5092
 20
130.532
 11
-39.6329
 21
130.318
  0
LINE
  8
0
 10
-39.6329
 20
130.318
 11
-39.7871
 21
130.125
  0
LINE
  8
0
 10
-39.7871
 20
130.125
 11
-39.9684
 21
129.956
  0
LINE
  8
0
 10
-39.9684
 20
129.956
 11
-40.1727
 21
129.817
  0
LINE
  8
0
 10
-40.1727
 20
129.817
 11
-40.3955
 21
129.71
  0
LINE
  8
0
 10
-40.3955
 20
129.71
 11
-40.6318
 21
129.637
  0
LINE
  8
0
 10
-40.6318
 20
129.637
 11
-40.8763
 21
129.6
  0
LINE
  8
0
 10
-40.8763
 20
129.6
 11
-41.1236
 21
129.6
  0
LINE
  8
0
 10
131.255
 20
56.3681
 11
131.019
 21
56.4396
  0
LINE
  8
0
 10
131.019
 20
56.4396
 11
130.802
 21
56.5556
  0
LINE
  8
0
 10
130.802
 20
56.5556
 11
130.612
 21
56.7118
  0
LINE
  8
0
 10
130.612
 20
56.7118
 11
130.456
 21
56.9022
  0
LINE
  8
0
 10
130.456
 20
56.9022
 11
130.34
 21
57.1193
  0
LINE
  8
0
 10
130.34
 20
57.1193
 11
130.268
 21
57.3549
  0
LINE
  8
0
 10
130.268
 20
57.3549
 11
130.244
 21
57.6
  0
LINE
  8
0
 10
130.244
 20
57.6
 11
130.268
 21
57.845
  0
LINE
  8
0
 10
130.268
 20
57.845
 11
130.34
 21
58.0807
  0
LINE
  8
0
 10
130.34
 20
58.0807
 11
130.456
 21
58.2978
  0
LINE
  8
0
 10
130.456
 20
58.2978
 11
130.612
 21
58.4882
  0
LINE
  8
0
 10
130.612
 20
58.4882
 11
130.802
 21
58.6444
  0
LINE
  8
0
 10
130.802
 20
58.6444
 11
131.019
 21
58.7604
  0
LINE
  8
0
 10
131.019
 20
58.7604
 11
131.255
 21
58.8319
  0
LINE
  8
0
 10
131.255
 20
58.8319
 11
131.5
 21
58.856
  0
LINE
  8
0
 10
131.5
 20
58.856
 11
131.745
 21
58.8319
  0
LINE
  8
0
 10
131.745
 20
58.8319
 11
131.981
 21
58.7604
  0
LINE
  8
0
 10
131.981
 20
58.7604
 11
132.198
 21
58.6444
  0
LINE
  8
0
 10
132.198
 20
58.6444
 11
132.388
 21
58.4882
  0
LINE
  8
0
 10
132.388
 20
58.4882
 11
132.544
 21
58.2978
  0
LINE
  8
0
 10
132.544
 20
58.2978
 11
132.66
 21
58.0807
  0
LINE
  8
0
 10
132.66
 20
58.0807
 11
132.732
 21
57.845
  0
LINE
  8
0
 10
132.732
 20
57.845
 11
132.756
 21
57.6
  0
LINE
  8
0
 10
132.756
 20
57.6
 11
132.732
 21
57.3549
  0
LINE
  8
0
 10
132.732
 20
57.3549
 11
132.66
 21
57.1193
  0
LINE
  8
0
 10
132.66
 20
57.1193
 11
132.544
 21
56.9022
  0
LINE
  8
0
 10
132.544
 20
56.9022
 11
132.388
 21
56.7118
  0
LINE
  8
0
 10
132.388
 20
56.7118
 11
132.198
 21
56.5556
  0
LINE
  8
0
 10
132.198
 20
56.5556
 11
131.981
 21
56.4396
  0
LINE
  8
0
 10
131.981
 20
56.4396
 11
131.745
 21
56.3681
  0
LINE
  8
0
 10
131.745
 20
56.3681
 11
131.5
 21
56.3439
  0
LINE
  8
0
 10
131.5
 20
56.3439
 11
131.255
 21
56.3681
  0
LINE
  8
0
 10
101.955
 20
56.3681
 11
101.719
 21
56.4396
  0
LINE
  8
0
 10
101.719
 20
56.4396
 11
101.502
 21
56.5556
  0
LINE
  8
0
 10
101.502
 20
56.5556
 11
101.312
 21
56.7118
  0
LINE
  8
0
 10
101.312
 20
56.7118
 11
101.156
 21
56.9022
  0
LINE
  8
0
 10
101.156
 20
56.9022
 11
101.04
 21
57.1193
  0
LINE
  8
0
 10
101.04
 20
57.1193
 11
100.968
 21
57.3549
  0
LINE
  8
0
 10
100.968
 20
57.3549
 11
100.944
 21
57.6
  0
LINE
  8
0
 10
100.944
 20
57.6
 11
100.968
 21
57.845
  0
LINE
  8
0
 10
100.968
 20
57.845
 11
101.04
 21
58.0807
  0
LINE
  8
0
 10
101.04
 20
58.0807
 11
101.156
 21
58.2978
  0
LINE
  8
0
 10
101.156
 20
58.2978
 11
101.312
 21
58.4882
  0
LINE
  8
0
 10
101.312
 20
58.4882
 11
101.502
 21
58.6444
  0
LINE
  8
0
 10
101.502
 20
58.6444
 11
101.719
 21
58.7604
  0
LINE
  8
0
 10
101.719
 20
58.7604
 11
101.955
 21
58.8319
  0
LINE
  8
0
 10
101.955
 20
58.8319
 11
102.2
 21
58.856
  0
LINE
  8
0
 10
102.2
 20
58.856
 11
102.445
 21
58.8319
  0
LINE
  8
0
 10
102.445
 20
58.8319
 11
102.681
 21
58.7604
  0
LINE
  8
0
 10
102.681
 20
58.7604
 11
102.898
 21
58.6444
  0
LINE
  8
0
 10
102.898
 20
58.6444
 11
103.088
 21
58.4882
  0
LINE
  8
0
 10
103.088
 20
58.4882
 11
103.244
 21
58.2978
  0
LINE
  8
0
 10
103.244
 20
58.2978
 11
103.36
 21
58.0807
  0
LINE
  8
0
 10
103.36
 20
58.0807
 11
103.432
 21
57.845
  0
LINE
  8
0
 10
103.432
 20
57.845
 11
103.456
 21
57.6
  0
LINE
  8
0
 10
103.456
 20
57.6
 11
103.432
 21
57.3549
  0
LINE
  8
0
 10
103.432
 20
57.3549
 11
103.36
 21
57.1193
  0
LINE
  8
0
 10
103.36
 20
57.1193
 11
103.244
 21
56.9022
  0
LINE
  8
0
 10
103.244
 20
56.9022
 11
103.088
 21
56.7118
  0
LINE
  8
0
 10
103.088
 20
56.7118
 11
102.898
 21
56.5556
  0
LINE
  8
0
 10
102.898
 20
56.5556
 11
102.681
 21
56.4396
  0
LINE
  8
0
 10
102.681
 20
56.4396
 11
102.445
 21
56.3681
  0
LINE
  8
0
 10
102.445
 20
56.3681
 11
102.2
 21
56.3439
  0
LINE
  8
0
 10
102.2
 20
56.3439
 11
101.955
 21
56.3681
  0
LINE
  8
0
 10
184.753
 20
51.1437
 11
184.51
 21
51.1851
  0
LINE
  8
0
 10
184.51
 20
51.1851
 11
184.272
 21
51.2535
  0
LINE
  8
0
 10
184.272
 20
51.2535
 11
184.044
 21
51.3481
  0
LINE
  8
0
 10
184.044
 20
51.3481
 11
183.828
 21
51.4676
  0
LINE
  8
0
 10
183.828
 20
51.4676
 11
183.626
 21
51.6106
  0
LINE
  8
0
 10
183.626
 20
51.6106
 11
183.442
 21
51.7752
  0
LINE
  8
0
 10
183.442
 20
51.7752
 11
183.277
 21
51.9595
  0
LINE
  8
0
 10
183.277
 20
51.9595
 11
183.134
 21
52.161
  0
LINE
  8
0
 10
183.134
 20
52.161
 11
183.015
 21
52.3773
  0
LINE
  8
0
 10
183.015
 20
52.3773
 11
182.92
 21
52.6056
  0
LINE
  8
0
 10
182.92
 20
52.6056
 11
182.852
 21
52.843
  0
LINE
  8
0
 10
182.852
 20
52.843
 11
182.81
 21
53.0866
  0
LINE
  8
0
 10
182.81
 20
53.0866
 11
182.797
 21
53.3333
  0
LINE
  8
0
 10
182.797
 20
53.3333
 11
182.81
 21
53.58
  0
LINE
  8
0
 10
182.81
 20
53.58
 11
182.852
 21
53.8236
  0
LINE
  8
0
 10
182.852
 20
53.8236
 11
182.92
 21
54.0611
  0
LINE
  8
0
 10
182.92
 20
54.0611
 11
183.015
 21
54.2894
  0
LINE
  8
0
 10
183.015
 20
54.2894
 11
183.134
 21
54.5056
  0
LINE
  8
0
 10
183.134
 20
54.5056
 11
183.277
 21
54.7072
  0
LINE
  8
0
 10
183.277
 20
54.7072
 11
183.442
 21
54.8914
  0
LINE
  8
0
 10
183.442
 20
54.8914
 11
183.626
 21
55.0561
  0
LINE
  8
0
 10
183.626
 20
55.0561
 11
183.828
 21
55.1991
  0
LINE
  8
0
 10
183.828
 20
55.1991
 11
184.044
 21
55.3186
  0
LINE
  8
0
 10
184.044
 20
55.3186
 11
184.272
 21
55.4131
  0
LINE
  8
0
 10
184.272
 20
55.4131
 11
184.51
 21
55.4816
  0
LINE
  8
0
 10
184.51
 20
55.4816
 11
184.753
 21
55.5229
  0
LINE
  8
0
 10
184.753
 20
55.5229
 11
185
 21
55.5368
  0
LINE
  8
0
 10
185
 20
55.5368
 11
185.247
 21
55.5229
  0
LINE
  8
0
 10
185.247
 20
55.5229
 11
185.49
 21
55.4816
  0
LINE
  8
0
 10
185.49
 20
55.4816
 11
185.728
 21
55.4131
  0
LINE
  8
0
 10
185.728
 20
55.4131
 11
185.956
 21
55.3186
  0
LINE
  8
0
 10
185.956
 20
55.3186
 11
186.172
 21
55.1991
  0
LINE
  8
0
 10
186.172
 20
55.1991
 11
186.374
 21
55.0561
  0
LINE
  8
0
 10
186.374
 20
55.0561
 11
186.558
 21
54.8914
  0
LINE
  8
0
 10
186.558
 20
54.8914
 11
186.723
 21
54.7072
  0
LINE
  8
0
 10
186.723
 20
54.7072
 11
186.866
 21
54.5056
  0
LINE
  8
0
 10
186.866
 20
54.5056
 11
186.985
 21
54.2894
  0
LINE
  8
0
 10
186.985
 20
54.2894
 11
187.08
 21
54.0611
  0
LINE
  8
0
 10
187.08
 20
54.0611
 11
187.148
 21
53.8236
  0
LINE
  8
0
 10
187.148
 20
53.8236
 11
187.19
 21
53.58
  0
LINE
  8
0
 10
187.19
 20
53.58
 11
187.203
 21
53.3333
  0
LINE
  8
0
 10
187.203
 20
53.3333
 11
187.19
 21
53.0866
  0
LINE
  8
0
 10
187.19
 20
53.0866
 11
187.148
 21
52.843
  0
LINE
  8
0
 10
187.148
 20
52.843
 11
187.08
 21
52.6056
  0
LINE
  8
0
 10
187.08
 20
52.6056
 11
186.985
 21
52.3773
  0
LINE
  8
0
 10
186.985
 20
52.3773
 11
186.866
 21
52.161
  0
LINE
  8
0
 10
186.866
 20
52.161
 11
186.723
 21
51.9595
  0
LINE
  8
0
 10
186.723
 20
51.9595
 11
186.558
 21
51.7752
  0
LINE
  8
0
 10
186.558
 20
51.7752
 11
186.374
 21
51.6106
  0
LINE
  8
0
 10
186.374
 20
51.6106
 11
186.172
 21
51.4676
  0
LINE
  8
0
 10
186.172
 20
51.4676
 11
185.956
 21
51.3481
  0
LINE
  8
0
 10
185.956
 20
51.3481
 11
185.728
 21
51.2535
  0
LINE
  8
0
 10
185.728
 20
51.2535
 11
185.49
 21
51.1851
  0
LINE
  8
0
 10
185.49
 20
51.1851
 11
185.247
 21
51.1437
  0
LINE
  8
0
 10
185.247
 20
51.1437
 11
185
 21
51.1299
  0
LINE
  8
0
 10
185
 20
51.1299
 11
184.753
 21
51.1437
  0
LINE
  8
0
 10
-185.247
 20
51.1437
 11
-185.49
 21
51.1851
  0
LINE
  8
0
 10
-185.49
 20
51.1851
 11
-185.728
 21
51.2535
  0
LINE
  8
0
 10
-185.728
 20
51.2535
 11
-185.956
 21
51.3481
  0
LINE
  8
0
 10
-185.956
 20
51.3481
 11
-186.172
 21
51.4676
  0
LINE
  8
0
 10
-186.172
 20
51.4676
 11
-186.374
 21
51.6106
  0
LINE
  8
0
 10
-186.374
 20
51.6106
 11
-186.558
 21
51.7752
  0
LINE
  8
0
 10
-186.558
 20
51.7752
 11
-186.723
 21
51.9595
  0
LINE
  8
0
 10
-186.723
 20
51.9595
 11
-186.866
 21
52.161
  0
LINE
  8
0
 10
-186.866
 20
52.161
 11
-186.985
 21
52.3773
  0
LINE
  8
0
 10
-186.985
 20
52.3773
 11
-187.08
 21
52.6056
  0
LINE
  8
0
 10
-187.08
 20
52.6056
 11
-187.148
 21
52.843
  0
LINE
  8
0
 10
-187.148
 20
52.843
 11
-187.19
 21
53.0866
  0
LINE
  8
0
 10
-187.19
 20
53.0866
 11
-187.203
 21
53.3333
  0
LINE
  8
0
 10
-187.203
 20
53.3333
 11
-187.19
 21
53.58
  0
LINE
  8
0
 10
-187.19
 20
53.58
 11
-187.148
 21
53.8236
  0
LINE
  8
0
 10
-187.148
 20
53.8236
 11
-187.08
 21
54.0611
  0
LINE
  8
0
 10
-187.08
 20
54.0611
 11
-186.985
 21
54.2894
  0
LINE
  8
0
 10
-186.985
 20
54.2894
 11
-186.866
 21
54.5056
  0
LINE
  8
0
 10
-186.866
 20
54.5056
 11
-186.723
 21
54.7072
  0
LINE
  8
0
 10
-186.723
 20
54.7072
 11
-186.558
 21
54.8914
  0
LINE
  8
0
 10
-186.558
 20
54.8914
 11
-186.374
 21
55.0561
  0
LINE
  8
0
 10
-186.374
 20
55.0561
 11
-186.172
 21
55.1991
  0
LINE
  8
0
 10
-186.172
 20
55.1991
 11
-185.956
 21
55.3186
  0
LINE
  8
0
 10
-185.956
 20
55.3186
 11
-185.728
 21
55.4131
  0
LINE
  8
0
 10
-185.728
 20
55.4131
 11
-185.49
 21
55.4816
  0
LINE
  8
0
 10
-185.49
 20
55.4816
 11
-185.247
 21
55.5229
  0
LINE
  8
0
 10
-185.247
 20
55.5229
 11
-185
 21
55.5368
  0
LINE
  8
0
 10
-185
 20
55.5368
 11
-184.753
 21
55.5229
  0
LINE
  8
0
 10
-184.753
 20
55.5229
 11
-184.51
 21
55.4816
  0
LINE
  8
0
 10
-184.51
 20
55.4816
 11
-184.272
 21
55.4131
  0
LINE
  8
0
 10
-184.272
 20
55.4131
 11
-184.044
 21
55.3186
  0
LINE
  8
0
 10
-184.044
 20
55.3186
 11
-183.828
 21
55.1991
  0
LINE
  8
0
 10
-183.828
 20
55.1991
 11
-183.626
 21
55.0561
  0
LINE
  8
0
 10
-183.626
 20
55.0561
 11
-183.442
 21
54.8914
  0
LINE
  8
0
 10
-183.442
 20
54.8914
 11
-183.277
 21
54.7072
  0
LINE
  8
0
 10
-183.277
 20
54.7072
 11
-183.134
 21
54.5056
  0
LINE
  8
0
 10
-183.134
 20
54.5056
 11
-183.015
 21
54.2894
  0
LINE
  8
0
 10
-183.015
 20
54.2894
 11
-182.92
 21
54.0611
  0
LINE
  8
0
 10
-182.92
 20
54.0611
 11
-182.852
 21
53.8236
  0
LINE
  8
0
 10
-182.852
 20
53.8236
 11
-182.81
 21
53.58
  0
LINE
  8
0
 10
-182.81
 20
53.58
 11
-182.797
 21
53.3333
  0
LINE
  8
0
 10
-182.797
 20
53.3333
 11
-182.81
 21
53.0866
  0
LINE
  8
0
 10
-182.81
 20
53.0866
 11
-182.852
 21
52.843
  0
LINE
  8
0
 10
-182.852
 20
52.843
 11
-182.92
 21
52.6056
  0
LINE
  8
0
 10
-182.92
 20
52.6056
 11
-183.015
 21
52.3773
  0
LINE
  8
0
 10
-183.015
 20
52.3773
 11
-183.134
 21
52.161
  0
LINE
  8
0
 10
-183.134
 20
52.161
 11
-183.277
 21
51.9595
  0
LINE
  8
0
 10
-183.277
 20
51.9595
 11
-183.442
 21
51.7752
  0
LINE
  8
0
 10
-183.442
 20
51.7752
 11
-183.626
 21
51.6106
  0
LINE
  8
0
 10
-183.626
 20
51.6106
 11
-183.828
 21
51.4676
  0
LINE
  8
0
 10
-183.828
 20
51.4676
 11
-184.044
 21
51.3481
  0
LINE
  8
0
 10
-184.044
 20
51.3481
 11
-184.272
 21
51.2535
  0
LINE
  8
0
 10
-184.272
 20
51.2535
 11
-184.51
 21
51.1851
  0
LINE
  8
0
 10
-184.51
 20
51.1851
 11
-184.753
 21
51.1437
  0
LINE
  8
0
 10
-184.753
 20
51.1437
 11
-185
 21
51.1299
  0
LINE
  8
0
 10
-185
 20
51.1299
 11
-185.247
 21
51.1437
  0
LINE
  8
0
 10
-41.1236
 20
42.1
 11
-41.3682
 21
42.1369
  0
LINE
  8
0
 10
-41.3682
 20
42.1369
 11
-41.6045
 21
42.2097
  0
LINE
  8
0
 10
-41.6045
 20
42.2097
 11
-41.8273
 21
42.317
  0
LINE
  8
0
 10
-41.8273
 20
42.317
 11
-42.0316
 21
42.4564
  0
LINE
  8
0
 10
-42.0316
 20
42.4564
 11
-42.2129
 21
42.6246
  0
LINE
  8
0
 10
-42.2129
 20
42.6246
 11
-42.3671
 21
42.8179
  0
LINE
  8
0
 10
-42.3671
 20
42.8179
 11
-42.4908
 21
43.0321
  0
LINE
  8
0
 10
-42.4908
 20
43.0321
 11
-42.5811
 21
43.2623
  0
LINE
  8
0
 10
-42.5811
 20
43.2623
 11
-42.6361
 21
43.5034
  0
LINE
  8
0
 10
-42.6361
 20
43.5034
 11
-42.6546
 21
43.75
  0
LINE
  8
0
 10
-42.6546
 20
43.75
 11
-42.6361
 21
43.9966
  0
LINE
  8
0
 10
-42.6361
 20
43.9966
 11
-42.5811
 21
44.2377
  0
LINE
  8
0
 10
-42.5811
 20
44.2377
 11
-42.4908
 21
44.4679
  0
LINE
  8
0
 10
-42.4908
 20
44.4679
 11
-42.3671
 21
44.6821
  0
LINE
  8
0
 10
-42.3671
 20
44.6821
 11
-42.2129
 21
44.8754
  0
LINE
  8
0
 10
-42.2129
 20
44.8754
 11
-42.0316
 21
45.0436
  0
LINE
  8
0
 10
-42.0316
 20
45.0436
 11
-41.8273
 21
45.1829
  0
LINE
  8
0
 10
-41.8273
 20
45.1829
 11
-41.6045
 21
45.2902
  0
LINE
  8
0
 10
-41.6045
 20
45.2902
 11
-41.3682
 21
45.3631
  0
LINE
  8
0
 10
-41.3682
 20
45.3631
 11
-41.1236
 21
45.4
  0
LINE
  8
0
 10
-41.1236
 20
45.4
 11
-40.8763
 21
45.4
  0
LINE
  8
0
 10
-40.8763
 20
45.4
 11
-40.6318
 21
45.3631
  0
LINE
  8
0
 10
-40.6318
 20
45.3631
 11
-40.3955
 21
45.2902
  0
LINE
  8
0
 10
-40.3955
 20
45.2902
 11
-40.1727
 21
45.1829
  0
LINE
  8
0
 10
-40.1727
 20
45.1829
 11
-39.9684
 21
45.0436
  0
LINE
  8
0
 10
-39.9684
 20
45.0436
 11
-39.7871
 21
44.8754
  0
LINE
  8
0
 10
-39.7871
 20
44.8754
 11
-39.6329
 21
44.6821
  0
LINE
  8
0
 10
-39.6329
 20
44.6821
 11
-39.5092
 21
44.4679
  0
LINE
  8
0
 10
-39.5092
 20
44.4679
 11
-39.4189
 21
44.2377
  0
LINE
  8
0
 10
-39.4189
 20
44.2377
 11
-39.3638
 21
43.9966
  0
LINE
  8
0
 10
-39.3638
 20
43.9966
 11
-39.3454
 21
43.75
  0
LINE
  8
0
 10
-39.3454
 20
43.75
 11
-39.3638
 21
43.5034
  0
LINE
  8
0
 10
-39.3638
 20
43.5034
 11
-39.4189
 21
43.2623
  0
LINE
  8
0
 10
-39.4189
 20
43.2623
 11
-39.5092
 21
43.0321
  0
LINE
  8
0
 10
-39.5092
 20
43.0321
 11
-39.6329
 21
42.8179
  0
LINE
  8
0
 10
-39.6329
 20
42.8179
 11
-39.7871
 21
42.6246
  0
LINE
  8
0
 10
-39.7871
 20
42.6246
 11
-39.9684
 21
42.4564
  0
LINE
  8
0
 10
-39.9684
 20
42.4564
 11
-40.1727
 21
42.317
  0
LINE
  8
0
 10
-40.1727
 20
42.317
 11
-40.3955
 21
42.2097
  0
LINE
  8
0
 10
-40.3955
 20
42.2097
 11
-40.6318
 21
42.1369
  0
LINE
  8
0
 10
-40.6318
 20
42.1369
 11
-40.8763
 21
42.1
  0
LINE
  8
0
 10
-40.8763
 20
42.1
 11
-41.1236
 21
42.1
  0
LINE
  8
0
 10
-41.1236
 20
-45.4
 11
-41.3682
 21
-45.3631
  0
LINE
  8
0
 10
-41.3682
 20
-45.3631
 11
-41.6045
 21
-45.2902
  0
LINE
  8
0
 10
-41.6045
 20
-45.2902
 11
-41.8273
 21
-45.1829
  0
LINE
  8
0
 10
-41.8273
 20
-45.1829
 11
-42.0316
 21
-45.0436
  0
LINE
  8
0
 10
-42.0316
 20
-45.0436
 11
-42.2129
 21
-44.8754
  0
LINE
  8
0
 10
-42.2129
 20
-44.8754
 11
-42.3671
 21
-44.6821
  0
LINE
  8
0
 10
-42.3671
 20
-44.6821
 11
-42.4908
 21
-44.4679
  0
LINE
  8
0
 10
-42.4908
 20
-44.4679
 11
-42.5811
 21
-44.2377
  0
LINE
  8
0
 10
-42.5811
 20
-44.2377
 11
-42.6361
 21
-43.9966
  0
LINE
  8
0
 10
-42.6361
 20
-43.9966
 11
-42.6546
 21
-43.75
  0
LINE
  8
0
 10
-42.6546
 20
-43.75
 11
-42.6361
 21
-43.5034
  0
LINE
  8
0
 10
-42.6361
 20
-43.5034
 11
-42.5811
 21
-43.2623
  0
LINE
  8
0
 10
-42.5811
 20
-43.2623
 11
-42.4908
 21
-43.0321
  0
LINE
  8
0
 10
-42.4908
 20
-43.0321
 11
-42.3671
 21
-42.8179
  0
LINE
  8
0
 10
-42.3671
 20
-42.8179
 11
-42.2129
 21
-42.6246
  0
LINE
  8
0
 10
-42.2129
 20
-42.6246
 11
-42.0316
 21
-42.4564
  0
LINE
  8
0
 10
-42.0316
 20
-42.4564
 11
-41.8273
 21
-42.317
  0
LINE
  8
0
 10
-41.8273
 20
-42.317
 11
-41.6045
 21
-42.2097
  0
LINE
  8
0
 10
-41.6045
 20
-42.2097
 11
-41.3682
 21
-42.1369
  0
LINE
  8
0
 10
-41.3682
 20
-42.1369
 11
-41.1236
 21
-42.1
  0
LINE
  8
0
 10
-41.1236
 20
-42.1
 11
-40.8763
 21
-42.1
  0
LINE
  8
0
 10
-40.8763
 20
-42.1
 11
-40.6318
 21
-42.1369
  0
LINE
  8
0
 10
-40.6318
 20
-42.1369
 11
-40.3955
 21
-42.2097
  0
LINE
  8
0
 10
-40.3955
 20
-42.2097
 11
-40.1727
 21
-42.317
  0
LINE
  8
0
 10
-40.1727
 20
-42.317
 11
-39.9684
 21
-42.4564
  0
LINE
  8
0
 10
-39.9684
 20
-42.4564
 11
-39.7871
 21
-42.6246
  0
LINE
  8
0
 10
-39.7871
 20
-42.6246
 11
-39.6329
 21
-42.8179
  0
LINE
  8
0
 10
-39.6329
 20
-42.8179
 11
-39.5092
 21
-43.0321
  0
LINE
  8
0
 10
-39.5092
 20
-43.0321
 11
-39.4189
 21
-43.2623
  0
LINE
  8
0
 10
-39.4189
 20
-43.2623
 11
-39.3638
 21
-43.5034
  0
LINE
  8
0
 10
-39.3638
 20
-43.5034
 11
-39.3454
 21
-43.75
  0
LINE
  8
0
 10
-39.3454
 20
-43.75
 11
-39.3638
 21
-43.9966
  0
LINE
  8
0
 10
-39.3638
 20
-43.9966
 11
-39.4189
 21
-44.2377
  0
LINE
  8
0
 10
-39.4189
 20
-44.2377
 11
-39.5092
 21
-44.4679
  0
LINE
  8
0
 10
-39.5092
 20
-44.4679
 11
-39.6329
 21
-44.6821
  0
LINE
  8
0
 10
-39.6329
 20
-44.6821
 11
-39.7871
 21
-44.8754
  0
LINE
  8
0
 10
-39.7871
 20
-44.8754
 11
-39.9684
 21
-45.0436
  0
LINE
  8
0
 10
-39.9684
 20
-45.0436
 11
-40.1727
 21
-45.1829
  0
LINE
  8
0
 10
-40.1727
 20
-45.1829
 11
-40.3955
 21
-45.2902
  0
LINE
  8
0
 10
-40.3955
 20
-45.2902
 11
-40.6318
 21
-45.3631
  0
LINE
  8
0
 10
-40.6318
 20
-45.3631
 11
-40.8763
 21
-45.4
  0
LINE
  8
0
 10
-40.8763
 20
-45.4
 11
-41.1236
 21
-45.4
  0
LINE
  8
0
 10
184.753
 20
-55.5229
 11
184.51
 21
-55.4816
  0
LINE
  8
0
 10
184.51
 20
-55.4816
 11
184.272
 21
-55.4132
  0
LINE
  8
0
 10
184.272
 20
-55.4132
 11
184.044
 21
-55.3186
  0
LINE
  8
0
 10
184.044
 20
-55.3186
 11
183.828
 21
-55.1991
  0
LINE
  8
0
 10
183.828
 20
-55.1991
 11
183.626
 21
-55.0561
  0
LINE
  8
0
 10
183.626
 20
-55.0561
 11
183.442
 21
-54.8914
  0
LINE
  8
0
 10
183.442
 20
-54.8914
 11
183.277
 21
-54.7072
  0
LINE
  8
0
 10
183.277
 20
-54.7072
 11
183.134
 21
-54.5057
  0
LINE
  8
0
 10
183.134
 20
-54.5057
 11
183.015
 21
-54.2894
  0
LINE
  8
0
 10
183.015
 20
-54.2894
 11
182.92
 21
-54.0611
  0
LINE
  8
0
 10
182.92
 20
-54.0611
 11
182.852
 21
-53.8237
  0
LINE
  8
0
 10
182.852
 20
-53.8237
 11
182.81
 21
-53.58
  0
LINE
  8
0
 10
182.81
 20
-53.58
 11
182.797
 21
-53.3333
  0
LINE
  8
0
 10
182.797
 20
-53.3333
 11
182.81
 21
-53.0866
  0
LINE
  8
0
 10
182.81
 20
-53.0866
 11
182.852
 21
-52.843
  0
LINE
  8
0
 10
182.852
 20
-52.843
 11
182.92
 21
-52.6056
  0
LINE
  8
0
 10
182.92
 20
-52.6056
 11
183.015
 21
-52.3773
  0
LINE
  8
0
 10
183.015
 20
-52.3773
 11
183.134
 21
-52.161
  0
LINE
  8
0
 10
183.134
 20
-52.161
 11
183.277
 21
-51.9595
  0
LINE
  8
0
 10
183.277
 20
-51.9595
 11
183.442
 21
-51.7753
  0
LINE
  8
0
 10
183.442
 20
-51.7753
 11
183.626
 21
-51.6106
  0
LINE
  8
0
 10
183.626
 20
-51.6106
 11
183.828
 21
-51.4676
  0
LINE
  8
0
 10
183.828
 20
-51.4676
 11
184.044
 21
-51.3481
  0
LINE
  8
0
 10
184.044
 20
-51.3481
 11
184.272
 21
-51.2535
  0
LINE
  8
0
 10
184.272
 20
-51.2535
 11
184.51
 21
-51.1851
  0
LINE
  8
0
 10
184.51
 20
-51.1851
 11
184.753
 21
-51.1437
  0
LINE
  8
0
 10
184.753
 20
-51.1437
 11
185
 21
-51.1299
  0
LINE
  8
0
 10
185
 20
-51.1299
 11
185.247
 21
-51.1437
  0
LINE
  8
0
 10
185.247
 20
-51.1437
 11
185.49
 21
-51.1851
  0
LINE
  8
0
 10
185.49
 20
-51.1851
 11
185.728
 21
-51.2535
  0
LINE
  8
0
 10
185.728
 20
-51.2535
 11
185.956
 21
-51.3481
  0
LINE
  8
0
 10
185.956
 20
-51.3481
 11
186.172
 21
-51.4676
  0
LINE
  8
0
 10
186.172
 20
-51.4676
 11
186.374
 21
-51.6106
  0
LINE
  8
0
 10
186.374
 20
-51.6106
 11
186.558
 21
-51.7753
  0
LINE
  8
0
 10
186.558
 20
-51.7753
 11
186.723
 21
-51.9595
  0
LINE
  8
0
 10
186.723
 20
-51.9595
 11
186.866
 21
-52.161
  0
LINE
  8
0
 10
186.866
 20
-52.161
 11
186.985
 21
-52.3773
  0
LINE
  8
0
 10
186.985
 20
-52.3773
 11
187.08
 21
-52.6056
  0
LINE
  8
0
 10
187.08
 20
-52.6056
 11
187.148
 21
-52.843
  0
LINE
  8
0
 10
187.148
 20
-52.843
 11
187.19
 21
-53.0866
  0
LINE
  8
0
 10
187.19
 20
-53.0866
 11
187.203
 21
-53.3333
  0
LINE
  8
0
 10
187.203
 20
-53.3333
 11
187.19
 21
-53.58
  0
LINE
  8
0
 10
187.19
 20
-53.58
 11
187.148
 21
-53.8237
  0
LINE
  8
0
 10
187.148
 20
-53.8237
 11
187.08
 21
-54.0611
  0
LINE
  8
0
 10
187.08
 20
-54.0611
 11
186.985
 21
-54.2894
  0
LINE
  8
0
 10
186.985
 20
-54.2894
 11
186.866
 21
-54.5057
  0
LINE
  8
0
 10
186.866
 20
-54.5057
 11
186.723
 21
-54.7072
  0
LINE
  8
0
 10
186.723
 20
-54.7072
 11
186.558
 21
-54.8914
  0
LINE
  8
0
 10
186.558
 20
-54.8914
 11
186.374
 21
-55.0561
  0
LINE
  8
0
 10
186.374
 20
-55.0561
 11
186.172
 21
-55.1991
  0
LINE
  8
0
 10
186.172
 20
-55.1991
 11
185.956
 21
-55.3186
  0
LINE
  8
0
 10
185.956
 20
-55.3186
 11
185.728
 21
-55.4132
  0
LINE
  8
0
 10
185.728
 20
-55.4132
 11
185.49
 21
-55.4816
  0
LINE
  8
0
 10
185.49
 20
-55.4816
 11
185.247
 21
-55.5229
  0
LINE
  8
0
 10
185.247
 20
-55.5229
 11
185
 21
-55.5368
  0
LINE
  8
0
 10
185
 20
-55.5368
 11
184.753
 21
-55.5229
  0
LINE
  8
0
 10
-185.247
 20
-55.5229
 11
-185.49
 21
-55.4816
  0
LINE
  8
0
 10
-185.49
 20
-55.4816
 11
-185.728
 21
-55.4132
  0
LINE
  8
0
 10
-185.728
 20
-55.4132
 11
-185.956
 21
-55.3186
  0
LINE
  8
0
 10
-185.956
 20
-55.3186
 11
-186.172
 21
-55.1991
  0
LINE
  8
0
 10
-186.172
 20
-55.1991
 11
-186.374
 21
-55.0561
  0
LINE
  8
0
 10
-186.374
 20
-55.0561
 11
-186.558
 21
-54.8914
  0
LINE
  8
0
 10
-186.558
 20
-54.8914
 11
-186.723
 21
-54.7072
  0
LINE
  8
0
 10
-186.723
 20
-54.7072
 11
-186.866
 21
-54.5057
  0
LINE
  8
0
 10
-186.866
 20
-54.5057
 11
-186.985
 21
-54.2894
  0
LINE
  8
0
 10
-186.985
 20
-54.2894
 11
-187.08
 21
-54.0611
  0
LINE
  8
0
 10
-187.08
 20
-54.0611
 11
-187.148
 21
-53.8237
  0
LINE
  8
0
 10
-187.148
 20
-53.8237
 11
-187.19
 21
-53.58
  0
LINE
  8
0
 10
-187.19
 20
-53.58
 11
-187.203
 21
-53.3333
  0
LINE
  8
0
 10
-187.203
 20
-53.3333
 11
-187.19
 21
-53.0866
  0
LINE
  8
0
 10
-187.19
 20
-53.0866
 11
-187.148
 21
-52.843
  0
LINE
  8
0
 10
-187.148
 20
-52.843
 11
-187.08
 21
-52.6056
  0
LINE
  8
0
 10
-187.08
 20
-52.6056
 11
-186.985
 21
-52.3773
  0
LINE
  8
0
 10
-186.985
 20
-52.3773
 11
-186.866
 21
-52.161
  0
LINE
  8
0
 10
-186.866
 20
-52.161
 11
-186.723
 21
-51.9595
  0
LINE
  8
0
 10
-186.723
 20
-51.9595
 11
-186.558
 21
-51.7753
  0
LINE
  8
0
 10
-186.558
 20
-51.7753
 11
-186.374
 21
-51.6106
  0
LINE
  8
0
 10
-186.374
 20
-51.6106
 11
-186.172
 21
-51.4676
  0
LINE
  8
0
 10
-186.172
 20
-51.4676
 11
-185.956
 21
-51.3481
  0
LINE
  8
0
 10
-185.956
 20
-51.3481
 11
-185.728
 21
-51.2535
  0
LINE
  8
0
 10
-185.728
 20
-51.2535
 11
-185.49
 21
-51.1851
  0
LINE
  8
0
 10
-185.49
 20
-51.1851
 11
-185.247
 21
-51.1437
  0
LINE
  8
0
 10
-185.247
 20
-51.1437
 11
-185
 21
-51.1299
  0
LINE
  8
0
 10
-185
 20
-51.1299
 11
-184.753
 21
-51.1437
  0
LINE
  8
0
 10
-184.753
 20
-51.1437
 11
-184.51
 21
-51.1851
  0
LINE
  8
0
 10
-184.51
 20
-51.1851
 11
-184.272
 21
-51.2535
  0
LINE
  8
0
 10
-184.272
 20
-51.2535
 11
-184.044
 21
-51.3481
  0
LINE
  8
0
 10
-184.044
 20
-51.3481
 11
-183.828
 21
-51.4676
  0
LINE
  8
0
 10
-183.828
 20
-51.4676
 11
-183.626
 21
-51.6106
  0
LINE
  8
0
 10
-183.626
 20
-51.6106
 11
-183.442
 21
-51.7753
  0
LINE
  8
0
 10
-183.442
 20
-51.7753
 11
-183.277
 21
-51.9595
  0
LINE
  8
0
 10
-183.277
 20
-51.9595
 11
-183.134
 21
-52.161
  0
LINE
  8
0
 10
-183.134
 20
-52.161
 11
-183.015
 21
-52.3773
  0
LINE
  8
0
 10
-183.015
 20
-52.3773
 11
-182.92
 21
-52.6056
  0
LINE
  8
0
 10
-182.92
 20
-52.6056
 11
-182.852
 21
-52.843
  0
LINE
  8
0
 10
-182.852
 20
-52.843
 11
-182.81
 21
-53.0866
  0
LINE
  8
0
 10
-182.81
 20
-53.0866
 11
-182.797
 21
-53.3333
  0
LINE
  8
0
 10
-182.797
 20
-53.3333
 11
-182.81
 21
-53.58
  0
LINE
  8
0
 10
-182.81
 20
-53.58
 11
-182.852
 21
-53.8237
  0
LINE
  8
0
 10
-182.852
 20
-53.8237
 11
-182.92
 21
-54.0611
  0
LINE
  8
0
 10
-182.92
 20
-54.0611
 11
-183.015
 21
-54.2894
  0
LINE
  8
0
 10
-183.015
 20
-54.2894
 11
-183.134
 21
-54.5057
  0
LINE
  8
0
 10
-183.134
 20
-54.5057
 11
-183.277
 21
-54.7072
  0
LINE
  8
0
 10
-183.277
 20
-54.7072
 11
-183.442
 21
-54.8914
  0
LINE
  8
0
 10
-183.442
 20
-54.8914
 11
-183.626
 21
-55.0561
  0
LINE
  8
0
 10
-183.626
 20
-55.0561
 11
-183.828
 21
-55.1991
  0
LINE
  8
0
 10
-183.828
 20
-55.1991
 11
-184.044
 21
-55.3186
  0
LINE
  8
0
 10
-184.044
 20
-55.3186
 11
-184.272
 21
-55.4132
  0
LINE
  8
0
 10
-184.272
 20
-55.4132
 11
-184.51
 21
-55.4816
  0
LINE
  8
0
 10
-184.51
 20
-55.4816
 11
-184.753
 21
-55.5229
  0
LINE
  8
0
 10
-184.753
 20
-55.5229
 11
-185
 21
-55.5368
  0
LINE
  8
0
 10
-185
 20
-55.5368
 11
-185.247
 21
-55.5229
  0
LINE
  8
0
 10
24.3764
 20
-58.65
 11
24.1318
 21
-58.6132
  0
LINE
  8
0
 10
24.1318
 20
-58.6132
 11
23.8955
 21
-58.5403
  0
LINE
  8
0
 10
23.8955
 20
-58.5403
 11
23.6727
 21
-58.433
  0
LINE
  8
0
 10
23.6727
 20
-58.433
 11
23.4684
 21
-58.2937
  0
LINE
  8
0
 10
23.4684
 20
-58.2937
 11
23.2871
 21
-58.1254
  0
LINE
  8
0
 10
23.2871
 20
-58.1254
 11
23.1329
 21
-57.9321
  0
LINE
  8
0
 10
23.1329
 20
-57.9321
 11
23.0092
 21
-57.7179
  0
LINE
  8
0
 10
23.0092
 20
-57.7179
 11
22.9189
 21
-57.4877
  0
LINE
  8
0
 10
22.9189
 20
-57.4877
 11
22.8639
 21
-57.2466
  0
LINE
  8
0
 10
22.8639
 20
-57.2466
 11
22.8454
 21
-57
  0
LINE
  8
0
 10
22.8454
 20
-57
 11
22.8639
 21
-56.7534
  0
LINE
  8
0
 10
22.8639
 20
-56.7534
 11
22.9189
 21
-56.5123
  0
LINE
  8
0
 10
22.9189
 20
-56.5123
 11
23.0092
 21
-56.2821
  0
LINE
  8
0
 10
23.0092
 20
-56.2821
 11
23.1329
 21
-56.0679
  0
LINE
  8
0
 10
23.1329
 20
-56.0679
 11
23.2871
 21
-55.8746
  0
LINE
  8
0
 10
23.2871
 20
-55.8746
 11
23.4684
 21
-55.7064
  0
LINE
  8
0
 10
23.4684
 20
-55.7064
 11
23.6727
 21
-55.5671
  0
LINE
  8
0
 10
23.6727
 20
-55.5671
 11
23.8955
 21
-55.4598
  0
LINE
  8
0
 10
23.8955
 20
-55.4598
 11
24.1318
 21
-55.3869
  0
LINE
  8
0
 10
24.1318
 20
-55.3869
 11
24.3764
 21
-55.35
  0
LINE
  8
0
 10
24.3764
 20
-55.35
 11
24.6237
 21
-55.35
  0
LINE
  8
0
 10
24.6237
 20
-55.35
 11
24.8682
 21
-55.3869
  0
LINE
  8
0
 10
24.8682
 20
-55.3869
 11
25.1045
 21
-55.4598
  0
LINE
  8
0
 10
25.1045
 20
-55.4598
 11
25.3273
 21
-55.5671
  0
LINE
  8
0
 10
25.3273
 20
-55.5671
 11
25.5316
 21
-55.7064
  0
LINE
  8
0
 10
25.5316
 20
-55.7064
 11
25.7129
 21
-55.8746
  0
LINE
  8
0
 10
25.7129
 20
-55.8746
 11
25.8671
 21
-56.0679
  0
LINE
  8
0
 10
25.8671
 20
-56.0679
 11
25.9908
 21
-56.2821
  0
LINE
  8
0
 10
25.9908
 20
-56.2821
 11
26.0811
 21
-56.5123
  0
LINE
  8
0
 10
26.0811
 20
-56.5123
 11
26.1362
 21
-56.7534
  0
LINE
  8
0
 10
26.1362
 20
-56.7534
 11
26.1546
 21
-57
  0
LINE
  8
0
 10
26.1546
 20
-57
 11
26.1362
 21
-57.2466
  0
LINE
  8
0
 10
26.1362
 20
-57.2466
 11
26.0811
 21
-57.4877
  0
LINE
  8
0
 10
26.0811
 20
-57.4877
 11
25.9908
 21
-57.7179
  0
LINE
  8
0
 10
25.9908
 20
-57.7179
 11
25.8671
 21
-57.9321
  0
LINE
  8
0
 10
25.8671
 20
-57.9321
 11
25.7129
 21
-58.1254
  0
LINE
  8
0
 10
25.7129
 20
-58.1254
 11
25.5316
 21
-58.2937
  0
LINE
  8
0
 10
25.5316
 20
-58.2937
 11
25.3273
 21
-58.433
  0
LINE
  8
0
 10
25.3273
 20
-58.433
 11
25.1045
 21
-58.5403
  0
LINE
  8
0
 10
25.1045
 20
-58.5403
 11
24.8682
 21
-58.6132
  0
LINE
  8
0
 10
24.8682
 20
-58.6132
 11
24.6237
 21
-58.65
  0
LINE
  8
0
 10
24.6237
 20
-58.65
 11
24.3764
 21
-58.65
  0
LINE
  8
0
 10
-27.7467
 20
-101.19
 11
-27.9903
 21
-101.148
  0
LINE
  8
0
 10
-27.9903
 20
-101.148
 11
-28.2278
 21
-101.08
  0
LINE
  8
0
 10
-28.2278
 20
-101.08
 11
-28.456
 21
-100.985
  0
LINE
  8
0
 10
-28.456
 20
-100.985
 11
-28.6723
 21
-100.866
  0
LINE
  8
0
 10
-28.6723
 20
-100.866
 11
-28.8738
 21
-100.723
  0
LINE
  8
0
 10
-28.8738
 20
-100.723
 11
-29.0581
 21
-100.558
  0
LINE
  8
0
 10
-29.0581
 20
-100.558
 11
-29.2227
 21
-100.374
  0
LINE
  8
0
 10
-29.2227
 20
-100.374
 11
-29.3657
 21
-100.172
  0
LINE
  8
0
 10
-29.3657
 20
-100.172
 11
-29.4852
 21
-99.956
  0
LINE
  8
0
 10
-29.4852
 20
-99.956
 11
-29.5798
 21
-99.7278
  0
LINE
  8
0
 10
-29.5798
 20
-99.7278
 11
-29.6482
 21
-99.4903
  0
LINE
  8
0
 10
-29.6482
 20
-99.4903
 11
-29.6896
 21
-99.2467
  0
LINE
  8
0
 10
-29.6896
 20
-99.2467
 11
-29.7035
 21
-99
  0
LINE
  8
0
 10
-29.7035
 20
-99
 11
-29.6896
 21
-98.7533
  0
LINE
  8
0
 10
-29.6896
 20
-98.7533
 11
-29.6482
 21
-98.5097
  0
LINE
  8
0
 10
-29.6482
 20
-98.5097
 11
-29.5798
 21
-98.2722
  0
LINE
  8
0
 10
-29.5798
 20
-98.2722
 11
-29.4852
 21
-98.0439
  0
LINE
  8
0
 10
-29.4852
 20
-98.0439
 11
-29.3657
 21
-97.8277
  0
LINE
  8
0
 10
-29.3657
 20
-97.8277
 11
-29.2227
 21
-97.6262
  0
LINE
  8
0
 10
-29.2227
 20
-97.6262
 11
-29.0581
 21
-97.4419
  0
LINE
  8
0
 10
-29.0581
 20
-97.4419
 11
-28.8738
 21
-97.2773
  0
LINE
  8
0
 10
-28.8738
 20
-97.2773
 11
-28.6723
 21
-97.1343
  0
LINE
  8
0
 10
-28.6723
 20
-97.1343
 11
-28.456
 21
-97.0147
  0
LINE
  8
0
 10
-28.456
 20
-97.0147
 11
-28.2278
 21
-96.9202
  0
LINE
  8
0
 10
-28.2278
 20
-96.9202
 11
-27.9903
 21
-96.8518
  0
LINE
  8
0
 10
-27.9903
 20
-96.8518
 11
-27.7467
 21
-96.8104
  0
LINE
  8
0
 10
-27.7467
 20
-96.8104
 11
-27.5
 21
-96.7965
  0
LINE
  8
0
 10
-27.5
 20
-96.7965
 11
-27.2533
 21
-96.8104
  0
LINE
  8
0
 10
-27.2533
 20
-96.8104
 11
-27.0097
 21
-96.8518
  0
LINE
  8
0
 10
-27.0097
 20
-96.8518
 11
-26.7722
 21
-96.9202
  0
LINE
  8
0
 10
-26.7722
 20
-96.9202
 11
-26.5439
 21
-97.0147
  0
LINE
  8
0
 10
-26.5439
 20
-97.0147
 11
-26.3277
 21
-97.1343
  0
LINE
  8
0
 10
-26.3277
 20
-97.1343
 11
-26.1262
 21
-97.2773
  0
LINE
  8
0
 10
-26.1262
 20
-97.2773
 11
-25.9419
 21
-97.4419
  0
LINE
  8
0
 10
-25.9419
 20
-97.4419
 11
-25.7773
 21
-97.6262
  0
LINE
  8
0
 10
-25.7773
 20
-97.6262
 11
-25.6343
 21
-97.8277
  0
LINE
  8
0
 10
-25.6343
 20
-97.8277
 11
-25.5147
 21
-98.0439
  0
LINE
  8
0
 10
-25.5147
 20
-98.0439
 11
-25.4202
 21
-98.2722
  0
LINE
  8
0
 10
-25.4202
 20
-98.2722
 11
-25.3518
 21
-98.5097
  0
LINE
  8
0
 10
-25.3518
 20
-98.5097
 11
-25.3104
 21
-98.7533
  0
LINE
  8
0
 10
-25.3104
 20
-98.7533
 11
-25.2965
 21
-99
  0
LINE
  8
0
 10
-25.2965
 20
-99
 11
-25.3104
 21
-99.2467
  0
LINE
  8
0
 10
-25.3104
 20
-99.2467
 11
-25.3518
 21
-99.4903
  0
LINE
  8
0
 10
-25.3518
 20
-99.4903
 11
-25.4202
 21
-99.7278
  0
LINE
  8
0
 10
-25.4202
 20
-99.7278
 11
-25.5147
 21
-99.956
  0
LINE
  8
0
 10
-25.5147
 20
-99.956
 11
-25.6343
 21
-100.172
  0
LINE
  8
0
 10
-25.6343
 20
-100.172
 11
-25.7773
 21
-100.374
  0
LINE
  8
0
 10
-25.7773
 20
-100.374
 11
-25.9419
 21
-100.558
  0
LINE
  8
0
 10
-25.9419
 20
-100.558
 11
-26.1262
 21
-100.723
  0
LINE
  8
0
 10
-26.1262
 20
-100.723
 11
-26.3277
 21
-100.866
  0
LINE
  8
0
 10
-26.3277
 20
-100.866
 11
-26.5439
 21
-100.985
  0
LINE
  8
0
 10
-26.5439
 20
-100.985
 11
-26.7722
 21
-101.08
  0
LINE
  8
0
 10
-26.7722
 20
-101.08
 11
-27.0097
 21
-101.148
  0
LINE
  8
0
 10
-27.0097
 20
-101.148
 11
-27.2533
 21
-101.19
  0
LINE
  8
0
 10
-27.2533
 20
-101.19
 11
-27.5
 21
-101.203
  0
LINE
  8
0
 10
-27.5
 20
-101.203
 11
-27.7467
 21
-101.19
  0
LINE
  8
0
 10
-41.1236
 20
-132.9
 11
-41.3682
 21
-132.863
  0
LINE
  8
0
 10
-41.3682
 20
-132.863
 11
-41.6045
 21
-132.79
  0
LINE
  8
0
 10
-41.6045
 20
-132.79
 11
-41.8273
 21
-132.683
  0
LINE
  8
0
 10
-41.8273
 20
-132.683
 11
-42.0316
 21
-132.544
  0
LINE
  8
0
 10
-42.0316
 20
-132.544
 11
-42.2129
 21
-132.375
  0
LINE
  8
0
 10
-42.2129
 20
-132.375
 11
-42.3671
 21
-132.182
  0
LINE
  8
0
 10
-42.3671
 20
-132.182
 11
-42.4908
 21
-131.968
  0
LINE
  8
0
 10
-42.4908
 20
-131.968
 11
-42.5811
 21
-131.738
  0
LINE
  8
0
 10
-42.5811
 20
-131.738
 11
-42.6361
 21
-131.497
  0
LINE
  8
0
 10
-42.6361
 20
-131.497
 11
-42.6546
 21
-131.25
  0
LINE
  8
0
 10
-42.6546
 20
-131.25
 11
-42.6361
 21
-131.003
  0
LINE
  8
0
 10
-42.6361
 20
-131.003
 11
-42.5811
 21
-130.762
  0
LINE
  8
0
 10
-42.5811
 20
-130.762
 11
-42.4908
 21
-130.532
  0
LINE
  8
0
 10
-42.4908
 20
-130.532
 11
-42.3671
 21
-130.318
  0
LINE
  8
0
 10
-42.3671
 20
-130.318
 11
-42.2129
 21
-130.125
  0
LINE
  8
0
 10
-42.2129
 20
-130.125
 11
-42.0316
 21
-129.956
  0
LINE
  8
0
 10
-42.0316
 20
-129.956
 11
-41.8273
 21
-129.817
  0
LINE
  8
0
 10
-41.8273
 20
-129.817
 11
-41.6045
 21
-129.71
  0
LINE
  8
0
 10
-41.6045
 20
-129.71
 11
-41.3682
 21
-129.637
  0
LINE
  8
0
 10
-41.3682
 20
-129.637
 11
-41.1236
 21
-129.6
  0
LINE
  8
0
 10
-41.1236
 20
-129.6
 11
-40.8763
 21
-129.6
  0
LINE
  8
0
 10
-40.8763
 20
-129.6
 11
-40.6318
 21
-129.637
  0
LINE
  8
0
 10
-40.6318
 20
-129.637
 11
-40.3955
 21
-129.71
  0
LINE
  8
0
 10
-40.3955
 20
-129.71
 11
-40.1727
 21
-129.817
  0
LINE
  8
0
 10
-40.1727
 20
-129.817
 11
-39.9684
 21
-129.956
  0
LINE
  8
0
 10
-39.9684
 20
-129.956
 11
-39.7871
 21
-130.125
  0
LINE
  8
0
 10
-39.7871
 20
-130.125
 11
-39.6329
 21
-130.318
  0
LINE
  8
0
 10
-39.6329
 20
-130.318
 11
-39.5092
 21
-130.532
  0
LINE
  8
0
 10
-39.5092
 20
-130.532
 11
-39.4189
 21
-130.762
  0
LINE
  8
0
 10
-39.4189
 20
-130.762
 11
-39.3638
 21
-131.003
  0
LINE
  8
0
 10
-39.3638
 20
-131.003
 11
-39.3454
 21
-131.25
  0
LINE
  8
0
 10
-39.3454
 20
-131.25
 11
-39.3638
 21
-131.497
  0
LINE
  8
0
 10
-39.3638
 20
-131.497
 11
-39.4189
 21
-131.738
  0
LINE
  8
0
 10
-39.4189
 20
-131.738
 11
-39.5092
 21
-131.968
  0
LINE
  8
0
 10
-39.5092
 20
-131.968
 11
-39.6329
 21
-132.182
  0
LINE
  8
0
 10
-39.6329
 20
-132.182
 11
-39.7871
 21
-132.375
  0
LINE
  8
0
 10
-39.7871
 20
-132.375
 11
-39.9684
 21
-132.544
  0
LINE
  8
0
 10
-39.9684
 20
-132.544
 11
-40.1727
 21
-132.683
  0
LINE
  8
0
 10
-40.1727
 20
-132.683
 11
-40.3955
 21
-132.79
  0
LINE
  8
0
 10
-40.3955
 20
-132.79
 11
-40.6318
 21
-132.863
  0
LINE
  8
0
 10
-40.6318
 20
-132.863
 11
-40.8763
 21
-132.9
  0
LINE
  8
0
 10
-40.8763
 20
-132.9
 11
-41.1236
 21
-132.9
  0
LINE
  8
0
 10
24.3764
 20
-148.65
 11
24.1318
 21
-148.613
  0
LINE
  8
0
 10
24.1318
 20
-148.613
 11
23.8955
 21
-148.54
  0
LINE
  8
0
 10
23.8955
 20
-148.54
 11
23.6727
 21
-148.433
  0
LINE
  8
0
 10
23.6727
 20
-148.433
 11
23.4684
 21
-148.294
  0
LINE
  8
0
 10
23.4684
 20
-148.294
 11
23.2871
 21
-148.125
  0
LINE
  8
0
 10
23.2871
 20
-148.125
 11
23.1329
 21
-147.932
  0
LINE
  8
0
 10
23.1329
 20
-147.932
 11
23.0092
 21
-147.718
  0
LINE
  8
0
 10
23.0092
 20
-147.718
 11
22.9189
 21
-147.488
  0
LINE
  8
0
 10
22.9189
 20
-147.488
 11
22.8639
 21
-147.247
  0
LINE
  8
0
 10
22.8639
 20
-147.247
 11
22.8454
 21
-147
  0
LINE
  8
0
 10
22.8454
 20
-147
 11
22.8639
 21
-146.753
  0
LINE
  8
0
 10
22.8639
 20
-146.753
 11
22.9189
 21
-146.512
  0
LINE
  8
0
 10
22.9189
 20
-146.512
 11
23.0092
 21
-146.282
  0
LINE
  8
0
 10
23.0092
 20
-146.282
 11
23.1329
 21
-146.068
  0
LINE
  8
0
 10
23.1329
 20
-146.068
 11
23.2871
 21
-145.875
  0
LINE
  8
0
 10
23.2871
 20
-145.875
 11
23.4684
 21
-145.706
  0
LINE
  8
0
 10
23.4684
 20
-145.706
 11
23.6727
 21
-145.567
  0
LINE
  8
0
 10
23.6727
 20
-145.567
 11
23.8955
 21
-145.46
  0
LINE
  8
0
 10
23.8955
 20
-145.46
 11
24.1318
 21
-145.387
  0
LINE
  8
0
 10
24.1318
 20
-145.387
 11
24.3764
 21
-145.35
  0
LINE
  8
0
 10
24.3764
 20
-145.35
 11
24.6237
 21
-145.35
  0
LINE
  8
0
 10
24.6237
 20
-145.35
 11
24.8682
 21
-145.387
  0
LINE
  8
0
 10
24.8682
 20
-145.387
 11
25.1045
 21
-145.46
  0
LINE
  8
0
 10
25.1045
 20
-145.46
 11
25.3273
 21
-145.567
  0
LINE
  8
0
 10
25.3273
 20
-145.567
 11
25.5316
 21
-145.706
  0
LINE
  8
0
 10
25.5316
 20
-145.706
 11
25.7129
 21
-145.875
  0
LINE
  8
0
 10
25.7129
 20
-145.875
 11
25.8671
 21
-146.068
  0
LINE
  8
0
 10
25.8671
 20
-146.068
 11
25.9908
 21
-146.282
  0
LINE
  8
0
 10
25.9908
 20
-146.282
 11
26.0811
 21
-146.512
  0
LINE
  8
0
 10
26.0811
 20
-146.512
 11
26.1362
 21
-146.753
  0
LINE
  8
0
 10
26.1362
 20
-146.753
 11
26.1546
 21
-147
  0
LINE
  8
0
 10
26.1546
 20
-147
 11
26.1362
 21
-147.247
  0
LINE
  8
0
 10
26.1362
 20
-147.247
 11
26.0811
 21
-147.488
  0
LINE
  8
0
 10
26.0811
 20
-147.488
 11
25.9908
 21
-147.718
  0
LINE
  8
0
 10
25.9908
 20
-147.718
 11
25.8671
 21
-147.932
  0
LINE
  8
0
 10
25.8671
 20
-147.932
 11
25.7129
 21
-148.125
  0
LINE
  8
0
 10
25.7129
 20
-148.125
 11
25.5316
 21
-148.294
  0
LINE
  8
0
 10
25.5316
 20
-148.294
 11
25.3273
 21
-148.433
  0
LINE
  8
0
 10
25.3273
 20
-148.433
 11
25.1045
 21
-148.54
  0
LINE
  8
0
 10
25.1045
 20
-148.54
 11
24.8682
 21
-148.613
  0
LINE
  8
0
 10
24.8682
 20
-148.613
 11
24.6237
 21
-148.65
  0
LINE
  8
0
 10
24.6237
 20
-148.65
 11
24.3764
 21
-148.65
  0
LINE
  8
0
 10
184.753
 20
-162.19
 11
184.51
 21
-162.148
  0
LINE
  8
0
 10
184.51
 20
-162.148
 11
184.272
 21
-162.08
  0
LINE
  8
0
 10
184.272
 20
-162.08
 11
184.044
 21
-161.985
  0
LINE
  8
0
 10
184.044
 20
-161.985
 11
183.828
 21
-161.866
  0
LINE
  8
0
 10
183.828
 20
-161.866
 11
183.626
 21
-161.723
  0
LINE
  8
0
 10
183.626
 20
-161.723
 11
183.442
 21
-161.558
  0
LINE
  8
0
 10
183.442
 20
-161.558
 11
183.277
 21
-161.374
  0
LINE
  8
0
 10
183.277
 20
-161.374
 11
183.134
 21
-161.172
  0
LINE
  8
0
 10
183.134
 20
-161.172
 11
183.015
 21
-160.956
  0
LINE
  8
0
 10
183.015
 20
-160.956
 11
182.92
 21
-160.728
  0
LINE
  8
0
 10
182.92
 20
-160.728
 11
182.852
 21
-160.49
  0
LINE
  8
0
 10
182.852
 20
-160.49
 11
182.81
 21
-160.247
  0
LINE
  8
0
 10
182.81
 20
-160.247
 11
182.797
 21
-160
  0
LINE
  8
0
 10
182.797
 20
-160
 11
182.81
 21
-159.753
  0
LINE
  8
0
 10
182.81
 20
-159.753
 11
182.852
 21
-159.51
  0
LINE
  8
0
 10
182.852
 20
-159.51
 11
182.92
 21
-159.272
  0
LINE
  8
0
 10
182.92
 20
-159.272
 11
183.015
 21
-159.044
  0
LINE
  8
0
 10
183.015
 20
-159.044
 11
183.134
 21
-158.828
  0
LINE
  8
0
 10
183.134
 20
-158.828
 11
183.277
 21
-158.626
  0
LINE
  8
0
 10
183.277
 20
-158.626
 11
183.442
 21
-158.442
  0
LINE
  8
0
 10
183.442
 20
-158.442
 11
183.626
 21
-158.277
  0
LINE
  8
0
 10
183.626
 20
-158.277
 11
183.828
 21
-158.134
  0
LINE
  8
0
 10
183.828
 20
-158.134
 11
184.044
 21
-158.015
  0
LINE
  8
0
 10
184.044
 20
-158.015
 11
184.272
 21
-157.92
  0
LINE
  8
0
 10
184.272
 20
-157.92
 11
184.51
 21
-157.852
  0
LINE
  8
0
 10
184.51
 20
-157.852
 11
184.753
 21
-157.81
  0
LINE
  8
0
 10
184.753
 20
-157.81
 11
185
 21
-157.797
  0
LINE
  8
0
 10
185
 20
-157.797
 11
185.247
 21
-157.81
  0
LINE
  8
0
 10
185.247
 20
-157.81
 11
185.49
 21
-157.852
  0
LINE
  8
0
 10
185.49
 20
-157.852
 11
185.728
 21
-157.92
  0
LINE
  8
0
 10
185.728
 20
-157.92
 11
185.956
 21
-158.015
  0
LINE
  8
0
 10
185.956
 20
-158.015
 11
186.172
 21
-158.134
  0
LINE
  8
0
 10
186.172
 20
-158.134
 11
186.374
 21
-158.277
  0
LINE
  8
0
 10
186.374
 20
-158.277
 11
186.558
 21
-158.442
  0
LINE
  8
0
 10
186.558
 20
-158.442
 11
186.723
 21
-158.626
  0
LINE
  8
0
 10
186.723
 20
-158.626
 11
186.866
 21
-158.828
  0
LINE
  8
0
 10
186.866
 20
-158.828
 11
186.985
 21
-159.044
  0
LINE
  8
0
 10
186.985
 20
-159.044
 11
187.08
 21
-159.272
  0
LINE
  8
0
 10
187.08
 20
-159.272
 11
187.148
 21
-159.51
  0
LINE
  8
0
 10
187.148
 20
-159.51
 11
187.19
 21
-159.753
  0
LINE
  8
0
 10
187.19
 20
-159.753
 11
187.203
 21
-160
  0
LINE
  8
0
 10
187.203
 20
-160
 11
187.19
 21
-160.247
  0
LINE
  8
0
 10
187.19
 20
-160.247
 11
187.148
 21
-160.49
  0
LINE
  8
0
 10
187.148
 20
-160.49
 11
187.08
 21
-160.728
  0
LINE
  8
0
 10
187.08
 20
-160.728
 11
186.985
 21
-160.956
  0
LINE
  8
0
 10
186.985
 20
-160.956
 11
186.866
 21
-161.172
  0
LINE
  8
0
 10
186.866
 20
-161.172
 11
186.723
 21
-161.374
  0
LINE
  8
0
 10
186.723
 20
-161.374
 11
186.558
 21
-161.558
  0
LINE
  8
0
 10
186.558
 20
-161.558
 11
186.374
 21
-161.723
  0
LINE
  8
0
 10
186.374
 20
-161.723
 11
186.172
 21
-161.866
  0
LINE
  8
0
 10
186.172
 20
-161.866
 11
185.956
 21
-161.985
  0
LINE
  8
0
 10
185.956
 20
-161.985
 11
185.728
 21
-162.08
  0
LINE
  8
0
 10
185.728
 20
-162.08
 11
185.49
 21
-162.148
  0
LINE
  8
0
 10
185.49
 20
-162.148
 11
185.247
 21
-162.19
  0
LINE
  8
0
 10
185.247
 20
-162.19
 11
185
 21
-162.203
  0
LINE
  8
0
 10
185
 20
-162.203
 11
184.753
 21
-162.19
  0
LINE
  8
0
 10
-185.247
 20
-162.19
 11
-185.49
 21
-162.148
  0
LINE
  8
0
 10
-185.49
 20
-162.148
 11
-185.728
 21
-162.08
  0
LINE
  8
0
 10
-185.728
 20
-162.08
 11
-185.956
 21
-161.985
  0
LINE
  8
0
 10
-185.956
 20
-161.985
 11
-186.172
 21
-161.866
  0
LINE
  8
0
 10
-186.172
 20
-161.866
 11
-186.374
 21
-161.723
  0
LINE
  8
0
 10
-186.374
 20
-161.723
 11
-186.558
 21
-161.558
  0
LINE
  8
0
 10
-186.558
 20
-161.558
 11
-186.723
 21
-161.374
  0
LINE
  8
0
 10
-186.723
 20
-161.374
 11
-186.866
 21
-161.172
  0
LINE
  8
0
 10
-186.866
 20
-161.172
 11
-186.985
 21
-160.956
  0
LINE
  8
0
 10
-186.985
 20
-160.956
 11
-187.08
 21
-160.728
  0
LINE
  8
0
 10
-187.08
 20
-160.728
 11
-187.148
 21
-160.49
  0
LINE
  8
0
 10
-187.148
 20
-160.49
 11
-187.19
 21
-160.247
  0
LINE
  8
0
 10
-187.19
 20
-160.247
 11
-187.203
 21
-160
  0
LINE
  8
0
 10
-187.203
 20
-160
 11
-187.19
 21
-159.753
  0
LINE
  8
0
 10
-187.19
 20
-159.753
 11
-187.148
 21
-159.51
  0
LINE
  8
0
 10
-187.148
 20
-159.51
 11
-187.08
 21
-159.272
  0
LINE
  8
0
 10
-187.08
 20
-159.272
 11
-186.985
 21
-159.044
  0
LINE
  8
0
 10
-186.985
 20
-159.044
 11
-186.866
 21
-158.828
  0
LINE
  8
0
 10
-186.866
 20
-158.828
 11
-186.723
 21
-158.626
  0
LINE
  8
0
 10
-186.723
 20
-158.626
 11
-186.558
 21
-158.442
  0
LINE
  8
0
 10
-186.558
 20
-158.442
 11
-186.374
 21
-158.277
  0
LINE
  8
0
 10
-186.374
 20
-158.277
 11
-186.172
 21
-158.134
  0
LINE
  8
0
 10
-186.172
 20
-158.134
 11
-185.956
 21
-158.015
  0
LINE
  8
0
 10
-185.956
 20
-158.015
 11
-185.728
 21
-157.92
  0
LINE
  8
0
 10
-185.728
 20
-157.92
 11
-185.49
 21
-157.852
  0
LINE
  8
0
 10
-185.49
 20
-157.852
 11
-185.247
 21
-157.81
  0
LINE
  8
0
 10
-185.247
 20
-157.81
 11
-185
 21
-157.797
  0
LINE
  8
0
 10
-185
 20
-157.797
 11
-184.753
 21
-157.81
  0
LINE
  8
0
 10
-184.753
 20
-157.81
 11
-184.51
 21
-157.852
  0
LINE
  8
0
 10
-184.51
 20
-157.852
 11
-184.272
 21
-157.92
  0
LINE
  8
0
 10
-184.272
 20
-157.92
 11
-184.044
 21
-158.015
  0
LINE
  8
0
 10
-184.044
 20
-158.015
 11
-183.828
 21
-158.134
  0
LINE
  8
0
 10
-183.828
 20
-158.134
 11
-183.626
 21
-158.277
  0
LINE
  8
0
 10
-183.626
 20
-158.277
 11
-183.442
 21
-158.442
  0
LINE
  8
0
 10
-183.442
 20
-158.442
 11
-183.277
 21
-158.626
  0
LINE
  8
0
 10
-183.277
 20
-158.626
 11
-183.134
 21
-158.828
  0
LINE
  8
0
 10
-183.134
 20
-158.828
 11
-183.015
 21
-159.044
  0
LINE
  8
0
 10
-183.015
 20
-159.044
 11
-182.92
 21
-159.272
  0
LINE
  8
0
 10
-182.92
 20
-159.272
 11
-182.852
 21
-159.51
  0
LINE
  8
0
 10
-182.852
 20
-159.51
 11
-182.81
 21
-159.753
  0
LINE
  8
0
 10
-182.81
 20
-159.753
 11
-182.797
 21
-160
  0
LINE
  8
0
 10
-182.797
 20
-160
 11
-182.81
 21
-160.247
  0
LINE
  8
0
 10
-182.81
 20
-160.247
 11
-182.852
 21
-160.49
  0
LINE
  8
0
 10
-182.852
 20
-160.49
 11
-182.92
 21
-160.728
  0
LINE
  8
0
 10
-182.92
 20
-160.728
 11
-183.015
 21
-160.956
  0
LINE
  8
0
 10
-183.015
 20
-160.956
 11
-183.134
 21
-161.172
  0
LINE
  8
0
 10
-183.134
 20
-161.172
 11
-183.277
 21
-161.374
  0
LINE
  8
0
 10
-183.277
 20
-161.374
 11
-183.442
 21
-161.558
  0
LINE
  8
0
 10
-183.442
 20
-161.558
 11
-183.626
 21
-161.723
  0
LINE
  8
0
 10
-183.626
 20
-161.723
 11
-183.828
 21
-161.866
  0
LINE
  8
0
 10
-183.828
 20
-161.866
 11
-184.044
 21
-161.985
  0
LINE
  8
0
 10
-184.044
 20
-161.985
 11
-184.272
 21
-162.08
  0
LINE
  8
0
 10
-184.272
 20
-162.08
 11
-184.51
 21
-162.148
  0
LINE
  8
0
 10
-184.51
 20
-162.148
 11
-184.753
 21
-162.19
  0
LINE
  8
0
 10
-184.753
 20
-162.19
 11
-185
 21
-162.203
  0
LINE
  8
0
 10
-185
 20
-162.203
 11
-185.247
 21
-162.19
  0
LINE
  8
0
 10
-185.335
 20
-188.187
 11
-185.666
 21
-188.134
  0
LINE
  8
0
 10
-185.666
 20
-188.134
 11
-185.99
 21
-188.048
  0
LINE
  8
0
 10
-185.99
 20
-188.048
 11
-186.303
 21
-187.927
  0
LINE
  8
0
 10
-186.303
 20
-187.927
 11
-186.602
 21
-187.775
  0
LINE
  8
0
 10
-186.602
 20
-187.775
 11
-186.883
 21
-187.592
  0
LINE
  8
0
 10
-186.883
 20
-187.592
 11
-187.144
 21
-187.381
  0
LINE
  8
0
 10
-187.144
 20
-187.381
 11
-187.381
 21
-187.144
  0
LINE
  8
0
 10
-187.381
 20
-187.144
 11
-187.592
 21
-186.883
  0
LINE
  8
0
 10
-187.592
 20
-186.883
 11
-187.775
 21
-186.602
  0
LINE
  8
0
 10
-187.775
 20
-186.602
 11
-187.927
 21
-186.303
  0
LINE
  8
0
 10
-187.927
 20
-186.303
 11
-188.048
 21
-185.99
  0
LINE
  8
0
 10
-188.048
 20
-185.99
 11
-188.134
 21
-185.666
  0
LINE
  8
0
 10
-188.134
 20
-185.666
 11
-188.187
 21
-185.335
  0
LINE
  8
0
 10
-188.187
 20
-185.335
 11
-188.204
 21
-185
  0
LINE
  8
0
 10
-188.204
 20
-185
 11
-188.187
 21
-184.665
  0
LINE
  8
0
 10
-188.187
 20
-184.665
 11
-188.134
 21
-184.334
  0
LINE
  8
0
 10
-188.134
 20
-184.334
 11
-188.048
 21
-184.01
  0
LINE
  8
0
 10
-188.048
 20
-184.01
 11
-187.927
 21
-183.697
  0
LINE
  8
0
 10
-187.927
 20
-183.697
 11
-187.775
 21
-183.398
  0
LINE
  8
0
 10
-187.775
 20
-183.398
 11
-187.592
 21
-183.117
  0
LINE
  8
0
 10
-187.592
 20
-183.117
 11
-187.381
 21
-182.856
  0
LINE
  8
0
 10
-187.381
 20
-182.856
 11
-187.144
 21
-182.619
  0
LINE
  8
0
 10
-187.144
 20
-182.619
 11
-186.883
 21
-182.408
  0
LINE
  8
0
 10
-186.883
 20
-182.408
 11
-186.602
 21
-182.225
  0
LINE
  8
0
 10
-186.602
 20
-182.225
 11
-186.303
 21
-182.073
  0
LINE
  8
0
 10
-186.303
 20
-182.073
 11
-185.99
 21
-181.952
  0
LINE
  8
0
 10
-185.99
 20
-181.952
 11
-185.666
 21
-181.866
  0
LINE
  8
0
 10
-185.666
 20
-181.866
 11
-185.335
 21
-181.813
  0
LINE
  8
0
 10
-185.335
 20
-181.813
 11
-185
 21
-181.796
  0
LINE
  8
0
 10
-185
 20
-181.796
 11
-184.665
 21
-181.813
  0
LINE
  8
0
 10
-184.665
 20
-181.813
 11
-184.334
 21
-181.866
  0
LINE
  8
0
 10
-184.334
 20
-181.866
 11
-184.01
 21
-181.952
  0
LINE
  8
0
 10
-184.01
 20
-181.952
 11
-183.697
 21
-182.073
  0
LINE
  8
0
 10
-183.697
 20
-182.073
 11
-183.398
 21
-182.225
  0
LINE
  8
0
 10
-183.398
 20
-182.225
 11
-183.117
 21
-182.408
  0
LINE
  8
0
 10
-183.117
 20
-182.408
 11
-182.856
 21
-182.619
  0
LINE
  8
0
 10
-182.856
 20
-182.619
 11
-182.619
 21
-182.856
  0
LINE
  8
0
 10
-182.619
 20
-182.856
 11
-182.408
 21
-183.117
  0
LINE
  8
0
 10
-182.408
 20
-183.117
 11
-182.225
 21
-183.398
  0
LINE
  8
0
 10
-182.225
 20
-183.398
 11
-182.073
 21
-183.697
  0
LINE
  8
0
 10
-182.073
 20
-183.697
 11
-181.952
 21
-184.01
  0
LINE
  8
0
 10
-181.952
 20
-184.01
 11
-181.866
 21
-184.334
  0
LINE
  8
0
 10
-181.866
 20
-184.334
 11
-181.813
 21
-184.665
  0
LINE
  8
0
 10
-181.813
 20
-184.665
 11
-181.796
 21
-185
  0
LINE
  8
0
 10
-181.796
 20
-185
 11
-181.813
 21
-185.335
  0
LINE
  8
0
 10
-181.813
 20
-185.335
 11
-181.866
 21
-185.666
  0
LINE
  8
0
 10
-181.866
 20
-185.666
 11
-181.952
 21
-185.99
  0
LINE
  8
0
 10
-181.952
 20
-185.99
 11
-182.073
 21
-186.303
  0
LINE
  8
0
 10
-182.073
 20
-186.303
 11
-182.225
 21
-186.602
  0
LINE
  8
0
 10
-182.225
 20
-186.602
 11
-182.408
 21
-186.883
  0
LINE
  8
0
 10
-182.408
 20
-186.883
 11
-182.619
 21
-187.144
  0
LINE
  8
0
 10
-182.619
 20
-187.144
 11
-182.856
 21
-187.381
  0
LINE
  8
0
 10
-182.856
 20
-187.381
 11
-183.117
 21
-187.592
  0
LINE
  8
0
 10
-183.117
 20
-187.592
 11
-183.398
 21
-187.775
  0
LINE
  8
0
 10
-183.398
 20
-187.775
 11
-183.697
 21
-187.927
  0
LINE
  8
0
 10
-183.697
 20
-187.927
 11
-184.01
 21
-188.048
  0
LINE
  8
0
 10
-184.01
 20
-188.048
 11
-184.334
 21
-188.134
  0
LINE
  8
0
 10
-184.334
 20
-188.134
 11
-184.665
 21
-188.187
  0
LINE
  8
0
 10
-184.665
 20
-188.187
 11
-185
 21
-188.204
  0
LINE
  8
0
 10
-185
 20
-188.204
 11
-185.335
 21
-188.187
  0
LINE
  8
0
 10
184.665
 20
-188.187
 11
184.334
 21
-188.134
  0
LINE
  8
0
 10
184.334
 20
-188.134
 11
184.01
 21
-188.048
  0
LINE
  8
0
 10
184.01
 20
-188.048
 11
183.697
 21
-187.927
  0
LINE
  8
0
 10
183.697
 20
-187.927
 11
183.398
 21
-187.775
  0
LINE
  8
0
 10
183.398
 20
-187.775
 11
183.117
 21
-187.592
  0
LINE
  8
0
 10
183.117
 20
-187.592
 11
182.856
 21
-187.381
  0
LINE
  8
0
 10
182.856
 20
-187.381
 11
182.619
 21
-187.144
  0
LINE
  8
0
 10
182.619
 20
-187.144
 11
182.408
 21
-186.883
  0
LINE
  8
0
 10
182.408
 20
-186.883
 11
182.225
 21
-186.602
  0
LINE
  8
0
 10
182.225
 20
-186.602
 11
182.073
 21
-186.303
  0
LINE
  8
0
 10
182.073
 20
-186.303
 11
181.952
 21
-185.99
  0
LINE
  8
0
 10
181.952
 20
-185.99
 11
181.866
 21
-185.666
  0
LINE
  8
0
 10
181.866
 20
-185.666
 11
181.813
 21
-185.335
  0
LINE
  8
0
 10
181.813
 20
-185.335
 11
181.796
 21
-185
  0
LINE
  8
0
 10
181.796
 20
-185
 11
181.813
 21
-184.665
  0
LINE
  8
0
 10
181.813
 20
-184.665
 11
181.866
 21
-184.334
  0
LINE
  8
0
 10
181.866
 20
-184.334
 11
181.952
 21
-184.01
  0
LINE
  8
0
 10
181.952
 20
-184.01
 11
182.073
 21
-183.697
  0
LINE
  8
0
 10
182.073
 20
-183.697
 11
182.225
 21
-183.398
  0
LINE
  8
0
 10
182.225
 20
-183.398
 11
182.408
 21
-183.117
  0
LINE
  8
0
 10
182.408
 20
-183.117
 11
182.619
 21
-182.856
  0
LINE
  8
0
 10
182.619
 20
-182.856
 11
182.856
 21
-182.619
  0
LINE
  8
0
 10
182.856
 20
-182.619
 11
183.117
 21
-182.408
  0
LINE
  8
0
 10
183.117
 20
-182.408
 11
183.398
 21
-182.225
  0
LINE
  8
0
 10
183.398
 20
-182.225
 11
183.697
 21
-182.073
  0
LINE
  8
0
 10
183.697
 20
-182.073
 11
184.01
 21
-181.952
  0
LINE
  8
0
 10
184.01
 20
-181.952
 11
184.334
 21
-181.866
  0
LINE
  8
0
 10
184.334
 20
-181.866
 11
184.665
 21
-181.813
  0
LINE
  8
0
 10
184.665
 20
-181.813
 11
185
 21
-181.796
  0
LINE
  8
0
 10
185
 20
-181.796
 11
185.335
 21
-181.813
  0
LINE
  8
0
 10
185.335
 20
-181.813
 11
185.666
 21
-181.866
  0
LINE
  8
0
 10
185.666
 20
-181.866
 11
185.99
 21
-181.952
  0
LINE
  8
0
 10
185.99
 20
-181.952
 11
186.303
 21
-182.073
  0
LINE
  8
0
 10
186.303
 20
-182.073
 11
186.602
 21
-182.225
  0
LINE
  8
0
 10
186.602
 20
-182.225
 11
186.883
 21
-182.408
  0
LINE
  8
0
 10
186.883
 20
-182.408
 11
187.144
 21
-182.619
  0
LINE
  8
0
 10
187.144
 20
-182.619
 11
187.381
 21
-182.856
  0
LINE
  8
0
 10
187.381
 20
-182.856
 11
187.592
 21
-183.117
  0
LINE
  8
0
 10
187.592
 20
-183.117
 11
187.775
 21
-183.398
  0
LINE
  8
0
 10
187.775
 20
-183.398
 11
187.927
 21
-183.697
  0
LINE
  8
0
 10
187.927
 20
-183.697
 11
188.048
 21
-184.01
  0
LINE
  8
0
 10
188.048
 20
-184.01
 11
188.134
 21
-184.334
  0
LINE
  8
0
 10
188.134
 20
-184.334
 11
188.187
 21
-184.665
  0
LINE
  8
0
 10
188.187
 20
-184.665
 11
188.204
 21
-185
  0
LINE
  8
0
 10
188.204
 20
-185
 11
188.187
 21
-185.335
  0
LINE
  8
0
 10
188.187
 20
-185.335
 11
188.134
 21
-185.666
  0
LINE
  8
0
 10
188.134
 20
-185.666
 11
188.048
 21
-185.99
  0
LINE
  8
0
 10
188.048
 20
-185.99
 11
187.927
 21
-186.303
  0
LINE
  8
0
 10
187.927
 20
-186.303
 11
187.775
 21
-186.602
  0
LINE
  8
0
 10
187.775
 20
-186.602
 11
187.592
 21
-186.883
  0
LINE
  8
0
 10
187.592
 20
-186.883
 11
187.381
 21
-187.144
  0
LINE
  8
0
 10
187.381
 20
-187.144
 11
187.144
 21
-187.381
  0
LINE
  8
0
 10
187.144
 20
-187.381
 11
186.883
 21
-187.592
  0
LINE
  8
0
 10
186.883
 20
-187.592
 11
186.602
 21
-187.775
  0
LINE
  8
0
 10
186.602
 20
-187.775
 11
186.303
 21
-187.927
  0
LINE
  8
0
 10
186.303
 20
-187.927
 11
185.99
 21
-188.048
  0
LINE
  8
0
 10
185.99
 20
-188.048
 11
185.666
 21
-188.134
  0
LINE
  8
0
 10
185.666
 20
-188.134
 11
185.335
 21
-188.187
  0
LINE
  8
0
 10
185.335
 20
-188.187
 11
185
 21
-188.204
  0
LINE
  8
0
 10
185
 20
-188.204
 11
184.665
 21
-188.187
  0
LINE
  8
0
 10
159.753
 20
-187.19
 11
159.51
 21
-187.148
  0
LINE
  8
0
 10
159.51
 20
-187.148
 11
159.272
 21
-187.08
  0
LINE
  8
0
 10
159.272
 20
-187.08
 11
159.044
 21
-186.985
  0
LINE
  8
0
 10
159.044
 20
-186.985
 11
158.828
 21
-186.866
  0
LINE
  8
0
 10
158.828
 20
-186.866
 11
158.626
 21
-186.723
  0
LINE
  8
0
 10
158.626
 20
-186.723
 11
158.442
 21
-186.558
  0
LINE
  8
0
 10
158.442
 20
-186.558
 11
158.277
 21
-186.374
  0
LINE
  8
0
 10
158.277
 20
-186.374
 11
158.134
 21
-186.172
  0
LINE
  8
0
 10
158.134
 20
-186.172
 11
158.015
 21
-185.956
  0
LINE
  8
0
 10
158.015
 20
-185.956
 11
157.92
 21
-185.728
  0
LINE
  8
0
 10
157.92
 20
-185.728
 11
157.852
 21
-185.49
  0
LINE
  8
0
 10
157.852
 20
-185.49
 11
157.81
 21
-185.247
  0
LINE
  8
0
 10
157.81
 20
-185.247
 11
157.797
 21
-185
  0
LINE
  8
0
 10
157.797
 20
-185
 11
157.81
 21
-184.753
  0
LINE
  8
0
 10
157.81
 20
-184.753
 11
157.852
 21
-184.51
  0
LINE
  8
0
 10
157.852
 20
-184.51
 11
157.92
 21
-184.272
  0
LINE
  8
0
 10
157.92
 20
-184.272
 11
158.015
 21
-184.044
  0
LINE
  8
0
 10
158.015
 20
-184.044
 11
158.134
 21
-183.828
  0
LINE
  8
0
 10
158.134
 20
-183.828
 11
158.277
 21
-183.626
  0
LINE
  8
0
 10
158.277
 20
-183.626
 11
158.442
 21
-183.442
  0
LINE
  8
0
 10
158.442
 20
-183.442
 11
158.626
 21
-183.277
  0
LINE
  8
0
 10
158.626
 20
-183.277
 11
158.828
 21
-183.134
  0
LINE
  8
0
 10
158.828
 20
-183.134
 11
159.044
 21
-183.015
  0
LINE
  8
0
 10
159.044
 20
-183.015
 11
159.272
 21
-182.92
  0
LINE
  8
0
 10
159.272
 20
-182.92
 11
159.51
 21
-182.852
  0
LINE
  8
0
 10
159.51
 20
-182.852
 11
159.753
 21
-182.81
  0
LINE
  8
0
 10
159.753
 20
-182.81
 11
160
 21
-182.797
  0
LINE
  8
0
 10
160
 20
-182.797
 11
160.247
 21
-182.81
  0
LINE
  8
0
 10
160.247
 20
-182.81
 11
160.49
 21
-182.852
  0
LINE
  8
0
 10
160.49
 20
-182.852
 11
160.728
 21
-182.92
  0
LINE
  8
0
 10
160.728
 20
-182.92
 11
160.956
 21
-183.015
  0
LINE
  8
0
 10
160.956
 20
-183.015
 11
161.172
 21
-183.134
  0
LINE
  8
0
 10
161.172
 20
-183.134
 11
161.374
 21
-183.277
  0
LINE
  8
0
 10
161.374
 20
-183.277
 11
161.558
 21
-183.442
  0
LINE
  8
0
 10
161.558
 20
-183.442
 11
161.723
 21
-183.626
  0
LINE
  8
0
 10
161.723
 20
-183.626
 11
161.866
 21
-183.828
  0
LINE
  8
0
 10
161.866
 20
-183.828
 11
161.985
 21
-184.044
  0
LINE
  8
0
 10
161.985
 20
-184.044
 11
162.08
 21
-184.272
  0
LINE
  8
0
 10
162.08
 20
-184.272
 11
162.148
 21
-184.51
  0
LINE
  8
0
 10
162.148
 20
-184.51
 11
162.19
 21
-184.753
  0
LINE
  8
0
 10
162.19
 20
-184.753
 11
162.203
 21
-185
  0
LINE
  8
0
 10
162.203
 20
-185
 11
162.19
 21
-185.247
  0
LINE
  8
0
 10
162.19
 20
-185.247
 11
162.148
 21
-185.49
  0
LINE
  8
0
 10
162.148
 20
-185.49
 11
162.08
 21
-185.728
  0
LINE
  8
0
 10
162.08
 20
-185.728
 11
161.985
 21
-185.956
  0
LINE
  8
0
 10
161.985
 20
-185.956
 11
161.866
 21
-186.172
  0
LINE
  8
0
 10
161.866
 20
-186.172
 11
161.723
 21
-186.374
  0
LINE
  8
0
 10
161.723
 20
-186.374
 11
161.558
 21
-186.558
  0
LINE
  8
0
 10
161.558
 20
-186.558
 11
161.374
 21
-186.723
  0
LINE
  8
0
 10
161.374
 20
-186.723
 11
161.172
 21
-186.866
  0
LINE
  8
0
 10
161.172
 20
-186.866
 11
160.956
 21
-186.985
  0
LINE
  8
0
 10
160.956
 20
-186.985
 11
160.728
 21
-187.08
  0
LINE
  8
0
 10
160.728
 20
-187.08
 11
160.49
 21
-187.148
  0
LINE
  8
0
 10
160.49
 20
-187.148
 11
160.247
 21
-187.19
  0
LINE
  8
0
 10
160.247
 20
-187.19
 11
160
 21
-187.203
  0
LINE
  8
0
 10
160
 20
-187.203
 11
159.753
 21
-187.19
  0
LINE
  8
0
 10
-160.247
 20
-187.19
 11
-160.49
 21
-187.148
  0
LINE
  8
0
 10
-160.49
 20
-187.148
 11
-160.728
 21
-187.08
  0
LINE
  8
0
 10
-160.728
 20
-187.08
 11
-160.956
 21
-186.985
  0
LINE
  8
0
 10
-160.956
 20
-186.985
 11
-161.172
 21
-186.866
  0
LINE
  8
0
 10
-161.172
 20
-186.866
 11
-161.374
 21
-186.723
  0
LINE
  8
0
 10
-161.374
 20
-186.723
 11
-161.558
 21
-186.558
  0
LINE
  8
0
 10
-161.558
 20
-186.558
 11
-161.723
 21
-186.374
  0
LINE
  8
0
 10
-161.723
 20
-186.374
 11
-161.866
 21
-186.172
  0
LINE
  8
0
 10
-161.866
 20
-186.172
 11
-161.985
 21
-185.956
  0
LINE
  8
0
 10
-161.985
 20
-185.956
 11
-162.08
 21
-185.728
  0
LINE
  8
0
 10
-162.08
 20
-185.728
 11
-162.148
 21
-185.49
  0
LINE
  8
0
 10
-162.148
 20
-185.49
 11
-162.19
 21
-185.247
  0
LINE
  8
0
 10
-162.19
 20
-185.247
 11
-162.203
 21
-185
  0
LINE
  8
0
 10
-162.203
 20
-185
 11
-162.19
 21
-184.753
  0
LINE
  8
0
 10
-162.19
 20
-184.753
 11
-162.148
 21
-184.51
  0
LINE
  8
0
 10
-162.148
 20
-184.51
 11
-162.08
 21
-184.272
  0
LINE
  8
0
 10
-162.08
 20
-184.272
 11
-161.985
 21
-184.044
  0
LINE
  8
0
 10
-161.985
 20
-184.044
 11
-161.866
 21
-183.828
  0
LINE
  8
0
 10
-161.866
 20
-183.828
 11
-161.723
 21
-183.626
  0
LINE
  8
0
 10
-161.723
 20
-183.626
 11
-161.558
 21
-183.442
  0
LINE
  8
0
 10
-161.558
 20
-183.442
 11
-161.374
 21
-183.277
  0
LINE
  8
0
 10
-161.374
 20
-183.277
 11
-161.172
 21
-183.134
  0
LINE
  8
0
 10
-161.172
 20
-183.134
 11
-160.956
 21
-183.015
  0
LINE
  8
0
 10
-160.956
 20
-183.015
 11
-160.728
 21
-182.92
  0
LINE
  8
0
 10
-160.728
 20
-182.92
 11
-160.49
 21
-182.852
  0
LINE
  8
0
 10
-160.49
 20
-182.852
 11
-160.247
 21
-182.81
  0
LINE
  8
0
 10
-160.247
 20
-182.81
 11
-160
 21
-182.797
  0
LINE
  8
0
 10
-160
 20
-182.797
 11
-159.753
 21
-182.81
  0
LINE
  8
0
 10
-159.753
 20
-182.81
 11
-159.51
 21
-182.852
  0
LINE
  8
0
 10
-159.51
 20
-182.852
 11
-159.272
 21
-182.92
  0
LINE
  8
0
 10
-159.272
 20
-182.92
 11
-159.044
 21
-183.015
  0
LINE
  8
0
 10
-159.044
 20
-183.015
 11
-158.828
 21
-183.134
  0
LINE
  8
0
 10
-158.828
 20
-183.134
 11
-158.626
 21
-183.277
  0
LINE
  8
0
 10
-158.626
 20
-183.277
 11
-158.442
 21
-183.442
  0
LINE
  8
0
 10
-158.442
 20
-183.442
 11
-158.277
 21
-183.626
  0
LINE
  8
0
 10
-158.277
 20
-183.626
 11
-158.134
 21
-183.828
  0
LINE
  8
0
 10
-158.134
 20
-183.828
 11
-158.015
 21
-184.044
  0
LINE
  8
0
 10
-158.015
 20
-184.044
 11
-157.92
 21
-184.272
  0
LINE
  8
0
 10
-157.92
 20
-184.272
 11
-157.852
 21
-184.51
  0
LINE
  8
0
 10
-157.852
 20
-184.51
 11
-157.81
 21
-184.753
  0
LINE
  8
0
 10
-157.81
 20
-184.753
 11
-157.797
 21
-185
  0
LINE
  8
0
 10
-157.797
 20
-185
 11
-157.81
 21
-185.247
  0
LINE
  8
0
 10
-157.81
 20
-185.247
 11
-157.852
 21
-185.49
  0
LINE
  8
0
 10
-157.852
 20
-185.49
 11
-157.92
 21
-185.728
  0
LINE
  8
0
 10
-157.92
 20
-185.728
 11
-158.015
 21
-185.956
  0
LINE
  8
0
 10
-158.015
 20
-185.956
 11
-158.134
 21
-186.172
  0
LINE
  8
0
 10
-158.134
 20
-186.172
 11
-158.277
 21
-186.374
  0
LINE
  8
0
 10
-158.277
 20
-186.374
 11
-158.442
 21
-186.558
  0
LINE
  8
0
 10
-158.442
 20
-186.558
 11
-158.626
 21
-186.723
  0
LINE
  8
0
 10
-158.626
 20
-186.723
 11
-158.828
 21
-186.866
  0
LINE
  8
0
 10
-158.828
 20
-186.866
 11
-159.044
 21
-186.985
  0
LINE
  8
0
 10
-159.044
 20
-186.985
 11
-159.272
 21
-187.08
  0
LINE
  8
0
 10
-159.272
 20
-187.08
 11
-159.51
 21
-187.148
  0
LINE
  8
0
 10
-159.51
 20
-187.148
 11
-159.753
 21
-187.19
  0
LINE
  8
0
 10
-159.753
 20
-187.19
 11
-160
 21
-187.203
  0
LINE
  8
0
 10
-160
 20
-187.203
 11
-160.247
 21
-187.19
  0
LINE
  8
0
 10
53.0866
 20
-187.19
 11
52.843
 21
-187.148
  0
LINE
  8
0
 10
52.843
 20
-187.148
 11
52.6056
 21
-187.08
  0
LINE
  8
0
 10
52.6056
 20
-187.08
 11
52.3773
 21
-186.985
  0
LINE
  8
0
 10
52.3773
 20
-186.985
 11
52.161
 21
-186.866
  0
LINE
  8
0
 10
52.161
 20
-186.866
 11
51.9595
 21
-186.723
  0
LINE
  8
0
 10
51.9595
 20
-186.723
 11
51.7752
 21
-186.558
  0
LINE
  8
0
 10
51.7752
 20
-186.558
 11
51.6106
 21
-186.374
  0
LINE
  8
0
 10
51.6106
 20
-186.374
 11
51.4676
 21
-186.172
  0
LINE
  8
0
 10
51.4676
 20
-186.172
 11
51.3481
 21
-185.956
  0
LINE
  8
0
 10
51.3481
 20
-185.956
 11
51.2535
 21
-185.728
  0
LINE
  8
0
 10
51.2535
 20
-185.728
 11
51.1851
 21
-185.49
  0
LINE
  8
0
 10
51.1851
 20
-185.49
 11
51.1437
 21
-185.247
  0
LINE
  8
0
 10
51.1437
 20
-185.247
 11
51.1299
 21
-185
  0
LINE
  8
0
 10
51.1299
 20
-185
 11
51.1437
 21
-184.753
  0
LINE
  8
0
 10
51.1437
 20
-184.753
 11
51.1851
 21
-184.51
  0
LINE
  8
0
 10
51.1851
 20
-184.51
 11
51.2535
 21
-184.272
  0
LINE
  8
0
 10
51.2535
 20
-184.272
 11
51.3481
 21
-184.044
  0
LINE
  8
0
 10
51.3481
 20
-184.044
 11
51.4676
 21
-183.828
  0
LINE
  8
0
 10
51.4676
 20
-183.828
 11
51.6106
 21
-183.626
  0
LINE
  8
0
 10
51.6106
 20
-183.626
 11
51.7752
 21
-183.442
  0
LINE
  8
0
 10
51.7752
 20
-183.442
 11
51.9595
 21
-183.277
  0
LINE
  8
0
 10
51.9595
 20
-183.277
 11
52.161
 21
-183.134
  0
LINE
  8
0
 10
52.161
 20
-183.134
 11
52.3773
 21
-183.015
  0
LINE
  8
0
 10
52.3773
 20
-183.015
 11
52.6056
 21
-182.92
  0
LINE
  8
0
 10
52.6056
 20
-182.92
 11
52.843
 21
-182.852
  0
LINE
  8
0
 10
52.843
 20
-182.852
 11
53.0866
 21
-182.81
  0
LINE
  8
0
 10
53.0866
 20
-182.81
 11
53.3333
 21
-182.797
  0
LINE
  8
0
 10
53.3333
 20
-182.797
 11
53.58
 21
-182.81
  0
LINE
  8
0
 10
53.58
 20
-182.81
 11
53.8236
 21
-182.852
  0
LINE
  8
0
 10
53.8236
 20
-182.852
 11
54.0611
 21
-182.92
  0
LINE
  8
0
 10
54.0611
 20
-182.92
 11
54.2894
 21
-183.015
  0
LINE
  8
0
 10
54.2894
 20
-183.015
 11
54.5056
 21
-183.134
  0
LINE
  8
0
 10
54.5056
 20
-183.134
 11
54.7072
 21
-183.277
  0
LINE
  8
0
 10
54.7072
 20
-183.277
 11
54.8914
 21
-183.442
  0
LINE
  8
0
 10
54.8914
 20
-183.442
 11
55.0561
 21
-183.626
  0
LINE
  8
0
 10
55.0561
 20
-183.626
 11
55.1991
 21
-183.828
  0
LINE
  8
0
 10
55.1991
 20
-183.828
 11
55.3186
 21
-184.044
  0
LINE
  8
0
 10
55.3186
 20
-184.044
 11
55.4131
 21
-184.272
  0
LINE
  8
0
 10
55.4131
 20
-184.272
 11
55.4816
 21
-184.51
  0
LINE
  8
0
 10
55.4816
 20
-184.51
 11
55.5229
 21
-184.753
  0
LINE
  8
0
 10
55.5229
 20
-184.753
 11
55.5368
 21
-185
  0
LINE
  8
0
 10
55.5368
 20
-185
 11
55.5229
 21
-185.247
  0
LINE
  8
0
 10
55.5229
 20
-185.247
 11
55.4816
 21
-185.49
  0
LINE
  8
0
 10
55.4816
 20
-185.49
 11
55.4131
 21
-185.728
  0
LINE
  8
0
 10
55.4131
 20
-185.728
 11
55.3186
 21
-185.956
  0
LINE
  8
0
 10
55.3186
 20
-185.956
 11
55.1991
 21
-186.172
  0
LINE
  8
0
 10
55.1991
 20
-186.172
 11
55.0561
 21
-186.374
  0
LINE
  8
0
 10
55.0561
 20
-186.374
 11
54.8914
 21
-186.558
  0
LINE
  8
0
 10
54.8914
 20
-186.558
 11
54.7072
 21
-186.723
  0
LINE
  8
0
 10
54.7072
 20
-186.723
 11
54.5056
 21
-186.866
  0
LINE
  8
0
 10
54.5056
 20
-186.866
 11
54.2894
 21
-186.985
  0
LINE
  8
0
 10
54.2894
 20
-186.985
 11
54.0611
 21
-187.08
  0
LINE
  8
0
 10
54.0611
 20
-187.08
 11
53.8236
 21
-187.148
  0
LINE
  8
0
 10
53.8236
 20
-187.148
 11
53.58
 21
-187.19
  0
LINE
  8
0
 10
53.58
 20
-187.19
 11
53.3333
 21
-187.203
  0
LINE
  8
0
 10
53.3333
 20
-187.203
 11
53.0866
 21
-187.19
  0
LINE
  8
0
 10
-53.58
 20
-187.19
 11
-53.8237
 21
-187.148
  0
LINE
  8
0
 10
-53.8237
 20
-187.148
 11
-54.0611
 21
-187.08
  0
LINE
  8
0
 10
-54.0611
 20
-187.08
 11
-54.2894
 21
-186.985
  0
LINE
  8
0
 10
-54.2894
 20
-186.985
 11
-54.5057
 21
-186.866
  0
LINE
  8
0
 10
-54.5057
 20
-186.866
 11
-54.7072
 21
-186.723
  0
LINE
  8
0
 10
-54.7072
 20
-186.723
 11
-54.8914
 21
-186.558
  0
LINE
  8
0
 10
-54.8914
 20
-186.558
 11
-55.0561
 21
-186.374
  0
LINE
  8
0
 10
-55.0561
 20
-186.374
 11
-55.1991
 21
-186.172
  0
LINE
  8
0
 10
-55.1991
 20
-186.172
 11
-55.3186
 21
-185.956
  0
LINE
  8
0
 10
-55.3186
 20
-185.956
 11
-55.4132
 21
-185.728
  0
LINE
  8
0
 10
-55.4132
 20
-185.728
 11
-55.4816
 21
-185.49
  0
LINE
  8
0
 10
-55.4816
 20
-185.49
 11
-55.5229
 21
-185.247
  0
LINE
  8
0
 10
-55.5229
 20
-185.247
 11
-55.5368
 21
-185
  0
LINE
  8
0
 10
-55.5368
 20
-185
 11
-55.5229
 21
-184.753
  0
LINE
  8
0
 10
-55.5229
 20
-184.753
 11
-55.4816
 21
-184.51
  0
LINE
  8
0
 10
-55.4816
 20
-184.51
 11
-55.4132
 21
-184.272
  0
LINE
  8
0
 10
-55.4132
 20
-184.272
 11
-55.3186
 21
-184.044
  0
LINE
  8
0
 10
-55.3186
 20
-184.044
 11
-55.1991
 21
-183.828
  0
LINE
  8
0
 10
-55.1991
 20
-183.828
 11
-55.0561
 21
-183.626
  0
LINE
  8
0
 10
-55.0561
 20
-183.626
 11
-54.8914
 21
-183.442
  0
LINE
  8
0
 10
-54.8914
 20
-183.442
 11
-54.7072
 21
-183.277
  0
LINE
  8
0
 10
-54.7072
 20
-183.277
 11
-54.5057
 21
-183.134
  0
LINE
  8
0
 10
-54.5057
 20
-183.134
 11
-54.2894
 21
-183.015
  0
LINE
  8
0
 10
-54.2894
 20
-183.015
 11
-54.0611
 21
-182.92
  0
LINE
  8
0
 10
-54.0611
 20
-182.92
 11
-53.8237
 21
-182.852
  0
LINE
  8
0
 10
-53.8237
 20
-182.852
 11
-53.58
 21
-182.81
  0
LINE
  8
0
 10
-53.58
 20
-182.81
 11
-53.3333
 21
-182.797
  0
LINE
  8
0
 10
-53.3333
 20
-182.797
 11
-53.0866
 21
-182.81
  0
LINE
  8
0
 10
-53.0866
 20
-182.81
 11
-52.843
 21
-182.852
  0
LINE
  8
0
 10
-52.843
 20
-182.852
 11
-52.6056
 21
-182.92
  0
LINE
  8
0
 10
-52.6056
 20
-182.92
 11
-52.3773
 21
-183.015
  0
LINE
  8
0
 10
-52.3773
 20
-183.015
 11
-52.161
 21
-183.134
  0
LINE
  8
0
 10
-52.161
 20
-183.134
 11
-51.9595
 21
-183.277
  0
LINE
  8
0
 10
-51.9595
 20
-183.277
 11
-51.7753
 21
-183.442
  0
LINE
  8
0
 10
-51.7753
 20
-183.442
 11
-51.6106
 21
-183.626
  0
LINE
  8
0
 10
-51.6106
 20
-183.626
 11
-51.4676
 21
-183.828
  0
LINE
  8
0
 10
-51.4676
 20
-183.828
 11
-51.3481
 21
-184.044
  0
LINE
  8
0
 10
-51.3481
 20
-184.044
 11
-51.2535
 21
-184.272
  0
LINE
  8
0
 10
-51.2535
 20
-184.272
 11
-51.1851
 21
-184.51
  0
LINE
  8
0
 10
-51.1851
 20
-184.51
 11
-51.1437
 21
-184.753
  0
LINE
  8
0
 10
-51.1437
 20
-184.753
 11
-51.1299
 21
-185
  0
LINE
  8
0
 10
-51.1299
 20
-185
 11
-51.1437
 21
-185.247
  0
LINE
  8
0
 10
-51.1437
 20
-185.247
 11
-51.1851
 21
-185.49
  0
LINE
  8
0
 10
-51.1851
 20
-185.49
 11
-51.2535
 21
-185.728
  0
LINE
  8
0
 10
-51.2535
 20
-185.728
 11
-51.3481
 21
-185.956
  0
LINE
  8
0
 10
-51.3481
 20
-185.956
 11
-51.4676
 21
-186.172
  0
LINE
  8
0
 10
-51.4676
 20
-186.172
 11
-51.6106
 21
-186.374
  0
LINE
  8
0
 10
-51.6106
 20
-186.374
 11
-51.7753
 21
-186.558
  0
LINE
  8
0
 10
-51.7753
 20
-186.558
 11
-51.9595
 21
-186.723
  0
LINE
  8
0
 10
-51.9595
 20
-186.723
 11
-52.161
 21
-186.866
  0
LINE
  8
0
 10
-52.161
 20
-186.866
 11
-52.3773
 21
-186.985
  0
LINE
  8
0
 10
-52.3773
 20
-186.985
 11
-52.6056
 21
-187.08
  0
LINE
  8
0
 10
-52.6056
 20
-187.08
 11
-52.843
 21
-187.148
  0
LINE
  8
0
 10
-52.843
 20
-187.148
 11
-53.0866
 21
-187.19
  0
LINE
  8
0
 10
-53.0866
 20
-187.19
 11
-53.3333
 21
-187.203
  0
LINE
  8
0
 10
-53.3333
 20
-187.203
 11
-53.58
 21
-187.19
  0
ENDSEC
  0
SECTION
  2
OBJECTS
  0
DICTIONARY
  0
ENDSEC
  0
EOF
