  0
SECTION
  2
BLOCKS
  0
ENDSEC
  0
SECTION
  2
ENTITIES
  0
LINE
  8
0
 10
123.735
 20
-184.982
 11
123.964
 21
-184.927
  0
LINE
  8
0
 10
123.964
 20
-184.927
 11
124.181
 21
-184.837
  0
LINE
  8
0
 10
124.181
 20
-184.837
 11
124.382
 21
-184.714
  0
LINE
  8
0
 10
124.382
 20
-184.714
 11
124.561
 21
-184.561
  0
LINE
  8
0
 10
124.561
 20
-184.561
 11
124.714
 21
-184.382
  0
LINE
  8
0
 10
124.714
 20
-184.382
 11
124.837
 21
-184.181
  0
LINE
  8
0
 10
124.837
 20
-184.181
 11
124.927
 21
-183.964
  0
LINE
  8
0
 10
124.927
 20
-183.964
 11
124.982
 21
-183.735
  0
LINE
  8
0
 10
124.982
 20
-183.735
 11
125
 21
-183.5
  0
LINE
  8
0
 10
125
 20
-183.5
 11
125
 21
183.5
  0
LINE
  8
0
 10
125
 20
183.5
 11
124.982
 21
183.735
  0
LINE
  8
0
 10
124.982
 20
183.735
 11
124.927
 21
183.964
  0
LINE
  8
0
 10
124.927
 20
183.964
 11
124.837
 21
184.181
  0
LINE
  8
0
 10
124.837
 20
184.181
 11
124.714
 21
184.382
  0
LINE
  8
0
 10
124.714
 20
184.382
 11
124.561
 21
184.561
  0
LINE
  8
0
 10
124.561
 20
184.561
 11
124.382
 21
184.714
  0
LINE
  8
0
 10
124.382
 20
184.714
 11
124.181
 21
184.837
  0
LINE
  8
0
 10
124.181
 20
184.837
 11
123.964
 21
184.927
  0
LINE
  8
0
 10
123.964
 20
184.927
 11
123.735
 21
184.982
  0
LINE
  8
0
 10
123.735
 20
184.982
 11
123.5
 21
185
  0
LINE
  8
0
 10
123.5
 20
185
 11
-25.5943
 21
185
  0
LINE
  8
0
 10
-25.5943
 20
185
 11
-25.7482
 21
184.987
  0
LINE
  8
0
 10
-25.7482
 20
184.987
 11
-25.9896
 21
184.926
  0
LINE
  8
0
 10
-25.9896
 20
184.926
 11
-26.2177
 21
184.826
  0
LINE
  8
0
 10
-26.2177
 20
184.826
 11
-26.4261
 21
184.69
  0
LINE
  8
0
 10
-26.4261
 20
184.69
 11
-26.6093
 21
184.521
  0
LINE
  8
0
 10
-26.6093
 20
184.521
 11
-26.7623
 21
184.325
  0
LINE
  8
0
 10
-26.7623
 20
184.325
 11
-26.8808
 21
184.106
  0
LINE
  8
0
 10
-26.8808
 20
184.106
 11
-26.9617
 21
183.87
  0
LINE
  8
0
 10
-26.9617
 20
183.87
 11
-27
 21
183.64
  0
LINE
  8
0
 10
-27
 20
183.64
 11
-27
 21
161
  0
LINE
  8
0
 10
-27
 20
161
 11
-27.0185
 21
160.765
  0
LINE
  8
0
 10
-27.0185
 20
160.765
 11
-27.0734
 21
160.536
  0
LINE
  8
0
 10
-27.0734
 20
160.536
 11
-27.1635
 21
160.319
  0
LINE
  8
0
 10
-27.1635
 20
160.319
 11
-27.2865
 21
160.118
  0
LINE
  8
0
 10
-27.2865
 20
160.118
 11
-27.4393
 21
159.939
  0
LINE
  8
0
 10
-27.4393
 20
159.939
 11
-27.6183
 21
159.786
  0
LINE
  8
0
 10
-27.6183
 20
159.786
 11
-27.819
 21
159.663
  0
LINE
  8
0
 10
-27.819
 20
159.663
 11
-28.0365
 21
159.573
  0
LINE
  8
0
 10
-28.0365
 20
159.573
 11
-28.2654
 21
159.518
  0
LINE
  8
0
 10
-28.2654
 20
159.518
 11
-28.5
 21
159.5
  0
LINE
  8
0
 10
-28.5
 20
159.5
 11
-40.5
 21
159.5
  0
LINE
  8
0
 10
-40.5
 20
159.5
 11
-40.7346
 21
159.518
  0
LINE
  8
0
 10
-40.7346
 20
159.518
 11
-40.9635
 21
159.573
  0
LINE
  8
0
 10
-40.9635
 20
159.573
 11
-41.181
 21
159.663
  0
LINE
  8
0
 10
-41.181
 20
159.663
 11
-41.3817
 21
159.786
  0
LINE
  8
0
 10
-41.3817
 20
159.786
 11
-41.5607
 21
159.939
  0
LINE
  8
0
 10
-41.5607
 20
159.939
 11
-41.7135
 21
160.118
  0
LINE
  8
0
 10
-41.7135
 20
160.118
 11
-41.8365
 21
160.319
  0
LINE
  8
0
 10
-41.8365
 20
160.319
 11
-41.9266
 21
160.536
  0
LINE
  8
0
 10
-41.9266
 20
160.536
 11
-41.9815
 21
160.765
  0
LINE
  8
0
 10
-41.9815
 20
160.765
 11
-42
 21
161
  0
LINE
  8
0
 10
-42
 20
161
 11
-42
 21
183.594
  0
LINE
  8
0
 10
-42
 20
183.594
 11
-42.0127
 21
183.748
  0
LINE
  8
0
 10
-42.0127
 20
183.748
 11
-42.0739
 21
183.99
  0
LINE
  8
0
 10
-42.0739
 20
183.99
 11
-42.1739
 21
184.218
  0
LINE
  8
0
 10
-42.1739
 20
184.218
 11
-42.3101
 21
184.426
  0
LINE
  8
0
 10
-42.3101
 20
184.426
 11
-42.4788
 21
184.609
  0
LINE
  8
0
 10
-42.4788
 20
184.609
 11
-42.6753
 21
184.762
  0
LINE
  8
0
 10
-42.6753
 20
184.762
 11
-42.8943
 21
184.881
  0
LINE
  8
0
 10
-42.8943
 20
184.881
 11
-43.1299
 21
184.962
  0
LINE
  8
0
 10
-43.1299
 20
184.962
 11
-43.3596
 21
185
  0
LINE
  8
0
 10
-43.3596
 20
185
 11
-69.5943
 21
185
  0
LINE
  8
0
 10
-69.5943
 20
185
 11
-69.7482
 21
184.987
  0
LINE
  8
0
 10
-69.7482
 20
184.987
 11
-69.9896
 21
184.926
  0
LINE
  8
0
 10
-69.9896
 20
184.926
 11
-70.2177
 21
184.826
  0
LINE
  8
0
 10
-70.2177
 20
184.826
 11
-70.4261
 21
184.69
  0
LINE
  8
0
 10
-70.4261
 20
184.69
 11
-70.6093
 21
184.521
  0
LINE
  8
0
 10
-70.6093
 20
184.521
 11
-70.7623
 21
184.325
  0
LINE
  8
0
 10
-70.7623
 20
184.325
 11
-70.8808
 21
184.106
  0
LINE
  8
0
 10
-70.8808
 20
184.106
 11
-70.9617
 21
183.87
  0
LINE
  8
0
 10
-70.9617
 20
183.87
 11
-71
 21
183.64
  0
LINE
  8
0
 10
-71
 20
183.64
 11
-71
 21
159
  0
LINE
  8
0
 10
-71
 20
159
 11
-71.0185
 21
158.765
  0
LINE
  8
0
 10
-71.0185
 20
158.765
 11
-71.0734
 21
158.536
  0
LINE
  8
0
 10
-71.0734
 20
158.536
 11
-71.1635
 21
158.319
  0
LINE
  8
0
 10
-71.1635
 20
158.319
 11
-71.2865
 21
158.118
  0
LINE
  8
0
 10
-71.2865
 20
158.118
 11
-71.4393
 21
157.939
  0
LINE
  8
0
 10
-71.4393
 20
157.939
 11
-71.6183
 21
157.786
  0
LINE
  8
0
 10
-71.6183
 20
157.786
 11
-71.819
 21
157.663
  0
LINE
  8
0
 10
-71.819
 20
157.663
 11
-72.0365
 21
157.573
  0
LINE
  8
0
 10
-72.0365
 20
157.573
 11
-72.2654
 21
157.518
  0
LINE
  8
0
 10
-72.2654
 20
157.518
 11
-72.5
 21
157.5
  0
LINE
  8
0
 10
-72.5
 20
157.5
 11
-77.5
 21
157.5
  0
LINE
  8
0
 10
-77.5
 20
157.5
 11
-77.7346
 21
157.518
  0
LINE
  8
0
 10
-77.7346
 20
157.518
 11
-77.9635
 21
157.573
  0
LINE
  8
0
 10
-77.9635
 20
157.573
 11
-78.181
 21
157.663
  0
LINE
  8
0
 10
-78.181
 20
157.663
 11
-78.3817
 21
157.786
  0
LINE
  8
0
 10
-78.3817
 20
157.786
 11
-78.5607
 21
157.939
  0
LINE
  8
0
 10
-78.5607
 20
157.939
 11
-78.7135
 21
158.118
  0
LINE
  8
0
 10
-78.7135
 20
158.118
 11
-78.8365
 21
158.319
  0
LINE
  8
0
 10
-78.8365
 20
158.319
 11
-78.9266
 21
158.536
  0
LINE
  8
0
 10
-78.9266
 20
158.536
 11
-78.9815
 21
158.765
  0
LINE
  8
0
 10
-78.9815
 20
158.765
 11
-79
 21
159
  0
LINE
  8
0
 10
-79
 20
159
 11
-79
 21
183.594
  0
LINE
  8
0
 10
-79
 20
183.594
 11
-79.0127
 21
183.748
  0
LINE
  8
0
 10
-79.0127
 20
183.748
 11
-79.0739
 21
183.99
  0
LINE
  8
0
 10
-79.0739
 20
183.99
 11
-79.1739
 21
184.218
  0
LINE
  8
0
 10
-79.1739
 20
184.218
 11
-79.3101
 21
184.426
  0
LINE
  8
0
 10
-79.3101
 20
184.426
 11
-79.4788
 21
184.609
  0
LINE
  8
0
 10
-79.4788
 20
184.609
 11
-79.6753
 21
184.762
  0
LINE
  8
0
 10
-79.6753
 20
184.762
 11
-79.8943
 21
184.881
  0
LINE
  8
0
 10
-79.8943
 20
184.881
 11
-80.1299
 21
184.962
  0
LINE
  8
0
 10
-80.1299
 20
184.962
 11
-80.3596
 21
185
  0
LINE
  8
0
 10
-80.3596
 20
185
 11
-123.5
 21
185
  0
LINE
  8
0
 10
-123.5
 20
185
 11
-123.735
 21
184.982
  0
LINE
  8
0
 10
-123.735
 20
184.982
 11
-123.964
 21
184.927
  0
LINE
  8
0
 10
-123.964
 20
184.927
 11
-124.181
 21
184.837
  0
LINE
  8
0
 10
-124.181
 20
184.837
 11
-124.382
 21
184.714
  0
LINE
  8
0
 10
-124.382
 20
184.714
 11
-124.561
 21
184.561
  0
LINE
  8
0
 10
-124.561
 20
184.561
 11
-124.714
 21
184.382
  0
LINE
  8
0
 10
-124.714
 20
184.382
 11
-124.837
 21
184.181
  0
LINE
  8
0
 10
-124.837
 20
184.181
 11
-124.927
 21
183.964
  0
LINE
  8
0
 10
-124.927
 20
183.964
 11
-124.982
 21
183.735
  0
LINE
  8
0
 10
-124.982
 20
183.735
 11
-125
 21
183.5
  0
LINE
  8
0
 10
-125
 20
183.5
 11
-125
 21
-183.5
  0
LINE
  8
0
 10
-125
 20
-183.5
 11
-124.982
 21
-183.735
  0
LINE
  8
0
 10
-124.982
 20
-183.735
 11
-124.927
 21
-183.964
  0
LINE
  8
0
 10
-124.927
 20
-183.964
 11
-124.837
 21
-184.181
  0
LINE
  8
0
 10
-124.837
 20
-184.181
 11
-124.714
 21
-184.382
  0
LINE
  8
0
 10
-124.714
 20
-184.382
 11
-124.561
 21
-184.561
  0
LINE
  8
0
 10
-124.561
 20
-184.561
 11
-124.382
 21
-184.714
  0
LINE
  8
0
 10
-124.382
 20
-184.714
 11
-124.181
 21
-184.837
  0
LINE
  8
0
 10
-124.181
 20
-184.837
 11
-123.964
 21
-184.927
  0
LINE
  8
0
 10
-123.964
 20
-184.927
 11
-123.735
 21
-184.982
  0
LINE
  8
0
 10
-123.735
 20
-184.982
 11
-123.5
 21
-185
  0
LINE
  8
0
 10
-123.5
 20
-185
 11
123.5
 21
-185
  0
LINE
  8
0
 10
123.5
 20
-185
 11
123.735
 21
-184.982
  0
LINE
  8
0
 10
-105.123
 20
173.355
 11
-105.367
 21
173.391
  0
LINE
  8
0
 10
-105.367
 20
173.391
 11
-105.603
 21
173.464
  0
LINE
  8
0
 10
-105.603
 20
173.464
 11
-105.825
 21
173.571
  0
LINE
  8
0
 10
-105.825
 20
173.571
 11
-106.029
 21
173.71
  0
LINE
  8
0
 10
-106.029
 20
173.71
 11
-106.21
 21
173.878
  0
LINE
  8
0
 10
-106.21
 20
173.878
 11
-106.363
 21
174.071
  0
LINE
  8
0
 10
-106.363
 20
174.071
 11
-106.487
 21
174.284
  0
LINE
  8
0
 10
-106.487
 20
174.284
 11
-106.577
 21
174.514
  0
LINE
  8
0
 10
-106.577
 20
174.514
 11
-106.632
 21
174.754
  0
LINE
  8
0
 10
-106.632
 20
174.754
 11
-106.65
 21
175
  0
LINE
  8
0
 10
-106.65
 20
175
 11
-106.632
 21
175.246
  0
LINE
  8
0
 10
-106.632
 20
175.246
 11
-106.577
 21
175.486
  0
LINE
  8
0
 10
-106.577
 20
175.486
 11
-106.487
 21
175.716
  0
LINE
  8
0
 10
-106.487
 20
175.716
 11
-106.363
 21
175.929
  0
LINE
  8
0
 10
-106.363
 20
175.929
 11
-106.21
 21
176.122
  0
LINE
  8
0
 10
-106.21
 20
176.122
 11
-106.029
 21
176.29
  0
LINE
  8
0
 10
-106.029
 20
176.29
 11
-105.825
 21
176.429
  0
LINE
  8
0
 10
-105.825
 20
176.429
 11
-105.603
 21
176.536
  0
LINE
  8
0
 10
-105.603
 20
176.536
 11
-105.367
 21
176.609
  0
LINE
  8
0
 10
-105.367
 20
176.609
 11
-105.123
 21
176.645
  0
LINE
  8
0
 10
-105.123
 20
176.645
 11
-104.877
 21
176.645
  0
LINE
  8
0
 10
-104.877
 20
176.645
 11
-104.633
 21
176.609
  0
LINE
  8
0
 10
-104.633
 20
176.609
 11
-104.397
 21
176.536
  0
LINE
  8
0
 10
-104.397
 20
176.536
 11
-104.175
 21
176.429
  0
LINE
  8
0
 10
-104.175
 20
176.429
 11
-103.971
 21
176.29
  0
LINE
  8
0
 10
-103.971
 20
176.29
 11
-103.79
 21
176.122
  0
LINE
  8
0
 10
-103.79
 20
176.122
 11
-103.637
 21
175.929
  0
LINE
  8
0
 10
-103.637
 20
175.929
 11
-103.513
 21
175.716
  0
LINE
  8
0
 10
-103.513
 20
175.716
 11
-103.423
 21
175.486
  0
LINE
  8
0
 10
-103.423
 20
175.486
 11
-103.368
 21
175.246
  0
LINE
  8
0
 10
-103.368
 20
175.246
 11
-103.35
 21
175
  0
LINE
  8
0
 10
-103.35
 20
175
 11
-103.368
 21
174.754
  0
LINE
  8
0
 10
-103.368
 20
174.754
 11
-103.423
 21
174.514
  0
LINE
  8
0
 10
-103.423
 20
174.514
 11
-103.513
 21
174.284
  0
LINE
  8
0
 10
-103.513
 20
174.284
 11
-103.637
 21
174.071
  0
LINE
  8
0
 10
-103.637
 20
174.071
 11
-103.79
 21
173.878
  0
LINE
  8
0
 10
-103.79
 20
173.878
 11
-103.971
 21
173.71
  0
LINE
  8
0
 10
-103.971
 20
173.71
 11
-104.175
 21
173.571
  0
LINE
  8
0
 10
-104.175
 20
173.571
 11
-104.397
 21
173.464
  0
LINE
  8
0
 10
-104.397
 20
173.464
 11
-104.633
 21
173.391
  0
LINE
  8
0
 10
-104.633
 20
173.391
 11
-104.877
 21
173.355
  0
LINE
  8
0
 10
-104.877
 20
173.355
 11
-105.123
 21
173.355
  0
LINE
  8
0
 10
-0.123291
 20
173.355
 11
-0.367157
 21
173.391
  0
LINE
  8
0
 10
-0.367157
 20
173.391
 11
-0.602798
 21
173.464
  0
LINE
  8
0
 10
-0.602798
 20
173.464
 11
-0.824997
 21
173.571
  0
LINE
  8
0
 10
-0.824997
 20
173.571
 11
-1.02875
 21
173.71
  0
LINE
  8
0
 10
-1.02875
 20
173.71
 11
-1.20953
 21
173.878
  0
LINE
  8
0
 10
-1.20953
 20
173.878
 11
-1.36328
 21
174.071
  0
LINE
  8
0
 10
-1.36328
 20
174.071
 11
-1.48659
 21
174.284
  0
LINE
  8
0
 10
-1.48659
 20
174.284
 11
-1.57669
 21
174.514
  0
LINE
  8
0
 10
-1.57669
 20
174.514
 11
-1.63156
 21
174.754
  0
LINE
  8
0
 10
-1.63156
 20
174.754
 11
-1.64999
 21
175
  0
LINE
  8
0
 10
-1.64999
 20
175
 11
-1.63156
 21
175.246
  0
LINE
  8
0
 10
-1.63156
 20
175.246
 11
-1.57669
 21
175.486
  0
LINE
  8
0
 10
-1.57669
 20
175.486
 11
-1.48659
 21
175.716
  0
LINE
  8
0
 10
-1.48659
 20
175.716
 11
-1.36328
 21
175.929
  0
LINE
  8
0
 10
-1.36328
 20
175.929
 11
-1.20953
 21
176.122
  0
LINE
  8
0
 10
-1.20953
 20
176.122
 11
-1.02875
 21
176.29
  0
LINE
  8
0
 10
-1.02875
 20
176.29
 11
-0.824997
 21
176.429
  0
LINE
  8
0
 10
-0.824997
 20
176.429
 11
-0.602798
 21
176.536
  0
LINE
  8
0
 10
-0.602798
 20
176.536
 11
-0.367157
 21
176.609
  0
LINE
  8
0
 10
-0.367157
 20
176.609
 11
-0.123291
 21
176.645
  0
LINE
  8
0
 10
-0.123291
 20
176.645
 11
0.123291
 21
176.645
  0
LINE
  8
0
 10
0.123291
 20
176.645
 11
0.367157
 21
176.609
  0
LINE
  8
0
 10
0.367157
 20
176.609
 11
0.602798
 21
176.536
  0
LINE
  8
0
 10
0.602798
 20
176.536
 11
0.824997
 21
176.429
  0
LINE
  8
0
 10
0.824997
 20
176.429
 11
1.02875
 21
176.29
  0
LINE
  8
0
 10
1.02875
 20
176.29
 11
1.20953
 21
176.122
  0
LINE
  8
0
 10
1.20953
 20
176.122
 11
1.36328
 21
175.929
  0
LINE
  8
0
 10
1.36328
 20
175.929
 11
1.48659
 21
175.716
  0
LINE
  8
0
 10
1.48659
 20
175.716
 11
1.57669
 21
175.486
  0
LINE
  8
0
 10
1.57669
 20
175.486
 11
1.63156
 21
175.246
  0
LINE
  8
0
 10
1.63156
 20
175.246
 11
1.64999
 21
175
  0
LINE
  8
0
 10
1.64999
 20
175
 11
1.63156
 21
174.754
  0
LINE
  8
0
 10
1.63156
 20
174.754
 11
1.57669
 21
174.514
  0
LINE
  8
0
 10
1.57669
 20
174.514
 11
1.48659
 21
174.284
  0
LINE
  8
0
 10
1.48659
 20
174.284
 11
1.36328
 21
174.071
  0
LINE
  8
0
 10
1.36328
 20
174.071
 11
1.20953
 21
173.878
  0
LINE
  8
0
 10
1.20953
 20
173.878
 11
1.02875
 21
173.71
  0
LINE
  8
0
 10
1.02875
 20
173.71
 11
0.824997
 21
173.571
  0
LINE
  8
0
 10
0.824997
 20
173.571
 11
0.602798
 21
173.464
  0
LINE
  8
0
 10
0.602798
 20
173.464
 11
0.367157
 21
173.391
  0
LINE
  8
0
 10
0.367157
 20
173.391
 11
0.123291
 21
173.355
  0
LINE
  8
0
 10
0.123291
 20
173.355
 11
-0.123291
 21
173.355
  0
LINE
  8
0
 10
104.877
 20
173.355
 11
104.633
 21
173.391
  0
LINE
  8
0
 10
104.633
 20
173.391
 11
104.397
 21
173.464
  0
LINE
  8
0
 10
104.397
 20
173.464
 11
104.175
 21
173.571
  0
LINE
  8
0
 10
104.175
 20
173.571
 11
103.971
 21
173.71
  0
LINE
  8
0
 10
103.971
 20
173.71
 11
103.79
 21
173.878
  0
LINE
  8
0
 10
103.79
 20
173.878
 11
103.637
 21
174.071
  0
LINE
  8
0
 10
103.637
 20
174.071
 11
103.513
 21
174.284
  0
LINE
  8
0
 10
103.513
 20
174.284
 11
103.423
 21
174.514
  0
LINE
  8
0
 10
103.423
 20
174.514
 11
103.368
 21
174.754
  0
LINE
  8
0
 10
103.368
 20
174.754
 11
103.35
 21
175
  0
LINE
  8
0
 10
103.35
 20
175
 11
103.368
 21
175.246
  0
LINE
  8
0
 10
103.368
 20
175.246
 11
103.423
 21
175.486
  0
LINE
  8
0
 10
103.423
 20
175.486
 11
103.513
 21
175.716
  0
LINE
  8
0
 10
103.513
 20
175.716
 11
103.637
 21
175.929
  0
LINE
  8
0
 10
103.637
 20
175.929
 11
103.79
 21
176.122
  0
LINE
  8
0
 10
103.79
 20
176.122
 11
103.971
 21
176.29
  0
LINE
  8
0
 10
103.971
 20
176.29
 11
104.175
 21
176.429
  0
LINE
  8
0
 10
104.175
 20
176.429
 11
104.397
 21
176.536
  0
LINE
  8
0
 10
104.397
 20
176.536
 11
104.633
 21
176.609
  0
LINE
  8
0
 10
104.633
 20
176.609
 11
104.877
 21
176.645
  0
LINE
  8
0
 10
104.877
 20
176.645
 11
105.123
 21
176.645
  0
LINE
  8
0
 10
105.123
 20
176.645
 11
105.367
 21
176.609
  0
LINE
  8
0
 10
105.367
 20
176.609
 11
105.603
 21
176.536
  0
LINE
  8
0
 10
105.603
 20
176.536
 11
105.825
 21
176.429
  0
LINE
  8
0
 10
105.825
 20
176.429
 11
106.029
 21
176.29
  0
LINE
  8
0
 10
106.029
 20
176.29
 11
106.21
 21
176.122
  0
LINE
  8
0
 10
106.21
 20
176.122
 11
106.363
 21
175.929
  0
LINE
  8
0
 10
106.363
 20
175.929
 11
106.487
 21
175.716
  0
LINE
  8
0
 10
106.487
 20
175.716
 11
106.577
 21
175.486
  0
LINE
  8
0
 10
106.577
 20
175.486
 11
106.632
 21
175.246
  0
LINE
  8
0
 10
106.632
 20
175.246
 11
106.65
 21
175
  0
LINE
  8
0
 10
106.65
 20
175
 11
106.632
 21
174.754
  0
LINE
  8
0
 10
106.632
 20
174.754
 11
106.577
 21
174.514
  0
LINE
  8
0
 10
106.577
 20
174.514
 11
106.487
 21
174.284
  0
LINE
  8
0
 10
106.487
 20
174.284
 11
106.363
 21
174.071
  0
LINE
  8
0
 10
106.363
 20
174.071
 11
106.21
 21
173.878
  0
LINE
  8
0
 10
106.21
 20
173.878
 11
106.029
 21
173.71
  0
LINE
  8
0
 10
106.029
 20
173.71
 11
105.825
 21
173.571
  0
LINE
  8
0
 10
105.825
 20
173.571
 11
105.603
 21
173.464
  0
LINE
  8
0
 10
105.603
 20
173.464
 11
105.367
 21
173.391
  0
LINE
  8
0
 10
105.367
 20
173.391
 11
105.123
 21
173.355
  0
LINE
  8
0
 10
105.123
 20
173.355
 11
104.877
 21
173.355
  0
LINE
  8
0
 10
-121.123
 20
119.605
 11
-121.367
 21
119.641
  0
LINE
  8
0
 10
-121.367
 20
119.641
 11
-121.603
 21
119.714
  0
LINE
  8
0
 10
-121.603
 20
119.714
 11
-121.825
 21
119.821
  0
LINE
  8
0
 10
-121.825
 20
119.821
 11
-122.029
 21
119.96
  0
LINE
  8
0
 10
-122.029
 20
119.96
 11
-122.21
 21
120.128
  0
LINE
  8
0
 10
-122.21
 20
120.128
 11
-122.363
 21
120.321
  0
LINE
  8
0
 10
-122.363
 20
120.321
 11
-122.487
 21
120.534
  0
LINE
  8
0
 10
-122.487
 20
120.534
 11
-122.577
 21
120.764
  0
LINE
  8
0
 10
-122.577
 20
120.764
 11
-122.632
 21
121.004
  0
LINE
  8
0
 10
-122.632
 20
121.004
 11
-122.65
 21
121.25
  0
LINE
  8
0
 10
-122.65
 20
121.25
 11
-122.632
 21
121.496
  0
LINE
  8
0
 10
-122.632
 20
121.496
 11
-122.577
 21
121.736
  0
LINE
  8
0
 10
-122.577
 20
121.736
 11
-122.487
 21
121.966
  0
LINE
  8
0
 10
-122.487
 20
121.966
 11
-122.363
 21
122.179
  0
LINE
  8
0
 10
-122.363
 20
122.179
 11
-122.21
 21
122.372
  0
LINE
  8
0
 10
-122.21
 20
122.372
 11
-122.029
 21
122.54
  0
LINE
  8
0
 10
-122.029
 20
122.54
 11
-121.825
 21
122.679
  0
LINE
  8
0
 10
-121.825
 20
122.679
 11
-121.603
 21
122.786
  0
LINE
  8
0
 10
-121.603
 20
122.786
 11
-121.367
 21
122.859
  0
LINE
  8
0
 10
-121.367
 20
122.859
 11
-121.123
 21
122.895
  0
LINE
  8
0
 10
-121.123
 20
122.895
 11
-120.877
 21
122.895
  0
LINE
  8
0
 10
-120.877
 20
122.895
 11
-120.633
 21
122.859
  0
LINE
  8
0
 10
-120.633
 20
122.859
 11
-120.397
 21
122.786
  0
LINE
  8
0
 10
-120.397
 20
122.786
 11
-120.175
 21
122.679
  0
LINE
  8
0
 10
-120.175
 20
122.679
 11
-119.971
 21
122.54
  0
LINE
  8
0
 10
-119.971
 20
122.54
 11
-119.79
 21
122.372
  0
LINE
  8
0
 10
-119.79
 20
122.372
 11
-119.637
 21
122.179
  0
LINE
  8
0
 10
-119.637
 20
122.179
 11
-119.513
 21
121.966
  0
LINE
  8
0
 10
-119.513
 20
121.966
 11
-119.423
 21
121.736
  0
LINE
  8
0
 10
-119.423
 20
121.736
 11
-119.368
 21
121.496
  0
LINE
  8
0
 10
-119.368
 20
121.496
 11
-119.35
 21
121.25
  0
LINE
  8
0
 10
-119.35
 20
121.25
 11
-119.368
 21
121.004
  0
LINE
  8
0
 10
-119.368
 20
121.004
 11
-119.423
 21
120.764
  0
LINE
  8
0
 10
-119.423
 20
120.764
 11
-119.513
 21
120.534
  0
LINE
  8
0
 10
-119.513
 20
120.534
 11
-119.637
 21
120.321
  0
LINE
  8
0
 10
-119.637
 20
120.321
 11
-119.79
 21
120.128
  0
LINE
  8
0
 10
-119.79
 20
120.128
 11
-119.971
 21
119.96
  0
LINE
  8
0
 10
-119.971
 20
119.96
 11
-120.175
 21
119.821
  0
LINE
  8
0
 10
-120.175
 20
119.821
 11
-120.397
 21
119.714
  0
LINE
  8
0
 10
-120.397
 20
119.714
 11
-120.633
 21
119.641
  0
LINE
  8
0
 10
-120.633
 20
119.641
 11
-120.877
 21
119.605
  0
LINE
  8
0
 10
-120.877
 20
119.605
 11
-121.123
 21
119.605
  0
LINE
  8
0
 10
-121.123
 20
32.1046
 11
-121.367
 21
32.1414
  0
LINE
  8
0
 10
-121.367
 20
32.1414
 11
-121.603
 21
32.2141
  0
LINE
  8
0
 10
-121.603
 20
32.2141
 11
-121.825
 21
32.321
  0
LINE
  8
0
 10
-121.825
 20
32.321
 11
-122.029
 21
32.46
  0
LINE
  8
0
 10
-122.029
 20
32.46
 11
-122.21
 21
32.6277
  0
LINE
  8
0
 10
-122.21
 20
32.6277
 11
-122.363
 21
32.8205
  0
LINE
  8
0
 10
-122.363
 20
32.8205
 11
-122.487
 21
33.0341
  0
LINE
  8
0
 10
-122.487
 20
33.0341
 11
-122.577
 21
33.2636
  0
LINE
  8
0
 10
-122.577
 20
33.2636
 11
-122.632
 21
33.5041
  0
LINE
  8
0
 10
-122.632
 20
33.5041
 11
-122.65
 21
33.75
  0
LINE
  8
0
 10
-122.65
 20
33.75
 11
-122.632
 21
33.9959
  0
LINE
  8
0
 10
-122.632
 20
33.9959
 11
-122.577
 21
34.2363
  0
LINE
  8
0
 10
-122.577
 20
34.2363
 11
-122.487
 21
34.4659
  0
LINE
  8
0
 10
-122.487
 20
34.4659
 11
-122.363
 21
34.6795
  0
LINE
  8
0
 10
-122.363
 20
34.6795
 11
-122.21
 21
34.8723
  0
LINE
  8
0
 10
-122.21
 20
34.8723
 11
-122.029
 21
35.04
  0
LINE
  8
0
 10
-122.029
 20
35.04
 11
-121.825
 21
35.1789
  0
LINE
  8
0
 10
-121.825
 20
35.1789
 11
-121.603
 21
35.2859
  0
LINE
  8
0
 10
-121.603
 20
35.2859
 11
-121.367
 21
35.3586
  0
LINE
  8
0
 10
-121.367
 20
35.3586
 11
-121.123
 21
35.3954
  0
LINE
  8
0
 10
-121.123
 20
35.3954
 11
-120.877
 21
35.3954
  0
LINE
  8
0
 10
-120.877
 20
35.3954
 11
-120.633
 21
35.3586
  0
LINE
  8
0
 10
-120.633
 20
35.3586
 11
-120.397
 21
35.2859
  0
LINE
  8
0
 10
-120.397
 20
35.2859
 11
-120.175
 21
35.1789
  0
LINE
  8
0
 10
-120.175
 20
35.1789
 11
-119.971
 21
35.04
  0
LINE
  8
0
 10
-119.971
 20
35.04
 11
-119.79
 21
34.8723
  0
LINE
  8
0
 10
-119.79
 20
34.8723
 11
-119.637
 21
34.6795
  0
LINE
  8
0
 10
-119.637
 20
34.6795
 11
-119.513
 21
34.4659
  0
LINE
  8
0
 10
-119.513
 20
34.4659
 11
-119.423
 21
34.2363
  0
LINE
  8
0
 10
-119.423
 20
34.2363
 11
-119.368
 21
33.9959
  0
LINE
  8
0
 10
-119.368
 20
33.9959
 11
-119.35
 21
33.75
  0
LINE
  8
0
 10
-119.35
 20
33.75
 11
-119.368
 21
33.5041
  0
LINE
  8
0
 10
-119.368
 20
33.5041
 11
-119.423
 21
33.2636
  0
LINE
  8
0
 10
-119.423
 20
33.2636
 11
-119.513
 21
33.0341
  0
LINE
  8
0
 10
-119.513
 20
33.0341
 11
-119.637
 21
32.8205
  0
LINE
  8
0
 10
-119.637
 20
32.8205
 11
-119.79
 21
32.6277
  0
LINE
  8
0
 10
-119.79
 20
32.6277
 11
-119.971
 21
32.46
  0
LINE
  8
0
 10
-119.971
 20
32.46
 11
-120.175
 21
32.321
  0
LINE
  8
0
 10
-120.175
 20
32.321
 11
-120.397
 21
32.2141
  0
LINE
  8
0
 10
-120.397
 20
32.2141
 11
-120.633
 21
32.1414
  0
LINE
  8
0
 10
-120.633
 20
32.1414
 11
-120.877
 21
32.1046
  0
LINE
  8
0
 10
-120.877
 20
32.1046
 11
-121.123
 21
32.1046
  0
LINE
  8
0
 10
-121.123
 20
-55.3954
 11
-121.367
 21
-55.3586
  0
LINE
  8
0
 10
-121.367
 20
-55.3586
 11
-121.603
 21
-55.2859
  0
LINE
  8
0
 10
-121.603
 20
-55.2859
 11
-121.825
 21
-55.1789
  0
LINE
  8
0
 10
-121.825
 20
-55.1789
 11
-122.029
 21
-55.04
  0
LINE
  8
0
 10
-122.029
 20
-55.04
 11
-122.21
 21
-54.8723
  0
LINE
  8
0
 10
-122.21
 20
-54.8723
 11
-122.363
 21
-54.6795
  0
LINE
  8
0
 10
-122.363
 20
-54.6795
 11
-122.487
 21
-54.4659
  0
LINE
  8
0
 10
-122.487
 20
-54.4659
 11
-122.577
 21
-54.2363
  0
LINE
  8
0
 10
-122.577
 20
-54.2363
 11
-122.632
 21
-53.9959
  0
LINE
  8
0
 10
-122.632
 20
-53.9959
 11
-122.65
 21
-53.75
  0
LINE
  8
0
 10
-122.65
 20
-53.75
 11
-122.632
 21
-53.5041
  0
LINE
  8
0
 10
-122.632
 20
-53.5041
 11
-122.577
 21
-53.2636
  0
LINE
  8
0
 10
-122.577
 20
-53.2636
 11
-122.487
 21
-53.0341
  0
LINE
  8
0
 10
-122.487
 20
-53.0341
 11
-122.363
 21
-52.8205
  0
LINE
  8
0
 10
-122.363
 20
-52.8205
 11
-122.21
 21
-52.6277
  0
LINE
  8
0
 10
-122.21
 20
-52.6277
 11
-122.029
 21
-52.46
  0
LINE
  8
0
 10
-122.029
 20
-52.46
 11
-121.825
 21
-52.321
  0
LINE
  8
0
 10
-121.825
 20
-52.321
 11
-121.603
 21
-52.2141
  0
LINE
  8
0
 10
-121.603
 20
-52.2141
 11
-121.367
 21
-52.1414
  0
LINE
  8
0
 10
-121.367
 20
-52.1414
 11
-121.123
 21
-52.1046
  0
LINE
  8
0
 10
-121.123
 20
-52.1046
 11
-120.877
 21
-52.1046
  0
LINE
  8
0
 10
-120.877
 20
-52.1046
 11
-120.633
 21
-52.1414
  0
LINE
  8
0
 10
-120.633
 20
-52.1414
 11
-120.397
 21
-52.2141
  0
LINE
  8
0
 10
-120.397
 20
-52.2141
 11
-120.175
 21
-52.321
  0
LINE
  8
0
 10
-120.175
 20
-52.321
 11
-119.971
 21
-52.46
  0
LINE
  8
0
 10
-119.971
 20
-52.46
 11
-119.79
 21
-52.6277
  0
LINE
  8
0
 10
-119.79
 20
-52.6277
 11
-119.637
 21
-52.8205
  0
LINE
  8
0
 10
-119.637
 20
-52.8205
 11
-119.513
 21
-53.0341
  0
LINE
  8
0
 10
-119.513
 20
-53.0341
 11
-119.423
 21
-53.2636
  0
LINE
  8
0
 10
-119.423
 20
-53.2636
 11
-119.368
 21
-53.5041
  0
LINE
  8
0
 10
-119.368
 20
-53.5041
 11
-119.35
 21
-53.75
  0
LINE
  8
0
 10
-119.35
 20
-53.75
 11
-119.368
 21
-53.9959
  0
LINE
  8
0
 10
-119.368
 20
-53.9959
 11
-119.423
 21
-54.2363
  0
LINE
  8
0
 10
-119.423
 20
-54.2363
 11
-119.513
 21
-54.4659
  0
LINE
  8
0
 10
-119.513
 20
-54.4659
 11
-119.637
 21
-54.6795
  0
LINE
  8
0
 10
-119.637
 20
-54.6795
 11
-119.79
 21
-54.8723
  0
LINE
  8
0
 10
-119.79
 20
-54.8723
 11
-119.971
 21
-55.04
  0
LINE
  8
0
 10
-119.971
 20
-55.04
 11
-120.175
 21
-55.1789
  0
LINE
  8
0
 10
-120.175
 20
-55.1789
 11
-120.397
 21
-55.2859
  0
LINE
  8
0
 10
-120.397
 20
-55.2859
 11
-120.633
 21
-55.3586
  0
LINE
  8
0
 10
-120.633
 20
-55.3586
 11
-120.877
 21
-55.3954
  0
LINE
  8
0
 10
-120.877
 20
-55.3954
 11
-121.123
 21
-55.3954
  0
LINE
  8
0
 10
120.877
 20
-55.3954
 11
120.633
 21
-55.3586
  0
LINE
  8
0
 10
120.633
 20
-55.3586
 11
120.397
 21
-55.2859
  0
LINE
  8
0
 10
120.397
 20
-55.2859
 11
120.175
 21
-55.1789
  0
LINE
  8
0
 10
120.175
 20
-55.1789
 11
119.971
 21
-55.04
  0
LINE
  8
0
 10
119.971
 20
-55.04
 11
119.79
 21
-54.8723
  0
LINE
  8
0
 10
119.79
 20
-54.8723
 11
119.637
 21
-54.6795
  0
LINE
  8
0
 10
119.637
 20
-54.6795
 11
119.513
 21
-54.4659
  0
LINE
  8
0
 10
119.513
 20
-54.4659
 11
119.423
 21
-54.2363
  0
LINE
  8
0
 10
119.423
 20
-54.2363
 11
119.368
 21
-53.9959
  0
LINE
  8
0
 10
119.368
 20
-53.9959
 11
119.35
 21
-53.75
  0
LINE
  8
0
 10
119.35
 20
-53.75
 11
119.368
 21
-53.5041
  0
LINE
  8
0
 10
119.368
 20
-53.5041
 11
119.423
 21
-53.2636
  0
LINE
  8
0
 10
119.423
 20
-53.2636
 11
119.513
 21
-53.0341
  0
LINE
  8
0
 10
119.513
 20
-53.0341
 11
119.637
 21
-52.8205
  0
LINE
  8
0
 10
119.637
 20
-52.8205
 11
119.79
 21
-52.6277
  0
LINE
  8
0
 10
119.79
 20
-52.6277
 11
119.971
 21
-52.46
  0
LINE
  8
0
 10
119.971
 20
-52.46
 11
120.175
 21
-52.321
  0
LINE
  8
0
 10
120.175
 20
-52.321
 11
120.397
 21
-52.2141
  0
LINE
  8
0
 10
120.397
 20
-52.2141
 11
120.633
 21
-52.1414
  0
LINE
  8
0
 10
120.633
 20
-52.1414
 11
120.877
 21
-52.1046
  0
LINE
  8
0
 10
120.877
 20
-52.1046
 11
121.123
 21
-52.1046
  0
LINE
  8
0
 10
121.123
 20
-52.1046
 11
121.367
 21
-52.1414
  0
LINE
  8
0
 10
121.367
 20
-52.1414
 11
121.603
 21
-52.2141
  0
LINE
  8
0
 10
121.603
 20
-52.2141
 11
121.825
 21
-52.321
  0
LINE
  8
0
 10
121.825
 20
-52.321
 11
122.029
 21
-52.46
  0
LINE
  8
0
 10
122.029
 20
-52.46
 11
122.21
 21
-52.6277
  0
LINE
  8
0
 10
122.21
 20
-52.6277
 11
122.363
 21
-52.8205
  0
LINE
  8
0
 10
122.363
 20
-52.8205
 11
122.487
 21
-53.0341
  0
LINE
  8
0
 10
122.487
 20
-53.0341
 11
122.577
 21
-53.2636
  0
LINE
  8
0
 10
122.577
 20
-53.2636
 11
122.632
 21
-53.5041
  0
LINE
  8
0
 10
122.632
 20
-53.5041
 11
122.65
 21
-53.75
  0
LINE
  8
0
 10
122.65
 20
-53.75
 11
122.632
 21
-53.9959
  0
LINE
  8
0
 10
122.632
 20
-53.9959
 11
122.577
 21
-54.2363
  0
LINE
  8
0
 10
122.577
 20
-54.2363
 11
122.487
 21
-54.4659
  0
LINE
  8
0
 10
122.487
 20
-54.4659
 11
122.363
 21
-54.6795
  0
LINE
  8
0
 10
122.363
 20
-54.6795
 11
122.21
 21
-54.8723
  0
LINE
  8
0
 10
122.21
 20
-54.8723
 11
122.029
 21
-55.04
  0
LINE
  8
0
 10
122.029
 20
-55.04
 11
121.825
 21
-55.1789
  0
LINE
  8
0
 10
121.825
 20
-55.1789
 11
121.603
 21
-55.2859
  0
LINE
  8
0
 10
121.603
 20
-55.2859
 11
121.367
 21
-55.3586
  0
LINE
  8
0
 10
121.367
 20
-55.3586
 11
121.123
 21
-55.3954
  0
LINE
  8
0
 10
121.123
 20
-55.3954
 11
120.877
 21
-55.3954
  0
LINE
  8
0
 10
-121.123
 20
-142.895
 11
-121.367
 21
-142.859
  0
LINE
  8
0
 10
-121.367
 20
-142.859
 11
-121.603
 21
-142.786
  0
LINE
  8
0
 10
-121.603
 20
-142.786
 11
-121.825
 21
-142.679
  0
LINE
  8
0
 10
-121.825
 20
-142.679
 11
-122.029
 21
-142.54
  0
LINE
  8
0
 10
-122.029
 20
-142.54
 11
-122.21
 21
-142.372
  0
LINE
  8
0
 10
-122.21
 20
-142.372
 11
-122.363
 21
-142.179
  0
LINE
  8
0
 10
-122.363
 20
-142.179
 11
-122.487
 21
-141.966
  0
LINE
  8
0
 10
-122.487
 20
-141.966
 11
-122.577
 21
-141.736
  0
LINE
  8
0
 10
-122.577
 20
-141.736
 11
-122.632
 21
-141.496
  0
LINE
  8
0
 10
-122.632
 20
-141.496
 11
-122.65
 21
-141.25
  0
LINE
  8
0
 10
-122.65
 20
-141.25
 11
-122.632
 21
-141.004
  0
LINE
  8
0
 10
-122.632
 20
-141.004
 11
-122.577
 21
-140.764
  0
LINE
  8
0
 10
-122.577
 20
-140.764
 11
-122.487
 21
-140.534
  0
LINE
  8
0
 10
-122.487
 20
-140.534
 11
-122.363
 21
-140.321
  0
LINE
  8
0
 10
-122.363
 20
-140.321
 11
-122.21
 21
-140.128
  0
LINE
  8
0
 10
-122.21
 20
-140.128
 11
-122.029
 21
-139.96
  0
LINE
  8
0
 10
-122.029
 20
-139.96
 11
-121.825
 21
-139.821
  0
LINE
  8
0
 10
-121.825
 20
-139.821
 11
-121.603
 21
-139.714
  0
LINE
  8
0
 10
-121.603
 20
-139.714
 11
-121.367
 21
-139.641
  0
LINE
  8
0
 10
-121.367
 20
-139.641
 11
-121.123
 21
-139.605
  0
LINE
  8
0
 10
-121.123
 20
-139.605
 11
-120.877
 21
-139.605
  0
LINE
  8
0
 10
-120.877
 20
-139.605
 11
-120.633
 21
-139.641
  0
LINE
  8
0
 10
-120.633
 20
-139.641
 11
-120.397
 21
-139.714
  0
LINE
  8
0
 10
-120.397
 20
-139.714
 11
-120.175
 21
-139.821
  0
LINE
  8
0
 10
-120.175
 20
-139.821
 11
-119.971
 21
-139.96
  0
LINE
  8
0
 10
-119.971
 20
-139.96
 11
-119.79
 21
-140.128
  0
LINE
  8
0
 10
-119.79
 20
-140.128
 11
-119.637
 21
-140.321
  0
LINE
  8
0
 10
-119.637
 20
-140.321
 11
-119.513
 21
-140.534
  0
LINE
  8
0
 10
-119.513
 20
-140.534
 11
-119.423
 21
-140.764
  0
LINE
  8
0
 10
-119.423
 20
-140.764
 11
-119.368
 21
-141.004
  0
LINE
  8
0
 10
-119.368
 20
-141.004
 11
-119.35
 21
-141.25
  0
LINE
  8
0
 10
-119.35
 20
-141.25
 11
-119.368
 21
-141.496
  0
LINE
  8
0
 10
-119.368
 20
-141.496
 11
-119.423
 21
-141.736
  0
LINE
  8
0
 10
-119.423
 20
-141.736
 11
-119.513
 21
-141.966
  0
LINE
  8
0
 10
-119.513
 20
-141.966
 11
-119.637
 21
-142.179
  0
LINE
  8
0
 10
-119.637
 20
-142.179
 11
-119.79
 21
-142.372
  0
LINE
  8
0
 10
-119.79
 20
-142.372
 11
-119.971
 21
-142.54
  0
LINE
  8
0
 10
-119.971
 20
-142.54
 11
-120.175
 21
-142.679
  0
LINE
  8
0
 10
-120.175
 20
-142.679
 11
-120.397
 21
-142.786
  0
LINE
  8
0
 10
-120.397
 20
-142.786
 11
-120.633
 21
-142.859
  0
LINE
  8
0
 10
-120.633
 20
-142.859
 11
-120.877
 21
-142.895
  0
LINE
  8
0
 10
-120.877
 20
-142.895
 11
-121.123
 21
-142.895
  0
LINE
  8
0
 10
-105.123
 20
-178.645
 11
-105.367
 21
-178.609
  0
LINE
  8
0
 10
-105.367
 20
-178.609
 11
-105.603
 21
-178.536
  0
LINE
  8
0
 10
-105.603
 20
-178.536
 11
-105.825
 21
-178.429
  0
LINE
  8
0
 10
-105.825
 20
-178.429
 11
-106.029
 21
-178.29
  0
LINE
  8
0
 10
-106.029
 20
-178.29
 11
-106.21
 21
-178.122
  0
LINE
  8
0
 10
-106.21
 20
-178.122
 11
-106.363
 21
-177.929
  0
LINE
  8
0
 10
-106.363
 20
-177.929
 11
-106.487
 21
-177.716
  0
LINE
  8
0
 10
-106.487
 20
-177.716
 11
-106.577
 21
-177.486
  0
LINE
  8
0
 10
-106.577
 20
-177.486
 11
-106.632
 21
-177.246
  0
LINE
  8
0
 10
-106.632
 20
-177.246
 11
-106.65
 21
-177
  0
LINE
  8
0
 10
-106.65
 20
-177
 11
-106.632
 21
-176.754
  0
LINE
  8
0
 10
-106.632
 20
-176.754
 11
-106.577
 21
-176.514
  0
LINE
  8
0
 10
-106.577
 20
-176.514
 11
-106.487
 21
-176.284
  0
LINE
  8
0
 10
-106.487
 20
-176.284
 11
-106.363
 21
-176.071
  0
LINE
  8
0
 10
-106.363
 20
-176.071
 11
-106.21
 21
-175.878
  0
LINE
  8
0
 10
-106.21
 20
-175.878
 11
-106.029
 21
-175.71
  0
LINE
  8
0
 10
-106.029
 20
-175.71
 11
-105.825
 21
-175.571
  0
LINE
  8
0
 10
-105.825
 20
-175.571
 11
-105.603
 21
-175.464
  0
LINE
  8
0
 10
-105.603
 20
-175.464
 11
-105.367
 21
-175.391
  0
LINE
  8
0
 10
-105.367
 20
-175.391
 11
-105.123
 21
-175.355
  0
LINE
  8
0
 10
-105.123
 20
-175.355
 11
-104.877
 21
-175.355
  0
LINE
  8
0
 10
-104.877
 20
-175.355
 11
-104.633
 21
-175.391
  0
LINE
  8
0
 10
-104.633
 20
-175.391
 11
-104.397
 21
-175.464
  0
LINE
  8
0
 10
-104.397
 20
-175.464
 11
-104.175
 21
-175.571
  0
LINE
  8
0
 10
-104.175
 20
-175.571
 11
-103.971
 21
-175.71
  0
LINE
  8
0
 10
-103.971
 20
-175.71
 11
-103.79
 21
-175.878
  0
LINE
  8
0
 10
-103.79
 20
-175.878
 11
-103.637
 21
-176.071
  0
LINE
  8
0
 10
-103.637
 20
-176.071
 11
-103.513
 21
-176.284
  0
LINE
  8
0
 10
-103.513
 20
-176.284
 11
-103.423
 21
-176.514
  0
LINE
  8
0
 10
-103.423
 20
-176.514
 11
-103.368
 21
-176.754
  0
LINE
  8
0
 10
-103.368
 20
-176.754
 11
-103.35
 21
-177
  0
LINE
  8
0
 10
-103.35
 20
-177
 11
-103.368
 21
-177.246
  0
LINE
  8
0
 10
-103.368
 20
-177.246
 11
-103.423
 21
-177.486
  0
LINE
  8
0
 10
-103.423
 20
-177.486
 11
-103.513
 21
-177.716
  0
LINE
  8
0
 10
-103.513
 20
-177.716
 11
-103.637
 21
-177.929
  0
LINE
  8
0
 10
-103.637
 20
-177.929
 11
-103.79
 21
-178.122
  0
LINE
  8
0
 10
-103.79
 20
-178.122
 11
-103.971
 21
-178.29
  0
LINE
  8
0
 10
-103.971
 20
-178.29
 11
-104.175
 21
-178.429
  0
LINE
  8
0
 10
-104.175
 20
-178.429
 11
-104.397
 21
-178.536
  0
LINE
  8
0
 10
-104.397
 20
-178.536
 11
-104.633
 21
-178.609
  0
LINE
  8
0
 10
-104.633
 20
-178.609
 11
-104.877
 21
-178.645
  0
LINE
  8
0
 10
-104.877
 20
-178.645
 11
-105.123
 21
-178.645
  0
LINE
  8
0
 10
-0.123291
 20
-178.645
 11
-0.367157
 21
-178.609
  0
LINE
  8
0
 10
-0.367157
 20
-178.609
 11
-0.602798
 21
-178.536
  0
LINE
  8
0
 10
-0.602798
 20
-178.536
 11
-0.824997
 21
-178.429
  0
LINE
  8
0
 10
-0.824997
 20
-178.429
 11
-1.02875
 21
-178.29
  0
LINE
  8
0
 10
-1.02875
 20
-178.29
 11
-1.20953
 21
-178.122
  0
LINE
  8
0
 10
-1.20953
 20
-178.122
 11
-1.36328
 21
-177.929
  0
LINE
  8
0
 10
-1.36328
 20
-177.929
 11
-1.48659
 21
-177.716
  0
LINE
  8
0
 10
-1.48659
 20
-177.716
 11
-1.57669
 21
-177.486
  0
LINE
  8
0
 10
-1.57669
 20
-177.486
 11
-1.63156
 21
-177.246
  0
LINE
  8
0
 10
-1.63156
 20
-177.246
 11
-1.64999
 21
-177
  0
LINE
  8
0
 10
-1.64999
 20
-177
 11
-1.63156
 21
-176.754
  0
LINE
  8
0
 10
-1.63156
 20
-176.754
 11
-1.57669
 21
-176.514
  0
LINE
  8
0
 10
-1.57669
 20
-176.514
 11
-1.48659
 21
-176.284
  0
LINE
  8
0
 10
-1.48659
 20
-176.284
 11
-1.36328
 21
-176.071
  0
LINE
  8
0
 10
-1.36328
 20
-176.071
 11
-1.20953
 21
-175.878
  0
LINE
  8
0
 10
-1.20953
 20
-175.878
 11
-1.02875
 21
-175.71
  0
LINE
  8
0
 10
-1.02875
 20
-175.71
 11
-0.824997
 21
-175.571
  0
LINE
  8
0
 10
-0.824997
 20
-175.571
 11
-0.602798
 21
-175.464
  0
LINE
  8
0
 10
-0.602798
 20
-175.464
 11
-0.367157
 21
-175.391
  0
LINE
  8
0
 10
-0.367157
 20
-175.391
 11
-0.123291
 21
-175.355
  0
LINE
  8
0
 10
-0.123291
 20
-175.355
 11
0.123291
 21
-175.355
  0
LINE
  8
0
 10
0.123291
 20
-175.355
 11
0.367157
 21
-175.391
  0
LINE
  8
0
 10
0.367157
 20
-175.391
 11
0.602798
 21
-175.464
  0
LINE
  8
0
 10
0.602798
 20
-175.464
 11
0.824997
 21
-175.571
  0
LINE
  8
0
 10
0.824997
 20
-175.571
 11
1.02875
 21
-175.71
  0
LINE
  8
0
 10
1.02875
 20
-175.71
 11
1.20953
 21
-175.878
  0
LINE
  8
0
 10
1.20953
 20
-175.878
 11
1.36328
 21
-176.071
  0
LINE
  8
0
 10
1.36328
 20
-176.071
 11
1.48659
 21
-176.284
  0
LINE
  8
0
 10
1.48659
 20
-176.284
 11
1.57669
 21
-176.514
  0
LINE
  8
0
 10
1.57669
 20
-176.514
 11
1.63156
 21
-176.754
  0
LINE
  8
0
 10
1.63156
 20
-176.754
 11
1.64999
 21
-177
  0
LINE
  8
0
 10
1.64999
 20
-177
 11
1.63156
 21
-177.246
  0
LINE
  8
0
 10
1.63156
 20
-177.246
 11
1.57669
 21
-177.486
  0
LINE
  8
0
 10
1.57669
 20
-177.486
 11
1.48659
 21
-177.716
  0
LINE
  8
0
 10
1.48659
 20
-177.716
 11
1.36328
 21
-177.929
  0
LINE
  8
0
 10
1.36328
 20
-177.929
 11
1.20953
 21
-178.122
  0
LINE
  8
0
 10
1.20953
 20
-178.122
 11
1.02875
 21
-178.29
  0
LINE
  8
0
 10
1.02875
 20
-178.29
 11
0.824997
 21
-178.429
  0
LINE
  8
0
 10
0.824997
 20
-178.429
 11
0.602798
 21
-178.536
  0
LINE
  8
0
 10
0.602798
 20
-178.536
 11
0.367157
 21
-178.609
  0
LINE
  8
0
 10
0.367157
 20
-178.609
 11
0.123291
 21
-178.645
  0
LINE
  8
0
 10
0.123291
 20
-178.645
 11
-0.123291
 21
-178.645
  0
LINE
  8
0
 10
104.877
 20
-178.645
 11
104.633
 21
-178.609
  0
LINE
  8
0
 10
104.633
 20
-178.609
 11
104.397
 21
-178.536
  0
LINE
  8
0
 10
104.397
 20
-178.536
 11
104.175
 21
-178.429
  0
LINE
  8
0
 10
104.175
 20
-178.429
 11
103.971
 21
-178.29
  0
LINE
  8
0
 10
103.971
 20
-178.29
 11
103.79
 21
-178.122
  0
LINE
  8
0
 10
103.79
 20
-178.122
 11
103.637
 21
-177.929
  0
LINE
  8
0
 10
103.637
 20
-177.929
 11
103.513
 21
-177.716
  0
LINE
  8
0
 10
103.513
 20
-177.716
 11
103.423
 21
-177.486
  0
LINE
  8
0
 10
103.423
 20
-177.486
 11
103.368
 21
-177.246
  0
LINE
  8
0
 10
103.368
 20
-177.246
 11
103.35
 21
-177
  0
LINE
  8
0
 10
103.35
 20
-177
 11
103.368
 21
-176.754
  0
LINE
  8
0
 10
103.368
 20
-176.754
 11
103.423
 21
-176.514
  0
LINE
  8
0
 10
103.423
 20
-176.514
 11
103.513
 21
-176.284
  0
LINE
  8
0
 10
103.513
 20
-176.284
 11
103.637
 21
-176.071
  0
LINE
  8
0
 10
103.637
 20
-176.071
 11
103.79
 21
-175.878
  0
LINE
  8
0
 10
103.79
 20
-175.878
 11
103.971
 21
-175.71
  0
LINE
  8
0
 10
103.971
 20
-175.71
 11
104.175
 21
-175.571
  0
LINE
  8
0
 10
104.175
 20
-175.571
 11
104.397
 21
-175.464
  0
LINE
  8
0
 10
104.397
 20
-175.464
 11
104.633
 21
-175.391
  0
LINE
  8
0
 10
104.633
 20
-175.391
 11
104.877
 21
-175.355
  0
LINE
  8
0
 10
104.877
 20
-175.355
 11
105.123
 21
-175.355
  0
LINE
  8
0
 10
105.123
 20
-175.355
 11
105.367
 21
-175.391
  0
LINE
  8
0
 10
105.367
 20
-175.391
 11
105.603
 21
-175.464
  0
LINE
  8
0
 10
105.603
 20
-175.464
 11
105.825
 21
-175.571
  0
LINE
  8
0
 10
105.825
 20
-175.571
 11
106.029
 21
-175.71
  0
LINE
  8
0
 10
106.029
 20
-175.71
 11
106.21
 21
-175.878
  0
LINE
  8
0
 10
106.21
 20
-175.878
 11
106.363
 21
-176.071
  0
LINE
  8
0
 10
106.363
 20
-176.071
 11
106.487
 21
-176.284
  0
LINE
  8
0
 10
106.487
 20
-176.284
 11
106.577
 21
-176.514
  0
LINE
  8
0
 10
106.577
 20
-176.514
 11
106.632
 21
-176.754
  0
LINE
  8
0
 10
106.632
 20
-176.754
 11
106.65
 21
-177
  0
LINE
  8
0
 10
106.65
 20
-177
 11
106.632
 21
-177.246
  0
LINE
  8
0
 10
106.632
 20
-177.246
 11
106.577
 21
-177.486
  0
LINE
  8
0
 10
106.577
 20
-177.486
 11
106.487
 21
-177.716
  0
LINE
  8
0
 10
106.487
 20
-177.716
 11
106.363
 21
-177.929
  0
LINE
  8
0
 10
106.363
 20
-177.929
 11
106.21
 21
-178.122
  0
LINE
  8
0
 10
106.21
 20
-178.122
 11
106.029
 21
-178.29
  0
LINE
  8
0
 10
106.029
 20
-178.29
 11
105.825
 21
-178.429
  0
LINE
  8
0
 10
105.825
 20
-178.429
 11
105.603
 21
-178.536
  0
LINE
  8
0
 10
105.603
 20
-178.536
 11
105.367
 21
-178.609
  0
LINE
  8
0
 10
105.367
 20
-178.609
 11
105.123
 21
-178.645
  0
LINE
  8
0
 10
105.123
 20
-178.645
 11
104.877
 21
-178.645
  0
ENDSEC
  0
SECTION
  2
OBJECTS
  0
DICTIONARY
  0
ENDSEC
  0
EOF
