  0
SECTION
  2
BLOCKS
  0
ENDSEC
  0
SECTION
  2
ENTITIES
  0
LINE
  8
0
 10
194.223
 20
-199.975
 11
194.434
 21
-199.901
  0
LINE
  8
0
 10
194.434
 20
-199.901
 11
194.623
 21
-199.782
  0
LINE
  8
0
 10
194.623
 20
-199.782
 11
194.782
 21
-199.623
  0
LINE
  8
0
 10
194.782
 20
-199.623
 11
194.901
 21
-199.434
  0
LINE
  8
0
 10
194.901
 20
-199.434
 11
194.975
 21
-199.223
  0
LINE
  8
0
 10
194.975
 20
-199.223
 11
195
 21
-199
  0
LINE
  8
0
 10
195
 20
-199
 11
195
 21
199
  0
LINE
  8
0
 10
195
 20
199
 11
194.975
 21
199.223
  0
LINE
  8
0
 10
194.975
 20
199.223
 11
194.901
 21
199.434
  0
LINE
  8
0
 10
194.901
 20
199.434
 11
194.782
 21
199.623
  0
LINE
  8
0
 10
194.782
 20
199.623
 11
194.623
 21
199.782
  0
LINE
  8
0
 10
194.623
 20
199.782
 11
194.434
 21
199.901
  0
LINE
  8
0
 10
194.434
 20
199.901
 11
194.223
 21
199.975
  0
LINE
  8
0
 10
194.223
 20
199.975
 11
194
 21
200
  0
LINE
  8
0
 10
194
 20
200
 11
-194
 21
200
  0
LINE
  8
0
 10
-194
 20
200
 11
-194.223
 21
199.975
  0
LINE
  8
0
 10
-194.223
 20
199.975
 11
-194.434
 21
199.901
  0
LINE
  8
0
 10
-194.434
 20
199.901
 11
-194.623
 21
199.782
  0
LINE
  8
0
 10
-194.623
 20
199.782
 11
-194.782
 21
199.623
  0
LINE
  8
0
 10
-194.782
 20
199.623
 11
-194.901
 21
199.434
  0
LINE
  8
0
 10
-194.901
 20
199.434
 11
-194.975
 21
199.223
  0
LINE
  8
0
 10
-194.975
 20
199.223
 11
-195
 21
199
  0
LINE
  8
0
 10
-195
 20
199
 11
-195
 21
-199
  0
LINE
  8
0
 10
-195
 20
-199
 11
-194.975
 21
-199.223
  0
LINE
  8
0
 10
-194.975
 20
-199.223
 11
-194.901
 21
-199.434
  0
LINE
  8
0
 10
-194.901
 20
-199.434
 11
-194.782
 21
-199.623
  0
LINE
  8
0
 10
-194.782
 20
-199.623
 11
-194.623
 21
-199.782
  0
LINE
  8
0
 10
-194.623
 20
-199.782
 11
-194.434
 21
-199.901
  0
LINE
  8
0
 10
-194.434
 20
-199.901
 11
-194.223
 21
-199.975
  0
LINE
  8
0
 10
-194.223
 20
-199.975
 11
-194
 21
-200
  0
LINE
  8
0
 10
-194
 20
-200
 11
194
 21
-200
  0
LINE
  8
0
 10
194
 20
-200
 11
194.223
 21
-199.975
  0
LINE
  8
0
 10
-185.261
 20
187.514
 11
-185.52
 21
187.555
  0
LINE
  8
0
 10
-185.52
 20
187.555
 11
-185.773
 21
187.622
  0
LINE
  8
0
 10
-185.773
 20
187.622
 11
-186.017
 21
187.716
  0
LINE
  8
0
 10
-186.017
 20
187.716
 11
-186.25
 21
187.835
  0
LINE
  8
0
 10
-186.25
 20
187.835
 11
-186.469
 21
187.977
  0
LINE
  8
0
 10
-186.469
 20
187.977
 11
-186.673
 21
188.142
  0
LINE
  8
0
 10
-186.673
 20
188.142
 11
-186.858
 21
188.327
  0
LINE
  8
0
 10
-186.858
 20
188.327
 11
-187.023
 21
188.531
  0
LINE
  8
0
 10
-187.023
 20
188.531
 11
-187.165
 21
188.75
  0
LINE
  8
0
 10
-187.165
 20
188.75
 11
-187.284
 21
188.983
  0
LINE
  8
0
 10
-187.284
 20
188.983
 11
-187.378
 21
189.227
  0
LINE
  8
0
 10
-187.378
 20
189.227
 11
-187.445
 21
189.48
  0
LINE
  8
0
 10
-187.445
 20
189.48
 11
-187.486
 21
189.739
  0
LINE
  8
0
 10
-187.486
 20
189.739
 11
-187.5
 21
190
  0
LINE
  8
0
 10
-187.5
 20
190
 11
-187.486
 21
190.261
  0
LINE
  8
0
 10
-187.486
 20
190.261
 11
-187.445
 21
190.52
  0
LINE
  8
0
 10
-187.445
 20
190.52
 11
-187.378
 21
190.773
  0
LINE
  8
0
 10
-187.378
 20
190.773
 11
-187.284
 21
191.017
  0
LINE
  8
0
 10
-187.284
 20
191.017
 11
-187.165
 21
191.25
  0
LINE
  8
0
 10
-187.165
 20
191.25
 11
-187.023
 21
191.469
  0
LINE
  8
0
 10
-187.023
 20
191.469
 11
-186.858
 21
191.673
  0
LINE
  8
0
 10
-186.858
 20
191.673
 11
-186.673
 21
191.858
  0
LINE
  8
0
 10
-186.673
 20
191.858
 11
-186.469
 21
192.023
  0
LINE
  8
0
 10
-186.469
 20
192.023
 11
-186.25
 21
192.165
  0
LINE
  8
0
 10
-186.25
 20
192.165
 11
-186.017
 21
192.284
  0
LINE
  8
0
 10
-186.017
 20
192.284
 11
-185.773
 21
192.378
  0
LINE
  8
0
 10
-185.773
 20
192.378
 11
-185.52
 21
192.445
  0
LINE
  8
0
 10
-185.52
 20
192.445
 11
-185.261
 21
192.486
  0
LINE
  8
0
 10
-185.261
 20
192.486
 11
-185
 21
192.5
  0
LINE
  8
0
 10
-185
 20
192.5
 11
-184.739
 21
192.486
  0
LINE
  8
0
 10
-184.739
 20
192.486
 11
-184.48
 21
192.445
  0
LINE
  8
0
 10
-184.48
 20
192.445
 11
-184.227
 21
192.378
  0
LINE
  8
0
 10
-184.227
 20
192.378
 11
-183.983
 21
192.284
  0
LINE
  8
0
 10
-183.983
 20
192.284
 11
-183.75
 21
192.165
  0
LINE
  8
0
 10
-183.75
 20
192.165
 11
-183.531
 21
192.023
  0
LINE
  8
0
 10
-183.531
 20
192.023
 11
-183.327
 21
191.858
  0
LINE
  8
0
 10
-183.327
 20
191.858
 11
-183.142
 21
191.673
  0
LINE
  8
0
 10
-183.142
 20
191.673
 11
-182.977
 21
191.469
  0
LINE
  8
0
 10
-182.977
 20
191.469
 11
-182.835
 21
191.25
  0
LINE
  8
0
 10
-182.835
 20
191.25
 11
-182.716
 21
191.017
  0
LINE
  8
0
 10
-182.716
 20
191.017
 11
-182.622
 21
190.773
  0
LINE
  8
0
 10
-182.622
 20
190.773
 11
-182.555
 21
190.52
  0
LINE
  8
0
 10
-182.555
 20
190.52
 11
-182.514
 21
190.261
  0
LINE
  8
0
 10
-182.514
 20
190.261
 11
-182.5
 21
190
  0
LINE
  8
0
 10
-182.5
 20
190
 11
-182.514
 21
189.739
  0
LINE
  8
0
 10
-182.514
 20
189.739
 11
-182.555
 21
189.48
  0
LINE
  8
0
 10
-182.555
 20
189.48
 11
-182.622
 21
189.227
  0
LINE
  8
0
 10
-182.622
 20
189.227
 11
-182.716
 21
188.983
  0
LINE
  8
0
 10
-182.716
 20
188.983
 11
-182.835
 21
188.75
  0
LINE
  8
0
 10
-182.835
 20
188.75
 11
-182.977
 21
188.531
  0
LINE
  8
0
 10
-182.977
 20
188.531
 11
-183.142
 21
188.327
  0
LINE
  8
0
 10
-183.142
 20
188.327
 11
-183.327
 21
188.142
  0
LINE
  8
0
 10
-183.327
 20
188.142
 11
-183.531
 21
187.977
  0
LINE
  8
0
 10
-183.531
 20
187.977
 11
-183.75
 21
187.835
  0
LINE
  8
0
 10
-183.75
 20
187.835
 11
-183.983
 21
187.716
  0
LINE
  8
0
 10
-183.983
 20
187.716
 11
-184.227
 21
187.622
  0
LINE
  8
0
 10
-184.227
 20
187.622
 11
-184.48
 21
187.555
  0
LINE
  8
0
 10
-184.48
 20
187.555
 11
-184.739
 21
187.514
  0
LINE
  8
0
 10
-184.739
 20
187.514
 11
-185
 21
187.5
  0
LINE
  8
0
 10
-185
 20
187.5
 11
-185.261
 21
187.514
  0
LINE
  8
0
 10
184.739
 20
187.514
 11
184.48
 21
187.555
  0
LINE
  8
0
 10
184.48
 20
187.555
 11
184.227
 21
187.622
  0
LINE
  8
0
 10
184.227
 20
187.622
 11
183.983
 21
187.716
  0
LINE
  8
0
 10
183.983
 20
187.716
 11
183.75
 21
187.835
  0
LINE
  8
0
 10
183.75
 20
187.835
 11
183.531
 21
187.977
  0
LINE
  8
0
 10
183.531
 20
187.977
 11
183.327
 21
188.142
  0
LINE
  8
0
 10
183.327
 20
188.142
 11
183.142
 21
188.327
  0
LINE
  8
0
 10
183.142
 20
188.327
 11
182.977
 21
188.531
  0
LINE
  8
0
 10
182.977
 20
188.531
 11
182.835
 21
188.75
  0
LINE
  8
0
 10
182.835
 20
188.75
 11
182.716
 21
188.983
  0
LINE
  8
0
 10
182.716
 20
188.983
 11
182.622
 21
189.227
  0
LINE
  8
0
 10
182.622
 20
189.227
 11
182.555
 21
189.48
  0
LINE
  8
0
 10
182.555
 20
189.48
 11
182.514
 21
189.739
  0
LINE
  8
0
 10
182.514
 20
189.739
 11
182.5
 21
190
  0
LINE
  8
0
 10
182.5
 20
190
 11
182.514
 21
190.261
  0
LINE
  8
0
 10
182.514
 20
190.261
 11
182.555
 21
190.52
  0
LINE
  8
0
 10
182.555
 20
190.52
 11
182.622
 21
190.773
  0
LINE
  8
0
 10
182.622
 20
190.773
 11
182.716
 21
191.017
  0
LINE
  8
0
 10
182.716
 20
191.017
 11
182.835
 21
191.25
  0
LINE
  8
0
 10
182.835
 20
191.25
 11
182.977
 21
191.469
  0
LINE
  8
0
 10
182.977
 20
191.469
 11
183.142
 21
191.673
  0
LINE
  8
0
 10
183.142
 20
191.673
 11
183.327
 21
191.858
  0
LINE
  8
0
 10
183.327
 20
191.858
 11
183.531
 21
192.023
  0
LINE
  8
0
 10
183.531
 20
192.023
 11
183.75
 21
192.165
  0
LINE
  8
0
 10
183.75
 20
192.165
 11
183.983
 21
192.284
  0
LINE
  8
0
 10
183.983
 20
192.284
 11
184.227
 21
192.378
  0
LINE
  8
0
 10
184.227
 20
192.378
 11
184.48
 21
192.445
  0
LINE
  8
0
 10
184.48
 20
192.445
 11
184.739
 21
192.486
  0
LINE
  8
0
 10
184.739
 20
192.486
 11
185
 21
192.5
  0
LINE
  8
0
 10
185
 20
192.5
 11
185.261
 21
192.486
  0
LINE
  8
0
 10
185.261
 20
192.486
 11
185.52
 21
192.445
  0
LINE
  8
0
 10
185.52
 20
192.445
 11
185.773
 21
192.378
  0
LINE
  8
0
 10
185.773
 20
192.378
 11
186.017
 21
192.284
  0
LINE
  8
0
 10
186.017
 20
192.284
 11
186.25
 21
192.165
  0
LINE
  8
0
 10
186.25
 20
192.165
 11
186.469
 21
192.023
  0
LINE
  8
0
 10
186.469
 20
192.023
 11
186.673
 21
191.858
  0
LINE
  8
0
 10
186.673
 20
191.858
 11
186.858
 21
191.673
  0
LINE
  8
0
 10
186.858
 20
191.673
 11
187.023
 21
191.469
  0
LINE
  8
0
 10
187.023
 20
191.469
 11
187.165
 21
191.25
  0
LINE
  8
0
 10
187.165
 20
191.25
 11
187.284
 21
191.017
  0
LINE
  8
0
 10
187.284
 20
191.017
 11
187.378
 21
190.773
  0
LINE
  8
0
 10
187.378
 20
190.773
 11
187.445
 21
190.52
  0
LINE
  8
0
 10
187.445
 20
190.52
 11
187.486
 21
190.261
  0
LINE
  8
0
 10
187.486
 20
190.261
 11
187.5
 21
190
  0
LINE
  8
0
 10
187.5
 20
190
 11
187.486
 21
189.739
  0
LINE
  8
0
 10
187.486
 20
189.739
 11
187.445
 21
189.48
  0
LINE
  8
0
 10
187.445
 20
189.48
 11
187.378
 21
189.227
  0
LINE
  8
0
 10
187.378
 20
189.227
 11
187.284
 21
188.983
  0
LINE
  8
0
 10
187.284
 20
188.983
 11
187.165
 21
188.75
  0
LINE
  8
0
 10
187.165
 20
188.75
 11
187.023
 21
188.531
  0
LINE
  8
0
 10
187.023
 20
188.531
 11
186.858
 21
188.327
  0
LINE
  8
0
 10
186.858
 20
188.327
 11
186.673
 21
188.142
  0
LINE
  8
0
 10
186.673
 20
188.142
 11
186.469
 21
187.977
  0
LINE
  8
0
 10
186.469
 20
187.977
 11
186.25
 21
187.835
  0
LINE
  8
0
 10
186.25
 20
187.835
 11
186.017
 21
187.716
  0
LINE
  8
0
 10
186.017
 20
187.716
 11
185.773
 21
187.622
  0
LINE
  8
0
 10
185.773
 20
187.622
 11
185.52
 21
187.555
  0
LINE
  8
0
 10
185.52
 20
187.555
 11
185.261
 21
187.514
  0
LINE
  8
0
 10
185.261
 20
187.514
 11
185
 21
187.5
  0
LINE
  8
0
 10
185
 20
187.5
 11
184.739
 21
187.514
  0
LINE
  8
0
 10
124.754
 20
187.814
 11
124.51
 21
187.855
  0
LINE
  8
0
 10
124.51
 20
187.855
 11
124.273
 21
187.923
  0
LINE
  8
0
 10
124.273
 20
187.923
 11
124.045
 21
188.018
  0
LINE
  8
0
 10
124.045
 20
188.018
 11
123.83
 21
188.137
  0
LINE
  8
0
 10
123.83
 20
188.137
 11
123.628
 21
188.28
  0
LINE
  8
0
 10
123.628
 20
188.28
 11
123.444
 21
188.444
  0
LINE
  8
0
 10
123.444
 20
188.444
 11
123.28
 21
188.628
  0
LINE
  8
0
 10
123.28
 20
188.628
 11
123.137
 21
188.83
  0
LINE
  8
0
 10
123.137
 20
188.83
 11
123.018
 21
189.045
  0
LINE
  8
0
 10
123.018
 20
189.045
 11
122.923
 21
189.273
  0
LINE
  8
0
 10
122.923
 20
189.273
 11
122.855
 21
189.51
  0
LINE
  8
0
 10
122.855
 20
189.51
 11
122.814
 21
189.754
  0
LINE
  8
0
 10
122.814
 20
189.754
 11
122.8
 21
190
  0
LINE
  8
0
 10
122.8
 20
190
 11
122.814
 21
190.246
  0
LINE
  8
0
 10
122.814
 20
190.246
 11
122.855
 21
190.49
  0
LINE
  8
0
 10
122.855
 20
190.49
 11
122.923
 21
190.727
  0
LINE
  8
0
 10
122.923
 20
190.727
 11
123.018
 21
190.955
  0
LINE
  8
0
 10
123.018
 20
190.955
 11
123.137
 21
191.17
  0
LINE
  8
0
 10
123.137
 20
191.17
 11
123.28
 21
191.372
  0
LINE
  8
0
 10
123.28
 20
191.372
 11
123.444
 21
191.556
  0
LINE
  8
0
 10
123.444
 20
191.556
 11
123.628
 21
191.72
  0
LINE
  8
0
 10
123.628
 20
191.72
 11
123.83
 21
191.863
  0
LINE
  8
0
 10
123.83
 20
191.863
 11
124.045
 21
191.982
  0
LINE
  8
0
 10
124.045
 20
191.982
 11
124.273
 21
192.077
  0
LINE
  8
0
 10
124.273
 20
192.077
 11
124.51
 21
192.145
  0
LINE
  8
0
 10
124.51
 20
192.145
 11
124.754
 21
192.186
  0
LINE
  8
0
 10
124.754
 20
192.186
 11
125
 21
192.2
  0
LINE
  8
0
 10
125
 20
192.2
 11
125.246
 21
192.186
  0
LINE
  8
0
 10
125.246
 20
192.186
 11
125.49
 21
192.145
  0
LINE
  8
0
 10
125.49
 20
192.145
 11
125.727
 21
192.077
  0
LINE
  8
0
 10
125.727
 20
192.077
 11
125.955
 21
191.982
  0
LINE
  8
0
 10
125.955
 20
191.982
 11
126.17
 21
191.863
  0
LINE
  8
0
 10
126.17
 20
191.863
 11
126.372
 21
191.72
  0
LINE
  8
0
 10
126.372
 20
191.72
 11
126.556
 21
191.556
  0
LINE
  8
0
 10
126.556
 20
191.556
 11
126.72
 21
191.372
  0
LINE
  8
0
 10
126.72
 20
191.372
 11
126.863
 21
191.17
  0
LINE
  8
0
 10
126.863
 20
191.17
 11
126.982
 21
190.955
  0
LINE
  8
0
 10
126.982
 20
190.955
 11
127.077
 21
190.727
  0
LINE
  8
0
 10
127.077
 20
190.727
 11
127.145
 21
190.49
  0
LINE
  8
0
 10
127.145
 20
190.49
 11
127.186
 21
190.246
  0
LINE
  8
0
 10
127.186
 20
190.246
 11
127.2
 21
190
  0
LINE
  8
0
 10
127.2
 20
190
 11
127.186
 21
189.754
  0
LINE
  8
0
 10
127.186
 20
189.754
 11
127.145
 21
189.51
  0
LINE
  8
0
 10
127.145
 20
189.51
 11
127.077
 21
189.273
  0
LINE
  8
0
 10
127.077
 20
189.273
 11
126.982
 21
189.045
  0
LINE
  8
0
 10
126.982
 20
189.045
 11
126.863
 21
188.83
  0
LINE
  8
0
 10
126.863
 20
188.83
 11
126.72
 21
188.628
  0
LINE
  8
0
 10
126.72
 20
188.628
 11
126.556
 21
188.444
  0
LINE
  8
0
 10
126.556
 20
188.444
 11
126.372
 21
188.28
  0
LINE
  8
0
 10
126.372
 20
188.28
 11
126.17
 21
188.137
  0
LINE
  8
0
 10
126.17
 20
188.137
 11
125.955
 21
188.018
  0
LINE
  8
0
 10
125.955
 20
188.018
 11
125.727
 21
187.923
  0
LINE
  8
0
 10
125.727
 20
187.923
 11
125.49
 21
187.855
  0
LINE
  8
0
 10
125.49
 20
187.855
 11
125.246
 21
187.814
  0
LINE
  8
0
 10
125.246
 20
187.814
 11
125
 21
187.8
  0
LINE
  8
0
 10
125
 20
187.8
 11
124.754
 21
187.814
  0
LINE
  8
0
 10
-0.246307
 20
187.814
 11
-0.489532
 21
187.855
  0
LINE
  8
0
 10
-0.489532
 20
187.855
 11
-0.726608
 21
187.923
  0
LINE
  8
0
 10
-0.726608
 20
187.923
 11
-0.954544
 21
188.018
  0
LINE
  8
0
 10
-0.954544
 20
188.018
 11
-1.17046
 21
188.137
  0
LINE
  8
0
 10
-1.17046
 20
188.137
 11
-1.37167
 21
188.28
  0
LINE
  8
0
 10
-1.37167
 20
188.28
 11
-1.55563
 21
188.444
  0
LINE
  8
0
 10
-1.55563
 20
188.444
 11
-1.72002
 21
188.628
  0
LINE
  8
0
 10
-1.72002
 20
188.628
 11
-1.86279
 21
188.83
  0
LINE
  8
0
 10
-1.86279
 20
188.83
 11
-1.98212
 21
189.045
  0
LINE
  8
0
 10
-1.98212
 20
189.045
 11
-2.07654
 21
189.273
  0
LINE
  8
0
 10
-2.07654
 20
189.273
 11
-2.14484
 21
189.51
  0
LINE
  8
0
 10
-2.14484
 20
189.51
 11
-2.18616
 21
189.754
  0
LINE
  8
0
 10
-2.18616
 20
189.754
 11
-2.2
 21
190
  0
LINE
  8
0
 10
-2.2
 20
190
 11
-2.18616
 21
190.246
  0
LINE
  8
0
 10
-2.18616
 20
190.246
 11
-2.14484
 21
190.49
  0
LINE
  8
0
 10
-2.14484
 20
190.49
 11
-2.07654
 21
190.727
  0
LINE
  8
0
 10
-2.07654
 20
190.727
 11
-1.98212
 21
190.955
  0
LINE
  8
0
 10
-1.98212
 20
190.955
 11
-1.86279
 21
191.17
  0
LINE
  8
0
 10
-1.86279
 20
191.17
 11
-1.72002
 21
191.372
  0
LINE
  8
0
 10
-1.72002
 20
191.372
 11
-1.55563
 21
191.556
  0
LINE
  8
0
 10
-1.55563
 20
191.556
 11
-1.37167
 21
191.72
  0
LINE
  8
0
 10
-1.37167
 20
191.72
 11
-1.17046
 21
191.863
  0
LINE
  8
0
 10
-1.17046
 20
191.863
 11
-0.954544
 21
191.982
  0
LINE
  8
0
 10
-0.954544
 20
191.982
 11
-0.726608
 21
192.077
  0
LINE
  8
0
 10
-0.726608
 20
192.077
 11
-0.489532
 21
192.145
  0
LINE
  8
0
 10
-0.489532
 20
192.145
 11
-0.246307
 21
192.186
  0
LINE
  8
0
 10
-0.246307
 20
192.186
 11
0
 21
192.2
  0
LINE
  8
0
 10
0
 20
192.2
 11
0.246307
 21
192.186
  0
LINE
  8
0
 10
0.246307
 20
192.186
 11
0.489532
 21
192.145
  0
LINE
  8
0
 10
0.489532
 20
192.145
 11
0.726608
 21
192.077
  0
LINE
  8
0
 10
0.726608
 20
192.077
 11
0.954544
 21
191.982
  0
LINE
  8
0
 10
0.954544
 20
191.982
 11
1.17046
 21
191.863
  0
LINE
  8
0
 10
1.17046
 20
191.863
 11
1.37167
 21
191.72
  0
LINE
  8
0
 10
1.37167
 20
191.72
 11
1.55563
 21
191.556
  0
LINE
  8
0
 10
1.55563
 20
191.556
 11
1.72002
 21
191.372
  0
LINE
  8
0
 10
1.72002
 20
191.372
 11
1.86279
 21
191.17
  0
LINE
  8
0
 10
1.86279
 20
191.17
 11
1.98212
 21
190.955
  0
LINE
  8
0
 10
1.98212
 20
190.955
 11
2.07654
 21
190.727
  0
LINE
  8
0
 10
2.07654
 20
190.727
 11
2.14484
 21
190.49
  0
LINE
  8
0
 10
2.14484
 20
190.49
 11
2.18616
 21
190.246
  0
LINE
  8
0
 10
2.18616
 20
190.246
 11
2.2
 21
190
  0
LINE
  8
0
 10
2.2
 20
190
 11
2.18616
 21
189.754
  0
LINE
  8
0
 10
2.18616
 20
189.754
 11
2.14484
 21
189.51
  0
LINE
  8
0
 10
2.14484
 20
189.51
 11
2.07654
 21
189.273
  0
LINE
  8
0
 10
2.07654
 20
189.273
 11
1.98212
 21
189.045
  0
LINE
  8
0
 10
1.98212
 20
189.045
 11
1.86279
 21
188.83
  0
LINE
  8
0
 10
1.86279
 20
188.83
 11
1.72002
 21
188.628
  0
LINE
  8
0
 10
1.72002
 20
188.628
 11
1.55563
 21
188.444
  0
LINE
  8
0
 10
1.55563
 20
188.444
 11
1.37167
 21
188.28
  0
LINE
  8
0
 10
1.37167
 20
188.28
 11
1.17046
 21
188.137
  0
LINE
  8
0
 10
1.17046
 20
188.137
 11
0.954544
 21
188.018
  0
LINE
  8
0
 10
0.954544
 20
188.018
 11
0.726608
 21
187.923
  0
LINE
  8
0
 10
0.726608
 20
187.923
 11
0.489532
 21
187.855
  0
LINE
  8
0
 10
0.489532
 20
187.855
 11
0.246307
 21
187.814
  0
LINE
  8
0
 10
0.246307
 20
187.814
 11
0
 21
187.8
  0
LINE
  8
0
 10
0
 20
187.8
 11
-0.246307
 21
187.814
  0
LINE
  8
0
 10
-125.246
 20
187.814
 11
-125.49
 21
187.855
  0
LINE
  8
0
 10
-125.49
 20
187.855
 11
-125.727
 21
187.923
  0
LINE
  8
0
 10
-125.727
 20
187.923
 11
-125.955
 21
188.018
  0
LINE
  8
0
 10
-125.955
 20
188.018
 11
-126.17
 21
188.137
  0
LINE
  8
0
 10
-126.17
 20
188.137
 11
-126.372
 21
188.28
  0
LINE
  8
0
 10
-126.372
 20
188.28
 11
-126.556
 21
188.444
  0
LINE
  8
0
 10
-126.556
 20
188.444
 11
-126.72
 21
188.628
  0
LINE
  8
0
 10
-126.72
 20
188.628
 11
-126.863
 21
188.83
  0
LINE
  8
0
 10
-126.863
 20
188.83
 11
-126.982
 21
189.045
  0
LINE
  8
0
 10
-126.982
 20
189.045
 11
-127.077
 21
189.273
  0
LINE
  8
0
 10
-127.077
 20
189.273
 11
-127.145
 21
189.51
  0
LINE
  8
0
 10
-127.145
 20
189.51
 11
-127.186
 21
189.754
  0
LINE
  8
0
 10
-127.186
 20
189.754
 11
-127.2
 21
190
  0
LINE
  8
0
 10
-127.2
 20
190
 11
-127.186
 21
190.246
  0
LINE
  8
0
 10
-127.186
 20
190.246
 11
-127.145
 21
190.49
  0
LINE
  8
0
 10
-127.145
 20
190.49
 11
-127.077
 21
190.727
  0
LINE
  8
0
 10
-127.077
 20
190.727
 11
-126.982
 21
190.955
  0
LINE
  8
0
 10
-126.982
 20
190.955
 11
-126.863
 21
191.17
  0
LINE
  8
0
 10
-126.863
 20
191.17
 11
-126.72
 21
191.372
  0
LINE
  8
0
 10
-126.72
 20
191.372
 11
-126.556
 21
191.556
  0
LINE
  8
0
 10
-126.556
 20
191.556
 11
-126.372
 21
191.72
  0
LINE
  8
0
 10
-126.372
 20
191.72
 11
-126.17
 21
191.863
  0
LINE
  8
0
 10
-126.17
 20
191.863
 11
-125.955
 21
191.982
  0
LINE
  8
0
 10
-125.955
 20
191.982
 11
-125.727
 21
192.077
  0
LINE
  8
0
 10
-125.727
 20
192.077
 11
-125.49
 21
192.145
  0
LINE
  8
0
 10
-125.49
 20
192.145
 11
-125.246
 21
192.186
  0
LINE
  8
0
 10
-125.246
 20
192.186
 11
-125
 21
192.2
  0
LINE
  8
0
 10
-125
 20
192.2
 11
-124.754
 21
192.186
  0
LINE
  8
0
 10
-124.754
 20
192.186
 11
-124.51
 21
192.145
  0
LINE
  8
0
 10
-124.51
 20
192.145
 11
-124.273
 21
192.077
  0
LINE
  8
0
 10
-124.273
 20
192.077
 11
-124.045
 21
191.982
  0
LINE
  8
0
 10
-124.045
 20
191.982
 11
-123.83
 21
191.863
  0
LINE
  8
0
 10
-123.83
 20
191.863
 11
-123.628
 21
191.72
  0
LINE
  8
0
 10
-123.628
 20
191.72
 11
-123.444
 21
191.556
  0
LINE
  8
0
 10
-123.444
 20
191.556
 11
-123.28
 21
191.372
  0
LINE
  8
0
 10
-123.28
 20
191.372
 11
-123.137
 21
191.17
  0
LINE
  8
0
 10
-123.137
 20
191.17
 11
-123.018
 21
190.955
  0
LINE
  8
0
 10
-123.018
 20
190.955
 11
-122.923
 21
190.727
  0
LINE
  8
0
 10
-122.923
 20
190.727
 11
-122.855
 21
190.49
  0
LINE
  8
0
 10
-122.855
 20
190.49
 11
-122.814
 21
190.246
  0
LINE
  8
0
 10
-122.814
 20
190.246
 11
-122.8
 21
190
  0
LINE
  8
0
 10
-122.8
 20
190
 11
-122.814
 21
189.754
  0
LINE
  8
0
 10
-122.814
 20
189.754
 11
-122.855
 21
189.51
  0
LINE
  8
0
 10
-122.855
 20
189.51
 11
-122.923
 21
189.273
  0
LINE
  8
0
 10
-122.923
 20
189.273
 11
-123.018
 21
189.045
  0
LINE
  8
0
 10
-123.018
 20
189.045
 11
-123.137
 21
188.83
  0
LINE
  8
0
 10
-123.137
 20
188.83
 11
-123.28
 21
188.628
  0
LINE
  8
0
 10
-123.28
 20
188.628
 11
-123.444
 21
188.444
  0
LINE
  8
0
 10
-123.444
 20
188.444
 11
-123.628
 21
188.28
  0
LINE
  8
0
 10
-123.628
 20
188.28
 11
-123.83
 21
188.137
  0
LINE
  8
0
 10
-123.83
 20
188.137
 11
-124.045
 21
188.018
  0
LINE
  8
0
 10
-124.045
 20
188.018
 11
-124.273
 21
187.923
  0
LINE
  8
0
 10
-124.273
 20
187.923
 11
-124.51
 21
187.855
  0
LINE
  8
0
 10
-124.51
 20
187.855
 11
-124.754
 21
187.814
  0
LINE
  8
0
 10
-124.754
 20
187.814
 11
-125
 21
187.8
  0
LINE
  8
0
 10
-125
 20
187.8
 11
-125.246
 21
187.814
  0
LINE
  8
0
 10
-185.246
 20
177.814
 11
-185.49
 21
177.855
  0
LINE
  8
0
 10
-185.49
 20
177.855
 11
-185.727
 21
177.923
  0
LINE
  8
0
 10
-185.727
 20
177.923
 11
-185.955
 21
178.018
  0
LINE
  8
0
 10
-185.955
 20
178.018
 11
-186.17
 21
178.137
  0
LINE
  8
0
 10
-186.17
 20
178.137
 11
-186.372
 21
178.28
  0
LINE
  8
0
 10
-186.372
 20
178.28
 11
-186.556
 21
178.444
  0
LINE
  8
0
 10
-186.556
 20
178.444
 11
-186.72
 21
178.628
  0
LINE
  8
0
 10
-186.72
 20
178.628
 11
-186.863
 21
178.83
  0
LINE
  8
0
 10
-186.863
 20
178.83
 11
-186.982
 21
179.045
  0
LINE
  8
0
 10
-186.982
 20
179.045
 11
-187.077
 21
179.273
  0
LINE
  8
0
 10
-187.077
 20
179.273
 11
-187.145
 21
179.51
  0
LINE
  8
0
 10
-187.145
 20
179.51
 11
-187.186
 21
179.754
  0
LINE
  8
0
 10
-187.186
 20
179.754
 11
-187.2
 21
180
  0
LINE
  8
0
 10
-187.2
 20
180
 11
-187.186
 21
180.246
  0
LINE
  8
0
 10
-187.186
 20
180.246
 11
-187.145
 21
180.49
  0
LINE
  8
0
 10
-187.145
 20
180.49
 11
-187.077
 21
180.727
  0
LINE
  8
0
 10
-187.077
 20
180.727
 11
-186.982
 21
180.955
  0
LINE
  8
0
 10
-186.982
 20
180.955
 11
-186.863
 21
181.17
  0
LINE
  8
0
 10
-186.863
 20
181.17
 11
-186.72
 21
181.372
  0
LINE
  8
0
 10
-186.72
 20
181.372
 11
-186.556
 21
181.556
  0
LINE
  8
0
 10
-186.556
 20
181.556
 11
-186.372
 21
181.72
  0
LINE
  8
0
 10
-186.372
 20
181.72
 11
-186.17
 21
181.863
  0
LINE
  8
0
 10
-186.17
 20
181.863
 11
-185.955
 21
181.982
  0
LINE
  8
0
 10
-185.955
 20
181.982
 11
-185.727
 21
182.077
  0
LINE
  8
0
 10
-185.727
 20
182.077
 11
-185.49
 21
182.145
  0
LINE
  8
0
 10
-185.49
 20
182.145
 11
-185.246
 21
182.186
  0
LINE
  8
0
 10
-185.246
 20
182.186
 11
-185
 21
182.2
  0
LINE
  8
0
 10
-185
 20
182.2
 11
-184.754
 21
182.186
  0
LINE
  8
0
 10
-184.754
 20
182.186
 11
-184.51
 21
182.145
  0
LINE
  8
0
 10
-184.51
 20
182.145
 11
-184.273
 21
182.077
  0
LINE
  8
0
 10
-184.273
 20
182.077
 11
-184.045
 21
181.982
  0
LINE
  8
0
 10
-184.045
 20
181.982
 11
-183.83
 21
181.863
  0
LINE
  8
0
 10
-183.83
 20
181.863
 11
-183.628
 21
181.72
  0
LINE
  8
0
 10
-183.628
 20
181.72
 11
-183.444
 21
181.556
  0
LINE
  8
0
 10
-183.444
 20
181.556
 11
-183.28
 21
181.372
  0
LINE
  8
0
 10
-183.28
 20
181.372
 11
-183.137
 21
181.17
  0
LINE
  8
0
 10
-183.137
 20
181.17
 11
-183.018
 21
180.955
  0
LINE
  8
0
 10
-183.018
 20
180.955
 11
-182.923
 21
180.727
  0
LINE
  8
0
 10
-182.923
 20
180.727
 11
-182.855
 21
180.49
  0
LINE
  8
0
 10
-182.855
 20
180.49
 11
-182.814
 21
180.246
  0
LINE
  8
0
 10
-182.814
 20
180.246
 11
-182.8
 21
180
  0
LINE
  8
0
 10
-182.8
 20
180
 11
-182.814
 21
179.754
  0
LINE
  8
0
 10
-182.814
 20
179.754
 11
-182.855
 21
179.51
  0
LINE
  8
0
 10
-182.855
 20
179.51
 11
-182.923
 21
179.273
  0
LINE
  8
0
 10
-182.923
 20
179.273
 11
-183.018
 21
179.045
  0
LINE
  8
0
 10
-183.018
 20
179.045
 11
-183.137
 21
178.83
  0
LINE
  8
0
 10
-183.137
 20
178.83
 11
-183.28
 21
178.628
  0
LINE
  8
0
 10
-183.28
 20
178.628
 11
-183.444
 21
178.444
  0
LINE
  8
0
 10
-183.444
 20
178.444
 11
-183.628
 21
178.28
  0
LINE
  8
0
 10
-183.628
 20
178.28
 11
-183.83
 21
178.137
  0
LINE
  8
0
 10
-183.83
 20
178.137
 11
-184.045
 21
178.018
  0
LINE
  8
0
 10
-184.045
 20
178.018
 11
-184.273
 21
177.923
  0
LINE
  8
0
 10
-184.273
 20
177.923
 11
-184.51
 21
177.855
  0
LINE
  8
0
 10
-184.51
 20
177.855
 11
-184.754
 21
177.814
  0
LINE
  8
0
 10
-184.754
 20
177.814
 11
-185
 21
177.8
  0
LINE
  8
0
 10
-185
 20
177.8
 11
-185.246
 21
177.814
  0
LINE
  8
0
 10
184.754
 20
177.814
 11
184.51
 21
177.855
  0
LINE
  8
0
 10
184.51
 20
177.855
 11
184.273
 21
177.923
  0
LINE
  8
0
 10
184.273
 20
177.923
 11
184.045
 21
178.018
  0
LINE
  8
0
 10
184.045
 20
178.018
 11
183.83
 21
178.137
  0
LINE
  8
0
 10
183.83
 20
178.137
 11
183.628
 21
178.28
  0
LINE
  8
0
 10
183.628
 20
178.28
 11
183.444
 21
178.444
  0
LINE
  8
0
 10
183.444
 20
178.444
 11
183.28
 21
178.628
  0
LINE
  8
0
 10
183.28
 20
178.628
 11
183.137
 21
178.83
  0
LINE
  8
0
 10
183.137
 20
178.83
 11
183.018
 21
179.045
  0
LINE
  8
0
 10
183.018
 20
179.045
 11
182.923
 21
179.273
  0
LINE
  8
0
 10
182.923
 20
179.273
 11
182.855
 21
179.51
  0
LINE
  8
0
 10
182.855
 20
179.51
 11
182.814
 21
179.754
  0
LINE
  8
0
 10
182.814
 20
179.754
 11
182.8
 21
180
  0
LINE
  8
0
 10
182.8
 20
180
 11
182.814
 21
180.246
  0
LINE
  8
0
 10
182.814
 20
180.246
 11
182.855
 21
180.49
  0
LINE
  8
0
 10
182.855
 20
180.49
 11
182.923
 21
180.727
  0
LINE
  8
0
 10
182.923
 20
180.727
 11
183.018
 21
180.955
  0
LINE
  8
0
 10
183.018
 20
180.955
 11
183.137
 21
181.17
  0
LINE
  8
0
 10
183.137
 20
181.17
 11
183.28
 21
181.372
  0
LINE
  8
0
 10
183.28
 20
181.372
 11
183.444
 21
181.556
  0
LINE
  8
0
 10
183.444
 20
181.556
 11
183.628
 21
181.72
  0
LINE
  8
0
 10
183.628
 20
181.72
 11
183.83
 21
181.863
  0
LINE
  8
0
 10
183.83
 20
181.863
 11
184.045
 21
181.982
  0
LINE
  8
0
 10
184.045
 20
181.982
 11
184.273
 21
182.077
  0
LINE
  8
0
 10
184.273
 20
182.077
 11
184.51
 21
182.145
  0
LINE
  8
0
 10
184.51
 20
182.145
 11
184.754
 21
182.186
  0
LINE
  8
0
 10
184.754
 20
182.186
 11
185
 21
182.2
  0
LINE
  8
0
 10
185
 20
182.2
 11
185.246
 21
182.186
  0
LINE
  8
0
 10
185.246
 20
182.186
 11
185.49
 21
182.145
  0
LINE
  8
0
 10
185.49
 20
182.145
 11
185.727
 21
182.077
  0
LINE
  8
0
 10
185.727
 20
182.077
 11
185.955
 21
181.982
  0
LINE
  8
0
 10
185.955
 20
181.982
 11
186.17
 21
181.863
  0
LINE
  8
0
 10
186.17
 20
181.863
 11
186.372
 21
181.72
  0
LINE
  8
0
 10
186.372
 20
181.72
 11
186.556
 21
181.556
  0
LINE
  8
0
 10
186.556
 20
181.556
 11
186.72
 21
181.372
  0
LINE
  8
0
 10
186.72
 20
181.372
 11
186.863
 21
181.17
  0
LINE
  8
0
 10
186.863
 20
181.17
 11
186.982
 21
180.955
  0
LINE
  8
0
 10
186.982
 20
180.955
 11
187.077
 21
180.727
  0
LINE
  8
0
 10
187.077
 20
180.727
 11
187.145
 21
180.49
  0
LINE
  8
0
 10
187.145
 20
180.49
 11
187.186
 21
180.246
  0
LINE
  8
0
 10
187.186
 20
180.246
 11
187.2
 21
180
  0
LINE
  8
0
 10
187.2
 20
180
 11
187.186
 21
179.754
  0
LINE
  8
0
 10
187.186
 20
179.754
 11
187.145
 21
179.51
  0
LINE
  8
0
 10
187.145
 20
179.51
 11
187.077
 21
179.273
  0
LINE
  8
0
 10
187.077
 20
179.273
 11
186.982
 21
179.045
  0
LINE
  8
0
 10
186.982
 20
179.045
 11
186.863
 21
178.83
  0
LINE
  8
0
 10
186.863
 20
178.83
 11
186.72
 21
178.628
  0
LINE
  8
0
 10
186.72
 20
178.628
 11
186.556
 21
178.444
  0
LINE
  8
0
 10
186.556
 20
178.444
 11
186.372
 21
178.28
  0
LINE
  8
0
 10
186.372
 20
178.28
 11
186.17
 21
178.137
  0
LINE
  8
0
 10
186.17
 20
178.137
 11
185.955
 21
178.018
  0
LINE
  8
0
 10
185.955
 20
178.018
 11
185.727
 21
177.923
  0
LINE
  8
0
 10
185.727
 20
177.923
 11
185.49
 21
177.855
  0
LINE
  8
0
 10
185.49
 20
177.855
 11
185.246
 21
177.814
  0
LINE
  8
0
 10
185.246
 20
177.814
 11
185
 21
177.8
  0
LINE
  8
0
 10
185
 20
177.8
 11
184.754
 21
177.814
  0
LINE
  8
0
 10
-185.261
 20
167.514
 11
-185.52
 21
167.555
  0
LINE
  8
0
 10
-185.52
 20
167.555
 11
-185.773
 21
167.622
  0
LINE
  8
0
 10
-185.773
 20
167.622
 11
-186.017
 21
167.716
  0
LINE
  8
0
 10
-186.017
 20
167.716
 11
-186.25
 21
167.835
  0
LINE
  8
0
 10
-186.25
 20
167.835
 11
-186.469
 21
167.977
  0
LINE
  8
0
 10
-186.469
 20
167.977
 11
-186.673
 21
168.142
  0
LINE
  8
0
 10
-186.673
 20
168.142
 11
-186.858
 21
168.327
  0
LINE
  8
0
 10
-186.858
 20
168.327
 11
-187.023
 21
168.531
  0
LINE
  8
0
 10
-187.023
 20
168.531
 11
-187.165
 21
168.75
  0
LINE
  8
0
 10
-187.165
 20
168.75
 11
-187.284
 21
168.983
  0
LINE
  8
0
 10
-187.284
 20
168.983
 11
-187.378
 21
169.227
  0
LINE
  8
0
 10
-187.378
 20
169.227
 11
-187.445
 21
169.48
  0
LINE
  8
0
 10
-187.445
 20
169.48
 11
-187.486
 21
169.739
  0
LINE
  8
0
 10
-187.486
 20
169.739
 11
-187.5
 21
170
  0
LINE
  8
0
 10
-187.5
 20
170
 11
-187.486
 21
170.261
  0
LINE
  8
0
 10
-187.486
 20
170.261
 11
-187.445
 21
170.52
  0
LINE
  8
0
 10
-187.445
 20
170.52
 11
-187.378
 21
170.773
  0
LINE
  8
0
 10
-187.378
 20
170.773
 11
-187.284
 21
171.017
  0
LINE
  8
0
 10
-187.284
 20
171.017
 11
-187.165
 21
171.25
  0
LINE
  8
0
 10
-187.165
 20
171.25
 11
-187.023
 21
171.469
  0
LINE
  8
0
 10
-187.023
 20
171.469
 11
-186.858
 21
171.673
  0
LINE
  8
0
 10
-186.858
 20
171.673
 11
-186.673
 21
171.858
  0
LINE
  8
0
 10
-186.673
 20
171.858
 11
-186.469
 21
172.023
  0
LINE
  8
0
 10
-186.469
 20
172.023
 11
-186.25
 21
172.165
  0
LINE
  8
0
 10
-186.25
 20
172.165
 11
-186.017
 21
172.284
  0
LINE
  8
0
 10
-186.017
 20
172.284
 11
-185.773
 21
172.378
  0
LINE
  8
0
 10
-185.773
 20
172.378
 11
-185.52
 21
172.445
  0
LINE
  8
0
 10
-185.52
 20
172.445
 11
-185.261
 21
172.486
  0
LINE
  8
0
 10
-185.261
 20
172.486
 11
-185
 21
172.5
  0
LINE
  8
0
 10
-185
 20
172.5
 11
-184.739
 21
172.486
  0
LINE
  8
0
 10
-184.739
 20
172.486
 11
-184.48
 21
172.445
  0
LINE
  8
0
 10
-184.48
 20
172.445
 11
-184.227
 21
172.378
  0
LINE
  8
0
 10
-184.227
 20
172.378
 11
-183.983
 21
172.284
  0
LINE
  8
0
 10
-183.983
 20
172.284
 11
-183.75
 21
172.165
  0
LINE
  8
0
 10
-183.75
 20
172.165
 11
-183.531
 21
172.023
  0
LINE
  8
0
 10
-183.531
 20
172.023
 11
-183.327
 21
171.858
  0
LINE
  8
0
 10
-183.327
 20
171.858
 11
-183.142
 21
171.673
  0
LINE
  8
0
 10
-183.142
 20
171.673
 11
-182.977
 21
171.469
  0
LINE
  8
0
 10
-182.977
 20
171.469
 11
-182.835
 21
171.25
  0
LINE
  8
0
 10
-182.835
 20
171.25
 11
-182.716
 21
171.017
  0
LINE
  8
0
 10
-182.716
 20
171.017
 11
-182.622
 21
170.773
  0
LINE
  8
0
 10
-182.622
 20
170.773
 11
-182.555
 21
170.52
  0
LINE
  8
0
 10
-182.555
 20
170.52
 11
-182.514
 21
170.261
  0
LINE
  8
0
 10
-182.514
 20
170.261
 11
-182.5
 21
170
  0
LINE
  8
0
 10
-182.5
 20
170
 11
-182.514
 21
169.739
  0
LINE
  8
0
 10
-182.514
 20
169.739
 11
-182.555
 21
169.48
  0
LINE
  8
0
 10
-182.555
 20
169.48
 11
-182.622
 21
169.227
  0
LINE
  8
0
 10
-182.622
 20
169.227
 11
-182.716
 21
168.983
  0
LINE
  8
0
 10
-182.716
 20
168.983
 11
-182.835
 21
168.75
  0
LINE
  8
0
 10
-182.835
 20
168.75
 11
-182.977
 21
168.531
  0
LINE
  8
0
 10
-182.977
 20
168.531
 11
-183.142
 21
168.327
  0
LINE
  8
0
 10
-183.142
 20
168.327
 11
-183.327
 21
168.142
  0
LINE
  8
0
 10
-183.327
 20
168.142
 11
-183.531
 21
167.977
  0
LINE
  8
0
 10
-183.531
 20
167.977
 11
-183.75
 21
167.835
  0
LINE
  8
0
 10
-183.75
 20
167.835
 11
-183.983
 21
167.716
  0
LINE
  8
0
 10
-183.983
 20
167.716
 11
-184.227
 21
167.622
  0
LINE
  8
0
 10
-184.227
 20
167.622
 11
-184.48
 21
167.555
  0
LINE
  8
0
 10
-184.48
 20
167.555
 11
-184.739
 21
167.514
  0
LINE
  8
0
 10
-184.739
 20
167.514
 11
-185
 21
167.5
  0
LINE
  8
0
 10
-185
 20
167.5
 11
-185.261
 21
167.514
  0
LINE
  8
0
 10
184.754
 20
57.8138
 11
184.51
 21
57.8551
  0
LINE
  8
0
 10
184.51
 20
57.8551
 11
184.273
 21
57.9234
  0
LINE
  8
0
 10
184.273
 20
57.9234
 11
184.045
 21
58.0179
  0
LINE
  8
0
 10
184.045
 20
58.0179
 11
183.83
 21
58.1372
  0
LINE
  8
0
 10
183.83
 20
58.1372
 11
183.628
 21
58.28
  0
LINE
  8
0
 10
183.628
 20
58.28
 11
183.444
 21
58.4444
  0
LINE
  8
0
 10
183.444
 20
58.4444
 11
183.28
 21
58.6283
  0
LINE
  8
0
 10
183.28
 20
58.6283
 11
183.137
 21
58.8295
  0
LINE
  8
0
 10
183.137
 20
58.8295
 11
183.018
 21
59.0454
  0
LINE
  8
0
 10
183.018
 20
59.0454
 11
182.923
 21
59.2734
  0
LINE
  8
0
 10
182.923
 20
59.2734
 11
182.855
 21
59.5105
  0
LINE
  8
0
 10
182.855
 20
59.5105
 11
182.814
 21
59.7537
  0
LINE
  8
0
 10
182.814
 20
59.7537
 11
182.8
 21
60
  0
LINE
  8
0
 10
182.8
 20
60
 11
182.814
 21
60.2463
  0
LINE
  8
0
 10
182.814
 20
60.2463
 11
182.855
 21
60.4895
  0
LINE
  8
0
 10
182.855
 20
60.4895
 11
182.923
 21
60.7266
  0
LINE
  8
0
 10
182.923
 20
60.7266
 11
183.018
 21
60.9545
  0
LINE
  8
0
 10
183.018
 20
60.9545
 11
183.137
 21
61.1705
  0
LINE
  8
0
 10
183.137
 20
61.1705
 11
183.28
 21
61.3717
  0
LINE
  8
0
 10
183.28
 20
61.3717
 11
183.444
 21
61.5556
  0
LINE
  8
0
 10
183.444
 20
61.5556
 11
183.628
 21
61.72
  0
LINE
  8
0
 10
183.628
 20
61.72
 11
183.83
 21
61.8628
  0
LINE
  8
0
 10
183.83
 20
61.8628
 11
184.045
 21
61.9821
  0
LINE
  8
0
 10
184.045
 20
61.9821
 11
184.273
 21
62.0765
  0
LINE
  8
0
 10
184.273
 20
62.0765
 11
184.51
 21
62.1448
  0
LINE
  8
0
 10
184.51
 20
62.1448
 11
184.754
 21
62.1862
  0
LINE
  8
0
 10
184.754
 20
62.1862
 11
185
 21
62.2
  0
LINE
  8
0
 10
185
 20
62.2
 11
185.246
 21
62.1862
  0
LINE
  8
0
 10
185.246
 20
62.1862
 11
185.49
 21
62.1448
  0
LINE
  8
0
 10
185.49
 20
62.1448
 11
185.727
 21
62.0765
  0
LINE
  8
0
 10
185.727
 20
62.0765
 11
185.955
 21
61.9821
  0
LINE
  8
0
 10
185.955
 20
61.9821
 11
186.17
 21
61.8628
  0
LINE
  8
0
 10
186.17
 20
61.8628
 11
186.372
 21
61.72
  0
LINE
  8
0
 10
186.372
 20
61.72
 11
186.556
 21
61.5556
  0
LINE
  8
0
 10
186.556
 20
61.5556
 11
186.72
 21
61.3717
  0
LINE
  8
0
 10
186.72
 20
61.3717
 11
186.863
 21
61.1705
  0
LINE
  8
0
 10
186.863
 20
61.1705
 11
186.982
 21
60.9545
  0
LINE
  8
0
 10
186.982
 20
60.9545
 11
187.077
 21
60.7266
  0
LINE
  8
0
 10
187.077
 20
60.7266
 11
187.145
 21
60.4895
  0
LINE
  8
0
 10
187.145
 20
60.4895
 11
187.186
 21
60.2463
  0
LINE
  8
0
 10
187.186
 20
60.2463
 11
187.2
 21
60
  0
LINE
  8
0
 10
187.2
 20
60
 11
187.186
 21
59.7537
  0
LINE
  8
0
 10
187.186
 20
59.7537
 11
187.145
 21
59.5105
  0
LINE
  8
0
 10
187.145
 20
59.5105
 11
187.077
 21
59.2734
  0
LINE
  8
0
 10
187.077
 20
59.2734
 11
186.982
 21
59.0454
  0
LINE
  8
0
 10
186.982
 20
59.0454
 11
186.863
 21
58.8295
  0
LINE
  8
0
 10
186.863
 20
58.8295
 11
186.72
 21
58.6283
  0
LINE
  8
0
 10
186.72
 20
58.6283
 11
186.556
 21
58.4444
  0
LINE
  8
0
 10
186.556
 20
58.4444
 11
186.372
 21
58.28
  0
LINE
  8
0
 10
186.372
 20
58.28
 11
186.17
 21
58.1372
  0
LINE
  8
0
 10
186.17
 20
58.1372
 11
185.955
 21
58.0179
  0
LINE
  8
0
 10
185.955
 20
58.0179
 11
185.727
 21
57.9234
  0
LINE
  8
0
 10
185.727
 20
57.9234
 11
185.49
 21
57.8551
  0
LINE
  8
0
 10
185.49
 20
57.8551
 11
185.246
 21
57.8138
  0
LINE
  8
0
 10
185.246
 20
57.8138
 11
185
 21
57.8
  0
LINE
  8
0
 10
185
 20
57.8
 11
184.754
 21
57.8138
  0
LINE
  8
0
 10
-185.246
 20
57.8138
 11
-185.49
 21
57.8551
  0
LINE
  8
0
 10
-185.49
 20
57.8551
 11
-185.727
 21
57.9234
  0
LINE
  8
0
 10
-185.727
 20
57.9234
 11
-185.955
 21
58.0179
  0
LINE
  8
0
 10
-185.955
 20
58.0179
 11
-186.17
 21
58.1372
  0
LINE
  8
0
 10
-186.17
 20
58.1372
 11
-186.372
 21
58.28
  0
LINE
  8
0
 10
-186.372
 20
58.28
 11
-186.556
 21
58.4444
  0
LINE
  8
0
 10
-186.556
 20
58.4444
 11
-186.72
 21
58.6283
  0
LINE
  8
0
 10
-186.72
 20
58.6283
 11
-186.863
 21
58.8295
  0
LINE
  8
0
 10
-186.863
 20
58.8295
 11
-186.982
 21
59.0454
  0
LINE
  8
0
 10
-186.982
 20
59.0454
 11
-187.077
 21
59.2734
  0
LINE
  8
0
 10
-187.077
 20
59.2734
 11
-187.145
 21
59.5105
  0
LINE
  8
0
 10
-187.145
 20
59.5105
 11
-187.186
 21
59.7537
  0
LINE
  8
0
 10
-187.186
 20
59.7537
 11
-187.2
 21
60
  0
LINE
  8
0
 10
-187.2
 20
60
 11
-187.186
 21
60.2463
  0
LINE
  8
0
 10
-187.186
 20
60.2463
 11
-187.145
 21
60.4895
  0
LINE
  8
0
 10
-187.145
 20
60.4895
 11
-187.077
 21
60.7266
  0
LINE
  8
0
 10
-187.077
 20
60.7266
 11
-186.982
 21
60.9545
  0
LINE
  8
0
 10
-186.982
 20
60.9545
 11
-186.863
 21
61.1705
  0
LINE
  8
0
 10
-186.863
 20
61.1705
 11
-186.72
 21
61.3717
  0
LINE
  8
0
 10
-186.72
 20
61.3717
 11
-186.556
 21
61.5556
  0
LINE
  8
0
 10
-186.556
 20
61.5556
 11
-186.372
 21
61.72
  0
LINE
  8
0
 10
-186.372
 20
61.72
 11
-186.17
 21
61.8628
  0
LINE
  8
0
 10
-186.17
 20
61.8628
 11
-185.955
 21
61.9821
  0
LINE
  8
0
 10
-185.955
 20
61.9821
 11
-185.727
 21
62.0765
  0
LINE
  8
0
 10
-185.727
 20
62.0765
 11
-185.49
 21
62.1448
  0
LINE
  8
0
 10
-185.49
 20
62.1448
 11
-185.246
 21
62.1862
  0
LINE
  8
0
 10
-185.246
 20
62.1862
 11
-185
 21
62.2
  0
LINE
  8
0
 10
-185
 20
62.2
 11
-184.754
 21
62.1862
  0
LINE
  8
0
 10
-184.754
 20
62.1862
 11
-184.51
 21
62.1448
  0
LINE
  8
0
 10
-184.51
 20
62.1448
 11
-184.273
 21
62.0765
  0
LINE
  8
0
 10
-184.273
 20
62.0765
 11
-184.045
 21
61.9821
  0
LINE
  8
0
 10
-184.045
 20
61.9821
 11
-183.83
 21
61.8628
  0
LINE
  8
0
 10
-183.83
 20
61.8628
 11
-183.628
 21
61.72
  0
LINE
  8
0
 10
-183.628
 20
61.72
 11
-183.444
 21
61.5556
  0
LINE
  8
0
 10
-183.444
 20
61.5556
 11
-183.28
 21
61.3717
  0
LINE
  8
0
 10
-183.28
 20
61.3717
 11
-183.137
 21
61.1705
  0
LINE
  8
0
 10
-183.137
 20
61.1705
 11
-183.018
 21
60.9545
  0
LINE
  8
0
 10
-183.018
 20
60.9545
 11
-182.923
 21
60.7266
  0
LINE
  8
0
 10
-182.923
 20
60.7266
 11
-182.855
 21
60.4895
  0
LINE
  8
0
 10
-182.855
 20
60.4895
 11
-182.814
 21
60.2463
  0
LINE
  8
0
 10
-182.814
 20
60.2463
 11
-182.8
 21
60
  0
LINE
  8
0
 10
-182.8
 20
60
 11
-182.814
 21
59.7537
  0
LINE
  8
0
 10
-182.814
 20
59.7537
 11
-182.855
 21
59.5105
  0
LINE
  8
0
 10
-182.855
 20
59.5105
 11
-182.923
 21
59.2734
  0
LINE
  8
0
 10
-182.923
 20
59.2734
 11
-183.018
 21
59.0454
  0
LINE
  8
0
 10
-183.018
 20
59.0454
 11
-183.137
 21
58.8295
  0
LINE
  8
0
 10
-183.137
 20
58.8295
 11
-183.28
 21
58.6283
  0
LINE
  8
0
 10
-183.28
 20
58.6283
 11
-183.444
 21
58.4444
  0
LINE
  8
0
 10
-183.444
 20
58.4444
 11
-183.628
 21
58.28
  0
LINE
  8
0
 10
-183.628
 20
58.28
 11
-183.83
 21
58.1372
  0
LINE
  8
0
 10
-183.83
 20
58.1372
 11
-184.045
 21
58.0179
  0
LINE
  8
0
 10
-184.045
 20
58.0179
 11
-184.273
 21
57.9234
  0
LINE
  8
0
 10
-184.273
 20
57.9234
 11
-184.51
 21
57.8551
  0
LINE
  8
0
 10
-184.51
 20
57.8551
 11
-184.754
 21
57.8138
  0
LINE
  8
0
 10
-184.754
 20
57.8138
 11
-185
 21
57.8
  0
LINE
  8
0
 10
-185
 20
57.8
 11
-185.246
 21
57.8138
  0
LINE
  8
0
 10
184.754
 20
-62.1862
 11
184.51
 21
-62.1448
  0
LINE
  8
0
 10
184.51
 20
-62.1448
 11
184.273
 21
-62.0765
  0
LINE
  8
0
 10
184.273
 20
-62.0765
 11
184.045
 21
-61.9821
  0
LINE
  8
0
 10
184.045
 20
-61.9821
 11
183.83
 21
-61.8628
  0
LINE
  8
0
 10
183.83
 20
-61.8628
 11
183.628
 21
-61.72
  0
LINE
  8
0
 10
183.628
 20
-61.72
 11
183.444
 21
-61.5556
  0
LINE
  8
0
 10
183.444
 20
-61.5556
 11
183.28
 21
-61.3717
  0
LINE
  8
0
 10
183.28
 20
-61.3717
 11
183.137
 21
-61.1705
  0
LINE
  8
0
 10
183.137
 20
-61.1705
 11
183.018
 21
-60.9545
  0
LINE
  8
0
 10
183.018
 20
-60.9545
 11
182.923
 21
-60.7266
  0
LINE
  8
0
 10
182.923
 20
-60.7266
 11
182.855
 21
-60.4895
  0
LINE
  8
0
 10
182.855
 20
-60.4895
 11
182.814
 21
-60.2463
  0
LINE
  8
0
 10
182.814
 20
-60.2463
 11
182.8
 21
-60
  0
LINE
  8
0
 10
182.8
 20
-60
 11
182.814
 21
-59.7537
  0
LINE
  8
0
 10
182.814
 20
-59.7537
 11
182.855
 21
-59.5105
  0
LINE
  8
0
 10
182.855
 20
-59.5105
 11
182.923
 21
-59.2734
  0
LINE
  8
0
 10
182.923
 20
-59.2734
 11
183.018
 21
-59.0454
  0
LINE
  8
0
 10
183.018
 20
-59.0454
 11
183.137
 21
-58.8295
  0
LINE
  8
0
 10
183.137
 20
-58.8295
 11
183.28
 21
-58.6283
  0
LINE
  8
0
 10
183.28
 20
-58.6283
 11
183.444
 21
-58.4444
  0
LINE
  8
0
 10
183.444
 20
-58.4444
 11
183.628
 21
-58.28
  0
LINE
  8
0
 10
183.628
 20
-58.28
 11
183.83
 21
-58.1372
  0
LINE
  8
0
 10
183.83
 20
-58.1372
 11
184.045
 21
-58.0179
  0
LINE
  8
0
 10
184.045
 20
-58.0179
 11
184.273
 21
-57.9234
  0
LINE
  8
0
 10
184.273
 20
-57.9234
 11
184.51
 21
-57.8551
  0
LINE
  8
0
 10
184.51
 20
-57.8551
 11
184.754
 21
-57.8138
  0
LINE
  8
0
 10
184.754
 20
-57.8138
 11
185
 21
-57.8
  0
LINE
  8
0
 10
185
 20
-57.8
 11
185.246
 21
-57.8138
  0
LINE
  8
0
 10
185.246
 20
-57.8138
 11
185.49
 21
-57.8551
  0
LINE
  8
0
 10
185.49
 20
-57.8551
 11
185.727
 21
-57.9234
  0
LINE
  8
0
 10
185.727
 20
-57.9234
 11
185.955
 21
-58.0179
  0
LINE
  8
0
 10
185.955
 20
-58.0179
 11
186.17
 21
-58.1372
  0
LINE
  8
0
 10
186.17
 20
-58.1372
 11
186.372
 21
-58.28
  0
LINE
  8
0
 10
186.372
 20
-58.28
 11
186.556
 21
-58.4444
  0
LINE
  8
0
 10
186.556
 20
-58.4444
 11
186.72
 21
-58.6283
  0
LINE
  8
0
 10
186.72
 20
-58.6283
 11
186.863
 21
-58.8295
  0
LINE
  8
0
 10
186.863
 20
-58.8295
 11
186.982
 21
-59.0454
  0
LINE
  8
0
 10
186.982
 20
-59.0454
 11
187.077
 21
-59.2734
  0
LINE
  8
0
 10
187.077
 20
-59.2734
 11
187.145
 21
-59.5105
  0
LINE
  8
0
 10
187.145
 20
-59.5105
 11
187.186
 21
-59.7537
  0
LINE
  8
0
 10
187.186
 20
-59.7537
 11
187.2
 21
-60
  0
LINE
  8
0
 10
187.2
 20
-60
 11
187.186
 21
-60.2463
  0
LINE
  8
0
 10
187.186
 20
-60.2463
 11
187.145
 21
-60.4895
  0
LINE
  8
0
 10
187.145
 20
-60.4895
 11
187.077
 21
-60.7266
  0
LINE
  8
0
 10
187.077
 20
-60.7266
 11
186.982
 21
-60.9545
  0
LINE
  8
0
 10
186.982
 20
-60.9545
 11
186.863
 21
-61.1705
  0
LINE
  8
0
 10
186.863
 20
-61.1705
 11
186.72
 21
-61.3717
  0
LINE
  8
0
 10
186.72
 20
-61.3717
 11
186.556
 21
-61.5556
  0
LINE
  8
0
 10
186.556
 20
-61.5556
 11
186.372
 21
-61.72
  0
LINE
  8
0
 10
186.372
 20
-61.72
 11
186.17
 21
-61.8628
  0
LINE
  8
0
 10
186.17
 20
-61.8628
 11
185.955
 21
-61.9821
  0
LINE
  8
0
 10
185.955
 20
-61.9821
 11
185.727
 21
-62.0765
  0
LINE
  8
0
 10
185.727
 20
-62.0765
 11
185.49
 21
-62.1448
  0
LINE
  8
0
 10
185.49
 20
-62.1448
 11
185.246
 21
-62.1862
  0
LINE
  8
0
 10
185.246
 20
-62.1862
 11
185
 21
-62.2
  0
LINE
  8
0
 10
185
 20
-62.2
 11
184.754
 21
-62.1862
  0
LINE
  8
0
 10
-185.246
 20
-62.1862
 11
-185.49
 21
-62.1448
  0
LINE
  8
0
 10
-185.49
 20
-62.1448
 11
-185.727
 21
-62.0765
  0
LINE
  8
0
 10
-185.727
 20
-62.0765
 11
-185.955
 21
-61.9821
  0
LINE
  8
0
 10
-185.955
 20
-61.9821
 11
-186.17
 21
-61.8628
  0
LINE
  8
0
 10
-186.17
 20
-61.8628
 11
-186.372
 21
-61.72
  0
LINE
  8
0
 10
-186.372
 20
-61.72
 11
-186.556
 21
-61.5556
  0
LINE
  8
0
 10
-186.556
 20
-61.5556
 11
-186.72
 21
-61.3717
  0
LINE
  8
0
 10
-186.72
 20
-61.3717
 11
-186.863
 21
-61.1705
  0
LINE
  8
0
 10
-186.863
 20
-61.1705
 11
-186.982
 21
-60.9545
  0
LINE
  8
0
 10
-186.982
 20
-60.9545
 11
-187.077
 21
-60.7266
  0
LINE
  8
0
 10
-187.077
 20
-60.7266
 11
-187.145
 21
-60.4895
  0
LINE
  8
0
 10
-187.145
 20
-60.4895
 11
-187.186
 21
-60.2463
  0
LINE
  8
0
 10
-187.186
 20
-60.2463
 11
-187.2
 21
-60
  0
LINE
  8
0
 10
-187.2
 20
-60
 11
-187.186
 21
-59.7537
  0
LINE
  8
0
 10
-187.186
 20
-59.7537
 11
-187.145
 21
-59.5105
  0
LINE
  8
0
 10
-187.145
 20
-59.5105
 11
-187.077
 21
-59.2734
  0
LINE
  8
0
 10
-187.077
 20
-59.2734
 11
-186.982
 21
-59.0454
  0
LINE
  8
0
 10
-186.982
 20
-59.0454
 11
-186.863
 21
-58.8295
  0
LINE
  8
0
 10
-186.863
 20
-58.8295
 11
-186.72
 21
-58.6283
  0
LINE
  8
0
 10
-186.72
 20
-58.6283
 11
-186.556
 21
-58.4444
  0
LINE
  8
0
 10
-186.556
 20
-58.4444
 11
-186.372
 21
-58.28
  0
LINE
  8
0
 10
-186.372
 20
-58.28
 11
-186.17
 21
-58.1372
  0
LINE
  8
0
 10
-186.17
 20
-58.1372
 11
-185.955
 21
-58.0179
  0
LINE
  8
0
 10
-185.955
 20
-58.0179
 11
-185.727
 21
-57.9234
  0
LINE
  8
0
 10
-185.727
 20
-57.9234
 11
-185.49
 21
-57.8551
  0
LINE
  8
0
 10
-185.49
 20
-57.8551
 11
-185.246
 21
-57.8138
  0
LINE
  8
0
 10
-185.246
 20
-57.8138
 11
-185
 21
-57.8
  0
LINE
  8
0
 10
-185
 20
-57.8
 11
-184.754
 21
-57.8138
  0
LINE
  8
0
 10
-184.754
 20
-57.8138
 11
-184.51
 21
-57.8551
  0
LINE
  8
0
 10
-184.51
 20
-57.8551
 11
-184.273
 21
-57.9234
  0
LINE
  8
0
 10
-184.273
 20
-57.9234
 11
-184.045
 21
-58.0179
  0
LINE
  8
0
 10
-184.045
 20
-58.0179
 11
-183.83
 21
-58.1372
  0
LINE
  8
0
 10
-183.83
 20
-58.1372
 11
-183.628
 21
-58.28
  0
LINE
  8
0
 10
-183.628
 20
-58.28
 11
-183.444
 21
-58.4444
  0
LINE
  8
0
 10
-183.444
 20
-58.4444
 11
-183.28
 21
-58.6283
  0
LINE
  8
0
 10
-183.28
 20
-58.6283
 11
-183.137
 21
-58.8295
  0
LINE
  8
0
 10
-183.137
 20
-58.8295
 11
-183.018
 21
-59.0454
  0
LINE
  8
0
 10
-183.018
 20
-59.0454
 11
-182.923
 21
-59.2734
  0
LINE
  8
0
 10
-182.923
 20
-59.2734
 11
-182.855
 21
-59.5105
  0
LINE
  8
0
 10
-182.855
 20
-59.5105
 11
-182.814
 21
-59.7537
  0
LINE
  8
0
 10
-182.814
 20
-59.7537
 11
-182.8
 21
-60
  0
LINE
  8
0
 10
-182.8
 20
-60
 11
-182.814
 21
-60.2463
  0
LINE
  8
0
 10
-182.814
 20
-60.2463
 11
-182.855
 21
-60.4895
  0
LINE
  8
0
 10
-182.855
 20
-60.4895
 11
-182.923
 21
-60.7266
  0
LINE
  8
0
 10
-182.923
 20
-60.7266
 11
-183.018
 21
-60.9545
  0
LINE
  8
0
 10
-183.018
 20
-60.9545
 11
-183.137
 21
-61.1705
  0
LINE
  8
0
 10
-183.137
 20
-61.1705
 11
-183.28
 21
-61.3717
  0
LINE
  8
0
 10
-183.28
 20
-61.3717
 11
-183.444
 21
-61.5556
  0
LINE
  8
0
 10
-183.444
 20
-61.5556
 11
-183.628
 21
-61.72
  0
LINE
  8
0
 10
-183.628
 20
-61.72
 11
-183.83
 21
-61.8628
  0
LINE
  8
0
 10
-183.83
 20
-61.8628
 11
-184.045
 21
-61.9821
  0
LINE
  8
0
 10
-184.045
 20
-61.9821
 11
-184.273
 21
-62.0765
  0
LINE
  8
0
 10
-184.273
 20
-62.0765
 11
-184.51
 21
-62.1448
  0
LINE
  8
0
 10
-184.51
 20
-62.1448
 11
-184.754
 21
-62.1862
  0
LINE
  8
0
 10
-184.754
 20
-62.1862
 11
-185
 21
-62.2
  0
LINE
  8
0
 10
-185
 20
-62.2
 11
-185.246
 21
-62.1862
  0
LINE
  8
0
 10
184.739
 20
-132.486
 11
184.48
 21
-132.445
  0
LINE
  8
0
 10
184.48
 20
-132.445
 11
184.227
 21
-132.378
  0
LINE
  8
0
 10
184.227
 20
-132.378
 11
183.983
 21
-132.284
  0
LINE
  8
0
 10
183.983
 20
-132.284
 11
183.75
 21
-132.165
  0
LINE
  8
0
 10
183.75
 20
-132.165
 11
183.531
 21
-132.023
  0
LINE
  8
0
 10
183.531
 20
-132.023
 11
183.327
 21
-131.858
  0
LINE
  8
0
 10
183.327
 20
-131.858
 11
183.142
 21
-131.673
  0
LINE
  8
0
 10
183.142
 20
-131.673
 11
182.977
 21
-131.469
  0
LINE
  8
0
 10
182.977
 20
-131.469
 11
182.835
 21
-131.25
  0
LINE
  8
0
 10
182.835
 20
-131.25
 11
182.716
 21
-131.017
  0
LINE
  8
0
 10
182.716
 20
-131.017
 11
182.622
 21
-130.773
  0
LINE
  8
0
 10
182.622
 20
-130.773
 11
182.555
 21
-130.52
  0
LINE
  8
0
 10
182.555
 20
-130.52
 11
182.514
 21
-130.261
  0
LINE
  8
0
 10
182.514
 20
-130.261
 11
182.5
 21
-130
  0
LINE
  8
0
 10
182.5
 20
-130
 11
182.514
 21
-129.739
  0
LINE
  8
0
 10
182.514
 20
-129.739
 11
182.555
 21
-129.48
  0
LINE
  8
0
 10
182.555
 20
-129.48
 11
182.622
 21
-129.227
  0
LINE
  8
0
 10
182.622
 20
-129.227
 11
182.716
 21
-128.983
  0
LINE
  8
0
 10
182.716
 20
-128.983
 11
182.835
 21
-128.75
  0
LINE
  8
0
 10
182.835
 20
-128.75
 11
182.977
 21
-128.531
  0
LINE
  8
0
 10
182.977
 20
-128.531
 11
183.142
 21
-128.327
  0
LINE
  8
0
 10
183.142
 20
-128.327
 11
183.327
 21
-128.142
  0
LINE
  8
0
 10
183.327
 20
-128.142
 11
183.531
 21
-127.977
  0
LINE
  8
0
 10
183.531
 20
-127.977
 11
183.75
 21
-127.835
  0
LINE
  8
0
 10
183.75
 20
-127.835
 11
183.983
 21
-127.716
  0
LINE
  8
0
 10
183.983
 20
-127.716
 11
184.227
 21
-127.622
  0
LINE
  8
0
 10
184.227
 20
-127.622
 11
184.48
 21
-127.555
  0
LINE
  8
0
 10
184.48
 20
-127.555
 11
184.739
 21
-127.514
  0
LINE
  8
0
 10
184.739
 20
-127.514
 11
185
 21
-127.5
  0
LINE
  8
0
 10
185
 20
-127.5
 11
185.261
 21
-127.514
  0
LINE
  8
0
 10
185.261
 20
-127.514
 11
185.52
 21
-127.555
  0
LINE
  8
0
 10
185.52
 20
-127.555
 11
185.773
 21
-127.622
  0
LINE
  8
0
 10
185.773
 20
-127.622
 11
186.017
 21
-127.716
  0
LINE
  8
0
 10
186.017
 20
-127.716
 11
186.25
 21
-127.835
  0
LINE
  8
0
 10
186.25
 20
-127.835
 11
186.469
 21
-127.977
  0
LINE
  8
0
 10
186.469
 20
-127.977
 11
186.673
 21
-128.142
  0
LINE
  8
0
 10
186.673
 20
-128.142
 11
186.858
 21
-128.327
  0
LINE
  8
0
 10
186.858
 20
-128.327
 11
187.023
 21
-128.531
  0
LINE
  8
0
 10
187.023
 20
-128.531
 11
187.165
 21
-128.75
  0
LINE
  8
0
 10
187.165
 20
-128.75
 11
187.284
 21
-128.983
  0
LINE
  8
0
 10
187.284
 20
-128.983
 11
187.378
 21
-129.227
  0
LINE
  8
0
 10
187.378
 20
-129.227
 11
187.445
 21
-129.48
  0
LINE
  8
0
 10
187.445
 20
-129.48
 11
187.486
 21
-129.739
  0
LINE
  8
0
 10
187.486
 20
-129.739
 11
187.5
 21
-130
  0
LINE
  8
0
 10
187.5
 20
-130
 11
187.486
 21
-130.261
  0
LINE
  8
0
 10
187.486
 20
-130.261
 11
187.445
 21
-130.52
  0
LINE
  8
0
 10
187.445
 20
-130.52
 11
187.378
 21
-130.773
  0
LINE
  8
0
 10
187.378
 20
-130.773
 11
187.284
 21
-131.017
  0
LINE
  8
0
 10
187.284
 20
-131.017
 11
187.165
 21
-131.25
  0
LINE
  8
0
 10
187.165
 20
-131.25
 11
187.023
 21
-131.469
  0
LINE
  8
0
 10
187.023
 20
-131.469
 11
186.858
 21
-131.673
  0
LINE
  8
0
 10
186.858
 20
-131.673
 11
186.673
 21
-131.858
  0
LINE
  8
0
 10
186.673
 20
-131.858
 11
186.469
 21
-132.023
  0
LINE
  8
0
 10
186.469
 20
-132.023
 11
186.25
 21
-132.165
  0
LINE
  8
0
 10
186.25
 20
-132.165
 11
186.017
 21
-132.284
  0
LINE
  8
0
 10
186.017
 20
-132.284
 11
185.773
 21
-132.378
  0
LINE
  8
0
 10
185.773
 20
-132.378
 11
185.52
 21
-132.445
  0
LINE
  8
0
 10
185.52
 20
-132.445
 11
185.261
 21
-132.486
  0
LINE
  8
0
 10
185.261
 20
-132.486
 11
185
 21
-132.5
  0
LINE
  8
0
 10
185
 20
-132.5
 11
184.739
 21
-132.486
  0
LINE
  8
0
 10
184.739
 20
-152.486
 11
184.48
 21
-152.445
  0
LINE
  8
0
 10
184.48
 20
-152.445
 11
184.227
 21
-152.378
  0
LINE
  8
0
 10
184.227
 20
-152.378
 11
183.983
 21
-152.284
  0
LINE
  8
0
 10
183.983
 20
-152.284
 11
183.75
 21
-152.165
  0
LINE
  8
0
 10
183.75
 20
-152.165
 11
183.531
 21
-152.023
  0
LINE
  8
0
 10
183.531
 20
-152.023
 11
183.327
 21
-151.858
  0
LINE
  8
0
 10
183.327
 20
-151.858
 11
183.142
 21
-151.673
  0
LINE
  8
0
 10
183.142
 20
-151.673
 11
182.977
 21
-151.469
  0
LINE
  8
0
 10
182.977
 20
-151.469
 11
182.835
 21
-151.25
  0
LINE
  8
0
 10
182.835
 20
-151.25
 11
182.716
 21
-151.017
  0
LINE
  8
0
 10
182.716
 20
-151.017
 11
182.622
 21
-150.773
  0
LINE
  8
0
 10
182.622
 20
-150.773
 11
182.555
 21
-150.52
  0
LINE
  8
0
 10
182.555
 20
-150.52
 11
182.514
 21
-150.261
  0
LINE
  8
0
 10
182.514
 20
-150.261
 11
182.5
 21
-150
  0
LINE
  8
0
 10
182.5
 20
-150
 11
182.514
 21
-149.739
  0
LINE
  8
0
 10
182.514
 20
-149.739
 11
182.555
 21
-149.48
  0
LINE
  8
0
 10
182.555
 20
-149.48
 11
182.622
 21
-149.227
  0
LINE
  8
0
 10
182.622
 20
-149.227
 11
182.716
 21
-148.983
  0
LINE
  8
0
 10
182.716
 20
-148.983
 11
182.835
 21
-148.75
  0
LINE
  8
0
 10
182.835
 20
-148.75
 11
182.977
 21
-148.531
  0
LINE
  8
0
 10
182.977
 20
-148.531
 11
183.142
 21
-148.327
  0
LINE
  8
0
 10
183.142
 20
-148.327
 11
183.327
 21
-148.142
  0
LINE
  8
0
 10
183.327
 20
-148.142
 11
183.531
 21
-147.977
  0
LINE
  8
0
 10
183.531
 20
-147.977
 11
183.75
 21
-147.835
  0
LINE
  8
0
 10
183.75
 20
-147.835
 11
183.983
 21
-147.716
  0
LINE
  8
0
 10
183.983
 20
-147.716
 11
184.227
 21
-147.622
  0
LINE
  8
0
 10
184.227
 20
-147.622
 11
184.48
 21
-147.555
  0
LINE
  8
0
 10
184.48
 20
-147.555
 11
184.739
 21
-147.514
  0
LINE
  8
0
 10
184.739
 20
-147.514
 11
185
 21
-147.5
  0
LINE
  8
0
 10
185
 20
-147.5
 11
185.261
 21
-147.514
  0
LINE
  8
0
 10
185.261
 20
-147.514
 11
185.52
 21
-147.555
  0
LINE
  8
0
 10
185.52
 20
-147.555
 11
185.773
 21
-147.622
  0
LINE
  8
0
 10
185.773
 20
-147.622
 11
186.017
 21
-147.716
  0
LINE
  8
0
 10
186.017
 20
-147.716
 11
186.25
 21
-147.835
  0
LINE
  8
0
 10
186.25
 20
-147.835
 11
186.469
 21
-147.977
  0
LINE
  8
0
 10
186.469
 20
-147.977
 11
186.673
 21
-148.142
  0
LINE
  8
0
 10
186.673
 20
-148.142
 11
186.858
 21
-148.327
  0
LINE
  8
0
 10
186.858
 20
-148.327
 11
187.023
 21
-148.531
  0
LINE
  8
0
 10
187.023
 20
-148.531
 11
187.165
 21
-148.75
  0
LINE
  8
0
 10
187.165
 20
-148.75
 11
187.284
 21
-148.983
  0
LINE
  8
0
 10
187.284
 20
-148.983
 11
187.378
 21
-149.227
  0
LINE
  8
0
 10
187.378
 20
-149.227
 11
187.445
 21
-149.48
  0
LINE
  8
0
 10
187.445
 20
-149.48
 11
187.486
 21
-149.739
  0
LINE
  8
0
 10
187.486
 20
-149.739
 11
187.5
 21
-150
  0
LINE
  8
0
 10
187.5
 20
-150
 11
187.486
 21
-150.261
  0
LINE
  8
0
 10
187.486
 20
-150.261
 11
187.445
 21
-150.52
  0
LINE
  8
0
 10
187.445
 20
-150.52
 11
187.378
 21
-150.773
  0
LINE
  8
0
 10
187.378
 20
-150.773
 11
187.284
 21
-151.017
  0
LINE
  8
0
 10
187.284
 20
-151.017
 11
187.165
 21
-151.25
  0
LINE
  8
0
 10
187.165
 20
-151.25
 11
187.023
 21
-151.469
  0
LINE
  8
0
 10
187.023
 20
-151.469
 11
186.858
 21
-151.673
  0
LINE
  8
0
 10
186.858
 20
-151.673
 11
186.673
 21
-151.858
  0
LINE
  8
0
 10
186.673
 20
-151.858
 11
186.469
 21
-152.023
  0
LINE
  8
0
 10
186.469
 20
-152.023
 11
186.25
 21
-152.165
  0
LINE
  8
0
 10
186.25
 20
-152.165
 11
186.017
 21
-152.284
  0
LINE
  8
0
 10
186.017
 20
-152.284
 11
185.773
 21
-152.378
  0
LINE
  8
0
 10
185.773
 20
-152.378
 11
185.52
 21
-152.445
  0
LINE
  8
0
 10
185.52
 20
-152.445
 11
185.261
 21
-152.486
  0
LINE
  8
0
 10
185.261
 20
-152.486
 11
185
 21
-152.5
  0
LINE
  8
0
 10
185
 20
-152.5
 11
184.739
 21
-152.486
  0
LINE
  8
0
 10
-185.261
 20
-172.486
 11
-185.52
 21
-172.445
  0
LINE
  8
0
 10
-185.52
 20
-172.445
 11
-185.773
 21
-172.378
  0
LINE
  8
0
 10
-185.773
 20
-172.378
 11
-186.017
 21
-172.284
  0
LINE
  8
0
 10
-186.017
 20
-172.284
 11
-186.25
 21
-172.165
  0
LINE
  8
0
 10
-186.25
 20
-172.165
 11
-186.469
 21
-172.023
  0
LINE
  8
0
 10
-186.469
 20
-172.023
 11
-186.673
 21
-171.858
  0
LINE
  8
0
 10
-186.673
 20
-171.858
 11
-186.858
 21
-171.673
  0
LINE
  8
0
 10
-186.858
 20
-171.673
 11
-187.023
 21
-171.469
  0
LINE
  8
0
 10
-187.023
 20
-171.469
 11
-187.165
 21
-171.25
  0
LINE
  8
0
 10
-187.165
 20
-171.25
 11
-187.284
 21
-171.017
  0
LINE
  8
0
 10
-187.284
 20
-171.017
 11
-187.378
 21
-170.773
  0
LINE
  8
0
 10
-187.378
 20
-170.773
 11
-187.445
 21
-170.52
  0
LINE
  8
0
 10
-187.445
 20
-170.52
 11
-187.486
 21
-170.261
  0
LINE
  8
0
 10
-187.486
 20
-170.261
 11
-187.5
 21
-170
  0
LINE
  8
0
 10
-187.5
 20
-170
 11
-187.486
 21
-169.739
  0
LINE
  8
0
 10
-187.486
 20
-169.739
 11
-187.445
 21
-169.48
  0
LINE
  8
0
 10
-187.445
 20
-169.48
 11
-187.378
 21
-169.227
  0
LINE
  8
0
 10
-187.378
 20
-169.227
 11
-187.284
 21
-168.983
  0
LINE
  8
0
 10
-187.284
 20
-168.983
 11
-187.165
 21
-168.75
  0
LINE
  8
0
 10
-187.165
 20
-168.75
 11
-187.023
 21
-168.531
  0
LINE
  8
0
 10
-187.023
 20
-168.531
 11
-186.858
 21
-168.327
  0
LINE
  8
0
 10
-186.858
 20
-168.327
 11
-186.673
 21
-168.142
  0
LINE
  8
0
 10
-186.673
 20
-168.142
 11
-186.469
 21
-167.977
  0
LINE
  8
0
 10
-186.469
 20
-167.977
 11
-186.25
 21
-167.835
  0
LINE
  8
0
 10
-186.25
 20
-167.835
 11
-186.017
 21
-167.716
  0
LINE
  8
0
 10
-186.017
 20
-167.716
 11
-185.773
 21
-167.622
  0
LINE
  8
0
 10
-185.773
 20
-167.622
 11
-185.52
 21
-167.555
  0
LINE
  8
0
 10
-185.52
 20
-167.555
 11
-185.261
 21
-167.514
  0
LINE
  8
0
 10
-185.261
 20
-167.514
 11
-185
 21
-167.5
  0
LINE
  8
0
 10
-185
 20
-167.5
 11
-184.739
 21
-167.514
  0
LINE
  8
0
 10
-184.739
 20
-167.514
 11
-184.48
 21
-167.555
  0
LINE
  8
0
 10
-184.48
 20
-167.555
 11
-184.227
 21
-167.622
  0
LINE
  8
0
 10
-184.227
 20
-167.622
 11
-183.983
 21
-167.716
  0
LINE
  8
0
 10
-183.983
 20
-167.716
 11
-183.75
 21
-167.835
  0
LINE
  8
0
 10
-183.75
 20
-167.835
 11
-183.531
 21
-167.977
  0
LINE
  8
0
 10
-183.531
 20
-167.977
 11
-183.327
 21
-168.142
  0
LINE
  8
0
 10
-183.327
 20
-168.142
 11
-183.142
 21
-168.327
  0
LINE
  8
0
 10
-183.142
 20
-168.327
 11
-182.977
 21
-168.531
  0
LINE
  8
0
 10
-182.977
 20
-168.531
 11
-182.835
 21
-168.75
  0
LINE
  8
0
 10
-182.835
 20
-168.75
 11
-182.716
 21
-168.983
  0
LINE
  8
0
 10
-182.716
 20
-168.983
 11
-182.622
 21
-169.227
  0
LINE
  8
0
 10
-182.622
 20
-169.227
 11
-182.555
 21
-169.48
  0
LINE
  8
0
 10
-182.555
 20
-169.48
 11
-182.514
 21
-169.739
  0
LINE
  8
0
 10
-182.514
 20
-169.739
 11
-182.5
 21
-170
  0
LINE
  8
0
 10
-182.5
 20
-170
 11
-182.514
 21
-170.261
  0
LINE
  8
0
 10
-182.514
 20
-170.261
 11
-182.555
 21
-170.52
  0
LINE
  8
0
 10
-182.555
 20
-170.52
 11
-182.622
 21
-170.773
  0
LINE
  8
0
 10
-182.622
 20
-170.773
 11
-182.716
 21
-171.017
  0
LINE
  8
0
 10
-182.716
 20
-171.017
 11
-182.835
 21
-171.25
  0
LINE
  8
0
 10
-182.835
 20
-171.25
 11
-182.977
 21
-171.469
  0
LINE
  8
0
 10
-182.977
 20
-171.469
 11
-183.142
 21
-171.673
  0
LINE
  8
0
 10
-183.142
 20
-171.673
 11
-183.327
 21
-171.858
  0
LINE
  8
0
 10
-183.327
 20
-171.858
 11
-183.531
 21
-172.023
  0
LINE
  8
0
 10
-183.531
 20
-172.023
 11
-183.75
 21
-172.165
  0
LINE
  8
0
 10
-183.75
 20
-172.165
 11
-183.983
 21
-172.284
  0
LINE
  8
0
 10
-183.983
 20
-172.284
 11
-184.227
 21
-172.378
  0
LINE
  8
0
 10
-184.227
 20
-172.378
 11
-184.48
 21
-172.445
  0
LINE
  8
0
 10
-184.48
 20
-172.445
 11
-184.739
 21
-172.486
  0
LINE
  8
0
 10
-184.739
 20
-172.486
 11
-185
 21
-172.5
  0
LINE
  8
0
 10
-185
 20
-172.5
 11
-185.261
 21
-172.486
  0
LINE
  8
0
 10
184.739
 20
-172.486
 11
184.48
 21
-172.445
  0
LINE
  8
0
 10
184.48
 20
-172.445
 11
184.227
 21
-172.378
  0
LINE
  8
0
 10
184.227
 20
-172.378
 11
183.983
 21
-172.284
  0
LINE
  8
0
 10
183.983
 20
-172.284
 11
183.75
 21
-172.165
  0
LINE
  8
0
 10
183.75
 20
-172.165
 11
183.531
 21
-172.023
  0
LINE
  8
0
 10
183.531
 20
-172.023
 11
183.327
 21
-171.858
  0
LINE
  8
0
 10
183.327
 20
-171.858
 11
183.142
 21
-171.673
  0
LINE
  8
0
 10
183.142
 20
-171.673
 11
182.977
 21
-171.469
  0
LINE
  8
0
 10
182.977
 20
-171.469
 11
182.835
 21
-171.25
  0
LINE
  8
0
 10
182.835
 20
-171.25
 11
182.716
 21
-171.017
  0
LINE
  8
0
 10
182.716
 20
-171.017
 11
182.622
 21
-170.773
  0
LINE
  8
0
 10
182.622
 20
-170.773
 11
182.555
 21
-170.52
  0
LINE
  8
0
 10
182.555
 20
-170.52
 11
182.514
 21
-170.261
  0
LINE
  8
0
 10
182.514
 20
-170.261
 11
182.5
 21
-170
  0
LINE
  8
0
 10
182.5
 20
-170
 11
182.514
 21
-169.739
  0
LINE
  8
0
 10
182.514
 20
-169.739
 11
182.555
 21
-169.48
  0
LINE
  8
0
 10
182.555
 20
-169.48
 11
182.622
 21
-169.227
  0
LINE
  8
0
 10
182.622
 20
-169.227
 11
182.716
 21
-168.983
  0
LINE
  8
0
 10
182.716
 20
-168.983
 11
182.835
 21
-168.75
  0
LINE
  8
0
 10
182.835
 20
-168.75
 11
182.977
 21
-168.531
  0
LINE
  8
0
 10
182.977
 20
-168.531
 11
183.142
 21
-168.327
  0
LINE
  8
0
 10
183.142
 20
-168.327
 11
183.327
 21
-168.142
  0
LINE
  8
0
 10
183.327
 20
-168.142
 11
183.531
 21
-167.977
  0
LINE
  8
0
 10
183.531
 20
-167.977
 11
183.75
 21
-167.835
  0
LINE
  8
0
 10
183.75
 20
-167.835
 11
183.983
 21
-167.716
  0
LINE
  8
0
 10
183.983
 20
-167.716
 11
184.227
 21
-167.622
  0
LINE
  8
0
 10
184.227
 20
-167.622
 11
184.48
 21
-167.555
  0
LINE
  8
0
 10
184.48
 20
-167.555
 11
184.739
 21
-167.514
  0
LINE
  8
0
 10
184.739
 20
-167.514
 11
185
 21
-167.5
  0
LINE
  8
0
 10
185
 20
-167.5
 11
185.261
 21
-167.514
  0
LINE
  8
0
 10
185.261
 20
-167.514
 11
185.52
 21
-167.555
  0
LINE
  8
0
 10
185.52
 20
-167.555
 11
185.773
 21
-167.622
  0
LINE
  8
0
 10
185.773
 20
-167.622
 11
186.017
 21
-167.716
  0
LINE
  8
0
 10
186.017
 20
-167.716
 11
186.25
 21
-167.835
  0
LINE
  8
0
 10
186.25
 20
-167.835
 11
186.469
 21
-167.977
  0
LINE
  8
0
 10
186.469
 20
-167.977
 11
186.673
 21
-168.142
  0
LINE
  8
0
 10
186.673
 20
-168.142
 11
186.858
 21
-168.327
  0
LINE
  8
0
 10
186.858
 20
-168.327
 11
187.023
 21
-168.531
  0
LINE
  8
0
 10
187.023
 20
-168.531
 11
187.165
 21
-168.75
  0
LINE
  8
0
 10
187.165
 20
-168.75
 11
187.284
 21
-168.983
  0
LINE
  8
0
 10
187.284
 20
-168.983
 11
187.378
 21
-169.227
  0
LINE
  8
0
 10
187.378
 20
-169.227
 11
187.445
 21
-169.48
  0
LINE
  8
0
 10
187.445
 20
-169.48
 11
187.486
 21
-169.739
  0
LINE
  8
0
 10
187.486
 20
-169.739
 11
187.5
 21
-170
  0
LINE
  8
0
 10
187.5
 20
-170
 11
187.486
 21
-170.261
  0
LINE
  8
0
 10
187.486
 20
-170.261
 11
187.445
 21
-170.52
  0
LINE
  8
0
 10
187.445
 20
-170.52
 11
187.378
 21
-170.773
  0
LINE
  8
0
 10
187.378
 20
-170.773
 11
187.284
 21
-171.017
  0
LINE
  8
0
 10
187.284
 20
-171.017
 11
187.165
 21
-171.25
  0
LINE
  8
0
 10
187.165
 20
-171.25
 11
187.023
 21
-171.469
  0
LINE
  8
0
 10
187.023
 20
-171.469
 11
186.858
 21
-171.673
  0
LINE
  8
0
 10
186.858
 20
-171.673
 11
186.673
 21
-171.858
  0
LINE
  8
0
 10
186.673
 20
-171.858
 11
186.469
 21
-172.023
  0
LINE
  8
0
 10
186.469
 20
-172.023
 11
186.25
 21
-172.165
  0
LINE
  8
0
 10
186.25
 20
-172.165
 11
186.017
 21
-172.284
  0
LINE
  8
0
 10
186.017
 20
-172.284
 11
185.773
 21
-172.378
  0
LINE
  8
0
 10
185.773
 20
-172.378
 11
185.52
 21
-172.445
  0
LINE
  8
0
 10
185.52
 20
-172.445
 11
185.261
 21
-172.486
  0
LINE
  8
0
 10
185.261
 20
-172.486
 11
185
 21
-172.5
  0
LINE
  8
0
 10
185
 20
-172.5
 11
184.739
 21
-172.486
  0
LINE
  8
0
 10
-185.246
 20
-182.186
 11
-185.49
 21
-182.145
  0
LINE
  8
0
 10
-185.49
 20
-182.145
 11
-185.727
 21
-182.077
  0
LINE
  8
0
 10
-185.727
 20
-182.077
 11
-185.955
 21
-181.982
  0
LINE
  8
0
 10
-185.955
 20
-181.982
 11
-186.17
 21
-181.863
  0
LINE
  8
0
 10
-186.17
 20
-181.863
 11
-186.372
 21
-181.72
  0
LINE
  8
0
 10
-186.372
 20
-181.72
 11
-186.556
 21
-181.556
  0
LINE
  8
0
 10
-186.556
 20
-181.556
 11
-186.72
 21
-181.372
  0
LINE
  8
0
 10
-186.72
 20
-181.372
 11
-186.863
 21
-181.17
  0
LINE
  8
0
 10
-186.863
 20
-181.17
 11
-186.982
 21
-180.955
  0
LINE
  8
0
 10
-186.982
 20
-180.955
 11
-187.077
 21
-180.727
  0
LINE
  8
0
 10
-187.077
 20
-180.727
 11
-187.145
 21
-180.49
  0
LINE
  8
0
 10
-187.145
 20
-180.49
 11
-187.186
 21
-180.246
  0
LINE
  8
0
 10
-187.186
 20
-180.246
 11
-187.2
 21
-180
  0
LINE
  8
0
 10
-187.2
 20
-180
 11
-187.186
 21
-179.754
  0
LINE
  8
0
 10
-187.186
 20
-179.754
 11
-187.145
 21
-179.51
  0
LINE
  8
0
 10
-187.145
 20
-179.51
 11
-187.077
 21
-179.273
  0
LINE
  8
0
 10
-187.077
 20
-179.273
 11
-186.982
 21
-179.045
  0
LINE
  8
0
 10
-186.982
 20
-179.045
 11
-186.863
 21
-178.83
  0
LINE
  8
0
 10
-186.863
 20
-178.83
 11
-186.72
 21
-178.628
  0
LINE
  8
0
 10
-186.72
 20
-178.628
 11
-186.556
 21
-178.444
  0
LINE
  8
0
 10
-186.556
 20
-178.444
 11
-186.372
 21
-178.28
  0
LINE
  8
0
 10
-186.372
 20
-178.28
 11
-186.17
 21
-178.137
  0
LINE
  8
0
 10
-186.17
 20
-178.137
 11
-185.955
 21
-178.018
  0
LINE
  8
0
 10
-185.955
 20
-178.018
 11
-185.727
 21
-177.923
  0
LINE
  8
0
 10
-185.727
 20
-177.923
 11
-185.49
 21
-177.855
  0
LINE
  8
0
 10
-185.49
 20
-177.855
 11
-185.246
 21
-177.814
  0
LINE
  8
0
 10
-185.246
 20
-177.814
 11
-185
 21
-177.8
  0
LINE
  8
0
 10
-185
 20
-177.8
 11
-184.754
 21
-177.814
  0
LINE
  8
0
 10
-184.754
 20
-177.814
 11
-184.51
 21
-177.855
  0
LINE
  8
0
 10
-184.51
 20
-177.855
 11
-184.273
 21
-177.923
  0
LINE
  8
0
 10
-184.273
 20
-177.923
 11
-184.045
 21
-178.018
  0
LINE
  8
0
 10
-184.045
 20
-178.018
 11
-183.83
 21
-178.137
  0
LINE
  8
0
 10
-183.83
 20
-178.137
 11
-183.628
 21
-178.28
  0
LINE
  8
0
 10
-183.628
 20
-178.28
 11
-183.444
 21
-178.444
  0
LINE
  8
0
 10
-183.444
 20
-178.444
 11
-183.28
 21
-178.628
  0
LINE
  8
0
 10
-183.28
 20
-178.628
 11
-183.137
 21
-178.83
  0
LINE
  8
0
 10
-183.137
 20
-178.83
 11
-183.018
 21
-179.045
  0
LINE
  8
0
 10
-183.018
 20
-179.045
 11
-182.923
 21
-179.273
  0
LINE
  8
0
 10
-182.923
 20
-179.273
 11
-182.855
 21
-179.51
  0
LINE
  8
0
 10
-182.855
 20
-179.51
 11
-182.814
 21
-179.754
  0
LINE
  8
0
 10
-182.814
 20
-179.754
 11
-182.8
 21
-180
  0
LINE
  8
0
 10
-182.8
 20
-180
 11
-182.814
 21
-180.246
  0
LINE
  8
0
 10
-182.814
 20
-180.246
 11
-182.855
 21
-180.49
  0
LINE
  8
0
 10
-182.855
 20
-180.49
 11
-182.923
 21
-180.727
  0
LINE
  8
0
 10
-182.923
 20
-180.727
 11
-183.018
 21
-180.955
  0
LINE
  8
0
 10
-183.018
 20
-180.955
 11
-183.137
 21
-181.17
  0
LINE
  8
0
 10
-183.137
 20
-181.17
 11
-183.28
 21
-181.372
  0
LINE
  8
0
 10
-183.28
 20
-181.372
 11
-183.444
 21
-181.556
  0
LINE
  8
0
 10
-183.444
 20
-181.556
 11
-183.628
 21
-181.72
  0
LINE
  8
0
 10
-183.628
 20
-181.72
 11
-183.83
 21
-181.863
  0
LINE
  8
0
 10
-183.83
 20
-181.863
 11
-184.045
 21
-181.982
  0
LINE
  8
0
 10
-184.045
 20
-181.982
 11
-184.273
 21
-182.077
  0
LINE
  8
0
 10
-184.273
 20
-182.077
 11
-184.51
 21
-182.145
  0
LINE
  8
0
 10
-184.51
 20
-182.145
 11
-184.754
 21
-182.186
  0
LINE
  8
0
 10
-184.754
 20
-182.186
 11
-185
 21
-182.2
  0
LINE
  8
0
 10
-185
 20
-182.2
 11
-185.246
 21
-182.186
  0
LINE
  8
0
 10
184.754
 20
-182.186
 11
184.51
 21
-182.145
  0
LINE
  8
0
 10
184.51
 20
-182.145
 11
184.273
 21
-182.077
  0
LINE
  8
0
 10
184.273
 20
-182.077
 11
184.045
 21
-181.982
  0
LINE
  8
0
 10
184.045
 20
-181.982
 11
183.83
 21
-181.863
  0
LINE
  8
0
 10
183.83
 20
-181.863
 11
183.628
 21
-181.72
  0
LINE
  8
0
 10
183.628
 20
-181.72
 11
183.444
 21
-181.556
  0
LINE
  8
0
 10
183.444
 20
-181.556
 11
183.28
 21
-181.372
  0
LINE
  8
0
 10
183.28
 20
-181.372
 11
183.137
 21
-181.17
  0
LINE
  8
0
 10
183.137
 20
-181.17
 11
183.018
 21
-180.955
  0
LINE
  8
0
 10
183.018
 20
-180.955
 11
182.923
 21
-180.727
  0
LINE
  8
0
 10
182.923
 20
-180.727
 11
182.855
 21
-180.49
  0
LINE
  8
0
 10
182.855
 20
-180.49
 11
182.814
 21
-180.246
  0
LINE
  8
0
 10
182.814
 20
-180.246
 11
182.8
 21
-180
  0
LINE
  8
0
 10
182.8
 20
-180
 11
182.814
 21
-179.754
  0
LINE
  8
0
 10
182.814
 20
-179.754
 11
182.855
 21
-179.51
  0
LINE
  8
0
 10
182.855
 20
-179.51
 11
182.923
 21
-179.273
  0
LINE
  8
0
 10
182.923
 20
-179.273
 11
183.018
 21
-179.045
  0
LINE
  8
0
 10
183.018
 20
-179.045
 11
183.137
 21
-178.83
  0
LINE
  8
0
 10
183.137
 20
-178.83
 11
183.28
 21
-178.628
  0
LINE
  8
0
 10
183.28
 20
-178.628
 11
183.444
 21
-178.444
  0
LINE
  8
0
 10
183.444
 20
-178.444
 11
183.628
 21
-178.28
  0
LINE
  8
0
 10
183.628
 20
-178.28
 11
183.83
 21
-178.137
  0
LINE
  8
0
 10
183.83
 20
-178.137
 11
184.045
 21
-178.018
  0
LINE
  8
0
 10
184.045
 20
-178.018
 11
184.273
 21
-177.923
  0
LINE
  8
0
 10
184.273
 20
-177.923
 11
184.51
 21
-177.855
  0
LINE
  8
0
 10
184.51
 20
-177.855
 11
184.754
 21
-177.814
  0
LINE
  8
0
 10
184.754
 20
-177.814
 11
185
 21
-177.8
  0
LINE
  8
0
 10
185
 20
-177.8
 11
185.246
 21
-177.814
  0
LINE
  8
0
 10
185.246
 20
-177.814
 11
185.49
 21
-177.855
  0
LINE
  8
0
 10
185.49
 20
-177.855
 11
185.727
 21
-177.923
  0
LINE
  8
0
 10
185.727
 20
-177.923
 11
185.955
 21
-178.018
  0
LINE
  8
0
 10
185.955
 20
-178.018
 11
186.17
 21
-178.137
  0
LINE
  8
0
 10
186.17
 20
-178.137
 11
186.372
 21
-178.28
  0
LINE
  8
0
 10
186.372
 20
-178.28
 11
186.556
 21
-178.444
  0
LINE
  8
0
 10
186.556
 20
-178.444
 11
186.72
 21
-178.628
  0
LINE
  8
0
 10
186.72
 20
-178.628
 11
186.863
 21
-178.83
  0
LINE
  8
0
 10
186.863
 20
-178.83
 11
186.982
 21
-179.045
  0
LINE
  8
0
 10
186.982
 20
-179.045
 11
187.077
 21
-179.273
  0
LINE
  8
0
 10
187.077
 20
-179.273
 11
187.145
 21
-179.51
  0
LINE
  8
0
 10
187.145
 20
-179.51
 11
187.186
 21
-179.754
  0
LINE
  8
0
 10
187.186
 20
-179.754
 11
187.2
 21
-180
  0
LINE
  8
0
 10
187.2
 20
-180
 11
187.186
 21
-180.246
  0
LINE
  8
0
 10
187.186
 20
-180.246
 11
187.145
 21
-180.49
  0
LINE
  8
0
 10
187.145
 20
-180.49
 11
187.077
 21
-180.727
  0
LINE
  8
0
 10
187.077
 20
-180.727
 11
186.982
 21
-180.955
  0
LINE
  8
0
 10
186.982
 20
-180.955
 11
186.863
 21
-181.17
  0
LINE
  8
0
 10
186.863
 20
-181.17
 11
186.72
 21
-181.372
  0
LINE
  8
0
 10
186.72
 20
-181.372
 11
186.556
 21
-181.556
  0
LINE
  8
0
 10
186.556
 20
-181.556
 11
186.372
 21
-181.72
  0
LINE
  8
0
 10
186.372
 20
-181.72
 11
186.17
 21
-181.863
  0
LINE
  8
0
 10
186.17
 20
-181.863
 11
185.955
 21
-181.982
  0
LINE
  8
0
 10
185.955
 20
-181.982
 11
185.727
 21
-182.077
  0
LINE
  8
0
 10
185.727
 20
-182.077
 11
185.49
 21
-182.145
  0
LINE
  8
0
 10
185.49
 20
-182.145
 11
185.246
 21
-182.186
  0
LINE
  8
0
 10
185.246
 20
-182.186
 11
185
 21
-182.2
  0
LINE
  8
0
 10
185
 20
-182.2
 11
184.754
 21
-182.186
  0
LINE
  8
0
 10
184.739
 20
-192.486
 11
184.48
 21
-192.445
  0
LINE
  8
0
 10
184.48
 20
-192.445
 11
184.227
 21
-192.378
  0
LINE
  8
0
 10
184.227
 20
-192.378
 11
183.983
 21
-192.284
  0
LINE
  8
0
 10
183.983
 20
-192.284
 11
183.75
 21
-192.165
  0
LINE
  8
0
 10
183.75
 20
-192.165
 11
183.531
 21
-192.023
  0
LINE
  8
0
 10
183.531
 20
-192.023
 11
183.327
 21
-191.858
  0
LINE
  8
0
 10
183.327
 20
-191.858
 11
183.142
 21
-191.673
  0
LINE
  8
0
 10
183.142
 20
-191.673
 11
182.977
 21
-191.469
  0
LINE
  8
0
 10
182.977
 20
-191.469
 11
182.835
 21
-191.25
  0
LINE
  8
0
 10
182.835
 20
-191.25
 11
182.716
 21
-191.017
  0
LINE
  8
0
 10
182.716
 20
-191.017
 11
182.622
 21
-190.773
  0
LINE
  8
0
 10
182.622
 20
-190.773
 11
182.555
 21
-190.52
  0
LINE
  8
0
 10
182.555
 20
-190.52
 11
182.514
 21
-190.261
  0
LINE
  8
0
 10
182.514
 20
-190.261
 11
182.5
 21
-190
  0
LINE
  8
0
 10
182.5
 20
-190
 11
182.514
 21
-189.739
  0
LINE
  8
0
 10
182.514
 20
-189.739
 11
182.555
 21
-189.48
  0
LINE
  8
0
 10
182.555
 20
-189.48
 11
182.622
 21
-189.227
  0
LINE
  8
0
 10
182.622
 20
-189.227
 11
182.716
 21
-188.983
  0
LINE
  8
0
 10
182.716
 20
-188.983
 11
182.835
 21
-188.75
  0
LINE
  8
0
 10
182.835
 20
-188.75
 11
182.977
 21
-188.531
  0
LINE
  8
0
 10
182.977
 20
-188.531
 11
183.142
 21
-188.327
  0
LINE
  8
0
 10
183.142
 20
-188.327
 11
183.327
 21
-188.142
  0
LINE
  8
0
 10
183.327
 20
-188.142
 11
183.531
 21
-187.977
  0
LINE
  8
0
 10
183.531
 20
-187.977
 11
183.75
 21
-187.835
  0
LINE
  8
0
 10
183.75
 20
-187.835
 11
183.983
 21
-187.716
  0
LINE
  8
0
 10
183.983
 20
-187.716
 11
184.227
 21
-187.622
  0
LINE
  8
0
 10
184.227
 20
-187.622
 11
184.48
 21
-187.555
  0
LINE
  8
0
 10
184.48
 20
-187.555
 11
184.739
 21
-187.514
  0
LINE
  8
0
 10
184.739
 20
-187.514
 11
185
 21
-187.5
  0
LINE
  8
0
 10
185
 20
-187.5
 11
185.261
 21
-187.514
  0
LINE
  8
0
 10
185.261
 20
-187.514
 11
185.52
 21
-187.555
  0
LINE
  8
0
 10
185.52
 20
-187.555
 11
185.773
 21
-187.622
  0
LINE
  8
0
 10
185.773
 20
-187.622
 11
186.017
 21
-187.716
  0
LINE
  8
0
 10
186.017
 20
-187.716
 11
186.25
 21
-187.835
  0
LINE
  8
0
 10
186.25
 20
-187.835
 11
186.469
 21
-187.977
  0
LINE
  8
0
 10
186.469
 20
-187.977
 11
186.673
 21
-188.142
  0
LINE
  8
0
 10
186.673
 20
-188.142
 11
186.858
 21
-188.327
  0
LINE
  8
0
 10
186.858
 20
-188.327
 11
187.023
 21
-188.531
  0
LINE
  8
0
 10
187.023
 20
-188.531
 11
187.165
 21
-188.75
  0
LINE
  8
0
 10
187.165
 20
-188.75
 11
187.284
 21
-188.983
  0
LINE
  8
0
 10
187.284
 20
-188.983
 11
187.378
 21
-189.227
  0
LINE
  8
0
 10
187.378
 20
-189.227
 11
187.445
 21
-189.48
  0
LINE
  8
0
 10
187.445
 20
-189.48
 11
187.486
 21
-189.739
  0
LINE
  8
0
 10
187.486
 20
-189.739
 11
187.5
 21
-190
  0
LINE
  8
0
 10
187.5
 20
-190
 11
187.486
 21
-190.261
  0
LINE
  8
0
 10
187.486
 20
-190.261
 11
187.445
 21
-190.52
  0
LINE
  8
0
 10
187.445
 20
-190.52
 11
187.378
 21
-190.773
  0
LINE
  8
0
 10
187.378
 20
-190.773
 11
187.284
 21
-191.017
  0
LINE
  8
0
 10
187.284
 20
-191.017
 11
187.165
 21
-191.25
  0
LINE
  8
0
 10
187.165
 20
-191.25
 11
187.023
 21
-191.469
  0
LINE
  8
0
 10
187.023
 20
-191.469
 11
186.858
 21
-191.673
  0
LINE
  8
0
 10
186.858
 20
-191.673
 11
186.673
 21
-191.858
  0
LINE
  8
0
 10
186.673
 20
-191.858
 11
186.469
 21
-192.023
  0
LINE
  8
0
 10
186.469
 20
-192.023
 11
186.25
 21
-192.165
  0
LINE
  8
0
 10
186.25
 20
-192.165
 11
186.017
 21
-192.284
  0
LINE
  8
0
 10
186.017
 20
-192.284
 11
185.773
 21
-192.378
  0
LINE
  8
0
 10
185.773
 20
-192.378
 11
185.52
 21
-192.445
  0
LINE
  8
0
 10
185.52
 20
-192.445
 11
185.261
 21
-192.486
  0
LINE
  8
0
 10
185.261
 20
-192.486
 11
185
 21
-192.5
  0
LINE
  8
0
 10
185
 20
-192.5
 11
184.739
 21
-192.486
  0
LINE
  8
0
 10
-185.261
 20
-192.486
 11
-185.52
 21
-192.445
  0
LINE
  8
0
 10
-185.52
 20
-192.445
 11
-185.773
 21
-192.378
  0
LINE
  8
0
 10
-185.773
 20
-192.378
 11
-186.017
 21
-192.284
  0
LINE
  8
0
 10
-186.017
 20
-192.284
 11
-186.25
 21
-192.165
  0
LINE
  8
0
 10
-186.25
 20
-192.165
 11
-186.469
 21
-192.023
  0
LINE
  8
0
 10
-186.469
 20
-192.023
 11
-186.673
 21
-191.858
  0
LINE
  8
0
 10
-186.673
 20
-191.858
 11
-186.858
 21
-191.673
  0
LINE
  8
0
 10
-186.858
 20
-191.673
 11
-187.023
 21
-191.469
  0
LINE
  8
0
 10
-187.023
 20
-191.469
 11
-187.165
 21
-191.25
  0
LINE
  8
0
 10
-187.165
 20
-191.25
 11
-187.284
 21
-191.017
  0
LINE
  8
0
 10
-187.284
 20
-191.017
 11
-187.378
 21
-190.773
  0
LINE
  8
0
 10
-187.378
 20
-190.773
 11
-187.445
 21
-190.52
  0
LINE
  8
0
 10
-187.445
 20
-190.52
 11
-187.486
 21
-190.261
  0
LINE
  8
0
 10
-187.486
 20
-190.261
 11
-187.5
 21
-190
  0
LINE
  8
0
 10
-187.5
 20
-190
 11
-187.486
 21
-189.739
  0
LINE
  8
0
 10
-187.486
 20
-189.739
 11
-187.445
 21
-189.48
  0
LINE
  8
0
 10
-187.445
 20
-189.48
 11
-187.378
 21
-189.227
  0
LINE
  8
0
 10
-187.378
 20
-189.227
 11
-187.284
 21
-188.983
  0
LINE
  8
0
 10
-187.284
 20
-188.983
 11
-187.165
 21
-188.75
  0
LINE
  8
0
 10
-187.165
 20
-188.75
 11
-187.023
 21
-188.531
  0
LINE
  8
0
 10
-187.023
 20
-188.531
 11
-186.858
 21
-188.327
  0
LINE
  8
0
 10
-186.858
 20
-188.327
 11
-186.673
 21
-188.142
  0
LINE
  8
0
 10
-186.673
 20
-188.142
 11
-186.469
 21
-187.977
  0
LINE
  8
0
 10
-186.469
 20
-187.977
 11
-186.25
 21
-187.835
  0
LINE
  8
0
 10
-186.25
 20
-187.835
 11
-186.017
 21
-187.716
  0
LINE
  8
0
 10
-186.017
 20
-187.716
 11
-185.773
 21
-187.622
  0
LINE
  8
0
 10
-185.773
 20
-187.622
 11
-185.52
 21
-187.555
  0
LINE
  8
0
 10
-185.52
 20
-187.555
 11
-185.261
 21
-187.514
  0
LINE
  8
0
 10
-185.261
 20
-187.514
 11
-185
 21
-187.5
  0
LINE
  8
0
 10
-185
 20
-187.5
 11
-184.739
 21
-187.514
  0
LINE
  8
0
 10
-184.739
 20
-187.514
 11
-184.48
 21
-187.555
  0
LINE
  8
0
 10
-184.48
 20
-187.555
 11
-184.227
 21
-187.622
  0
LINE
  8
0
 10
-184.227
 20
-187.622
 11
-183.983
 21
-187.716
  0
LINE
  8
0
 10
-183.983
 20
-187.716
 11
-183.75
 21
-187.835
  0
LINE
  8
0
 10
-183.75
 20
-187.835
 11
-183.531
 21
-187.977
  0
LINE
  8
0
 10
-183.531
 20
-187.977
 11
-183.327
 21
-188.142
  0
LINE
  8
0
 10
-183.327
 20
-188.142
 11
-183.142
 21
-188.327
  0
LINE
  8
0
 10
-183.142
 20
-188.327
 11
-182.977
 21
-188.531
  0
LINE
  8
0
 10
-182.977
 20
-188.531
 11
-182.835
 21
-188.75
  0
LINE
  8
0
 10
-182.835
 20
-188.75
 11
-182.716
 21
-188.983
  0
LINE
  8
0
 10
-182.716
 20
-188.983
 11
-182.622
 21
-189.227
  0
LINE
  8
0
 10
-182.622
 20
-189.227
 11
-182.555
 21
-189.48
  0
LINE
  8
0
 10
-182.555
 20
-189.48
 11
-182.514
 21
-189.739
  0
LINE
  8
0
 10
-182.514
 20
-189.739
 11
-182.5
 21
-190
  0
LINE
  8
0
 10
-182.5
 20
-190
 11
-182.514
 21
-190.261
  0
LINE
  8
0
 10
-182.514
 20
-190.261
 11
-182.555
 21
-190.52
  0
LINE
  8
0
 10
-182.555
 20
-190.52
 11
-182.622
 21
-190.773
  0
LINE
  8
0
 10
-182.622
 20
-190.773
 11
-182.716
 21
-191.017
  0
LINE
  8
0
 10
-182.716
 20
-191.017
 11
-182.835
 21
-191.25
  0
LINE
  8
0
 10
-182.835
 20
-191.25
 11
-182.977
 21
-191.469
  0
LINE
  8
0
 10
-182.977
 20
-191.469
 11
-183.142
 21
-191.673
  0
LINE
  8
0
 10
-183.142
 20
-191.673
 11
-183.327
 21
-191.858
  0
LINE
  8
0
 10
-183.327
 20
-191.858
 11
-183.531
 21
-192.023
  0
LINE
  8
0
 10
-183.531
 20
-192.023
 11
-183.75
 21
-192.165
  0
LINE
  8
0
 10
-183.75
 20
-192.165
 11
-183.983
 21
-192.284
  0
LINE
  8
0
 10
-183.983
 20
-192.284
 11
-184.227
 21
-192.378
  0
LINE
  8
0
 10
-184.227
 20
-192.378
 11
-184.48
 21
-192.445
  0
LINE
  8
0
 10
-184.48
 20
-192.445
 11
-184.739
 21
-192.486
  0
LINE
  8
0
 10
-184.739
 20
-192.486
 11
-185
 21
-192.5
  0
LINE
  8
0
 10
-185
 20
-192.5
 11
-185.261
 21
-192.486
  0
LINE
  8
0
 10
-125.246
 20
-192.186
 11
-125.49
 21
-192.145
  0
LINE
  8
0
 10
-125.49
 20
-192.145
 11
-125.727
 21
-192.077
  0
LINE
  8
0
 10
-125.727
 20
-192.077
 11
-125.955
 21
-191.982
  0
LINE
  8
0
 10
-125.955
 20
-191.982
 11
-126.17
 21
-191.863
  0
LINE
  8
0
 10
-126.17
 20
-191.863
 11
-126.372
 21
-191.72
  0
LINE
  8
0
 10
-126.372
 20
-191.72
 11
-126.556
 21
-191.556
  0
LINE
  8
0
 10
-126.556
 20
-191.556
 11
-126.72
 21
-191.372
  0
LINE
  8
0
 10
-126.72
 20
-191.372
 11
-126.863
 21
-191.17
  0
LINE
  8
0
 10
-126.863
 20
-191.17
 11
-126.982
 21
-190.955
  0
LINE
  8
0
 10
-126.982
 20
-190.955
 11
-127.077
 21
-190.727
  0
LINE
  8
0
 10
-127.077
 20
-190.727
 11
-127.145
 21
-190.49
  0
LINE
  8
0
 10
-127.145
 20
-190.49
 11
-127.186
 21
-190.246
  0
LINE
  8
0
 10
-127.186
 20
-190.246
 11
-127.2
 21
-190
  0
LINE
  8
0
 10
-127.2
 20
-190
 11
-127.186
 21
-189.754
  0
LINE
  8
0
 10
-127.186
 20
-189.754
 11
-127.145
 21
-189.51
  0
LINE
  8
0
 10
-127.145
 20
-189.51
 11
-127.077
 21
-189.273
  0
LINE
  8
0
 10
-127.077
 20
-189.273
 11
-126.982
 21
-189.045
  0
LINE
  8
0
 10
-126.982
 20
-189.045
 11
-126.863
 21
-188.83
  0
LINE
  8
0
 10
-126.863
 20
-188.83
 11
-126.72
 21
-188.628
  0
LINE
  8
0
 10
-126.72
 20
-188.628
 11
-126.556
 21
-188.444
  0
LINE
  8
0
 10
-126.556
 20
-188.444
 11
-126.372
 21
-188.28
  0
LINE
  8
0
 10
-126.372
 20
-188.28
 11
-126.17
 21
-188.137
  0
LINE
  8
0
 10
-126.17
 20
-188.137
 11
-125.955
 21
-188.018
  0
LINE
  8
0
 10
-125.955
 20
-188.018
 11
-125.727
 21
-187.923
  0
LINE
  8
0
 10
-125.727
 20
-187.923
 11
-125.49
 21
-187.855
  0
LINE
  8
0
 10
-125.49
 20
-187.855
 11
-125.246
 21
-187.814
  0
LINE
  8
0
 10
-125.246
 20
-187.814
 11
-125
 21
-187.8
  0
LINE
  8
0
 10
-125
 20
-187.8
 11
-124.754
 21
-187.814
  0
LINE
  8
0
 10
-124.754
 20
-187.814
 11
-124.51
 21
-187.855
  0
LINE
  8
0
 10
-124.51
 20
-187.855
 11
-124.273
 21
-187.923
  0
LINE
  8
0
 10
-124.273
 20
-187.923
 11
-124.045
 21
-188.018
  0
LINE
  8
0
 10
-124.045
 20
-188.018
 11
-123.83
 21
-188.137
  0
LINE
  8
0
 10
-123.83
 20
-188.137
 11
-123.628
 21
-188.28
  0
LINE
  8
0
 10
-123.628
 20
-188.28
 11
-123.444
 21
-188.444
  0
LINE
  8
0
 10
-123.444
 20
-188.444
 11
-123.28
 21
-188.628
  0
LINE
  8
0
 10
-123.28
 20
-188.628
 11
-123.137
 21
-188.83
  0
LINE
  8
0
 10
-123.137
 20
-188.83
 11
-123.018
 21
-189.045
  0
LINE
  8
0
 10
-123.018
 20
-189.045
 11
-122.923
 21
-189.273
  0
LINE
  8
0
 10
-122.923
 20
-189.273
 11
-122.855
 21
-189.51
  0
LINE
  8
0
 10
-122.855
 20
-189.51
 11
-122.814
 21
-189.754
  0
LINE
  8
0
 10
-122.814
 20
-189.754
 11
-122.8
 21
-190
  0
LINE
  8
0
 10
-122.8
 20
-190
 11
-122.814
 21
-190.246
  0
LINE
  8
0
 10
-122.814
 20
-190.246
 11
-122.855
 21
-190.49
  0
LINE
  8
0
 10
-122.855
 20
-190.49
 11
-122.923
 21
-190.727
  0
LINE
  8
0
 10
-122.923
 20
-190.727
 11
-123.018
 21
-190.955
  0
LINE
  8
0
 10
-123.018
 20
-190.955
 11
-123.137
 21
-191.17
  0
LINE
  8
0
 10
-123.137
 20
-191.17
 11
-123.28
 21
-191.372
  0
LINE
  8
0
 10
-123.28
 20
-191.372
 11
-123.444
 21
-191.556
  0
LINE
  8
0
 10
-123.444
 20
-191.556
 11
-123.628
 21
-191.72
  0
LINE
  8
0
 10
-123.628
 20
-191.72
 11
-123.83
 21
-191.863
  0
LINE
  8
0
 10
-123.83
 20
-191.863
 11
-124.045
 21
-191.982
  0
LINE
  8
0
 10
-124.045
 20
-191.982
 11
-124.273
 21
-192.077
  0
LINE
  8
0
 10
-124.273
 20
-192.077
 11
-124.51
 21
-192.145
  0
LINE
  8
0
 10
-124.51
 20
-192.145
 11
-124.754
 21
-192.186
  0
LINE
  8
0
 10
-124.754
 20
-192.186
 11
-125
 21
-192.2
  0
LINE
  8
0
 10
-125
 20
-192.2
 11
-125.246
 21
-192.186
  0
LINE
  8
0
 10
-0.246307
 20
-192.186
 11
-0.489532
 21
-192.145
  0
LINE
  8
0
 10
-0.489532
 20
-192.145
 11
-0.726608
 21
-192.077
  0
LINE
  8
0
 10
-0.726608
 20
-192.077
 11
-0.954544
 21
-191.982
  0
LINE
  8
0
 10
-0.954544
 20
-191.982
 11
-1.17046
 21
-191.863
  0
LINE
  8
0
 10
-1.17046
 20
-191.863
 11
-1.37167
 21
-191.72
  0
LINE
  8
0
 10
-1.37167
 20
-191.72
 11
-1.55563
 21
-191.556
  0
LINE
  8
0
 10
-1.55563
 20
-191.556
 11
-1.72002
 21
-191.372
  0
LINE
  8
0
 10
-1.72002
 20
-191.372
 11
-1.86279
 21
-191.17
  0
LINE
  8
0
 10
-1.86279
 20
-191.17
 11
-1.98212
 21
-190.955
  0
LINE
  8
0
 10
-1.98212
 20
-190.955
 11
-2.07654
 21
-190.727
  0
LINE
  8
0
 10
-2.07654
 20
-190.727
 11
-2.14484
 21
-190.49
  0
LINE
  8
0
 10
-2.14484
 20
-190.49
 11
-2.18616
 21
-190.246
  0
LINE
  8
0
 10
-2.18616
 20
-190.246
 11
-2.2
 21
-190
  0
LINE
  8
0
 10
-2.2
 20
-190
 11
-2.18616
 21
-189.754
  0
LINE
  8
0
 10
-2.18616
 20
-189.754
 11
-2.14484
 21
-189.51
  0
LINE
  8
0
 10
-2.14484
 20
-189.51
 11
-2.07654
 21
-189.273
  0
LINE
  8
0
 10
-2.07654
 20
-189.273
 11
-1.98212
 21
-189.045
  0
LINE
  8
0
 10
-1.98212
 20
-189.045
 11
-1.86279
 21
-188.83
  0
LINE
  8
0
 10
-1.86279
 20
-188.83
 11
-1.72002
 21
-188.628
  0
LINE
  8
0
 10
-1.72002
 20
-188.628
 11
-1.55563
 21
-188.444
  0
LINE
  8
0
 10
-1.55563
 20
-188.444
 11
-1.37167
 21
-188.28
  0
LINE
  8
0
 10
-1.37167
 20
-188.28
 11
-1.17046
 21
-188.137
  0
LINE
  8
0
 10
-1.17046
 20
-188.137
 11
-0.954544
 21
-188.018
  0
LINE
  8
0
 10
-0.954544
 20
-188.018
 11
-0.726608
 21
-187.923
  0
LINE
  8
0
 10
-0.726608
 20
-187.923
 11
-0.489532
 21
-187.855
  0
LINE
  8
0
 10
-0.489532
 20
-187.855
 11
-0.246307
 21
-187.814
  0
LINE
  8
0
 10
-0.246307
 20
-187.814
 11
0
 21
-187.8
  0
LINE
  8
0
 10
0
 20
-187.8
 11
0.246307
 21
-187.814
  0
LINE
  8
0
 10
0.246307
 20
-187.814
 11
0.489532
 21
-187.855
  0
LINE
  8
0
 10
0.489532
 20
-187.855
 11
0.726608
 21
-187.923
  0
LINE
  8
0
 10
0.726608
 20
-187.923
 11
0.954544
 21
-188.018
  0
LINE
  8
0
 10
0.954544
 20
-188.018
 11
1.17046
 21
-188.137
  0
LINE
  8
0
 10
1.17046
 20
-188.137
 11
1.37167
 21
-188.28
  0
LINE
  8
0
 10
1.37167
 20
-188.28
 11
1.55563
 21
-188.444
  0
LINE
  8
0
 10
1.55563
 20
-188.444
 11
1.72002
 21
-188.628
  0
LINE
  8
0
 10
1.72002
 20
-188.628
 11
1.86279
 21
-188.83
  0
LINE
  8
0
 10
1.86279
 20
-188.83
 11
1.98212
 21
-189.045
  0
LINE
  8
0
 10
1.98212
 20
-189.045
 11
2.07654
 21
-189.273
  0
LINE
  8
0
 10
2.07654
 20
-189.273
 11
2.14484
 21
-189.51
  0
LINE
  8
0
 10
2.14484
 20
-189.51
 11
2.18616
 21
-189.754
  0
LINE
  8
0
 10
2.18616
 20
-189.754
 11
2.2
 21
-190
  0
LINE
  8
0
 10
2.2
 20
-190
 11
2.18616
 21
-190.246
  0
LINE
  8
0
 10
2.18616
 20
-190.246
 11
2.14484
 21
-190.49
  0
LINE
  8
0
 10
2.14484
 20
-190.49
 11
2.07654
 21
-190.727
  0
LINE
  8
0
 10
2.07654
 20
-190.727
 11
1.98212
 21
-190.955
  0
LINE
  8
0
 10
1.98212
 20
-190.955
 11
1.86279
 21
-191.17
  0
LINE
  8
0
 10
1.86279
 20
-191.17
 11
1.72002
 21
-191.372
  0
LINE
  8
0
 10
1.72002
 20
-191.372
 11
1.55563
 21
-191.556
  0
LINE
  8
0
 10
1.55563
 20
-191.556
 11
1.37167
 21
-191.72
  0
LINE
  8
0
 10
1.37167
 20
-191.72
 11
1.17046
 21
-191.863
  0
LINE
  8
0
 10
1.17046
 20
-191.863
 11
0.954544
 21
-191.982
  0
LINE
  8
0
 10
0.954544
 20
-191.982
 11
0.726608
 21
-192.077
  0
LINE
  8
0
 10
0.726608
 20
-192.077
 11
0.489532
 21
-192.145
  0
LINE
  8
0
 10
0.489532
 20
-192.145
 11
0.246307
 21
-192.186
  0
LINE
  8
0
 10
0.246307
 20
-192.186
 11
0
 21
-192.2
  0
LINE
  8
0
 10
0
 20
-192.2
 11
-0.246307
 21
-192.186
  0
LINE
  8
0
 10
124.754
 20
-192.186
 11
124.51
 21
-192.145
  0
LINE
  8
0
 10
124.51
 20
-192.145
 11
124.273
 21
-192.077
  0
LINE
  8
0
 10
124.273
 20
-192.077
 11
124.045
 21
-191.982
  0
LINE
  8
0
 10
124.045
 20
-191.982
 11
123.83
 21
-191.863
  0
LINE
  8
0
 10
123.83
 20
-191.863
 11
123.628
 21
-191.72
  0
LINE
  8
0
 10
123.628
 20
-191.72
 11
123.444
 21
-191.556
  0
LINE
  8
0
 10
123.444
 20
-191.556
 11
123.28
 21
-191.372
  0
LINE
  8
0
 10
123.28
 20
-191.372
 11
123.137
 21
-191.17
  0
LINE
  8
0
 10
123.137
 20
-191.17
 11
123.018
 21
-190.955
  0
LINE
  8
0
 10
123.018
 20
-190.955
 11
122.923
 21
-190.727
  0
LINE
  8
0
 10
122.923
 20
-190.727
 11
122.855
 21
-190.49
  0
LINE
  8
0
 10
122.855
 20
-190.49
 11
122.814
 21
-190.246
  0
LINE
  8
0
 10
122.814
 20
-190.246
 11
122.8
 21
-190
  0
LINE
  8
0
 10
122.8
 20
-190
 11
122.814
 21
-189.754
  0
LINE
  8
0
 10
122.814
 20
-189.754
 11
122.855
 21
-189.51
  0
LINE
  8
0
 10
122.855
 20
-189.51
 11
122.923
 21
-189.273
  0
LINE
  8
0
 10
122.923
 20
-189.273
 11
123.018
 21
-189.045
  0
LINE
  8
0
 10
123.018
 20
-189.045
 11
123.137
 21
-188.83
  0
LINE
  8
0
 10
123.137
 20
-188.83
 11
123.28
 21
-188.628
  0
LINE
  8
0
 10
123.28
 20
-188.628
 11
123.444
 21
-188.444
  0
LINE
  8
0
 10
123.444
 20
-188.444
 11
123.628
 21
-188.28
  0
LINE
  8
0
 10
123.628
 20
-188.28
 11
123.83
 21
-188.137
  0
LINE
  8
0
 10
123.83
 20
-188.137
 11
124.045
 21
-188.018
  0
LINE
  8
0
 10
124.045
 20
-188.018
 11
124.273
 21
-187.923
  0
LINE
  8
0
 10
124.273
 20
-187.923
 11
124.51
 21
-187.855
  0
LINE
  8
0
 10
124.51
 20
-187.855
 11
124.754
 21
-187.814
  0
LINE
  8
0
 10
124.754
 20
-187.814
 11
125
 21
-187.8
  0
LINE
  8
0
 10
125
 20
-187.8
 11
125.246
 21
-187.814
  0
LINE
  8
0
 10
125.246
 20
-187.814
 11
125.49
 21
-187.855
  0
LINE
  8
0
 10
125.49
 20
-187.855
 11
125.727
 21
-187.923
  0
LINE
  8
0
 10
125.727
 20
-187.923
 11
125.955
 21
-188.018
  0
LINE
  8
0
 10
125.955
 20
-188.018
 11
126.17
 21
-188.137
  0
LINE
  8
0
 10
126.17
 20
-188.137
 11
126.372
 21
-188.28
  0
LINE
  8
0
 10
126.372
 20
-188.28
 11
126.556
 21
-188.444
  0
LINE
  8
0
 10
126.556
 20
-188.444
 11
126.72
 21
-188.628
  0
LINE
  8
0
 10
126.72
 20
-188.628
 11
126.863
 21
-188.83
  0
LINE
  8
0
 10
126.863
 20
-188.83
 11
126.982
 21
-189.045
  0
LINE
  8
0
 10
126.982
 20
-189.045
 11
127.077
 21
-189.273
  0
LINE
  8
0
 10
127.077
 20
-189.273
 11
127.145
 21
-189.51
  0
LINE
  8
0
 10
127.145
 20
-189.51
 11
127.186
 21
-189.754
  0
LINE
  8
0
 10
127.186
 20
-189.754
 11
127.2
 21
-190
  0
LINE
  8
0
 10
127.2
 20
-190
 11
127.186
 21
-190.246
  0
LINE
  8
0
 10
127.186
 20
-190.246
 11
127.145
 21
-190.49
  0
LINE
  8
0
 10
127.145
 20
-190.49
 11
127.077
 21
-190.727
  0
LINE
  8
0
 10
127.077
 20
-190.727
 11
126.982
 21
-190.955
  0
LINE
  8
0
 10
126.982
 20
-190.955
 11
126.863
 21
-191.17
  0
LINE
  8
0
 10
126.863
 20
-191.17
 11
126.72
 21
-191.372
  0
LINE
  8
0
 10
126.72
 20
-191.372
 11
126.556
 21
-191.556
  0
LINE
  8
0
 10
126.556
 20
-191.556
 11
126.372
 21
-191.72
  0
LINE
  8
0
 10
126.372
 20
-191.72
 11
126.17
 21
-191.863
  0
LINE
  8
0
 10
126.17
 20
-191.863
 11
125.955
 21
-191.982
  0
LINE
  8
0
 10
125.955
 20
-191.982
 11
125.727
 21
-192.077
  0
LINE
  8
0
 10
125.727
 20
-192.077
 11
125.49
 21
-192.145
  0
LINE
  8
0
 10
125.49
 20
-192.145
 11
125.246
 21
-192.186
  0
LINE
  8
0
 10
125.246
 20
-192.186
 11
125
 21
-192.2
  0
LINE
  8
0
 10
125
 20
-192.2
 11
124.754
 21
-192.186
  0
ENDSEC
  0
SECTION
  2
OBJECTS
  0
DICTIONARY
  0
ENDSEC
  0
EOF
