  0
SECTION
  2
BLOCKS
  0
ENDSEC
  0
SECTION
  2
ENTITIES
  0
LINE
  8
0
 10
194.223
 20
-224.975
 11
194.434
 21
-224.901
  0
LINE
  8
0
 10
194.434
 20
-224.901
 11
194.623
 21
-224.782
  0
LINE
  8
0
 10
194.623
 20
-224.782
 11
194.782
 21
-224.623
  0
LINE
  8
0
 10
194.782
 20
-224.623
 11
194.901
 21
-224.434
  0
LINE
  8
0
 10
194.901
 20
-224.434
 11
194.975
 21
-224.223
  0
LINE
  8
0
 10
194.975
 20
-224.223
 11
195
 21
-224
  0
LINE
  8
0
 10
195
 20
-224
 11
195
 21
224
  0
LINE
  8
0
 10
195
 20
224
 11
194.975
 21
224.223
  0
LINE
  8
0
 10
194.975
 20
224.223
 11
194.901
 21
224.434
  0
LINE
  8
0
 10
194.901
 20
224.434
 11
194.782
 21
224.623
  0
LINE
  8
0
 10
194.782
 20
224.623
 11
194.623
 21
224.782
  0
LINE
  8
0
 10
194.623
 20
224.782
 11
194.434
 21
224.901
  0
LINE
  8
0
 10
194.434
 20
224.901
 11
194.223
 21
224.975
  0
LINE
  8
0
 10
194.223
 20
224.975
 11
194
 21
225
  0
LINE
  8
0
 10
194
 20
225
 11
-194
 21
225
  0
LINE
  8
0
 10
-194
 20
225
 11
-194.223
 21
224.975
  0
LINE
  8
0
 10
-194.223
 20
224.975
 11
-194.434
 21
224.901
  0
LINE
  8
0
 10
-194.434
 20
224.901
 11
-194.623
 21
224.782
  0
LINE
  8
0
 10
-194.623
 20
224.782
 11
-194.782
 21
224.623
  0
LINE
  8
0
 10
-194.782
 20
224.623
 11
-194.901
 21
224.434
  0
LINE
  8
0
 10
-194.901
 20
224.434
 11
-194.975
 21
224.223
  0
LINE
  8
0
 10
-194.975
 20
224.223
 11
-195
 21
224
  0
LINE
  8
0
 10
-195
 20
224
 11
-195
 21
-224
  0
LINE
  8
0
 10
-195
 20
-224
 11
-194.975
 21
-224.223
  0
LINE
  8
0
 10
-194.975
 20
-224.223
 11
-194.901
 21
-224.434
  0
LINE
  8
0
 10
-194.901
 20
-224.434
 11
-194.782
 21
-224.623
  0
LINE
  8
0
 10
-194.782
 20
-224.623
 11
-194.623
 21
-224.782
  0
LINE
  8
0
 10
-194.623
 20
-224.782
 11
-194.434
 21
-224.901
  0
LINE
  8
0
 10
-194.434
 20
-224.901
 11
-194.223
 21
-224.975
  0
LINE
  8
0
 10
-194.223
 20
-224.975
 11
-194
 21
-225
  0
LINE
  8
0
 10
-194
 20
-225
 11
194
 21
-225
  0
LINE
  8
0
 10
194
 20
-225
 11
194.223
 21
-224.975
  0
LINE
  8
0
 10
184.739
 20
212.514
 11
184.48
 21
212.555
  0
LINE
  8
0
 10
184.48
 20
212.555
 11
184.227
 21
212.622
  0
LINE
  8
0
 10
184.227
 20
212.622
 11
183.983
 21
212.716
  0
LINE
  8
0
 10
183.983
 20
212.716
 11
183.75
 21
212.835
  0
LINE
  8
0
 10
183.75
 20
212.835
 11
183.531
 21
212.977
  0
LINE
  8
0
 10
183.531
 20
212.977
 11
183.327
 21
213.142
  0
LINE
  8
0
 10
183.327
 20
213.142
 11
183.142
 21
213.327
  0
LINE
  8
0
 10
183.142
 20
213.327
 11
182.977
 21
213.531
  0
LINE
  8
0
 10
182.977
 20
213.531
 11
182.835
 21
213.75
  0
LINE
  8
0
 10
182.835
 20
213.75
 11
182.716
 21
213.983
  0
LINE
  8
0
 10
182.716
 20
213.983
 11
182.622
 21
214.227
  0
LINE
  8
0
 10
182.622
 20
214.227
 11
182.555
 21
214.48
  0
LINE
  8
0
 10
182.555
 20
214.48
 11
182.514
 21
214.739
  0
LINE
  8
0
 10
182.514
 20
214.739
 11
182.5
 21
215
  0
LINE
  8
0
 10
182.5
 20
215
 11
182.514
 21
215.261
  0
LINE
  8
0
 10
182.514
 20
215.261
 11
182.555
 21
215.52
  0
LINE
  8
0
 10
182.555
 20
215.52
 11
182.622
 21
215.773
  0
LINE
  8
0
 10
182.622
 20
215.773
 11
182.716
 21
216.017
  0
LINE
  8
0
 10
182.716
 20
216.017
 11
182.835
 21
216.25
  0
LINE
  8
0
 10
182.835
 20
216.25
 11
182.977
 21
216.469
  0
LINE
  8
0
 10
182.977
 20
216.469
 11
183.142
 21
216.673
  0
LINE
  8
0
 10
183.142
 20
216.673
 11
183.327
 21
216.858
  0
LINE
  8
0
 10
183.327
 20
216.858
 11
183.531
 21
217.023
  0
LINE
  8
0
 10
183.531
 20
217.023
 11
183.75
 21
217.165
  0
LINE
  8
0
 10
183.75
 20
217.165
 11
183.983
 21
217.284
  0
LINE
  8
0
 10
183.983
 20
217.284
 11
184.227
 21
217.378
  0
LINE
  8
0
 10
184.227
 20
217.378
 11
184.48
 21
217.445
  0
LINE
  8
0
 10
184.48
 20
217.445
 11
184.739
 21
217.486
  0
LINE
  8
0
 10
184.739
 20
217.486
 11
185
 21
217.5
  0
LINE
  8
0
 10
185
 20
217.5
 11
185.261
 21
217.486
  0
LINE
  8
0
 10
185.261
 20
217.486
 11
185.52
 21
217.445
  0
LINE
  8
0
 10
185.52
 20
217.445
 11
185.773
 21
217.378
  0
LINE
  8
0
 10
185.773
 20
217.378
 11
186.017
 21
217.284
  0
LINE
  8
0
 10
186.017
 20
217.284
 11
186.25
 21
217.165
  0
LINE
  8
0
 10
186.25
 20
217.165
 11
186.469
 21
217.023
  0
LINE
  8
0
 10
186.469
 20
217.023
 11
186.673
 21
216.858
  0
LINE
  8
0
 10
186.673
 20
216.858
 11
186.858
 21
216.673
  0
LINE
  8
0
 10
186.858
 20
216.673
 11
187.023
 21
216.469
  0
LINE
  8
0
 10
187.023
 20
216.469
 11
187.165
 21
216.25
  0
LINE
  8
0
 10
187.165
 20
216.25
 11
187.284
 21
216.017
  0
LINE
  8
0
 10
187.284
 20
216.017
 11
187.378
 21
215.773
  0
LINE
  8
0
 10
187.378
 20
215.773
 11
187.445
 21
215.52
  0
LINE
  8
0
 10
187.445
 20
215.52
 11
187.486
 21
215.261
  0
LINE
  8
0
 10
187.486
 20
215.261
 11
187.5
 21
215
  0
LINE
  8
0
 10
187.5
 20
215
 11
187.486
 21
214.739
  0
LINE
  8
0
 10
187.486
 20
214.739
 11
187.445
 21
214.48
  0
LINE
  8
0
 10
187.445
 20
214.48
 11
187.378
 21
214.227
  0
LINE
  8
0
 10
187.378
 20
214.227
 11
187.284
 21
213.983
  0
LINE
  8
0
 10
187.284
 20
213.983
 11
187.165
 21
213.75
  0
LINE
  8
0
 10
187.165
 20
213.75
 11
187.023
 21
213.531
  0
LINE
  8
0
 10
187.023
 20
213.531
 11
186.858
 21
213.327
  0
LINE
  8
0
 10
186.858
 20
213.327
 11
186.673
 21
213.142
  0
LINE
  8
0
 10
186.673
 20
213.142
 11
186.469
 21
212.977
  0
LINE
  8
0
 10
186.469
 20
212.977
 11
186.25
 21
212.835
  0
LINE
  8
0
 10
186.25
 20
212.835
 11
186.017
 21
212.716
  0
LINE
  8
0
 10
186.017
 20
212.716
 11
185.773
 21
212.622
  0
LINE
  8
0
 10
185.773
 20
212.622
 11
185.52
 21
212.555
  0
LINE
  8
0
 10
185.52
 20
212.555
 11
185.261
 21
212.514
  0
LINE
  8
0
 10
185.261
 20
212.514
 11
185
 21
212.5
  0
LINE
  8
0
 10
185
 20
212.5
 11
184.739
 21
212.514
  0
LINE
  8
0
 10
-185.261
 20
212.514
 11
-185.52
 21
212.555
  0
LINE
  8
0
 10
-185.52
 20
212.555
 11
-185.773
 21
212.622
  0
LINE
  8
0
 10
-185.773
 20
212.622
 11
-186.017
 21
212.716
  0
LINE
  8
0
 10
-186.017
 20
212.716
 11
-186.25
 21
212.835
  0
LINE
  8
0
 10
-186.25
 20
212.835
 11
-186.469
 21
212.977
  0
LINE
  8
0
 10
-186.469
 20
212.977
 11
-186.673
 21
213.142
  0
LINE
  8
0
 10
-186.673
 20
213.142
 11
-186.858
 21
213.327
  0
LINE
  8
0
 10
-186.858
 20
213.327
 11
-187.023
 21
213.531
  0
LINE
  8
0
 10
-187.023
 20
213.531
 11
-187.165
 21
213.75
  0
LINE
  8
0
 10
-187.165
 20
213.75
 11
-187.284
 21
213.983
  0
LINE
  8
0
 10
-187.284
 20
213.983
 11
-187.378
 21
214.227
  0
LINE
  8
0
 10
-187.378
 20
214.227
 11
-187.445
 21
214.48
  0
LINE
  8
0
 10
-187.445
 20
214.48
 11
-187.486
 21
214.739
  0
LINE
  8
0
 10
-187.486
 20
214.739
 11
-187.5
 21
215
  0
LINE
  8
0
 10
-187.5
 20
215
 11
-187.486
 21
215.261
  0
LINE
  8
0
 10
-187.486
 20
215.261
 11
-187.445
 21
215.52
  0
LINE
  8
0
 10
-187.445
 20
215.52
 11
-187.378
 21
215.773
  0
LINE
  8
0
 10
-187.378
 20
215.773
 11
-187.284
 21
216.017
  0
LINE
  8
0
 10
-187.284
 20
216.017
 11
-187.165
 21
216.25
  0
LINE
  8
0
 10
-187.165
 20
216.25
 11
-187.023
 21
216.469
  0
LINE
  8
0
 10
-187.023
 20
216.469
 11
-186.858
 21
216.673
  0
LINE
  8
0
 10
-186.858
 20
216.673
 11
-186.673
 21
216.858
  0
LINE
  8
0
 10
-186.673
 20
216.858
 11
-186.469
 21
217.023
  0
LINE
  8
0
 10
-186.469
 20
217.023
 11
-186.25
 21
217.165
  0
LINE
  8
0
 10
-186.25
 20
217.165
 11
-186.017
 21
217.284
  0
LINE
  8
0
 10
-186.017
 20
217.284
 11
-185.773
 21
217.378
  0
LINE
  8
0
 10
-185.773
 20
217.378
 11
-185.52
 21
217.445
  0
LINE
  8
0
 10
-185.52
 20
217.445
 11
-185.261
 21
217.486
  0
LINE
  8
0
 10
-185.261
 20
217.486
 11
-185
 21
217.5
  0
LINE
  8
0
 10
-185
 20
217.5
 11
-184.739
 21
217.486
  0
LINE
  8
0
 10
-184.739
 20
217.486
 11
-184.48
 21
217.445
  0
LINE
  8
0
 10
-184.48
 20
217.445
 11
-184.227
 21
217.378
  0
LINE
  8
0
 10
-184.227
 20
217.378
 11
-183.983
 21
217.284
  0
LINE
  8
0
 10
-183.983
 20
217.284
 11
-183.75
 21
217.165
  0
LINE
  8
0
 10
-183.75
 20
217.165
 11
-183.531
 21
217.023
  0
LINE
  8
0
 10
-183.531
 20
217.023
 11
-183.327
 21
216.858
  0
LINE
  8
0
 10
-183.327
 20
216.858
 11
-183.142
 21
216.673
  0
LINE
  8
0
 10
-183.142
 20
216.673
 11
-182.977
 21
216.469
  0
LINE
  8
0
 10
-182.977
 20
216.469
 11
-182.835
 21
216.25
  0
LINE
  8
0
 10
-182.835
 20
216.25
 11
-182.716
 21
216.017
  0
LINE
  8
0
 10
-182.716
 20
216.017
 11
-182.622
 21
215.773
  0
LINE
  8
0
 10
-182.622
 20
215.773
 11
-182.555
 21
215.52
  0
LINE
  8
0
 10
-182.555
 20
215.52
 11
-182.514
 21
215.261
  0
LINE
  8
0
 10
-182.514
 20
215.261
 11
-182.5
 21
215
  0
LINE
  8
0
 10
-182.5
 20
215
 11
-182.514
 21
214.739
  0
LINE
  8
0
 10
-182.514
 20
214.739
 11
-182.555
 21
214.48
  0
LINE
  8
0
 10
-182.555
 20
214.48
 11
-182.622
 21
214.227
  0
LINE
  8
0
 10
-182.622
 20
214.227
 11
-182.716
 21
213.983
  0
LINE
  8
0
 10
-182.716
 20
213.983
 11
-182.835
 21
213.75
  0
LINE
  8
0
 10
-182.835
 20
213.75
 11
-182.977
 21
213.531
  0
LINE
  8
0
 10
-182.977
 20
213.531
 11
-183.142
 21
213.327
  0
LINE
  8
0
 10
-183.142
 20
213.327
 11
-183.327
 21
213.142
  0
LINE
  8
0
 10
-183.327
 20
213.142
 11
-183.531
 21
212.977
  0
LINE
  8
0
 10
-183.531
 20
212.977
 11
-183.75
 21
212.835
  0
LINE
  8
0
 10
-183.75
 20
212.835
 11
-183.983
 21
212.716
  0
LINE
  8
0
 10
-183.983
 20
212.716
 11
-184.227
 21
212.622
  0
LINE
  8
0
 10
-184.227
 20
212.622
 11
-184.48
 21
212.555
  0
LINE
  8
0
 10
-184.48
 20
212.555
 11
-184.739
 21
212.514
  0
LINE
  8
0
 10
-184.739
 20
212.514
 11
-185
 21
212.5
  0
LINE
  8
0
 10
-185
 20
212.5
 11
-185.261
 21
212.514
  0
LINE
  8
0
 10
-125.246
 20
212.814
 11
-125.49
 21
212.855
  0
LINE
  8
0
 10
-125.49
 20
212.855
 11
-125.727
 21
212.923
  0
LINE
  8
0
 10
-125.727
 20
212.923
 11
-125.955
 21
213.018
  0
LINE
  8
0
 10
-125.955
 20
213.018
 11
-126.17
 21
213.137
  0
LINE
  8
0
 10
-126.17
 20
213.137
 11
-126.372
 21
213.28
  0
LINE
  8
0
 10
-126.372
 20
213.28
 11
-126.556
 21
213.444
  0
LINE
  8
0
 10
-126.556
 20
213.444
 11
-126.72
 21
213.628
  0
LINE
  8
0
 10
-126.72
 20
213.628
 11
-126.863
 21
213.83
  0
LINE
  8
0
 10
-126.863
 20
213.83
 11
-126.982
 21
214.045
  0
LINE
  8
0
 10
-126.982
 20
214.045
 11
-127.077
 21
214.273
  0
LINE
  8
0
 10
-127.077
 20
214.273
 11
-127.145
 21
214.51
  0
LINE
  8
0
 10
-127.145
 20
214.51
 11
-127.186
 21
214.754
  0
LINE
  8
0
 10
-127.186
 20
214.754
 11
-127.2
 21
215
  0
LINE
  8
0
 10
-127.2
 20
215
 11
-127.186
 21
215.246
  0
LINE
  8
0
 10
-127.186
 20
215.246
 11
-127.145
 21
215.49
  0
LINE
  8
0
 10
-127.145
 20
215.49
 11
-127.077
 21
215.727
  0
LINE
  8
0
 10
-127.077
 20
215.727
 11
-126.982
 21
215.955
  0
LINE
  8
0
 10
-126.982
 20
215.955
 11
-126.863
 21
216.17
  0
LINE
  8
0
 10
-126.863
 20
216.17
 11
-126.72
 21
216.372
  0
LINE
  8
0
 10
-126.72
 20
216.372
 11
-126.556
 21
216.556
  0
LINE
  8
0
 10
-126.556
 20
216.556
 11
-126.372
 21
216.72
  0
LINE
  8
0
 10
-126.372
 20
216.72
 11
-126.17
 21
216.863
  0
LINE
  8
0
 10
-126.17
 20
216.863
 11
-125.955
 21
216.982
  0
LINE
  8
0
 10
-125.955
 20
216.982
 11
-125.727
 21
217.077
  0
LINE
  8
0
 10
-125.727
 20
217.077
 11
-125.49
 21
217.145
  0
LINE
  8
0
 10
-125.49
 20
217.145
 11
-125.246
 21
217.186
  0
LINE
  8
0
 10
-125.246
 20
217.186
 11
-125
 21
217.2
  0
LINE
  8
0
 10
-125
 20
217.2
 11
-124.754
 21
217.186
  0
LINE
  8
0
 10
-124.754
 20
217.186
 11
-124.51
 21
217.145
  0
LINE
  8
0
 10
-124.51
 20
217.145
 11
-124.273
 21
217.077
  0
LINE
  8
0
 10
-124.273
 20
217.077
 11
-124.045
 21
216.982
  0
LINE
  8
0
 10
-124.045
 20
216.982
 11
-123.83
 21
216.863
  0
LINE
  8
0
 10
-123.83
 20
216.863
 11
-123.628
 21
216.72
  0
LINE
  8
0
 10
-123.628
 20
216.72
 11
-123.444
 21
216.556
  0
LINE
  8
0
 10
-123.444
 20
216.556
 11
-123.28
 21
216.372
  0
LINE
  8
0
 10
-123.28
 20
216.372
 11
-123.137
 21
216.17
  0
LINE
  8
0
 10
-123.137
 20
216.17
 11
-123.018
 21
215.955
  0
LINE
  8
0
 10
-123.018
 20
215.955
 11
-122.923
 21
215.727
  0
LINE
  8
0
 10
-122.923
 20
215.727
 11
-122.855
 21
215.49
  0
LINE
  8
0
 10
-122.855
 20
215.49
 11
-122.814
 21
215.246
  0
LINE
  8
0
 10
-122.814
 20
215.246
 11
-122.8
 21
215
  0
LINE
  8
0
 10
-122.8
 20
215
 11
-122.814
 21
214.754
  0
LINE
  8
0
 10
-122.814
 20
214.754
 11
-122.855
 21
214.51
  0
LINE
  8
0
 10
-122.855
 20
214.51
 11
-122.923
 21
214.273
  0
LINE
  8
0
 10
-122.923
 20
214.273
 11
-123.018
 21
214.045
  0
LINE
  8
0
 10
-123.018
 20
214.045
 11
-123.137
 21
213.83
  0
LINE
  8
0
 10
-123.137
 20
213.83
 11
-123.28
 21
213.628
  0
LINE
  8
0
 10
-123.28
 20
213.628
 11
-123.444
 21
213.444
  0
LINE
  8
0
 10
-123.444
 20
213.444
 11
-123.628
 21
213.28
  0
LINE
  8
0
 10
-123.628
 20
213.28
 11
-123.83
 21
213.137
  0
LINE
  8
0
 10
-123.83
 20
213.137
 11
-124.045
 21
213.018
  0
LINE
  8
0
 10
-124.045
 20
213.018
 11
-124.273
 21
212.923
  0
LINE
  8
0
 10
-124.273
 20
212.923
 11
-124.51
 21
212.855
  0
LINE
  8
0
 10
-124.51
 20
212.855
 11
-124.754
 21
212.814
  0
LINE
  8
0
 10
-124.754
 20
212.814
 11
-125
 21
212.8
  0
LINE
  8
0
 10
-125
 20
212.8
 11
-125.246
 21
212.814
  0
LINE
  8
0
 10
-0.246307
 20
212.814
 11
-0.489532
 21
212.855
  0
LINE
  8
0
 10
-0.489532
 20
212.855
 11
-0.726608
 21
212.923
  0
LINE
  8
0
 10
-0.726608
 20
212.923
 11
-0.954544
 21
213.018
  0
LINE
  8
0
 10
-0.954544
 20
213.018
 11
-1.17046
 21
213.137
  0
LINE
  8
0
 10
-1.17046
 20
213.137
 11
-1.37167
 21
213.28
  0
LINE
  8
0
 10
-1.37167
 20
213.28
 11
-1.55563
 21
213.444
  0
LINE
  8
0
 10
-1.55563
 20
213.444
 11
-1.72002
 21
213.628
  0
LINE
  8
0
 10
-1.72002
 20
213.628
 11
-1.86279
 21
213.83
  0
LINE
  8
0
 10
-1.86279
 20
213.83
 11
-1.98212
 21
214.045
  0
LINE
  8
0
 10
-1.98212
 20
214.045
 11
-2.07654
 21
214.273
  0
LINE
  8
0
 10
-2.07654
 20
214.273
 11
-2.14484
 21
214.51
  0
LINE
  8
0
 10
-2.14484
 20
214.51
 11
-2.18616
 21
214.754
  0
LINE
  8
0
 10
-2.18616
 20
214.754
 11
-2.2
 21
215
  0
LINE
  8
0
 10
-2.2
 20
215
 11
-2.18616
 21
215.246
  0
LINE
  8
0
 10
-2.18616
 20
215.246
 11
-2.14484
 21
215.49
  0
LINE
  8
0
 10
-2.14484
 20
215.49
 11
-2.07654
 21
215.727
  0
LINE
  8
0
 10
-2.07654
 20
215.727
 11
-1.98212
 21
215.955
  0
LINE
  8
0
 10
-1.98212
 20
215.955
 11
-1.86279
 21
216.17
  0
LINE
  8
0
 10
-1.86279
 20
216.17
 11
-1.72002
 21
216.372
  0
LINE
  8
0
 10
-1.72002
 20
216.372
 11
-1.55563
 21
216.556
  0
LINE
  8
0
 10
-1.55563
 20
216.556
 11
-1.37167
 21
216.72
  0
LINE
  8
0
 10
-1.37167
 20
216.72
 11
-1.17046
 21
216.863
  0
LINE
  8
0
 10
-1.17046
 20
216.863
 11
-0.954544
 21
216.982
  0
LINE
  8
0
 10
-0.954544
 20
216.982
 11
-0.726608
 21
217.077
  0
LINE
  8
0
 10
-0.726608
 20
217.077
 11
-0.489532
 21
217.145
  0
LINE
  8
0
 10
-0.489532
 20
217.145
 11
-0.246307
 21
217.186
  0
LINE
  8
0
 10
-0.246307
 20
217.186
 11
0
 21
217.2
  0
LINE
  8
0
 10
0
 20
217.2
 11
0.246307
 21
217.186
  0
LINE
  8
0
 10
0.246307
 20
217.186
 11
0.489532
 21
217.145
  0
LINE
  8
0
 10
0.489532
 20
217.145
 11
0.726608
 21
217.077
  0
LINE
  8
0
 10
0.726608
 20
217.077
 11
0.954544
 21
216.982
  0
LINE
  8
0
 10
0.954544
 20
216.982
 11
1.17046
 21
216.863
  0
LINE
  8
0
 10
1.17046
 20
216.863
 11
1.37167
 21
216.72
  0
LINE
  8
0
 10
1.37167
 20
216.72
 11
1.55563
 21
216.556
  0
LINE
  8
0
 10
1.55563
 20
216.556
 11
1.72002
 21
216.372
  0
LINE
  8
0
 10
1.72002
 20
216.372
 11
1.86279
 21
216.17
  0
LINE
  8
0
 10
1.86279
 20
216.17
 11
1.98212
 21
215.955
  0
LINE
  8
0
 10
1.98212
 20
215.955
 11
2.07654
 21
215.727
  0
LINE
  8
0
 10
2.07654
 20
215.727
 11
2.14484
 21
215.49
  0
LINE
  8
0
 10
2.14484
 20
215.49
 11
2.18616
 21
215.246
  0
LINE
  8
0
 10
2.18616
 20
215.246
 11
2.2
 21
215
  0
LINE
  8
0
 10
2.2
 20
215
 11
2.18616
 21
214.754
  0
LINE
  8
0
 10
2.18616
 20
214.754
 11
2.14484
 21
214.51
  0
LINE
  8
0
 10
2.14484
 20
214.51
 11
2.07654
 21
214.273
  0
LINE
  8
0
 10
2.07654
 20
214.273
 11
1.98212
 21
214.045
  0
LINE
  8
0
 10
1.98212
 20
214.045
 11
1.86279
 21
213.83
  0
LINE
  8
0
 10
1.86279
 20
213.83
 11
1.72002
 21
213.628
  0
LINE
  8
0
 10
1.72002
 20
213.628
 11
1.55563
 21
213.444
  0
LINE
  8
0
 10
1.55563
 20
213.444
 11
1.37167
 21
213.28
  0
LINE
  8
0
 10
1.37167
 20
213.28
 11
1.17046
 21
213.137
  0
LINE
  8
0
 10
1.17046
 20
213.137
 11
0.954544
 21
213.018
  0
LINE
  8
0
 10
0.954544
 20
213.018
 11
0.726608
 21
212.923
  0
LINE
  8
0
 10
0.726608
 20
212.923
 11
0.489532
 21
212.855
  0
LINE
  8
0
 10
0.489532
 20
212.855
 11
0.246307
 21
212.814
  0
LINE
  8
0
 10
0.246307
 20
212.814
 11
0
 21
212.8
  0
LINE
  8
0
 10
0
 20
212.8
 11
-0.246307
 21
212.814
  0
LINE
  8
0
 10
124.754
 20
212.814
 11
124.51
 21
212.855
  0
LINE
  8
0
 10
124.51
 20
212.855
 11
124.273
 21
212.923
  0
LINE
  8
0
 10
124.273
 20
212.923
 11
124.045
 21
213.018
  0
LINE
  8
0
 10
124.045
 20
213.018
 11
123.83
 21
213.137
  0
LINE
  8
0
 10
123.83
 20
213.137
 11
123.628
 21
213.28
  0
LINE
  8
0
 10
123.628
 20
213.28
 11
123.444
 21
213.444
  0
LINE
  8
0
 10
123.444
 20
213.444
 11
123.28
 21
213.628
  0
LINE
  8
0
 10
123.28
 20
213.628
 11
123.137
 21
213.83
  0
LINE
  8
0
 10
123.137
 20
213.83
 11
123.018
 21
214.045
  0
LINE
  8
0
 10
123.018
 20
214.045
 11
122.923
 21
214.273
  0
LINE
  8
0
 10
122.923
 20
214.273
 11
122.855
 21
214.51
  0
LINE
  8
0
 10
122.855
 20
214.51
 11
122.814
 21
214.754
  0
LINE
  8
0
 10
122.814
 20
214.754
 11
122.8
 21
215
  0
LINE
  8
0
 10
122.8
 20
215
 11
122.814
 21
215.246
  0
LINE
  8
0
 10
122.814
 20
215.246
 11
122.855
 21
215.49
  0
LINE
  8
0
 10
122.855
 20
215.49
 11
122.923
 21
215.727
  0
LINE
  8
0
 10
122.923
 20
215.727
 11
123.018
 21
215.955
  0
LINE
  8
0
 10
123.018
 20
215.955
 11
123.137
 21
216.17
  0
LINE
  8
0
 10
123.137
 20
216.17
 11
123.28
 21
216.372
  0
LINE
  8
0
 10
123.28
 20
216.372
 11
123.444
 21
216.556
  0
LINE
  8
0
 10
123.444
 20
216.556
 11
123.628
 21
216.72
  0
LINE
  8
0
 10
123.628
 20
216.72
 11
123.83
 21
216.863
  0
LINE
  8
0
 10
123.83
 20
216.863
 11
124.045
 21
216.982
  0
LINE
  8
0
 10
124.045
 20
216.982
 11
124.273
 21
217.077
  0
LINE
  8
0
 10
124.273
 20
217.077
 11
124.51
 21
217.145
  0
LINE
  8
0
 10
124.51
 20
217.145
 11
124.754
 21
217.186
  0
LINE
  8
0
 10
124.754
 20
217.186
 11
125
 21
217.2
  0
LINE
  8
0
 10
125
 20
217.2
 11
125.246
 21
217.186
  0
LINE
  8
0
 10
125.246
 20
217.186
 11
125.49
 21
217.145
  0
LINE
  8
0
 10
125.49
 20
217.145
 11
125.727
 21
217.077
  0
LINE
  8
0
 10
125.727
 20
217.077
 11
125.955
 21
216.982
  0
LINE
  8
0
 10
125.955
 20
216.982
 11
126.17
 21
216.863
  0
LINE
  8
0
 10
126.17
 20
216.863
 11
126.372
 21
216.72
  0
LINE
  8
0
 10
126.372
 20
216.72
 11
126.556
 21
216.556
  0
LINE
  8
0
 10
126.556
 20
216.556
 11
126.72
 21
216.372
  0
LINE
  8
0
 10
126.72
 20
216.372
 11
126.863
 21
216.17
  0
LINE
  8
0
 10
126.863
 20
216.17
 11
126.982
 21
215.955
  0
LINE
  8
0
 10
126.982
 20
215.955
 11
127.077
 21
215.727
  0
LINE
  8
0
 10
127.077
 20
215.727
 11
127.145
 21
215.49
  0
LINE
  8
0
 10
127.145
 20
215.49
 11
127.186
 21
215.246
  0
LINE
  8
0
 10
127.186
 20
215.246
 11
127.2
 21
215
  0
LINE
  8
0
 10
127.2
 20
215
 11
127.186
 21
214.754
  0
LINE
  8
0
 10
127.186
 20
214.754
 11
127.145
 21
214.51
  0
LINE
  8
0
 10
127.145
 20
214.51
 11
127.077
 21
214.273
  0
LINE
  8
0
 10
127.077
 20
214.273
 11
126.982
 21
214.045
  0
LINE
  8
0
 10
126.982
 20
214.045
 11
126.863
 21
213.83
  0
LINE
  8
0
 10
126.863
 20
213.83
 11
126.72
 21
213.628
  0
LINE
  8
0
 10
126.72
 20
213.628
 11
126.556
 21
213.444
  0
LINE
  8
0
 10
126.556
 20
213.444
 11
126.372
 21
213.28
  0
LINE
  8
0
 10
126.372
 20
213.28
 11
126.17
 21
213.137
  0
LINE
  8
0
 10
126.17
 20
213.137
 11
125.955
 21
213.018
  0
LINE
  8
0
 10
125.955
 20
213.018
 11
125.727
 21
212.923
  0
LINE
  8
0
 10
125.727
 20
212.923
 11
125.49
 21
212.855
  0
LINE
  8
0
 10
125.49
 20
212.855
 11
125.246
 21
212.814
  0
LINE
  8
0
 10
125.246
 20
212.814
 11
125
 21
212.8
  0
LINE
  8
0
 10
125
 20
212.8
 11
124.754
 21
212.814
  0
LINE
  8
0
 10
184.754
 20
202.814
 11
184.51
 21
202.855
  0
LINE
  8
0
 10
184.51
 20
202.855
 11
184.273
 21
202.923
  0
LINE
  8
0
 10
184.273
 20
202.923
 11
184.045
 21
203.018
  0
LINE
  8
0
 10
184.045
 20
203.018
 11
183.83
 21
203.137
  0
LINE
  8
0
 10
183.83
 20
203.137
 11
183.628
 21
203.28
  0
LINE
  8
0
 10
183.628
 20
203.28
 11
183.444
 21
203.444
  0
LINE
  8
0
 10
183.444
 20
203.444
 11
183.28
 21
203.628
  0
LINE
  8
0
 10
183.28
 20
203.628
 11
183.137
 21
203.83
  0
LINE
  8
0
 10
183.137
 20
203.83
 11
183.018
 21
204.045
  0
LINE
  8
0
 10
183.018
 20
204.045
 11
182.923
 21
204.273
  0
LINE
  8
0
 10
182.923
 20
204.273
 11
182.855
 21
204.51
  0
LINE
  8
0
 10
182.855
 20
204.51
 11
182.814
 21
204.754
  0
LINE
  8
0
 10
182.814
 20
204.754
 11
182.8
 21
205
  0
LINE
  8
0
 10
182.8
 20
205
 11
182.814
 21
205.246
  0
LINE
  8
0
 10
182.814
 20
205.246
 11
182.855
 21
205.49
  0
LINE
  8
0
 10
182.855
 20
205.49
 11
182.923
 21
205.727
  0
LINE
  8
0
 10
182.923
 20
205.727
 11
183.018
 21
205.955
  0
LINE
  8
0
 10
183.018
 20
205.955
 11
183.137
 21
206.17
  0
LINE
  8
0
 10
183.137
 20
206.17
 11
183.28
 21
206.372
  0
LINE
  8
0
 10
183.28
 20
206.372
 11
183.444
 21
206.556
  0
LINE
  8
0
 10
183.444
 20
206.556
 11
183.628
 21
206.72
  0
LINE
  8
0
 10
183.628
 20
206.72
 11
183.83
 21
206.863
  0
LINE
  8
0
 10
183.83
 20
206.863
 11
184.045
 21
206.982
  0
LINE
  8
0
 10
184.045
 20
206.982
 11
184.273
 21
207.077
  0
LINE
  8
0
 10
184.273
 20
207.077
 11
184.51
 21
207.145
  0
LINE
  8
0
 10
184.51
 20
207.145
 11
184.754
 21
207.186
  0
LINE
  8
0
 10
184.754
 20
207.186
 11
185
 21
207.2
  0
LINE
  8
0
 10
185
 20
207.2
 11
185.246
 21
207.186
  0
LINE
  8
0
 10
185.246
 20
207.186
 11
185.49
 21
207.145
  0
LINE
  8
0
 10
185.49
 20
207.145
 11
185.727
 21
207.077
  0
LINE
  8
0
 10
185.727
 20
207.077
 11
185.955
 21
206.982
  0
LINE
  8
0
 10
185.955
 20
206.982
 11
186.17
 21
206.863
  0
LINE
  8
0
 10
186.17
 20
206.863
 11
186.372
 21
206.72
  0
LINE
  8
0
 10
186.372
 20
206.72
 11
186.556
 21
206.556
  0
LINE
  8
0
 10
186.556
 20
206.556
 11
186.72
 21
206.372
  0
LINE
  8
0
 10
186.72
 20
206.372
 11
186.863
 21
206.17
  0
LINE
  8
0
 10
186.863
 20
206.17
 11
186.982
 21
205.955
  0
LINE
  8
0
 10
186.982
 20
205.955
 11
187.077
 21
205.727
  0
LINE
  8
0
 10
187.077
 20
205.727
 11
187.145
 21
205.49
  0
LINE
  8
0
 10
187.145
 20
205.49
 11
187.186
 21
205.246
  0
LINE
  8
0
 10
187.186
 20
205.246
 11
187.2
 21
205
  0
LINE
  8
0
 10
187.2
 20
205
 11
187.186
 21
204.754
  0
LINE
  8
0
 10
187.186
 20
204.754
 11
187.145
 21
204.51
  0
LINE
  8
0
 10
187.145
 20
204.51
 11
187.077
 21
204.273
  0
LINE
  8
0
 10
187.077
 20
204.273
 11
186.982
 21
204.045
  0
LINE
  8
0
 10
186.982
 20
204.045
 11
186.863
 21
203.83
  0
LINE
  8
0
 10
186.863
 20
203.83
 11
186.72
 21
203.628
  0
LINE
  8
0
 10
186.72
 20
203.628
 11
186.556
 21
203.444
  0
LINE
  8
0
 10
186.556
 20
203.444
 11
186.372
 21
203.28
  0
LINE
  8
0
 10
186.372
 20
203.28
 11
186.17
 21
203.137
  0
LINE
  8
0
 10
186.17
 20
203.137
 11
185.955
 21
203.018
  0
LINE
  8
0
 10
185.955
 20
203.018
 11
185.727
 21
202.923
  0
LINE
  8
0
 10
185.727
 20
202.923
 11
185.49
 21
202.855
  0
LINE
  8
0
 10
185.49
 20
202.855
 11
185.246
 21
202.814
  0
LINE
  8
0
 10
185.246
 20
202.814
 11
185
 21
202.8
  0
LINE
  8
0
 10
185
 20
202.8
 11
184.754
 21
202.814
  0
LINE
  8
0
 10
-185.246
 20
202.814
 11
-185.49
 21
202.855
  0
LINE
  8
0
 10
-185.49
 20
202.855
 11
-185.727
 21
202.923
  0
LINE
  8
0
 10
-185.727
 20
202.923
 11
-185.955
 21
203.018
  0
LINE
  8
0
 10
-185.955
 20
203.018
 11
-186.17
 21
203.137
  0
LINE
  8
0
 10
-186.17
 20
203.137
 11
-186.372
 21
203.28
  0
LINE
  8
0
 10
-186.372
 20
203.28
 11
-186.556
 21
203.444
  0
LINE
  8
0
 10
-186.556
 20
203.444
 11
-186.72
 21
203.628
  0
LINE
  8
0
 10
-186.72
 20
203.628
 11
-186.863
 21
203.83
  0
LINE
  8
0
 10
-186.863
 20
203.83
 11
-186.982
 21
204.045
  0
LINE
  8
0
 10
-186.982
 20
204.045
 11
-187.077
 21
204.273
  0
LINE
  8
0
 10
-187.077
 20
204.273
 11
-187.145
 21
204.51
  0
LINE
  8
0
 10
-187.145
 20
204.51
 11
-187.186
 21
204.754
  0
LINE
  8
0
 10
-187.186
 20
204.754
 11
-187.2
 21
205
  0
LINE
  8
0
 10
-187.2
 20
205
 11
-187.186
 21
205.246
  0
LINE
  8
0
 10
-187.186
 20
205.246
 11
-187.145
 21
205.49
  0
LINE
  8
0
 10
-187.145
 20
205.49
 11
-187.077
 21
205.727
  0
LINE
  8
0
 10
-187.077
 20
205.727
 11
-186.982
 21
205.955
  0
LINE
  8
0
 10
-186.982
 20
205.955
 11
-186.863
 21
206.17
  0
LINE
  8
0
 10
-186.863
 20
206.17
 11
-186.72
 21
206.372
  0
LINE
  8
0
 10
-186.72
 20
206.372
 11
-186.556
 21
206.556
  0
LINE
  8
0
 10
-186.556
 20
206.556
 11
-186.372
 21
206.72
  0
LINE
  8
0
 10
-186.372
 20
206.72
 11
-186.17
 21
206.863
  0
LINE
  8
0
 10
-186.17
 20
206.863
 11
-185.955
 21
206.982
  0
LINE
  8
0
 10
-185.955
 20
206.982
 11
-185.727
 21
207.077
  0
LINE
  8
0
 10
-185.727
 20
207.077
 11
-185.49
 21
207.145
  0
LINE
  8
0
 10
-185.49
 20
207.145
 11
-185.246
 21
207.186
  0
LINE
  8
0
 10
-185.246
 20
207.186
 11
-185
 21
207.2
  0
LINE
  8
0
 10
-185
 20
207.2
 11
-184.754
 21
207.186
  0
LINE
  8
0
 10
-184.754
 20
207.186
 11
-184.51
 21
207.145
  0
LINE
  8
0
 10
-184.51
 20
207.145
 11
-184.273
 21
207.077
  0
LINE
  8
0
 10
-184.273
 20
207.077
 11
-184.045
 21
206.982
  0
LINE
  8
0
 10
-184.045
 20
206.982
 11
-183.83
 21
206.863
  0
LINE
  8
0
 10
-183.83
 20
206.863
 11
-183.628
 21
206.72
  0
LINE
  8
0
 10
-183.628
 20
206.72
 11
-183.444
 21
206.556
  0
LINE
  8
0
 10
-183.444
 20
206.556
 11
-183.28
 21
206.372
  0
LINE
  8
0
 10
-183.28
 20
206.372
 11
-183.137
 21
206.17
  0
LINE
  8
0
 10
-183.137
 20
206.17
 11
-183.018
 21
205.955
  0
LINE
  8
0
 10
-183.018
 20
205.955
 11
-182.923
 21
205.727
  0
LINE
  8
0
 10
-182.923
 20
205.727
 11
-182.855
 21
205.49
  0
LINE
  8
0
 10
-182.855
 20
205.49
 11
-182.814
 21
205.246
  0
LINE
  8
0
 10
-182.814
 20
205.246
 11
-182.8
 21
205
  0
LINE
  8
0
 10
-182.8
 20
205
 11
-182.814
 21
204.754
  0
LINE
  8
0
 10
-182.814
 20
204.754
 11
-182.855
 21
204.51
  0
LINE
  8
0
 10
-182.855
 20
204.51
 11
-182.923
 21
204.273
  0
LINE
  8
0
 10
-182.923
 20
204.273
 11
-183.018
 21
204.045
  0
LINE
  8
0
 10
-183.018
 20
204.045
 11
-183.137
 21
203.83
  0
LINE
  8
0
 10
-183.137
 20
203.83
 11
-183.28
 21
203.628
  0
LINE
  8
0
 10
-183.28
 20
203.628
 11
-183.444
 21
203.444
  0
LINE
  8
0
 10
-183.444
 20
203.444
 11
-183.628
 21
203.28
  0
LINE
  8
0
 10
-183.628
 20
203.28
 11
-183.83
 21
203.137
  0
LINE
  8
0
 10
-183.83
 20
203.137
 11
-184.045
 21
203.018
  0
LINE
  8
0
 10
-184.045
 20
203.018
 11
-184.273
 21
202.923
  0
LINE
  8
0
 10
-184.273
 20
202.923
 11
-184.51
 21
202.855
  0
LINE
  8
0
 10
-184.51
 20
202.855
 11
-184.754
 21
202.814
  0
LINE
  8
0
 10
-184.754
 20
202.814
 11
-185
 21
202.8
  0
LINE
  8
0
 10
-185
 20
202.8
 11
-185.246
 21
202.814
  0
LINE
  8
0
 10
184.739
 20
192.514
 11
184.48
 21
192.555
  0
LINE
  8
0
 10
184.48
 20
192.555
 11
184.227
 21
192.622
  0
LINE
  8
0
 10
184.227
 20
192.622
 11
183.983
 21
192.716
  0
LINE
  8
0
 10
183.983
 20
192.716
 11
183.75
 21
192.835
  0
LINE
  8
0
 10
183.75
 20
192.835
 11
183.531
 21
192.977
  0
LINE
  8
0
 10
183.531
 20
192.977
 11
183.327
 21
193.142
  0
LINE
  8
0
 10
183.327
 20
193.142
 11
183.142
 21
193.327
  0
LINE
  8
0
 10
183.142
 20
193.327
 11
182.977
 21
193.531
  0
LINE
  8
0
 10
182.977
 20
193.531
 11
182.835
 21
193.75
  0
LINE
  8
0
 10
182.835
 20
193.75
 11
182.716
 21
193.983
  0
LINE
  8
0
 10
182.716
 20
193.983
 11
182.622
 21
194.227
  0
LINE
  8
0
 10
182.622
 20
194.227
 11
182.555
 21
194.48
  0
LINE
  8
0
 10
182.555
 20
194.48
 11
182.514
 21
194.739
  0
LINE
  8
0
 10
182.514
 20
194.739
 11
182.5
 21
195
  0
LINE
  8
0
 10
182.5
 20
195
 11
182.514
 21
195.261
  0
LINE
  8
0
 10
182.514
 20
195.261
 11
182.555
 21
195.52
  0
LINE
  8
0
 10
182.555
 20
195.52
 11
182.622
 21
195.773
  0
LINE
  8
0
 10
182.622
 20
195.773
 11
182.716
 21
196.017
  0
LINE
  8
0
 10
182.716
 20
196.017
 11
182.835
 21
196.25
  0
LINE
  8
0
 10
182.835
 20
196.25
 11
182.977
 21
196.469
  0
LINE
  8
0
 10
182.977
 20
196.469
 11
183.142
 21
196.673
  0
LINE
  8
0
 10
183.142
 20
196.673
 11
183.327
 21
196.858
  0
LINE
  8
0
 10
183.327
 20
196.858
 11
183.531
 21
197.023
  0
LINE
  8
0
 10
183.531
 20
197.023
 11
183.75
 21
197.165
  0
LINE
  8
0
 10
183.75
 20
197.165
 11
183.983
 21
197.284
  0
LINE
  8
0
 10
183.983
 20
197.284
 11
184.227
 21
197.378
  0
LINE
  8
0
 10
184.227
 20
197.378
 11
184.48
 21
197.445
  0
LINE
  8
0
 10
184.48
 20
197.445
 11
184.739
 21
197.486
  0
LINE
  8
0
 10
184.739
 20
197.486
 11
185
 21
197.5
  0
LINE
  8
0
 10
185
 20
197.5
 11
185.261
 21
197.486
  0
LINE
  8
0
 10
185.261
 20
197.486
 11
185.52
 21
197.445
  0
LINE
  8
0
 10
185.52
 20
197.445
 11
185.773
 21
197.378
  0
LINE
  8
0
 10
185.773
 20
197.378
 11
186.017
 21
197.284
  0
LINE
  8
0
 10
186.017
 20
197.284
 11
186.25
 21
197.165
  0
LINE
  8
0
 10
186.25
 20
197.165
 11
186.469
 21
197.023
  0
LINE
  8
0
 10
186.469
 20
197.023
 11
186.673
 21
196.858
  0
LINE
  8
0
 10
186.673
 20
196.858
 11
186.858
 21
196.673
  0
LINE
  8
0
 10
186.858
 20
196.673
 11
187.023
 21
196.469
  0
LINE
  8
0
 10
187.023
 20
196.469
 11
187.165
 21
196.25
  0
LINE
  8
0
 10
187.165
 20
196.25
 11
187.284
 21
196.017
  0
LINE
  8
0
 10
187.284
 20
196.017
 11
187.378
 21
195.773
  0
LINE
  8
0
 10
187.378
 20
195.773
 11
187.445
 21
195.52
  0
LINE
  8
0
 10
187.445
 20
195.52
 11
187.486
 21
195.261
  0
LINE
  8
0
 10
187.486
 20
195.261
 11
187.5
 21
195
  0
LINE
  8
0
 10
187.5
 20
195
 11
187.486
 21
194.739
  0
LINE
  8
0
 10
187.486
 20
194.739
 11
187.445
 21
194.48
  0
LINE
  8
0
 10
187.445
 20
194.48
 11
187.378
 21
194.227
  0
LINE
  8
0
 10
187.378
 20
194.227
 11
187.284
 21
193.983
  0
LINE
  8
0
 10
187.284
 20
193.983
 11
187.165
 21
193.75
  0
LINE
  8
0
 10
187.165
 20
193.75
 11
187.023
 21
193.531
  0
LINE
  8
0
 10
187.023
 20
193.531
 11
186.858
 21
193.327
  0
LINE
  8
0
 10
186.858
 20
193.327
 11
186.673
 21
193.142
  0
LINE
  8
0
 10
186.673
 20
193.142
 11
186.469
 21
192.977
  0
LINE
  8
0
 10
186.469
 20
192.977
 11
186.25
 21
192.835
  0
LINE
  8
0
 10
186.25
 20
192.835
 11
186.017
 21
192.716
  0
LINE
  8
0
 10
186.017
 20
192.716
 11
185.773
 21
192.622
  0
LINE
  8
0
 10
185.773
 20
192.622
 11
185.52
 21
192.555
  0
LINE
  8
0
 10
185.52
 20
192.555
 11
185.261
 21
192.514
  0
LINE
  8
0
 10
185.261
 20
192.514
 11
185
 21
192.5
  0
LINE
  8
0
 10
185
 20
192.5
 11
184.739
 21
192.514
  0
LINE
  8
0
 10
-185.261
 20
192.514
 11
-185.52
 21
192.555
  0
LINE
  8
0
 10
-185.52
 20
192.555
 11
-185.773
 21
192.622
  0
LINE
  8
0
 10
-185.773
 20
192.622
 11
-186.017
 21
192.716
  0
LINE
  8
0
 10
-186.017
 20
192.716
 11
-186.25
 21
192.835
  0
LINE
  8
0
 10
-186.25
 20
192.835
 11
-186.469
 21
192.977
  0
LINE
  8
0
 10
-186.469
 20
192.977
 11
-186.673
 21
193.142
  0
LINE
  8
0
 10
-186.673
 20
193.142
 11
-186.858
 21
193.327
  0
LINE
  8
0
 10
-186.858
 20
193.327
 11
-187.023
 21
193.531
  0
LINE
  8
0
 10
-187.023
 20
193.531
 11
-187.165
 21
193.75
  0
LINE
  8
0
 10
-187.165
 20
193.75
 11
-187.284
 21
193.983
  0
LINE
  8
0
 10
-187.284
 20
193.983
 11
-187.378
 21
194.227
  0
LINE
  8
0
 10
-187.378
 20
194.227
 11
-187.445
 21
194.48
  0
LINE
  8
0
 10
-187.445
 20
194.48
 11
-187.486
 21
194.739
  0
LINE
  8
0
 10
-187.486
 20
194.739
 11
-187.5
 21
195
  0
LINE
  8
0
 10
-187.5
 20
195
 11
-187.486
 21
195.261
  0
LINE
  8
0
 10
-187.486
 20
195.261
 11
-187.445
 21
195.52
  0
LINE
  8
0
 10
-187.445
 20
195.52
 11
-187.378
 21
195.773
  0
LINE
  8
0
 10
-187.378
 20
195.773
 11
-187.284
 21
196.017
  0
LINE
  8
0
 10
-187.284
 20
196.017
 11
-187.165
 21
196.25
  0
LINE
  8
0
 10
-187.165
 20
196.25
 11
-187.023
 21
196.469
  0
LINE
  8
0
 10
-187.023
 20
196.469
 11
-186.858
 21
196.673
  0
LINE
  8
0
 10
-186.858
 20
196.673
 11
-186.673
 21
196.858
  0
LINE
  8
0
 10
-186.673
 20
196.858
 11
-186.469
 21
197.023
  0
LINE
  8
0
 10
-186.469
 20
197.023
 11
-186.25
 21
197.165
  0
LINE
  8
0
 10
-186.25
 20
197.165
 11
-186.017
 21
197.284
  0
LINE
  8
0
 10
-186.017
 20
197.284
 11
-185.773
 21
197.378
  0
LINE
  8
0
 10
-185.773
 20
197.378
 11
-185.52
 21
197.445
  0
LINE
  8
0
 10
-185.52
 20
197.445
 11
-185.261
 21
197.486
  0
LINE
  8
0
 10
-185.261
 20
197.486
 11
-185
 21
197.5
  0
LINE
  8
0
 10
-185
 20
197.5
 11
-184.739
 21
197.486
  0
LINE
  8
0
 10
-184.739
 20
197.486
 11
-184.48
 21
197.445
  0
LINE
  8
0
 10
-184.48
 20
197.445
 11
-184.227
 21
197.378
  0
LINE
  8
0
 10
-184.227
 20
197.378
 11
-183.983
 21
197.284
  0
LINE
  8
0
 10
-183.983
 20
197.284
 11
-183.75
 21
197.165
  0
LINE
  8
0
 10
-183.75
 20
197.165
 11
-183.531
 21
197.023
  0
LINE
  8
0
 10
-183.531
 20
197.023
 11
-183.327
 21
196.858
  0
LINE
  8
0
 10
-183.327
 20
196.858
 11
-183.142
 21
196.673
  0
LINE
  8
0
 10
-183.142
 20
196.673
 11
-182.977
 21
196.469
  0
LINE
  8
0
 10
-182.977
 20
196.469
 11
-182.835
 21
196.25
  0
LINE
  8
0
 10
-182.835
 20
196.25
 11
-182.716
 21
196.017
  0
LINE
  8
0
 10
-182.716
 20
196.017
 11
-182.622
 21
195.773
  0
LINE
  8
0
 10
-182.622
 20
195.773
 11
-182.555
 21
195.52
  0
LINE
  8
0
 10
-182.555
 20
195.52
 11
-182.514
 21
195.261
  0
LINE
  8
0
 10
-182.514
 20
195.261
 11
-182.5
 21
195
  0
LINE
  8
0
 10
-182.5
 20
195
 11
-182.514
 21
194.739
  0
LINE
  8
0
 10
-182.514
 20
194.739
 11
-182.555
 21
194.48
  0
LINE
  8
0
 10
-182.555
 20
194.48
 11
-182.622
 21
194.227
  0
LINE
  8
0
 10
-182.622
 20
194.227
 11
-182.716
 21
193.983
  0
LINE
  8
0
 10
-182.716
 20
193.983
 11
-182.835
 21
193.75
  0
LINE
  8
0
 10
-182.835
 20
193.75
 11
-182.977
 21
193.531
  0
LINE
  8
0
 10
-182.977
 20
193.531
 11
-183.142
 21
193.327
  0
LINE
  8
0
 10
-183.142
 20
193.327
 11
-183.327
 21
193.142
  0
LINE
  8
0
 10
-183.327
 20
193.142
 11
-183.531
 21
192.977
  0
LINE
  8
0
 10
-183.531
 20
192.977
 11
-183.75
 21
192.835
  0
LINE
  8
0
 10
-183.75
 20
192.835
 11
-183.983
 21
192.716
  0
LINE
  8
0
 10
-183.983
 20
192.716
 11
-184.227
 21
192.622
  0
LINE
  8
0
 10
-184.227
 20
192.622
 11
-184.48
 21
192.555
  0
LINE
  8
0
 10
-184.48
 20
192.555
 11
-184.739
 21
192.514
  0
LINE
  8
0
 10
-184.739
 20
192.514
 11
-185
 21
192.5
  0
LINE
  8
0
 10
-185
 20
192.5
 11
-185.261
 21
192.514
  0
LINE
  8
0
 10
-185.261
 20
172.514
 11
-185.52
 21
172.555
  0
LINE
  8
0
 10
-185.52
 20
172.555
 11
-185.773
 21
172.622
  0
LINE
  8
0
 10
-185.773
 20
172.622
 11
-186.017
 21
172.716
  0
LINE
  8
0
 10
-186.017
 20
172.716
 11
-186.25
 21
172.835
  0
LINE
  8
0
 10
-186.25
 20
172.835
 11
-186.469
 21
172.977
  0
LINE
  8
0
 10
-186.469
 20
172.977
 11
-186.673
 21
173.142
  0
LINE
  8
0
 10
-186.673
 20
173.142
 11
-186.858
 21
173.327
  0
LINE
  8
0
 10
-186.858
 20
173.327
 11
-187.023
 21
173.531
  0
LINE
  8
0
 10
-187.023
 20
173.531
 11
-187.165
 21
173.75
  0
LINE
  8
0
 10
-187.165
 20
173.75
 11
-187.284
 21
173.983
  0
LINE
  8
0
 10
-187.284
 20
173.983
 11
-187.378
 21
174.227
  0
LINE
  8
0
 10
-187.378
 20
174.227
 11
-187.445
 21
174.48
  0
LINE
  8
0
 10
-187.445
 20
174.48
 11
-187.486
 21
174.739
  0
LINE
  8
0
 10
-187.486
 20
174.739
 11
-187.5
 21
175
  0
LINE
  8
0
 10
-187.5
 20
175
 11
-187.486
 21
175.261
  0
LINE
  8
0
 10
-187.486
 20
175.261
 11
-187.445
 21
175.52
  0
LINE
  8
0
 10
-187.445
 20
175.52
 11
-187.378
 21
175.773
  0
LINE
  8
0
 10
-187.378
 20
175.773
 11
-187.284
 21
176.017
  0
LINE
  8
0
 10
-187.284
 20
176.017
 11
-187.165
 21
176.25
  0
LINE
  8
0
 10
-187.165
 20
176.25
 11
-187.023
 21
176.469
  0
LINE
  8
0
 10
-187.023
 20
176.469
 11
-186.858
 21
176.673
  0
LINE
  8
0
 10
-186.858
 20
176.673
 11
-186.673
 21
176.858
  0
LINE
  8
0
 10
-186.673
 20
176.858
 11
-186.469
 21
177.023
  0
LINE
  8
0
 10
-186.469
 20
177.023
 11
-186.25
 21
177.165
  0
LINE
  8
0
 10
-186.25
 20
177.165
 11
-186.017
 21
177.284
  0
LINE
  8
0
 10
-186.017
 20
177.284
 11
-185.773
 21
177.378
  0
LINE
  8
0
 10
-185.773
 20
177.378
 11
-185.52
 21
177.445
  0
LINE
  8
0
 10
-185.52
 20
177.445
 11
-185.261
 21
177.486
  0
LINE
  8
0
 10
-185.261
 20
177.486
 11
-185
 21
177.5
  0
LINE
  8
0
 10
-185
 20
177.5
 11
-184.739
 21
177.486
  0
LINE
  8
0
 10
-184.739
 20
177.486
 11
-184.48
 21
177.445
  0
LINE
  8
0
 10
-184.48
 20
177.445
 11
-184.227
 21
177.378
  0
LINE
  8
0
 10
-184.227
 20
177.378
 11
-183.983
 21
177.284
  0
LINE
  8
0
 10
-183.983
 20
177.284
 11
-183.75
 21
177.165
  0
LINE
  8
0
 10
-183.75
 20
177.165
 11
-183.531
 21
177.023
  0
LINE
  8
0
 10
-183.531
 20
177.023
 11
-183.327
 21
176.858
  0
LINE
  8
0
 10
-183.327
 20
176.858
 11
-183.142
 21
176.673
  0
LINE
  8
0
 10
-183.142
 20
176.673
 11
-182.977
 21
176.469
  0
LINE
  8
0
 10
-182.977
 20
176.469
 11
-182.835
 21
176.25
  0
LINE
  8
0
 10
-182.835
 20
176.25
 11
-182.716
 21
176.017
  0
LINE
  8
0
 10
-182.716
 20
176.017
 11
-182.622
 21
175.773
  0
LINE
  8
0
 10
-182.622
 20
175.773
 11
-182.555
 21
175.52
  0
LINE
  8
0
 10
-182.555
 20
175.52
 11
-182.514
 21
175.261
  0
LINE
  8
0
 10
-182.514
 20
175.261
 11
-182.5
 21
175
  0
LINE
  8
0
 10
-182.5
 20
175
 11
-182.514
 21
174.739
  0
LINE
  8
0
 10
-182.514
 20
174.739
 11
-182.555
 21
174.48
  0
LINE
  8
0
 10
-182.555
 20
174.48
 11
-182.622
 21
174.227
  0
LINE
  8
0
 10
-182.622
 20
174.227
 11
-182.716
 21
173.983
  0
LINE
  8
0
 10
-182.716
 20
173.983
 11
-182.835
 21
173.75
  0
LINE
  8
0
 10
-182.835
 20
173.75
 11
-182.977
 21
173.531
  0
LINE
  8
0
 10
-182.977
 20
173.531
 11
-183.142
 21
173.327
  0
LINE
  8
0
 10
-183.142
 20
173.327
 11
-183.327
 21
173.142
  0
LINE
  8
0
 10
-183.327
 20
173.142
 11
-183.531
 21
172.977
  0
LINE
  8
0
 10
-183.531
 20
172.977
 11
-183.75
 21
172.835
  0
LINE
  8
0
 10
-183.75
 20
172.835
 11
-183.983
 21
172.716
  0
LINE
  8
0
 10
-183.983
 20
172.716
 11
-184.227
 21
172.622
  0
LINE
  8
0
 10
-184.227
 20
172.622
 11
-184.48
 21
172.555
  0
LINE
  8
0
 10
-184.48
 20
172.555
 11
-184.739
 21
172.514
  0
LINE
  8
0
 10
-184.739
 20
172.514
 11
-185
 21
172.5
  0
LINE
  8
0
 10
-185
 20
172.5
 11
-185.261
 21
172.514
  0
LINE
  8
0
 10
-0.246307
 20
117.814
 11
-0.489532
 21
117.855
  0
LINE
  8
0
 10
-0.489532
 20
117.855
 11
-0.726608
 21
117.923
  0
LINE
  8
0
 10
-0.726608
 20
117.923
 11
-0.954544
 21
118.018
  0
LINE
  8
0
 10
-0.954544
 20
118.018
 11
-1.17046
 21
118.137
  0
LINE
  8
0
 10
-1.17046
 20
118.137
 11
-1.37167
 21
118.28
  0
LINE
  8
0
 10
-1.37167
 20
118.28
 11
-1.55563
 21
118.444
  0
LINE
  8
0
 10
-1.55563
 20
118.444
 11
-1.72002
 21
118.628
  0
LINE
  8
0
 10
-1.72002
 20
118.628
 11
-1.86279
 21
118.83
  0
LINE
  8
0
 10
-1.86279
 20
118.83
 11
-1.98212
 21
119.045
  0
LINE
  8
0
 10
-1.98212
 20
119.045
 11
-2.07654
 21
119.273
  0
LINE
  8
0
 10
-2.07654
 20
119.273
 11
-2.14484
 21
119.51
  0
LINE
  8
0
 10
-2.14484
 20
119.51
 11
-2.18616
 21
119.754
  0
LINE
  8
0
 10
-2.18616
 20
119.754
 11
-2.2
 21
120
  0
LINE
  8
0
 10
-2.2
 20
120
 11
-2.18616
 21
120.246
  0
LINE
  8
0
 10
-2.18616
 20
120.246
 11
-2.14484
 21
120.49
  0
LINE
  8
0
 10
-2.14484
 20
120.49
 11
-2.07654
 21
120.727
  0
LINE
  8
0
 10
-2.07654
 20
120.727
 11
-1.98212
 21
120.955
  0
LINE
  8
0
 10
-1.98212
 20
120.955
 11
-1.86279
 21
121.17
  0
LINE
  8
0
 10
-1.86279
 20
121.17
 11
-1.72002
 21
121.372
  0
LINE
  8
0
 10
-1.72002
 20
121.372
 11
-1.55563
 21
121.556
  0
LINE
  8
0
 10
-1.55563
 20
121.556
 11
-1.37167
 21
121.72
  0
LINE
  8
0
 10
-1.37167
 20
121.72
 11
-1.17046
 21
121.863
  0
LINE
  8
0
 10
-1.17046
 20
121.863
 11
-0.954544
 21
121.982
  0
LINE
  8
0
 10
-0.954544
 20
121.982
 11
-0.726608
 21
122.077
  0
LINE
  8
0
 10
-0.726608
 20
122.077
 11
-0.489532
 21
122.145
  0
LINE
  8
0
 10
-0.489532
 20
122.145
 11
-0.246307
 21
122.186
  0
LINE
  8
0
 10
-0.246307
 20
122.186
 11
0
 21
122.2
  0
LINE
  8
0
 10
0
 20
122.2
 11
0.246307
 21
122.186
  0
LINE
  8
0
 10
0.246307
 20
122.186
 11
0.489532
 21
122.145
  0
LINE
  8
0
 10
0.489532
 20
122.145
 11
0.726608
 21
122.077
  0
LINE
  8
0
 10
0.726608
 20
122.077
 11
0.954544
 21
121.982
  0
LINE
  8
0
 10
0.954544
 20
121.982
 11
1.17046
 21
121.863
  0
LINE
  8
0
 10
1.17046
 20
121.863
 11
1.37167
 21
121.72
  0
LINE
  8
0
 10
1.37167
 20
121.72
 11
1.55563
 21
121.556
  0
LINE
  8
0
 10
1.55563
 20
121.556
 11
1.72002
 21
121.372
  0
LINE
  8
0
 10
1.72002
 20
121.372
 11
1.86279
 21
121.17
  0
LINE
  8
0
 10
1.86279
 20
121.17
 11
1.98212
 21
120.955
  0
LINE
  8
0
 10
1.98212
 20
120.955
 11
2.07654
 21
120.727
  0
LINE
  8
0
 10
2.07654
 20
120.727
 11
2.14484
 21
120.49
  0
LINE
  8
0
 10
2.14484
 20
120.49
 11
2.18616
 21
120.246
  0
LINE
  8
0
 10
2.18616
 20
120.246
 11
2.2
 21
120
  0
LINE
  8
0
 10
2.2
 20
120
 11
2.18616
 21
119.754
  0
LINE
  8
0
 10
2.18616
 20
119.754
 11
2.14484
 21
119.51
  0
LINE
  8
0
 10
2.14484
 20
119.51
 11
2.07654
 21
119.273
  0
LINE
  8
0
 10
2.07654
 20
119.273
 11
1.98212
 21
119.045
  0
LINE
  8
0
 10
1.98212
 20
119.045
 11
1.86279
 21
118.83
  0
LINE
  8
0
 10
1.86279
 20
118.83
 11
1.72002
 21
118.628
  0
LINE
  8
0
 10
1.72002
 20
118.628
 11
1.55563
 21
118.444
  0
LINE
  8
0
 10
1.55563
 20
118.444
 11
1.37167
 21
118.28
  0
LINE
  8
0
 10
1.37167
 20
118.28
 11
1.17046
 21
118.137
  0
LINE
  8
0
 10
1.17046
 20
118.137
 11
0.954544
 21
118.018
  0
LINE
  8
0
 10
0.954544
 20
118.018
 11
0.726608
 21
117.923
  0
LINE
  8
0
 10
0.726608
 20
117.923
 11
0.489532
 21
117.855
  0
LINE
  8
0
 10
0.489532
 20
117.855
 11
0.246307
 21
117.814
  0
LINE
  8
0
 10
0.246307
 20
117.814
 11
0
 21
117.8
  0
LINE
  8
0
 10
0
 20
117.8
 11
-0.246307
 21
117.814
  0
LINE
  8
0
 10
-125.246
 20
117.814
 11
-125.49
 21
117.855
  0
LINE
  8
0
 10
-125.49
 20
117.855
 11
-125.727
 21
117.923
  0
LINE
  8
0
 10
-125.727
 20
117.923
 11
-125.955
 21
118.018
  0
LINE
  8
0
 10
-125.955
 20
118.018
 11
-126.17
 21
118.137
  0
LINE
  8
0
 10
-126.17
 20
118.137
 11
-126.372
 21
118.28
  0
LINE
  8
0
 10
-126.372
 20
118.28
 11
-126.556
 21
118.444
  0
LINE
  8
0
 10
-126.556
 20
118.444
 11
-126.72
 21
118.628
  0
LINE
  8
0
 10
-126.72
 20
118.628
 11
-126.863
 21
118.83
  0
LINE
  8
0
 10
-126.863
 20
118.83
 11
-126.982
 21
119.045
  0
LINE
  8
0
 10
-126.982
 20
119.045
 11
-127.077
 21
119.273
  0
LINE
  8
0
 10
-127.077
 20
119.273
 11
-127.145
 21
119.51
  0
LINE
  8
0
 10
-127.145
 20
119.51
 11
-127.186
 21
119.754
  0
LINE
  8
0
 10
-127.186
 20
119.754
 11
-127.2
 21
120
  0
LINE
  8
0
 10
-127.2
 20
120
 11
-127.186
 21
120.246
  0
LINE
  8
0
 10
-127.186
 20
120.246
 11
-127.145
 21
120.49
  0
LINE
  8
0
 10
-127.145
 20
120.49
 11
-127.077
 21
120.727
  0
LINE
  8
0
 10
-127.077
 20
120.727
 11
-126.982
 21
120.955
  0
LINE
  8
0
 10
-126.982
 20
120.955
 11
-126.863
 21
121.17
  0
LINE
  8
0
 10
-126.863
 20
121.17
 11
-126.72
 21
121.372
  0
LINE
  8
0
 10
-126.72
 20
121.372
 11
-126.556
 21
121.556
  0
LINE
  8
0
 10
-126.556
 20
121.556
 11
-126.372
 21
121.72
  0
LINE
  8
0
 10
-126.372
 20
121.72
 11
-126.17
 21
121.863
  0
LINE
  8
0
 10
-126.17
 20
121.863
 11
-125.955
 21
121.982
  0
LINE
  8
0
 10
-125.955
 20
121.982
 11
-125.727
 21
122.077
  0
LINE
  8
0
 10
-125.727
 20
122.077
 11
-125.49
 21
122.145
  0
LINE
  8
0
 10
-125.49
 20
122.145
 11
-125.246
 21
122.186
  0
LINE
  8
0
 10
-125.246
 20
122.186
 11
-125
 21
122.2
  0
LINE
  8
0
 10
-125
 20
122.2
 11
-124.754
 21
122.186
  0
LINE
  8
0
 10
-124.754
 20
122.186
 11
-124.51
 21
122.145
  0
LINE
  8
0
 10
-124.51
 20
122.145
 11
-124.273
 21
122.077
  0
LINE
  8
0
 10
-124.273
 20
122.077
 11
-124.045
 21
121.982
  0
LINE
  8
0
 10
-124.045
 20
121.982
 11
-123.83
 21
121.863
  0
LINE
  8
0
 10
-123.83
 20
121.863
 11
-123.628
 21
121.72
  0
LINE
  8
0
 10
-123.628
 20
121.72
 11
-123.444
 21
121.556
  0
LINE
  8
0
 10
-123.444
 20
121.556
 11
-123.28
 21
121.372
  0
LINE
  8
0
 10
-123.28
 20
121.372
 11
-123.137
 21
121.17
  0
LINE
  8
0
 10
-123.137
 20
121.17
 11
-123.018
 21
120.955
  0
LINE
  8
0
 10
-123.018
 20
120.955
 11
-122.923
 21
120.727
  0
LINE
  8
0
 10
-122.923
 20
120.727
 11
-122.855
 21
120.49
  0
LINE
  8
0
 10
-122.855
 20
120.49
 11
-122.814
 21
120.246
  0
LINE
  8
0
 10
-122.814
 20
120.246
 11
-122.8
 21
120
  0
LINE
  8
0
 10
-122.8
 20
120
 11
-122.814
 21
119.754
  0
LINE
  8
0
 10
-122.814
 20
119.754
 11
-122.855
 21
119.51
  0
LINE
  8
0
 10
-122.855
 20
119.51
 11
-122.923
 21
119.273
  0
LINE
  8
0
 10
-122.923
 20
119.273
 11
-123.018
 21
119.045
  0
LINE
  8
0
 10
-123.018
 20
119.045
 11
-123.137
 21
118.83
  0
LINE
  8
0
 10
-123.137
 20
118.83
 11
-123.28
 21
118.628
  0
LINE
  8
0
 10
-123.28
 20
118.628
 11
-123.444
 21
118.444
  0
LINE
  8
0
 10
-123.444
 20
118.444
 11
-123.628
 21
118.28
  0
LINE
  8
0
 10
-123.628
 20
118.28
 11
-123.83
 21
118.137
  0
LINE
  8
0
 10
-123.83
 20
118.137
 11
-124.045
 21
118.018
  0
LINE
  8
0
 10
-124.045
 20
118.018
 11
-124.273
 21
117.923
  0
LINE
  8
0
 10
-124.273
 20
117.923
 11
-124.51
 21
117.855
  0
LINE
  8
0
 10
-124.51
 20
117.855
 11
-124.754
 21
117.814
  0
LINE
  8
0
 10
-124.754
 20
117.814
 11
-125
 21
117.8
  0
LINE
  8
0
 10
-125
 20
117.8
 11
-125.246
 21
117.814
  0
LINE
  8
0
 10
124.754
 20
117.814
 11
124.51
 21
117.855
  0
LINE
  8
0
 10
124.51
 20
117.855
 11
124.273
 21
117.923
  0
LINE
  8
0
 10
124.273
 20
117.923
 11
124.045
 21
118.018
  0
LINE
  8
0
 10
124.045
 20
118.018
 11
123.83
 21
118.137
  0
LINE
  8
0
 10
123.83
 20
118.137
 11
123.628
 21
118.28
  0
LINE
  8
0
 10
123.628
 20
118.28
 11
123.444
 21
118.444
  0
LINE
  8
0
 10
123.444
 20
118.444
 11
123.28
 21
118.628
  0
LINE
  8
0
 10
123.28
 20
118.628
 11
123.137
 21
118.83
  0
LINE
  8
0
 10
123.137
 20
118.83
 11
123.018
 21
119.045
  0
LINE
  8
0
 10
123.018
 20
119.045
 11
122.923
 21
119.273
  0
LINE
  8
0
 10
122.923
 20
119.273
 11
122.855
 21
119.51
  0
LINE
  8
0
 10
122.855
 20
119.51
 11
122.814
 21
119.754
  0
LINE
  8
0
 10
122.814
 20
119.754
 11
122.8
 21
120
  0
LINE
  8
0
 10
122.8
 20
120
 11
122.814
 21
120.246
  0
LINE
  8
0
 10
122.814
 20
120.246
 11
122.855
 21
120.49
  0
LINE
  8
0
 10
122.855
 20
120.49
 11
122.923
 21
120.727
  0
LINE
  8
0
 10
122.923
 20
120.727
 11
123.018
 21
120.955
  0
LINE
  8
0
 10
123.018
 20
120.955
 11
123.137
 21
121.17
  0
LINE
  8
0
 10
123.137
 20
121.17
 11
123.28
 21
121.372
  0
LINE
  8
0
 10
123.28
 20
121.372
 11
123.444
 21
121.556
  0
LINE
  8
0
 10
123.444
 20
121.556
 11
123.628
 21
121.72
  0
LINE
  8
0
 10
123.628
 20
121.72
 11
123.83
 21
121.863
  0
LINE
  8
0
 10
123.83
 20
121.863
 11
124.045
 21
121.982
  0
LINE
  8
0
 10
124.045
 20
121.982
 11
124.273
 21
122.077
  0
LINE
  8
0
 10
124.273
 20
122.077
 11
124.51
 21
122.145
  0
LINE
  8
0
 10
124.51
 20
122.145
 11
124.754
 21
122.186
  0
LINE
  8
0
 10
124.754
 20
122.186
 11
125
 21
122.2
  0
LINE
  8
0
 10
125
 20
122.2
 11
125.246
 21
122.186
  0
LINE
  8
0
 10
125.246
 20
122.186
 11
125.49
 21
122.145
  0
LINE
  8
0
 10
125.49
 20
122.145
 11
125.727
 21
122.077
  0
LINE
  8
0
 10
125.727
 20
122.077
 11
125.955
 21
121.982
  0
LINE
  8
0
 10
125.955
 20
121.982
 11
126.17
 21
121.863
  0
LINE
  8
0
 10
126.17
 20
121.863
 11
126.372
 21
121.72
  0
LINE
  8
0
 10
126.372
 20
121.72
 11
126.556
 21
121.556
  0
LINE
  8
0
 10
126.556
 20
121.556
 11
126.72
 21
121.372
  0
LINE
  8
0
 10
126.72
 20
121.372
 11
126.863
 21
121.17
  0
LINE
  8
0
 10
126.863
 20
121.17
 11
126.982
 21
120.955
  0
LINE
  8
0
 10
126.982
 20
120.955
 11
127.077
 21
120.727
  0
LINE
  8
0
 10
127.077
 20
120.727
 11
127.145
 21
120.49
  0
LINE
  8
0
 10
127.145
 20
120.49
 11
127.186
 21
120.246
  0
LINE
  8
0
 10
127.186
 20
120.246
 11
127.2
 21
120
  0
LINE
  8
0
 10
127.2
 20
120
 11
127.186
 21
119.754
  0
LINE
  8
0
 10
127.186
 20
119.754
 11
127.145
 21
119.51
  0
LINE
  8
0
 10
127.145
 20
119.51
 11
127.077
 21
119.273
  0
LINE
  8
0
 10
127.077
 20
119.273
 11
126.982
 21
119.045
  0
LINE
  8
0
 10
126.982
 20
119.045
 11
126.863
 21
118.83
  0
LINE
  8
0
 10
126.863
 20
118.83
 11
126.72
 21
118.628
  0
LINE
  8
0
 10
126.72
 20
118.628
 11
126.556
 21
118.444
  0
LINE
  8
0
 10
126.556
 20
118.444
 11
126.372
 21
118.28
  0
LINE
  8
0
 10
126.372
 20
118.28
 11
126.17
 21
118.137
  0
LINE
  8
0
 10
126.17
 20
118.137
 11
125.955
 21
118.018
  0
LINE
  8
0
 10
125.955
 20
118.018
 11
125.727
 21
117.923
  0
LINE
  8
0
 10
125.727
 20
117.923
 11
125.49
 21
117.855
  0
LINE
  8
0
 10
125.49
 20
117.855
 11
125.246
 21
117.814
  0
LINE
  8
0
 10
125.246
 20
117.814
 11
125
 21
117.8
  0
LINE
  8
0
 10
125
 20
117.8
 11
124.754
 21
117.814
  0
LINE
  8
0
 10
-185.246
 20
66.1472
 11
-185.49
 21
66.1885
  0
LINE
  8
0
 10
-185.49
 20
66.1885
 11
-185.727
 21
66.2568
  0
LINE
  8
0
 10
-185.727
 20
66.2568
 11
-185.955
 21
66.3512
  0
LINE
  8
0
 10
-185.955
 20
66.3512
 11
-186.17
 21
66.4705
  0
LINE
  8
0
 10
-186.17
 20
66.4705
 11
-186.372
 21
66.6133
  0
LINE
  8
0
 10
-186.372
 20
66.6133
 11
-186.556
 21
66.7777
  0
LINE
  8
0
 10
-186.556
 20
66.7777
 11
-186.72
 21
66.9617
  0
LINE
  8
0
 10
-186.72
 20
66.9617
 11
-186.863
 21
67.1629
  0
LINE
  8
0
 10
-186.863
 20
67.1629
 11
-186.982
 21
67.3788
  0
LINE
  8
0
 10
-186.982
 20
67.3788
 11
-187.077
 21
67.6067
  0
LINE
  8
0
 10
-187.077
 20
67.6067
 11
-187.145
 21
67.8438
  0
LINE
  8
0
 10
-187.145
 20
67.8438
 11
-187.186
 21
68.087
  0
LINE
  8
0
 10
-187.186
 20
68.087
 11
-187.2
 21
68.3333
  0
LINE
  8
0
 10
-187.2
 20
68.3333
 11
-187.186
 21
68.5797
  0
LINE
  8
0
 10
-187.186
 20
68.5797
 11
-187.145
 21
68.8229
  0
LINE
  8
0
 10
-187.145
 20
68.8229
 11
-187.077
 21
69.0599
  0
LINE
  8
0
 10
-187.077
 20
69.0599
 11
-186.982
 21
69.2879
  0
LINE
  8
0
 10
-186.982
 20
69.2879
 11
-186.863
 21
69.5038
  0
LINE
  8
0
 10
-186.863
 20
69.5038
 11
-186.72
 21
69.705
  0
LINE
  8
0
 10
-186.72
 20
69.705
 11
-186.556
 21
69.889
  0
LINE
  8
0
 10
-186.556
 20
69.889
 11
-186.372
 21
70.0534
  0
LINE
  8
0
 10
-186.372
 20
70.0534
 11
-186.17
 21
70.1961
  0
LINE
  8
0
 10
-186.17
 20
70.1961
 11
-185.955
 21
70.3155
  0
LINE
  8
0
 10
-185.955
 20
70.3155
 11
-185.727
 21
70.4099
  0
LINE
  8
0
 10
-185.727
 20
70.4099
 11
-185.49
 21
70.4782
  0
LINE
  8
0
 10
-185.49
 20
70.4782
 11
-185.246
 21
70.5195
  0
LINE
  8
0
 10
-185.246
 20
70.5195
 11
-185
 21
70.5333
  0
LINE
  8
0
 10
-185
 20
70.5333
 11
-184.754
 21
70.5195
  0
LINE
  8
0
 10
-184.754
 20
70.5195
 11
-184.51
 21
70.4782
  0
LINE
  8
0
 10
-184.51
 20
70.4782
 11
-184.273
 21
70.4099
  0
LINE
  8
0
 10
-184.273
 20
70.4099
 11
-184.045
 21
70.3155
  0
LINE
  8
0
 10
-184.045
 20
70.3155
 11
-183.83
 21
70.1961
  0
LINE
  8
0
 10
-183.83
 20
70.1961
 11
-183.628
 21
70.0534
  0
LINE
  8
0
 10
-183.628
 20
70.0534
 11
-183.444
 21
69.889
  0
LINE
  8
0
 10
-183.444
 20
69.889
 11
-183.28
 21
69.705
  0
LINE
  8
0
 10
-183.28
 20
69.705
 11
-183.137
 21
69.5038
  0
LINE
  8
0
 10
-183.137
 20
69.5038
 11
-183.018
 21
69.2879
  0
LINE
  8
0
 10
-183.018
 20
69.2879
 11
-182.923
 21
69.0599
  0
LINE
  8
0
 10
-182.923
 20
69.0599
 11
-182.855
 21
68.8229
  0
LINE
  8
0
 10
-182.855
 20
68.8229
 11
-182.814
 21
68.5797
  0
LINE
  8
0
 10
-182.814
 20
68.5797
 11
-182.8
 21
68.3333
  0
LINE
  8
0
 10
-182.8
 20
68.3333
 11
-182.814
 21
68.087
  0
LINE
  8
0
 10
-182.814
 20
68.087
 11
-182.855
 21
67.8438
  0
LINE
  8
0
 10
-182.855
 20
67.8438
 11
-182.923
 21
67.6067
  0
LINE
  8
0
 10
-182.923
 20
67.6067
 11
-183.018
 21
67.3788
  0
LINE
  8
0
 10
-183.018
 20
67.3788
 11
-183.137
 21
67.1629
  0
LINE
  8
0
 10
-183.137
 20
67.1629
 11
-183.28
 21
66.9617
  0
LINE
  8
0
 10
-183.28
 20
66.9617
 11
-183.444
 21
66.7777
  0
LINE
  8
0
 10
-183.444
 20
66.7777
 11
-183.628
 21
66.6133
  0
LINE
  8
0
 10
-183.628
 20
66.6133
 11
-183.83
 21
66.4705
  0
LINE
  8
0
 10
-183.83
 20
66.4705
 11
-184.045
 21
66.3512
  0
LINE
  8
0
 10
-184.045
 20
66.3512
 11
-184.273
 21
66.2568
  0
LINE
  8
0
 10
-184.273
 20
66.2568
 11
-184.51
 21
66.1885
  0
LINE
  8
0
 10
-184.51
 20
66.1885
 11
-184.754
 21
66.1472
  0
LINE
  8
0
 10
-184.754
 20
66.1472
 11
-185
 21
66.1333
  0
LINE
  8
0
 10
-185
 20
66.1333
 11
-185.246
 21
66.1472
  0
LINE
  8
0
 10
184.754
 20
66.1472
 11
184.51
 21
66.1885
  0
LINE
  8
0
 10
184.51
 20
66.1885
 11
184.273
 21
66.2568
  0
LINE
  8
0
 10
184.273
 20
66.2568
 11
184.045
 21
66.3512
  0
LINE
  8
0
 10
184.045
 20
66.3512
 11
183.83
 21
66.4705
  0
LINE
  8
0
 10
183.83
 20
66.4705
 11
183.628
 21
66.6133
  0
LINE
  8
0
 10
183.628
 20
66.6133
 11
183.444
 21
66.7777
  0
LINE
  8
0
 10
183.444
 20
66.7777
 11
183.28
 21
66.9617
  0
LINE
  8
0
 10
183.28
 20
66.9617
 11
183.137
 21
67.1629
  0
LINE
  8
0
 10
183.137
 20
67.1629
 11
183.018
 21
67.3788
  0
LINE
  8
0
 10
183.018
 20
67.3788
 11
182.923
 21
67.6067
  0
LINE
  8
0
 10
182.923
 20
67.6067
 11
182.855
 21
67.8438
  0
LINE
  8
0
 10
182.855
 20
67.8438
 11
182.814
 21
68.087
  0
LINE
  8
0
 10
182.814
 20
68.087
 11
182.8
 21
68.3333
  0
LINE
  8
0
 10
182.8
 20
68.3333
 11
182.814
 21
68.5797
  0
LINE
  8
0
 10
182.814
 20
68.5797
 11
182.855
 21
68.8229
  0
LINE
  8
0
 10
182.855
 20
68.8229
 11
182.923
 21
69.0599
  0
LINE
  8
0
 10
182.923
 20
69.0599
 11
183.018
 21
69.2879
  0
LINE
  8
0
 10
183.018
 20
69.2879
 11
183.137
 21
69.5038
  0
LINE
  8
0
 10
183.137
 20
69.5038
 11
183.28
 21
69.705
  0
LINE
  8
0
 10
183.28
 20
69.705
 11
183.444
 21
69.889
  0
LINE
  8
0
 10
183.444
 20
69.889
 11
183.628
 21
70.0534
  0
LINE
  8
0
 10
183.628
 20
70.0534
 11
183.83
 21
70.1961
  0
LINE
  8
0
 10
183.83
 20
70.1961
 11
184.045
 21
70.3155
  0
LINE
  8
0
 10
184.045
 20
70.3155
 11
184.273
 21
70.4099
  0
LINE
  8
0
 10
184.273
 20
70.4099
 11
184.51
 21
70.4782
  0
LINE
  8
0
 10
184.51
 20
70.4782
 11
184.754
 21
70.5195
  0
LINE
  8
0
 10
184.754
 20
70.5195
 11
185
 21
70.5333
  0
LINE
  8
0
 10
185
 20
70.5333
 11
185.246
 21
70.5195
  0
LINE
  8
0
 10
185.246
 20
70.5195
 11
185.49
 21
70.4782
  0
LINE
  8
0
 10
185.49
 20
70.4782
 11
185.727
 21
70.4099
  0
LINE
  8
0
 10
185.727
 20
70.4099
 11
185.955
 21
70.3155
  0
LINE
  8
0
 10
185.955
 20
70.3155
 11
186.17
 21
70.1961
  0
LINE
  8
0
 10
186.17
 20
70.1961
 11
186.372
 21
70.0534
  0
LINE
  8
0
 10
186.372
 20
70.0534
 11
186.556
 21
69.889
  0
LINE
  8
0
 10
186.556
 20
69.889
 11
186.72
 21
69.705
  0
LINE
  8
0
 10
186.72
 20
69.705
 11
186.863
 21
69.5038
  0
LINE
  8
0
 10
186.863
 20
69.5038
 11
186.982
 21
69.2879
  0
LINE
  8
0
 10
186.982
 20
69.2879
 11
187.077
 21
69.0599
  0
LINE
  8
0
 10
187.077
 20
69.0599
 11
187.145
 21
68.8229
  0
LINE
  8
0
 10
187.145
 20
68.8229
 11
187.186
 21
68.5797
  0
LINE
  8
0
 10
187.186
 20
68.5797
 11
187.2
 21
68.3333
  0
LINE
  8
0
 10
187.2
 20
68.3333
 11
187.186
 21
68.087
  0
LINE
  8
0
 10
187.186
 20
68.087
 11
187.145
 21
67.8438
  0
LINE
  8
0
 10
187.145
 20
67.8438
 11
187.077
 21
67.6067
  0
LINE
  8
0
 10
187.077
 20
67.6067
 11
186.982
 21
67.3788
  0
LINE
  8
0
 10
186.982
 20
67.3788
 11
186.863
 21
67.1629
  0
LINE
  8
0
 10
186.863
 20
67.1629
 11
186.72
 21
66.9617
  0
LINE
  8
0
 10
186.72
 20
66.9617
 11
186.556
 21
66.7777
  0
LINE
  8
0
 10
186.556
 20
66.7777
 11
186.372
 21
66.6133
  0
LINE
  8
0
 10
186.372
 20
66.6133
 11
186.17
 21
66.4705
  0
LINE
  8
0
 10
186.17
 20
66.4705
 11
185.955
 21
66.3512
  0
LINE
  8
0
 10
185.955
 20
66.3512
 11
185.727
 21
66.2568
  0
LINE
  8
0
 10
185.727
 20
66.2568
 11
185.49
 21
66.1885
  0
LINE
  8
0
 10
185.49
 20
66.1885
 11
185.246
 21
66.1472
  0
LINE
  8
0
 10
185.246
 20
66.1472
 11
185
 21
66.1333
  0
LINE
  8
0
 10
185
 20
66.1333
 11
184.754
 21
66.1472
  0
LINE
  8
0
 10
-185.246
 20
-70.5195
 11
-185.49
 21
-70.4782
  0
LINE
  8
0
 10
-185.49
 20
-70.4782
 11
-185.727
 21
-70.4099
  0
LINE
  8
0
 10
-185.727
 20
-70.4099
 11
-185.955
 21
-70.3155
  0
LINE
  8
0
 10
-185.955
 20
-70.3155
 11
-186.17
 21
-70.1961
  0
LINE
  8
0
 10
-186.17
 20
-70.1961
 11
-186.372
 21
-70.0534
  0
LINE
  8
0
 10
-186.372
 20
-70.0534
 11
-186.556
 21
-69.889
  0
LINE
  8
0
 10
-186.556
 20
-69.889
 11
-186.72
 21
-69.705
  0
LINE
  8
0
 10
-186.72
 20
-69.705
 11
-186.863
 21
-69.5038
  0
LINE
  8
0
 10
-186.863
 20
-69.5038
 11
-186.982
 21
-69.2879
  0
LINE
  8
0
 10
-186.982
 20
-69.2879
 11
-187.077
 21
-69.0599
  0
LINE
  8
0
 10
-187.077
 20
-69.0599
 11
-187.145
 21
-68.8229
  0
LINE
  8
0
 10
-187.145
 20
-68.8229
 11
-187.186
 21
-68.5797
  0
LINE
  8
0
 10
-187.186
 20
-68.5797
 11
-187.2
 21
-68.3333
  0
LINE
  8
0
 10
-187.2
 20
-68.3333
 11
-187.186
 21
-68.087
  0
LINE
  8
0
 10
-187.186
 20
-68.087
 11
-187.145
 21
-67.8438
  0
LINE
  8
0
 10
-187.145
 20
-67.8438
 11
-187.077
 21
-67.6067
  0
LINE
  8
0
 10
-187.077
 20
-67.6067
 11
-186.982
 21
-67.3788
  0
LINE
  8
0
 10
-186.982
 20
-67.3788
 11
-186.863
 21
-67.1629
  0
LINE
  8
0
 10
-186.863
 20
-67.1629
 11
-186.72
 21
-66.9617
  0
LINE
  8
0
 10
-186.72
 20
-66.9617
 11
-186.556
 21
-66.7777
  0
LINE
  8
0
 10
-186.556
 20
-66.7777
 11
-186.372
 21
-66.6133
  0
LINE
  8
0
 10
-186.372
 20
-66.6133
 11
-186.17
 21
-66.4705
  0
LINE
  8
0
 10
-186.17
 20
-66.4705
 11
-185.955
 21
-66.3512
  0
LINE
  8
0
 10
-185.955
 20
-66.3512
 11
-185.727
 21
-66.2568
  0
LINE
  8
0
 10
-185.727
 20
-66.2568
 11
-185.49
 21
-66.1885
  0
LINE
  8
0
 10
-185.49
 20
-66.1885
 11
-185.246
 21
-66.1472
  0
LINE
  8
0
 10
-185.246
 20
-66.1472
 11
-185
 21
-66.1333
  0
LINE
  8
0
 10
-185
 20
-66.1333
 11
-184.754
 21
-66.1472
  0
LINE
  8
0
 10
-184.754
 20
-66.1472
 11
-184.51
 21
-66.1885
  0
LINE
  8
0
 10
-184.51
 20
-66.1885
 11
-184.273
 21
-66.2568
  0
LINE
  8
0
 10
-184.273
 20
-66.2568
 11
-184.045
 21
-66.3512
  0
LINE
  8
0
 10
-184.045
 20
-66.3512
 11
-183.83
 21
-66.4705
  0
LINE
  8
0
 10
-183.83
 20
-66.4705
 11
-183.628
 21
-66.6133
  0
LINE
  8
0
 10
-183.628
 20
-66.6133
 11
-183.444
 21
-66.7777
  0
LINE
  8
0
 10
-183.444
 20
-66.7777
 11
-183.28
 21
-66.9617
  0
LINE
  8
0
 10
-183.28
 20
-66.9617
 11
-183.137
 21
-67.1629
  0
LINE
  8
0
 10
-183.137
 20
-67.1629
 11
-183.018
 21
-67.3788
  0
LINE
  8
0
 10
-183.018
 20
-67.3788
 11
-182.923
 21
-67.6067
  0
LINE
  8
0
 10
-182.923
 20
-67.6067
 11
-182.855
 21
-67.8438
  0
LINE
  8
0
 10
-182.855
 20
-67.8438
 11
-182.814
 21
-68.087
  0
LINE
  8
0
 10
-182.814
 20
-68.087
 11
-182.8
 21
-68.3333
  0
LINE
  8
0
 10
-182.8
 20
-68.3333
 11
-182.814
 21
-68.5797
  0
LINE
  8
0
 10
-182.814
 20
-68.5797
 11
-182.855
 21
-68.8229
  0
LINE
  8
0
 10
-182.855
 20
-68.8229
 11
-182.923
 21
-69.0599
  0
LINE
  8
0
 10
-182.923
 20
-69.0599
 11
-183.018
 21
-69.2879
  0
LINE
  8
0
 10
-183.018
 20
-69.2879
 11
-183.137
 21
-69.5038
  0
LINE
  8
0
 10
-183.137
 20
-69.5038
 11
-183.28
 21
-69.705
  0
LINE
  8
0
 10
-183.28
 20
-69.705
 11
-183.444
 21
-69.889
  0
LINE
  8
0
 10
-183.444
 20
-69.889
 11
-183.628
 21
-70.0534
  0
LINE
  8
0
 10
-183.628
 20
-70.0534
 11
-183.83
 21
-70.1961
  0
LINE
  8
0
 10
-183.83
 20
-70.1961
 11
-184.045
 21
-70.3155
  0
LINE
  8
0
 10
-184.045
 20
-70.3155
 11
-184.273
 21
-70.4099
  0
LINE
  8
0
 10
-184.273
 20
-70.4099
 11
-184.51
 21
-70.4782
  0
LINE
  8
0
 10
-184.51
 20
-70.4782
 11
-184.754
 21
-70.5195
  0
LINE
  8
0
 10
-184.754
 20
-70.5195
 11
-185
 21
-70.5333
  0
LINE
  8
0
 10
-185
 20
-70.5333
 11
-185.246
 21
-70.5195
  0
LINE
  8
0
 10
184.754
 20
-70.5195
 11
184.51
 21
-70.4782
  0
LINE
  8
0
 10
184.51
 20
-70.4782
 11
184.273
 21
-70.4099
  0
LINE
  8
0
 10
184.273
 20
-70.4099
 11
184.045
 21
-70.3155
  0
LINE
  8
0
 10
184.045
 20
-70.3155
 11
183.83
 21
-70.1961
  0
LINE
  8
0
 10
183.83
 20
-70.1961
 11
183.628
 21
-70.0534
  0
LINE
  8
0
 10
183.628
 20
-70.0534
 11
183.444
 21
-69.889
  0
LINE
  8
0
 10
183.444
 20
-69.889
 11
183.28
 21
-69.705
  0
LINE
  8
0
 10
183.28
 20
-69.705
 11
183.137
 21
-69.5038
  0
LINE
  8
0
 10
183.137
 20
-69.5038
 11
183.018
 21
-69.2879
  0
LINE
  8
0
 10
183.018
 20
-69.2879
 11
182.923
 21
-69.0599
  0
LINE
  8
0
 10
182.923
 20
-69.0599
 11
182.855
 21
-68.8229
  0
LINE
  8
0
 10
182.855
 20
-68.8229
 11
182.814
 21
-68.5797
  0
LINE
  8
0
 10
182.814
 20
-68.5797
 11
182.8
 21
-68.3333
  0
LINE
  8
0
 10
182.8
 20
-68.3333
 11
182.814
 21
-68.087
  0
LINE
  8
0
 10
182.814
 20
-68.087
 11
182.855
 21
-67.8438
  0
LINE
  8
0
 10
182.855
 20
-67.8438
 11
182.923
 21
-67.6067
  0
LINE
  8
0
 10
182.923
 20
-67.6067
 11
183.018
 21
-67.3788
  0
LINE
  8
0
 10
183.018
 20
-67.3788
 11
183.137
 21
-67.1629
  0
LINE
  8
0
 10
183.137
 20
-67.1629
 11
183.28
 21
-66.9617
  0
LINE
  8
0
 10
183.28
 20
-66.9617
 11
183.444
 21
-66.7777
  0
LINE
  8
0
 10
183.444
 20
-66.7777
 11
183.628
 21
-66.6133
  0
LINE
  8
0
 10
183.628
 20
-66.6133
 11
183.83
 21
-66.4705
  0
LINE
  8
0
 10
183.83
 20
-66.4705
 11
184.045
 21
-66.3512
  0
LINE
  8
0
 10
184.045
 20
-66.3512
 11
184.273
 21
-66.2568
  0
LINE
  8
0
 10
184.273
 20
-66.2568
 11
184.51
 21
-66.1885
  0
LINE
  8
0
 10
184.51
 20
-66.1885
 11
184.754
 21
-66.1472
  0
LINE
  8
0
 10
184.754
 20
-66.1472
 11
185
 21
-66.1333
  0
LINE
  8
0
 10
185
 20
-66.1333
 11
185.246
 21
-66.1472
  0
LINE
  8
0
 10
185.246
 20
-66.1472
 11
185.49
 21
-66.1885
  0
LINE
  8
0
 10
185.49
 20
-66.1885
 11
185.727
 21
-66.2568
  0
LINE
  8
0
 10
185.727
 20
-66.2568
 11
185.955
 21
-66.3512
  0
LINE
  8
0
 10
185.955
 20
-66.3512
 11
186.17
 21
-66.4705
  0
LINE
  8
0
 10
186.17
 20
-66.4705
 11
186.372
 21
-66.6133
  0
LINE
  8
0
 10
186.372
 20
-66.6133
 11
186.556
 21
-66.7777
  0
LINE
  8
0
 10
186.556
 20
-66.7777
 11
186.72
 21
-66.9617
  0
LINE
  8
0
 10
186.72
 20
-66.9617
 11
186.863
 21
-67.1629
  0
LINE
  8
0
 10
186.863
 20
-67.1629
 11
186.982
 21
-67.3788
  0
LINE
  8
0
 10
186.982
 20
-67.3788
 11
187.077
 21
-67.6067
  0
LINE
  8
0
 10
187.077
 20
-67.6067
 11
187.145
 21
-67.8438
  0
LINE
  8
0
 10
187.145
 20
-67.8438
 11
187.186
 21
-68.087
  0
LINE
  8
0
 10
187.186
 20
-68.087
 11
187.2
 21
-68.3333
  0
LINE
  8
0
 10
187.2
 20
-68.3333
 11
187.186
 21
-68.5797
  0
LINE
  8
0
 10
187.186
 20
-68.5797
 11
187.145
 21
-68.8229
  0
LINE
  8
0
 10
187.145
 20
-68.8229
 11
187.077
 21
-69.0599
  0
LINE
  8
0
 10
187.077
 20
-69.0599
 11
186.982
 21
-69.2879
  0
LINE
  8
0
 10
186.982
 20
-69.2879
 11
186.863
 21
-69.5038
  0
LINE
  8
0
 10
186.863
 20
-69.5038
 11
186.72
 21
-69.705
  0
LINE
  8
0
 10
186.72
 20
-69.705
 11
186.556
 21
-69.889
  0
LINE
  8
0
 10
186.556
 20
-69.889
 11
186.372
 21
-70.0534
  0
LINE
  8
0
 10
186.372
 20
-70.0534
 11
186.17
 21
-70.1961
  0
LINE
  8
0
 10
186.17
 20
-70.1961
 11
185.955
 21
-70.3155
  0
LINE
  8
0
 10
185.955
 20
-70.3155
 11
185.727
 21
-70.4099
  0
LINE
  8
0
 10
185.727
 20
-70.4099
 11
185.49
 21
-70.4782
  0
LINE
  8
0
 10
185.49
 20
-70.4782
 11
185.246
 21
-70.5195
  0
LINE
  8
0
 10
185.246
 20
-70.5195
 11
185
 21
-70.5333
  0
LINE
  8
0
 10
185
 20
-70.5333
 11
184.754
 21
-70.5195
  0
LINE
  8
0
 10
184.754
 20
-207.186
 11
184.51
 21
-207.145
  0
LINE
  8
0
 10
184.51
 20
-207.145
 11
184.273
 21
-207.077
  0
LINE
  8
0
 10
184.273
 20
-207.077
 11
184.045
 21
-206.982
  0
LINE
  8
0
 10
184.045
 20
-206.982
 11
183.83
 21
-206.863
  0
LINE
  8
0
 10
183.83
 20
-206.863
 11
183.628
 21
-206.72
  0
LINE
  8
0
 10
183.628
 20
-206.72
 11
183.444
 21
-206.556
  0
LINE
  8
0
 10
183.444
 20
-206.556
 11
183.28
 21
-206.372
  0
LINE
  8
0
 10
183.28
 20
-206.372
 11
183.137
 21
-206.17
  0
LINE
  8
0
 10
183.137
 20
-206.17
 11
183.018
 21
-205.955
  0
LINE
  8
0
 10
183.018
 20
-205.955
 11
182.923
 21
-205.727
  0
LINE
  8
0
 10
182.923
 20
-205.727
 11
182.855
 21
-205.49
  0
LINE
  8
0
 10
182.855
 20
-205.49
 11
182.814
 21
-205.246
  0
LINE
  8
0
 10
182.814
 20
-205.246
 11
182.8
 21
-205
  0
LINE
  8
0
 10
182.8
 20
-205
 11
182.814
 21
-204.754
  0
LINE
  8
0
 10
182.814
 20
-204.754
 11
182.855
 21
-204.51
  0
LINE
  8
0
 10
182.855
 20
-204.51
 11
182.923
 21
-204.273
  0
LINE
  8
0
 10
182.923
 20
-204.273
 11
183.018
 21
-204.045
  0
LINE
  8
0
 10
183.018
 20
-204.045
 11
183.137
 21
-203.83
  0
LINE
  8
0
 10
183.137
 20
-203.83
 11
183.28
 21
-203.628
  0
LINE
  8
0
 10
183.28
 20
-203.628
 11
183.444
 21
-203.444
  0
LINE
  8
0
 10
183.444
 20
-203.444
 11
183.628
 21
-203.28
  0
LINE
  8
0
 10
183.628
 20
-203.28
 11
183.83
 21
-203.137
  0
LINE
  8
0
 10
183.83
 20
-203.137
 11
184.045
 21
-203.018
  0
LINE
  8
0
 10
184.045
 20
-203.018
 11
184.273
 21
-202.923
  0
LINE
  8
0
 10
184.273
 20
-202.923
 11
184.51
 21
-202.855
  0
LINE
  8
0
 10
184.51
 20
-202.855
 11
184.754
 21
-202.814
  0
LINE
  8
0
 10
184.754
 20
-202.814
 11
185
 21
-202.8
  0
LINE
  8
0
 10
185
 20
-202.8
 11
185.246
 21
-202.814
  0
LINE
  8
0
 10
185.246
 20
-202.814
 11
185.49
 21
-202.855
  0
LINE
  8
0
 10
185.49
 20
-202.855
 11
185.727
 21
-202.923
  0
LINE
  8
0
 10
185.727
 20
-202.923
 11
185.955
 21
-203.018
  0
LINE
  8
0
 10
185.955
 20
-203.018
 11
186.17
 21
-203.137
  0
LINE
  8
0
 10
186.17
 20
-203.137
 11
186.372
 21
-203.28
  0
LINE
  8
0
 10
186.372
 20
-203.28
 11
186.556
 21
-203.444
  0
LINE
  8
0
 10
186.556
 20
-203.444
 11
186.72
 21
-203.628
  0
LINE
  8
0
 10
186.72
 20
-203.628
 11
186.863
 21
-203.83
  0
LINE
  8
0
 10
186.863
 20
-203.83
 11
186.982
 21
-204.045
  0
LINE
  8
0
 10
186.982
 20
-204.045
 11
187.077
 21
-204.273
  0
LINE
  8
0
 10
187.077
 20
-204.273
 11
187.145
 21
-204.51
  0
LINE
  8
0
 10
187.145
 20
-204.51
 11
187.186
 21
-204.754
  0
LINE
  8
0
 10
187.186
 20
-204.754
 11
187.2
 21
-205
  0
LINE
  8
0
 10
187.2
 20
-205
 11
187.186
 21
-205.246
  0
LINE
  8
0
 10
187.186
 20
-205.246
 11
187.145
 21
-205.49
  0
LINE
  8
0
 10
187.145
 20
-205.49
 11
187.077
 21
-205.727
  0
LINE
  8
0
 10
187.077
 20
-205.727
 11
186.982
 21
-205.955
  0
LINE
  8
0
 10
186.982
 20
-205.955
 11
186.863
 21
-206.17
  0
LINE
  8
0
 10
186.863
 20
-206.17
 11
186.72
 21
-206.372
  0
LINE
  8
0
 10
186.72
 20
-206.372
 11
186.556
 21
-206.556
  0
LINE
  8
0
 10
186.556
 20
-206.556
 11
186.372
 21
-206.72
  0
LINE
  8
0
 10
186.372
 20
-206.72
 11
186.17
 21
-206.863
  0
LINE
  8
0
 10
186.17
 20
-206.863
 11
185.955
 21
-206.982
  0
LINE
  8
0
 10
185.955
 20
-206.982
 11
185.727
 21
-207.077
  0
LINE
  8
0
 10
185.727
 20
-207.077
 11
185.49
 21
-207.145
  0
LINE
  8
0
 10
185.49
 20
-207.145
 11
185.246
 21
-207.186
  0
LINE
  8
0
 10
185.246
 20
-207.186
 11
185
 21
-207.2
  0
LINE
  8
0
 10
185
 20
-207.2
 11
184.754
 21
-207.186
  0
LINE
  8
0
 10
-185.246
 20
-207.186
 11
-185.49
 21
-207.145
  0
LINE
  8
0
 10
-185.49
 20
-207.145
 11
-185.727
 21
-207.077
  0
LINE
  8
0
 10
-185.727
 20
-207.077
 11
-185.955
 21
-206.982
  0
LINE
  8
0
 10
-185.955
 20
-206.982
 11
-186.17
 21
-206.863
  0
LINE
  8
0
 10
-186.17
 20
-206.863
 11
-186.372
 21
-206.72
  0
LINE
  8
0
 10
-186.372
 20
-206.72
 11
-186.556
 21
-206.556
  0
LINE
  8
0
 10
-186.556
 20
-206.556
 11
-186.72
 21
-206.372
  0
LINE
  8
0
 10
-186.72
 20
-206.372
 11
-186.863
 21
-206.17
  0
LINE
  8
0
 10
-186.863
 20
-206.17
 11
-186.982
 21
-205.955
  0
LINE
  8
0
 10
-186.982
 20
-205.955
 11
-187.077
 21
-205.727
  0
LINE
  8
0
 10
-187.077
 20
-205.727
 11
-187.145
 21
-205.49
  0
LINE
  8
0
 10
-187.145
 20
-205.49
 11
-187.186
 21
-205.246
  0
LINE
  8
0
 10
-187.186
 20
-205.246
 11
-187.2
 21
-205
  0
LINE
  8
0
 10
-187.2
 20
-205
 11
-187.186
 21
-204.754
  0
LINE
  8
0
 10
-187.186
 20
-204.754
 11
-187.145
 21
-204.51
  0
LINE
  8
0
 10
-187.145
 20
-204.51
 11
-187.077
 21
-204.273
  0
LINE
  8
0
 10
-187.077
 20
-204.273
 11
-186.982
 21
-204.045
  0
LINE
  8
0
 10
-186.982
 20
-204.045
 11
-186.863
 21
-203.83
  0
LINE
  8
0
 10
-186.863
 20
-203.83
 11
-186.72
 21
-203.628
  0
LINE
  8
0
 10
-186.72
 20
-203.628
 11
-186.556
 21
-203.444
  0
LINE
  8
0
 10
-186.556
 20
-203.444
 11
-186.372
 21
-203.28
  0
LINE
  8
0
 10
-186.372
 20
-203.28
 11
-186.17
 21
-203.137
  0
LINE
  8
0
 10
-186.17
 20
-203.137
 11
-185.955
 21
-203.018
  0
LINE
  8
0
 10
-185.955
 20
-203.018
 11
-185.727
 21
-202.923
  0
LINE
  8
0
 10
-185.727
 20
-202.923
 11
-185.49
 21
-202.855
  0
LINE
  8
0
 10
-185.49
 20
-202.855
 11
-185.246
 21
-202.814
  0
LINE
  8
0
 10
-185.246
 20
-202.814
 11
-185
 21
-202.8
  0
LINE
  8
0
 10
-185
 20
-202.8
 11
-184.754
 21
-202.814
  0
LINE
  8
0
 10
-184.754
 20
-202.814
 11
-184.51
 21
-202.855
  0
LINE
  8
0
 10
-184.51
 20
-202.855
 11
-184.273
 21
-202.923
  0
LINE
  8
0
 10
-184.273
 20
-202.923
 11
-184.045
 21
-203.018
  0
LINE
  8
0
 10
-184.045
 20
-203.018
 11
-183.83
 21
-203.137
  0
LINE
  8
0
 10
-183.83
 20
-203.137
 11
-183.628
 21
-203.28
  0
LINE
  8
0
 10
-183.628
 20
-203.28
 11
-183.444
 21
-203.444
  0
LINE
  8
0
 10
-183.444
 20
-203.444
 11
-183.28
 21
-203.628
  0
LINE
  8
0
 10
-183.28
 20
-203.628
 11
-183.137
 21
-203.83
  0
LINE
  8
0
 10
-183.137
 20
-203.83
 11
-183.018
 21
-204.045
  0
LINE
  8
0
 10
-183.018
 20
-204.045
 11
-182.923
 21
-204.273
  0
LINE
  8
0
 10
-182.923
 20
-204.273
 11
-182.855
 21
-204.51
  0
LINE
  8
0
 10
-182.855
 20
-204.51
 11
-182.814
 21
-204.754
  0
LINE
  8
0
 10
-182.814
 20
-204.754
 11
-182.8
 21
-205
  0
LINE
  8
0
 10
-182.8
 20
-205
 11
-182.814
 21
-205.246
  0
LINE
  8
0
 10
-182.814
 20
-205.246
 11
-182.855
 21
-205.49
  0
LINE
  8
0
 10
-182.855
 20
-205.49
 11
-182.923
 21
-205.727
  0
LINE
  8
0
 10
-182.923
 20
-205.727
 11
-183.018
 21
-205.955
  0
LINE
  8
0
 10
-183.018
 20
-205.955
 11
-183.137
 21
-206.17
  0
LINE
  8
0
 10
-183.137
 20
-206.17
 11
-183.28
 21
-206.372
  0
LINE
  8
0
 10
-183.28
 20
-206.372
 11
-183.444
 21
-206.556
  0
LINE
  8
0
 10
-183.444
 20
-206.556
 11
-183.628
 21
-206.72
  0
LINE
  8
0
 10
-183.628
 20
-206.72
 11
-183.83
 21
-206.863
  0
LINE
  8
0
 10
-183.83
 20
-206.863
 11
-184.045
 21
-206.982
  0
LINE
  8
0
 10
-184.045
 20
-206.982
 11
-184.273
 21
-207.077
  0
LINE
  8
0
 10
-184.273
 20
-207.077
 11
-184.51
 21
-207.145
  0
LINE
  8
0
 10
-184.51
 20
-207.145
 11
-184.754
 21
-207.186
  0
LINE
  8
0
 10
-184.754
 20
-207.186
 11
-185
 21
-207.2
  0
LINE
  8
0
 10
-185
 20
-207.2
 11
-185.246
 21
-207.186
  0
LINE
  8
0
 10
-125.246
 20
-217.186
 11
-125.49
 21
-217.145
  0
LINE
  8
0
 10
-125.49
 20
-217.145
 11
-125.727
 21
-217.077
  0
LINE
  8
0
 10
-125.727
 20
-217.077
 11
-125.955
 21
-216.982
  0
LINE
  8
0
 10
-125.955
 20
-216.982
 11
-126.17
 21
-216.863
  0
LINE
  8
0
 10
-126.17
 20
-216.863
 11
-126.372
 21
-216.72
  0
LINE
  8
0
 10
-126.372
 20
-216.72
 11
-126.556
 21
-216.556
  0
LINE
  8
0
 10
-126.556
 20
-216.556
 11
-126.72
 21
-216.372
  0
LINE
  8
0
 10
-126.72
 20
-216.372
 11
-126.863
 21
-216.17
  0
LINE
  8
0
 10
-126.863
 20
-216.17
 11
-126.982
 21
-215.955
  0
LINE
  8
0
 10
-126.982
 20
-215.955
 11
-127.077
 21
-215.727
  0
LINE
  8
0
 10
-127.077
 20
-215.727
 11
-127.145
 21
-215.49
  0
LINE
  8
0
 10
-127.145
 20
-215.49
 11
-127.186
 21
-215.246
  0
LINE
  8
0
 10
-127.186
 20
-215.246
 11
-127.2
 21
-215
  0
LINE
  8
0
 10
-127.2
 20
-215
 11
-127.186
 21
-214.754
  0
LINE
  8
0
 10
-127.186
 20
-214.754
 11
-127.145
 21
-214.51
  0
LINE
  8
0
 10
-127.145
 20
-214.51
 11
-127.077
 21
-214.273
  0
LINE
  8
0
 10
-127.077
 20
-214.273
 11
-126.982
 21
-214.045
  0
LINE
  8
0
 10
-126.982
 20
-214.045
 11
-126.863
 21
-213.83
  0
LINE
  8
0
 10
-126.863
 20
-213.83
 11
-126.72
 21
-213.628
  0
LINE
  8
0
 10
-126.72
 20
-213.628
 11
-126.556
 21
-213.444
  0
LINE
  8
0
 10
-126.556
 20
-213.444
 11
-126.372
 21
-213.28
  0
LINE
  8
0
 10
-126.372
 20
-213.28
 11
-126.17
 21
-213.137
  0
LINE
  8
0
 10
-126.17
 20
-213.137
 11
-125.955
 21
-213.018
  0
LINE
  8
0
 10
-125.955
 20
-213.018
 11
-125.727
 21
-212.923
  0
LINE
  8
0
 10
-125.727
 20
-212.923
 11
-125.49
 21
-212.855
  0
LINE
  8
0
 10
-125.49
 20
-212.855
 11
-125.246
 21
-212.814
  0
LINE
  8
0
 10
-125.246
 20
-212.814
 11
-125
 21
-212.8
  0
LINE
  8
0
 10
-125
 20
-212.8
 11
-124.754
 21
-212.814
  0
LINE
  8
0
 10
-124.754
 20
-212.814
 11
-124.51
 21
-212.855
  0
LINE
  8
0
 10
-124.51
 20
-212.855
 11
-124.273
 21
-212.923
  0
LINE
  8
0
 10
-124.273
 20
-212.923
 11
-124.045
 21
-213.018
  0
LINE
  8
0
 10
-124.045
 20
-213.018
 11
-123.83
 21
-213.137
  0
LINE
  8
0
 10
-123.83
 20
-213.137
 11
-123.628
 21
-213.28
  0
LINE
  8
0
 10
-123.628
 20
-213.28
 11
-123.444
 21
-213.444
  0
LINE
  8
0
 10
-123.444
 20
-213.444
 11
-123.28
 21
-213.628
  0
LINE
  8
0
 10
-123.28
 20
-213.628
 11
-123.137
 21
-213.83
  0
LINE
  8
0
 10
-123.137
 20
-213.83
 11
-123.018
 21
-214.045
  0
LINE
  8
0
 10
-123.018
 20
-214.045
 11
-122.923
 21
-214.273
  0
LINE
  8
0
 10
-122.923
 20
-214.273
 11
-122.855
 21
-214.51
  0
LINE
  8
0
 10
-122.855
 20
-214.51
 11
-122.814
 21
-214.754
  0
LINE
  8
0
 10
-122.814
 20
-214.754
 11
-122.8
 21
-215
  0
LINE
  8
0
 10
-122.8
 20
-215
 11
-122.814
 21
-215.246
  0
LINE
  8
0
 10
-122.814
 20
-215.246
 11
-122.855
 21
-215.49
  0
LINE
  8
0
 10
-122.855
 20
-215.49
 11
-122.923
 21
-215.727
  0
LINE
  8
0
 10
-122.923
 20
-215.727
 11
-123.018
 21
-215.955
  0
LINE
  8
0
 10
-123.018
 20
-215.955
 11
-123.137
 21
-216.17
  0
LINE
  8
0
 10
-123.137
 20
-216.17
 11
-123.28
 21
-216.372
  0
LINE
  8
0
 10
-123.28
 20
-216.372
 11
-123.444
 21
-216.556
  0
LINE
  8
0
 10
-123.444
 20
-216.556
 11
-123.628
 21
-216.72
  0
LINE
  8
0
 10
-123.628
 20
-216.72
 11
-123.83
 21
-216.863
  0
LINE
  8
0
 10
-123.83
 20
-216.863
 11
-124.045
 21
-216.982
  0
LINE
  8
0
 10
-124.045
 20
-216.982
 11
-124.273
 21
-217.077
  0
LINE
  8
0
 10
-124.273
 20
-217.077
 11
-124.51
 21
-217.145
  0
LINE
  8
0
 10
-124.51
 20
-217.145
 11
-124.754
 21
-217.186
  0
LINE
  8
0
 10
-124.754
 20
-217.186
 11
-125
 21
-217.2
  0
LINE
  8
0
 10
-125
 20
-217.2
 11
-125.246
 21
-217.186
  0
LINE
  8
0
 10
-0.246307
 20
-217.186
 11
-0.489532
 21
-217.145
  0
LINE
  8
0
 10
-0.489532
 20
-217.145
 11
-0.726608
 21
-217.077
  0
LINE
  8
0
 10
-0.726608
 20
-217.077
 11
-0.954544
 21
-216.982
  0
LINE
  8
0
 10
-0.954544
 20
-216.982
 11
-1.17046
 21
-216.863
  0
LINE
  8
0
 10
-1.17046
 20
-216.863
 11
-1.37167
 21
-216.72
  0
LINE
  8
0
 10
-1.37167
 20
-216.72
 11
-1.55563
 21
-216.556
  0
LINE
  8
0
 10
-1.55563
 20
-216.556
 11
-1.72002
 21
-216.372
  0
LINE
  8
0
 10
-1.72002
 20
-216.372
 11
-1.86279
 21
-216.17
  0
LINE
  8
0
 10
-1.86279
 20
-216.17
 11
-1.98212
 21
-215.955
  0
LINE
  8
0
 10
-1.98212
 20
-215.955
 11
-2.07654
 21
-215.727
  0
LINE
  8
0
 10
-2.07654
 20
-215.727
 11
-2.14484
 21
-215.49
  0
LINE
  8
0
 10
-2.14484
 20
-215.49
 11
-2.18616
 21
-215.246
  0
LINE
  8
0
 10
-2.18616
 20
-215.246
 11
-2.2
 21
-215
  0
LINE
  8
0
 10
-2.2
 20
-215
 11
-2.18616
 21
-214.754
  0
LINE
  8
0
 10
-2.18616
 20
-214.754
 11
-2.14484
 21
-214.51
  0
LINE
  8
0
 10
-2.14484
 20
-214.51
 11
-2.07654
 21
-214.273
  0
LINE
  8
0
 10
-2.07654
 20
-214.273
 11
-1.98212
 21
-214.045
  0
LINE
  8
0
 10
-1.98212
 20
-214.045
 11
-1.86279
 21
-213.83
  0
LINE
  8
0
 10
-1.86279
 20
-213.83
 11
-1.72002
 21
-213.628
  0
LINE
  8
0
 10
-1.72002
 20
-213.628
 11
-1.55563
 21
-213.444
  0
LINE
  8
0
 10
-1.55563
 20
-213.444
 11
-1.37167
 21
-213.28
  0
LINE
  8
0
 10
-1.37167
 20
-213.28
 11
-1.17046
 21
-213.137
  0
LINE
  8
0
 10
-1.17046
 20
-213.137
 11
-0.954544
 21
-213.018
  0
LINE
  8
0
 10
-0.954544
 20
-213.018
 11
-0.726608
 21
-212.923
  0
LINE
  8
0
 10
-0.726608
 20
-212.923
 11
-0.489532
 21
-212.855
  0
LINE
  8
0
 10
-0.489532
 20
-212.855
 11
-0.246307
 21
-212.814
  0
LINE
  8
0
 10
-0.246307
 20
-212.814
 11
0
 21
-212.8
  0
LINE
  8
0
 10
0
 20
-212.8
 11
0.246307
 21
-212.814
  0
LINE
  8
0
 10
0.246307
 20
-212.814
 11
0.489532
 21
-212.855
  0
LINE
  8
0
 10
0.489532
 20
-212.855
 11
0.726608
 21
-212.923
  0
LINE
  8
0
 10
0.726608
 20
-212.923
 11
0.954544
 21
-213.018
  0
LINE
  8
0
 10
0.954544
 20
-213.018
 11
1.17046
 21
-213.137
  0
LINE
  8
0
 10
1.17046
 20
-213.137
 11
1.37167
 21
-213.28
  0
LINE
  8
0
 10
1.37167
 20
-213.28
 11
1.55563
 21
-213.444
  0
LINE
  8
0
 10
1.55563
 20
-213.444
 11
1.72002
 21
-213.628
  0
LINE
  8
0
 10
1.72002
 20
-213.628
 11
1.86279
 21
-213.83
  0
LINE
  8
0
 10
1.86279
 20
-213.83
 11
1.98212
 21
-214.045
  0
LINE
  8
0
 10
1.98212
 20
-214.045
 11
2.07654
 21
-214.273
  0
LINE
  8
0
 10
2.07654
 20
-214.273
 11
2.14484
 21
-214.51
  0
LINE
  8
0
 10
2.14484
 20
-214.51
 11
2.18616
 21
-214.754
  0
LINE
  8
0
 10
2.18616
 20
-214.754
 11
2.2
 21
-215
  0
LINE
  8
0
 10
2.2
 20
-215
 11
2.18616
 21
-215.246
  0
LINE
  8
0
 10
2.18616
 20
-215.246
 11
2.14484
 21
-215.49
  0
LINE
  8
0
 10
2.14484
 20
-215.49
 11
2.07654
 21
-215.727
  0
LINE
  8
0
 10
2.07654
 20
-215.727
 11
1.98212
 21
-215.955
  0
LINE
  8
0
 10
1.98212
 20
-215.955
 11
1.86279
 21
-216.17
  0
LINE
  8
0
 10
1.86279
 20
-216.17
 11
1.72002
 21
-216.372
  0
LINE
  8
0
 10
1.72002
 20
-216.372
 11
1.55563
 21
-216.556
  0
LINE
  8
0
 10
1.55563
 20
-216.556
 11
1.37167
 21
-216.72
  0
LINE
  8
0
 10
1.37167
 20
-216.72
 11
1.17046
 21
-216.863
  0
LINE
  8
0
 10
1.17046
 20
-216.863
 11
0.954544
 21
-216.982
  0
LINE
  8
0
 10
0.954544
 20
-216.982
 11
0.726608
 21
-217.077
  0
LINE
  8
0
 10
0.726608
 20
-217.077
 11
0.489532
 21
-217.145
  0
LINE
  8
0
 10
0.489532
 20
-217.145
 11
0.246307
 21
-217.186
  0
LINE
  8
0
 10
0.246307
 20
-217.186
 11
0
 21
-217.2
  0
LINE
  8
0
 10
0
 20
-217.2
 11
-0.246307
 21
-217.186
  0
LINE
  8
0
 10
124.754
 20
-217.186
 11
124.51
 21
-217.145
  0
LINE
  8
0
 10
124.51
 20
-217.145
 11
124.273
 21
-217.077
  0
LINE
  8
0
 10
124.273
 20
-217.077
 11
124.045
 21
-216.982
  0
LINE
  8
0
 10
124.045
 20
-216.982
 11
123.83
 21
-216.863
  0
LINE
  8
0
 10
123.83
 20
-216.863
 11
123.628
 21
-216.72
  0
LINE
  8
0
 10
123.628
 20
-216.72
 11
123.444
 21
-216.556
  0
LINE
  8
0
 10
123.444
 20
-216.556
 11
123.28
 21
-216.372
  0
LINE
  8
0
 10
123.28
 20
-216.372
 11
123.137
 21
-216.17
  0
LINE
  8
0
 10
123.137
 20
-216.17
 11
123.018
 21
-215.955
  0
LINE
  8
0
 10
123.018
 20
-215.955
 11
122.923
 21
-215.727
  0
LINE
  8
0
 10
122.923
 20
-215.727
 11
122.855
 21
-215.49
  0
LINE
  8
0
 10
122.855
 20
-215.49
 11
122.814
 21
-215.246
  0
LINE
  8
0
 10
122.814
 20
-215.246
 11
122.8
 21
-215
  0
LINE
  8
0
 10
122.8
 20
-215
 11
122.814
 21
-214.754
  0
LINE
  8
0
 10
122.814
 20
-214.754
 11
122.855
 21
-214.51
  0
LINE
  8
0
 10
122.855
 20
-214.51
 11
122.923
 21
-214.273
  0
LINE
  8
0
 10
122.923
 20
-214.273
 11
123.018
 21
-214.045
  0
LINE
  8
0
 10
123.018
 20
-214.045
 11
123.137
 21
-213.83
  0
LINE
  8
0
 10
123.137
 20
-213.83
 11
123.28
 21
-213.628
  0
LINE
  8
0
 10
123.28
 20
-213.628
 11
123.444
 21
-213.444
  0
LINE
  8
0
 10
123.444
 20
-213.444
 11
123.628
 21
-213.28
  0
LINE
  8
0
 10
123.628
 20
-213.28
 11
123.83
 21
-213.137
  0
LINE
  8
0
 10
123.83
 20
-213.137
 11
124.045
 21
-213.018
  0
LINE
  8
0
 10
124.045
 20
-213.018
 11
124.273
 21
-212.923
  0
LINE
  8
0
 10
124.273
 20
-212.923
 11
124.51
 21
-212.855
  0
LINE
  8
0
 10
124.51
 20
-212.855
 11
124.754
 21
-212.814
  0
LINE
  8
0
 10
124.754
 20
-212.814
 11
125
 21
-212.8
  0
LINE
  8
0
 10
125
 20
-212.8
 11
125.246
 21
-212.814
  0
LINE
  8
0
 10
125.246
 20
-212.814
 11
125.49
 21
-212.855
  0
LINE
  8
0
 10
125.49
 20
-212.855
 11
125.727
 21
-212.923
  0
LINE
  8
0
 10
125.727
 20
-212.923
 11
125.955
 21
-213.018
  0
LINE
  8
0
 10
125.955
 20
-213.018
 11
126.17
 21
-213.137
  0
LINE
  8
0
 10
126.17
 20
-213.137
 11
126.372
 21
-213.28
  0
LINE
  8
0
 10
126.372
 20
-213.28
 11
126.556
 21
-213.444
  0
LINE
  8
0
 10
126.556
 20
-213.444
 11
126.72
 21
-213.628
  0
LINE
  8
0
 10
126.72
 20
-213.628
 11
126.863
 21
-213.83
  0
LINE
  8
0
 10
126.863
 20
-213.83
 11
126.982
 21
-214.045
  0
LINE
  8
0
 10
126.982
 20
-214.045
 11
127.077
 21
-214.273
  0
LINE
  8
0
 10
127.077
 20
-214.273
 11
127.145
 21
-214.51
  0
LINE
  8
0
 10
127.145
 20
-214.51
 11
127.186
 21
-214.754
  0
LINE
  8
0
 10
127.186
 20
-214.754
 11
127.2
 21
-215
  0
LINE
  8
0
 10
127.2
 20
-215
 11
127.186
 21
-215.246
  0
LINE
  8
0
 10
127.186
 20
-215.246
 11
127.145
 21
-215.49
  0
LINE
  8
0
 10
127.145
 20
-215.49
 11
127.077
 21
-215.727
  0
LINE
  8
0
 10
127.077
 20
-215.727
 11
126.982
 21
-215.955
  0
LINE
  8
0
 10
126.982
 20
-215.955
 11
126.863
 21
-216.17
  0
LINE
  8
0
 10
126.863
 20
-216.17
 11
126.72
 21
-216.372
  0
LINE
  8
0
 10
126.72
 20
-216.372
 11
126.556
 21
-216.556
  0
LINE
  8
0
 10
126.556
 20
-216.556
 11
126.372
 21
-216.72
  0
LINE
  8
0
 10
126.372
 20
-216.72
 11
126.17
 21
-216.863
  0
LINE
  8
0
 10
126.17
 20
-216.863
 11
125.955
 21
-216.982
  0
LINE
  8
0
 10
125.955
 20
-216.982
 11
125.727
 21
-217.077
  0
LINE
  8
0
 10
125.727
 20
-217.077
 11
125.49
 21
-217.145
  0
LINE
  8
0
 10
125.49
 20
-217.145
 11
125.246
 21
-217.186
  0
LINE
  8
0
 10
125.246
 20
-217.186
 11
125
 21
-217.2
  0
LINE
  8
0
 10
125
 20
-217.2
 11
124.754
 21
-217.186
  0
ENDSEC
  0
SECTION
  2
OBJECTS
  0
DICTIONARY
  0
ENDSEC
  0
EOF
