  0
SECTION
  2
BLOCKS
  0
ENDSEC
  0
SECTION
  2
ENTITIES
  0
LINE
  8
0
 10
149.223
 20
-199.975
 11
149.434
 21
-199.901
  0
LINE
  8
0
 10
149.434
 20
-199.901
 11
149.623
 21
-199.782
  0
LINE
  8
0
 10
149.623
 20
-199.782
 11
149.782
 21
-199.623
  0
LINE
  8
0
 10
149.782
 20
-199.623
 11
149.901
 21
-199.434
  0
LINE
  8
0
 10
149.901
 20
-199.434
 11
149.975
 21
-199.223
  0
LINE
  8
0
 10
149.975
 20
-199.223
 11
150
 21
-199
  0
LINE
  8
0
 10
150
 20
-199
 11
150
 21
199
  0
LINE
  8
0
 10
150
 20
199
 11
149.975
 21
199.223
  0
LINE
  8
0
 10
149.975
 20
199.223
 11
149.901
 21
199.434
  0
LINE
  8
0
 10
149.901
 20
199.434
 11
149.782
 21
199.623
  0
LINE
  8
0
 10
149.782
 20
199.623
 11
149.623
 21
199.782
  0
LINE
  8
0
 10
149.623
 20
199.782
 11
149.434
 21
199.901
  0
LINE
  8
0
 10
149.434
 20
199.901
 11
149.223
 21
199.975
  0
LINE
  8
0
 10
149.223
 20
199.975
 11
149
 21
200
  0
LINE
  8
0
 10
149
 20
200
 11
-149
 21
200
  0
LINE
  8
0
 10
-149
 20
200
 11
-149.223
 21
199.975
  0
LINE
  8
0
 10
-149.223
 20
199.975
 11
-149.434
 21
199.901
  0
LINE
  8
0
 10
-149.434
 20
199.901
 11
-149.623
 21
199.782
  0
LINE
  8
0
 10
-149.623
 20
199.782
 11
-149.782
 21
199.623
  0
LINE
  8
0
 10
-149.782
 20
199.623
 11
-149.901
 21
199.434
  0
LINE
  8
0
 10
-149.901
 20
199.434
 11
-149.975
 21
199.223
  0
LINE
  8
0
 10
-149.975
 20
199.223
 11
-150
 21
199
  0
LINE
  8
0
 10
-150
 20
199
 11
-150
 21
-199
  0
LINE
  8
0
 10
-150
 20
-199
 11
-149.975
 21
-199.223
  0
LINE
  8
0
 10
-149.975
 20
-199.223
 11
-149.901
 21
-199.434
  0
LINE
  8
0
 10
-149.901
 20
-199.434
 11
-149.782
 21
-199.623
  0
LINE
  8
0
 10
-149.782
 20
-199.623
 11
-149.623
 21
-199.782
  0
LINE
  8
0
 10
-149.623
 20
-199.782
 11
-149.434
 21
-199.901
  0
LINE
  8
0
 10
-149.434
 20
-199.901
 11
-149.223
 21
-199.975
  0
LINE
  8
0
 10
-149.223
 20
-199.975
 11
-149
 21
-200
  0
LINE
  8
0
 10
-149
 20
-200
 11
149
 21
-200
  0
LINE
  8
0
 10
149
 20
-200
 11
149.223
 21
-199.975
  0
LINE
  8
0
 10
-140.261
 20
187.514
 11
-140.52
 21
187.555
  0
LINE
  8
0
 10
-140.52
 20
187.555
 11
-140.773
 21
187.622
  0
LINE
  8
0
 10
-140.773
 20
187.622
 11
-141.017
 21
187.716
  0
LINE
  8
0
 10
-141.017
 20
187.716
 11
-141.25
 21
187.835
  0
LINE
  8
0
 10
-141.25
 20
187.835
 11
-141.469
 21
187.977
  0
LINE
  8
0
 10
-141.469
 20
187.977
 11
-141.673
 21
188.142
  0
LINE
  8
0
 10
-141.673
 20
188.142
 11
-141.858
 21
188.327
  0
LINE
  8
0
 10
-141.858
 20
188.327
 11
-142.023
 21
188.531
  0
LINE
  8
0
 10
-142.023
 20
188.531
 11
-142.165
 21
188.75
  0
LINE
  8
0
 10
-142.165
 20
188.75
 11
-142.284
 21
188.983
  0
LINE
  8
0
 10
-142.284
 20
188.983
 11
-142.378
 21
189.227
  0
LINE
  8
0
 10
-142.378
 20
189.227
 11
-142.445
 21
189.48
  0
LINE
  8
0
 10
-142.445
 20
189.48
 11
-142.486
 21
189.739
  0
LINE
  8
0
 10
-142.486
 20
189.739
 11
-142.5
 21
190
  0
LINE
  8
0
 10
-142.5
 20
190
 11
-142.486
 21
190.261
  0
LINE
  8
0
 10
-142.486
 20
190.261
 11
-142.445
 21
190.52
  0
LINE
  8
0
 10
-142.445
 20
190.52
 11
-142.378
 21
190.773
  0
LINE
  8
0
 10
-142.378
 20
190.773
 11
-142.284
 21
191.017
  0
LINE
  8
0
 10
-142.284
 20
191.017
 11
-142.165
 21
191.25
  0
LINE
  8
0
 10
-142.165
 20
191.25
 11
-142.023
 21
191.469
  0
LINE
  8
0
 10
-142.023
 20
191.469
 11
-141.858
 21
191.673
  0
LINE
  8
0
 10
-141.858
 20
191.673
 11
-141.673
 21
191.858
  0
LINE
  8
0
 10
-141.673
 20
191.858
 11
-141.469
 21
192.023
  0
LINE
  8
0
 10
-141.469
 20
192.023
 11
-141.25
 21
192.165
  0
LINE
  8
0
 10
-141.25
 20
192.165
 11
-141.017
 21
192.284
  0
LINE
  8
0
 10
-141.017
 20
192.284
 11
-140.773
 21
192.378
  0
LINE
  8
0
 10
-140.773
 20
192.378
 11
-140.52
 21
192.445
  0
LINE
  8
0
 10
-140.52
 20
192.445
 11
-140.261
 21
192.486
  0
LINE
  8
0
 10
-140.261
 20
192.486
 11
-140
 21
192.5
  0
LINE
  8
0
 10
-140
 20
192.5
 11
-139.739
 21
192.486
  0
LINE
  8
0
 10
-139.739
 20
192.486
 11
-139.48
 21
192.445
  0
LINE
  8
0
 10
-139.48
 20
192.445
 11
-139.227
 21
192.378
  0
LINE
  8
0
 10
-139.227
 20
192.378
 11
-138.983
 21
192.284
  0
LINE
  8
0
 10
-138.983
 20
192.284
 11
-138.75
 21
192.165
  0
LINE
  8
0
 10
-138.75
 20
192.165
 11
-138.531
 21
192.023
  0
LINE
  8
0
 10
-138.531
 20
192.023
 11
-138.327
 21
191.858
  0
LINE
  8
0
 10
-138.327
 20
191.858
 11
-138.142
 21
191.673
  0
LINE
  8
0
 10
-138.142
 20
191.673
 11
-137.977
 21
191.469
  0
LINE
  8
0
 10
-137.977
 20
191.469
 11
-137.835
 21
191.25
  0
LINE
  8
0
 10
-137.835
 20
191.25
 11
-137.716
 21
191.017
  0
LINE
  8
0
 10
-137.716
 20
191.017
 11
-137.622
 21
190.773
  0
LINE
  8
0
 10
-137.622
 20
190.773
 11
-137.555
 21
190.52
  0
LINE
  8
0
 10
-137.555
 20
190.52
 11
-137.514
 21
190.261
  0
LINE
  8
0
 10
-137.514
 20
190.261
 11
-137.5
 21
190
  0
LINE
  8
0
 10
-137.5
 20
190
 11
-137.514
 21
189.739
  0
LINE
  8
0
 10
-137.514
 20
189.739
 11
-137.555
 21
189.48
  0
LINE
  8
0
 10
-137.555
 20
189.48
 11
-137.622
 21
189.227
  0
LINE
  8
0
 10
-137.622
 20
189.227
 11
-137.716
 21
188.983
  0
LINE
  8
0
 10
-137.716
 20
188.983
 11
-137.835
 21
188.75
  0
LINE
  8
0
 10
-137.835
 20
188.75
 11
-137.977
 21
188.531
  0
LINE
  8
0
 10
-137.977
 20
188.531
 11
-138.142
 21
188.327
  0
LINE
  8
0
 10
-138.142
 20
188.327
 11
-138.327
 21
188.142
  0
LINE
  8
0
 10
-138.327
 20
188.142
 11
-138.531
 21
187.977
  0
LINE
  8
0
 10
-138.531
 20
187.977
 11
-138.75
 21
187.835
  0
LINE
  8
0
 10
-138.75
 20
187.835
 11
-138.983
 21
187.716
  0
LINE
  8
0
 10
-138.983
 20
187.716
 11
-139.227
 21
187.622
  0
LINE
  8
0
 10
-139.227
 20
187.622
 11
-139.48
 21
187.555
  0
LINE
  8
0
 10
-139.48
 20
187.555
 11
-139.739
 21
187.514
  0
LINE
  8
0
 10
-139.739
 20
187.514
 11
-140
 21
187.5
  0
LINE
  8
0
 10
-140
 20
187.5
 11
-140.261
 21
187.514
  0
LINE
  8
0
 10
129.754
 20
187.814
 11
129.51
 21
187.855
  0
LINE
  8
0
 10
129.51
 20
187.855
 11
129.273
 21
187.923
  0
LINE
  8
0
 10
129.273
 20
187.923
 11
129.045
 21
188.018
  0
LINE
  8
0
 10
129.045
 20
188.018
 11
128.83
 21
188.137
  0
LINE
  8
0
 10
128.83
 20
188.137
 11
128.628
 21
188.28
  0
LINE
  8
0
 10
128.628
 20
188.28
 11
128.444
 21
188.444
  0
LINE
  8
0
 10
128.444
 20
188.444
 11
128.28
 21
188.628
  0
LINE
  8
0
 10
128.28
 20
188.628
 11
128.137
 21
188.83
  0
LINE
  8
0
 10
128.137
 20
188.83
 11
128.018
 21
189.045
  0
LINE
  8
0
 10
128.018
 20
189.045
 11
127.923
 21
189.273
  0
LINE
  8
0
 10
127.923
 20
189.273
 11
127.855
 21
189.51
  0
LINE
  8
0
 10
127.855
 20
189.51
 11
127.814
 21
189.754
  0
LINE
  8
0
 10
127.814
 20
189.754
 11
127.8
 21
190
  0
LINE
  8
0
 10
127.8
 20
190
 11
127.814
 21
190.246
  0
LINE
  8
0
 10
127.814
 20
190.246
 11
127.855
 21
190.49
  0
LINE
  8
0
 10
127.855
 20
190.49
 11
127.923
 21
190.727
  0
LINE
  8
0
 10
127.923
 20
190.727
 11
128.018
 21
190.955
  0
LINE
  8
0
 10
128.018
 20
190.955
 11
128.137
 21
191.17
  0
LINE
  8
0
 10
128.137
 20
191.17
 11
128.28
 21
191.372
  0
LINE
  8
0
 10
128.28
 20
191.372
 11
128.444
 21
191.556
  0
LINE
  8
0
 10
128.444
 20
191.556
 11
128.628
 21
191.72
  0
LINE
  8
0
 10
128.628
 20
191.72
 11
128.83
 21
191.863
  0
LINE
  8
0
 10
128.83
 20
191.863
 11
129.045
 21
191.982
  0
LINE
  8
0
 10
129.045
 20
191.982
 11
129.273
 21
192.077
  0
LINE
  8
0
 10
129.273
 20
192.077
 11
129.51
 21
192.145
  0
LINE
  8
0
 10
129.51
 20
192.145
 11
129.754
 21
192.186
  0
LINE
  8
0
 10
129.754
 20
192.186
 11
130
 21
192.2
  0
LINE
  8
0
 10
130
 20
192.2
 11
130.246
 21
192.186
  0
LINE
  8
0
 10
130.246
 20
192.186
 11
130.49
 21
192.145
  0
LINE
  8
0
 10
130.49
 20
192.145
 11
130.727
 21
192.077
  0
LINE
  8
0
 10
130.727
 20
192.077
 11
130.955
 21
191.982
  0
LINE
  8
0
 10
130.955
 20
191.982
 11
131.17
 21
191.863
  0
LINE
  8
0
 10
131.17
 20
191.863
 11
131.372
 21
191.72
  0
LINE
  8
0
 10
131.372
 20
191.72
 11
131.556
 21
191.556
  0
LINE
  8
0
 10
131.556
 20
191.556
 11
131.72
 21
191.372
  0
LINE
  8
0
 10
131.72
 20
191.372
 11
131.863
 21
191.17
  0
LINE
  8
0
 10
131.863
 20
191.17
 11
131.982
 21
190.955
  0
LINE
  8
0
 10
131.982
 20
190.955
 11
132.077
 21
190.727
  0
LINE
  8
0
 10
132.077
 20
190.727
 11
132.145
 21
190.49
  0
LINE
  8
0
 10
132.145
 20
190.49
 11
132.186
 21
190.246
  0
LINE
  8
0
 10
132.186
 20
190.246
 11
132.2
 21
190
  0
LINE
  8
0
 10
132.2
 20
190
 11
132.186
 21
189.754
  0
LINE
  8
0
 10
132.186
 20
189.754
 11
132.145
 21
189.51
  0
LINE
  8
0
 10
132.145
 20
189.51
 11
132.077
 21
189.273
  0
LINE
  8
0
 10
132.077
 20
189.273
 11
131.982
 21
189.045
  0
LINE
  8
0
 10
131.982
 20
189.045
 11
131.863
 21
188.83
  0
LINE
  8
0
 10
131.863
 20
188.83
 11
131.72
 21
188.628
  0
LINE
  8
0
 10
131.72
 20
188.628
 11
131.556
 21
188.444
  0
LINE
  8
0
 10
131.556
 20
188.444
 11
131.372
 21
188.28
  0
LINE
  8
0
 10
131.372
 20
188.28
 11
131.17
 21
188.137
  0
LINE
  8
0
 10
131.17
 20
188.137
 11
130.955
 21
188.018
  0
LINE
  8
0
 10
130.955
 20
188.018
 11
130.727
 21
187.923
  0
LINE
  8
0
 10
130.727
 20
187.923
 11
130.49
 21
187.855
  0
LINE
  8
0
 10
130.49
 20
187.855
 11
130.246
 21
187.814
  0
LINE
  8
0
 10
130.246
 20
187.814
 11
130
 21
187.8
  0
LINE
  8
0
 10
130
 20
187.8
 11
129.754
 21
187.814
  0
LINE
  8
0
 10
9.75368
 20
187.814
 11
9.51045
 21
187.855
  0
LINE
  8
0
 10
9.51045
 20
187.855
 11
9.27338
 21
187.923
  0
LINE
  8
0
 10
9.27338
 20
187.923
 11
9.04544
 21
188.018
  0
LINE
  8
0
 10
9.04544
 20
188.018
 11
8.82953
 21
188.137
  0
LINE
  8
0
 10
8.82953
 20
188.137
 11
8.62831
 21
188.28
  0
LINE
  8
0
 10
8.62831
 20
188.28
 11
8.44435
 21
188.444
  0
LINE
  8
0
 10
8.44435
 20
188.444
 11
8.27997
 21
188.628
  0
LINE
  8
0
 10
8.27997
 20
188.628
 11
8.13719
 21
188.83
  0
LINE
  8
0
 10
8.13719
 20
188.83
 11
8.01787
 21
189.045
  0
LINE
  8
0
 10
8.01787
 20
189.045
 11
7.92345
 21
189.273
  0
LINE
  8
0
 10
7.92345
 20
189.273
 11
7.85515
 21
189.51
  0
LINE
  8
0
 10
7.85515
 20
189.51
 11
7.81383
 21
189.754
  0
LINE
  8
0
 10
7.81383
 20
189.754
 11
7.79999
 21
190
  0
LINE
  8
0
 10
7.79999
 20
190
 11
7.81383
 21
190.246
  0
LINE
  8
0
 10
7.81383
 20
190.246
 11
7.85515
 21
190.49
  0
LINE
  8
0
 10
7.85515
 20
190.49
 11
7.92345
 21
190.727
  0
LINE
  8
0
 10
7.92345
 20
190.727
 11
8.01787
 21
190.955
  0
LINE
  8
0
 10
8.01787
 20
190.955
 11
8.13719
 21
191.17
  0
LINE
  8
0
 10
8.13719
 20
191.17
 11
8.27997
 21
191.372
  0
LINE
  8
0
 10
8.27997
 20
191.372
 11
8.44435
 21
191.556
  0
LINE
  8
0
 10
8.44435
 20
191.556
 11
8.62831
 21
191.72
  0
LINE
  8
0
 10
8.62831
 20
191.72
 11
8.82953
 21
191.863
  0
LINE
  8
0
 10
8.82953
 20
191.863
 11
9.04544
 21
191.982
  0
LINE
  8
0
 10
9.04544
 20
191.982
 11
9.27338
 21
192.077
  0
LINE
  8
0
 10
9.27338
 20
192.077
 11
9.51045
 21
192.145
  0
LINE
  8
0
 10
9.51045
 20
192.145
 11
9.75368
 21
192.186
  0
LINE
  8
0
 10
9.75368
 20
192.186
 11
10
 21
192.2
  0
LINE
  8
0
 10
10
 20
192.2
 11
10.2463
 21
192.186
  0
LINE
  8
0
 10
10.2463
 20
192.186
 11
10.4895
 21
192.145
  0
LINE
  8
0
 10
10.4895
 20
192.145
 11
10.7266
 21
192.077
  0
LINE
  8
0
 10
10.7266
 20
192.077
 11
10.9545
 21
191.982
  0
LINE
  8
0
 10
10.9545
 20
191.982
 11
11.1705
 21
191.863
  0
LINE
  8
0
 10
11.1705
 20
191.863
 11
11.3717
 21
191.72
  0
LINE
  8
0
 10
11.3717
 20
191.72
 11
11.5556
 21
191.556
  0
LINE
  8
0
 10
11.5556
 20
191.556
 11
11.72
 21
191.372
  0
LINE
  8
0
 10
11.72
 20
191.372
 11
11.8628
 21
191.17
  0
LINE
  8
0
 10
11.8628
 20
191.17
 11
11.9821
 21
190.955
  0
LINE
  8
0
 10
11.9821
 20
190.955
 11
12.0765
 21
190.727
  0
LINE
  8
0
 10
12.0765
 20
190.727
 11
12.1448
 21
190.49
  0
LINE
  8
0
 10
12.1448
 20
190.49
 11
12.1862
 21
190.246
  0
LINE
  8
0
 10
12.1862
 20
190.246
 11
12.2
 21
190
  0
LINE
  8
0
 10
12.2
 20
190
 11
12.1862
 21
189.754
  0
LINE
  8
0
 10
12.1862
 20
189.754
 11
12.1448
 21
189.51
  0
LINE
  8
0
 10
12.1448
 20
189.51
 11
12.0765
 21
189.273
  0
LINE
  8
0
 10
12.0765
 20
189.273
 11
11.9821
 21
189.045
  0
LINE
  8
0
 10
11.9821
 20
189.045
 11
11.8628
 21
188.83
  0
LINE
  8
0
 10
11.8628
 20
188.83
 11
11.72
 21
188.628
  0
LINE
  8
0
 10
11.72
 20
188.628
 11
11.5556
 21
188.444
  0
LINE
  8
0
 10
11.5556
 20
188.444
 11
11.3717
 21
188.28
  0
LINE
  8
0
 10
11.3717
 20
188.28
 11
11.1705
 21
188.137
  0
LINE
  8
0
 10
11.1705
 20
188.137
 11
10.9545
 21
188.018
  0
LINE
  8
0
 10
10.9545
 20
188.018
 11
10.7266
 21
187.923
  0
LINE
  8
0
 10
10.7266
 20
187.923
 11
10.4895
 21
187.855
  0
LINE
  8
0
 10
10.4895
 20
187.855
 11
10.2463
 21
187.814
  0
LINE
  8
0
 10
10.2463
 20
187.814
 11
10
 21
187.8
  0
LINE
  8
0
 10
10
 20
187.8
 11
9.75368
 21
187.814
  0
LINE
  8
0
 10
-110.246
 20
187.814
 11
-110.49
 21
187.855
  0
LINE
  8
0
 10
-110.49
 20
187.855
 11
-110.727
 21
187.923
  0
LINE
  8
0
 10
-110.727
 20
187.923
 11
-110.955
 21
188.018
  0
LINE
  8
0
 10
-110.955
 20
188.018
 11
-111.17
 21
188.137
  0
LINE
  8
0
 10
-111.17
 20
188.137
 11
-111.372
 21
188.28
  0
LINE
  8
0
 10
-111.372
 20
188.28
 11
-111.556
 21
188.444
  0
LINE
  8
0
 10
-111.556
 20
188.444
 11
-111.72
 21
188.628
  0
LINE
  8
0
 10
-111.72
 20
188.628
 11
-111.863
 21
188.83
  0
LINE
  8
0
 10
-111.863
 20
188.83
 11
-111.982
 21
189.045
  0
LINE
  8
0
 10
-111.982
 20
189.045
 11
-112.077
 21
189.273
  0
LINE
  8
0
 10
-112.077
 20
189.273
 11
-112.145
 21
189.51
  0
LINE
  8
0
 10
-112.145
 20
189.51
 11
-112.186
 21
189.754
  0
LINE
  8
0
 10
-112.186
 20
189.754
 11
-112.2
 21
190
  0
LINE
  8
0
 10
-112.2
 20
190
 11
-112.186
 21
190.246
  0
LINE
  8
0
 10
-112.186
 20
190.246
 11
-112.145
 21
190.49
  0
LINE
  8
0
 10
-112.145
 20
190.49
 11
-112.077
 21
190.727
  0
LINE
  8
0
 10
-112.077
 20
190.727
 11
-111.982
 21
190.955
  0
LINE
  8
0
 10
-111.982
 20
190.955
 11
-111.863
 21
191.17
  0
LINE
  8
0
 10
-111.863
 20
191.17
 11
-111.72
 21
191.372
  0
LINE
  8
0
 10
-111.72
 20
191.372
 11
-111.556
 21
191.556
  0
LINE
  8
0
 10
-111.556
 20
191.556
 11
-111.372
 21
191.72
  0
LINE
  8
0
 10
-111.372
 20
191.72
 11
-111.17
 21
191.863
  0
LINE
  8
0
 10
-111.17
 20
191.863
 11
-110.955
 21
191.982
  0
LINE
  8
0
 10
-110.955
 20
191.982
 11
-110.727
 21
192.077
  0
LINE
  8
0
 10
-110.727
 20
192.077
 11
-110.49
 21
192.145
  0
LINE
  8
0
 10
-110.49
 20
192.145
 11
-110.246
 21
192.186
  0
LINE
  8
0
 10
-110.246
 20
192.186
 11
-110
 21
192.2
  0
LINE
  8
0
 10
-110
 20
192.2
 11
-109.754
 21
192.186
  0
LINE
  8
0
 10
-109.754
 20
192.186
 11
-109.51
 21
192.145
  0
LINE
  8
0
 10
-109.51
 20
192.145
 11
-109.273
 21
192.077
  0
LINE
  8
0
 10
-109.273
 20
192.077
 11
-109.045
 21
191.982
  0
LINE
  8
0
 10
-109.045
 20
191.982
 11
-108.83
 21
191.863
  0
LINE
  8
0
 10
-108.83
 20
191.863
 11
-108.628
 21
191.72
  0
LINE
  8
0
 10
-108.628
 20
191.72
 11
-108.444
 21
191.556
  0
LINE
  8
0
 10
-108.444
 20
191.556
 11
-108.28
 21
191.372
  0
LINE
  8
0
 10
-108.28
 20
191.372
 11
-108.137
 21
191.17
  0
LINE
  8
0
 10
-108.137
 20
191.17
 11
-108.018
 21
190.955
  0
LINE
  8
0
 10
-108.018
 20
190.955
 11
-107.923
 21
190.727
  0
LINE
  8
0
 10
-107.923
 20
190.727
 11
-107.855
 21
190.49
  0
LINE
  8
0
 10
-107.855
 20
190.49
 11
-107.814
 21
190.246
  0
LINE
  8
0
 10
-107.814
 20
190.246
 11
-107.8
 21
190
  0
LINE
  8
0
 10
-107.8
 20
190
 11
-107.814
 21
189.754
  0
LINE
  8
0
 10
-107.814
 20
189.754
 11
-107.855
 21
189.51
  0
LINE
  8
0
 10
-107.855
 20
189.51
 11
-107.923
 21
189.273
  0
LINE
  8
0
 10
-107.923
 20
189.273
 11
-108.018
 21
189.045
  0
LINE
  8
0
 10
-108.018
 20
189.045
 11
-108.137
 21
188.83
  0
LINE
  8
0
 10
-108.137
 20
188.83
 11
-108.28
 21
188.628
  0
LINE
  8
0
 10
-108.28
 20
188.628
 11
-108.444
 21
188.444
  0
LINE
  8
0
 10
-108.444
 20
188.444
 11
-108.628
 21
188.28
  0
LINE
  8
0
 10
-108.628
 20
188.28
 11
-108.83
 21
188.137
  0
LINE
  8
0
 10
-108.83
 20
188.137
 11
-109.045
 21
188.018
  0
LINE
  8
0
 10
-109.045
 20
188.018
 11
-109.273
 21
187.923
  0
LINE
  8
0
 10
-109.273
 20
187.923
 11
-109.51
 21
187.855
  0
LINE
  8
0
 10
-109.51
 20
187.855
 11
-109.754
 21
187.814
  0
LINE
  8
0
 10
-109.754
 20
187.814
 11
-110
 21
187.8
  0
LINE
  8
0
 10
-110
 20
187.8
 11
-110.246
 21
187.814
  0
LINE
  8
0
 10
-140.246
 20
177.814
 11
-140.49
 21
177.855
  0
LINE
  8
0
 10
-140.49
 20
177.855
 11
-140.727
 21
177.923
  0
LINE
  8
0
 10
-140.727
 20
177.923
 11
-140.955
 21
178.018
  0
LINE
  8
0
 10
-140.955
 20
178.018
 11
-141.17
 21
178.137
  0
LINE
  8
0
 10
-141.17
 20
178.137
 11
-141.372
 21
178.28
  0
LINE
  8
0
 10
-141.372
 20
178.28
 11
-141.556
 21
178.444
  0
LINE
  8
0
 10
-141.556
 20
178.444
 11
-141.72
 21
178.628
  0
LINE
  8
0
 10
-141.72
 20
178.628
 11
-141.863
 21
178.83
  0
LINE
  8
0
 10
-141.863
 20
178.83
 11
-141.982
 21
179.045
  0
LINE
  8
0
 10
-141.982
 20
179.045
 11
-142.077
 21
179.273
  0
LINE
  8
0
 10
-142.077
 20
179.273
 11
-142.145
 21
179.51
  0
LINE
  8
0
 10
-142.145
 20
179.51
 11
-142.186
 21
179.754
  0
LINE
  8
0
 10
-142.186
 20
179.754
 11
-142.2
 21
180
  0
LINE
  8
0
 10
-142.2
 20
180
 11
-142.186
 21
180.246
  0
LINE
  8
0
 10
-142.186
 20
180.246
 11
-142.145
 21
180.49
  0
LINE
  8
0
 10
-142.145
 20
180.49
 11
-142.077
 21
180.727
  0
LINE
  8
0
 10
-142.077
 20
180.727
 11
-141.982
 21
180.955
  0
LINE
  8
0
 10
-141.982
 20
180.955
 11
-141.863
 21
181.17
  0
LINE
  8
0
 10
-141.863
 20
181.17
 11
-141.72
 21
181.372
  0
LINE
  8
0
 10
-141.72
 20
181.372
 11
-141.556
 21
181.556
  0
LINE
  8
0
 10
-141.556
 20
181.556
 11
-141.372
 21
181.72
  0
LINE
  8
0
 10
-141.372
 20
181.72
 11
-141.17
 21
181.863
  0
LINE
  8
0
 10
-141.17
 20
181.863
 11
-140.955
 21
181.982
  0
LINE
  8
0
 10
-140.955
 20
181.982
 11
-140.727
 21
182.077
  0
LINE
  8
0
 10
-140.727
 20
182.077
 11
-140.49
 21
182.145
  0
LINE
  8
0
 10
-140.49
 20
182.145
 11
-140.246
 21
182.186
  0
LINE
  8
0
 10
-140.246
 20
182.186
 11
-140
 21
182.2
  0
LINE
  8
0
 10
-140
 20
182.2
 11
-139.754
 21
182.186
  0
LINE
  8
0
 10
-139.754
 20
182.186
 11
-139.51
 21
182.145
  0
LINE
  8
0
 10
-139.51
 20
182.145
 11
-139.273
 21
182.077
  0
LINE
  8
0
 10
-139.273
 20
182.077
 11
-139.045
 21
181.982
  0
LINE
  8
0
 10
-139.045
 20
181.982
 11
-138.83
 21
181.863
  0
LINE
  8
0
 10
-138.83
 20
181.863
 11
-138.628
 21
181.72
  0
LINE
  8
0
 10
-138.628
 20
181.72
 11
-138.444
 21
181.556
  0
LINE
  8
0
 10
-138.444
 20
181.556
 11
-138.28
 21
181.372
  0
LINE
  8
0
 10
-138.28
 20
181.372
 11
-138.137
 21
181.17
  0
LINE
  8
0
 10
-138.137
 20
181.17
 11
-138.018
 21
180.955
  0
LINE
  8
0
 10
-138.018
 20
180.955
 11
-137.923
 21
180.727
  0
LINE
  8
0
 10
-137.923
 20
180.727
 11
-137.855
 21
180.49
  0
LINE
  8
0
 10
-137.855
 20
180.49
 11
-137.814
 21
180.246
  0
LINE
  8
0
 10
-137.814
 20
180.246
 11
-137.8
 21
180
  0
LINE
  8
0
 10
-137.8
 20
180
 11
-137.814
 21
179.754
  0
LINE
  8
0
 10
-137.814
 20
179.754
 11
-137.855
 21
179.51
  0
LINE
  8
0
 10
-137.855
 20
179.51
 11
-137.923
 21
179.273
  0
LINE
  8
0
 10
-137.923
 20
179.273
 11
-138.018
 21
179.045
  0
LINE
  8
0
 10
-138.018
 20
179.045
 11
-138.137
 21
178.83
  0
LINE
  8
0
 10
-138.137
 20
178.83
 11
-138.28
 21
178.628
  0
LINE
  8
0
 10
-138.28
 20
178.628
 11
-138.444
 21
178.444
  0
LINE
  8
0
 10
-138.444
 20
178.444
 11
-138.628
 21
178.28
  0
LINE
  8
0
 10
-138.628
 20
178.28
 11
-138.83
 21
178.137
  0
LINE
  8
0
 10
-138.83
 20
178.137
 11
-139.045
 21
178.018
  0
LINE
  8
0
 10
-139.045
 20
178.018
 11
-139.273
 21
177.923
  0
LINE
  8
0
 10
-139.273
 20
177.923
 11
-139.51
 21
177.855
  0
LINE
  8
0
 10
-139.51
 20
177.855
 11
-139.754
 21
177.814
  0
LINE
  8
0
 10
-139.754
 20
177.814
 11
-140
 21
177.8
  0
LINE
  8
0
 10
-140
 20
177.8
 11
-140.246
 21
177.814
  0
LINE
  8
0
 10
-140.246
 20
57.8138
 11
-140.49
 21
57.8551
  0
LINE
  8
0
 10
-140.49
 20
57.8551
 11
-140.727
 21
57.9234
  0
LINE
  8
0
 10
-140.727
 20
57.9234
 11
-140.955
 21
58.0179
  0
LINE
  8
0
 10
-140.955
 20
58.0179
 11
-141.17
 21
58.1372
  0
LINE
  8
0
 10
-141.17
 20
58.1372
 11
-141.372
 21
58.28
  0
LINE
  8
0
 10
-141.372
 20
58.28
 11
-141.556
 21
58.4444
  0
LINE
  8
0
 10
-141.556
 20
58.4444
 11
-141.72
 21
58.6283
  0
LINE
  8
0
 10
-141.72
 20
58.6283
 11
-141.863
 21
58.8295
  0
LINE
  8
0
 10
-141.863
 20
58.8295
 11
-141.982
 21
59.0454
  0
LINE
  8
0
 10
-141.982
 20
59.0454
 11
-142.077
 21
59.2734
  0
LINE
  8
0
 10
-142.077
 20
59.2734
 11
-142.145
 21
59.5105
  0
LINE
  8
0
 10
-142.145
 20
59.5105
 11
-142.186
 21
59.7537
  0
LINE
  8
0
 10
-142.186
 20
59.7537
 11
-142.2
 21
60
  0
LINE
  8
0
 10
-142.2
 20
60
 11
-142.186
 21
60.2463
  0
LINE
  8
0
 10
-142.186
 20
60.2463
 11
-142.145
 21
60.4895
  0
LINE
  8
0
 10
-142.145
 20
60.4895
 11
-142.077
 21
60.7266
  0
LINE
  8
0
 10
-142.077
 20
60.7266
 11
-141.982
 21
60.9545
  0
LINE
  8
0
 10
-141.982
 20
60.9545
 11
-141.863
 21
61.1705
  0
LINE
  8
0
 10
-141.863
 20
61.1705
 11
-141.72
 21
61.3717
  0
LINE
  8
0
 10
-141.72
 20
61.3717
 11
-141.556
 21
61.5556
  0
LINE
  8
0
 10
-141.556
 20
61.5556
 11
-141.372
 21
61.72
  0
LINE
  8
0
 10
-141.372
 20
61.72
 11
-141.17
 21
61.8628
  0
LINE
  8
0
 10
-141.17
 20
61.8628
 11
-140.955
 21
61.9821
  0
LINE
  8
0
 10
-140.955
 20
61.9821
 11
-140.727
 21
62.0765
  0
LINE
  8
0
 10
-140.727
 20
62.0765
 11
-140.49
 21
62.1448
  0
LINE
  8
0
 10
-140.49
 20
62.1448
 11
-140.246
 21
62.1862
  0
LINE
  8
0
 10
-140.246
 20
62.1862
 11
-140
 21
62.2
  0
LINE
  8
0
 10
-140
 20
62.2
 11
-139.754
 21
62.1862
  0
LINE
  8
0
 10
-139.754
 20
62.1862
 11
-139.51
 21
62.1448
  0
LINE
  8
0
 10
-139.51
 20
62.1448
 11
-139.273
 21
62.0765
  0
LINE
  8
0
 10
-139.273
 20
62.0765
 11
-139.045
 21
61.9821
  0
LINE
  8
0
 10
-139.045
 20
61.9821
 11
-138.83
 21
61.8628
  0
LINE
  8
0
 10
-138.83
 20
61.8628
 11
-138.628
 21
61.72
  0
LINE
  8
0
 10
-138.628
 20
61.72
 11
-138.444
 21
61.5556
  0
LINE
  8
0
 10
-138.444
 20
61.5556
 11
-138.28
 21
61.3717
  0
LINE
  8
0
 10
-138.28
 20
61.3717
 11
-138.137
 21
61.1705
  0
LINE
  8
0
 10
-138.137
 20
61.1705
 11
-138.018
 21
60.9545
  0
LINE
  8
0
 10
-138.018
 20
60.9545
 11
-137.923
 21
60.7266
  0
LINE
  8
0
 10
-137.923
 20
60.7266
 11
-137.855
 21
60.4895
  0
LINE
  8
0
 10
-137.855
 20
60.4895
 11
-137.814
 21
60.2463
  0
LINE
  8
0
 10
-137.814
 20
60.2463
 11
-137.8
 21
60
  0
LINE
  8
0
 10
-137.8
 20
60
 11
-137.814
 21
59.7537
  0
LINE
  8
0
 10
-137.814
 20
59.7537
 11
-137.855
 21
59.5105
  0
LINE
  8
0
 10
-137.855
 20
59.5105
 11
-137.923
 21
59.2734
  0
LINE
  8
0
 10
-137.923
 20
59.2734
 11
-138.018
 21
59.0454
  0
LINE
  8
0
 10
-138.018
 20
59.0454
 11
-138.137
 21
58.8295
  0
LINE
  8
0
 10
-138.137
 20
58.8295
 11
-138.28
 21
58.6283
  0
LINE
  8
0
 10
-138.28
 20
58.6283
 11
-138.444
 21
58.4444
  0
LINE
  8
0
 10
-138.444
 20
58.4444
 11
-138.628
 21
58.28
  0
LINE
  8
0
 10
-138.628
 20
58.28
 11
-138.83
 21
58.1372
  0
LINE
  8
0
 10
-138.83
 20
58.1372
 11
-139.045
 21
58.0179
  0
LINE
  8
0
 10
-139.045
 20
58.0179
 11
-139.273
 21
57.9234
  0
LINE
  8
0
 10
-139.273
 20
57.9234
 11
-139.51
 21
57.8551
  0
LINE
  8
0
 10
-139.51
 20
57.8551
 11
-139.754
 21
57.8138
  0
LINE
  8
0
 10
-139.754
 20
57.8138
 11
-140
 21
57.8
  0
LINE
  8
0
 10
-140
 20
57.8
 11
-140.246
 21
57.8138
  0
LINE
  8
0
 10
139.754
 20
22.8138
 11
139.51
 21
22.8551
  0
LINE
  8
0
 10
139.51
 20
22.8551
 11
139.273
 21
22.9234
  0
LINE
  8
0
 10
139.273
 20
22.9234
 11
139.045
 21
23.0179
  0
LINE
  8
0
 10
139.045
 20
23.0179
 11
138.83
 21
23.1372
  0
LINE
  8
0
 10
138.83
 20
23.1372
 11
138.628
 21
23.28
  0
LINE
  8
0
 10
138.628
 20
23.28
 11
138.444
 21
23.4444
  0
LINE
  8
0
 10
138.444
 20
23.4444
 11
138.28
 21
23.6283
  0
LINE
  8
0
 10
138.28
 20
23.6283
 11
138.137
 21
23.8295
  0
LINE
  8
0
 10
138.137
 20
23.8295
 11
138.018
 21
24.0454
  0
LINE
  8
0
 10
138.018
 20
24.0454
 11
137.923
 21
24.2734
  0
LINE
  8
0
 10
137.923
 20
24.2734
 11
137.855
 21
24.5105
  0
LINE
  8
0
 10
137.855
 20
24.5105
 11
137.814
 21
24.7537
  0
LINE
  8
0
 10
137.814
 20
24.7537
 11
137.8
 21
25
  0
LINE
  8
0
 10
137.8
 20
25
 11
137.814
 21
25.2463
  0
LINE
  8
0
 10
137.814
 20
25.2463
 11
137.855
 21
25.4895
  0
LINE
  8
0
 10
137.855
 20
25.4895
 11
137.923
 21
25.7266
  0
LINE
  8
0
 10
137.923
 20
25.7266
 11
138.018
 21
25.9545
  0
LINE
  8
0
 10
138.018
 20
25.9545
 11
138.137
 21
26.1705
  0
LINE
  8
0
 10
138.137
 20
26.1705
 11
138.28
 21
26.3717
  0
LINE
  8
0
 10
138.28
 20
26.3717
 11
138.444
 21
26.5556
  0
LINE
  8
0
 10
138.444
 20
26.5556
 11
138.628
 21
26.72
  0
LINE
  8
0
 10
138.628
 20
26.72
 11
138.83
 21
26.8628
  0
LINE
  8
0
 10
138.83
 20
26.8628
 11
139.045
 21
26.9821
  0
LINE
  8
0
 10
139.045
 20
26.9821
 11
139.273
 21
27.0765
  0
LINE
  8
0
 10
139.273
 20
27.0765
 11
139.51
 21
27.1448
  0
LINE
  8
0
 10
139.51
 20
27.1448
 11
139.754
 21
27.1862
  0
LINE
  8
0
 10
139.754
 20
27.1862
 11
140
 21
27.2
  0
LINE
  8
0
 10
140
 20
27.2
 11
140.246
 21
27.1862
  0
LINE
  8
0
 10
140.246
 20
27.1862
 11
140.49
 21
27.1448
  0
LINE
  8
0
 10
140.49
 20
27.1448
 11
140.727
 21
27.0765
  0
LINE
  8
0
 10
140.727
 20
27.0765
 11
140.955
 21
26.9821
  0
LINE
  8
0
 10
140.955
 20
26.9821
 11
141.17
 21
26.8628
  0
LINE
  8
0
 10
141.17
 20
26.8628
 11
141.372
 21
26.72
  0
LINE
  8
0
 10
141.372
 20
26.72
 11
141.556
 21
26.5556
  0
LINE
  8
0
 10
141.556
 20
26.5556
 11
141.72
 21
26.3717
  0
LINE
  8
0
 10
141.72
 20
26.3717
 11
141.863
 21
26.1705
  0
LINE
  8
0
 10
141.863
 20
26.1705
 11
141.982
 21
25.9545
  0
LINE
  8
0
 10
141.982
 20
25.9545
 11
142.077
 21
25.7266
  0
LINE
  8
0
 10
142.077
 20
25.7266
 11
142.145
 21
25.4895
  0
LINE
  8
0
 10
142.145
 20
25.4895
 11
142.186
 21
25.2463
  0
LINE
  8
0
 10
142.186
 20
25.2463
 11
142.2
 21
25
  0
LINE
  8
0
 10
142.2
 20
25
 11
142.186
 21
24.7537
  0
LINE
  8
0
 10
142.186
 20
24.7537
 11
142.145
 21
24.5105
  0
LINE
  8
0
 10
142.145
 20
24.5105
 11
142.077
 21
24.2734
  0
LINE
  8
0
 10
142.077
 20
24.2734
 11
141.982
 21
24.0454
  0
LINE
  8
0
 10
141.982
 20
24.0454
 11
141.863
 21
23.8295
  0
LINE
  8
0
 10
141.863
 20
23.8295
 11
141.72
 21
23.6283
  0
LINE
  8
0
 10
141.72
 20
23.6283
 11
141.556
 21
23.4444
  0
LINE
  8
0
 10
141.556
 20
23.4444
 11
141.372
 21
23.28
  0
LINE
  8
0
 10
141.372
 20
23.28
 11
141.17
 21
23.1372
  0
LINE
  8
0
 10
141.17
 20
23.1372
 11
140.955
 21
23.0179
  0
LINE
  8
0
 10
140.955
 20
23.0179
 11
140.727
 21
22.9234
  0
LINE
  8
0
 10
140.727
 20
22.9234
 11
140.49
 21
22.8551
  0
LINE
  8
0
 10
140.49
 20
22.8551
 11
140.246
 21
22.8138
  0
LINE
  8
0
 10
140.246
 20
22.8138
 11
140
 21
22.8
  0
LINE
  8
0
 10
140
 20
22.8
 11
139.754
 21
22.8138
  0
LINE
  8
0
 10
59.7537
 20
22.8138
 11
59.5105
 21
22.8551
  0
LINE
  8
0
 10
59.5105
 20
22.8551
 11
59.2734
 21
22.9234
  0
LINE
  8
0
 10
59.2734
 20
22.9234
 11
59.0454
 21
23.0179
  0
LINE
  8
0
 10
59.0454
 20
23.0179
 11
58.8295
 21
23.1372
  0
LINE
  8
0
 10
58.8295
 20
23.1372
 11
58.6283
 21
23.28
  0
LINE
  8
0
 10
58.6283
 20
23.28
 11
58.4444
 21
23.4444
  0
LINE
  8
0
 10
58.4444
 20
23.4444
 11
58.28
 21
23.6283
  0
LINE
  8
0
 10
58.28
 20
23.6283
 11
58.1372
 21
23.8295
  0
LINE
  8
0
 10
58.1372
 20
23.8295
 11
58.0179
 21
24.0454
  0
LINE
  8
0
 10
58.0179
 20
24.0454
 11
57.9234
 21
24.2734
  0
LINE
  8
0
 10
57.9234
 20
24.2734
 11
57.8551
 21
24.5105
  0
LINE
  8
0
 10
57.8551
 20
24.5105
 11
57.8138
 21
24.7537
  0
LINE
  8
0
 10
57.8138
 20
24.7537
 11
57.8
 21
25
  0
LINE
  8
0
 10
57.8
 20
25
 11
57.8138
 21
25.2463
  0
LINE
  8
0
 10
57.8138
 20
25.2463
 11
57.8551
 21
25.4895
  0
LINE
  8
0
 10
57.8551
 20
25.4895
 11
57.9234
 21
25.7266
  0
LINE
  8
0
 10
57.9234
 20
25.7266
 11
58.0179
 21
25.9545
  0
LINE
  8
0
 10
58.0179
 20
25.9545
 11
58.1372
 21
26.1705
  0
LINE
  8
0
 10
58.1372
 20
26.1705
 11
58.28
 21
26.3717
  0
LINE
  8
0
 10
58.28
 20
26.3717
 11
58.4444
 21
26.5556
  0
LINE
  8
0
 10
58.4444
 20
26.5556
 11
58.6283
 21
26.72
  0
LINE
  8
0
 10
58.6283
 20
26.72
 11
58.8295
 21
26.8628
  0
LINE
  8
0
 10
58.8295
 20
26.8628
 11
59.0454
 21
26.9821
  0
LINE
  8
0
 10
59.0454
 20
26.9821
 11
59.2734
 21
27.0765
  0
LINE
  8
0
 10
59.2734
 20
27.0765
 11
59.5105
 21
27.1448
  0
LINE
  8
0
 10
59.5105
 20
27.1448
 11
59.7537
 21
27.1862
  0
LINE
  8
0
 10
59.7537
 20
27.1862
 11
60
 21
27.2
  0
LINE
  8
0
 10
60
 20
27.2
 11
60.2463
 21
27.1862
  0
LINE
  8
0
 10
60.2463
 20
27.1862
 11
60.4895
 21
27.1448
  0
LINE
  8
0
 10
60.4895
 20
27.1448
 11
60.7266
 21
27.0765
  0
LINE
  8
0
 10
60.7266
 20
27.0765
 11
60.9545
 21
26.9821
  0
LINE
  8
0
 10
60.9545
 20
26.9821
 11
61.1705
 21
26.8628
  0
LINE
  8
0
 10
61.1705
 20
26.8628
 11
61.3717
 21
26.72
  0
LINE
  8
0
 10
61.3717
 20
26.72
 11
61.5556
 21
26.5556
  0
LINE
  8
0
 10
61.5556
 20
26.5556
 11
61.72
 21
26.3717
  0
LINE
  8
0
 10
61.72
 20
26.3717
 11
61.8628
 21
26.1705
  0
LINE
  8
0
 10
61.8628
 20
26.1705
 11
61.9821
 21
25.9545
  0
LINE
  8
0
 10
61.9821
 20
25.9545
 11
62.0765
 21
25.7266
  0
LINE
  8
0
 10
62.0765
 20
25.7266
 11
62.1448
 21
25.4895
  0
LINE
  8
0
 10
62.1448
 20
25.4895
 11
62.1862
 21
25.2463
  0
LINE
  8
0
 10
62.1862
 20
25.2463
 11
62.2
 21
25
  0
LINE
  8
0
 10
62.2
 20
25
 11
62.1862
 21
24.7537
  0
LINE
  8
0
 10
62.1862
 20
24.7537
 11
62.1448
 21
24.5105
  0
LINE
  8
0
 10
62.1448
 20
24.5105
 11
62.0765
 21
24.2734
  0
LINE
  8
0
 10
62.0765
 20
24.2734
 11
61.9821
 21
24.0454
  0
LINE
  8
0
 10
61.9821
 20
24.0454
 11
61.8628
 21
23.8295
  0
LINE
  8
0
 10
61.8628
 20
23.8295
 11
61.72
 21
23.6283
  0
LINE
  8
0
 10
61.72
 20
23.6283
 11
61.5556
 21
23.4444
  0
LINE
  8
0
 10
61.5556
 20
23.4444
 11
61.3717
 21
23.28
  0
LINE
  8
0
 10
61.3717
 20
23.28
 11
61.1705
 21
23.1372
  0
LINE
  8
0
 10
61.1705
 20
23.1372
 11
60.9545
 21
23.0179
  0
LINE
  8
0
 10
60.9545
 20
23.0179
 11
60.7266
 21
22.9234
  0
LINE
  8
0
 10
60.7266
 20
22.9234
 11
60.4895
 21
22.8551
  0
LINE
  8
0
 10
60.4895
 20
22.8551
 11
60.2463
 21
22.8138
  0
LINE
  8
0
 10
60.2463
 20
22.8138
 11
60
 21
22.8
  0
LINE
  8
0
 10
60
 20
22.8
 11
59.7537
 21
22.8138
  0
LINE
  8
0
 10
99.7537
 20
22.8138
 11
99.5105
 21
22.8551
  0
LINE
  8
0
 10
99.5105
 20
22.8551
 11
99.2734
 21
22.9234
  0
LINE
  8
0
 10
99.2734
 20
22.9234
 11
99.0454
 21
23.0179
  0
LINE
  8
0
 10
99.0454
 20
23.0179
 11
98.8295
 21
23.1372
  0
LINE
  8
0
 10
98.8295
 20
23.1372
 11
98.6283
 21
23.28
  0
LINE
  8
0
 10
98.6283
 20
23.28
 11
98.4444
 21
23.4444
  0
LINE
  8
0
 10
98.4444
 20
23.4444
 11
98.28
 21
23.6283
  0
LINE
  8
0
 10
98.28
 20
23.6283
 11
98.1372
 21
23.8295
  0
LINE
  8
0
 10
98.1372
 20
23.8295
 11
98.0179
 21
24.0454
  0
LINE
  8
0
 10
98.0179
 20
24.0454
 11
97.9234
 21
24.2734
  0
LINE
  8
0
 10
97.9234
 20
24.2734
 11
97.8551
 21
24.5105
  0
LINE
  8
0
 10
97.8551
 20
24.5105
 11
97.8138
 21
24.7537
  0
LINE
  8
0
 10
97.8138
 20
24.7537
 11
97.8
 21
25
  0
LINE
  8
0
 10
97.8
 20
25
 11
97.8138
 21
25.2463
  0
LINE
  8
0
 10
97.8138
 20
25.2463
 11
97.8551
 21
25.4895
  0
LINE
  8
0
 10
97.8551
 20
25.4895
 11
97.9234
 21
25.7266
  0
LINE
  8
0
 10
97.9234
 20
25.7266
 11
98.0179
 21
25.9545
  0
LINE
  8
0
 10
98.0179
 20
25.9545
 11
98.1372
 21
26.1705
  0
LINE
  8
0
 10
98.1372
 20
26.1705
 11
98.28
 21
26.3717
  0
LINE
  8
0
 10
98.28
 20
26.3717
 11
98.4444
 21
26.5556
  0
LINE
  8
0
 10
98.4444
 20
26.5556
 11
98.6283
 21
26.72
  0
LINE
  8
0
 10
98.6283
 20
26.72
 11
98.8295
 21
26.8628
  0
LINE
  8
0
 10
98.8295
 20
26.8628
 11
99.0454
 21
26.9821
  0
LINE
  8
0
 10
99.0454
 20
26.9821
 11
99.2734
 21
27.0765
  0
LINE
  8
0
 10
99.2734
 20
27.0765
 11
99.5105
 21
27.1448
  0
LINE
  8
0
 10
99.5105
 20
27.1448
 11
99.7537
 21
27.1862
  0
LINE
  8
0
 10
99.7537
 20
27.1862
 11
100
 21
27.2
  0
LINE
  8
0
 10
100
 20
27.2
 11
100.246
 21
27.1862
  0
LINE
  8
0
 10
100.246
 20
27.1862
 11
100.49
 21
27.1448
  0
LINE
  8
0
 10
100.49
 20
27.1448
 11
100.727
 21
27.0765
  0
LINE
  8
0
 10
100.727
 20
27.0765
 11
100.955
 21
26.9821
  0
LINE
  8
0
 10
100.955
 20
26.9821
 11
101.17
 21
26.8628
  0
LINE
  8
0
 10
101.17
 20
26.8628
 11
101.372
 21
26.72
  0
LINE
  8
0
 10
101.372
 20
26.72
 11
101.556
 21
26.5556
  0
LINE
  8
0
 10
101.556
 20
26.5556
 11
101.72
 21
26.3717
  0
LINE
  8
0
 10
101.72
 20
26.3717
 11
101.863
 21
26.1705
  0
LINE
  8
0
 10
101.863
 20
26.1705
 11
101.982
 21
25.9545
  0
LINE
  8
0
 10
101.982
 20
25.9545
 11
102.077
 21
25.7266
  0
LINE
  8
0
 10
102.077
 20
25.7266
 11
102.145
 21
25.4895
  0
LINE
  8
0
 10
102.145
 20
25.4895
 11
102.186
 21
25.2463
  0
LINE
  8
0
 10
102.186
 20
25.2463
 11
102.2
 21
25
  0
LINE
  8
0
 10
102.2
 20
25
 11
102.186
 21
24.7537
  0
LINE
  8
0
 10
102.186
 20
24.7537
 11
102.145
 21
24.5105
  0
LINE
  8
0
 10
102.145
 20
24.5105
 11
102.077
 21
24.2734
  0
LINE
  8
0
 10
102.077
 20
24.2734
 11
101.982
 21
24.0454
  0
LINE
  8
0
 10
101.982
 20
24.0454
 11
101.863
 21
23.8295
  0
LINE
  8
0
 10
101.863
 20
23.8295
 11
101.72
 21
23.6283
  0
LINE
  8
0
 10
101.72
 20
23.6283
 11
101.556
 21
23.4444
  0
LINE
  8
0
 10
101.556
 20
23.4444
 11
101.372
 21
23.28
  0
LINE
  8
0
 10
101.372
 20
23.28
 11
101.17
 21
23.1372
  0
LINE
  8
0
 10
101.17
 20
23.1372
 11
100.955
 21
23.0179
  0
LINE
  8
0
 10
100.955
 20
23.0179
 11
100.727
 21
22.9234
  0
LINE
  8
0
 10
100.727
 20
22.9234
 11
100.49
 21
22.8551
  0
LINE
  8
0
 10
100.49
 20
22.8551
 11
100.246
 21
22.8138
  0
LINE
  8
0
 10
100.246
 20
22.8138
 11
100
 21
22.8
  0
LINE
  8
0
 10
100
 20
22.8
 11
99.7537
 21
22.8138
  0
LINE
  8
0
 10
-140.246
 20
-62.1862
 11
-140.49
 21
-62.1448
  0
LINE
  8
0
 10
-140.49
 20
-62.1448
 11
-140.727
 21
-62.0765
  0
LINE
  8
0
 10
-140.727
 20
-62.0765
 11
-140.955
 21
-61.9821
  0
LINE
  8
0
 10
-140.955
 20
-61.9821
 11
-141.17
 21
-61.8628
  0
LINE
  8
0
 10
-141.17
 20
-61.8628
 11
-141.372
 21
-61.72
  0
LINE
  8
0
 10
-141.372
 20
-61.72
 11
-141.556
 21
-61.5556
  0
LINE
  8
0
 10
-141.556
 20
-61.5556
 11
-141.72
 21
-61.3717
  0
LINE
  8
0
 10
-141.72
 20
-61.3717
 11
-141.863
 21
-61.1705
  0
LINE
  8
0
 10
-141.863
 20
-61.1705
 11
-141.982
 21
-60.9545
  0
LINE
  8
0
 10
-141.982
 20
-60.9545
 11
-142.077
 21
-60.7266
  0
LINE
  8
0
 10
-142.077
 20
-60.7266
 11
-142.145
 21
-60.4895
  0
LINE
  8
0
 10
-142.145
 20
-60.4895
 11
-142.186
 21
-60.2463
  0
LINE
  8
0
 10
-142.186
 20
-60.2463
 11
-142.2
 21
-60
  0
LINE
  8
0
 10
-142.2
 20
-60
 11
-142.186
 21
-59.7537
  0
LINE
  8
0
 10
-142.186
 20
-59.7537
 11
-142.145
 21
-59.5105
  0
LINE
  8
0
 10
-142.145
 20
-59.5105
 11
-142.077
 21
-59.2734
  0
LINE
  8
0
 10
-142.077
 20
-59.2734
 11
-141.982
 21
-59.0454
  0
LINE
  8
0
 10
-141.982
 20
-59.0454
 11
-141.863
 21
-58.8295
  0
LINE
  8
0
 10
-141.863
 20
-58.8295
 11
-141.72
 21
-58.6283
  0
LINE
  8
0
 10
-141.72
 20
-58.6283
 11
-141.556
 21
-58.4444
  0
LINE
  8
0
 10
-141.556
 20
-58.4444
 11
-141.372
 21
-58.28
  0
LINE
  8
0
 10
-141.372
 20
-58.28
 11
-141.17
 21
-58.1372
  0
LINE
  8
0
 10
-141.17
 20
-58.1372
 11
-140.955
 21
-58.0179
  0
LINE
  8
0
 10
-140.955
 20
-58.0179
 11
-140.727
 21
-57.9234
  0
LINE
  8
0
 10
-140.727
 20
-57.9234
 11
-140.49
 21
-57.8551
  0
LINE
  8
0
 10
-140.49
 20
-57.8551
 11
-140.246
 21
-57.8138
  0
LINE
  8
0
 10
-140.246
 20
-57.8138
 11
-140
 21
-57.8
  0
LINE
  8
0
 10
-140
 20
-57.8
 11
-139.754
 21
-57.8138
  0
LINE
  8
0
 10
-139.754
 20
-57.8138
 11
-139.51
 21
-57.8551
  0
LINE
  8
0
 10
-139.51
 20
-57.8551
 11
-139.273
 21
-57.9234
  0
LINE
  8
0
 10
-139.273
 20
-57.9234
 11
-139.045
 21
-58.0179
  0
LINE
  8
0
 10
-139.045
 20
-58.0179
 11
-138.83
 21
-58.1372
  0
LINE
  8
0
 10
-138.83
 20
-58.1372
 11
-138.628
 21
-58.28
  0
LINE
  8
0
 10
-138.628
 20
-58.28
 11
-138.444
 21
-58.4444
  0
LINE
  8
0
 10
-138.444
 20
-58.4444
 11
-138.28
 21
-58.6283
  0
LINE
  8
0
 10
-138.28
 20
-58.6283
 11
-138.137
 21
-58.8295
  0
LINE
  8
0
 10
-138.137
 20
-58.8295
 11
-138.018
 21
-59.0454
  0
LINE
  8
0
 10
-138.018
 20
-59.0454
 11
-137.923
 21
-59.2734
  0
LINE
  8
0
 10
-137.923
 20
-59.2734
 11
-137.855
 21
-59.5105
  0
LINE
  8
0
 10
-137.855
 20
-59.5105
 11
-137.814
 21
-59.7537
  0
LINE
  8
0
 10
-137.814
 20
-59.7537
 11
-137.8
 21
-60
  0
LINE
  8
0
 10
-137.8
 20
-60
 11
-137.814
 21
-60.2463
  0
LINE
  8
0
 10
-137.814
 20
-60.2463
 11
-137.855
 21
-60.4895
  0
LINE
  8
0
 10
-137.855
 20
-60.4895
 11
-137.923
 21
-60.7266
  0
LINE
  8
0
 10
-137.923
 20
-60.7266
 11
-138.018
 21
-60.9545
  0
LINE
  8
0
 10
-138.018
 20
-60.9545
 11
-138.137
 21
-61.1705
  0
LINE
  8
0
 10
-138.137
 20
-61.1705
 11
-138.28
 21
-61.3717
  0
LINE
  8
0
 10
-138.28
 20
-61.3717
 11
-138.444
 21
-61.5556
  0
LINE
  8
0
 10
-138.444
 20
-61.5556
 11
-138.628
 21
-61.72
  0
LINE
  8
0
 10
-138.628
 20
-61.72
 11
-138.83
 21
-61.8628
  0
LINE
  8
0
 10
-138.83
 20
-61.8628
 11
-139.045
 21
-61.9821
  0
LINE
  8
0
 10
-139.045
 20
-61.9821
 11
-139.273
 21
-62.0765
  0
LINE
  8
0
 10
-139.273
 20
-62.0765
 11
-139.51
 21
-62.1448
  0
LINE
  8
0
 10
-139.51
 20
-62.1448
 11
-139.754
 21
-62.1862
  0
LINE
  8
0
 10
-139.754
 20
-62.1862
 11
-140
 21
-62.2
  0
LINE
  8
0
 10
-140
 20
-62.2
 11
-140.246
 21
-62.1862
  0
LINE
  8
0
 10
-140.261
 20
-132.486
 11
-140.52
 21
-132.445
  0
LINE
  8
0
 10
-140.52
 20
-132.445
 11
-140.773
 21
-132.378
  0
LINE
  8
0
 10
-140.773
 20
-132.378
 11
-141.017
 21
-132.284
  0
LINE
  8
0
 10
-141.017
 20
-132.284
 11
-141.25
 21
-132.165
  0
LINE
  8
0
 10
-141.25
 20
-132.165
 11
-141.469
 21
-132.023
  0
LINE
  8
0
 10
-141.469
 20
-132.023
 11
-141.673
 21
-131.858
  0
LINE
  8
0
 10
-141.673
 20
-131.858
 11
-141.858
 21
-131.673
  0
LINE
  8
0
 10
-141.858
 20
-131.673
 11
-142.023
 21
-131.469
  0
LINE
  8
0
 10
-142.023
 20
-131.469
 11
-142.165
 21
-131.25
  0
LINE
  8
0
 10
-142.165
 20
-131.25
 11
-142.284
 21
-131.017
  0
LINE
  8
0
 10
-142.284
 20
-131.017
 11
-142.378
 21
-130.773
  0
LINE
  8
0
 10
-142.378
 20
-130.773
 11
-142.445
 21
-130.52
  0
LINE
  8
0
 10
-142.445
 20
-130.52
 11
-142.486
 21
-130.261
  0
LINE
  8
0
 10
-142.486
 20
-130.261
 11
-142.5
 21
-130
  0
LINE
  8
0
 10
-142.5
 20
-130
 11
-142.486
 21
-129.739
  0
LINE
  8
0
 10
-142.486
 20
-129.739
 11
-142.445
 21
-129.48
  0
LINE
  8
0
 10
-142.445
 20
-129.48
 11
-142.378
 21
-129.227
  0
LINE
  8
0
 10
-142.378
 20
-129.227
 11
-142.284
 21
-128.983
  0
LINE
  8
0
 10
-142.284
 20
-128.983
 11
-142.165
 21
-128.75
  0
LINE
  8
0
 10
-142.165
 20
-128.75
 11
-142.023
 21
-128.531
  0
LINE
  8
0
 10
-142.023
 20
-128.531
 11
-141.858
 21
-128.327
  0
LINE
  8
0
 10
-141.858
 20
-128.327
 11
-141.673
 21
-128.142
  0
LINE
  8
0
 10
-141.673
 20
-128.142
 11
-141.469
 21
-127.977
  0
LINE
  8
0
 10
-141.469
 20
-127.977
 11
-141.25
 21
-127.835
  0
LINE
  8
0
 10
-141.25
 20
-127.835
 11
-141.017
 21
-127.716
  0
LINE
  8
0
 10
-141.017
 20
-127.716
 11
-140.773
 21
-127.622
  0
LINE
  8
0
 10
-140.773
 20
-127.622
 11
-140.52
 21
-127.555
  0
LINE
  8
0
 10
-140.52
 20
-127.555
 11
-140.261
 21
-127.514
  0
LINE
  8
0
 10
-140.261
 20
-127.514
 11
-140
 21
-127.5
  0
LINE
  8
0
 10
-140
 20
-127.5
 11
-139.739
 21
-127.514
  0
LINE
  8
0
 10
-139.739
 20
-127.514
 11
-139.48
 21
-127.555
  0
LINE
  8
0
 10
-139.48
 20
-127.555
 11
-139.227
 21
-127.622
  0
LINE
  8
0
 10
-139.227
 20
-127.622
 11
-138.983
 21
-127.716
  0
LINE
  8
0
 10
-138.983
 20
-127.716
 11
-138.75
 21
-127.835
  0
LINE
  8
0
 10
-138.75
 20
-127.835
 11
-138.531
 21
-127.977
  0
LINE
  8
0
 10
-138.531
 20
-127.977
 11
-138.327
 21
-128.142
  0
LINE
  8
0
 10
-138.327
 20
-128.142
 11
-138.142
 21
-128.327
  0
LINE
  8
0
 10
-138.142
 20
-128.327
 11
-137.977
 21
-128.531
  0
LINE
  8
0
 10
-137.977
 20
-128.531
 11
-137.835
 21
-128.75
  0
LINE
  8
0
 10
-137.835
 20
-128.75
 11
-137.716
 21
-128.983
  0
LINE
  8
0
 10
-137.716
 20
-128.983
 11
-137.622
 21
-129.227
  0
LINE
  8
0
 10
-137.622
 20
-129.227
 11
-137.555
 21
-129.48
  0
LINE
  8
0
 10
-137.555
 20
-129.48
 11
-137.514
 21
-129.739
  0
LINE
  8
0
 10
-137.514
 20
-129.739
 11
-137.5
 21
-130
  0
LINE
  8
0
 10
-137.5
 20
-130
 11
-137.514
 21
-130.261
  0
LINE
  8
0
 10
-137.514
 20
-130.261
 11
-137.555
 21
-130.52
  0
LINE
  8
0
 10
-137.555
 20
-130.52
 11
-137.622
 21
-130.773
  0
LINE
  8
0
 10
-137.622
 20
-130.773
 11
-137.716
 21
-131.017
  0
LINE
  8
0
 10
-137.716
 20
-131.017
 11
-137.835
 21
-131.25
  0
LINE
  8
0
 10
-137.835
 20
-131.25
 11
-137.977
 21
-131.469
  0
LINE
  8
0
 10
-137.977
 20
-131.469
 11
-138.142
 21
-131.673
  0
LINE
  8
0
 10
-138.142
 20
-131.673
 11
-138.327
 21
-131.858
  0
LINE
  8
0
 10
-138.327
 20
-131.858
 11
-138.531
 21
-132.023
  0
LINE
  8
0
 10
-138.531
 20
-132.023
 11
-138.75
 21
-132.165
  0
LINE
  8
0
 10
-138.75
 20
-132.165
 11
-138.983
 21
-132.284
  0
LINE
  8
0
 10
-138.983
 20
-132.284
 11
-139.227
 21
-132.378
  0
LINE
  8
0
 10
-139.227
 20
-132.378
 11
-139.48
 21
-132.445
  0
LINE
  8
0
 10
-139.48
 20
-132.445
 11
-139.739
 21
-132.486
  0
LINE
  8
0
 10
-139.739
 20
-132.486
 11
-140
 21
-132.5
  0
LINE
  8
0
 10
-140
 20
-132.5
 11
-140.261
 21
-132.486
  0
LINE
  8
0
 10
-140.261
 20
-152.486
 11
-140.52
 21
-152.445
  0
LINE
  8
0
 10
-140.52
 20
-152.445
 11
-140.773
 21
-152.378
  0
LINE
  8
0
 10
-140.773
 20
-152.378
 11
-141.017
 21
-152.284
  0
LINE
  8
0
 10
-141.017
 20
-152.284
 11
-141.25
 21
-152.165
  0
LINE
  8
0
 10
-141.25
 20
-152.165
 11
-141.469
 21
-152.023
  0
LINE
  8
0
 10
-141.469
 20
-152.023
 11
-141.673
 21
-151.858
  0
LINE
  8
0
 10
-141.673
 20
-151.858
 11
-141.858
 21
-151.673
  0
LINE
  8
0
 10
-141.858
 20
-151.673
 11
-142.023
 21
-151.469
  0
LINE
  8
0
 10
-142.023
 20
-151.469
 11
-142.165
 21
-151.25
  0
LINE
  8
0
 10
-142.165
 20
-151.25
 11
-142.284
 21
-151.017
  0
LINE
  8
0
 10
-142.284
 20
-151.017
 11
-142.378
 21
-150.773
  0
LINE
  8
0
 10
-142.378
 20
-150.773
 11
-142.445
 21
-150.52
  0
LINE
  8
0
 10
-142.445
 20
-150.52
 11
-142.486
 21
-150.261
  0
LINE
  8
0
 10
-142.486
 20
-150.261
 11
-142.5
 21
-150
  0
LINE
  8
0
 10
-142.5
 20
-150
 11
-142.486
 21
-149.739
  0
LINE
  8
0
 10
-142.486
 20
-149.739
 11
-142.445
 21
-149.48
  0
LINE
  8
0
 10
-142.445
 20
-149.48
 11
-142.378
 21
-149.227
  0
LINE
  8
0
 10
-142.378
 20
-149.227
 11
-142.284
 21
-148.983
  0
LINE
  8
0
 10
-142.284
 20
-148.983
 11
-142.165
 21
-148.75
  0
LINE
  8
0
 10
-142.165
 20
-148.75
 11
-142.023
 21
-148.531
  0
LINE
  8
0
 10
-142.023
 20
-148.531
 11
-141.858
 21
-148.327
  0
LINE
  8
0
 10
-141.858
 20
-148.327
 11
-141.673
 21
-148.142
  0
LINE
  8
0
 10
-141.673
 20
-148.142
 11
-141.469
 21
-147.977
  0
LINE
  8
0
 10
-141.469
 20
-147.977
 11
-141.25
 21
-147.835
  0
LINE
  8
0
 10
-141.25
 20
-147.835
 11
-141.017
 21
-147.716
  0
LINE
  8
0
 10
-141.017
 20
-147.716
 11
-140.773
 21
-147.622
  0
LINE
  8
0
 10
-140.773
 20
-147.622
 11
-140.52
 21
-147.555
  0
LINE
  8
0
 10
-140.52
 20
-147.555
 11
-140.261
 21
-147.514
  0
LINE
  8
0
 10
-140.261
 20
-147.514
 11
-140
 21
-147.5
  0
LINE
  8
0
 10
-140
 20
-147.5
 11
-139.739
 21
-147.514
  0
LINE
  8
0
 10
-139.739
 20
-147.514
 11
-139.48
 21
-147.555
  0
LINE
  8
0
 10
-139.48
 20
-147.555
 11
-139.227
 21
-147.622
  0
LINE
  8
0
 10
-139.227
 20
-147.622
 11
-138.983
 21
-147.716
  0
LINE
  8
0
 10
-138.983
 20
-147.716
 11
-138.75
 21
-147.835
  0
LINE
  8
0
 10
-138.75
 20
-147.835
 11
-138.531
 21
-147.977
  0
LINE
  8
0
 10
-138.531
 20
-147.977
 11
-138.327
 21
-148.142
  0
LINE
  8
0
 10
-138.327
 20
-148.142
 11
-138.142
 21
-148.327
  0
LINE
  8
0
 10
-138.142
 20
-148.327
 11
-137.977
 21
-148.531
  0
LINE
  8
0
 10
-137.977
 20
-148.531
 11
-137.835
 21
-148.75
  0
LINE
  8
0
 10
-137.835
 20
-148.75
 11
-137.716
 21
-148.983
  0
LINE
  8
0
 10
-137.716
 20
-148.983
 11
-137.622
 21
-149.227
  0
LINE
  8
0
 10
-137.622
 20
-149.227
 11
-137.555
 21
-149.48
  0
LINE
  8
0
 10
-137.555
 20
-149.48
 11
-137.514
 21
-149.739
  0
LINE
  8
0
 10
-137.514
 20
-149.739
 11
-137.5
 21
-150
  0
LINE
  8
0
 10
-137.5
 20
-150
 11
-137.514
 21
-150.261
  0
LINE
  8
0
 10
-137.514
 20
-150.261
 11
-137.555
 21
-150.52
  0
LINE
  8
0
 10
-137.555
 20
-150.52
 11
-137.622
 21
-150.773
  0
LINE
  8
0
 10
-137.622
 20
-150.773
 11
-137.716
 21
-151.017
  0
LINE
  8
0
 10
-137.716
 20
-151.017
 11
-137.835
 21
-151.25
  0
LINE
  8
0
 10
-137.835
 20
-151.25
 11
-137.977
 21
-151.469
  0
LINE
  8
0
 10
-137.977
 20
-151.469
 11
-138.142
 21
-151.673
  0
LINE
  8
0
 10
-138.142
 20
-151.673
 11
-138.327
 21
-151.858
  0
LINE
  8
0
 10
-138.327
 20
-151.858
 11
-138.531
 21
-152.023
  0
LINE
  8
0
 10
-138.531
 20
-152.023
 11
-138.75
 21
-152.165
  0
LINE
  8
0
 10
-138.75
 20
-152.165
 11
-138.983
 21
-152.284
  0
LINE
  8
0
 10
-138.983
 20
-152.284
 11
-139.227
 21
-152.378
  0
LINE
  8
0
 10
-139.227
 20
-152.378
 11
-139.48
 21
-152.445
  0
LINE
  8
0
 10
-139.48
 20
-152.445
 11
-139.739
 21
-152.486
  0
LINE
  8
0
 10
-139.739
 20
-152.486
 11
-140
 21
-152.5
  0
LINE
  8
0
 10
-140
 20
-152.5
 11
-140.261
 21
-152.486
  0
LINE
  8
0
 10
-140.261
 20
-172.486
 11
-140.52
 21
-172.445
  0
LINE
  8
0
 10
-140.52
 20
-172.445
 11
-140.773
 21
-172.378
  0
LINE
  8
0
 10
-140.773
 20
-172.378
 11
-141.017
 21
-172.284
  0
LINE
  8
0
 10
-141.017
 20
-172.284
 11
-141.25
 21
-172.165
  0
LINE
  8
0
 10
-141.25
 20
-172.165
 11
-141.469
 21
-172.023
  0
LINE
  8
0
 10
-141.469
 20
-172.023
 11
-141.673
 21
-171.858
  0
LINE
  8
0
 10
-141.673
 20
-171.858
 11
-141.858
 21
-171.673
  0
LINE
  8
0
 10
-141.858
 20
-171.673
 11
-142.023
 21
-171.469
  0
LINE
  8
0
 10
-142.023
 20
-171.469
 11
-142.165
 21
-171.25
  0
LINE
  8
0
 10
-142.165
 20
-171.25
 11
-142.284
 21
-171.017
  0
LINE
  8
0
 10
-142.284
 20
-171.017
 11
-142.378
 21
-170.773
  0
LINE
  8
0
 10
-142.378
 20
-170.773
 11
-142.445
 21
-170.52
  0
LINE
  8
0
 10
-142.445
 20
-170.52
 11
-142.486
 21
-170.261
  0
LINE
  8
0
 10
-142.486
 20
-170.261
 11
-142.5
 21
-170
  0
LINE
  8
0
 10
-142.5
 20
-170
 11
-142.486
 21
-169.739
  0
LINE
  8
0
 10
-142.486
 20
-169.739
 11
-142.445
 21
-169.48
  0
LINE
  8
0
 10
-142.445
 20
-169.48
 11
-142.378
 21
-169.227
  0
LINE
  8
0
 10
-142.378
 20
-169.227
 11
-142.284
 21
-168.983
  0
LINE
  8
0
 10
-142.284
 20
-168.983
 11
-142.165
 21
-168.75
  0
LINE
  8
0
 10
-142.165
 20
-168.75
 11
-142.023
 21
-168.531
  0
LINE
  8
0
 10
-142.023
 20
-168.531
 11
-141.858
 21
-168.327
  0
LINE
  8
0
 10
-141.858
 20
-168.327
 11
-141.673
 21
-168.142
  0
LINE
  8
0
 10
-141.673
 20
-168.142
 11
-141.469
 21
-167.977
  0
LINE
  8
0
 10
-141.469
 20
-167.977
 11
-141.25
 21
-167.835
  0
LINE
  8
0
 10
-141.25
 20
-167.835
 11
-141.017
 21
-167.716
  0
LINE
  8
0
 10
-141.017
 20
-167.716
 11
-140.773
 21
-167.622
  0
LINE
  8
0
 10
-140.773
 20
-167.622
 11
-140.52
 21
-167.555
  0
LINE
  8
0
 10
-140.52
 20
-167.555
 11
-140.261
 21
-167.514
  0
LINE
  8
0
 10
-140.261
 20
-167.514
 11
-140
 21
-167.5
  0
LINE
  8
0
 10
-140
 20
-167.5
 11
-139.739
 21
-167.514
  0
LINE
  8
0
 10
-139.739
 20
-167.514
 11
-139.48
 21
-167.555
  0
LINE
  8
0
 10
-139.48
 20
-167.555
 11
-139.227
 21
-167.622
  0
LINE
  8
0
 10
-139.227
 20
-167.622
 11
-138.983
 21
-167.716
  0
LINE
  8
0
 10
-138.983
 20
-167.716
 11
-138.75
 21
-167.835
  0
LINE
  8
0
 10
-138.75
 20
-167.835
 11
-138.531
 21
-167.977
  0
LINE
  8
0
 10
-138.531
 20
-167.977
 11
-138.327
 21
-168.142
  0
LINE
  8
0
 10
-138.327
 20
-168.142
 11
-138.142
 21
-168.327
  0
LINE
  8
0
 10
-138.142
 20
-168.327
 11
-137.977
 21
-168.531
  0
LINE
  8
0
 10
-137.977
 20
-168.531
 11
-137.835
 21
-168.75
  0
LINE
  8
0
 10
-137.835
 20
-168.75
 11
-137.716
 21
-168.983
  0
LINE
  8
0
 10
-137.716
 20
-168.983
 11
-137.622
 21
-169.227
  0
LINE
  8
0
 10
-137.622
 20
-169.227
 11
-137.555
 21
-169.48
  0
LINE
  8
0
 10
-137.555
 20
-169.48
 11
-137.514
 21
-169.739
  0
LINE
  8
0
 10
-137.514
 20
-169.739
 11
-137.5
 21
-170
  0
LINE
  8
0
 10
-137.5
 20
-170
 11
-137.514
 21
-170.261
  0
LINE
  8
0
 10
-137.514
 20
-170.261
 11
-137.555
 21
-170.52
  0
LINE
  8
0
 10
-137.555
 20
-170.52
 11
-137.622
 21
-170.773
  0
LINE
  8
0
 10
-137.622
 20
-170.773
 11
-137.716
 21
-171.017
  0
LINE
  8
0
 10
-137.716
 20
-171.017
 11
-137.835
 21
-171.25
  0
LINE
  8
0
 10
-137.835
 20
-171.25
 11
-137.977
 21
-171.469
  0
LINE
  8
0
 10
-137.977
 20
-171.469
 11
-138.142
 21
-171.673
  0
LINE
  8
0
 10
-138.142
 20
-171.673
 11
-138.327
 21
-171.858
  0
LINE
  8
0
 10
-138.327
 20
-171.858
 11
-138.531
 21
-172.023
  0
LINE
  8
0
 10
-138.531
 20
-172.023
 11
-138.75
 21
-172.165
  0
LINE
  8
0
 10
-138.75
 20
-172.165
 11
-138.983
 21
-172.284
  0
LINE
  8
0
 10
-138.983
 20
-172.284
 11
-139.227
 21
-172.378
  0
LINE
  8
0
 10
-139.227
 20
-172.378
 11
-139.48
 21
-172.445
  0
LINE
  8
0
 10
-139.48
 20
-172.445
 11
-139.739
 21
-172.486
  0
LINE
  8
0
 10
-139.739
 20
-172.486
 11
-140
 21
-172.5
  0
LINE
  8
0
 10
-140
 20
-172.5
 11
-140.261
 21
-172.486
  0
LINE
  8
0
 10
-140.246
 20
-182.186
 11
-140.49
 21
-182.145
  0
LINE
  8
0
 10
-140.49
 20
-182.145
 11
-140.727
 21
-182.077
  0
LINE
  8
0
 10
-140.727
 20
-182.077
 11
-140.955
 21
-181.982
  0
LINE
  8
0
 10
-140.955
 20
-181.982
 11
-141.17
 21
-181.863
  0
LINE
  8
0
 10
-141.17
 20
-181.863
 11
-141.372
 21
-181.72
  0
LINE
  8
0
 10
-141.372
 20
-181.72
 11
-141.556
 21
-181.556
  0
LINE
  8
0
 10
-141.556
 20
-181.556
 11
-141.72
 21
-181.372
  0
LINE
  8
0
 10
-141.72
 20
-181.372
 11
-141.863
 21
-181.17
  0
LINE
  8
0
 10
-141.863
 20
-181.17
 11
-141.982
 21
-180.955
  0
LINE
  8
0
 10
-141.982
 20
-180.955
 11
-142.077
 21
-180.727
  0
LINE
  8
0
 10
-142.077
 20
-180.727
 11
-142.145
 21
-180.49
  0
LINE
  8
0
 10
-142.145
 20
-180.49
 11
-142.186
 21
-180.246
  0
LINE
  8
0
 10
-142.186
 20
-180.246
 11
-142.2
 21
-180
  0
LINE
  8
0
 10
-142.2
 20
-180
 11
-142.186
 21
-179.754
  0
LINE
  8
0
 10
-142.186
 20
-179.754
 11
-142.145
 21
-179.51
  0
LINE
  8
0
 10
-142.145
 20
-179.51
 11
-142.077
 21
-179.273
  0
LINE
  8
0
 10
-142.077
 20
-179.273
 11
-141.982
 21
-179.045
  0
LINE
  8
0
 10
-141.982
 20
-179.045
 11
-141.863
 21
-178.83
  0
LINE
  8
0
 10
-141.863
 20
-178.83
 11
-141.72
 21
-178.628
  0
LINE
  8
0
 10
-141.72
 20
-178.628
 11
-141.556
 21
-178.444
  0
LINE
  8
0
 10
-141.556
 20
-178.444
 11
-141.372
 21
-178.28
  0
LINE
  8
0
 10
-141.372
 20
-178.28
 11
-141.17
 21
-178.137
  0
LINE
  8
0
 10
-141.17
 20
-178.137
 11
-140.955
 21
-178.018
  0
LINE
  8
0
 10
-140.955
 20
-178.018
 11
-140.727
 21
-177.923
  0
LINE
  8
0
 10
-140.727
 20
-177.923
 11
-140.49
 21
-177.855
  0
LINE
  8
0
 10
-140.49
 20
-177.855
 11
-140.246
 21
-177.814
  0
LINE
  8
0
 10
-140.246
 20
-177.814
 11
-140
 21
-177.8
  0
LINE
  8
0
 10
-140
 20
-177.8
 11
-139.754
 21
-177.814
  0
LINE
  8
0
 10
-139.754
 20
-177.814
 11
-139.51
 21
-177.855
  0
LINE
  8
0
 10
-139.51
 20
-177.855
 11
-139.273
 21
-177.923
  0
LINE
  8
0
 10
-139.273
 20
-177.923
 11
-139.045
 21
-178.018
  0
LINE
  8
0
 10
-139.045
 20
-178.018
 11
-138.83
 21
-178.137
  0
LINE
  8
0
 10
-138.83
 20
-178.137
 11
-138.628
 21
-178.28
  0
LINE
  8
0
 10
-138.628
 20
-178.28
 11
-138.444
 21
-178.444
  0
LINE
  8
0
 10
-138.444
 20
-178.444
 11
-138.28
 21
-178.628
  0
LINE
  8
0
 10
-138.28
 20
-178.628
 11
-138.137
 21
-178.83
  0
LINE
  8
0
 10
-138.137
 20
-178.83
 11
-138.018
 21
-179.045
  0
LINE
  8
0
 10
-138.018
 20
-179.045
 11
-137.923
 21
-179.273
  0
LINE
  8
0
 10
-137.923
 20
-179.273
 11
-137.855
 21
-179.51
  0
LINE
  8
0
 10
-137.855
 20
-179.51
 11
-137.814
 21
-179.754
  0
LINE
  8
0
 10
-137.814
 20
-179.754
 11
-137.8
 21
-180
  0
LINE
  8
0
 10
-137.8
 20
-180
 11
-137.814
 21
-180.246
  0
LINE
  8
0
 10
-137.814
 20
-180.246
 11
-137.855
 21
-180.49
  0
LINE
  8
0
 10
-137.855
 20
-180.49
 11
-137.923
 21
-180.727
  0
LINE
  8
0
 10
-137.923
 20
-180.727
 11
-138.018
 21
-180.955
  0
LINE
  8
0
 10
-138.018
 20
-180.955
 11
-138.137
 21
-181.17
  0
LINE
  8
0
 10
-138.137
 20
-181.17
 11
-138.28
 21
-181.372
  0
LINE
  8
0
 10
-138.28
 20
-181.372
 11
-138.444
 21
-181.556
  0
LINE
  8
0
 10
-138.444
 20
-181.556
 11
-138.628
 21
-181.72
  0
LINE
  8
0
 10
-138.628
 20
-181.72
 11
-138.83
 21
-181.863
  0
LINE
  8
0
 10
-138.83
 20
-181.863
 11
-139.045
 21
-181.982
  0
LINE
  8
0
 10
-139.045
 20
-181.982
 11
-139.273
 21
-182.077
  0
LINE
  8
0
 10
-139.273
 20
-182.077
 11
-139.51
 21
-182.145
  0
LINE
  8
0
 10
-139.51
 20
-182.145
 11
-139.754
 21
-182.186
  0
LINE
  8
0
 10
-139.754
 20
-182.186
 11
-140
 21
-182.2
  0
LINE
  8
0
 10
-140
 20
-182.2
 11
-140.246
 21
-182.186
  0
LINE
  8
0
 10
-140.261
 20
-192.486
 11
-140.52
 21
-192.445
  0
LINE
  8
0
 10
-140.52
 20
-192.445
 11
-140.773
 21
-192.378
  0
LINE
  8
0
 10
-140.773
 20
-192.378
 11
-141.017
 21
-192.284
  0
LINE
  8
0
 10
-141.017
 20
-192.284
 11
-141.25
 21
-192.165
  0
LINE
  8
0
 10
-141.25
 20
-192.165
 11
-141.469
 21
-192.023
  0
LINE
  8
0
 10
-141.469
 20
-192.023
 11
-141.673
 21
-191.858
  0
LINE
  8
0
 10
-141.673
 20
-191.858
 11
-141.858
 21
-191.673
  0
LINE
  8
0
 10
-141.858
 20
-191.673
 11
-142.023
 21
-191.469
  0
LINE
  8
0
 10
-142.023
 20
-191.469
 11
-142.165
 21
-191.25
  0
LINE
  8
0
 10
-142.165
 20
-191.25
 11
-142.284
 21
-191.017
  0
LINE
  8
0
 10
-142.284
 20
-191.017
 11
-142.378
 21
-190.773
  0
LINE
  8
0
 10
-142.378
 20
-190.773
 11
-142.445
 21
-190.52
  0
LINE
  8
0
 10
-142.445
 20
-190.52
 11
-142.486
 21
-190.261
  0
LINE
  8
0
 10
-142.486
 20
-190.261
 11
-142.5
 21
-190
  0
LINE
  8
0
 10
-142.5
 20
-190
 11
-142.486
 21
-189.739
  0
LINE
  8
0
 10
-142.486
 20
-189.739
 11
-142.445
 21
-189.48
  0
LINE
  8
0
 10
-142.445
 20
-189.48
 11
-142.378
 21
-189.227
  0
LINE
  8
0
 10
-142.378
 20
-189.227
 11
-142.284
 21
-188.983
  0
LINE
  8
0
 10
-142.284
 20
-188.983
 11
-142.165
 21
-188.75
  0
LINE
  8
0
 10
-142.165
 20
-188.75
 11
-142.023
 21
-188.531
  0
LINE
  8
0
 10
-142.023
 20
-188.531
 11
-141.858
 21
-188.327
  0
LINE
  8
0
 10
-141.858
 20
-188.327
 11
-141.673
 21
-188.142
  0
LINE
  8
0
 10
-141.673
 20
-188.142
 11
-141.469
 21
-187.977
  0
LINE
  8
0
 10
-141.469
 20
-187.977
 11
-141.25
 21
-187.835
  0
LINE
  8
0
 10
-141.25
 20
-187.835
 11
-141.017
 21
-187.716
  0
LINE
  8
0
 10
-141.017
 20
-187.716
 11
-140.773
 21
-187.622
  0
LINE
  8
0
 10
-140.773
 20
-187.622
 11
-140.52
 21
-187.555
  0
LINE
  8
0
 10
-140.52
 20
-187.555
 11
-140.261
 21
-187.514
  0
LINE
  8
0
 10
-140.261
 20
-187.514
 11
-140
 21
-187.5
  0
LINE
  8
0
 10
-140
 20
-187.5
 11
-139.739
 21
-187.514
  0
LINE
  8
0
 10
-139.739
 20
-187.514
 11
-139.48
 21
-187.555
  0
LINE
  8
0
 10
-139.48
 20
-187.555
 11
-139.227
 21
-187.622
  0
LINE
  8
0
 10
-139.227
 20
-187.622
 11
-138.983
 21
-187.716
  0
LINE
  8
0
 10
-138.983
 20
-187.716
 11
-138.75
 21
-187.835
  0
LINE
  8
0
 10
-138.75
 20
-187.835
 11
-138.531
 21
-187.977
  0
LINE
  8
0
 10
-138.531
 20
-187.977
 11
-138.327
 21
-188.142
  0
LINE
  8
0
 10
-138.327
 20
-188.142
 11
-138.142
 21
-188.327
  0
LINE
  8
0
 10
-138.142
 20
-188.327
 11
-137.977
 21
-188.531
  0
LINE
  8
0
 10
-137.977
 20
-188.531
 11
-137.835
 21
-188.75
  0
LINE
  8
0
 10
-137.835
 20
-188.75
 11
-137.716
 21
-188.983
  0
LINE
  8
0
 10
-137.716
 20
-188.983
 11
-137.622
 21
-189.227
  0
LINE
  8
0
 10
-137.622
 20
-189.227
 11
-137.555
 21
-189.48
  0
LINE
  8
0
 10
-137.555
 20
-189.48
 11
-137.514
 21
-189.739
  0
LINE
  8
0
 10
-137.514
 20
-189.739
 11
-137.5
 21
-190
  0
LINE
  8
0
 10
-137.5
 20
-190
 11
-137.514
 21
-190.261
  0
LINE
  8
0
 10
-137.514
 20
-190.261
 11
-137.555
 21
-190.52
  0
LINE
  8
0
 10
-137.555
 20
-190.52
 11
-137.622
 21
-190.773
  0
LINE
  8
0
 10
-137.622
 20
-190.773
 11
-137.716
 21
-191.017
  0
LINE
  8
0
 10
-137.716
 20
-191.017
 11
-137.835
 21
-191.25
  0
LINE
  8
0
 10
-137.835
 20
-191.25
 11
-137.977
 21
-191.469
  0
LINE
  8
0
 10
-137.977
 20
-191.469
 11
-138.142
 21
-191.673
  0
LINE
  8
0
 10
-138.142
 20
-191.673
 11
-138.327
 21
-191.858
  0
LINE
  8
0
 10
-138.327
 20
-191.858
 11
-138.531
 21
-192.023
  0
LINE
  8
0
 10
-138.531
 20
-192.023
 11
-138.75
 21
-192.165
  0
LINE
  8
0
 10
-138.75
 20
-192.165
 11
-138.983
 21
-192.284
  0
LINE
  8
0
 10
-138.983
 20
-192.284
 11
-139.227
 21
-192.378
  0
LINE
  8
0
 10
-139.227
 20
-192.378
 11
-139.48
 21
-192.445
  0
LINE
  8
0
 10
-139.48
 20
-192.445
 11
-139.739
 21
-192.486
  0
LINE
  8
0
 10
-139.739
 20
-192.486
 11
-140
 21
-192.5
  0
LINE
  8
0
 10
-140
 20
-192.5
 11
-140.261
 21
-192.486
  0
LINE
  8
0
 10
-110.246
 20
-192.186
 11
-110.49
 21
-192.145
  0
LINE
  8
0
 10
-110.49
 20
-192.145
 11
-110.727
 21
-192.077
  0
LINE
  8
0
 10
-110.727
 20
-192.077
 11
-110.955
 21
-191.982
  0
LINE
  8
0
 10
-110.955
 20
-191.982
 11
-111.17
 21
-191.863
  0
LINE
  8
0
 10
-111.17
 20
-191.863
 11
-111.372
 21
-191.72
  0
LINE
  8
0
 10
-111.372
 20
-191.72
 11
-111.556
 21
-191.556
  0
LINE
  8
0
 10
-111.556
 20
-191.556
 11
-111.72
 21
-191.372
  0
LINE
  8
0
 10
-111.72
 20
-191.372
 11
-111.863
 21
-191.17
  0
LINE
  8
0
 10
-111.863
 20
-191.17
 11
-111.982
 21
-190.955
  0
LINE
  8
0
 10
-111.982
 20
-190.955
 11
-112.077
 21
-190.727
  0
LINE
  8
0
 10
-112.077
 20
-190.727
 11
-112.145
 21
-190.49
  0
LINE
  8
0
 10
-112.145
 20
-190.49
 11
-112.186
 21
-190.246
  0
LINE
  8
0
 10
-112.186
 20
-190.246
 11
-112.2
 21
-190
  0
LINE
  8
0
 10
-112.2
 20
-190
 11
-112.186
 21
-189.754
  0
LINE
  8
0
 10
-112.186
 20
-189.754
 11
-112.145
 21
-189.51
  0
LINE
  8
0
 10
-112.145
 20
-189.51
 11
-112.077
 21
-189.273
  0
LINE
  8
0
 10
-112.077
 20
-189.273
 11
-111.982
 21
-189.045
  0
LINE
  8
0
 10
-111.982
 20
-189.045
 11
-111.863
 21
-188.83
  0
LINE
  8
0
 10
-111.863
 20
-188.83
 11
-111.72
 21
-188.628
  0
LINE
  8
0
 10
-111.72
 20
-188.628
 11
-111.556
 21
-188.444
  0
LINE
  8
0
 10
-111.556
 20
-188.444
 11
-111.372
 21
-188.28
  0
LINE
  8
0
 10
-111.372
 20
-188.28
 11
-111.17
 21
-188.137
  0
LINE
  8
0
 10
-111.17
 20
-188.137
 11
-110.955
 21
-188.018
  0
LINE
  8
0
 10
-110.955
 20
-188.018
 11
-110.727
 21
-187.923
  0
LINE
  8
0
 10
-110.727
 20
-187.923
 11
-110.49
 21
-187.855
  0
LINE
  8
0
 10
-110.49
 20
-187.855
 11
-110.246
 21
-187.814
  0
LINE
  8
0
 10
-110.246
 20
-187.814
 11
-110
 21
-187.8
  0
LINE
  8
0
 10
-110
 20
-187.8
 11
-109.754
 21
-187.814
  0
LINE
  8
0
 10
-109.754
 20
-187.814
 11
-109.51
 21
-187.855
  0
LINE
  8
0
 10
-109.51
 20
-187.855
 11
-109.273
 21
-187.923
  0
LINE
  8
0
 10
-109.273
 20
-187.923
 11
-109.045
 21
-188.018
  0
LINE
  8
0
 10
-109.045
 20
-188.018
 11
-108.83
 21
-188.137
  0
LINE
  8
0
 10
-108.83
 20
-188.137
 11
-108.628
 21
-188.28
  0
LINE
  8
0
 10
-108.628
 20
-188.28
 11
-108.444
 21
-188.444
  0
LINE
  8
0
 10
-108.444
 20
-188.444
 11
-108.28
 21
-188.628
  0
LINE
  8
0
 10
-108.28
 20
-188.628
 11
-108.137
 21
-188.83
  0
LINE
  8
0
 10
-108.137
 20
-188.83
 11
-108.018
 21
-189.045
  0
LINE
  8
0
 10
-108.018
 20
-189.045
 11
-107.923
 21
-189.273
  0
LINE
  8
0
 10
-107.923
 20
-189.273
 11
-107.855
 21
-189.51
  0
LINE
  8
0
 10
-107.855
 20
-189.51
 11
-107.814
 21
-189.754
  0
LINE
  8
0
 10
-107.814
 20
-189.754
 11
-107.8
 21
-190
  0
LINE
  8
0
 10
-107.8
 20
-190
 11
-107.814
 21
-190.246
  0
LINE
  8
0
 10
-107.814
 20
-190.246
 11
-107.855
 21
-190.49
  0
LINE
  8
0
 10
-107.855
 20
-190.49
 11
-107.923
 21
-190.727
  0
LINE
  8
0
 10
-107.923
 20
-190.727
 11
-108.018
 21
-190.955
  0
LINE
  8
0
 10
-108.018
 20
-190.955
 11
-108.137
 21
-191.17
  0
LINE
  8
0
 10
-108.137
 20
-191.17
 11
-108.28
 21
-191.372
  0
LINE
  8
0
 10
-108.28
 20
-191.372
 11
-108.444
 21
-191.556
  0
LINE
  8
0
 10
-108.444
 20
-191.556
 11
-108.628
 21
-191.72
  0
LINE
  8
0
 10
-108.628
 20
-191.72
 11
-108.83
 21
-191.863
  0
LINE
  8
0
 10
-108.83
 20
-191.863
 11
-109.045
 21
-191.982
  0
LINE
  8
0
 10
-109.045
 20
-191.982
 11
-109.273
 21
-192.077
  0
LINE
  8
0
 10
-109.273
 20
-192.077
 11
-109.51
 21
-192.145
  0
LINE
  8
0
 10
-109.51
 20
-192.145
 11
-109.754
 21
-192.186
  0
LINE
  8
0
 10
-109.754
 20
-192.186
 11
-110
 21
-192.2
  0
LINE
  8
0
 10
-110
 20
-192.2
 11
-110.246
 21
-192.186
  0
LINE
  8
0
 10
9.75368
 20
-192.186
 11
9.51045
 21
-192.145
  0
LINE
  8
0
 10
9.51045
 20
-192.145
 11
9.27338
 21
-192.077
  0
LINE
  8
0
 10
9.27338
 20
-192.077
 11
9.04544
 21
-191.982
  0
LINE
  8
0
 10
9.04544
 20
-191.982
 11
8.82953
 21
-191.863
  0
LINE
  8
0
 10
8.82953
 20
-191.863
 11
8.62831
 21
-191.72
  0
LINE
  8
0
 10
8.62831
 20
-191.72
 11
8.44435
 21
-191.556
  0
LINE
  8
0
 10
8.44435
 20
-191.556
 11
8.27997
 21
-191.372
  0
LINE
  8
0
 10
8.27997
 20
-191.372
 11
8.13719
 21
-191.17
  0
LINE
  8
0
 10
8.13719
 20
-191.17
 11
8.01787
 21
-190.955
  0
LINE
  8
0
 10
8.01787
 20
-190.955
 11
7.92345
 21
-190.727
  0
LINE
  8
0
 10
7.92345
 20
-190.727
 11
7.85515
 21
-190.49
  0
LINE
  8
0
 10
7.85515
 20
-190.49
 11
7.81383
 21
-190.246
  0
LINE
  8
0
 10
7.81383
 20
-190.246
 11
7.79999
 21
-190
  0
LINE
  8
0
 10
7.79999
 20
-190
 11
7.81383
 21
-189.754
  0
LINE
  8
0
 10
7.81383
 20
-189.754
 11
7.85515
 21
-189.51
  0
LINE
  8
0
 10
7.85515
 20
-189.51
 11
7.92345
 21
-189.273
  0
LINE
  8
0
 10
7.92345
 20
-189.273
 11
8.01787
 21
-189.045
  0
LINE
  8
0
 10
8.01787
 20
-189.045
 11
8.13719
 21
-188.83
  0
LINE
  8
0
 10
8.13719
 20
-188.83
 11
8.27997
 21
-188.628
  0
LINE
  8
0
 10
8.27997
 20
-188.628
 11
8.44435
 21
-188.444
  0
LINE
  8
0
 10
8.44435
 20
-188.444
 11
8.62831
 21
-188.28
  0
LINE
  8
0
 10
8.62831
 20
-188.28
 11
8.82953
 21
-188.137
  0
LINE
  8
0
 10
8.82953
 20
-188.137
 11
9.04544
 21
-188.018
  0
LINE
  8
0
 10
9.04544
 20
-188.018
 11
9.27338
 21
-187.923
  0
LINE
  8
0
 10
9.27338
 20
-187.923
 11
9.51045
 21
-187.855
  0
LINE
  8
0
 10
9.51045
 20
-187.855
 11
9.75368
 21
-187.814
  0
LINE
  8
0
 10
9.75368
 20
-187.814
 11
10
 21
-187.8
  0
LINE
  8
0
 10
10
 20
-187.8
 11
10.2463
 21
-187.814
  0
LINE
  8
0
 10
10.2463
 20
-187.814
 11
10.4895
 21
-187.855
  0
LINE
  8
0
 10
10.4895
 20
-187.855
 11
10.7266
 21
-187.923
  0
LINE
  8
0
 10
10.7266
 20
-187.923
 11
10.9545
 21
-188.018
  0
LINE
  8
0
 10
10.9545
 20
-188.018
 11
11.1705
 21
-188.137
  0
LINE
  8
0
 10
11.1705
 20
-188.137
 11
11.3717
 21
-188.28
  0
LINE
  8
0
 10
11.3717
 20
-188.28
 11
11.5556
 21
-188.444
  0
LINE
  8
0
 10
11.5556
 20
-188.444
 11
11.72
 21
-188.628
  0
LINE
  8
0
 10
11.72
 20
-188.628
 11
11.8628
 21
-188.83
  0
LINE
  8
0
 10
11.8628
 20
-188.83
 11
11.9821
 21
-189.045
  0
LINE
  8
0
 10
11.9821
 20
-189.045
 11
12.0765
 21
-189.273
  0
LINE
  8
0
 10
12.0765
 20
-189.273
 11
12.1448
 21
-189.51
  0
LINE
  8
0
 10
12.1448
 20
-189.51
 11
12.1862
 21
-189.754
  0
LINE
  8
0
 10
12.1862
 20
-189.754
 11
12.2
 21
-190
  0
LINE
  8
0
 10
12.2
 20
-190
 11
12.1862
 21
-190.246
  0
LINE
  8
0
 10
12.1862
 20
-190.246
 11
12.1448
 21
-190.49
  0
LINE
  8
0
 10
12.1448
 20
-190.49
 11
12.0765
 21
-190.727
  0
LINE
  8
0
 10
12.0765
 20
-190.727
 11
11.9821
 21
-190.955
  0
LINE
  8
0
 10
11.9821
 20
-190.955
 11
11.8628
 21
-191.17
  0
LINE
  8
0
 10
11.8628
 20
-191.17
 11
11.72
 21
-191.372
  0
LINE
  8
0
 10
11.72
 20
-191.372
 11
11.5556
 21
-191.556
  0
LINE
  8
0
 10
11.5556
 20
-191.556
 11
11.3717
 21
-191.72
  0
LINE
  8
0
 10
11.3717
 20
-191.72
 11
11.1705
 21
-191.863
  0
LINE
  8
0
 10
11.1705
 20
-191.863
 11
10.9545
 21
-191.982
  0
LINE
  8
0
 10
10.9545
 20
-191.982
 11
10.7266
 21
-192.077
  0
LINE
  8
0
 10
10.7266
 20
-192.077
 11
10.4895
 21
-192.145
  0
LINE
  8
0
 10
10.4895
 20
-192.145
 11
10.2463
 21
-192.186
  0
LINE
  8
0
 10
10.2463
 20
-192.186
 11
10
 21
-192.2
  0
LINE
  8
0
 10
10
 20
-192.2
 11
9.75368
 21
-192.186
  0
LINE
  8
0
 10
129.754
 20
-192.186
 11
129.51
 21
-192.145
  0
LINE
  8
0
 10
129.51
 20
-192.145
 11
129.273
 21
-192.077
  0
LINE
  8
0
 10
129.273
 20
-192.077
 11
129.045
 21
-191.982
  0
LINE
  8
0
 10
129.045
 20
-191.982
 11
128.83
 21
-191.863
  0
LINE
  8
0
 10
128.83
 20
-191.863
 11
128.628
 21
-191.72
  0
LINE
  8
0
 10
128.628
 20
-191.72
 11
128.444
 21
-191.556
  0
LINE
  8
0
 10
128.444
 20
-191.556
 11
128.28
 21
-191.372
  0
LINE
  8
0
 10
128.28
 20
-191.372
 11
128.137
 21
-191.17
  0
LINE
  8
0
 10
128.137
 20
-191.17
 11
128.018
 21
-190.955
  0
LINE
  8
0
 10
128.018
 20
-190.955
 11
127.923
 21
-190.727
  0
LINE
  8
0
 10
127.923
 20
-190.727
 11
127.855
 21
-190.49
  0
LINE
  8
0
 10
127.855
 20
-190.49
 11
127.814
 21
-190.246
  0
LINE
  8
0
 10
127.814
 20
-190.246
 11
127.8
 21
-190
  0
LINE
  8
0
 10
127.8
 20
-190
 11
127.814
 21
-189.754
  0
LINE
  8
0
 10
127.814
 20
-189.754
 11
127.855
 21
-189.51
  0
LINE
  8
0
 10
127.855
 20
-189.51
 11
127.923
 21
-189.273
  0
LINE
  8
0
 10
127.923
 20
-189.273
 11
128.018
 21
-189.045
  0
LINE
  8
0
 10
128.018
 20
-189.045
 11
128.137
 21
-188.83
  0
LINE
  8
0
 10
128.137
 20
-188.83
 11
128.28
 21
-188.628
  0
LINE
  8
0
 10
128.28
 20
-188.628
 11
128.444
 21
-188.444
  0
LINE
  8
0
 10
128.444
 20
-188.444
 11
128.628
 21
-188.28
  0
LINE
  8
0
 10
128.628
 20
-188.28
 11
128.83
 21
-188.137
  0
LINE
  8
0
 10
128.83
 20
-188.137
 11
129.045
 21
-188.018
  0
LINE
  8
0
 10
129.045
 20
-188.018
 11
129.273
 21
-187.923
  0
LINE
  8
0
 10
129.273
 20
-187.923
 11
129.51
 21
-187.855
  0
LINE
  8
0
 10
129.51
 20
-187.855
 11
129.754
 21
-187.814
  0
LINE
  8
0
 10
129.754
 20
-187.814
 11
130
 21
-187.8
  0
LINE
  8
0
 10
130
 20
-187.8
 11
130.246
 21
-187.814
  0
LINE
  8
0
 10
130.246
 20
-187.814
 11
130.49
 21
-187.855
  0
LINE
  8
0
 10
130.49
 20
-187.855
 11
130.727
 21
-187.923
  0
LINE
  8
0
 10
130.727
 20
-187.923
 11
130.955
 21
-188.018
  0
LINE
  8
0
 10
130.955
 20
-188.018
 11
131.17
 21
-188.137
  0
LINE
  8
0
 10
131.17
 20
-188.137
 11
131.372
 21
-188.28
  0
LINE
  8
0
 10
131.372
 20
-188.28
 11
131.556
 21
-188.444
  0
LINE
  8
0
 10
131.556
 20
-188.444
 11
131.72
 21
-188.628
  0
LINE
  8
0
 10
131.72
 20
-188.628
 11
131.863
 21
-188.83
  0
LINE
  8
0
 10
131.863
 20
-188.83
 11
131.982
 21
-189.045
  0
LINE
  8
0
 10
131.982
 20
-189.045
 11
132.077
 21
-189.273
  0
LINE
  8
0
 10
132.077
 20
-189.273
 11
132.145
 21
-189.51
  0
LINE
  8
0
 10
132.145
 20
-189.51
 11
132.186
 21
-189.754
  0
LINE
  8
0
 10
132.186
 20
-189.754
 11
132.2
 21
-190
  0
LINE
  8
0
 10
132.2
 20
-190
 11
132.186
 21
-190.246
  0
LINE
  8
0
 10
132.186
 20
-190.246
 11
132.145
 21
-190.49
  0
LINE
  8
0
 10
132.145
 20
-190.49
 11
132.077
 21
-190.727
  0
LINE
  8
0
 10
132.077
 20
-190.727
 11
131.982
 21
-190.955
  0
LINE
  8
0
 10
131.982
 20
-190.955
 11
131.863
 21
-191.17
  0
LINE
  8
0
 10
131.863
 20
-191.17
 11
131.72
 21
-191.372
  0
LINE
  8
0
 10
131.72
 20
-191.372
 11
131.556
 21
-191.556
  0
LINE
  8
0
 10
131.556
 20
-191.556
 11
131.372
 21
-191.72
  0
LINE
  8
0
 10
131.372
 20
-191.72
 11
131.17
 21
-191.863
  0
LINE
  8
0
 10
131.17
 20
-191.863
 11
130.955
 21
-191.982
  0
LINE
  8
0
 10
130.955
 20
-191.982
 11
130.727
 21
-192.077
  0
LINE
  8
0
 10
130.727
 20
-192.077
 11
130.49
 21
-192.145
  0
LINE
  8
0
 10
130.49
 20
-192.145
 11
130.246
 21
-192.186
  0
LINE
  8
0
 10
130.246
 20
-192.186
 11
130
 21
-192.2
  0
LINE
  8
0
 10
130
 20
-192.2
 11
129.754
 21
-192.186
  0
ENDSEC
  0
SECTION
  2
OBJECTS
  0
DICTIONARY
  0
ENDSEC
  0
EOF
