  0
SECTION
  2
BLOCKS
  0
ENDSEC
  0
SECTION
  2
ENTITIES
  0
LINE
  8
0
 10
146.723
 20
-224.975
 11
146.934
 21
-224.901
  0
LINE
  8
0
 10
146.934
 20
-224.901
 11
147.123
 21
-224.782
  0
LINE
  8
0
 10
147.123
 20
-224.782
 11
147.282
 21
-224.623
  0
LINE
  8
0
 10
147.282
 20
-224.623
 11
147.401
 21
-224.434
  0
LINE
  8
0
 10
147.401
 20
-224.434
 11
147.475
 21
-224.223
  0
LINE
  8
0
 10
147.475
 20
-224.223
 11
147.5
 21
-224
  0
LINE
  8
0
 10
147.5
 20
-224
 11
147.5
 21
224
  0
LINE
  8
0
 10
147.5
 20
224
 11
147.475
 21
224.223
  0
LINE
  8
0
 10
147.475
 20
224.223
 11
147.401
 21
224.434
  0
LINE
  8
0
 10
147.401
 20
224.434
 11
147.282
 21
224.623
  0
LINE
  8
0
 10
147.282
 20
224.623
 11
147.123
 21
224.782
  0
LINE
  8
0
 10
147.123
 20
224.782
 11
146.934
 21
224.901
  0
LINE
  8
0
 10
146.934
 20
224.901
 11
146.723
 21
224.975
  0
LINE
  8
0
 10
146.723
 20
224.975
 11
146.5
 21
225
  0
LINE
  8
0
 10
146.5
 20
225
 11
-146.5
 21
225
  0
LINE
  8
0
 10
-146.5
 20
225
 11
-146.723
 21
224.975
  0
LINE
  8
0
 10
-146.723
 20
224.975
 11
-146.934
 21
224.901
  0
LINE
  8
0
 10
-146.934
 20
224.901
 11
-147.123
 21
224.782
  0
LINE
  8
0
 10
-147.123
 20
224.782
 11
-147.282
 21
224.623
  0
LINE
  8
0
 10
-147.282
 20
224.623
 11
-147.401
 21
224.434
  0
LINE
  8
0
 10
-147.401
 20
224.434
 11
-147.475
 21
224.223
  0
LINE
  8
0
 10
-147.475
 20
224.223
 11
-147.5
 21
224
  0
LINE
  8
0
 10
-147.5
 20
224
 11
-147.5
 21
-224
  0
LINE
  8
0
 10
-147.5
 20
-224
 11
-147.475
 21
-224.223
  0
LINE
  8
0
 10
-147.475
 20
-224.223
 11
-147.401
 21
-224.434
  0
LINE
  8
0
 10
-147.401
 20
-224.434
 11
-147.282
 21
-224.623
  0
LINE
  8
0
 10
-147.282
 20
-224.623
 11
-147.123
 21
-224.782
  0
LINE
  8
0
 10
-147.123
 20
-224.782
 11
-146.934
 21
-224.901
  0
LINE
  8
0
 10
-146.934
 20
-224.901
 11
-146.723
 21
-224.975
  0
LINE
  8
0
 10
-146.723
 20
-224.975
 11
-146.5
 21
-225
  0
LINE
  8
0
 10
-146.5
 20
-225
 11
146.5
 21
-225
  0
LINE
  8
0
 10
146.5
 20
-225
 11
146.723
 21
-224.975
  0
LINE
  8
0
 10
-137.761
 20
212.514
 11
-138.02
 21
212.555
  0
LINE
  8
0
 10
-138.02
 20
212.555
 11
-138.273
 21
212.622
  0
LINE
  8
0
 10
-138.273
 20
212.622
 11
-138.517
 21
212.716
  0
LINE
  8
0
 10
-138.517
 20
212.716
 11
-138.75
 21
212.835
  0
LINE
  8
0
 10
-138.75
 20
212.835
 11
-138.969
 21
212.977
  0
LINE
  8
0
 10
-138.969
 20
212.977
 11
-139.173
 21
213.142
  0
LINE
  8
0
 10
-139.173
 20
213.142
 11
-139.358
 21
213.327
  0
LINE
  8
0
 10
-139.358
 20
213.327
 11
-139.523
 21
213.531
  0
LINE
  8
0
 10
-139.523
 20
213.531
 11
-139.665
 21
213.75
  0
LINE
  8
0
 10
-139.665
 20
213.75
 11
-139.784
 21
213.983
  0
LINE
  8
0
 10
-139.784
 20
213.983
 11
-139.878
 21
214.227
  0
LINE
  8
0
 10
-139.878
 20
214.227
 11
-139.945
 21
214.48
  0
LINE
  8
0
 10
-139.945
 20
214.48
 11
-139.986
 21
214.739
  0
LINE
  8
0
 10
-139.986
 20
214.739
 11
-140
 21
215
  0
LINE
  8
0
 10
-140
 20
215
 11
-139.986
 21
215.261
  0
LINE
  8
0
 10
-139.986
 20
215.261
 11
-139.945
 21
215.52
  0
LINE
  8
0
 10
-139.945
 20
215.52
 11
-139.878
 21
215.773
  0
LINE
  8
0
 10
-139.878
 20
215.773
 11
-139.784
 21
216.017
  0
LINE
  8
0
 10
-139.784
 20
216.017
 11
-139.665
 21
216.25
  0
LINE
  8
0
 10
-139.665
 20
216.25
 11
-139.523
 21
216.469
  0
LINE
  8
0
 10
-139.523
 20
216.469
 11
-139.358
 21
216.673
  0
LINE
  8
0
 10
-139.358
 20
216.673
 11
-139.173
 21
216.858
  0
LINE
  8
0
 10
-139.173
 20
216.858
 11
-138.969
 21
217.023
  0
LINE
  8
0
 10
-138.969
 20
217.023
 11
-138.75
 21
217.165
  0
LINE
  8
0
 10
-138.75
 20
217.165
 11
-138.517
 21
217.284
  0
LINE
  8
0
 10
-138.517
 20
217.284
 11
-138.273
 21
217.378
  0
LINE
  8
0
 10
-138.273
 20
217.378
 11
-138.02
 21
217.445
  0
LINE
  8
0
 10
-138.02
 20
217.445
 11
-137.761
 21
217.486
  0
LINE
  8
0
 10
-137.761
 20
217.486
 11
-137.5
 21
217.5
  0
LINE
  8
0
 10
-137.5
 20
217.5
 11
-137.239
 21
217.486
  0
LINE
  8
0
 10
-137.239
 20
217.486
 11
-136.98
 21
217.445
  0
LINE
  8
0
 10
-136.98
 20
217.445
 11
-136.727
 21
217.378
  0
LINE
  8
0
 10
-136.727
 20
217.378
 11
-136.483
 21
217.284
  0
LINE
  8
0
 10
-136.483
 20
217.284
 11
-136.25
 21
217.165
  0
LINE
  8
0
 10
-136.25
 20
217.165
 11
-136.031
 21
217.023
  0
LINE
  8
0
 10
-136.031
 20
217.023
 11
-135.827
 21
216.858
  0
LINE
  8
0
 10
-135.827
 20
216.858
 11
-135.642
 21
216.673
  0
LINE
  8
0
 10
-135.642
 20
216.673
 11
-135.477
 21
216.469
  0
LINE
  8
0
 10
-135.477
 20
216.469
 11
-135.335
 21
216.25
  0
LINE
  8
0
 10
-135.335
 20
216.25
 11
-135.216
 21
216.017
  0
LINE
  8
0
 10
-135.216
 20
216.017
 11
-135.122
 21
215.773
  0
LINE
  8
0
 10
-135.122
 20
215.773
 11
-135.055
 21
215.52
  0
LINE
  8
0
 10
-135.055
 20
215.52
 11
-135.014
 21
215.261
  0
LINE
  8
0
 10
-135.014
 20
215.261
 11
-135
 21
215
  0
LINE
  8
0
 10
-135
 20
215
 11
-135.014
 21
214.739
  0
LINE
  8
0
 10
-135.014
 20
214.739
 11
-135.055
 21
214.48
  0
LINE
  8
0
 10
-135.055
 20
214.48
 11
-135.122
 21
214.227
  0
LINE
  8
0
 10
-135.122
 20
214.227
 11
-135.216
 21
213.983
  0
LINE
  8
0
 10
-135.216
 20
213.983
 11
-135.335
 21
213.75
  0
LINE
  8
0
 10
-135.335
 20
213.75
 11
-135.477
 21
213.531
  0
LINE
  8
0
 10
-135.477
 20
213.531
 11
-135.642
 21
213.327
  0
LINE
  8
0
 10
-135.642
 20
213.327
 11
-135.827
 21
213.142
  0
LINE
  8
0
 10
-135.827
 20
213.142
 11
-136.031
 21
212.977
  0
LINE
  8
0
 10
-136.031
 20
212.977
 11
-136.25
 21
212.835
  0
LINE
  8
0
 10
-136.25
 20
212.835
 11
-136.483
 21
212.716
  0
LINE
  8
0
 10
-136.483
 20
212.716
 11
-136.727
 21
212.622
  0
LINE
  8
0
 10
-136.727
 20
212.622
 11
-136.98
 21
212.555
  0
LINE
  8
0
 10
-136.98
 20
212.555
 11
-137.239
 21
212.514
  0
LINE
  8
0
 10
-137.239
 20
212.514
 11
-137.5
 21
212.5
  0
LINE
  8
0
 10
-137.5
 20
212.5
 11
-137.761
 21
212.514
  0
LINE
  8
0
 10
127.254
 20
212.814
 11
127.01
 21
212.855
  0
LINE
  8
0
 10
127.01
 20
212.855
 11
126.773
 21
212.923
  0
LINE
  8
0
 10
126.773
 20
212.923
 11
126.545
 21
213.018
  0
LINE
  8
0
 10
126.545
 20
213.018
 11
126.33
 21
213.137
  0
LINE
  8
0
 10
126.33
 20
213.137
 11
126.128
 21
213.28
  0
LINE
  8
0
 10
126.128
 20
213.28
 11
125.944
 21
213.444
  0
LINE
  8
0
 10
125.944
 20
213.444
 11
125.78
 21
213.628
  0
LINE
  8
0
 10
125.78
 20
213.628
 11
125.637
 21
213.83
  0
LINE
  8
0
 10
125.637
 20
213.83
 11
125.518
 21
214.045
  0
LINE
  8
0
 10
125.518
 20
214.045
 11
125.423
 21
214.273
  0
LINE
  8
0
 10
125.423
 20
214.273
 11
125.355
 21
214.51
  0
LINE
  8
0
 10
125.355
 20
214.51
 11
125.314
 21
214.754
  0
LINE
  8
0
 10
125.314
 20
214.754
 11
125.3
 21
215
  0
LINE
  8
0
 10
125.3
 20
215
 11
125.314
 21
215.246
  0
LINE
  8
0
 10
125.314
 20
215.246
 11
125.355
 21
215.49
  0
LINE
  8
0
 10
125.355
 20
215.49
 11
125.423
 21
215.727
  0
LINE
  8
0
 10
125.423
 20
215.727
 11
125.518
 21
215.955
  0
LINE
  8
0
 10
125.518
 20
215.955
 11
125.637
 21
216.17
  0
LINE
  8
0
 10
125.637
 20
216.17
 11
125.78
 21
216.372
  0
LINE
  8
0
 10
125.78
 20
216.372
 11
125.944
 21
216.556
  0
LINE
  8
0
 10
125.944
 20
216.556
 11
126.128
 21
216.72
  0
LINE
  8
0
 10
126.128
 20
216.72
 11
126.33
 21
216.863
  0
LINE
  8
0
 10
126.33
 20
216.863
 11
126.545
 21
216.982
  0
LINE
  8
0
 10
126.545
 20
216.982
 11
126.773
 21
217.077
  0
LINE
  8
0
 10
126.773
 20
217.077
 11
127.01
 21
217.145
  0
LINE
  8
0
 10
127.01
 20
217.145
 11
127.254
 21
217.186
  0
LINE
  8
0
 10
127.254
 20
217.186
 11
127.5
 21
217.2
  0
LINE
  8
0
 10
127.5
 20
217.2
 11
127.746
 21
217.186
  0
LINE
  8
0
 10
127.746
 20
217.186
 11
127.99
 21
217.145
  0
LINE
  8
0
 10
127.99
 20
217.145
 11
128.227
 21
217.077
  0
LINE
  8
0
 10
128.227
 20
217.077
 11
128.455
 21
216.982
  0
LINE
  8
0
 10
128.455
 20
216.982
 11
128.67
 21
216.863
  0
LINE
  8
0
 10
128.67
 20
216.863
 11
128.872
 21
216.72
  0
LINE
  8
0
 10
128.872
 20
216.72
 11
129.056
 21
216.556
  0
LINE
  8
0
 10
129.056
 20
216.556
 11
129.22
 21
216.372
  0
LINE
  8
0
 10
129.22
 20
216.372
 11
129.363
 21
216.17
  0
LINE
  8
0
 10
129.363
 20
216.17
 11
129.482
 21
215.955
  0
LINE
  8
0
 10
129.482
 20
215.955
 11
129.577
 21
215.727
  0
LINE
  8
0
 10
129.577
 20
215.727
 11
129.645
 21
215.49
  0
LINE
  8
0
 10
129.645
 20
215.49
 11
129.686
 21
215.246
  0
LINE
  8
0
 10
129.686
 20
215.246
 11
129.7
 21
215
  0
LINE
  8
0
 10
129.7
 20
215
 11
129.686
 21
214.754
  0
LINE
  8
0
 10
129.686
 20
214.754
 11
129.645
 21
214.51
  0
LINE
  8
0
 10
129.645
 20
214.51
 11
129.577
 21
214.273
  0
LINE
  8
0
 10
129.577
 20
214.273
 11
129.482
 21
214.045
  0
LINE
  8
0
 10
129.482
 20
214.045
 11
129.363
 21
213.83
  0
LINE
  8
0
 10
129.363
 20
213.83
 11
129.22
 21
213.628
  0
LINE
  8
0
 10
129.22
 20
213.628
 11
129.056
 21
213.444
  0
LINE
  8
0
 10
129.056
 20
213.444
 11
128.872
 21
213.28
  0
LINE
  8
0
 10
128.872
 20
213.28
 11
128.67
 21
213.137
  0
LINE
  8
0
 10
128.67
 20
213.137
 11
128.455
 21
213.018
  0
LINE
  8
0
 10
128.455
 20
213.018
 11
128.227
 21
212.923
  0
LINE
  8
0
 10
128.227
 20
212.923
 11
127.99
 21
212.855
  0
LINE
  8
0
 10
127.99
 20
212.855
 11
127.746
 21
212.814
  0
LINE
  8
0
 10
127.746
 20
212.814
 11
127.5
 21
212.8
  0
LINE
  8
0
 10
127.5
 20
212.8
 11
127.254
 21
212.814
  0
LINE
  8
0
 10
9.75368
 20
212.814
 11
9.51045
 21
212.855
  0
LINE
  8
0
 10
9.51045
 20
212.855
 11
9.27338
 21
212.923
  0
LINE
  8
0
 10
9.27338
 20
212.923
 11
9.04544
 21
213.018
  0
LINE
  8
0
 10
9.04544
 20
213.018
 11
8.82953
 21
213.137
  0
LINE
  8
0
 10
8.82953
 20
213.137
 11
8.62831
 21
213.28
  0
LINE
  8
0
 10
8.62831
 20
213.28
 11
8.44435
 21
213.444
  0
LINE
  8
0
 10
8.44435
 20
213.444
 11
8.27997
 21
213.628
  0
LINE
  8
0
 10
8.27997
 20
213.628
 11
8.13719
 21
213.83
  0
LINE
  8
0
 10
8.13719
 20
213.83
 11
8.01787
 21
214.045
  0
LINE
  8
0
 10
8.01787
 20
214.045
 11
7.92345
 21
214.273
  0
LINE
  8
0
 10
7.92345
 20
214.273
 11
7.85515
 21
214.51
  0
LINE
  8
0
 10
7.85515
 20
214.51
 11
7.81383
 21
214.754
  0
LINE
  8
0
 10
7.81383
 20
214.754
 11
7.79999
 21
215
  0
LINE
  8
0
 10
7.79999
 20
215
 11
7.81383
 21
215.246
  0
LINE
  8
0
 10
7.81383
 20
215.246
 11
7.85515
 21
215.49
  0
LINE
  8
0
 10
7.85515
 20
215.49
 11
7.92345
 21
215.727
  0
LINE
  8
0
 10
7.92345
 20
215.727
 11
8.01787
 21
215.955
  0
LINE
  8
0
 10
8.01787
 20
215.955
 11
8.13719
 21
216.17
  0
LINE
  8
0
 10
8.13719
 20
216.17
 11
8.27997
 21
216.372
  0
LINE
  8
0
 10
8.27997
 20
216.372
 11
8.44435
 21
216.556
  0
LINE
  8
0
 10
8.44435
 20
216.556
 11
8.62831
 21
216.72
  0
LINE
  8
0
 10
8.62831
 20
216.72
 11
8.82953
 21
216.863
  0
LINE
  8
0
 10
8.82953
 20
216.863
 11
9.04544
 21
216.982
  0
LINE
  8
0
 10
9.04544
 20
216.982
 11
9.27338
 21
217.077
  0
LINE
  8
0
 10
9.27338
 20
217.077
 11
9.51045
 21
217.145
  0
LINE
  8
0
 10
9.51045
 20
217.145
 11
9.75368
 21
217.186
  0
LINE
  8
0
 10
9.75368
 20
217.186
 11
10
 21
217.2
  0
LINE
  8
0
 10
10
 20
217.2
 11
10.2463
 21
217.186
  0
LINE
  8
0
 10
10.2463
 20
217.186
 11
10.4895
 21
217.145
  0
LINE
  8
0
 10
10.4895
 20
217.145
 11
10.7266
 21
217.077
  0
LINE
  8
0
 10
10.7266
 20
217.077
 11
10.9545
 21
216.982
  0
LINE
  8
0
 10
10.9545
 20
216.982
 11
11.1705
 21
216.863
  0
LINE
  8
0
 10
11.1705
 20
216.863
 11
11.3717
 21
216.72
  0
LINE
  8
0
 10
11.3717
 20
216.72
 11
11.5556
 21
216.556
  0
LINE
  8
0
 10
11.5556
 20
216.556
 11
11.72
 21
216.372
  0
LINE
  8
0
 10
11.72
 20
216.372
 11
11.8628
 21
216.17
  0
LINE
  8
0
 10
11.8628
 20
216.17
 11
11.9821
 21
215.955
  0
LINE
  8
0
 10
11.9821
 20
215.955
 11
12.0765
 21
215.727
  0
LINE
  8
0
 10
12.0765
 20
215.727
 11
12.1448
 21
215.49
  0
LINE
  8
0
 10
12.1448
 20
215.49
 11
12.1862
 21
215.246
  0
LINE
  8
0
 10
12.1862
 20
215.246
 11
12.2
 21
215
  0
LINE
  8
0
 10
12.2
 20
215
 11
12.1862
 21
214.754
  0
LINE
  8
0
 10
12.1862
 20
214.754
 11
12.1448
 21
214.51
  0
LINE
  8
0
 10
12.1448
 20
214.51
 11
12.0765
 21
214.273
  0
LINE
  8
0
 10
12.0765
 20
214.273
 11
11.9821
 21
214.045
  0
LINE
  8
0
 10
11.9821
 20
214.045
 11
11.8628
 21
213.83
  0
LINE
  8
0
 10
11.8628
 20
213.83
 11
11.72
 21
213.628
  0
LINE
  8
0
 10
11.72
 20
213.628
 11
11.5556
 21
213.444
  0
LINE
  8
0
 10
11.5556
 20
213.444
 11
11.3717
 21
213.28
  0
LINE
  8
0
 10
11.3717
 20
213.28
 11
11.1705
 21
213.137
  0
LINE
  8
0
 10
11.1705
 20
213.137
 11
10.9545
 21
213.018
  0
LINE
  8
0
 10
10.9545
 20
213.018
 11
10.7266
 21
212.923
  0
LINE
  8
0
 10
10.7266
 20
212.923
 11
10.4895
 21
212.855
  0
LINE
  8
0
 10
10.4895
 20
212.855
 11
10.2463
 21
212.814
  0
LINE
  8
0
 10
10.2463
 20
212.814
 11
10
 21
212.8
  0
LINE
  8
0
 10
10
 20
212.8
 11
9.75368
 21
212.814
  0
LINE
  8
0
 10
-107.746
 20
212.814
 11
-107.99
 21
212.855
  0
LINE
  8
0
 10
-107.99
 20
212.855
 11
-108.227
 21
212.923
  0
LINE
  8
0
 10
-108.227
 20
212.923
 11
-108.455
 21
213.018
  0
LINE
  8
0
 10
-108.455
 20
213.018
 11
-108.67
 21
213.137
  0
LINE
  8
0
 10
-108.67
 20
213.137
 11
-108.872
 21
213.28
  0
LINE
  8
0
 10
-108.872
 20
213.28
 11
-109.056
 21
213.444
  0
LINE
  8
0
 10
-109.056
 20
213.444
 11
-109.22
 21
213.628
  0
LINE
  8
0
 10
-109.22
 20
213.628
 11
-109.363
 21
213.83
  0
LINE
  8
0
 10
-109.363
 20
213.83
 11
-109.482
 21
214.045
  0
LINE
  8
0
 10
-109.482
 20
214.045
 11
-109.577
 21
214.273
  0
LINE
  8
0
 10
-109.577
 20
214.273
 11
-109.645
 21
214.51
  0
LINE
  8
0
 10
-109.645
 20
214.51
 11
-109.686
 21
214.754
  0
LINE
  8
0
 10
-109.686
 20
214.754
 11
-109.7
 21
215
  0
LINE
  8
0
 10
-109.7
 20
215
 11
-109.686
 21
215.246
  0
LINE
  8
0
 10
-109.686
 20
215.246
 11
-109.645
 21
215.49
  0
LINE
  8
0
 10
-109.645
 20
215.49
 11
-109.577
 21
215.727
  0
LINE
  8
0
 10
-109.577
 20
215.727
 11
-109.482
 21
215.955
  0
LINE
  8
0
 10
-109.482
 20
215.955
 11
-109.363
 21
216.17
  0
LINE
  8
0
 10
-109.363
 20
216.17
 11
-109.22
 21
216.372
  0
LINE
  8
0
 10
-109.22
 20
216.372
 11
-109.056
 21
216.556
  0
LINE
  8
0
 10
-109.056
 20
216.556
 11
-108.872
 21
216.72
  0
LINE
  8
0
 10
-108.872
 20
216.72
 11
-108.67
 21
216.863
  0
LINE
  8
0
 10
-108.67
 20
216.863
 11
-108.455
 21
216.982
  0
LINE
  8
0
 10
-108.455
 20
216.982
 11
-108.227
 21
217.077
  0
LINE
  8
0
 10
-108.227
 20
217.077
 11
-107.99
 21
217.145
  0
LINE
  8
0
 10
-107.99
 20
217.145
 11
-107.746
 21
217.186
  0
LINE
  8
0
 10
-107.746
 20
217.186
 11
-107.5
 21
217.2
  0
LINE
  8
0
 10
-107.5
 20
217.2
 11
-107.254
 21
217.186
  0
LINE
  8
0
 10
-107.254
 20
217.186
 11
-107.01
 21
217.145
  0
LINE
  8
0
 10
-107.01
 20
217.145
 11
-106.773
 21
217.077
  0
LINE
  8
0
 10
-106.773
 20
217.077
 11
-106.545
 21
216.982
  0
LINE
  8
0
 10
-106.545
 20
216.982
 11
-106.33
 21
216.863
  0
LINE
  8
0
 10
-106.33
 20
216.863
 11
-106.128
 21
216.72
  0
LINE
  8
0
 10
-106.128
 20
216.72
 11
-105.944
 21
216.556
  0
LINE
  8
0
 10
-105.944
 20
216.556
 11
-105.78
 21
216.372
  0
LINE
  8
0
 10
-105.78
 20
216.372
 11
-105.637
 21
216.17
  0
LINE
  8
0
 10
-105.637
 20
216.17
 11
-105.518
 21
215.955
  0
LINE
  8
0
 10
-105.518
 20
215.955
 11
-105.423
 21
215.727
  0
LINE
  8
0
 10
-105.423
 20
215.727
 11
-105.355
 21
215.49
  0
LINE
  8
0
 10
-105.355
 20
215.49
 11
-105.314
 21
215.246
  0
LINE
  8
0
 10
-105.314
 20
215.246
 11
-105.3
 21
215
  0
LINE
  8
0
 10
-105.3
 20
215
 11
-105.314
 21
214.754
  0
LINE
  8
0
 10
-105.314
 20
214.754
 11
-105.355
 21
214.51
  0
LINE
  8
0
 10
-105.355
 20
214.51
 11
-105.423
 21
214.273
  0
LINE
  8
0
 10
-105.423
 20
214.273
 11
-105.518
 21
214.045
  0
LINE
  8
0
 10
-105.518
 20
214.045
 11
-105.637
 21
213.83
  0
LINE
  8
0
 10
-105.637
 20
213.83
 11
-105.78
 21
213.628
  0
LINE
  8
0
 10
-105.78
 20
213.628
 11
-105.944
 21
213.444
  0
LINE
  8
0
 10
-105.944
 20
213.444
 11
-106.128
 21
213.28
  0
LINE
  8
0
 10
-106.128
 20
213.28
 11
-106.33
 21
213.137
  0
LINE
  8
0
 10
-106.33
 20
213.137
 11
-106.545
 21
213.018
  0
LINE
  8
0
 10
-106.545
 20
213.018
 11
-106.773
 21
212.923
  0
LINE
  8
0
 10
-106.773
 20
212.923
 11
-107.01
 21
212.855
  0
LINE
  8
0
 10
-107.01
 20
212.855
 11
-107.254
 21
212.814
  0
LINE
  8
0
 10
-107.254
 20
212.814
 11
-107.5
 21
212.8
  0
LINE
  8
0
 10
-107.5
 20
212.8
 11
-107.746
 21
212.814
  0
LINE
  8
0
 10
-137.746
 20
202.814
 11
-137.99
 21
202.855
  0
LINE
  8
0
 10
-137.99
 20
202.855
 11
-138.227
 21
202.923
  0
LINE
  8
0
 10
-138.227
 20
202.923
 11
-138.455
 21
203.018
  0
LINE
  8
0
 10
-138.455
 20
203.018
 11
-138.67
 21
203.137
  0
LINE
  8
0
 10
-138.67
 20
203.137
 11
-138.872
 21
203.28
  0
LINE
  8
0
 10
-138.872
 20
203.28
 11
-139.056
 21
203.444
  0
LINE
  8
0
 10
-139.056
 20
203.444
 11
-139.22
 21
203.628
  0
LINE
  8
0
 10
-139.22
 20
203.628
 11
-139.363
 21
203.83
  0
LINE
  8
0
 10
-139.363
 20
203.83
 11
-139.482
 21
204.045
  0
LINE
  8
0
 10
-139.482
 20
204.045
 11
-139.577
 21
204.273
  0
LINE
  8
0
 10
-139.577
 20
204.273
 11
-139.645
 21
204.51
  0
LINE
  8
0
 10
-139.645
 20
204.51
 11
-139.686
 21
204.754
  0
LINE
  8
0
 10
-139.686
 20
204.754
 11
-139.7
 21
205
  0
LINE
  8
0
 10
-139.7
 20
205
 11
-139.686
 21
205.246
  0
LINE
  8
0
 10
-139.686
 20
205.246
 11
-139.645
 21
205.49
  0
LINE
  8
0
 10
-139.645
 20
205.49
 11
-139.577
 21
205.727
  0
LINE
  8
0
 10
-139.577
 20
205.727
 11
-139.482
 21
205.955
  0
LINE
  8
0
 10
-139.482
 20
205.955
 11
-139.363
 21
206.17
  0
LINE
  8
0
 10
-139.363
 20
206.17
 11
-139.22
 21
206.372
  0
LINE
  8
0
 10
-139.22
 20
206.372
 11
-139.056
 21
206.556
  0
LINE
  8
0
 10
-139.056
 20
206.556
 11
-138.872
 21
206.72
  0
LINE
  8
0
 10
-138.872
 20
206.72
 11
-138.67
 21
206.863
  0
LINE
  8
0
 10
-138.67
 20
206.863
 11
-138.455
 21
206.982
  0
LINE
  8
0
 10
-138.455
 20
206.982
 11
-138.227
 21
207.077
  0
LINE
  8
0
 10
-138.227
 20
207.077
 11
-137.99
 21
207.145
  0
LINE
  8
0
 10
-137.99
 20
207.145
 11
-137.746
 21
207.186
  0
LINE
  8
0
 10
-137.746
 20
207.186
 11
-137.5
 21
207.2
  0
LINE
  8
0
 10
-137.5
 20
207.2
 11
-137.254
 21
207.186
  0
LINE
  8
0
 10
-137.254
 20
207.186
 11
-137.01
 21
207.145
  0
LINE
  8
0
 10
-137.01
 20
207.145
 11
-136.773
 21
207.077
  0
LINE
  8
0
 10
-136.773
 20
207.077
 11
-136.545
 21
206.982
  0
LINE
  8
0
 10
-136.545
 20
206.982
 11
-136.33
 21
206.863
  0
LINE
  8
0
 10
-136.33
 20
206.863
 11
-136.128
 21
206.72
  0
LINE
  8
0
 10
-136.128
 20
206.72
 11
-135.944
 21
206.556
  0
LINE
  8
0
 10
-135.944
 20
206.556
 11
-135.78
 21
206.372
  0
LINE
  8
0
 10
-135.78
 20
206.372
 11
-135.637
 21
206.17
  0
LINE
  8
0
 10
-135.637
 20
206.17
 11
-135.518
 21
205.955
  0
LINE
  8
0
 10
-135.518
 20
205.955
 11
-135.423
 21
205.727
  0
LINE
  8
0
 10
-135.423
 20
205.727
 11
-135.355
 21
205.49
  0
LINE
  8
0
 10
-135.355
 20
205.49
 11
-135.314
 21
205.246
  0
LINE
  8
0
 10
-135.314
 20
205.246
 11
-135.3
 21
205
  0
LINE
  8
0
 10
-135.3
 20
205
 11
-135.314
 21
204.754
  0
LINE
  8
0
 10
-135.314
 20
204.754
 11
-135.355
 21
204.51
  0
LINE
  8
0
 10
-135.355
 20
204.51
 11
-135.423
 21
204.273
  0
LINE
  8
0
 10
-135.423
 20
204.273
 11
-135.518
 21
204.045
  0
LINE
  8
0
 10
-135.518
 20
204.045
 11
-135.637
 21
203.83
  0
LINE
  8
0
 10
-135.637
 20
203.83
 11
-135.78
 21
203.628
  0
LINE
  8
0
 10
-135.78
 20
203.628
 11
-135.944
 21
203.444
  0
LINE
  8
0
 10
-135.944
 20
203.444
 11
-136.128
 21
203.28
  0
LINE
  8
0
 10
-136.128
 20
203.28
 11
-136.33
 21
203.137
  0
LINE
  8
0
 10
-136.33
 20
203.137
 11
-136.545
 21
203.018
  0
LINE
  8
0
 10
-136.545
 20
203.018
 11
-136.773
 21
202.923
  0
LINE
  8
0
 10
-136.773
 20
202.923
 11
-137.01
 21
202.855
  0
LINE
  8
0
 10
-137.01
 20
202.855
 11
-137.254
 21
202.814
  0
LINE
  8
0
 10
-137.254
 20
202.814
 11
-137.5
 21
202.8
  0
LINE
  8
0
 10
-137.5
 20
202.8
 11
-137.746
 21
202.814
  0
LINE
  8
0
 10
-137.746
 20
66.1472
 11
-137.99
 21
66.1885
  0
LINE
  8
0
 10
-137.99
 20
66.1885
 11
-138.227
 21
66.2568
  0
LINE
  8
0
 10
-138.227
 20
66.2568
 11
-138.455
 21
66.3512
  0
LINE
  8
0
 10
-138.455
 20
66.3512
 11
-138.67
 21
66.4705
  0
LINE
  8
0
 10
-138.67
 20
66.4705
 11
-138.872
 21
66.6133
  0
LINE
  8
0
 10
-138.872
 20
66.6133
 11
-139.056
 21
66.7777
  0
LINE
  8
0
 10
-139.056
 20
66.7777
 11
-139.22
 21
66.9617
  0
LINE
  8
0
 10
-139.22
 20
66.9617
 11
-139.363
 21
67.1629
  0
LINE
  8
0
 10
-139.363
 20
67.1629
 11
-139.482
 21
67.3788
  0
LINE
  8
0
 10
-139.482
 20
67.3788
 11
-139.577
 21
67.6067
  0
LINE
  8
0
 10
-139.577
 20
67.6067
 11
-139.645
 21
67.8438
  0
LINE
  8
0
 10
-139.645
 20
67.8438
 11
-139.686
 21
68.087
  0
LINE
  8
0
 10
-139.686
 20
68.087
 11
-139.7
 21
68.3333
  0
LINE
  8
0
 10
-139.7
 20
68.3333
 11
-139.686
 21
68.5797
  0
LINE
  8
0
 10
-139.686
 20
68.5797
 11
-139.645
 21
68.8229
  0
LINE
  8
0
 10
-139.645
 20
68.8229
 11
-139.577
 21
69.0599
  0
LINE
  8
0
 10
-139.577
 20
69.0599
 11
-139.482
 21
69.2879
  0
LINE
  8
0
 10
-139.482
 20
69.2879
 11
-139.363
 21
69.5038
  0
LINE
  8
0
 10
-139.363
 20
69.5038
 11
-139.22
 21
69.705
  0
LINE
  8
0
 10
-139.22
 20
69.705
 11
-139.056
 21
69.889
  0
LINE
  8
0
 10
-139.056
 20
69.889
 11
-138.872
 21
70.0534
  0
LINE
  8
0
 10
-138.872
 20
70.0534
 11
-138.67
 21
70.1961
  0
LINE
  8
0
 10
-138.67
 20
70.1961
 11
-138.455
 21
70.3155
  0
LINE
  8
0
 10
-138.455
 20
70.3155
 11
-138.227
 21
70.4099
  0
LINE
  8
0
 10
-138.227
 20
70.4099
 11
-137.99
 21
70.4782
  0
LINE
  8
0
 10
-137.99
 20
70.4782
 11
-137.746
 21
70.5195
  0
LINE
  8
0
 10
-137.746
 20
70.5195
 11
-137.5
 21
70.5333
  0
LINE
  8
0
 10
-137.5
 20
70.5333
 11
-137.254
 21
70.5195
  0
LINE
  8
0
 10
-137.254
 20
70.5195
 11
-137.01
 21
70.4782
  0
LINE
  8
0
 10
-137.01
 20
70.4782
 11
-136.773
 21
70.4099
  0
LINE
  8
0
 10
-136.773
 20
70.4099
 11
-136.545
 21
70.3155
  0
LINE
  8
0
 10
-136.545
 20
70.3155
 11
-136.33
 21
70.1961
  0
LINE
  8
0
 10
-136.33
 20
70.1961
 11
-136.128
 21
70.0534
  0
LINE
  8
0
 10
-136.128
 20
70.0534
 11
-135.944
 21
69.889
  0
LINE
  8
0
 10
-135.944
 20
69.889
 11
-135.78
 21
69.705
  0
LINE
  8
0
 10
-135.78
 20
69.705
 11
-135.637
 21
69.5038
  0
LINE
  8
0
 10
-135.637
 20
69.5038
 11
-135.518
 21
69.2879
  0
LINE
  8
0
 10
-135.518
 20
69.2879
 11
-135.423
 21
69.0599
  0
LINE
  8
0
 10
-135.423
 20
69.0599
 11
-135.355
 21
68.8229
  0
LINE
  8
0
 10
-135.355
 20
68.8229
 11
-135.314
 21
68.5797
  0
LINE
  8
0
 10
-135.314
 20
68.5797
 11
-135.3
 21
68.3333
  0
LINE
  8
0
 10
-135.3
 20
68.3333
 11
-135.314
 21
68.087
  0
LINE
  8
0
 10
-135.314
 20
68.087
 11
-135.355
 21
67.8438
  0
LINE
  8
0
 10
-135.355
 20
67.8438
 11
-135.423
 21
67.6067
  0
LINE
  8
0
 10
-135.423
 20
67.6067
 11
-135.518
 21
67.3788
  0
LINE
  8
0
 10
-135.518
 20
67.3788
 11
-135.637
 21
67.1629
  0
LINE
  8
0
 10
-135.637
 20
67.1629
 11
-135.78
 21
66.9617
  0
LINE
  8
0
 10
-135.78
 20
66.9617
 11
-135.944
 21
66.7777
  0
LINE
  8
0
 10
-135.944
 20
66.7777
 11
-136.128
 21
66.6133
  0
LINE
  8
0
 10
-136.128
 20
66.6133
 11
-136.33
 21
66.4705
  0
LINE
  8
0
 10
-136.33
 20
66.4705
 11
-136.545
 21
66.3512
  0
LINE
  8
0
 10
-136.545
 20
66.3512
 11
-136.773
 21
66.2568
  0
LINE
  8
0
 10
-136.773
 20
66.2568
 11
-137.01
 21
66.1885
  0
LINE
  8
0
 10
-137.01
 20
66.1885
 11
-137.254
 21
66.1472
  0
LINE
  8
0
 10
-137.254
 20
66.1472
 11
-137.5
 21
66.1333
  0
LINE
  8
0
 10
-137.5
 20
66.1333
 11
-137.746
 21
66.1472
  0
LINE
  8
0
 10
137.254
 20
47.8138
 11
137.01
 21
47.8551
  0
LINE
  8
0
 10
137.01
 20
47.8551
 11
136.773
 21
47.9234
  0
LINE
  8
0
 10
136.773
 20
47.9234
 11
136.545
 21
48.0179
  0
LINE
  8
0
 10
136.545
 20
48.0179
 11
136.33
 21
48.1372
  0
LINE
  8
0
 10
136.33
 20
48.1372
 11
136.128
 21
48.28
  0
LINE
  8
0
 10
136.128
 20
48.28
 11
135.944
 21
48.4444
  0
LINE
  8
0
 10
135.944
 20
48.4444
 11
135.78
 21
48.6283
  0
LINE
  8
0
 10
135.78
 20
48.6283
 11
135.637
 21
48.8295
  0
LINE
  8
0
 10
135.637
 20
48.8295
 11
135.518
 21
49.0454
  0
LINE
  8
0
 10
135.518
 20
49.0454
 11
135.423
 21
49.2734
  0
LINE
  8
0
 10
135.423
 20
49.2734
 11
135.355
 21
49.5105
  0
LINE
  8
0
 10
135.355
 20
49.5105
 11
135.314
 21
49.7537
  0
LINE
  8
0
 10
135.314
 20
49.7537
 11
135.3
 21
50
  0
LINE
  8
0
 10
135.3
 20
50
 11
135.314
 21
50.2463
  0
LINE
  8
0
 10
135.314
 20
50.2463
 11
135.355
 21
50.4895
  0
LINE
  8
0
 10
135.355
 20
50.4895
 11
135.423
 21
50.7266
  0
LINE
  8
0
 10
135.423
 20
50.7266
 11
135.518
 21
50.9545
  0
LINE
  8
0
 10
135.518
 20
50.9545
 11
135.637
 21
51.1705
  0
LINE
  8
0
 10
135.637
 20
51.1705
 11
135.78
 21
51.3717
  0
LINE
  8
0
 10
135.78
 20
51.3717
 11
135.944
 21
51.5556
  0
LINE
  8
0
 10
135.944
 20
51.5556
 11
136.128
 21
51.72
  0
LINE
  8
0
 10
136.128
 20
51.72
 11
136.33
 21
51.8628
  0
LINE
  8
0
 10
136.33
 20
51.8628
 11
136.545
 21
51.9821
  0
LINE
  8
0
 10
136.545
 20
51.9821
 11
136.773
 21
52.0765
  0
LINE
  8
0
 10
136.773
 20
52.0765
 11
137.01
 21
52.1448
  0
LINE
  8
0
 10
137.01
 20
52.1448
 11
137.254
 21
52.1862
  0
LINE
  8
0
 10
137.254
 20
52.1862
 11
137.5
 21
52.2
  0
LINE
  8
0
 10
137.5
 20
52.2
 11
137.746
 21
52.1862
  0
LINE
  8
0
 10
137.746
 20
52.1862
 11
137.99
 21
52.1448
  0
LINE
  8
0
 10
137.99
 20
52.1448
 11
138.227
 21
52.0765
  0
LINE
  8
0
 10
138.227
 20
52.0765
 11
138.455
 21
51.9821
  0
LINE
  8
0
 10
138.455
 20
51.9821
 11
138.67
 21
51.8628
  0
LINE
  8
0
 10
138.67
 20
51.8628
 11
138.872
 21
51.72
  0
LINE
  8
0
 10
138.872
 20
51.72
 11
139.056
 21
51.5556
  0
LINE
  8
0
 10
139.056
 20
51.5556
 11
139.22
 21
51.3717
  0
LINE
  8
0
 10
139.22
 20
51.3717
 11
139.363
 21
51.1705
  0
LINE
  8
0
 10
139.363
 20
51.1705
 11
139.482
 21
50.9545
  0
LINE
  8
0
 10
139.482
 20
50.9545
 11
139.577
 21
50.7266
  0
LINE
  8
0
 10
139.577
 20
50.7266
 11
139.645
 21
50.4895
  0
LINE
  8
0
 10
139.645
 20
50.4895
 11
139.686
 21
50.2463
  0
LINE
  8
0
 10
139.686
 20
50.2463
 11
139.7
 21
50
  0
LINE
  8
0
 10
139.7
 20
50
 11
139.686
 21
49.7537
  0
LINE
  8
0
 10
139.686
 20
49.7537
 11
139.645
 21
49.5105
  0
LINE
  8
0
 10
139.645
 20
49.5105
 11
139.577
 21
49.2734
  0
LINE
  8
0
 10
139.577
 20
49.2734
 11
139.482
 21
49.0454
  0
LINE
  8
0
 10
139.482
 20
49.0454
 11
139.363
 21
48.8295
  0
LINE
  8
0
 10
139.363
 20
48.8295
 11
139.22
 21
48.6283
  0
LINE
  8
0
 10
139.22
 20
48.6283
 11
139.056
 21
48.4444
  0
LINE
  8
0
 10
139.056
 20
48.4444
 11
138.872
 21
48.28
  0
LINE
  8
0
 10
138.872
 20
48.28
 11
138.67
 21
48.1372
  0
LINE
  8
0
 10
138.67
 20
48.1372
 11
138.455
 21
48.0179
  0
LINE
  8
0
 10
138.455
 20
48.0179
 11
138.227
 21
47.9234
  0
LINE
  8
0
 10
138.227
 20
47.9234
 11
137.99
 21
47.8551
  0
LINE
  8
0
 10
137.99
 20
47.8551
 11
137.746
 21
47.8138
  0
LINE
  8
0
 10
137.746
 20
47.8138
 11
137.5
 21
47.8
  0
LINE
  8
0
 10
137.5
 20
47.8
 11
137.254
 21
47.8138
  0
LINE
  8
0
 10
52.2537
 20
47.8138
 11
52.0105
 21
47.8551
  0
LINE
  8
0
 10
52.0105
 20
47.8551
 11
51.7734
 21
47.9234
  0
LINE
  8
0
 10
51.7734
 20
47.9234
 11
51.5454
 21
48.0179
  0
LINE
  8
0
 10
51.5454
 20
48.0179
 11
51.3295
 21
48.1372
  0
LINE
  8
0
 10
51.3295
 20
48.1372
 11
51.1283
 21
48.28
  0
LINE
  8
0
 10
51.1283
 20
48.28
 11
50.9444
 21
48.4444
  0
LINE
  8
0
 10
50.9444
 20
48.4444
 11
50.78
 21
48.6283
  0
LINE
  8
0
 10
50.78
 20
48.6283
 11
50.6372
 21
48.8295
  0
LINE
  8
0
 10
50.6372
 20
48.8295
 11
50.5179
 21
49.0454
  0
LINE
  8
0
 10
50.5179
 20
49.0454
 11
50.4234
 21
49.2734
  0
LINE
  8
0
 10
50.4234
 20
49.2734
 11
50.3551
 21
49.5105
  0
LINE
  8
0
 10
50.3551
 20
49.5105
 11
50.3138
 21
49.7537
  0
LINE
  8
0
 10
50.3138
 20
49.7537
 11
50.3
 21
50
  0
LINE
  8
0
 10
50.3
 20
50
 11
50.3138
 21
50.2463
  0
LINE
  8
0
 10
50.3138
 20
50.2463
 11
50.3551
 21
50.4895
  0
LINE
  8
0
 10
50.3551
 20
50.4895
 11
50.4234
 21
50.7266
  0
LINE
  8
0
 10
50.4234
 20
50.7266
 11
50.5179
 21
50.9545
  0
LINE
  8
0
 10
50.5179
 20
50.9545
 11
50.6372
 21
51.1705
  0
LINE
  8
0
 10
50.6372
 20
51.1705
 11
50.78
 21
51.3717
  0
LINE
  8
0
 10
50.78
 20
51.3717
 11
50.9444
 21
51.5556
  0
LINE
  8
0
 10
50.9444
 20
51.5556
 11
51.1283
 21
51.72
  0
LINE
  8
0
 10
51.1283
 20
51.72
 11
51.3295
 21
51.8628
  0
LINE
  8
0
 10
51.3295
 20
51.8628
 11
51.5454
 21
51.9821
  0
LINE
  8
0
 10
51.5454
 20
51.9821
 11
51.7734
 21
52.0765
  0
LINE
  8
0
 10
51.7734
 20
52.0765
 11
52.0105
 21
52.1448
  0
LINE
  8
0
 10
52.0105
 20
52.1448
 11
52.2537
 21
52.1862
  0
LINE
  8
0
 10
52.2537
 20
52.1862
 11
52.5
 21
52.2
  0
LINE
  8
0
 10
52.5
 20
52.2
 11
52.7463
 21
52.1862
  0
LINE
  8
0
 10
52.7463
 20
52.1862
 11
52.9895
 21
52.1448
  0
LINE
  8
0
 10
52.9895
 20
52.1448
 11
53.2266
 21
52.0765
  0
LINE
  8
0
 10
53.2266
 20
52.0765
 11
53.4545
 21
51.9821
  0
LINE
  8
0
 10
53.4545
 20
51.9821
 11
53.6705
 21
51.8628
  0
LINE
  8
0
 10
53.6705
 20
51.8628
 11
53.8717
 21
51.72
  0
LINE
  8
0
 10
53.8717
 20
51.72
 11
54.0556
 21
51.5556
  0
LINE
  8
0
 10
54.0556
 20
51.5556
 11
54.22
 21
51.3717
  0
LINE
  8
0
 10
54.22
 20
51.3717
 11
54.3628
 21
51.1705
  0
LINE
  8
0
 10
54.3628
 20
51.1705
 11
54.4821
 21
50.9545
  0
LINE
  8
0
 10
54.4821
 20
50.9545
 11
54.5765
 21
50.7266
  0
LINE
  8
0
 10
54.5765
 20
50.7266
 11
54.6448
 21
50.4895
  0
LINE
  8
0
 10
54.6448
 20
50.4895
 11
54.6862
 21
50.2463
  0
LINE
  8
0
 10
54.6862
 20
50.2463
 11
54.7
 21
50
  0
LINE
  8
0
 10
54.7
 20
50
 11
54.6862
 21
49.7537
  0
LINE
  8
0
 10
54.6862
 20
49.7537
 11
54.6448
 21
49.5105
  0
LINE
  8
0
 10
54.6448
 20
49.5105
 11
54.5765
 21
49.2734
  0
LINE
  8
0
 10
54.5765
 20
49.2734
 11
54.4821
 21
49.0454
  0
LINE
  8
0
 10
54.4821
 20
49.0454
 11
54.3628
 21
48.8295
  0
LINE
  8
0
 10
54.3628
 20
48.8295
 11
54.22
 21
48.6283
  0
LINE
  8
0
 10
54.22
 20
48.6283
 11
54.0556
 21
48.4444
  0
LINE
  8
0
 10
54.0556
 20
48.4444
 11
53.8717
 21
48.28
  0
LINE
  8
0
 10
53.8717
 20
48.28
 11
53.6705
 21
48.1372
  0
LINE
  8
0
 10
53.6705
 20
48.1372
 11
53.4545
 21
48.0179
  0
LINE
  8
0
 10
53.4545
 20
48.0179
 11
53.2266
 21
47.9234
  0
LINE
  8
0
 10
53.2266
 20
47.9234
 11
52.9895
 21
47.8551
  0
LINE
  8
0
 10
52.9895
 20
47.8551
 11
52.7463
 21
47.8138
  0
LINE
  8
0
 10
52.7463
 20
47.8138
 11
52.5
 21
47.8
  0
LINE
  8
0
 10
52.5
 20
47.8
 11
52.2537
 21
47.8138
  0
LINE
  8
0
 10
92.2537
 20
47.8138
 11
92.0105
 21
47.8551
  0
LINE
  8
0
 10
92.0105
 20
47.8551
 11
91.7734
 21
47.9234
  0
LINE
  8
0
 10
91.7734
 20
47.9234
 11
91.5454
 21
48.0179
  0
LINE
  8
0
 10
91.5454
 20
48.0179
 11
91.3295
 21
48.1372
  0
LINE
  8
0
 10
91.3295
 20
48.1372
 11
91.1283
 21
48.28
  0
LINE
  8
0
 10
91.1283
 20
48.28
 11
90.9444
 21
48.4444
  0
LINE
  8
0
 10
90.9444
 20
48.4444
 11
90.78
 21
48.6283
  0
LINE
  8
0
 10
90.78
 20
48.6283
 11
90.6372
 21
48.8295
  0
LINE
  8
0
 10
90.6372
 20
48.8295
 11
90.5179
 21
49.0454
  0
LINE
  8
0
 10
90.5179
 20
49.0454
 11
90.4234
 21
49.2734
  0
LINE
  8
0
 10
90.4234
 20
49.2734
 11
90.3551
 21
49.5105
  0
LINE
  8
0
 10
90.3551
 20
49.5105
 11
90.3138
 21
49.7537
  0
LINE
  8
0
 10
90.3138
 20
49.7537
 11
90.3
 21
50
  0
LINE
  8
0
 10
90.3
 20
50
 11
90.3138
 21
50.2463
  0
LINE
  8
0
 10
90.3138
 20
50.2463
 11
90.3551
 21
50.4895
  0
LINE
  8
0
 10
90.3551
 20
50.4895
 11
90.4234
 21
50.7266
  0
LINE
  8
0
 10
90.4234
 20
50.7266
 11
90.5179
 21
50.9545
  0
LINE
  8
0
 10
90.5179
 20
50.9545
 11
90.6372
 21
51.1705
  0
LINE
  8
0
 10
90.6372
 20
51.1705
 11
90.78
 21
51.3717
  0
LINE
  8
0
 10
90.78
 20
51.3717
 11
90.9444
 21
51.5556
  0
LINE
  8
0
 10
90.9444
 20
51.5556
 11
91.1283
 21
51.72
  0
LINE
  8
0
 10
91.1283
 20
51.72
 11
91.3295
 21
51.8628
  0
LINE
  8
0
 10
91.3295
 20
51.8628
 11
91.5454
 21
51.9821
  0
LINE
  8
0
 10
91.5454
 20
51.9821
 11
91.7734
 21
52.0765
  0
LINE
  8
0
 10
91.7734
 20
52.0765
 11
92.0105
 21
52.1448
  0
LINE
  8
0
 10
92.0105
 20
52.1448
 11
92.2537
 21
52.1862
  0
LINE
  8
0
 10
92.2537
 20
52.1862
 11
92.5
 21
52.2
  0
LINE
  8
0
 10
92.5
 20
52.2
 11
92.7463
 21
52.1862
  0
LINE
  8
0
 10
92.7463
 20
52.1862
 11
92.9895
 21
52.1448
  0
LINE
  8
0
 10
92.9895
 20
52.1448
 11
93.2266
 21
52.0765
  0
LINE
  8
0
 10
93.2266
 20
52.0765
 11
93.4545
 21
51.9821
  0
LINE
  8
0
 10
93.4545
 20
51.9821
 11
93.6705
 21
51.8628
  0
LINE
  8
0
 10
93.6705
 20
51.8628
 11
93.8717
 21
51.72
  0
LINE
  8
0
 10
93.8717
 20
51.72
 11
94.0556
 21
51.5556
  0
LINE
  8
0
 10
94.0556
 20
51.5556
 11
94.22
 21
51.3717
  0
LINE
  8
0
 10
94.22
 20
51.3717
 11
94.3628
 21
51.1705
  0
LINE
  8
0
 10
94.3628
 20
51.1705
 11
94.4821
 21
50.9545
  0
LINE
  8
0
 10
94.4821
 20
50.9545
 11
94.5765
 21
50.7266
  0
LINE
  8
0
 10
94.5765
 20
50.7266
 11
94.6448
 21
50.4895
  0
LINE
  8
0
 10
94.6448
 20
50.4895
 11
94.6862
 21
50.2463
  0
LINE
  8
0
 10
94.6862
 20
50.2463
 11
94.7
 21
50
  0
LINE
  8
0
 10
94.7
 20
50
 11
94.6862
 21
49.7537
  0
LINE
  8
0
 10
94.6862
 20
49.7537
 11
94.6448
 21
49.5105
  0
LINE
  8
0
 10
94.6448
 20
49.5105
 11
94.5765
 21
49.2734
  0
LINE
  8
0
 10
94.5765
 20
49.2734
 11
94.4821
 21
49.0454
  0
LINE
  8
0
 10
94.4821
 20
49.0454
 11
94.3628
 21
48.8295
  0
LINE
  8
0
 10
94.3628
 20
48.8295
 11
94.22
 21
48.6283
  0
LINE
  8
0
 10
94.22
 20
48.6283
 11
94.0556
 21
48.4444
  0
LINE
  8
0
 10
94.0556
 20
48.4444
 11
93.8717
 21
48.28
  0
LINE
  8
0
 10
93.8717
 20
48.28
 11
93.6705
 21
48.1372
  0
LINE
  8
0
 10
93.6705
 20
48.1372
 11
93.4545
 21
48.0179
  0
LINE
  8
0
 10
93.4545
 20
48.0179
 11
93.2266
 21
47.9234
  0
LINE
  8
0
 10
93.2266
 20
47.9234
 11
92.9895
 21
47.8551
  0
LINE
  8
0
 10
92.9895
 20
47.8551
 11
92.7463
 21
47.8138
  0
LINE
  8
0
 10
92.7463
 20
47.8138
 11
92.5
 21
47.8
  0
LINE
  8
0
 10
92.5
 20
47.8
 11
92.2537
 21
47.8138
  0
LINE
  8
0
 10
-137.746
 20
-70.5195
 11
-137.99
 21
-70.4782
  0
LINE
  8
0
 10
-137.99
 20
-70.4782
 11
-138.227
 21
-70.4099
  0
LINE
  8
0
 10
-138.227
 20
-70.4099
 11
-138.455
 21
-70.3155
  0
LINE
  8
0
 10
-138.455
 20
-70.3155
 11
-138.67
 21
-70.1961
  0
LINE
  8
0
 10
-138.67
 20
-70.1961
 11
-138.872
 21
-70.0534
  0
LINE
  8
0
 10
-138.872
 20
-70.0534
 11
-139.056
 21
-69.889
  0
LINE
  8
0
 10
-139.056
 20
-69.889
 11
-139.22
 21
-69.705
  0
LINE
  8
0
 10
-139.22
 20
-69.705
 11
-139.363
 21
-69.5038
  0
LINE
  8
0
 10
-139.363
 20
-69.5038
 11
-139.482
 21
-69.2879
  0
LINE
  8
0
 10
-139.482
 20
-69.2879
 11
-139.577
 21
-69.0599
  0
LINE
  8
0
 10
-139.577
 20
-69.0599
 11
-139.645
 21
-68.8229
  0
LINE
  8
0
 10
-139.645
 20
-68.8229
 11
-139.686
 21
-68.5797
  0
LINE
  8
0
 10
-139.686
 20
-68.5797
 11
-139.7
 21
-68.3333
  0
LINE
  8
0
 10
-139.7
 20
-68.3333
 11
-139.686
 21
-68.087
  0
LINE
  8
0
 10
-139.686
 20
-68.087
 11
-139.645
 21
-67.8438
  0
LINE
  8
0
 10
-139.645
 20
-67.8438
 11
-139.577
 21
-67.6067
  0
LINE
  8
0
 10
-139.577
 20
-67.6067
 11
-139.482
 21
-67.3788
  0
LINE
  8
0
 10
-139.482
 20
-67.3788
 11
-139.363
 21
-67.1629
  0
LINE
  8
0
 10
-139.363
 20
-67.1629
 11
-139.22
 21
-66.9617
  0
LINE
  8
0
 10
-139.22
 20
-66.9617
 11
-139.056
 21
-66.7777
  0
LINE
  8
0
 10
-139.056
 20
-66.7777
 11
-138.872
 21
-66.6133
  0
LINE
  8
0
 10
-138.872
 20
-66.6133
 11
-138.67
 21
-66.4705
  0
LINE
  8
0
 10
-138.67
 20
-66.4705
 11
-138.455
 21
-66.3512
  0
LINE
  8
0
 10
-138.455
 20
-66.3512
 11
-138.227
 21
-66.2568
  0
LINE
  8
0
 10
-138.227
 20
-66.2568
 11
-137.99
 21
-66.1885
  0
LINE
  8
0
 10
-137.99
 20
-66.1885
 11
-137.746
 21
-66.1472
  0
LINE
  8
0
 10
-137.746
 20
-66.1472
 11
-137.5
 21
-66.1333
  0
LINE
  8
0
 10
-137.5
 20
-66.1333
 11
-137.254
 21
-66.1472
  0
LINE
  8
0
 10
-137.254
 20
-66.1472
 11
-137.01
 21
-66.1885
  0
LINE
  8
0
 10
-137.01
 20
-66.1885
 11
-136.773
 21
-66.2568
  0
LINE
  8
0
 10
-136.773
 20
-66.2568
 11
-136.545
 21
-66.3512
  0
LINE
  8
0
 10
-136.545
 20
-66.3512
 11
-136.33
 21
-66.4705
  0
LINE
  8
0
 10
-136.33
 20
-66.4705
 11
-136.128
 21
-66.6133
  0
LINE
  8
0
 10
-136.128
 20
-66.6133
 11
-135.944
 21
-66.7777
  0
LINE
  8
0
 10
-135.944
 20
-66.7777
 11
-135.78
 21
-66.9617
  0
LINE
  8
0
 10
-135.78
 20
-66.9617
 11
-135.637
 21
-67.1629
  0
LINE
  8
0
 10
-135.637
 20
-67.1629
 11
-135.518
 21
-67.3788
  0
LINE
  8
0
 10
-135.518
 20
-67.3788
 11
-135.423
 21
-67.6067
  0
LINE
  8
0
 10
-135.423
 20
-67.6067
 11
-135.355
 21
-67.8438
  0
LINE
  8
0
 10
-135.355
 20
-67.8438
 11
-135.314
 21
-68.087
  0
LINE
  8
0
 10
-135.314
 20
-68.087
 11
-135.3
 21
-68.3333
  0
LINE
  8
0
 10
-135.3
 20
-68.3333
 11
-135.314
 21
-68.5797
  0
LINE
  8
0
 10
-135.314
 20
-68.5797
 11
-135.355
 21
-68.8229
  0
LINE
  8
0
 10
-135.355
 20
-68.8229
 11
-135.423
 21
-69.0599
  0
LINE
  8
0
 10
-135.423
 20
-69.0599
 11
-135.518
 21
-69.2879
  0
LINE
  8
0
 10
-135.518
 20
-69.2879
 11
-135.637
 21
-69.5038
  0
LINE
  8
0
 10
-135.637
 20
-69.5038
 11
-135.78
 21
-69.705
  0
LINE
  8
0
 10
-135.78
 20
-69.705
 11
-135.944
 21
-69.889
  0
LINE
  8
0
 10
-135.944
 20
-69.889
 11
-136.128
 21
-70.0534
  0
LINE
  8
0
 10
-136.128
 20
-70.0534
 11
-136.33
 21
-70.1961
  0
LINE
  8
0
 10
-136.33
 20
-70.1961
 11
-136.545
 21
-70.3155
  0
LINE
  8
0
 10
-136.545
 20
-70.3155
 11
-136.773
 21
-70.4099
  0
LINE
  8
0
 10
-136.773
 20
-70.4099
 11
-137.01
 21
-70.4782
  0
LINE
  8
0
 10
-137.01
 20
-70.4782
 11
-137.254
 21
-70.5195
  0
LINE
  8
0
 10
-137.254
 20
-70.5195
 11
-137.5
 21
-70.5333
  0
LINE
  8
0
 10
-137.5
 20
-70.5333
 11
-137.746
 21
-70.5195
  0
LINE
  8
0
 10
-137.761
 20
-157.486
 11
-138.02
 21
-157.445
  0
LINE
  8
0
 10
-138.02
 20
-157.445
 11
-138.273
 21
-157.378
  0
LINE
  8
0
 10
-138.273
 20
-157.378
 11
-138.517
 21
-157.284
  0
LINE
  8
0
 10
-138.517
 20
-157.284
 11
-138.75
 21
-157.165
  0
LINE
  8
0
 10
-138.75
 20
-157.165
 11
-138.969
 21
-157.023
  0
LINE
  8
0
 10
-138.969
 20
-157.023
 11
-139.173
 21
-156.858
  0
LINE
  8
0
 10
-139.173
 20
-156.858
 11
-139.358
 21
-156.673
  0
LINE
  8
0
 10
-139.358
 20
-156.673
 11
-139.523
 21
-156.469
  0
LINE
  8
0
 10
-139.523
 20
-156.469
 11
-139.665
 21
-156.25
  0
LINE
  8
0
 10
-139.665
 20
-156.25
 11
-139.784
 21
-156.017
  0
LINE
  8
0
 10
-139.784
 20
-156.017
 11
-139.878
 21
-155.773
  0
LINE
  8
0
 10
-139.878
 20
-155.773
 11
-139.945
 21
-155.52
  0
LINE
  8
0
 10
-139.945
 20
-155.52
 11
-139.986
 21
-155.261
  0
LINE
  8
0
 10
-139.986
 20
-155.261
 11
-140
 21
-155
  0
LINE
  8
0
 10
-140
 20
-155
 11
-139.986
 21
-154.739
  0
LINE
  8
0
 10
-139.986
 20
-154.739
 11
-139.945
 21
-154.48
  0
LINE
  8
0
 10
-139.945
 20
-154.48
 11
-139.878
 21
-154.227
  0
LINE
  8
0
 10
-139.878
 20
-154.227
 11
-139.784
 21
-153.983
  0
LINE
  8
0
 10
-139.784
 20
-153.983
 11
-139.665
 21
-153.75
  0
LINE
  8
0
 10
-139.665
 20
-153.75
 11
-139.523
 21
-153.531
  0
LINE
  8
0
 10
-139.523
 20
-153.531
 11
-139.358
 21
-153.327
  0
LINE
  8
0
 10
-139.358
 20
-153.327
 11
-139.173
 21
-153.142
  0
LINE
  8
0
 10
-139.173
 20
-153.142
 11
-138.969
 21
-152.977
  0
LINE
  8
0
 10
-138.969
 20
-152.977
 11
-138.75
 21
-152.835
  0
LINE
  8
0
 10
-138.75
 20
-152.835
 11
-138.517
 21
-152.716
  0
LINE
  8
0
 10
-138.517
 20
-152.716
 11
-138.273
 21
-152.622
  0
LINE
  8
0
 10
-138.273
 20
-152.622
 11
-138.02
 21
-152.555
  0
LINE
  8
0
 10
-138.02
 20
-152.555
 11
-137.761
 21
-152.514
  0
LINE
  8
0
 10
-137.761
 20
-152.514
 11
-137.5
 21
-152.5
  0
LINE
  8
0
 10
-137.5
 20
-152.5
 11
-137.239
 21
-152.514
  0
LINE
  8
0
 10
-137.239
 20
-152.514
 11
-136.98
 21
-152.555
  0
LINE
  8
0
 10
-136.98
 20
-152.555
 11
-136.727
 21
-152.622
  0
LINE
  8
0
 10
-136.727
 20
-152.622
 11
-136.483
 21
-152.716
  0
LINE
  8
0
 10
-136.483
 20
-152.716
 11
-136.25
 21
-152.835
  0
LINE
  8
0
 10
-136.25
 20
-152.835
 11
-136.031
 21
-152.977
  0
LINE
  8
0
 10
-136.031
 20
-152.977
 11
-135.827
 21
-153.142
  0
LINE
  8
0
 10
-135.827
 20
-153.142
 11
-135.642
 21
-153.327
  0
LINE
  8
0
 10
-135.642
 20
-153.327
 11
-135.477
 21
-153.531
  0
LINE
  8
0
 10
-135.477
 20
-153.531
 11
-135.335
 21
-153.75
  0
LINE
  8
0
 10
-135.335
 20
-153.75
 11
-135.216
 21
-153.983
  0
LINE
  8
0
 10
-135.216
 20
-153.983
 11
-135.122
 21
-154.227
  0
LINE
  8
0
 10
-135.122
 20
-154.227
 11
-135.055
 21
-154.48
  0
LINE
  8
0
 10
-135.055
 20
-154.48
 11
-135.014
 21
-154.739
  0
LINE
  8
0
 10
-135.014
 20
-154.739
 11
-135
 21
-155
  0
LINE
  8
0
 10
-135
 20
-155
 11
-135.014
 21
-155.261
  0
LINE
  8
0
 10
-135.014
 20
-155.261
 11
-135.055
 21
-155.52
  0
LINE
  8
0
 10
-135.055
 20
-155.52
 11
-135.122
 21
-155.773
  0
LINE
  8
0
 10
-135.122
 20
-155.773
 11
-135.216
 21
-156.017
  0
LINE
  8
0
 10
-135.216
 20
-156.017
 11
-135.335
 21
-156.25
  0
LINE
  8
0
 10
-135.335
 20
-156.25
 11
-135.477
 21
-156.469
  0
LINE
  8
0
 10
-135.477
 20
-156.469
 11
-135.642
 21
-156.673
  0
LINE
  8
0
 10
-135.642
 20
-156.673
 11
-135.827
 21
-156.858
  0
LINE
  8
0
 10
-135.827
 20
-156.858
 11
-136.031
 21
-157.023
  0
LINE
  8
0
 10
-136.031
 20
-157.023
 11
-136.25
 21
-157.165
  0
LINE
  8
0
 10
-136.25
 20
-157.165
 11
-136.483
 21
-157.284
  0
LINE
  8
0
 10
-136.483
 20
-157.284
 11
-136.727
 21
-157.378
  0
LINE
  8
0
 10
-136.727
 20
-157.378
 11
-136.98
 21
-157.445
  0
LINE
  8
0
 10
-136.98
 20
-157.445
 11
-137.239
 21
-157.486
  0
LINE
  8
0
 10
-137.239
 20
-157.486
 11
-137.5
 21
-157.5
  0
LINE
  8
0
 10
-137.5
 20
-157.5
 11
-137.761
 21
-157.486
  0
LINE
  8
0
 10
-137.761
 20
-177.486
 11
-138.02
 21
-177.445
  0
LINE
  8
0
 10
-138.02
 20
-177.445
 11
-138.273
 21
-177.378
  0
LINE
  8
0
 10
-138.273
 20
-177.378
 11
-138.517
 21
-177.284
  0
LINE
  8
0
 10
-138.517
 20
-177.284
 11
-138.75
 21
-177.165
  0
LINE
  8
0
 10
-138.75
 20
-177.165
 11
-138.969
 21
-177.023
  0
LINE
  8
0
 10
-138.969
 20
-177.023
 11
-139.173
 21
-176.858
  0
LINE
  8
0
 10
-139.173
 20
-176.858
 11
-139.358
 21
-176.673
  0
LINE
  8
0
 10
-139.358
 20
-176.673
 11
-139.523
 21
-176.469
  0
LINE
  8
0
 10
-139.523
 20
-176.469
 11
-139.665
 21
-176.25
  0
LINE
  8
0
 10
-139.665
 20
-176.25
 11
-139.784
 21
-176.017
  0
LINE
  8
0
 10
-139.784
 20
-176.017
 11
-139.878
 21
-175.773
  0
LINE
  8
0
 10
-139.878
 20
-175.773
 11
-139.945
 21
-175.52
  0
LINE
  8
0
 10
-139.945
 20
-175.52
 11
-139.986
 21
-175.261
  0
LINE
  8
0
 10
-139.986
 20
-175.261
 11
-140
 21
-175
  0
LINE
  8
0
 10
-140
 20
-175
 11
-139.986
 21
-174.739
  0
LINE
  8
0
 10
-139.986
 20
-174.739
 11
-139.945
 21
-174.48
  0
LINE
  8
0
 10
-139.945
 20
-174.48
 11
-139.878
 21
-174.227
  0
LINE
  8
0
 10
-139.878
 20
-174.227
 11
-139.784
 21
-173.983
  0
LINE
  8
0
 10
-139.784
 20
-173.983
 11
-139.665
 21
-173.75
  0
LINE
  8
0
 10
-139.665
 20
-173.75
 11
-139.523
 21
-173.531
  0
LINE
  8
0
 10
-139.523
 20
-173.531
 11
-139.358
 21
-173.327
  0
LINE
  8
0
 10
-139.358
 20
-173.327
 11
-139.173
 21
-173.142
  0
LINE
  8
0
 10
-139.173
 20
-173.142
 11
-138.969
 21
-172.977
  0
LINE
  8
0
 10
-138.969
 20
-172.977
 11
-138.75
 21
-172.835
  0
LINE
  8
0
 10
-138.75
 20
-172.835
 11
-138.517
 21
-172.716
  0
LINE
  8
0
 10
-138.517
 20
-172.716
 11
-138.273
 21
-172.622
  0
LINE
  8
0
 10
-138.273
 20
-172.622
 11
-138.02
 21
-172.555
  0
LINE
  8
0
 10
-138.02
 20
-172.555
 11
-137.761
 21
-172.514
  0
LINE
  8
0
 10
-137.761
 20
-172.514
 11
-137.5
 21
-172.5
  0
LINE
  8
0
 10
-137.5
 20
-172.5
 11
-137.239
 21
-172.514
  0
LINE
  8
0
 10
-137.239
 20
-172.514
 11
-136.98
 21
-172.555
  0
LINE
  8
0
 10
-136.98
 20
-172.555
 11
-136.727
 21
-172.622
  0
LINE
  8
0
 10
-136.727
 20
-172.622
 11
-136.483
 21
-172.716
  0
LINE
  8
0
 10
-136.483
 20
-172.716
 11
-136.25
 21
-172.835
  0
LINE
  8
0
 10
-136.25
 20
-172.835
 11
-136.031
 21
-172.977
  0
LINE
  8
0
 10
-136.031
 20
-172.977
 11
-135.827
 21
-173.142
  0
LINE
  8
0
 10
-135.827
 20
-173.142
 11
-135.642
 21
-173.327
  0
LINE
  8
0
 10
-135.642
 20
-173.327
 11
-135.477
 21
-173.531
  0
LINE
  8
0
 10
-135.477
 20
-173.531
 11
-135.335
 21
-173.75
  0
LINE
  8
0
 10
-135.335
 20
-173.75
 11
-135.216
 21
-173.983
  0
LINE
  8
0
 10
-135.216
 20
-173.983
 11
-135.122
 21
-174.227
  0
LINE
  8
0
 10
-135.122
 20
-174.227
 11
-135.055
 21
-174.48
  0
LINE
  8
0
 10
-135.055
 20
-174.48
 11
-135.014
 21
-174.739
  0
LINE
  8
0
 10
-135.014
 20
-174.739
 11
-135
 21
-175
  0
LINE
  8
0
 10
-135
 20
-175
 11
-135.014
 21
-175.261
  0
LINE
  8
0
 10
-135.014
 20
-175.261
 11
-135.055
 21
-175.52
  0
LINE
  8
0
 10
-135.055
 20
-175.52
 11
-135.122
 21
-175.773
  0
LINE
  8
0
 10
-135.122
 20
-175.773
 11
-135.216
 21
-176.017
  0
LINE
  8
0
 10
-135.216
 20
-176.017
 11
-135.335
 21
-176.25
  0
LINE
  8
0
 10
-135.335
 20
-176.25
 11
-135.477
 21
-176.469
  0
LINE
  8
0
 10
-135.477
 20
-176.469
 11
-135.642
 21
-176.673
  0
LINE
  8
0
 10
-135.642
 20
-176.673
 11
-135.827
 21
-176.858
  0
LINE
  8
0
 10
-135.827
 20
-176.858
 11
-136.031
 21
-177.023
  0
LINE
  8
0
 10
-136.031
 20
-177.023
 11
-136.25
 21
-177.165
  0
LINE
  8
0
 10
-136.25
 20
-177.165
 11
-136.483
 21
-177.284
  0
LINE
  8
0
 10
-136.483
 20
-177.284
 11
-136.727
 21
-177.378
  0
LINE
  8
0
 10
-136.727
 20
-177.378
 11
-136.98
 21
-177.445
  0
LINE
  8
0
 10
-136.98
 20
-177.445
 11
-137.239
 21
-177.486
  0
LINE
  8
0
 10
-137.239
 20
-177.486
 11
-137.5
 21
-177.5
  0
LINE
  8
0
 10
-137.5
 20
-177.5
 11
-137.761
 21
-177.486
  0
LINE
  8
0
 10
-137.761
 20
-197.486
 11
-138.02
 21
-197.445
  0
LINE
  8
0
 10
-138.02
 20
-197.445
 11
-138.273
 21
-197.378
  0
LINE
  8
0
 10
-138.273
 20
-197.378
 11
-138.517
 21
-197.284
  0
LINE
  8
0
 10
-138.517
 20
-197.284
 11
-138.75
 21
-197.165
  0
LINE
  8
0
 10
-138.75
 20
-197.165
 11
-138.969
 21
-197.023
  0
LINE
  8
0
 10
-138.969
 20
-197.023
 11
-139.173
 21
-196.858
  0
LINE
  8
0
 10
-139.173
 20
-196.858
 11
-139.358
 21
-196.673
  0
LINE
  8
0
 10
-139.358
 20
-196.673
 11
-139.523
 21
-196.469
  0
LINE
  8
0
 10
-139.523
 20
-196.469
 11
-139.665
 21
-196.25
  0
LINE
  8
0
 10
-139.665
 20
-196.25
 11
-139.784
 21
-196.017
  0
LINE
  8
0
 10
-139.784
 20
-196.017
 11
-139.878
 21
-195.773
  0
LINE
  8
0
 10
-139.878
 20
-195.773
 11
-139.945
 21
-195.52
  0
LINE
  8
0
 10
-139.945
 20
-195.52
 11
-139.986
 21
-195.261
  0
LINE
  8
0
 10
-139.986
 20
-195.261
 11
-140
 21
-195
  0
LINE
  8
0
 10
-140
 20
-195
 11
-139.986
 21
-194.739
  0
LINE
  8
0
 10
-139.986
 20
-194.739
 11
-139.945
 21
-194.48
  0
LINE
  8
0
 10
-139.945
 20
-194.48
 11
-139.878
 21
-194.227
  0
LINE
  8
0
 10
-139.878
 20
-194.227
 11
-139.784
 21
-193.983
  0
LINE
  8
0
 10
-139.784
 20
-193.983
 11
-139.665
 21
-193.75
  0
LINE
  8
0
 10
-139.665
 20
-193.75
 11
-139.523
 21
-193.531
  0
LINE
  8
0
 10
-139.523
 20
-193.531
 11
-139.358
 21
-193.327
  0
LINE
  8
0
 10
-139.358
 20
-193.327
 11
-139.173
 21
-193.142
  0
LINE
  8
0
 10
-139.173
 20
-193.142
 11
-138.969
 21
-192.977
  0
LINE
  8
0
 10
-138.969
 20
-192.977
 11
-138.75
 21
-192.835
  0
LINE
  8
0
 10
-138.75
 20
-192.835
 11
-138.517
 21
-192.716
  0
LINE
  8
0
 10
-138.517
 20
-192.716
 11
-138.273
 21
-192.622
  0
LINE
  8
0
 10
-138.273
 20
-192.622
 11
-138.02
 21
-192.555
  0
LINE
  8
0
 10
-138.02
 20
-192.555
 11
-137.761
 21
-192.514
  0
LINE
  8
0
 10
-137.761
 20
-192.514
 11
-137.5
 21
-192.5
  0
LINE
  8
0
 10
-137.5
 20
-192.5
 11
-137.239
 21
-192.514
  0
LINE
  8
0
 10
-137.239
 20
-192.514
 11
-136.98
 21
-192.555
  0
LINE
  8
0
 10
-136.98
 20
-192.555
 11
-136.727
 21
-192.622
  0
LINE
  8
0
 10
-136.727
 20
-192.622
 11
-136.483
 21
-192.716
  0
LINE
  8
0
 10
-136.483
 20
-192.716
 11
-136.25
 21
-192.835
  0
LINE
  8
0
 10
-136.25
 20
-192.835
 11
-136.031
 21
-192.977
  0
LINE
  8
0
 10
-136.031
 20
-192.977
 11
-135.827
 21
-193.142
  0
LINE
  8
0
 10
-135.827
 20
-193.142
 11
-135.642
 21
-193.327
  0
LINE
  8
0
 10
-135.642
 20
-193.327
 11
-135.477
 21
-193.531
  0
LINE
  8
0
 10
-135.477
 20
-193.531
 11
-135.335
 21
-193.75
  0
LINE
  8
0
 10
-135.335
 20
-193.75
 11
-135.216
 21
-193.983
  0
LINE
  8
0
 10
-135.216
 20
-193.983
 11
-135.122
 21
-194.227
  0
LINE
  8
0
 10
-135.122
 20
-194.227
 11
-135.055
 21
-194.48
  0
LINE
  8
0
 10
-135.055
 20
-194.48
 11
-135.014
 21
-194.739
  0
LINE
  8
0
 10
-135.014
 20
-194.739
 11
-135
 21
-195
  0
LINE
  8
0
 10
-135
 20
-195
 11
-135.014
 21
-195.261
  0
LINE
  8
0
 10
-135.014
 20
-195.261
 11
-135.055
 21
-195.52
  0
LINE
  8
0
 10
-135.055
 20
-195.52
 11
-135.122
 21
-195.773
  0
LINE
  8
0
 10
-135.122
 20
-195.773
 11
-135.216
 21
-196.017
  0
LINE
  8
0
 10
-135.216
 20
-196.017
 11
-135.335
 21
-196.25
  0
LINE
  8
0
 10
-135.335
 20
-196.25
 11
-135.477
 21
-196.469
  0
LINE
  8
0
 10
-135.477
 20
-196.469
 11
-135.642
 21
-196.673
  0
LINE
  8
0
 10
-135.642
 20
-196.673
 11
-135.827
 21
-196.858
  0
LINE
  8
0
 10
-135.827
 20
-196.858
 11
-136.031
 21
-197.023
  0
LINE
  8
0
 10
-136.031
 20
-197.023
 11
-136.25
 21
-197.165
  0
LINE
  8
0
 10
-136.25
 20
-197.165
 11
-136.483
 21
-197.284
  0
LINE
  8
0
 10
-136.483
 20
-197.284
 11
-136.727
 21
-197.378
  0
LINE
  8
0
 10
-136.727
 20
-197.378
 11
-136.98
 21
-197.445
  0
LINE
  8
0
 10
-136.98
 20
-197.445
 11
-137.239
 21
-197.486
  0
LINE
  8
0
 10
-137.239
 20
-197.486
 11
-137.5
 21
-197.5
  0
LINE
  8
0
 10
-137.5
 20
-197.5
 11
-137.761
 21
-197.486
  0
LINE
  8
0
 10
-137.746
 20
-207.186
 11
-137.99
 21
-207.145
  0
LINE
  8
0
 10
-137.99
 20
-207.145
 11
-138.227
 21
-207.077
  0
LINE
  8
0
 10
-138.227
 20
-207.077
 11
-138.455
 21
-206.982
  0
LINE
  8
0
 10
-138.455
 20
-206.982
 11
-138.67
 21
-206.863
  0
LINE
  8
0
 10
-138.67
 20
-206.863
 11
-138.872
 21
-206.72
  0
LINE
  8
0
 10
-138.872
 20
-206.72
 11
-139.056
 21
-206.556
  0
LINE
  8
0
 10
-139.056
 20
-206.556
 11
-139.22
 21
-206.372
  0
LINE
  8
0
 10
-139.22
 20
-206.372
 11
-139.363
 21
-206.17
  0
LINE
  8
0
 10
-139.363
 20
-206.17
 11
-139.482
 21
-205.955
  0
LINE
  8
0
 10
-139.482
 20
-205.955
 11
-139.577
 21
-205.727
  0
LINE
  8
0
 10
-139.577
 20
-205.727
 11
-139.645
 21
-205.49
  0
LINE
  8
0
 10
-139.645
 20
-205.49
 11
-139.686
 21
-205.246
  0
LINE
  8
0
 10
-139.686
 20
-205.246
 11
-139.7
 21
-205
  0
LINE
  8
0
 10
-139.7
 20
-205
 11
-139.686
 21
-204.754
  0
LINE
  8
0
 10
-139.686
 20
-204.754
 11
-139.645
 21
-204.51
  0
LINE
  8
0
 10
-139.645
 20
-204.51
 11
-139.577
 21
-204.273
  0
LINE
  8
0
 10
-139.577
 20
-204.273
 11
-139.482
 21
-204.045
  0
LINE
  8
0
 10
-139.482
 20
-204.045
 11
-139.363
 21
-203.83
  0
LINE
  8
0
 10
-139.363
 20
-203.83
 11
-139.22
 21
-203.628
  0
LINE
  8
0
 10
-139.22
 20
-203.628
 11
-139.056
 21
-203.444
  0
LINE
  8
0
 10
-139.056
 20
-203.444
 11
-138.872
 21
-203.28
  0
LINE
  8
0
 10
-138.872
 20
-203.28
 11
-138.67
 21
-203.137
  0
LINE
  8
0
 10
-138.67
 20
-203.137
 11
-138.455
 21
-203.018
  0
LINE
  8
0
 10
-138.455
 20
-203.018
 11
-138.227
 21
-202.923
  0
LINE
  8
0
 10
-138.227
 20
-202.923
 11
-137.99
 21
-202.855
  0
LINE
  8
0
 10
-137.99
 20
-202.855
 11
-137.746
 21
-202.814
  0
LINE
  8
0
 10
-137.746
 20
-202.814
 11
-137.5
 21
-202.8
  0
LINE
  8
0
 10
-137.5
 20
-202.8
 11
-137.254
 21
-202.814
  0
LINE
  8
0
 10
-137.254
 20
-202.814
 11
-137.01
 21
-202.855
  0
LINE
  8
0
 10
-137.01
 20
-202.855
 11
-136.773
 21
-202.923
  0
LINE
  8
0
 10
-136.773
 20
-202.923
 11
-136.545
 21
-203.018
  0
LINE
  8
0
 10
-136.545
 20
-203.018
 11
-136.33
 21
-203.137
  0
LINE
  8
0
 10
-136.33
 20
-203.137
 11
-136.128
 21
-203.28
  0
LINE
  8
0
 10
-136.128
 20
-203.28
 11
-135.944
 21
-203.444
  0
LINE
  8
0
 10
-135.944
 20
-203.444
 11
-135.78
 21
-203.628
  0
LINE
  8
0
 10
-135.78
 20
-203.628
 11
-135.637
 21
-203.83
  0
LINE
  8
0
 10
-135.637
 20
-203.83
 11
-135.518
 21
-204.045
  0
LINE
  8
0
 10
-135.518
 20
-204.045
 11
-135.423
 21
-204.273
  0
LINE
  8
0
 10
-135.423
 20
-204.273
 11
-135.355
 21
-204.51
  0
LINE
  8
0
 10
-135.355
 20
-204.51
 11
-135.314
 21
-204.754
  0
LINE
  8
0
 10
-135.314
 20
-204.754
 11
-135.3
 21
-205
  0
LINE
  8
0
 10
-135.3
 20
-205
 11
-135.314
 21
-205.246
  0
LINE
  8
0
 10
-135.314
 20
-205.246
 11
-135.355
 21
-205.49
  0
LINE
  8
0
 10
-135.355
 20
-205.49
 11
-135.423
 21
-205.727
  0
LINE
  8
0
 10
-135.423
 20
-205.727
 11
-135.518
 21
-205.955
  0
LINE
  8
0
 10
-135.518
 20
-205.955
 11
-135.637
 21
-206.17
  0
LINE
  8
0
 10
-135.637
 20
-206.17
 11
-135.78
 21
-206.372
  0
LINE
  8
0
 10
-135.78
 20
-206.372
 11
-135.944
 21
-206.556
  0
LINE
  8
0
 10
-135.944
 20
-206.556
 11
-136.128
 21
-206.72
  0
LINE
  8
0
 10
-136.128
 20
-206.72
 11
-136.33
 21
-206.863
  0
LINE
  8
0
 10
-136.33
 20
-206.863
 11
-136.545
 21
-206.982
  0
LINE
  8
0
 10
-136.545
 20
-206.982
 11
-136.773
 21
-207.077
  0
LINE
  8
0
 10
-136.773
 20
-207.077
 11
-137.01
 21
-207.145
  0
LINE
  8
0
 10
-137.01
 20
-207.145
 11
-137.254
 21
-207.186
  0
LINE
  8
0
 10
-137.254
 20
-207.186
 11
-137.5
 21
-207.2
  0
LINE
  8
0
 10
-137.5
 20
-207.2
 11
-137.746
 21
-207.186
  0
LINE
  8
0
 10
-137.761
 20
-217.486
 11
-138.02
 21
-217.445
  0
LINE
  8
0
 10
-138.02
 20
-217.445
 11
-138.273
 21
-217.378
  0
LINE
  8
0
 10
-138.273
 20
-217.378
 11
-138.517
 21
-217.284
  0
LINE
  8
0
 10
-138.517
 20
-217.284
 11
-138.75
 21
-217.165
  0
LINE
  8
0
 10
-138.75
 20
-217.165
 11
-138.969
 21
-217.023
  0
LINE
  8
0
 10
-138.969
 20
-217.023
 11
-139.173
 21
-216.858
  0
LINE
  8
0
 10
-139.173
 20
-216.858
 11
-139.358
 21
-216.673
  0
LINE
  8
0
 10
-139.358
 20
-216.673
 11
-139.523
 21
-216.469
  0
LINE
  8
0
 10
-139.523
 20
-216.469
 11
-139.665
 21
-216.25
  0
LINE
  8
0
 10
-139.665
 20
-216.25
 11
-139.784
 21
-216.017
  0
LINE
  8
0
 10
-139.784
 20
-216.017
 11
-139.878
 21
-215.773
  0
LINE
  8
0
 10
-139.878
 20
-215.773
 11
-139.945
 21
-215.52
  0
LINE
  8
0
 10
-139.945
 20
-215.52
 11
-139.986
 21
-215.261
  0
LINE
  8
0
 10
-139.986
 20
-215.261
 11
-140
 21
-215
  0
LINE
  8
0
 10
-140
 20
-215
 11
-139.986
 21
-214.739
  0
LINE
  8
0
 10
-139.986
 20
-214.739
 11
-139.945
 21
-214.48
  0
LINE
  8
0
 10
-139.945
 20
-214.48
 11
-139.878
 21
-214.227
  0
LINE
  8
0
 10
-139.878
 20
-214.227
 11
-139.784
 21
-213.983
  0
LINE
  8
0
 10
-139.784
 20
-213.983
 11
-139.665
 21
-213.75
  0
LINE
  8
0
 10
-139.665
 20
-213.75
 11
-139.523
 21
-213.531
  0
LINE
  8
0
 10
-139.523
 20
-213.531
 11
-139.358
 21
-213.327
  0
LINE
  8
0
 10
-139.358
 20
-213.327
 11
-139.173
 21
-213.142
  0
LINE
  8
0
 10
-139.173
 20
-213.142
 11
-138.969
 21
-212.977
  0
LINE
  8
0
 10
-138.969
 20
-212.977
 11
-138.75
 21
-212.835
  0
LINE
  8
0
 10
-138.75
 20
-212.835
 11
-138.517
 21
-212.716
  0
LINE
  8
0
 10
-138.517
 20
-212.716
 11
-138.273
 21
-212.622
  0
LINE
  8
0
 10
-138.273
 20
-212.622
 11
-138.02
 21
-212.555
  0
LINE
  8
0
 10
-138.02
 20
-212.555
 11
-137.761
 21
-212.514
  0
LINE
  8
0
 10
-137.761
 20
-212.514
 11
-137.5
 21
-212.5
  0
LINE
  8
0
 10
-137.5
 20
-212.5
 11
-137.239
 21
-212.514
  0
LINE
  8
0
 10
-137.239
 20
-212.514
 11
-136.98
 21
-212.555
  0
LINE
  8
0
 10
-136.98
 20
-212.555
 11
-136.727
 21
-212.622
  0
LINE
  8
0
 10
-136.727
 20
-212.622
 11
-136.483
 21
-212.716
  0
LINE
  8
0
 10
-136.483
 20
-212.716
 11
-136.25
 21
-212.835
  0
LINE
  8
0
 10
-136.25
 20
-212.835
 11
-136.031
 21
-212.977
  0
LINE
  8
0
 10
-136.031
 20
-212.977
 11
-135.827
 21
-213.142
  0
LINE
  8
0
 10
-135.827
 20
-213.142
 11
-135.642
 21
-213.327
  0
LINE
  8
0
 10
-135.642
 20
-213.327
 11
-135.477
 21
-213.531
  0
LINE
  8
0
 10
-135.477
 20
-213.531
 11
-135.335
 21
-213.75
  0
LINE
  8
0
 10
-135.335
 20
-213.75
 11
-135.216
 21
-213.983
  0
LINE
  8
0
 10
-135.216
 20
-213.983
 11
-135.122
 21
-214.227
  0
LINE
  8
0
 10
-135.122
 20
-214.227
 11
-135.055
 21
-214.48
  0
LINE
  8
0
 10
-135.055
 20
-214.48
 11
-135.014
 21
-214.739
  0
LINE
  8
0
 10
-135.014
 20
-214.739
 11
-135
 21
-215
  0
LINE
  8
0
 10
-135
 20
-215
 11
-135.014
 21
-215.261
  0
LINE
  8
0
 10
-135.014
 20
-215.261
 11
-135.055
 21
-215.52
  0
LINE
  8
0
 10
-135.055
 20
-215.52
 11
-135.122
 21
-215.773
  0
LINE
  8
0
 10
-135.122
 20
-215.773
 11
-135.216
 21
-216.017
  0
LINE
  8
0
 10
-135.216
 20
-216.017
 11
-135.335
 21
-216.25
  0
LINE
  8
0
 10
-135.335
 20
-216.25
 11
-135.477
 21
-216.469
  0
LINE
  8
0
 10
-135.477
 20
-216.469
 11
-135.642
 21
-216.673
  0
LINE
  8
0
 10
-135.642
 20
-216.673
 11
-135.827
 21
-216.858
  0
LINE
  8
0
 10
-135.827
 20
-216.858
 11
-136.031
 21
-217.023
  0
LINE
  8
0
 10
-136.031
 20
-217.023
 11
-136.25
 21
-217.165
  0
LINE
  8
0
 10
-136.25
 20
-217.165
 11
-136.483
 21
-217.284
  0
LINE
  8
0
 10
-136.483
 20
-217.284
 11
-136.727
 21
-217.378
  0
LINE
  8
0
 10
-136.727
 20
-217.378
 11
-136.98
 21
-217.445
  0
LINE
  8
0
 10
-136.98
 20
-217.445
 11
-137.239
 21
-217.486
  0
LINE
  8
0
 10
-137.239
 20
-217.486
 11
-137.5
 21
-217.5
  0
LINE
  8
0
 10
-137.5
 20
-217.5
 11
-137.761
 21
-217.486
  0
LINE
  8
0
 10
-107.746
 20
-217.186
 11
-107.99
 21
-217.145
  0
LINE
  8
0
 10
-107.99
 20
-217.145
 11
-108.227
 21
-217.077
  0
LINE
  8
0
 10
-108.227
 20
-217.077
 11
-108.455
 21
-216.982
  0
LINE
  8
0
 10
-108.455
 20
-216.982
 11
-108.67
 21
-216.863
  0
LINE
  8
0
 10
-108.67
 20
-216.863
 11
-108.872
 21
-216.72
  0
LINE
  8
0
 10
-108.872
 20
-216.72
 11
-109.056
 21
-216.556
  0
LINE
  8
0
 10
-109.056
 20
-216.556
 11
-109.22
 21
-216.372
  0
LINE
  8
0
 10
-109.22
 20
-216.372
 11
-109.363
 21
-216.17
  0
LINE
  8
0
 10
-109.363
 20
-216.17
 11
-109.482
 21
-215.955
  0
LINE
  8
0
 10
-109.482
 20
-215.955
 11
-109.577
 21
-215.727
  0
LINE
  8
0
 10
-109.577
 20
-215.727
 11
-109.645
 21
-215.49
  0
LINE
  8
0
 10
-109.645
 20
-215.49
 11
-109.686
 21
-215.246
  0
LINE
  8
0
 10
-109.686
 20
-215.246
 11
-109.7
 21
-215
  0
LINE
  8
0
 10
-109.7
 20
-215
 11
-109.686
 21
-214.754
  0
LINE
  8
0
 10
-109.686
 20
-214.754
 11
-109.645
 21
-214.51
  0
LINE
  8
0
 10
-109.645
 20
-214.51
 11
-109.577
 21
-214.273
  0
LINE
  8
0
 10
-109.577
 20
-214.273
 11
-109.482
 21
-214.045
  0
LINE
  8
0
 10
-109.482
 20
-214.045
 11
-109.363
 21
-213.83
  0
LINE
  8
0
 10
-109.363
 20
-213.83
 11
-109.22
 21
-213.628
  0
LINE
  8
0
 10
-109.22
 20
-213.628
 11
-109.056
 21
-213.444
  0
LINE
  8
0
 10
-109.056
 20
-213.444
 11
-108.872
 21
-213.28
  0
LINE
  8
0
 10
-108.872
 20
-213.28
 11
-108.67
 21
-213.137
  0
LINE
  8
0
 10
-108.67
 20
-213.137
 11
-108.455
 21
-213.018
  0
LINE
  8
0
 10
-108.455
 20
-213.018
 11
-108.227
 21
-212.923
  0
LINE
  8
0
 10
-108.227
 20
-212.923
 11
-107.99
 21
-212.855
  0
LINE
  8
0
 10
-107.99
 20
-212.855
 11
-107.746
 21
-212.814
  0
LINE
  8
0
 10
-107.746
 20
-212.814
 11
-107.5
 21
-212.8
  0
LINE
  8
0
 10
-107.5
 20
-212.8
 11
-107.254
 21
-212.814
  0
LINE
  8
0
 10
-107.254
 20
-212.814
 11
-107.01
 21
-212.855
  0
LINE
  8
0
 10
-107.01
 20
-212.855
 11
-106.773
 21
-212.923
  0
LINE
  8
0
 10
-106.773
 20
-212.923
 11
-106.545
 21
-213.018
  0
LINE
  8
0
 10
-106.545
 20
-213.018
 11
-106.33
 21
-213.137
  0
LINE
  8
0
 10
-106.33
 20
-213.137
 11
-106.128
 21
-213.28
  0
LINE
  8
0
 10
-106.128
 20
-213.28
 11
-105.944
 21
-213.444
  0
LINE
  8
0
 10
-105.944
 20
-213.444
 11
-105.78
 21
-213.628
  0
LINE
  8
0
 10
-105.78
 20
-213.628
 11
-105.637
 21
-213.83
  0
LINE
  8
0
 10
-105.637
 20
-213.83
 11
-105.518
 21
-214.045
  0
LINE
  8
0
 10
-105.518
 20
-214.045
 11
-105.423
 21
-214.273
  0
LINE
  8
0
 10
-105.423
 20
-214.273
 11
-105.355
 21
-214.51
  0
LINE
  8
0
 10
-105.355
 20
-214.51
 11
-105.314
 21
-214.754
  0
LINE
  8
0
 10
-105.314
 20
-214.754
 11
-105.3
 21
-215
  0
LINE
  8
0
 10
-105.3
 20
-215
 11
-105.314
 21
-215.246
  0
LINE
  8
0
 10
-105.314
 20
-215.246
 11
-105.355
 21
-215.49
  0
LINE
  8
0
 10
-105.355
 20
-215.49
 11
-105.423
 21
-215.727
  0
LINE
  8
0
 10
-105.423
 20
-215.727
 11
-105.518
 21
-215.955
  0
LINE
  8
0
 10
-105.518
 20
-215.955
 11
-105.637
 21
-216.17
  0
LINE
  8
0
 10
-105.637
 20
-216.17
 11
-105.78
 21
-216.372
  0
LINE
  8
0
 10
-105.78
 20
-216.372
 11
-105.944
 21
-216.556
  0
LINE
  8
0
 10
-105.944
 20
-216.556
 11
-106.128
 21
-216.72
  0
LINE
  8
0
 10
-106.128
 20
-216.72
 11
-106.33
 21
-216.863
  0
LINE
  8
0
 10
-106.33
 20
-216.863
 11
-106.545
 21
-216.982
  0
LINE
  8
0
 10
-106.545
 20
-216.982
 11
-106.773
 21
-217.077
  0
LINE
  8
0
 10
-106.773
 20
-217.077
 11
-107.01
 21
-217.145
  0
LINE
  8
0
 10
-107.01
 20
-217.145
 11
-107.254
 21
-217.186
  0
LINE
  8
0
 10
-107.254
 20
-217.186
 11
-107.5
 21
-217.2
  0
LINE
  8
0
 10
-107.5
 20
-217.2
 11
-107.746
 21
-217.186
  0
LINE
  8
0
 10
9.75368
 20
-217.186
 11
9.51045
 21
-217.145
  0
LINE
  8
0
 10
9.51045
 20
-217.145
 11
9.27338
 21
-217.077
  0
LINE
  8
0
 10
9.27338
 20
-217.077
 11
9.04544
 21
-216.982
  0
LINE
  8
0
 10
9.04544
 20
-216.982
 11
8.82953
 21
-216.863
  0
LINE
  8
0
 10
8.82953
 20
-216.863
 11
8.62831
 21
-216.72
  0
LINE
  8
0
 10
8.62831
 20
-216.72
 11
8.44435
 21
-216.556
  0
LINE
  8
0
 10
8.44435
 20
-216.556
 11
8.27997
 21
-216.372
  0
LINE
  8
0
 10
8.27997
 20
-216.372
 11
8.13719
 21
-216.17
  0
LINE
  8
0
 10
8.13719
 20
-216.17
 11
8.01787
 21
-215.955
  0
LINE
  8
0
 10
8.01787
 20
-215.955
 11
7.92345
 21
-215.727
  0
LINE
  8
0
 10
7.92345
 20
-215.727
 11
7.85515
 21
-215.49
  0
LINE
  8
0
 10
7.85515
 20
-215.49
 11
7.81383
 21
-215.246
  0
LINE
  8
0
 10
7.81383
 20
-215.246
 11
7.79999
 21
-215
  0
LINE
  8
0
 10
7.79999
 20
-215
 11
7.81383
 21
-214.754
  0
LINE
  8
0
 10
7.81383
 20
-214.754
 11
7.85515
 21
-214.51
  0
LINE
  8
0
 10
7.85515
 20
-214.51
 11
7.92345
 21
-214.273
  0
LINE
  8
0
 10
7.92345
 20
-214.273
 11
8.01787
 21
-214.045
  0
LINE
  8
0
 10
8.01787
 20
-214.045
 11
8.13719
 21
-213.83
  0
LINE
  8
0
 10
8.13719
 20
-213.83
 11
8.27997
 21
-213.628
  0
LINE
  8
0
 10
8.27997
 20
-213.628
 11
8.44435
 21
-213.444
  0
LINE
  8
0
 10
8.44435
 20
-213.444
 11
8.62831
 21
-213.28
  0
LINE
  8
0
 10
8.62831
 20
-213.28
 11
8.82953
 21
-213.137
  0
LINE
  8
0
 10
8.82953
 20
-213.137
 11
9.04544
 21
-213.018
  0
LINE
  8
0
 10
9.04544
 20
-213.018
 11
9.27338
 21
-212.923
  0
LINE
  8
0
 10
9.27338
 20
-212.923
 11
9.51045
 21
-212.855
  0
LINE
  8
0
 10
9.51045
 20
-212.855
 11
9.75368
 21
-212.814
  0
LINE
  8
0
 10
9.75368
 20
-212.814
 11
10
 21
-212.8
  0
LINE
  8
0
 10
10
 20
-212.8
 11
10.2463
 21
-212.814
  0
LINE
  8
0
 10
10.2463
 20
-212.814
 11
10.4895
 21
-212.855
  0
LINE
  8
0
 10
10.4895
 20
-212.855
 11
10.7266
 21
-212.923
  0
LINE
  8
0
 10
10.7266
 20
-212.923
 11
10.9545
 21
-213.018
  0
LINE
  8
0
 10
10.9545
 20
-213.018
 11
11.1705
 21
-213.137
  0
LINE
  8
0
 10
11.1705
 20
-213.137
 11
11.3717
 21
-213.28
  0
LINE
  8
0
 10
11.3717
 20
-213.28
 11
11.5556
 21
-213.444
  0
LINE
  8
0
 10
11.5556
 20
-213.444
 11
11.72
 21
-213.628
  0
LINE
  8
0
 10
11.72
 20
-213.628
 11
11.8628
 21
-213.83
  0
LINE
  8
0
 10
11.8628
 20
-213.83
 11
11.9821
 21
-214.045
  0
LINE
  8
0
 10
11.9821
 20
-214.045
 11
12.0765
 21
-214.273
  0
LINE
  8
0
 10
12.0765
 20
-214.273
 11
12.1448
 21
-214.51
  0
LINE
  8
0
 10
12.1448
 20
-214.51
 11
12.1862
 21
-214.754
  0
LINE
  8
0
 10
12.1862
 20
-214.754
 11
12.2
 21
-215
  0
LINE
  8
0
 10
12.2
 20
-215
 11
12.1862
 21
-215.246
  0
LINE
  8
0
 10
12.1862
 20
-215.246
 11
12.1448
 21
-215.49
  0
LINE
  8
0
 10
12.1448
 20
-215.49
 11
12.0765
 21
-215.727
  0
LINE
  8
0
 10
12.0765
 20
-215.727
 11
11.9821
 21
-215.955
  0
LINE
  8
0
 10
11.9821
 20
-215.955
 11
11.8628
 21
-216.17
  0
LINE
  8
0
 10
11.8628
 20
-216.17
 11
11.72
 21
-216.372
  0
LINE
  8
0
 10
11.72
 20
-216.372
 11
11.5556
 21
-216.556
  0
LINE
  8
0
 10
11.5556
 20
-216.556
 11
11.3717
 21
-216.72
  0
LINE
  8
0
 10
11.3717
 20
-216.72
 11
11.1705
 21
-216.863
  0
LINE
  8
0
 10
11.1705
 20
-216.863
 11
10.9545
 21
-216.982
  0
LINE
  8
0
 10
10.9545
 20
-216.982
 11
10.7266
 21
-217.077
  0
LINE
  8
0
 10
10.7266
 20
-217.077
 11
10.4895
 21
-217.145
  0
LINE
  8
0
 10
10.4895
 20
-217.145
 11
10.2463
 21
-217.186
  0
LINE
  8
0
 10
10.2463
 20
-217.186
 11
10
 21
-217.2
  0
LINE
  8
0
 10
10
 20
-217.2
 11
9.75368
 21
-217.186
  0
LINE
  8
0
 10
127.254
 20
-217.186
 11
127.01
 21
-217.145
  0
LINE
  8
0
 10
127.01
 20
-217.145
 11
126.773
 21
-217.077
  0
LINE
  8
0
 10
126.773
 20
-217.077
 11
126.545
 21
-216.982
  0
LINE
  8
0
 10
126.545
 20
-216.982
 11
126.33
 21
-216.863
  0
LINE
  8
0
 10
126.33
 20
-216.863
 11
126.128
 21
-216.72
  0
LINE
  8
0
 10
126.128
 20
-216.72
 11
125.944
 21
-216.556
  0
LINE
  8
0
 10
125.944
 20
-216.556
 11
125.78
 21
-216.372
  0
LINE
  8
0
 10
125.78
 20
-216.372
 11
125.637
 21
-216.17
  0
LINE
  8
0
 10
125.637
 20
-216.17
 11
125.518
 21
-215.955
  0
LINE
  8
0
 10
125.518
 20
-215.955
 11
125.423
 21
-215.727
  0
LINE
  8
0
 10
125.423
 20
-215.727
 11
125.355
 21
-215.49
  0
LINE
  8
0
 10
125.355
 20
-215.49
 11
125.314
 21
-215.246
  0
LINE
  8
0
 10
125.314
 20
-215.246
 11
125.3
 21
-215
  0
LINE
  8
0
 10
125.3
 20
-215
 11
125.314
 21
-214.754
  0
LINE
  8
0
 10
125.314
 20
-214.754
 11
125.355
 21
-214.51
  0
LINE
  8
0
 10
125.355
 20
-214.51
 11
125.423
 21
-214.273
  0
LINE
  8
0
 10
125.423
 20
-214.273
 11
125.518
 21
-214.045
  0
LINE
  8
0
 10
125.518
 20
-214.045
 11
125.637
 21
-213.83
  0
LINE
  8
0
 10
125.637
 20
-213.83
 11
125.78
 21
-213.628
  0
LINE
  8
0
 10
125.78
 20
-213.628
 11
125.944
 21
-213.444
  0
LINE
  8
0
 10
125.944
 20
-213.444
 11
126.128
 21
-213.28
  0
LINE
  8
0
 10
126.128
 20
-213.28
 11
126.33
 21
-213.137
  0
LINE
  8
0
 10
126.33
 20
-213.137
 11
126.545
 21
-213.018
  0
LINE
  8
0
 10
126.545
 20
-213.018
 11
126.773
 21
-212.923
  0
LINE
  8
0
 10
126.773
 20
-212.923
 11
127.01
 21
-212.855
  0
LINE
  8
0
 10
127.01
 20
-212.855
 11
127.254
 21
-212.814
  0
LINE
  8
0
 10
127.254
 20
-212.814
 11
127.5
 21
-212.8
  0
LINE
  8
0
 10
127.5
 20
-212.8
 11
127.746
 21
-212.814
  0
LINE
  8
0
 10
127.746
 20
-212.814
 11
127.99
 21
-212.855
  0
LINE
  8
0
 10
127.99
 20
-212.855
 11
128.227
 21
-212.923
  0
LINE
  8
0
 10
128.227
 20
-212.923
 11
128.455
 21
-213.018
  0
LINE
  8
0
 10
128.455
 20
-213.018
 11
128.67
 21
-213.137
  0
LINE
  8
0
 10
128.67
 20
-213.137
 11
128.872
 21
-213.28
  0
LINE
  8
0
 10
128.872
 20
-213.28
 11
129.056
 21
-213.444
  0
LINE
  8
0
 10
129.056
 20
-213.444
 11
129.22
 21
-213.628
  0
LINE
  8
0
 10
129.22
 20
-213.628
 11
129.363
 21
-213.83
  0
LINE
  8
0
 10
129.363
 20
-213.83
 11
129.482
 21
-214.045
  0
LINE
  8
0
 10
129.482
 20
-214.045
 11
129.577
 21
-214.273
  0
LINE
  8
0
 10
129.577
 20
-214.273
 11
129.645
 21
-214.51
  0
LINE
  8
0
 10
129.645
 20
-214.51
 11
129.686
 21
-214.754
  0
LINE
  8
0
 10
129.686
 20
-214.754
 11
129.7
 21
-215
  0
LINE
  8
0
 10
129.7
 20
-215
 11
129.686
 21
-215.246
  0
LINE
  8
0
 10
129.686
 20
-215.246
 11
129.645
 21
-215.49
  0
LINE
  8
0
 10
129.645
 20
-215.49
 11
129.577
 21
-215.727
  0
LINE
  8
0
 10
129.577
 20
-215.727
 11
129.482
 21
-215.955
  0
LINE
  8
0
 10
129.482
 20
-215.955
 11
129.363
 21
-216.17
  0
LINE
  8
0
 10
129.363
 20
-216.17
 11
129.22
 21
-216.372
  0
LINE
  8
0
 10
129.22
 20
-216.372
 11
129.056
 21
-216.556
  0
LINE
  8
0
 10
129.056
 20
-216.556
 11
128.872
 21
-216.72
  0
LINE
  8
0
 10
128.872
 20
-216.72
 11
128.67
 21
-216.863
  0
LINE
  8
0
 10
128.67
 20
-216.863
 11
128.455
 21
-216.982
  0
LINE
  8
0
 10
128.455
 20
-216.982
 11
128.227
 21
-217.077
  0
LINE
  8
0
 10
128.227
 20
-217.077
 11
127.99
 21
-217.145
  0
LINE
  8
0
 10
127.99
 20
-217.145
 11
127.746
 21
-217.186
  0
LINE
  8
0
 10
127.746
 20
-217.186
 11
127.5
 21
-217.2
  0
LINE
  8
0
 10
127.5
 20
-217.2
 11
127.254
 21
-217.186
  0
ENDSEC
  0
SECTION
  2
OBJECTS
  0
DICTIONARY
  0
ENDSEC
  0
EOF
