  0
SECTION
  2
BLOCKS
  0
ENDSEC
  0
SECTION
  2
ENTITIES
  0
LINE
  8
0
 10
194.223
 20
-179.975
 11
194.434
 21
-179.901
  0
LINE
  8
0
 10
194.434
 20
-179.901
 11
194.623
 21
-179.782
  0
LINE
  8
0
 10
194.623
 20
-179.782
 11
194.782
 21
-179.623
  0
LINE
  8
0
 10
194.782
 20
-179.623
 11
194.901
 21
-179.434
  0
LINE
  8
0
 10
194.901
 20
-179.434
 11
194.975
 21
-179.223
  0
LINE
  8
0
 10
194.975
 20
-179.223
 11
195
 21
-179
  0
LINE
  8
0
 10
195
 20
-179
 11
195
 21
179
  0
LINE
  8
0
 10
195
 20
179
 11
194.975
 21
179.223
  0
LINE
  8
0
 10
194.975
 20
179.223
 11
194.901
 21
179.434
  0
LINE
  8
0
 10
194.901
 20
179.434
 11
194.782
 21
179.623
  0
LINE
  8
0
 10
194.782
 20
179.623
 11
194.623
 21
179.782
  0
LINE
  8
0
 10
194.623
 20
179.782
 11
194.434
 21
179.901
  0
LINE
  8
0
 10
194.434
 20
179.901
 11
194.223
 21
179.975
  0
LINE
  8
0
 10
194.223
 20
179.975
 11
194
 21
180
  0
LINE
  8
0
 10
194
 20
180
 11
-194
 21
180
  0
LINE
  8
0
 10
-194
 20
180
 11
-194.223
 21
179.975
  0
LINE
  8
0
 10
-194.223
 20
179.975
 11
-194.434
 21
179.901
  0
LINE
  8
0
 10
-194.434
 20
179.901
 11
-194.623
 21
179.782
  0
LINE
  8
0
 10
-194.623
 20
179.782
 11
-194.782
 21
179.623
  0
LINE
  8
0
 10
-194.782
 20
179.623
 11
-194.901
 21
179.434
  0
LINE
  8
0
 10
-194.901
 20
179.434
 11
-194.975
 21
179.223
  0
LINE
  8
0
 10
-194.975
 20
179.223
 11
-195
 21
179
  0
LINE
  8
0
 10
-195
 20
179
 11
-195
 21
-179
  0
LINE
  8
0
 10
-195
 20
-179
 11
-194.975
 21
-179.223
  0
LINE
  8
0
 10
-194.975
 20
-179.223
 11
-194.901
 21
-179.434
  0
LINE
  8
0
 10
-194.901
 20
-179.434
 11
-194.782
 21
-179.623
  0
LINE
  8
0
 10
-194.782
 20
-179.623
 11
-194.623
 21
-179.782
  0
LINE
  8
0
 10
-194.623
 20
-179.782
 11
-194.434
 21
-179.901
  0
LINE
  8
0
 10
-194.434
 20
-179.901
 11
-194.223
 21
-179.975
  0
LINE
  8
0
 10
-194.223
 20
-179.975
 11
-194
 21
-180
  0
LINE
  8
0
 10
-194
 20
-180
 11
194
 21
-180
  0
LINE
  8
0
 10
194
 20
-180
 11
194.223
 21
-179.975
  0
LINE
  8
0
 10
-185.261
 20
167.514
 11
-185.52
 21
167.555
  0
LINE
  8
0
 10
-185.52
 20
167.555
 11
-185.773
 21
167.622
  0
LINE
  8
0
 10
-185.773
 20
167.622
 11
-186.017
 21
167.716
  0
LINE
  8
0
 10
-186.017
 20
167.716
 11
-186.25
 21
167.835
  0
LINE
  8
0
 10
-186.25
 20
167.835
 11
-186.469
 21
167.977
  0
LINE
  8
0
 10
-186.469
 20
167.977
 11
-186.673
 21
168.142
  0
LINE
  8
0
 10
-186.673
 20
168.142
 11
-186.858
 21
168.327
  0
LINE
  8
0
 10
-186.858
 20
168.327
 11
-187.023
 21
168.531
  0
LINE
  8
0
 10
-187.023
 20
168.531
 11
-187.165
 21
168.75
  0
LINE
  8
0
 10
-187.165
 20
168.75
 11
-187.284
 21
168.983
  0
LINE
  8
0
 10
-187.284
 20
168.983
 11
-187.378
 21
169.227
  0
LINE
  8
0
 10
-187.378
 20
169.227
 11
-187.445
 21
169.48
  0
LINE
  8
0
 10
-187.445
 20
169.48
 11
-187.486
 21
169.739
  0
LINE
  8
0
 10
-187.486
 20
169.739
 11
-187.5
 21
170
  0
LINE
  8
0
 10
-187.5
 20
170
 11
-187.486
 21
170.261
  0
LINE
  8
0
 10
-187.486
 20
170.261
 11
-187.445
 21
170.52
  0
LINE
  8
0
 10
-187.445
 20
170.52
 11
-187.378
 21
170.773
  0
LINE
  8
0
 10
-187.378
 20
170.773
 11
-187.284
 21
171.017
  0
LINE
  8
0
 10
-187.284
 20
171.017
 11
-187.165
 21
171.25
  0
LINE
  8
0
 10
-187.165
 20
171.25
 11
-187.023
 21
171.469
  0
LINE
  8
0
 10
-187.023
 20
171.469
 11
-186.858
 21
171.673
  0
LINE
  8
0
 10
-186.858
 20
171.673
 11
-186.673
 21
171.858
  0
LINE
  8
0
 10
-186.673
 20
171.858
 11
-186.469
 21
172.023
  0
LINE
  8
0
 10
-186.469
 20
172.023
 11
-186.25
 21
172.165
  0
LINE
  8
0
 10
-186.25
 20
172.165
 11
-186.017
 21
172.284
  0
LINE
  8
0
 10
-186.017
 20
172.284
 11
-185.773
 21
172.378
  0
LINE
  8
0
 10
-185.773
 20
172.378
 11
-185.52
 21
172.445
  0
LINE
  8
0
 10
-185.52
 20
172.445
 11
-185.261
 21
172.486
  0
LINE
  8
0
 10
-185.261
 20
172.486
 11
-185
 21
172.5
  0
LINE
  8
0
 10
-185
 20
172.5
 11
-184.739
 21
172.486
  0
LINE
  8
0
 10
-184.739
 20
172.486
 11
-184.48
 21
172.445
  0
LINE
  8
0
 10
-184.48
 20
172.445
 11
-184.227
 21
172.378
  0
LINE
  8
0
 10
-184.227
 20
172.378
 11
-183.983
 21
172.284
  0
LINE
  8
0
 10
-183.983
 20
172.284
 11
-183.75
 21
172.165
  0
LINE
  8
0
 10
-183.75
 20
172.165
 11
-183.531
 21
172.023
  0
LINE
  8
0
 10
-183.531
 20
172.023
 11
-183.327
 21
171.858
  0
LINE
  8
0
 10
-183.327
 20
171.858
 11
-183.142
 21
171.673
  0
LINE
  8
0
 10
-183.142
 20
171.673
 11
-182.977
 21
171.469
  0
LINE
  8
0
 10
-182.977
 20
171.469
 11
-182.835
 21
171.25
  0
LINE
  8
0
 10
-182.835
 20
171.25
 11
-182.716
 21
171.017
  0
LINE
  8
0
 10
-182.716
 20
171.017
 11
-182.622
 21
170.773
  0
LINE
  8
0
 10
-182.622
 20
170.773
 11
-182.555
 21
170.52
  0
LINE
  8
0
 10
-182.555
 20
170.52
 11
-182.514
 21
170.261
  0
LINE
  8
0
 10
-182.514
 20
170.261
 11
-182.5
 21
170
  0
LINE
  8
0
 10
-182.5
 20
170
 11
-182.514
 21
169.739
  0
LINE
  8
0
 10
-182.514
 20
169.739
 11
-182.555
 21
169.48
  0
LINE
  8
0
 10
-182.555
 20
169.48
 11
-182.622
 21
169.227
  0
LINE
  8
0
 10
-182.622
 20
169.227
 11
-182.716
 21
168.983
  0
LINE
  8
0
 10
-182.716
 20
168.983
 11
-182.835
 21
168.75
  0
LINE
  8
0
 10
-182.835
 20
168.75
 11
-182.977
 21
168.531
  0
LINE
  8
0
 10
-182.977
 20
168.531
 11
-183.142
 21
168.327
  0
LINE
  8
0
 10
-183.142
 20
168.327
 11
-183.327
 21
168.142
  0
LINE
  8
0
 10
-183.327
 20
168.142
 11
-183.531
 21
167.977
  0
LINE
  8
0
 10
-183.531
 20
167.977
 11
-183.75
 21
167.835
  0
LINE
  8
0
 10
-183.75
 20
167.835
 11
-183.983
 21
167.716
  0
LINE
  8
0
 10
-183.983
 20
167.716
 11
-184.227
 21
167.622
  0
LINE
  8
0
 10
-184.227
 20
167.622
 11
-184.48
 21
167.555
  0
LINE
  8
0
 10
-184.48
 20
167.555
 11
-184.739
 21
167.514
  0
LINE
  8
0
 10
-184.739
 20
167.514
 11
-185
 21
167.5
  0
LINE
  8
0
 10
-185
 20
167.5
 11
-185.261
 21
167.514
  0
LINE
  8
0
 10
184.739
 20
167.514
 11
184.48
 21
167.555
  0
LINE
  8
0
 10
184.48
 20
167.555
 11
184.227
 21
167.622
  0
LINE
  8
0
 10
184.227
 20
167.622
 11
183.983
 21
167.716
  0
LINE
  8
0
 10
183.983
 20
167.716
 11
183.75
 21
167.835
  0
LINE
  8
0
 10
183.75
 20
167.835
 11
183.531
 21
167.977
  0
LINE
  8
0
 10
183.531
 20
167.977
 11
183.327
 21
168.142
  0
LINE
  8
0
 10
183.327
 20
168.142
 11
183.142
 21
168.327
  0
LINE
  8
0
 10
183.142
 20
168.327
 11
182.977
 21
168.531
  0
LINE
  8
0
 10
182.977
 20
168.531
 11
182.835
 21
168.75
  0
LINE
  8
0
 10
182.835
 20
168.75
 11
182.716
 21
168.983
  0
LINE
  8
0
 10
182.716
 20
168.983
 11
182.622
 21
169.227
  0
LINE
  8
0
 10
182.622
 20
169.227
 11
182.555
 21
169.48
  0
LINE
  8
0
 10
182.555
 20
169.48
 11
182.514
 21
169.739
  0
LINE
  8
0
 10
182.514
 20
169.739
 11
182.5
 21
170
  0
LINE
  8
0
 10
182.5
 20
170
 11
182.514
 21
170.261
  0
LINE
  8
0
 10
182.514
 20
170.261
 11
182.555
 21
170.52
  0
LINE
  8
0
 10
182.555
 20
170.52
 11
182.622
 21
170.773
  0
LINE
  8
0
 10
182.622
 20
170.773
 11
182.716
 21
171.017
  0
LINE
  8
0
 10
182.716
 20
171.017
 11
182.835
 21
171.25
  0
LINE
  8
0
 10
182.835
 20
171.25
 11
182.977
 21
171.469
  0
LINE
  8
0
 10
182.977
 20
171.469
 11
183.142
 21
171.673
  0
LINE
  8
0
 10
183.142
 20
171.673
 11
183.327
 21
171.858
  0
LINE
  8
0
 10
183.327
 20
171.858
 11
183.531
 21
172.023
  0
LINE
  8
0
 10
183.531
 20
172.023
 11
183.75
 21
172.165
  0
LINE
  8
0
 10
183.75
 20
172.165
 11
183.983
 21
172.284
  0
LINE
  8
0
 10
183.983
 20
172.284
 11
184.227
 21
172.378
  0
LINE
  8
0
 10
184.227
 20
172.378
 11
184.48
 21
172.445
  0
LINE
  8
0
 10
184.48
 20
172.445
 11
184.739
 21
172.486
  0
LINE
  8
0
 10
184.739
 20
172.486
 11
185
 21
172.5
  0
LINE
  8
0
 10
185
 20
172.5
 11
185.261
 21
172.486
  0
LINE
  8
0
 10
185.261
 20
172.486
 11
185.52
 21
172.445
  0
LINE
  8
0
 10
185.52
 20
172.445
 11
185.773
 21
172.378
  0
LINE
  8
0
 10
185.773
 20
172.378
 11
186.017
 21
172.284
  0
LINE
  8
0
 10
186.017
 20
172.284
 11
186.25
 21
172.165
  0
LINE
  8
0
 10
186.25
 20
172.165
 11
186.469
 21
172.023
  0
LINE
  8
0
 10
186.469
 20
172.023
 11
186.673
 21
171.858
  0
LINE
  8
0
 10
186.673
 20
171.858
 11
186.858
 21
171.673
  0
LINE
  8
0
 10
186.858
 20
171.673
 11
187.023
 21
171.469
  0
LINE
  8
0
 10
187.023
 20
171.469
 11
187.165
 21
171.25
  0
LINE
  8
0
 10
187.165
 20
171.25
 11
187.284
 21
171.017
  0
LINE
  8
0
 10
187.284
 20
171.017
 11
187.378
 21
170.773
  0
LINE
  8
0
 10
187.378
 20
170.773
 11
187.445
 21
170.52
  0
LINE
  8
0
 10
187.445
 20
170.52
 11
187.486
 21
170.261
  0
LINE
  8
0
 10
187.486
 20
170.261
 11
187.5
 21
170
  0
LINE
  8
0
 10
187.5
 20
170
 11
187.486
 21
169.739
  0
LINE
  8
0
 10
187.486
 20
169.739
 11
187.445
 21
169.48
  0
LINE
  8
0
 10
187.445
 20
169.48
 11
187.378
 21
169.227
  0
LINE
  8
0
 10
187.378
 20
169.227
 11
187.284
 21
168.983
  0
LINE
  8
0
 10
187.284
 20
168.983
 11
187.165
 21
168.75
  0
LINE
  8
0
 10
187.165
 20
168.75
 11
187.023
 21
168.531
  0
LINE
  8
0
 10
187.023
 20
168.531
 11
186.858
 21
168.327
  0
LINE
  8
0
 10
186.858
 20
168.327
 11
186.673
 21
168.142
  0
LINE
  8
0
 10
186.673
 20
168.142
 11
186.469
 21
167.977
  0
LINE
  8
0
 10
186.469
 20
167.977
 11
186.25
 21
167.835
  0
LINE
  8
0
 10
186.25
 20
167.835
 11
186.017
 21
167.716
  0
LINE
  8
0
 10
186.017
 20
167.716
 11
185.773
 21
167.622
  0
LINE
  8
0
 10
185.773
 20
167.622
 11
185.52
 21
167.555
  0
LINE
  8
0
 10
185.52
 20
167.555
 11
185.261
 21
167.514
  0
LINE
  8
0
 10
185.261
 20
167.514
 11
185
 21
167.5
  0
LINE
  8
0
 10
185
 20
167.5
 11
184.739
 21
167.514
  0
LINE
  8
0
 10
-155.246
 20
167.814
 11
-155.49
 21
167.855
  0
LINE
  8
0
 10
-155.49
 20
167.855
 11
-155.727
 21
167.923
  0
LINE
  8
0
 10
-155.727
 20
167.923
 11
-155.955
 21
168.018
  0
LINE
  8
0
 10
-155.955
 20
168.018
 11
-156.17
 21
168.137
  0
LINE
  8
0
 10
-156.17
 20
168.137
 11
-156.372
 21
168.28
  0
LINE
  8
0
 10
-156.372
 20
168.28
 11
-156.556
 21
168.444
  0
LINE
  8
0
 10
-156.556
 20
168.444
 11
-156.72
 21
168.628
  0
LINE
  8
0
 10
-156.72
 20
168.628
 11
-156.863
 21
168.83
  0
LINE
  8
0
 10
-156.863
 20
168.83
 11
-156.982
 21
169.045
  0
LINE
  8
0
 10
-156.982
 20
169.045
 11
-157.077
 21
169.273
  0
LINE
  8
0
 10
-157.077
 20
169.273
 11
-157.145
 21
169.51
  0
LINE
  8
0
 10
-157.145
 20
169.51
 11
-157.186
 21
169.754
  0
LINE
  8
0
 10
-157.186
 20
169.754
 11
-157.2
 21
170
  0
LINE
  8
0
 10
-157.2
 20
170
 11
-157.186
 21
170.246
  0
LINE
  8
0
 10
-157.186
 20
170.246
 11
-157.145
 21
170.49
  0
LINE
  8
0
 10
-157.145
 20
170.49
 11
-157.077
 21
170.727
  0
LINE
  8
0
 10
-157.077
 20
170.727
 11
-156.982
 21
170.955
  0
LINE
  8
0
 10
-156.982
 20
170.955
 11
-156.863
 21
171.17
  0
LINE
  8
0
 10
-156.863
 20
171.17
 11
-156.72
 21
171.372
  0
LINE
  8
0
 10
-156.72
 20
171.372
 11
-156.556
 21
171.556
  0
LINE
  8
0
 10
-156.556
 20
171.556
 11
-156.372
 21
171.72
  0
LINE
  8
0
 10
-156.372
 20
171.72
 11
-156.17
 21
171.863
  0
LINE
  8
0
 10
-156.17
 20
171.863
 11
-155.955
 21
171.982
  0
LINE
  8
0
 10
-155.955
 20
171.982
 11
-155.727
 21
172.077
  0
LINE
  8
0
 10
-155.727
 20
172.077
 11
-155.49
 21
172.145
  0
LINE
  8
0
 10
-155.49
 20
172.145
 11
-155.246
 21
172.186
  0
LINE
  8
0
 10
-155.246
 20
172.186
 11
-155
 21
172.2
  0
LINE
  8
0
 10
-155
 20
172.2
 11
-154.754
 21
172.186
  0
LINE
  8
0
 10
-154.754
 20
172.186
 11
-154.51
 21
172.145
  0
LINE
  8
0
 10
-154.51
 20
172.145
 11
-154.273
 21
172.077
  0
LINE
  8
0
 10
-154.273
 20
172.077
 11
-154.045
 21
171.982
  0
LINE
  8
0
 10
-154.045
 20
171.982
 11
-153.83
 21
171.863
  0
LINE
  8
0
 10
-153.83
 20
171.863
 11
-153.628
 21
171.72
  0
LINE
  8
0
 10
-153.628
 20
171.72
 11
-153.444
 21
171.556
  0
LINE
  8
0
 10
-153.444
 20
171.556
 11
-153.28
 21
171.372
  0
LINE
  8
0
 10
-153.28
 20
171.372
 11
-153.137
 21
171.17
  0
LINE
  8
0
 10
-153.137
 20
171.17
 11
-153.018
 21
170.955
  0
LINE
  8
0
 10
-153.018
 20
170.955
 11
-152.923
 21
170.727
  0
LINE
  8
0
 10
-152.923
 20
170.727
 11
-152.855
 21
170.49
  0
LINE
  8
0
 10
-152.855
 20
170.49
 11
-152.814
 21
170.246
  0
LINE
  8
0
 10
-152.814
 20
170.246
 11
-152.8
 21
170
  0
LINE
  8
0
 10
-152.8
 20
170
 11
-152.814
 21
169.754
  0
LINE
  8
0
 10
-152.814
 20
169.754
 11
-152.855
 21
169.51
  0
LINE
  8
0
 10
-152.855
 20
169.51
 11
-152.923
 21
169.273
  0
LINE
  8
0
 10
-152.923
 20
169.273
 11
-153.018
 21
169.045
  0
LINE
  8
0
 10
-153.018
 20
169.045
 11
-153.137
 21
168.83
  0
LINE
  8
0
 10
-153.137
 20
168.83
 11
-153.28
 21
168.628
  0
LINE
  8
0
 10
-153.28
 20
168.628
 11
-153.444
 21
168.444
  0
LINE
  8
0
 10
-153.444
 20
168.444
 11
-153.628
 21
168.28
  0
LINE
  8
0
 10
-153.628
 20
168.28
 11
-153.83
 21
168.137
  0
LINE
  8
0
 10
-153.83
 20
168.137
 11
-154.045
 21
168.018
  0
LINE
  8
0
 10
-154.045
 20
168.018
 11
-154.273
 21
167.923
  0
LINE
  8
0
 10
-154.273
 20
167.923
 11
-154.51
 21
167.855
  0
LINE
  8
0
 10
-154.51
 20
167.855
 11
-154.754
 21
167.814
  0
LINE
  8
0
 10
-154.754
 20
167.814
 11
-155
 21
167.8
  0
LINE
  8
0
 10
-155
 20
167.8
 11
-155.246
 21
167.814
  0
LINE
  8
0
 10
9.75368
 20
167.814
 11
9.51045
 21
167.855
  0
LINE
  8
0
 10
9.51045
 20
167.855
 11
9.27338
 21
167.923
  0
LINE
  8
0
 10
9.27338
 20
167.923
 11
9.04544
 21
168.018
  0
LINE
  8
0
 10
9.04544
 20
168.018
 11
8.82953
 21
168.137
  0
LINE
  8
0
 10
8.82953
 20
168.137
 11
8.62831
 21
168.28
  0
LINE
  8
0
 10
8.62831
 20
168.28
 11
8.44435
 21
168.444
  0
LINE
  8
0
 10
8.44435
 20
168.444
 11
8.27997
 21
168.628
  0
LINE
  8
0
 10
8.27997
 20
168.628
 11
8.13719
 21
168.83
  0
LINE
  8
0
 10
8.13719
 20
168.83
 11
8.01787
 21
169.045
  0
LINE
  8
0
 10
8.01787
 20
169.045
 11
7.92345
 21
169.273
  0
LINE
  8
0
 10
7.92345
 20
169.273
 11
7.85515
 21
169.51
  0
LINE
  8
0
 10
7.85515
 20
169.51
 11
7.81383
 21
169.754
  0
LINE
  8
0
 10
7.81383
 20
169.754
 11
7.79999
 21
170
  0
LINE
  8
0
 10
7.79999
 20
170
 11
7.81383
 21
170.246
  0
LINE
  8
0
 10
7.81383
 20
170.246
 11
7.85515
 21
170.49
  0
LINE
  8
0
 10
7.85515
 20
170.49
 11
7.92345
 21
170.727
  0
LINE
  8
0
 10
7.92345
 20
170.727
 11
8.01787
 21
170.955
  0
LINE
  8
0
 10
8.01787
 20
170.955
 11
8.13719
 21
171.17
  0
LINE
  8
0
 10
8.13719
 20
171.17
 11
8.27997
 21
171.372
  0
LINE
  8
0
 10
8.27997
 20
171.372
 11
8.44435
 21
171.556
  0
LINE
  8
0
 10
8.44435
 20
171.556
 11
8.62831
 21
171.72
  0
LINE
  8
0
 10
8.62831
 20
171.72
 11
8.82953
 21
171.863
  0
LINE
  8
0
 10
8.82953
 20
171.863
 11
9.04544
 21
171.982
  0
LINE
  8
0
 10
9.04544
 20
171.982
 11
9.27338
 21
172.077
  0
LINE
  8
0
 10
9.27338
 20
172.077
 11
9.51045
 21
172.145
  0
LINE
  8
0
 10
9.51045
 20
172.145
 11
9.75368
 21
172.186
  0
LINE
  8
0
 10
9.75368
 20
172.186
 11
10
 21
172.2
  0
LINE
  8
0
 10
10
 20
172.2
 11
10.2463
 21
172.186
  0
LINE
  8
0
 10
10.2463
 20
172.186
 11
10.4895
 21
172.145
  0
LINE
  8
0
 10
10.4895
 20
172.145
 11
10.7266
 21
172.077
  0
LINE
  8
0
 10
10.7266
 20
172.077
 11
10.9545
 21
171.982
  0
LINE
  8
0
 10
10.9545
 20
171.982
 11
11.1705
 21
171.863
  0
LINE
  8
0
 10
11.1705
 20
171.863
 11
11.3717
 21
171.72
  0
LINE
  8
0
 10
11.3717
 20
171.72
 11
11.5556
 21
171.556
  0
LINE
  8
0
 10
11.5556
 20
171.556
 11
11.72
 21
171.372
  0
LINE
  8
0
 10
11.72
 20
171.372
 11
11.8628
 21
171.17
  0
LINE
  8
0
 10
11.8628
 20
171.17
 11
11.9821
 21
170.955
  0
LINE
  8
0
 10
11.9821
 20
170.955
 11
12.0765
 21
170.727
  0
LINE
  8
0
 10
12.0765
 20
170.727
 11
12.1448
 21
170.49
  0
LINE
  8
0
 10
12.1448
 20
170.49
 11
12.1862
 21
170.246
  0
LINE
  8
0
 10
12.1862
 20
170.246
 11
12.2
 21
170
  0
LINE
  8
0
 10
12.2
 20
170
 11
12.1862
 21
169.754
  0
LINE
  8
0
 10
12.1862
 20
169.754
 11
12.1448
 21
169.51
  0
LINE
  8
0
 10
12.1448
 20
169.51
 11
12.0765
 21
169.273
  0
LINE
  8
0
 10
12.0765
 20
169.273
 11
11.9821
 21
169.045
  0
LINE
  8
0
 10
11.9821
 20
169.045
 11
11.8628
 21
168.83
  0
LINE
  8
0
 10
11.8628
 20
168.83
 11
11.72
 21
168.628
  0
LINE
  8
0
 10
11.72
 20
168.628
 11
11.5556
 21
168.444
  0
LINE
  8
0
 10
11.5556
 20
168.444
 11
11.3717
 21
168.28
  0
LINE
  8
0
 10
11.3717
 20
168.28
 11
11.1705
 21
168.137
  0
LINE
  8
0
 10
11.1705
 20
168.137
 11
10.9545
 21
168.018
  0
LINE
  8
0
 10
10.9545
 20
168.018
 11
10.7266
 21
167.923
  0
LINE
  8
0
 10
10.7266
 20
167.923
 11
10.4895
 21
167.855
  0
LINE
  8
0
 10
10.4895
 20
167.855
 11
10.2463
 21
167.814
  0
LINE
  8
0
 10
10.2463
 20
167.814
 11
10
 21
167.8
  0
LINE
  8
0
 10
10
 20
167.8
 11
9.75368
 21
167.814
  0
LINE
  8
0
 10
154.754
 20
167.814
 11
154.51
 21
167.855
  0
LINE
  8
0
 10
154.51
 20
167.855
 11
154.273
 21
167.923
  0
LINE
  8
0
 10
154.273
 20
167.923
 11
154.045
 21
168.018
  0
LINE
  8
0
 10
154.045
 20
168.018
 11
153.83
 21
168.137
  0
LINE
  8
0
 10
153.83
 20
168.137
 11
153.628
 21
168.28
  0
LINE
  8
0
 10
153.628
 20
168.28
 11
153.444
 21
168.444
  0
LINE
  8
0
 10
153.444
 20
168.444
 11
153.28
 21
168.628
  0
LINE
  8
0
 10
153.28
 20
168.628
 11
153.137
 21
168.83
  0
LINE
  8
0
 10
153.137
 20
168.83
 11
153.018
 21
169.045
  0
LINE
  8
0
 10
153.018
 20
169.045
 11
152.923
 21
169.273
  0
LINE
  8
0
 10
152.923
 20
169.273
 11
152.855
 21
169.51
  0
LINE
  8
0
 10
152.855
 20
169.51
 11
152.814
 21
169.754
  0
LINE
  8
0
 10
152.814
 20
169.754
 11
152.8
 21
170
  0
LINE
  8
0
 10
152.8
 20
170
 11
152.814
 21
170.246
  0
LINE
  8
0
 10
152.814
 20
170.246
 11
152.855
 21
170.49
  0
LINE
  8
0
 10
152.855
 20
170.49
 11
152.923
 21
170.727
  0
LINE
  8
0
 10
152.923
 20
170.727
 11
153.018
 21
170.955
  0
LINE
  8
0
 10
153.018
 20
170.955
 11
153.137
 21
171.17
  0
LINE
  8
0
 10
153.137
 20
171.17
 11
153.28
 21
171.372
  0
LINE
  8
0
 10
153.28
 20
171.372
 11
153.444
 21
171.556
  0
LINE
  8
0
 10
153.444
 20
171.556
 11
153.628
 21
171.72
  0
LINE
  8
0
 10
153.628
 20
171.72
 11
153.83
 21
171.863
  0
LINE
  8
0
 10
153.83
 20
171.863
 11
154.045
 21
171.982
  0
LINE
  8
0
 10
154.045
 20
171.982
 11
154.273
 21
172.077
  0
LINE
  8
0
 10
154.273
 20
172.077
 11
154.51
 21
172.145
  0
LINE
  8
0
 10
154.51
 20
172.145
 11
154.754
 21
172.186
  0
LINE
  8
0
 10
154.754
 20
172.186
 11
155
 21
172.2
  0
LINE
  8
0
 10
155
 20
172.2
 11
155.246
 21
172.186
  0
LINE
  8
0
 10
155.246
 20
172.186
 11
155.49
 21
172.145
  0
LINE
  8
0
 10
155.49
 20
172.145
 11
155.727
 21
172.077
  0
LINE
  8
0
 10
155.727
 20
172.077
 11
155.955
 21
171.982
  0
LINE
  8
0
 10
155.955
 20
171.982
 11
156.17
 21
171.863
  0
LINE
  8
0
 10
156.17
 20
171.863
 11
156.372
 21
171.72
  0
LINE
  8
0
 10
156.372
 20
171.72
 11
156.556
 21
171.556
  0
LINE
  8
0
 10
156.556
 20
171.556
 11
156.72
 21
171.372
  0
LINE
  8
0
 10
156.72
 20
171.372
 11
156.863
 21
171.17
  0
LINE
  8
0
 10
156.863
 20
171.17
 11
156.982
 21
170.955
  0
LINE
  8
0
 10
156.982
 20
170.955
 11
157.077
 21
170.727
  0
LINE
  8
0
 10
157.077
 20
170.727
 11
157.145
 21
170.49
  0
LINE
  8
0
 10
157.145
 20
170.49
 11
157.186
 21
170.246
  0
LINE
  8
0
 10
157.186
 20
170.246
 11
157.2
 21
170
  0
LINE
  8
0
 10
157.2
 20
170
 11
157.186
 21
169.754
  0
LINE
  8
0
 10
157.186
 20
169.754
 11
157.145
 21
169.51
  0
LINE
  8
0
 10
157.145
 20
169.51
 11
157.077
 21
169.273
  0
LINE
  8
0
 10
157.077
 20
169.273
 11
156.982
 21
169.045
  0
LINE
  8
0
 10
156.982
 20
169.045
 11
156.863
 21
168.83
  0
LINE
  8
0
 10
156.863
 20
168.83
 11
156.72
 21
168.628
  0
LINE
  8
0
 10
156.72
 20
168.628
 11
156.556
 21
168.444
  0
LINE
  8
0
 10
156.556
 20
168.444
 11
156.372
 21
168.28
  0
LINE
  8
0
 10
156.372
 20
168.28
 11
156.17
 21
168.137
  0
LINE
  8
0
 10
156.17
 20
168.137
 11
155.955
 21
168.018
  0
LINE
  8
0
 10
155.955
 20
168.018
 11
155.727
 21
167.923
  0
LINE
  8
0
 10
155.727
 20
167.923
 11
155.49
 21
167.855
  0
LINE
  8
0
 10
155.49
 20
167.855
 11
155.246
 21
167.814
  0
LINE
  8
0
 10
155.246
 20
167.814
 11
155
 21
167.8
  0
LINE
  8
0
 10
155
 20
167.8
 11
154.754
 21
167.814
  0
LINE
  8
0
 10
-185.246
 20
157.814
 11
-185.49
 21
157.855
  0
LINE
  8
0
 10
-185.49
 20
157.855
 11
-185.727
 21
157.923
  0
LINE
  8
0
 10
-185.727
 20
157.923
 11
-185.955
 21
158.018
  0
LINE
  8
0
 10
-185.955
 20
158.018
 11
-186.17
 21
158.137
  0
LINE
  8
0
 10
-186.17
 20
158.137
 11
-186.372
 21
158.28
  0
LINE
  8
0
 10
-186.372
 20
158.28
 11
-186.556
 21
158.444
  0
LINE
  8
0
 10
-186.556
 20
158.444
 11
-186.72
 21
158.628
  0
LINE
  8
0
 10
-186.72
 20
158.628
 11
-186.863
 21
158.83
  0
LINE
  8
0
 10
-186.863
 20
158.83
 11
-186.982
 21
159.045
  0
LINE
  8
0
 10
-186.982
 20
159.045
 11
-187.077
 21
159.273
  0
LINE
  8
0
 10
-187.077
 20
159.273
 11
-187.145
 21
159.51
  0
LINE
  8
0
 10
-187.145
 20
159.51
 11
-187.186
 21
159.754
  0
LINE
  8
0
 10
-187.186
 20
159.754
 11
-187.2
 21
160
  0
LINE
  8
0
 10
-187.2
 20
160
 11
-187.186
 21
160.246
  0
LINE
  8
0
 10
-187.186
 20
160.246
 11
-187.145
 21
160.49
  0
LINE
  8
0
 10
-187.145
 20
160.49
 11
-187.077
 21
160.727
  0
LINE
  8
0
 10
-187.077
 20
160.727
 11
-186.982
 21
160.955
  0
LINE
  8
0
 10
-186.982
 20
160.955
 11
-186.863
 21
161.17
  0
LINE
  8
0
 10
-186.863
 20
161.17
 11
-186.72
 21
161.372
  0
LINE
  8
0
 10
-186.72
 20
161.372
 11
-186.556
 21
161.556
  0
LINE
  8
0
 10
-186.556
 20
161.556
 11
-186.372
 21
161.72
  0
LINE
  8
0
 10
-186.372
 20
161.72
 11
-186.17
 21
161.863
  0
LINE
  8
0
 10
-186.17
 20
161.863
 11
-185.955
 21
161.982
  0
LINE
  8
0
 10
-185.955
 20
161.982
 11
-185.727
 21
162.077
  0
LINE
  8
0
 10
-185.727
 20
162.077
 11
-185.49
 21
162.145
  0
LINE
  8
0
 10
-185.49
 20
162.145
 11
-185.246
 21
162.186
  0
LINE
  8
0
 10
-185.246
 20
162.186
 11
-185
 21
162.2
  0
LINE
  8
0
 10
-185
 20
162.2
 11
-184.754
 21
162.186
  0
LINE
  8
0
 10
-184.754
 20
162.186
 11
-184.51
 21
162.145
  0
LINE
  8
0
 10
-184.51
 20
162.145
 11
-184.273
 21
162.077
  0
LINE
  8
0
 10
-184.273
 20
162.077
 11
-184.045
 21
161.982
  0
LINE
  8
0
 10
-184.045
 20
161.982
 11
-183.83
 21
161.863
  0
LINE
  8
0
 10
-183.83
 20
161.863
 11
-183.628
 21
161.72
  0
LINE
  8
0
 10
-183.628
 20
161.72
 11
-183.444
 21
161.556
  0
LINE
  8
0
 10
-183.444
 20
161.556
 11
-183.28
 21
161.372
  0
LINE
  8
0
 10
-183.28
 20
161.372
 11
-183.137
 21
161.17
  0
LINE
  8
0
 10
-183.137
 20
161.17
 11
-183.018
 21
160.955
  0
LINE
  8
0
 10
-183.018
 20
160.955
 11
-182.923
 21
160.727
  0
LINE
  8
0
 10
-182.923
 20
160.727
 11
-182.855
 21
160.49
  0
LINE
  8
0
 10
-182.855
 20
160.49
 11
-182.814
 21
160.246
  0
LINE
  8
0
 10
-182.814
 20
160.246
 11
-182.8
 21
160
  0
LINE
  8
0
 10
-182.8
 20
160
 11
-182.814
 21
159.754
  0
LINE
  8
0
 10
-182.814
 20
159.754
 11
-182.855
 21
159.51
  0
LINE
  8
0
 10
-182.855
 20
159.51
 11
-182.923
 21
159.273
  0
LINE
  8
0
 10
-182.923
 20
159.273
 11
-183.018
 21
159.045
  0
LINE
  8
0
 10
-183.018
 20
159.045
 11
-183.137
 21
158.83
  0
LINE
  8
0
 10
-183.137
 20
158.83
 11
-183.28
 21
158.628
  0
LINE
  8
0
 10
-183.28
 20
158.628
 11
-183.444
 21
158.444
  0
LINE
  8
0
 10
-183.444
 20
158.444
 11
-183.628
 21
158.28
  0
LINE
  8
0
 10
-183.628
 20
158.28
 11
-183.83
 21
158.137
  0
LINE
  8
0
 10
-183.83
 20
158.137
 11
-184.045
 21
158.018
  0
LINE
  8
0
 10
-184.045
 20
158.018
 11
-184.273
 21
157.923
  0
LINE
  8
0
 10
-184.273
 20
157.923
 11
-184.51
 21
157.855
  0
LINE
  8
0
 10
-184.51
 20
157.855
 11
-184.754
 21
157.814
  0
LINE
  8
0
 10
-184.754
 20
157.814
 11
-185
 21
157.8
  0
LINE
  8
0
 10
-185
 20
157.8
 11
-185.246
 21
157.814
  0
LINE
  8
0
 10
184.754
 20
157.814
 11
184.51
 21
157.855
  0
LINE
  8
0
 10
184.51
 20
157.855
 11
184.273
 21
157.923
  0
LINE
  8
0
 10
184.273
 20
157.923
 11
184.045
 21
158.018
  0
LINE
  8
0
 10
184.045
 20
158.018
 11
183.83
 21
158.137
  0
LINE
  8
0
 10
183.83
 20
158.137
 11
183.628
 21
158.28
  0
LINE
  8
0
 10
183.628
 20
158.28
 11
183.444
 21
158.444
  0
LINE
  8
0
 10
183.444
 20
158.444
 11
183.28
 21
158.628
  0
LINE
  8
0
 10
183.28
 20
158.628
 11
183.137
 21
158.83
  0
LINE
  8
0
 10
183.137
 20
158.83
 11
183.018
 21
159.045
  0
LINE
  8
0
 10
183.018
 20
159.045
 11
182.923
 21
159.273
  0
LINE
  8
0
 10
182.923
 20
159.273
 11
182.855
 21
159.51
  0
LINE
  8
0
 10
182.855
 20
159.51
 11
182.814
 21
159.754
  0
LINE
  8
0
 10
182.814
 20
159.754
 11
182.8
 21
160
  0
LINE
  8
0
 10
182.8
 20
160
 11
182.814
 21
160.246
  0
LINE
  8
0
 10
182.814
 20
160.246
 11
182.855
 21
160.49
  0
LINE
  8
0
 10
182.855
 20
160.49
 11
182.923
 21
160.727
  0
LINE
  8
0
 10
182.923
 20
160.727
 11
183.018
 21
160.955
  0
LINE
  8
0
 10
183.018
 20
160.955
 11
183.137
 21
161.17
  0
LINE
  8
0
 10
183.137
 20
161.17
 11
183.28
 21
161.372
  0
LINE
  8
0
 10
183.28
 20
161.372
 11
183.444
 21
161.556
  0
LINE
  8
0
 10
183.444
 20
161.556
 11
183.628
 21
161.72
  0
LINE
  8
0
 10
183.628
 20
161.72
 11
183.83
 21
161.863
  0
LINE
  8
0
 10
183.83
 20
161.863
 11
184.045
 21
161.982
  0
LINE
  8
0
 10
184.045
 20
161.982
 11
184.273
 21
162.077
  0
LINE
  8
0
 10
184.273
 20
162.077
 11
184.51
 21
162.145
  0
LINE
  8
0
 10
184.51
 20
162.145
 11
184.754
 21
162.186
  0
LINE
  8
0
 10
184.754
 20
162.186
 11
185
 21
162.2
  0
LINE
  8
0
 10
185
 20
162.2
 11
185.246
 21
162.186
  0
LINE
  8
0
 10
185.246
 20
162.186
 11
185.49
 21
162.145
  0
LINE
  8
0
 10
185.49
 20
162.145
 11
185.727
 21
162.077
  0
LINE
  8
0
 10
185.727
 20
162.077
 11
185.955
 21
161.982
  0
LINE
  8
0
 10
185.955
 20
161.982
 11
186.17
 21
161.863
  0
LINE
  8
0
 10
186.17
 20
161.863
 11
186.372
 21
161.72
  0
LINE
  8
0
 10
186.372
 20
161.72
 11
186.556
 21
161.556
  0
LINE
  8
0
 10
186.556
 20
161.556
 11
186.72
 21
161.372
  0
LINE
  8
0
 10
186.72
 20
161.372
 11
186.863
 21
161.17
  0
LINE
  8
0
 10
186.863
 20
161.17
 11
186.982
 21
160.955
  0
LINE
  8
0
 10
186.982
 20
160.955
 11
187.077
 21
160.727
  0
LINE
  8
0
 10
187.077
 20
160.727
 11
187.145
 21
160.49
  0
LINE
  8
0
 10
187.145
 20
160.49
 11
187.186
 21
160.246
  0
LINE
  8
0
 10
187.186
 20
160.246
 11
187.2
 21
160
  0
LINE
  8
0
 10
187.2
 20
160
 11
187.186
 21
159.754
  0
LINE
  8
0
 10
187.186
 20
159.754
 11
187.145
 21
159.51
  0
LINE
  8
0
 10
187.145
 20
159.51
 11
187.077
 21
159.273
  0
LINE
  8
0
 10
187.077
 20
159.273
 11
186.982
 21
159.045
  0
LINE
  8
0
 10
186.982
 20
159.045
 11
186.863
 21
158.83
  0
LINE
  8
0
 10
186.863
 20
158.83
 11
186.72
 21
158.628
  0
LINE
  8
0
 10
186.72
 20
158.628
 11
186.556
 21
158.444
  0
LINE
  8
0
 10
186.556
 20
158.444
 11
186.372
 21
158.28
  0
LINE
  8
0
 10
186.372
 20
158.28
 11
186.17
 21
158.137
  0
LINE
  8
0
 10
186.17
 20
158.137
 11
185.955
 21
158.018
  0
LINE
  8
0
 10
185.955
 20
158.018
 11
185.727
 21
157.923
  0
LINE
  8
0
 10
185.727
 20
157.923
 11
185.49
 21
157.855
  0
LINE
  8
0
 10
185.49
 20
157.855
 11
185.246
 21
157.814
  0
LINE
  8
0
 10
185.246
 20
157.814
 11
185
 21
157.8
  0
LINE
  8
0
 10
185
 20
157.8
 11
184.754
 21
157.814
  0
LINE
  8
0
 10
-185.261
 20
147.514
 11
-185.52
 21
147.555
  0
LINE
  8
0
 10
-185.52
 20
147.555
 11
-185.773
 21
147.622
  0
LINE
  8
0
 10
-185.773
 20
147.622
 11
-186.017
 21
147.716
  0
LINE
  8
0
 10
-186.017
 20
147.716
 11
-186.25
 21
147.835
  0
LINE
  8
0
 10
-186.25
 20
147.835
 11
-186.469
 21
147.977
  0
LINE
  8
0
 10
-186.469
 20
147.977
 11
-186.673
 21
148.142
  0
LINE
  8
0
 10
-186.673
 20
148.142
 11
-186.858
 21
148.327
  0
LINE
  8
0
 10
-186.858
 20
148.327
 11
-187.023
 21
148.531
  0
LINE
  8
0
 10
-187.023
 20
148.531
 11
-187.165
 21
148.75
  0
LINE
  8
0
 10
-187.165
 20
148.75
 11
-187.284
 21
148.983
  0
LINE
  8
0
 10
-187.284
 20
148.983
 11
-187.378
 21
149.227
  0
LINE
  8
0
 10
-187.378
 20
149.227
 11
-187.445
 21
149.48
  0
LINE
  8
0
 10
-187.445
 20
149.48
 11
-187.486
 21
149.739
  0
LINE
  8
0
 10
-187.486
 20
149.739
 11
-187.5
 21
150
  0
LINE
  8
0
 10
-187.5
 20
150
 11
-187.486
 21
150.261
  0
LINE
  8
0
 10
-187.486
 20
150.261
 11
-187.445
 21
150.52
  0
LINE
  8
0
 10
-187.445
 20
150.52
 11
-187.378
 21
150.773
  0
LINE
  8
0
 10
-187.378
 20
150.773
 11
-187.284
 21
151.017
  0
LINE
  8
0
 10
-187.284
 20
151.017
 11
-187.165
 21
151.25
  0
LINE
  8
0
 10
-187.165
 20
151.25
 11
-187.023
 21
151.469
  0
LINE
  8
0
 10
-187.023
 20
151.469
 11
-186.858
 21
151.673
  0
LINE
  8
0
 10
-186.858
 20
151.673
 11
-186.673
 21
151.858
  0
LINE
  8
0
 10
-186.673
 20
151.858
 11
-186.469
 21
152.023
  0
LINE
  8
0
 10
-186.469
 20
152.023
 11
-186.25
 21
152.165
  0
LINE
  8
0
 10
-186.25
 20
152.165
 11
-186.017
 21
152.284
  0
LINE
  8
0
 10
-186.017
 20
152.284
 11
-185.773
 21
152.378
  0
LINE
  8
0
 10
-185.773
 20
152.378
 11
-185.52
 21
152.445
  0
LINE
  8
0
 10
-185.52
 20
152.445
 11
-185.261
 21
152.486
  0
LINE
  8
0
 10
-185.261
 20
152.486
 11
-185
 21
152.5
  0
LINE
  8
0
 10
-185
 20
152.5
 11
-184.739
 21
152.486
  0
LINE
  8
0
 10
-184.739
 20
152.486
 11
-184.48
 21
152.445
  0
LINE
  8
0
 10
-184.48
 20
152.445
 11
-184.227
 21
152.378
  0
LINE
  8
0
 10
-184.227
 20
152.378
 11
-183.983
 21
152.284
  0
LINE
  8
0
 10
-183.983
 20
152.284
 11
-183.75
 21
152.165
  0
LINE
  8
0
 10
-183.75
 20
152.165
 11
-183.531
 21
152.023
  0
LINE
  8
0
 10
-183.531
 20
152.023
 11
-183.327
 21
151.858
  0
LINE
  8
0
 10
-183.327
 20
151.858
 11
-183.142
 21
151.673
  0
LINE
  8
0
 10
-183.142
 20
151.673
 11
-182.977
 21
151.469
  0
LINE
  8
0
 10
-182.977
 20
151.469
 11
-182.835
 21
151.25
  0
LINE
  8
0
 10
-182.835
 20
151.25
 11
-182.716
 21
151.017
  0
LINE
  8
0
 10
-182.716
 20
151.017
 11
-182.622
 21
150.773
  0
LINE
  8
0
 10
-182.622
 20
150.773
 11
-182.555
 21
150.52
  0
LINE
  8
0
 10
-182.555
 20
150.52
 11
-182.514
 21
150.261
  0
LINE
  8
0
 10
-182.514
 20
150.261
 11
-182.5
 21
150
  0
LINE
  8
0
 10
-182.5
 20
150
 11
-182.514
 21
149.739
  0
LINE
  8
0
 10
-182.514
 20
149.739
 11
-182.555
 21
149.48
  0
LINE
  8
0
 10
-182.555
 20
149.48
 11
-182.622
 21
149.227
  0
LINE
  8
0
 10
-182.622
 20
149.227
 11
-182.716
 21
148.983
  0
LINE
  8
0
 10
-182.716
 20
148.983
 11
-182.835
 21
148.75
  0
LINE
  8
0
 10
-182.835
 20
148.75
 11
-182.977
 21
148.531
  0
LINE
  8
0
 10
-182.977
 20
148.531
 11
-183.142
 21
148.327
  0
LINE
  8
0
 10
-183.142
 20
148.327
 11
-183.327
 21
148.142
  0
LINE
  8
0
 10
-183.327
 20
148.142
 11
-183.531
 21
147.977
  0
LINE
  8
0
 10
-183.531
 20
147.977
 11
-183.75
 21
147.835
  0
LINE
  8
0
 10
-183.75
 20
147.835
 11
-183.983
 21
147.716
  0
LINE
  8
0
 10
-183.983
 20
147.716
 11
-184.227
 21
147.622
  0
LINE
  8
0
 10
-184.227
 20
147.622
 11
-184.48
 21
147.555
  0
LINE
  8
0
 10
-184.48
 20
147.555
 11
-184.739
 21
147.514
  0
LINE
  8
0
 10
-184.739
 20
147.514
 11
-185
 21
147.5
  0
LINE
  8
0
 10
-185
 20
147.5
 11
-185.261
 21
147.514
  0
LINE
  8
0
 10
184.739
 20
147.514
 11
184.48
 21
147.555
  0
LINE
  8
0
 10
184.48
 20
147.555
 11
184.227
 21
147.622
  0
LINE
  8
0
 10
184.227
 20
147.622
 11
183.983
 21
147.716
  0
LINE
  8
0
 10
183.983
 20
147.716
 11
183.75
 21
147.835
  0
LINE
  8
0
 10
183.75
 20
147.835
 11
183.531
 21
147.977
  0
LINE
  8
0
 10
183.531
 20
147.977
 11
183.327
 21
148.142
  0
LINE
  8
0
 10
183.327
 20
148.142
 11
183.142
 21
148.327
  0
LINE
  8
0
 10
183.142
 20
148.327
 11
182.977
 21
148.531
  0
LINE
  8
0
 10
182.977
 20
148.531
 11
182.835
 21
148.75
  0
LINE
  8
0
 10
182.835
 20
148.75
 11
182.716
 21
148.983
  0
LINE
  8
0
 10
182.716
 20
148.983
 11
182.622
 21
149.227
  0
LINE
  8
0
 10
182.622
 20
149.227
 11
182.555
 21
149.48
  0
LINE
  8
0
 10
182.555
 20
149.48
 11
182.514
 21
149.739
  0
LINE
  8
0
 10
182.514
 20
149.739
 11
182.5
 21
150
  0
LINE
  8
0
 10
182.5
 20
150
 11
182.514
 21
150.261
  0
LINE
  8
0
 10
182.514
 20
150.261
 11
182.555
 21
150.52
  0
LINE
  8
0
 10
182.555
 20
150.52
 11
182.622
 21
150.773
  0
LINE
  8
0
 10
182.622
 20
150.773
 11
182.716
 21
151.017
  0
LINE
  8
0
 10
182.716
 20
151.017
 11
182.835
 21
151.25
  0
LINE
  8
0
 10
182.835
 20
151.25
 11
182.977
 21
151.469
  0
LINE
  8
0
 10
182.977
 20
151.469
 11
183.142
 21
151.673
  0
LINE
  8
0
 10
183.142
 20
151.673
 11
183.327
 21
151.858
  0
LINE
  8
0
 10
183.327
 20
151.858
 11
183.531
 21
152.023
  0
LINE
  8
0
 10
183.531
 20
152.023
 11
183.75
 21
152.165
  0
LINE
  8
0
 10
183.75
 20
152.165
 11
183.983
 21
152.284
  0
LINE
  8
0
 10
183.983
 20
152.284
 11
184.227
 21
152.378
  0
LINE
  8
0
 10
184.227
 20
152.378
 11
184.48
 21
152.445
  0
LINE
  8
0
 10
184.48
 20
152.445
 11
184.739
 21
152.486
  0
LINE
  8
0
 10
184.739
 20
152.486
 11
185
 21
152.5
  0
LINE
  8
0
 10
185
 20
152.5
 11
185.261
 21
152.486
  0
LINE
  8
0
 10
185.261
 20
152.486
 11
185.52
 21
152.445
  0
LINE
  8
0
 10
185.52
 20
152.445
 11
185.773
 21
152.378
  0
LINE
  8
0
 10
185.773
 20
152.378
 11
186.017
 21
152.284
  0
LINE
  8
0
 10
186.017
 20
152.284
 11
186.25
 21
152.165
  0
LINE
  8
0
 10
186.25
 20
152.165
 11
186.469
 21
152.023
  0
LINE
  8
0
 10
186.469
 20
152.023
 11
186.673
 21
151.858
  0
LINE
  8
0
 10
186.673
 20
151.858
 11
186.858
 21
151.673
  0
LINE
  8
0
 10
186.858
 20
151.673
 11
187.023
 21
151.469
  0
LINE
  8
0
 10
187.023
 20
151.469
 11
187.165
 21
151.25
  0
LINE
  8
0
 10
187.165
 20
151.25
 11
187.284
 21
151.017
  0
LINE
  8
0
 10
187.284
 20
151.017
 11
187.378
 21
150.773
  0
LINE
  8
0
 10
187.378
 20
150.773
 11
187.445
 21
150.52
  0
LINE
  8
0
 10
187.445
 20
150.52
 11
187.486
 21
150.261
  0
LINE
  8
0
 10
187.486
 20
150.261
 11
187.5
 21
150
  0
LINE
  8
0
 10
187.5
 20
150
 11
187.486
 21
149.739
  0
LINE
  8
0
 10
187.486
 20
149.739
 11
187.445
 21
149.48
  0
LINE
  8
0
 10
187.445
 20
149.48
 11
187.378
 21
149.227
  0
LINE
  8
0
 10
187.378
 20
149.227
 11
187.284
 21
148.983
  0
LINE
  8
0
 10
187.284
 20
148.983
 11
187.165
 21
148.75
  0
LINE
  8
0
 10
187.165
 20
148.75
 11
187.023
 21
148.531
  0
LINE
  8
0
 10
187.023
 20
148.531
 11
186.858
 21
148.327
  0
LINE
  8
0
 10
186.858
 20
148.327
 11
186.673
 21
148.142
  0
LINE
  8
0
 10
186.673
 20
148.142
 11
186.469
 21
147.977
  0
LINE
  8
0
 10
186.469
 20
147.977
 11
186.25
 21
147.835
  0
LINE
  8
0
 10
186.25
 20
147.835
 11
186.017
 21
147.716
  0
LINE
  8
0
 10
186.017
 20
147.716
 11
185.773
 21
147.622
  0
LINE
  8
0
 10
185.773
 20
147.622
 11
185.52
 21
147.555
  0
LINE
  8
0
 10
185.52
 20
147.555
 11
185.261
 21
147.514
  0
LINE
  8
0
 10
185.261
 20
147.514
 11
185
 21
147.5
  0
LINE
  8
0
 10
185
 20
147.5
 11
184.739
 21
147.514
  0
LINE
  8
0
 10
184.739
 20
127.514
 11
184.48
 21
127.555
  0
LINE
  8
0
 10
184.48
 20
127.555
 11
184.227
 21
127.622
  0
LINE
  8
0
 10
184.227
 20
127.622
 11
183.983
 21
127.716
  0
LINE
  8
0
 10
183.983
 20
127.716
 11
183.75
 21
127.835
  0
LINE
  8
0
 10
183.75
 20
127.835
 11
183.531
 21
127.977
  0
LINE
  8
0
 10
183.531
 20
127.977
 11
183.327
 21
128.142
  0
LINE
  8
0
 10
183.327
 20
128.142
 11
183.142
 21
128.327
  0
LINE
  8
0
 10
183.142
 20
128.327
 11
182.977
 21
128.531
  0
LINE
  8
0
 10
182.977
 20
128.531
 11
182.835
 21
128.75
  0
LINE
  8
0
 10
182.835
 20
128.75
 11
182.716
 21
128.983
  0
LINE
  8
0
 10
182.716
 20
128.983
 11
182.622
 21
129.227
  0
LINE
  8
0
 10
182.622
 20
129.227
 11
182.555
 21
129.48
  0
LINE
  8
0
 10
182.555
 20
129.48
 11
182.514
 21
129.739
  0
LINE
  8
0
 10
182.514
 20
129.739
 11
182.5
 21
130
  0
LINE
  8
0
 10
182.5
 20
130
 11
182.514
 21
130.261
  0
LINE
  8
0
 10
182.514
 20
130.261
 11
182.555
 21
130.52
  0
LINE
  8
0
 10
182.555
 20
130.52
 11
182.622
 21
130.773
  0
LINE
  8
0
 10
182.622
 20
130.773
 11
182.716
 21
131.017
  0
LINE
  8
0
 10
182.716
 20
131.017
 11
182.835
 21
131.25
  0
LINE
  8
0
 10
182.835
 20
131.25
 11
182.977
 21
131.469
  0
LINE
  8
0
 10
182.977
 20
131.469
 11
183.142
 21
131.673
  0
LINE
  8
0
 10
183.142
 20
131.673
 11
183.327
 21
131.858
  0
LINE
  8
0
 10
183.327
 20
131.858
 11
183.531
 21
132.023
  0
LINE
  8
0
 10
183.531
 20
132.023
 11
183.75
 21
132.165
  0
LINE
  8
0
 10
183.75
 20
132.165
 11
183.983
 21
132.284
  0
LINE
  8
0
 10
183.983
 20
132.284
 11
184.227
 21
132.378
  0
LINE
  8
0
 10
184.227
 20
132.378
 11
184.48
 21
132.445
  0
LINE
  8
0
 10
184.48
 20
132.445
 11
184.739
 21
132.486
  0
LINE
  8
0
 10
184.739
 20
132.486
 11
185
 21
132.5
  0
LINE
  8
0
 10
185
 20
132.5
 11
185.261
 21
132.486
  0
LINE
  8
0
 10
185.261
 20
132.486
 11
185.52
 21
132.445
  0
LINE
  8
0
 10
185.52
 20
132.445
 11
185.773
 21
132.378
  0
LINE
  8
0
 10
185.773
 20
132.378
 11
186.017
 21
132.284
  0
LINE
  8
0
 10
186.017
 20
132.284
 11
186.25
 21
132.165
  0
LINE
  8
0
 10
186.25
 20
132.165
 11
186.469
 21
132.023
  0
LINE
  8
0
 10
186.469
 20
132.023
 11
186.673
 21
131.858
  0
LINE
  8
0
 10
186.673
 20
131.858
 11
186.858
 21
131.673
  0
LINE
  8
0
 10
186.858
 20
131.673
 11
187.023
 21
131.469
  0
LINE
  8
0
 10
187.023
 20
131.469
 11
187.165
 21
131.25
  0
LINE
  8
0
 10
187.165
 20
131.25
 11
187.284
 21
131.017
  0
LINE
  8
0
 10
187.284
 20
131.017
 11
187.378
 21
130.773
  0
LINE
  8
0
 10
187.378
 20
130.773
 11
187.445
 21
130.52
  0
LINE
  8
0
 10
187.445
 20
130.52
 11
187.486
 21
130.261
  0
LINE
  8
0
 10
187.486
 20
130.261
 11
187.5
 21
130
  0
LINE
  8
0
 10
187.5
 20
130
 11
187.486
 21
129.739
  0
LINE
  8
0
 10
187.486
 20
129.739
 11
187.445
 21
129.48
  0
LINE
  8
0
 10
187.445
 20
129.48
 11
187.378
 21
129.227
  0
LINE
  8
0
 10
187.378
 20
129.227
 11
187.284
 21
128.983
  0
LINE
  8
0
 10
187.284
 20
128.983
 11
187.165
 21
128.75
  0
LINE
  8
0
 10
187.165
 20
128.75
 11
187.023
 21
128.531
  0
LINE
  8
0
 10
187.023
 20
128.531
 11
186.858
 21
128.327
  0
LINE
  8
0
 10
186.858
 20
128.327
 11
186.673
 21
128.142
  0
LINE
  8
0
 10
186.673
 20
128.142
 11
186.469
 21
127.977
  0
LINE
  8
0
 10
186.469
 20
127.977
 11
186.25
 21
127.835
  0
LINE
  8
0
 10
186.25
 20
127.835
 11
186.017
 21
127.716
  0
LINE
  8
0
 10
186.017
 20
127.716
 11
185.773
 21
127.622
  0
LINE
  8
0
 10
185.773
 20
127.622
 11
185.52
 21
127.555
  0
LINE
  8
0
 10
185.52
 20
127.555
 11
185.261
 21
127.514
  0
LINE
  8
0
 10
185.261
 20
127.514
 11
185
 21
127.5
  0
LINE
  8
0
 10
185
 20
127.5
 11
184.739
 21
127.514
  0
LINE
  8
0
 10
-185.246
 20
51.1472
 11
-185.49
 21
51.1885
  0
LINE
  8
0
 10
-185.49
 20
51.1885
 11
-185.727
 21
51.2568
  0
LINE
  8
0
 10
-185.727
 20
51.2568
 11
-185.955
 21
51.3512
  0
LINE
  8
0
 10
-185.955
 20
51.3512
 11
-186.17
 21
51.4705
  0
LINE
  8
0
 10
-186.17
 20
51.4705
 11
-186.372
 21
51.6133
  0
LINE
  8
0
 10
-186.372
 20
51.6133
 11
-186.556
 21
51.7777
  0
LINE
  8
0
 10
-186.556
 20
51.7777
 11
-186.72
 21
51.9617
  0
LINE
  8
0
 10
-186.72
 20
51.9617
 11
-186.863
 21
52.1629
  0
LINE
  8
0
 10
-186.863
 20
52.1629
 11
-186.982
 21
52.3788
  0
LINE
  8
0
 10
-186.982
 20
52.3788
 11
-187.077
 21
52.6067
  0
LINE
  8
0
 10
-187.077
 20
52.6067
 11
-187.145
 21
52.8438
  0
LINE
  8
0
 10
-187.145
 20
52.8438
 11
-187.186
 21
53.087
  0
LINE
  8
0
 10
-187.186
 20
53.087
 11
-187.2
 21
53.3333
  0
LINE
  8
0
 10
-187.2
 20
53.3333
 11
-187.186
 21
53.5797
  0
LINE
  8
0
 10
-187.186
 20
53.5797
 11
-187.145
 21
53.8229
  0
LINE
  8
0
 10
-187.145
 20
53.8229
 11
-187.077
 21
54.0599
  0
LINE
  8
0
 10
-187.077
 20
54.0599
 11
-186.982
 21
54.2879
  0
LINE
  8
0
 10
-186.982
 20
54.2879
 11
-186.863
 21
54.5038
  0
LINE
  8
0
 10
-186.863
 20
54.5038
 11
-186.72
 21
54.705
  0
LINE
  8
0
 10
-186.72
 20
54.705
 11
-186.556
 21
54.889
  0
LINE
  8
0
 10
-186.556
 20
54.889
 11
-186.372
 21
55.0534
  0
LINE
  8
0
 10
-186.372
 20
55.0534
 11
-186.17
 21
55.1961
  0
LINE
  8
0
 10
-186.17
 20
55.1961
 11
-185.955
 21
55.3155
  0
LINE
  8
0
 10
-185.955
 20
55.3155
 11
-185.727
 21
55.4099
  0
LINE
  8
0
 10
-185.727
 20
55.4099
 11
-185.49
 21
55.4782
  0
LINE
  8
0
 10
-185.49
 20
55.4782
 11
-185.246
 21
55.5195
  0
LINE
  8
0
 10
-185.246
 20
55.5195
 11
-185
 21
55.5333
  0
LINE
  8
0
 10
-185
 20
55.5333
 11
-184.754
 21
55.5195
  0
LINE
  8
0
 10
-184.754
 20
55.5195
 11
-184.51
 21
55.4782
  0
LINE
  8
0
 10
-184.51
 20
55.4782
 11
-184.273
 21
55.4099
  0
LINE
  8
0
 10
-184.273
 20
55.4099
 11
-184.045
 21
55.3155
  0
LINE
  8
0
 10
-184.045
 20
55.3155
 11
-183.83
 21
55.1961
  0
LINE
  8
0
 10
-183.83
 20
55.1961
 11
-183.628
 21
55.0534
  0
LINE
  8
0
 10
-183.628
 20
55.0534
 11
-183.444
 21
54.889
  0
LINE
  8
0
 10
-183.444
 20
54.889
 11
-183.28
 21
54.705
  0
LINE
  8
0
 10
-183.28
 20
54.705
 11
-183.137
 21
54.5038
  0
LINE
  8
0
 10
-183.137
 20
54.5038
 11
-183.018
 21
54.2879
  0
LINE
  8
0
 10
-183.018
 20
54.2879
 11
-182.923
 21
54.0599
  0
LINE
  8
0
 10
-182.923
 20
54.0599
 11
-182.855
 21
53.8229
  0
LINE
  8
0
 10
-182.855
 20
53.8229
 11
-182.814
 21
53.5797
  0
LINE
  8
0
 10
-182.814
 20
53.5797
 11
-182.8
 21
53.3333
  0
LINE
  8
0
 10
-182.8
 20
53.3333
 11
-182.814
 21
53.087
  0
LINE
  8
0
 10
-182.814
 20
53.087
 11
-182.855
 21
52.8438
  0
LINE
  8
0
 10
-182.855
 20
52.8438
 11
-182.923
 21
52.6067
  0
LINE
  8
0
 10
-182.923
 20
52.6067
 11
-183.018
 21
52.3788
  0
LINE
  8
0
 10
-183.018
 20
52.3788
 11
-183.137
 21
52.1629
  0
LINE
  8
0
 10
-183.137
 20
52.1629
 11
-183.28
 21
51.9617
  0
LINE
  8
0
 10
-183.28
 20
51.9617
 11
-183.444
 21
51.7777
  0
LINE
  8
0
 10
-183.444
 20
51.7777
 11
-183.628
 21
51.6133
  0
LINE
  8
0
 10
-183.628
 20
51.6133
 11
-183.83
 21
51.4705
  0
LINE
  8
0
 10
-183.83
 20
51.4705
 11
-184.045
 21
51.3512
  0
LINE
  8
0
 10
-184.045
 20
51.3512
 11
-184.273
 21
51.2568
  0
LINE
  8
0
 10
-184.273
 20
51.2568
 11
-184.51
 21
51.1885
  0
LINE
  8
0
 10
-184.51
 20
51.1885
 11
-184.754
 21
51.1472
  0
LINE
  8
0
 10
-184.754
 20
51.1472
 11
-185
 21
51.1333
  0
LINE
  8
0
 10
-185
 20
51.1333
 11
-185.246
 21
51.1472
  0
LINE
  8
0
 10
184.754
 20
51.1472
 11
184.51
 21
51.1885
  0
LINE
  8
0
 10
184.51
 20
51.1885
 11
184.273
 21
51.2568
  0
LINE
  8
0
 10
184.273
 20
51.2568
 11
184.045
 21
51.3512
  0
LINE
  8
0
 10
184.045
 20
51.3512
 11
183.83
 21
51.4705
  0
LINE
  8
0
 10
183.83
 20
51.4705
 11
183.628
 21
51.6133
  0
LINE
  8
0
 10
183.628
 20
51.6133
 11
183.444
 21
51.7777
  0
LINE
  8
0
 10
183.444
 20
51.7777
 11
183.28
 21
51.9617
  0
LINE
  8
0
 10
183.28
 20
51.9617
 11
183.137
 21
52.1629
  0
LINE
  8
0
 10
183.137
 20
52.1629
 11
183.018
 21
52.3788
  0
LINE
  8
0
 10
183.018
 20
52.3788
 11
182.923
 21
52.6067
  0
LINE
  8
0
 10
182.923
 20
52.6067
 11
182.855
 21
52.8438
  0
LINE
  8
0
 10
182.855
 20
52.8438
 11
182.814
 21
53.087
  0
LINE
  8
0
 10
182.814
 20
53.087
 11
182.8
 21
53.3333
  0
LINE
  8
0
 10
182.8
 20
53.3333
 11
182.814
 21
53.5797
  0
LINE
  8
0
 10
182.814
 20
53.5797
 11
182.855
 21
53.8229
  0
LINE
  8
0
 10
182.855
 20
53.8229
 11
182.923
 21
54.0599
  0
LINE
  8
0
 10
182.923
 20
54.0599
 11
183.018
 21
54.2879
  0
LINE
  8
0
 10
183.018
 20
54.2879
 11
183.137
 21
54.5038
  0
LINE
  8
0
 10
183.137
 20
54.5038
 11
183.28
 21
54.705
  0
LINE
  8
0
 10
183.28
 20
54.705
 11
183.444
 21
54.889
  0
LINE
  8
0
 10
183.444
 20
54.889
 11
183.628
 21
55.0534
  0
LINE
  8
0
 10
183.628
 20
55.0534
 11
183.83
 21
55.1961
  0
LINE
  8
0
 10
183.83
 20
55.1961
 11
184.045
 21
55.3155
  0
LINE
  8
0
 10
184.045
 20
55.3155
 11
184.273
 21
55.4099
  0
LINE
  8
0
 10
184.273
 20
55.4099
 11
184.51
 21
55.4782
  0
LINE
  8
0
 10
184.51
 20
55.4782
 11
184.754
 21
55.5195
  0
LINE
  8
0
 10
184.754
 20
55.5195
 11
185
 21
55.5333
  0
LINE
  8
0
 10
185
 20
55.5333
 11
185.246
 21
55.5195
  0
LINE
  8
0
 10
185.246
 20
55.5195
 11
185.49
 21
55.4782
  0
LINE
  8
0
 10
185.49
 20
55.4782
 11
185.727
 21
55.4099
  0
LINE
  8
0
 10
185.727
 20
55.4099
 11
185.955
 21
55.3155
  0
LINE
  8
0
 10
185.955
 20
55.3155
 11
186.17
 21
55.1961
  0
LINE
  8
0
 10
186.17
 20
55.1961
 11
186.372
 21
55.0534
  0
LINE
  8
0
 10
186.372
 20
55.0534
 11
186.556
 21
54.889
  0
LINE
  8
0
 10
186.556
 20
54.889
 11
186.72
 21
54.705
  0
LINE
  8
0
 10
186.72
 20
54.705
 11
186.863
 21
54.5038
  0
LINE
  8
0
 10
186.863
 20
54.5038
 11
186.982
 21
54.2879
  0
LINE
  8
0
 10
186.982
 20
54.2879
 11
187.077
 21
54.0599
  0
LINE
  8
0
 10
187.077
 20
54.0599
 11
187.145
 21
53.8229
  0
LINE
  8
0
 10
187.145
 20
53.8229
 11
187.186
 21
53.5797
  0
LINE
  8
0
 10
187.186
 20
53.5797
 11
187.2
 21
53.3333
  0
LINE
  8
0
 10
187.2
 20
53.3333
 11
187.186
 21
53.087
  0
LINE
  8
0
 10
187.186
 20
53.087
 11
187.145
 21
52.8438
  0
LINE
  8
0
 10
187.145
 20
52.8438
 11
187.077
 21
52.6067
  0
LINE
  8
0
 10
187.077
 20
52.6067
 11
186.982
 21
52.3788
  0
LINE
  8
0
 10
186.982
 20
52.3788
 11
186.863
 21
52.1629
  0
LINE
  8
0
 10
186.863
 20
52.1629
 11
186.72
 21
51.9617
  0
LINE
  8
0
 10
186.72
 20
51.9617
 11
186.556
 21
51.7777
  0
LINE
  8
0
 10
186.556
 20
51.7777
 11
186.372
 21
51.6133
  0
LINE
  8
0
 10
186.372
 20
51.6133
 11
186.17
 21
51.4705
  0
LINE
  8
0
 10
186.17
 20
51.4705
 11
185.955
 21
51.3512
  0
LINE
  8
0
 10
185.955
 20
51.3512
 11
185.727
 21
51.2568
  0
LINE
  8
0
 10
185.727
 20
51.2568
 11
185.49
 21
51.1885
  0
LINE
  8
0
 10
185.49
 20
51.1885
 11
185.246
 21
51.1472
  0
LINE
  8
0
 10
185.246
 20
51.1472
 11
185
 21
51.1333
  0
LINE
  8
0
 10
185
 20
51.1333
 11
184.754
 21
51.1472
  0
LINE
  8
0
 10
-20.2463
 20
2.81383
 11
-20.4895
 21
2.85515
  0
LINE
  8
0
 10
-20.4895
 20
2.85515
 11
-20.7266
 21
2.92345
  0
LINE
  8
0
 10
-20.7266
 20
2.92345
 11
-20.9545
 21
3.01787
  0
LINE
  8
0
 10
-20.9545
 20
3.01787
 11
-21.1705
 21
3.13719
  0
LINE
  8
0
 10
-21.1705
 20
3.13719
 11
-21.3717
 21
3.27997
  0
LINE
  8
0
 10
-21.3717
 20
3.27997
 11
-21.5556
 21
3.44435
  0
LINE
  8
0
 10
-21.5556
 20
3.44435
 11
-21.72
 21
3.62831
  0
LINE
  8
0
 10
-21.72
 20
3.62831
 11
-21.8628
 21
3.82953
  0
LINE
  8
0
 10
-21.8628
 20
3.82953
 11
-21.9821
 21
4.04544
  0
LINE
  8
0
 10
-21.9821
 20
4.04544
 11
-22.0765
 21
4.27338
  0
LINE
  8
0
 10
-22.0765
 20
4.27338
 11
-22.1448
 21
4.51045
  0
LINE
  8
0
 10
-22.1448
 20
4.51045
 11
-22.1862
 21
4.75368
  0
LINE
  8
0
 10
-22.1862
 20
4.75368
 11
-22.2
 21
5
  0
LINE
  8
0
 10
-22.2
 20
5
 11
-22.1862
 21
5.24631
  0
LINE
  8
0
 10
-22.1862
 20
5.24631
 11
-22.1448
 21
5.48953
  0
LINE
  8
0
 10
-22.1448
 20
5.48953
 11
-22.0765
 21
5.72661
  0
LINE
  8
0
 10
-22.0765
 20
5.72661
 11
-21.9821
 21
5.95454
  0
LINE
  8
0
 10
-21.9821
 20
5.95454
 11
-21.8628
 21
6.17046
  0
LINE
  8
0
 10
-21.8628
 20
6.17046
 11
-21.72
 21
6.37167
  0
LINE
  8
0
 10
-21.72
 20
6.37167
 11
-21.5556
 21
6.55563
  0
LINE
  8
0
 10
-21.5556
 20
6.55563
 11
-21.3717
 21
6.72002
  0
LINE
  8
0
 10
-21.3717
 20
6.72002
 11
-21.1705
 21
6.86279
  0
LINE
  8
0
 10
-21.1705
 20
6.86279
 11
-20.9545
 21
6.98212
  0
LINE
  8
0
 10
-20.9545
 20
6.98212
 11
-20.7266
 21
7.07654
  0
LINE
  8
0
 10
-20.7266
 20
7.07654
 11
-20.4895
 21
7.14484
  0
LINE
  8
0
 10
-20.4895
 20
7.14484
 11
-20.2463
 21
7.18616
  0
LINE
  8
0
 10
-20.2463
 20
7.18616
 11
-20
 21
7.2
  0
LINE
  8
0
 10
-20
 20
7.2
 11
-19.7537
 21
7.18616
  0
LINE
  8
0
 10
-19.7537
 20
7.18616
 11
-19.5105
 21
7.14484
  0
LINE
  8
0
 10
-19.5105
 20
7.14484
 11
-19.2734
 21
7.07654
  0
LINE
  8
0
 10
-19.2734
 20
7.07654
 11
-19.0454
 21
6.98212
  0
LINE
  8
0
 10
-19.0454
 20
6.98212
 11
-18.8295
 21
6.86279
  0
LINE
  8
0
 10
-18.8295
 20
6.86279
 11
-18.6283
 21
6.72002
  0
LINE
  8
0
 10
-18.6283
 20
6.72002
 11
-18.4444
 21
6.55563
  0
LINE
  8
0
 10
-18.4444
 20
6.55563
 11
-18.28
 21
6.37167
  0
LINE
  8
0
 10
-18.28
 20
6.37167
 11
-18.1372
 21
6.17046
  0
LINE
  8
0
 10
-18.1372
 20
6.17046
 11
-18.0179
 21
5.95454
  0
LINE
  8
0
 10
-18.0179
 20
5.95454
 11
-17.9234
 21
5.72661
  0
LINE
  8
0
 10
-17.9234
 20
5.72661
 11
-17.8551
 21
5.48953
  0
LINE
  8
0
 10
-17.8551
 20
5.48953
 11
-17.8138
 21
5.24631
  0
LINE
  8
0
 10
-17.8138
 20
5.24631
 11
-17.8
 21
5
  0
LINE
  8
0
 10
-17.8
 20
5
 11
-17.8138
 21
4.75368
  0
LINE
  8
0
 10
-17.8138
 20
4.75368
 11
-17.8551
 21
4.51045
  0
LINE
  8
0
 10
-17.8551
 20
4.51045
 11
-17.9234
 21
4.27338
  0
LINE
  8
0
 10
-17.9234
 20
4.27338
 11
-18.0179
 21
4.04544
  0
LINE
  8
0
 10
-18.0179
 20
4.04544
 11
-18.1372
 21
3.82953
  0
LINE
  8
0
 10
-18.1372
 20
3.82953
 11
-18.28
 21
3.62831
  0
LINE
  8
0
 10
-18.28
 20
3.62831
 11
-18.4444
 21
3.44435
  0
LINE
  8
0
 10
-18.4444
 20
3.44435
 11
-18.6283
 21
3.27997
  0
LINE
  8
0
 10
-18.6283
 20
3.27997
 11
-18.8295
 21
3.13719
  0
LINE
  8
0
 10
-18.8295
 20
3.13719
 11
-19.0454
 21
3.01787
  0
LINE
  8
0
 10
-19.0454
 20
3.01787
 11
-19.2734
 21
2.92345
  0
LINE
  8
0
 10
-19.2734
 20
2.92345
 11
-19.5105
 21
2.85515
  0
LINE
  8
0
 10
-19.5105
 20
2.85515
 11
-19.7537
 21
2.81383
  0
LINE
  8
0
 10
-19.7537
 20
2.81383
 11
-20
 21
2.79999
  0
LINE
  8
0
 10
-20
 20
2.79999
 11
-20.2463
 21
2.81383
  0
LINE
  8
0
 10
19.7537
 20
2.81383
 11
19.5105
 21
2.85515
  0
LINE
  8
0
 10
19.5105
 20
2.85515
 11
19.2734
 21
2.92345
  0
LINE
  8
0
 10
19.2734
 20
2.92345
 11
19.0454
 21
3.01787
  0
LINE
  8
0
 10
19.0454
 20
3.01787
 11
18.8295
 21
3.13719
  0
LINE
  8
0
 10
18.8295
 20
3.13719
 11
18.6283
 21
3.27997
  0
LINE
  8
0
 10
18.6283
 20
3.27997
 11
18.4444
 21
3.44435
  0
LINE
  8
0
 10
18.4444
 20
3.44435
 11
18.28
 21
3.62831
  0
LINE
  8
0
 10
18.28
 20
3.62831
 11
18.1372
 21
3.82953
  0
LINE
  8
0
 10
18.1372
 20
3.82953
 11
18.0179
 21
4.04544
  0
LINE
  8
0
 10
18.0179
 20
4.04544
 11
17.9234
 21
4.27338
  0
LINE
  8
0
 10
17.9234
 20
4.27338
 11
17.8551
 21
4.51045
  0
LINE
  8
0
 10
17.8551
 20
4.51045
 11
17.8138
 21
4.75368
  0
LINE
  8
0
 10
17.8138
 20
4.75368
 11
17.8
 21
5
  0
LINE
  8
0
 10
17.8
 20
5
 11
17.8138
 21
5.24631
  0
LINE
  8
0
 10
17.8138
 20
5.24631
 11
17.8551
 21
5.48953
  0
LINE
  8
0
 10
17.8551
 20
5.48953
 11
17.9234
 21
5.72661
  0
LINE
  8
0
 10
17.9234
 20
5.72661
 11
18.0179
 21
5.95454
  0
LINE
  8
0
 10
18.0179
 20
5.95454
 11
18.1372
 21
6.17046
  0
LINE
  8
0
 10
18.1372
 20
6.17046
 11
18.28
 21
6.37167
  0
LINE
  8
0
 10
18.28
 20
6.37167
 11
18.4444
 21
6.55563
  0
LINE
  8
0
 10
18.4444
 20
6.55563
 11
18.6283
 21
6.72002
  0
LINE
  8
0
 10
18.6283
 20
6.72002
 11
18.8295
 21
6.86279
  0
LINE
  8
0
 10
18.8295
 20
6.86279
 11
19.0454
 21
6.98212
  0
LINE
  8
0
 10
19.0454
 20
6.98212
 11
19.2734
 21
7.07654
  0
LINE
  8
0
 10
19.2734
 20
7.07654
 11
19.5105
 21
7.14484
  0
LINE
  8
0
 10
19.5105
 20
7.14484
 11
19.7537
 21
7.18616
  0
LINE
  8
0
 10
19.7537
 20
7.18616
 11
20
 21
7.2
  0
LINE
  8
0
 10
20
 20
7.2
 11
20.2463
 21
7.18616
  0
LINE
  8
0
 10
20.2463
 20
7.18616
 11
20.4895
 21
7.14484
  0
LINE
  8
0
 10
20.4895
 20
7.14484
 11
20.7266
 21
7.07654
  0
LINE
  8
0
 10
20.7266
 20
7.07654
 11
20.9545
 21
6.98212
  0
LINE
  8
0
 10
20.9545
 20
6.98212
 11
21.1705
 21
6.86279
  0
LINE
  8
0
 10
21.1705
 20
6.86279
 11
21.3717
 21
6.72002
  0
LINE
  8
0
 10
21.3717
 20
6.72002
 11
21.5556
 21
6.55563
  0
LINE
  8
0
 10
21.5556
 20
6.55563
 11
21.72
 21
6.37167
  0
LINE
  8
0
 10
21.72
 20
6.37167
 11
21.8628
 21
6.17046
  0
LINE
  8
0
 10
21.8628
 20
6.17046
 11
21.9821
 21
5.95454
  0
LINE
  8
0
 10
21.9821
 20
5.95454
 11
22.0765
 21
5.72661
  0
LINE
  8
0
 10
22.0765
 20
5.72661
 11
22.1448
 21
5.48953
  0
LINE
  8
0
 10
22.1448
 20
5.48953
 11
22.1862
 21
5.24631
  0
LINE
  8
0
 10
22.1862
 20
5.24631
 11
22.2
 21
5
  0
LINE
  8
0
 10
22.2
 20
5
 11
22.1862
 21
4.75368
  0
LINE
  8
0
 10
22.1862
 20
4.75368
 11
22.1448
 21
4.51045
  0
LINE
  8
0
 10
22.1448
 20
4.51045
 11
22.0765
 21
4.27338
  0
LINE
  8
0
 10
22.0765
 20
4.27338
 11
21.9821
 21
4.04544
  0
LINE
  8
0
 10
21.9821
 20
4.04544
 11
21.8628
 21
3.82953
  0
LINE
  8
0
 10
21.8628
 20
3.82953
 11
21.72
 21
3.62831
  0
LINE
  8
0
 10
21.72
 20
3.62831
 11
21.5556
 21
3.44435
  0
LINE
  8
0
 10
21.5556
 20
3.44435
 11
21.3717
 21
3.27997
  0
LINE
  8
0
 10
21.3717
 20
3.27997
 11
21.1705
 21
3.13719
  0
LINE
  8
0
 10
21.1705
 20
3.13719
 11
20.9545
 21
3.01787
  0
LINE
  8
0
 10
20.9545
 20
3.01787
 11
20.7266
 21
2.92345
  0
LINE
  8
0
 10
20.7266
 20
2.92345
 11
20.4895
 21
2.85515
  0
LINE
  8
0
 10
20.4895
 20
2.85515
 11
20.2463
 21
2.81383
  0
LINE
  8
0
 10
20.2463
 20
2.81383
 11
20
 21
2.79999
  0
LINE
  8
0
 10
20
 20
2.79999
 11
19.7537
 21
2.81383
  0
LINE
  8
0
 10
-185.246
 20
-55.5195
 11
-185.49
 21
-55.4782
  0
LINE
  8
0
 10
-185.49
 20
-55.4782
 11
-185.727
 21
-55.4099
  0
LINE
  8
0
 10
-185.727
 20
-55.4099
 11
-185.955
 21
-55.3155
  0
LINE
  8
0
 10
-185.955
 20
-55.3155
 11
-186.17
 21
-55.1961
  0
LINE
  8
0
 10
-186.17
 20
-55.1961
 11
-186.372
 21
-55.0534
  0
LINE
  8
0
 10
-186.372
 20
-55.0534
 11
-186.556
 21
-54.889
  0
LINE
  8
0
 10
-186.556
 20
-54.889
 11
-186.72
 21
-54.705
  0
LINE
  8
0
 10
-186.72
 20
-54.705
 11
-186.863
 21
-54.5038
  0
LINE
  8
0
 10
-186.863
 20
-54.5038
 11
-186.982
 21
-54.2879
  0
LINE
  8
0
 10
-186.982
 20
-54.2879
 11
-187.077
 21
-54.0599
  0
LINE
  8
0
 10
-187.077
 20
-54.0599
 11
-187.145
 21
-53.8229
  0
LINE
  8
0
 10
-187.145
 20
-53.8229
 11
-187.186
 21
-53.5797
  0
LINE
  8
0
 10
-187.186
 20
-53.5797
 11
-187.2
 21
-53.3333
  0
LINE
  8
0
 10
-187.2
 20
-53.3333
 11
-187.186
 21
-53.087
  0
LINE
  8
0
 10
-187.186
 20
-53.087
 11
-187.145
 21
-52.8438
  0
LINE
  8
0
 10
-187.145
 20
-52.8438
 11
-187.077
 21
-52.6067
  0
LINE
  8
0
 10
-187.077
 20
-52.6067
 11
-186.982
 21
-52.3788
  0
LINE
  8
0
 10
-186.982
 20
-52.3788
 11
-186.863
 21
-52.1629
  0
LINE
  8
0
 10
-186.863
 20
-52.1629
 11
-186.72
 21
-51.9617
  0
LINE
  8
0
 10
-186.72
 20
-51.9617
 11
-186.556
 21
-51.7777
  0
LINE
  8
0
 10
-186.556
 20
-51.7777
 11
-186.372
 21
-51.6133
  0
LINE
  8
0
 10
-186.372
 20
-51.6133
 11
-186.17
 21
-51.4705
  0
LINE
  8
0
 10
-186.17
 20
-51.4705
 11
-185.955
 21
-51.3512
  0
LINE
  8
0
 10
-185.955
 20
-51.3512
 11
-185.727
 21
-51.2568
  0
LINE
  8
0
 10
-185.727
 20
-51.2568
 11
-185.49
 21
-51.1885
  0
LINE
  8
0
 10
-185.49
 20
-51.1885
 11
-185.246
 21
-51.1472
  0
LINE
  8
0
 10
-185.246
 20
-51.1472
 11
-185
 21
-51.1333
  0
LINE
  8
0
 10
-185
 20
-51.1333
 11
-184.754
 21
-51.1472
  0
LINE
  8
0
 10
-184.754
 20
-51.1472
 11
-184.51
 21
-51.1885
  0
LINE
  8
0
 10
-184.51
 20
-51.1885
 11
-184.273
 21
-51.2568
  0
LINE
  8
0
 10
-184.273
 20
-51.2568
 11
-184.045
 21
-51.3512
  0
LINE
  8
0
 10
-184.045
 20
-51.3512
 11
-183.83
 21
-51.4705
  0
LINE
  8
0
 10
-183.83
 20
-51.4705
 11
-183.628
 21
-51.6133
  0
LINE
  8
0
 10
-183.628
 20
-51.6133
 11
-183.444
 21
-51.7777
  0
LINE
  8
0
 10
-183.444
 20
-51.7777
 11
-183.28
 21
-51.9617
  0
LINE
  8
0
 10
-183.28
 20
-51.9617
 11
-183.137
 21
-52.1629
  0
LINE
  8
0
 10
-183.137
 20
-52.1629
 11
-183.018
 21
-52.3788
  0
LINE
  8
0
 10
-183.018
 20
-52.3788
 11
-182.923
 21
-52.6067
  0
LINE
  8
0
 10
-182.923
 20
-52.6067
 11
-182.855
 21
-52.8438
  0
LINE
  8
0
 10
-182.855
 20
-52.8438
 11
-182.814
 21
-53.087
  0
LINE
  8
0
 10
-182.814
 20
-53.087
 11
-182.8
 21
-53.3333
  0
LINE
  8
0
 10
-182.8
 20
-53.3333
 11
-182.814
 21
-53.5797
  0
LINE
  8
0
 10
-182.814
 20
-53.5797
 11
-182.855
 21
-53.8229
  0
LINE
  8
0
 10
-182.855
 20
-53.8229
 11
-182.923
 21
-54.0599
  0
LINE
  8
0
 10
-182.923
 20
-54.0599
 11
-183.018
 21
-54.2879
  0
LINE
  8
0
 10
-183.018
 20
-54.2879
 11
-183.137
 21
-54.5038
  0
LINE
  8
0
 10
-183.137
 20
-54.5038
 11
-183.28
 21
-54.705
  0
LINE
  8
0
 10
-183.28
 20
-54.705
 11
-183.444
 21
-54.889
  0
LINE
  8
0
 10
-183.444
 20
-54.889
 11
-183.628
 21
-55.0534
  0
LINE
  8
0
 10
-183.628
 20
-55.0534
 11
-183.83
 21
-55.1961
  0
LINE
  8
0
 10
-183.83
 20
-55.1961
 11
-184.045
 21
-55.3155
  0
LINE
  8
0
 10
-184.045
 20
-55.3155
 11
-184.273
 21
-55.4099
  0
LINE
  8
0
 10
-184.273
 20
-55.4099
 11
-184.51
 21
-55.4782
  0
LINE
  8
0
 10
-184.51
 20
-55.4782
 11
-184.754
 21
-55.5195
  0
LINE
  8
0
 10
-184.754
 20
-55.5195
 11
-185
 21
-55.5333
  0
LINE
  8
0
 10
-185
 20
-55.5333
 11
-185.246
 21
-55.5195
  0
LINE
  8
0
 10
184.754
 20
-55.5195
 11
184.51
 21
-55.4782
  0
LINE
  8
0
 10
184.51
 20
-55.4782
 11
184.273
 21
-55.4099
  0
LINE
  8
0
 10
184.273
 20
-55.4099
 11
184.045
 21
-55.3155
  0
LINE
  8
0
 10
184.045
 20
-55.3155
 11
183.83
 21
-55.1961
  0
LINE
  8
0
 10
183.83
 20
-55.1961
 11
183.628
 21
-55.0534
  0
LINE
  8
0
 10
183.628
 20
-55.0534
 11
183.444
 21
-54.889
  0
LINE
  8
0
 10
183.444
 20
-54.889
 11
183.28
 21
-54.705
  0
LINE
  8
0
 10
183.28
 20
-54.705
 11
183.137
 21
-54.5038
  0
LINE
  8
0
 10
183.137
 20
-54.5038
 11
183.018
 21
-54.2879
  0
LINE
  8
0
 10
183.018
 20
-54.2879
 11
182.923
 21
-54.0599
  0
LINE
  8
0
 10
182.923
 20
-54.0599
 11
182.855
 21
-53.8229
  0
LINE
  8
0
 10
182.855
 20
-53.8229
 11
182.814
 21
-53.5797
  0
LINE
  8
0
 10
182.814
 20
-53.5797
 11
182.8
 21
-53.3333
  0
LINE
  8
0
 10
182.8
 20
-53.3333
 11
182.814
 21
-53.087
  0
LINE
  8
0
 10
182.814
 20
-53.087
 11
182.855
 21
-52.8438
  0
LINE
  8
0
 10
182.855
 20
-52.8438
 11
182.923
 21
-52.6067
  0
LINE
  8
0
 10
182.923
 20
-52.6067
 11
183.018
 21
-52.3788
  0
LINE
  8
0
 10
183.018
 20
-52.3788
 11
183.137
 21
-52.1629
  0
LINE
  8
0
 10
183.137
 20
-52.1629
 11
183.28
 21
-51.9617
  0
LINE
  8
0
 10
183.28
 20
-51.9617
 11
183.444
 21
-51.7777
  0
LINE
  8
0
 10
183.444
 20
-51.7777
 11
183.628
 21
-51.6133
  0
LINE
  8
0
 10
183.628
 20
-51.6133
 11
183.83
 21
-51.4705
  0
LINE
  8
0
 10
183.83
 20
-51.4705
 11
184.045
 21
-51.3512
  0
LINE
  8
0
 10
184.045
 20
-51.3512
 11
184.273
 21
-51.2568
  0
LINE
  8
0
 10
184.273
 20
-51.2568
 11
184.51
 21
-51.1885
  0
LINE
  8
0
 10
184.51
 20
-51.1885
 11
184.754
 21
-51.1472
  0
LINE
  8
0
 10
184.754
 20
-51.1472
 11
185
 21
-51.1333
  0
LINE
  8
0
 10
185
 20
-51.1333
 11
185.246
 21
-51.1472
  0
LINE
  8
0
 10
185.246
 20
-51.1472
 11
185.49
 21
-51.1885
  0
LINE
  8
0
 10
185.49
 20
-51.1885
 11
185.727
 21
-51.2568
  0
LINE
  8
0
 10
185.727
 20
-51.2568
 11
185.955
 21
-51.3512
  0
LINE
  8
0
 10
185.955
 20
-51.3512
 11
186.17
 21
-51.4705
  0
LINE
  8
0
 10
186.17
 20
-51.4705
 11
186.372
 21
-51.6133
  0
LINE
  8
0
 10
186.372
 20
-51.6133
 11
186.556
 21
-51.7777
  0
LINE
  8
0
 10
186.556
 20
-51.7777
 11
186.72
 21
-51.9617
  0
LINE
  8
0
 10
186.72
 20
-51.9617
 11
186.863
 21
-52.1629
  0
LINE
  8
0
 10
186.863
 20
-52.1629
 11
186.982
 21
-52.3788
  0
LINE
  8
0
 10
186.982
 20
-52.3788
 11
187.077
 21
-52.6067
  0
LINE
  8
0
 10
187.077
 20
-52.6067
 11
187.145
 21
-52.8438
  0
LINE
  8
0
 10
187.145
 20
-52.8438
 11
187.186
 21
-53.087
  0
LINE
  8
0
 10
187.186
 20
-53.087
 11
187.2
 21
-53.3333
  0
LINE
  8
0
 10
187.2
 20
-53.3333
 11
187.186
 21
-53.5797
  0
LINE
  8
0
 10
187.186
 20
-53.5797
 11
187.145
 21
-53.8229
  0
LINE
  8
0
 10
187.145
 20
-53.8229
 11
187.077
 21
-54.0599
  0
LINE
  8
0
 10
187.077
 20
-54.0599
 11
186.982
 21
-54.2879
  0
LINE
  8
0
 10
186.982
 20
-54.2879
 11
186.863
 21
-54.5038
  0
LINE
  8
0
 10
186.863
 20
-54.5038
 11
186.72
 21
-54.705
  0
LINE
  8
0
 10
186.72
 20
-54.705
 11
186.556
 21
-54.889
  0
LINE
  8
0
 10
186.556
 20
-54.889
 11
186.372
 21
-55.0534
  0
LINE
  8
0
 10
186.372
 20
-55.0534
 11
186.17
 21
-55.1961
  0
LINE
  8
0
 10
186.17
 20
-55.1961
 11
185.955
 21
-55.3155
  0
LINE
  8
0
 10
185.955
 20
-55.3155
 11
185.727
 21
-55.4099
  0
LINE
  8
0
 10
185.727
 20
-55.4099
 11
185.49
 21
-55.4782
  0
LINE
  8
0
 10
185.49
 20
-55.4782
 11
185.246
 21
-55.5195
  0
LINE
  8
0
 10
185.246
 20
-55.5195
 11
185
 21
-55.5333
  0
LINE
  8
0
 10
185
 20
-55.5333
 11
184.754
 21
-55.5195
  0
LINE
  8
0
 10
-185.246
 20
-162.186
 11
-185.49
 21
-162.145
  0
LINE
  8
0
 10
-185.49
 20
-162.145
 11
-185.727
 21
-162.077
  0
LINE
  8
0
 10
-185.727
 20
-162.077
 11
-185.955
 21
-161.982
  0
LINE
  8
0
 10
-185.955
 20
-161.982
 11
-186.17
 21
-161.863
  0
LINE
  8
0
 10
-186.17
 20
-161.863
 11
-186.372
 21
-161.72
  0
LINE
  8
0
 10
-186.372
 20
-161.72
 11
-186.556
 21
-161.556
  0
LINE
  8
0
 10
-186.556
 20
-161.556
 11
-186.72
 21
-161.372
  0
LINE
  8
0
 10
-186.72
 20
-161.372
 11
-186.863
 21
-161.17
  0
LINE
  8
0
 10
-186.863
 20
-161.17
 11
-186.982
 21
-160.955
  0
LINE
  8
0
 10
-186.982
 20
-160.955
 11
-187.077
 21
-160.727
  0
LINE
  8
0
 10
-187.077
 20
-160.727
 11
-187.145
 21
-160.49
  0
LINE
  8
0
 10
-187.145
 20
-160.49
 11
-187.186
 21
-160.246
  0
LINE
  8
0
 10
-187.186
 20
-160.246
 11
-187.2
 21
-160
  0
LINE
  8
0
 10
-187.2
 20
-160
 11
-187.186
 21
-159.754
  0
LINE
  8
0
 10
-187.186
 20
-159.754
 11
-187.145
 21
-159.51
  0
LINE
  8
0
 10
-187.145
 20
-159.51
 11
-187.077
 21
-159.273
  0
LINE
  8
0
 10
-187.077
 20
-159.273
 11
-186.982
 21
-159.045
  0
LINE
  8
0
 10
-186.982
 20
-159.045
 11
-186.863
 21
-158.83
  0
LINE
  8
0
 10
-186.863
 20
-158.83
 11
-186.72
 21
-158.628
  0
LINE
  8
0
 10
-186.72
 20
-158.628
 11
-186.556
 21
-158.444
  0
LINE
  8
0
 10
-186.556
 20
-158.444
 11
-186.372
 21
-158.28
  0
LINE
  8
0
 10
-186.372
 20
-158.28
 11
-186.17
 21
-158.137
  0
LINE
  8
0
 10
-186.17
 20
-158.137
 11
-185.955
 21
-158.018
  0
LINE
  8
0
 10
-185.955
 20
-158.018
 11
-185.727
 21
-157.923
  0
LINE
  8
0
 10
-185.727
 20
-157.923
 11
-185.49
 21
-157.855
  0
LINE
  8
0
 10
-185.49
 20
-157.855
 11
-185.246
 21
-157.814
  0
LINE
  8
0
 10
-185.246
 20
-157.814
 11
-185
 21
-157.8
  0
LINE
  8
0
 10
-185
 20
-157.8
 11
-184.754
 21
-157.814
  0
LINE
  8
0
 10
-184.754
 20
-157.814
 11
-184.51
 21
-157.855
  0
LINE
  8
0
 10
-184.51
 20
-157.855
 11
-184.273
 21
-157.923
  0
LINE
  8
0
 10
-184.273
 20
-157.923
 11
-184.045
 21
-158.018
  0
LINE
  8
0
 10
-184.045
 20
-158.018
 11
-183.83
 21
-158.137
  0
LINE
  8
0
 10
-183.83
 20
-158.137
 11
-183.628
 21
-158.28
  0
LINE
  8
0
 10
-183.628
 20
-158.28
 11
-183.444
 21
-158.444
  0
LINE
  8
0
 10
-183.444
 20
-158.444
 11
-183.28
 21
-158.628
  0
LINE
  8
0
 10
-183.28
 20
-158.628
 11
-183.137
 21
-158.83
  0
LINE
  8
0
 10
-183.137
 20
-158.83
 11
-183.018
 21
-159.045
  0
LINE
  8
0
 10
-183.018
 20
-159.045
 11
-182.923
 21
-159.273
  0
LINE
  8
0
 10
-182.923
 20
-159.273
 11
-182.855
 21
-159.51
  0
LINE
  8
0
 10
-182.855
 20
-159.51
 11
-182.814
 21
-159.754
  0
LINE
  8
0
 10
-182.814
 20
-159.754
 11
-182.8
 21
-160
  0
LINE
  8
0
 10
-182.8
 20
-160
 11
-182.814
 21
-160.246
  0
LINE
  8
0
 10
-182.814
 20
-160.246
 11
-182.855
 21
-160.49
  0
LINE
  8
0
 10
-182.855
 20
-160.49
 11
-182.923
 21
-160.727
  0
LINE
  8
0
 10
-182.923
 20
-160.727
 11
-183.018
 21
-160.955
  0
LINE
  8
0
 10
-183.018
 20
-160.955
 11
-183.137
 21
-161.17
  0
LINE
  8
0
 10
-183.137
 20
-161.17
 11
-183.28
 21
-161.372
  0
LINE
  8
0
 10
-183.28
 20
-161.372
 11
-183.444
 21
-161.556
  0
LINE
  8
0
 10
-183.444
 20
-161.556
 11
-183.628
 21
-161.72
  0
LINE
  8
0
 10
-183.628
 20
-161.72
 11
-183.83
 21
-161.863
  0
LINE
  8
0
 10
-183.83
 20
-161.863
 11
-184.045
 21
-161.982
  0
LINE
  8
0
 10
-184.045
 20
-161.982
 11
-184.273
 21
-162.077
  0
LINE
  8
0
 10
-184.273
 20
-162.077
 11
-184.51
 21
-162.145
  0
LINE
  8
0
 10
-184.51
 20
-162.145
 11
-184.754
 21
-162.186
  0
LINE
  8
0
 10
-184.754
 20
-162.186
 11
-185
 21
-162.2
  0
LINE
  8
0
 10
-185
 20
-162.2
 11
-185.246
 21
-162.186
  0
LINE
  8
0
 10
184.754
 20
-162.186
 11
184.51
 21
-162.145
  0
LINE
  8
0
 10
184.51
 20
-162.145
 11
184.273
 21
-162.077
  0
LINE
  8
0
 10
184.273
 20
-162.077
 11
184.045
 21
-161.982
  0
LINE
  8
0
 10
184.045
 20
-161.982
 11
183.83
 21
-161.863
  0
LINE
  8
0
 10
183.83
 20
-161.863
 11
183.628
 21
-161.72
  0
LINE
  8
0
 10
183.628
 20
-161.72
 11
183.444
 21
-161.556
  0
LINE
  8
0
 10
183.444
 20
-161.556
 11
183.28
 21
-161.372
  0
LINE
  8
0
 10
183.28
 20
-161.372
 11
183.137
 21
-161.17
  0
LINE
  8
0
 10
183.137
 20
-161.17
 11
183.018
 21
-160.955
  0
LINE
  8
0
 10
183.018
 20
-160.955
 11
182.923
 21
-160.727
  0
LINE
  8
0
 10
182.923
 20
-160.727
 11
182.855
 21
-160.49
  0
LINE
  8
0
 10
182.855
 20
-160.49
 11
182.814
 21
-160.246
  0
LINE
  8
0
 10
182.814
 20
-160.246
 11
182.8
 21
-160
  0
LINE
  8
0
 10
182.8
 20
-160
 11
182.814
 21
-159.754
  0
LINE
  8
0
 10
182.814
 20
-159.754
 11
182.855
 21
-159.51
  0
LINE
  8
0
 10
182.855
 20
-159.51
 11
182.923
 21
-159.273
  0
LINE
  8
0
 10
182.923
 20
-159.273
 11
183.018
 21
-159.045
  0
LINE
  8
0
 10
183.018
 20
-159.045
 11
183.137
 21
-158.83
  0
LINE
  8
0
 10
183.137
 20
-158.83
 11
183.28
 21
-158.628
  0
LINE
  8
0
 10
183.28
 20
-158.628
 11
183.444
 21
-158.444
  0
LINE
  8
0
 10
183.444
 20
-158.444
 11
183.628
 21
-158.28
  0
LINE
  8
0
 10
183.628
 20
-158.28
 11
183.83
 21
-158.137
  0
LINE
  8
0
 10
183.83
 20
-158.137
 11
184.045
 21
-158.018
  0
LINE
  8
0
 10
184.045
 20
-158.018
 11
184.273
 21
-157.923
  0
LINE
  8
0
 10
184.273
 20
-157.923
 11
184.51
 21
-157.855
  0
LINE
  8
0
 10
184.51
 20
-157.855
 11
184.754
 21
-157.814
  0
LINE
  8
0
 10
184.754
 20
-157.814
 11
185
 21
-157.8
  0
LINE
  8
0
 10
185
 20
-157.8
 11
185.246
 21
-157.814
  0
LINE
  8
0
 10
185.246
 20
-157.814
 11
185.49
 21
-157.855
  0
LINE
  8
0
 10
185.49
 20
-157.855
 11
185.727
 21
-157.923
  0
LINE
  8
0
 10
185.727
 20
-157.923
 11
185.955
 21
-158.018
  0
LINE
  8
0
 10
185.955
 20
-158.018
 11
186.17
 21
-158.137
  0
LINE
  8
0
 10
186.17
 20
-158.137
 11
186.372
 21
-158.28
  0
LINE
  8
0
 10
186.372
 20
-158.28
 11
186.556
 21
-158.444
  0
LINE
  8
0
 10
186.556
 20
-158.444
 11
186.72
 21
-158.628
  0
LINE
  8
0
 10
186.72
 20
-158.628
 11
186.863
 21
-158.83
  0
LINE
  8
0
 10
186.863
 20
-158.83
 11
186.982
 21
-159.045
  0
LINE
  8
0
 10
186.982
 20
-159.045
 11
187.077
 21
-159.273
  0
LINE
  8
0
 10
187.077
 20
-159.273
 11
187.145
 21
-159.51
  0
LINE
  8
0
 10
187.145
 20
-159.51
 11
187.186
 21
-159.754
  0
LINE
  8
0
 10
187.186
 20
-159.754
 11
187.2
 21
-160
  0
LINE
  8
0
 10
187.2
 20
-160
 11
187.186
 21
-160.246
  0
LINE
  8
0
 10
187.186
 20
-160.246
 11
187.145
 21
-160.49
  0
LINE
  8
0
 10
187.145
 20
-160.49
 11
187.077
 21
-160.727
  0
LINE
  8
0
 10
187.077
 20
-160.727
 11
186.982
 21
-160.955
  0
LINE
  8
0
 10
186.982
 20
-160.955
 11
186.863
 21
-161.17
  0
LINE
  8
0
 10
186.863
 20
-161.17
 11
186.72
 21
-161.372
  0
LINE
  8
0
 10
186.72
 20
-161.372
 11
186.556
 21
-161.556
  0
LINE
  8
0
 10
186.556
 20
-161.556
 11
186.372
 21
-161.72
  0
LINE
  8
0
 10
186.372
 20
-161.72
 11
186.17
 21
-161.863
  0
LINE
  8
0
 10
186.17
 20
-161.863
 11
185.955
 21
-161.982
  0
LINE
  8
0
 10
185.955
 20
-161.982
 11
185.727
 21
-162.077
  0
LINE
  8
0
 10
185.727
 20
-162.077
 11
185.49
 21
-162.145
  0
LINE
  8
0
 10
185.49
 20
-162.145
 11
185.246
 21
-162.186
  0
LINE
  8
0
 10
185.246
 20
-162.186
 11
185
 21
-162.2
  0
LINE
  8
0
 10
185
 20
-162.2
 11
184.754
 21
-162.186
  0
LINE
  8
0
 10
-155.246
 20
-172.186
 11
-155.49
 21
-172.145
  0
LINE
  8
0
 10
-155.49
 20
-172.145
 11
-155.727
 21
-172.077
  0
LINE
  8
0
 10
-155.727
 20
-172.077
 11
-155.955
 21
-171.982
  0
LINE
  8
0
 10
-155.955
 20
-171.982
 11
-156.17
 21
-171.863
  0
LINE
  8
0
 10
-156.17
 20
-171.863
 11
-156.372
 21
-171.72
  0
LINE
  8
0
 10
-156.372
 20
-171.72
 11
-156.556
 21
-171.556
  0
LINE
  8
0
 10
-156.556
 20
-171.556
 11
-156.72
 21
-171.372
  0
LINE
  8
0
 10
-156.72
 20
-171.372
 11
-156.863
 21
-171.17
  0
LINE
  8
0
 10
-156.863
 20
-171.17
 11
-156.982
 21
-170.955
  0
LINE
  8
0
 10
-156.982
 20
-170.955
 11
-157.077
 21
-170.727
  0
LINE
  8
0
 10
-157.077
 20
-170.727
 11
-157.145
 21
-170.49
  0
LINE
  8
0
 10
-157.145
 20
-170.49
 11
-157.186
 21
-170.246
  0
LINE
  8
0
 10
-157.186
 20
-170.246
 11
-157.2
 21
-170
  0
LINE
  8
0
 10
-157.2
 20
-170
 11
-157.186
 21
-169.754
  0
LINE
  8
0
 10
-157.186
 20
-169.754
 11
-157.145
 21
-169.51
  0
LINE
  8
0
 10
-157.145
 20
-169.51
 11
-157.077
 21
-169.273
  0
LINE
  8
0
 10
-157.077
 20
-169.273
 11
-156.982
 21
-169.045
  0
LINE
  8
0
 10
-156.982
 20
-169.045
 11
-156.863
 21
-168.83
  0
LINE
  8
0
 10
-156.863
 20
-168.83
 11
-156.72
 21
-168.628
  0
LINE
  8
0
 10
-156.72
 20
-168.628
 11
-156.556
 21
-168.444
  0
LINE
  8
0
 10
-156.556
 20
-168.444
 11
-156.372
 21
-168.28
  0
LINE
  8
0
 10
-156.372
 20
-168.28
 11
-156.17
 21
-168.137
  0
LINE
  8
0
 10
-156.17
 20
-168.137
 11
-155.955
 21
-168.018
  0
LINE
  8
0
 10
-155.955
 20
-168.018
 11
-155.727
 21
-167.923
  0
LINE
  8
0
 10
-155.727
 20
-167.923
 11
-155.49
 21
-167.855
  0
LINE
  8
0
 10
-155.49
 20
-167.855
 11
-155.246
 21
-167.814
  0
LINE
  8
0
 10
-155.246
 20
-167.814
 11
-155
 21
-167.8
  0
LINE
  8
0
 10
-155
 20
-167.8
 11
-154.754
 21
-167.814
  0
LINE
  8
0
 10
-154.754
 20
-167.814
 11
-154.51
 21
-167.855
  0
LINE
  8
0
 10
-154.51
 20
-167.855
 11
-154.273
 21
-167.923
  0
LINE
  8
0
 10
-154.273
 20
-167.923
 11
-154.045
 21
-168.018
  0
LINE
  8
0
 10
-154.045
 20
-168.018
 11
-153.83
 21
-168.137
  0
LINE
  8
0
 10
-153.83
 20
-168.137
 11
-153.628
 21
-168.28
  0
LINE
  8
0
 10
-153.628
 20
-168.28
 11
-153.444
 21
-168.444
  0
LINE
  8
0
 10
-153.444
 20
-168.444
 11
-153.28
 21
-168.628
  0
LINE
  8
0
 10
-153.28
 20
-168.628
 11
-153.137
 21
-168.83
  0
LINE
  8
0
 10
-153.137
 20
-168.83
 11
-153.018
 21
-169.045
  0
LINE
  8
0
 10
-153.018
 20
-169.045
 11
-152.923
 21
-169.273
  0
LINE
  8
0
 10
-152.923
 20
-169.273
 11
-152.855
 21
-169.51
  0
LINE
  8
0
 10
-152.855
 20
-169.51
 11
-152.814
 21
-169.754
  0
LINE
  8
0
 10
-152.814
 20
-169.754
 11
-152.8
 21
-170
  0
LINE
  8
0
 10
-152.8
 20
-170
 11
-152.814
 21
-170.246
  0
LINE
  8
0
 10
-152.814
 20
-170.246
 11
-152.855
 21
-170.49
  0
LINE
  8
0
 10
-152.855
 20
-170.49
 11
-152.923
 21
-170.727
  0
LINE
  8
0
 10
-152.923
 20
-170.727
 11
-153.018
 21
-170.955
  0
LINE
  8
0
 10
-153.018
 20
-170.955
 11
-153.137
 21
-171.17
  0
LINE
  8
0
 10
-153.137
 20
-171.17
 11
-153.28
 21
-171.372
  0
LINE
  8
0
 10
-153.28
 20
-171.372
 11
-153.444
 21
-171.556
  0
LINE
  8
0
 10
-153.444
 20
-171.556
 11
-153.628
 21
-171.72
  0
LINE
  8
0
 10
-153.628
 20
-171.72
 11
-153.83
 21
-171.863
  0
LINE
  8
0
 10
-153.83
 20
-171.863
 11
-154.045
 21
-171.982
  0
LINE
  8
0
 10
-154.045
 20
-171.982
 11
-154.273
 21
-172.077
  0
LINE
  8
0
 10
-154.273
 20
-172.077
 11
-154.51
 21
-172.145
  0
LINE
  8
0
 10
-154.51
 20
-172.145
 11
-154.754
 21
-172.186
  0
LINE
  8
0
 10
-154.754
 20
-172.186
 11
-155
 21
-172.2
  0
LINE
  8
0
 10
-155
 20
-172.2
 11
-155.246
 21
-172.186
  0
LINE
  8
0
 10
9.75368
 20
-172.186
 11
9.51045
 21
-172.145
  0
LINE
  8
0
 10
9.51045
 20
-172.145
 11
9.27338
 21
-172.077
  0
LINE
  8
0
 10
9.27338
 20
-172.077
 11
9.04544
 21
-171.982
  0
LINE
  8
0
 10
9.04544
 20
-171.982
 11
8.82953
 21
-171.863
  0
LINE
  8
0
 10
8.82953
 20
-171.863
 11
8.62831
 21
-171.72
  0
LINE
  8
0
 10
8.62831
 20
-171.72
 11
8.44435
 21
-171.556
  0
LINE
  8
0
 10
8.44435
 20
-171.556
 11
8.27997
 21
-171.372
  0
LINE
  8
0
 10
8.27997
 20
-171.372
 11
8.13719
 21
-171.17
  0
LINE
  8
0
 10
8.13719
 20
-171.17
 11
8.01787
 21
-170.955
  0
LINE
  8
0
 10
8.01787
 20
-170.955
 11
7.92345
 21
-170.727
  0
LINE
  8
0
 10
7.92345
 20
-170.727
 11
7.85515
 21
-170.49
  0
LINE
  8
0
 10
7.85515
 20
-170.49
 11
7.81383
 21
-170.246
  0
LINE
  8
0
 10
7.81383
 20
-170.246
 11
7.79999
 21
-170
  0
LINE
  8
0
 10
7.79999
 20
-170
 11
7.81383
 21
-169.754
  0
LINE
  8
0
 10
7.81383
 20
-169.754
 11
7.85515
 21
-169.51
  0
LINE
  8
0
 10
7.85515
 20
-169.51
 11
7.92345
 21
-169.273
  0
LINE
  8
0
 10
7.92345
 20
-169.273
 11
8.01787
 21
-169.045
  0
LINE
  8
0
 10
8.01787
 20
-169.045
 11
8.13719
 21
-168.83
  0
LINE
  8
0
 10
8.13719
 20
-168.83
 11
8.27997
 21
-168.628
  0
LINE
  8
0
 10
8.27997
 20
-168.628
 11
8.44435
 21
-168.444
  0
LINE
  8
0
 10
8.44435
 20
-168.444
 11
8.62831
 21
-168.28
  0
LINE
  8
0
 10
8.62831
 20
-168.28
 11
8.82953
 21
-168.137
  0
LINE
  8
0
 10
8.82953
 20
-168.137
 11
9.04544
 21
-168.018
  0
LINE
  8
0
 10
9.04544
 20
-168.018
 11
9.27338
 21
-167.923
  0
LINE
  8
0
 10
9.27338
 20
-167.923
 11
9.51045
 21
-167.855
  0
LINE
  8
0
 10
9.51045
 20
-167.855
 11
9.75368
 21
-167.814
  0
LINE
  8
0
 10
9.75368
 20
-167.814
 11
10
 21
-167.8
  0
LINE
  8
0
 10
10
 20
-167.8
 11
10.2463
 21
-167.814
  0
LINE
  8
0
 10
10.2463
 20
-167.814
 11
10.4895
 21
-167.855
  0
LINE
  8
0
 10
10.4895
 20
-167.855
 11
10.7266
 21
-167.923
  0
LINE
  8
0
 10
10.7266
 20
-167.923
 11
10.9545
 21
-168.018
  0
LINE
  8
0
 10
10.9545
 20
-168.018
 11
11.1705
 21
-168.137
  0
LINE
  8
0
 10
11.1705
 20
-168.137
 11
11.3717
 21
-168.28
  0
LINE
  8
0
 10
11.3717
 20
-168.28
 11
11.5556
 21
-168.444
  0
LINE
  8
0
 10
11.5556
 20
-168.444
 11
11.72
 21
-168.628
  0
LINE
  8
0
 10
11.72
 20
-168.628
 11
11.8628
 21
-168.83
  0
LINE
  8
0
 10
11.8628
 20
-168.83
 11
11.9821
 21
-169.045
  0
LINE
  8
0
 10
11.9821
 20
-169.045
 11
12.0765
 21
-169.273
  0
LINE
  8
0
 10
12.0765
 20
-169.273
 11
12.1448
 21
-169.51
  0
LINE
  8
0
 10
12.1448
 20
-169.51
 11
12.1862
 21
-169.754
  0
LINE
  8
0
 10
12.1862
 20
-169.754
 11
12.2
 21
-170
  0
LINE
  8
0
 10
12.2
 20
-170
 11
12.1862
 21
-170.246
  0
LINE
  8
0
 10
12.1862
 20
-170.246
 11
12.1448
 21
-170.49
  0
LINE
  8
0
 10
12.1448
 20
-170.49
 11
12.0765
 21
-170.727
  0
LINE
  8
0
 10
12.0765
 20
-170.727
 11
11.9821
 21
-170.955
  0
LINE
  8
0
 10
11.9821
 20
-170.955
 11
11.8628
 21
-171.17
  0
LINE
  8
0
 10
11.8628
 20
-171.17
 11
11.72
 21
-171.372
  0
LINE
  8
0
 10
11.72
 20
-171.372
 11
11.5556
 21
-171.556
  0
LINE
  8
0
 10
11.5556
 20
-171.556
 11
11.3717
 21
-171.72
  0
LINE
  8
0
 10
11.3717
 20
-171.72
 11
11.1705
 21
-171.863
  0
LINE
  8
0
 10
11.1705
 20
-171.863
 11
10.9545
 21
-171.982
  0
LINE
  8
0
 10
10.9545
 20
-171.982
 11
10.7266
 21
-172.077
  0
LINE
  8
0
 10
10.7266
 20
-172.077
 11
10.4895
 21
-172.145
  0
LINE
  8
0
 10
10.4895
 20
-172.145
 11
10.2463
 21
-172.186
  0
LINE
  8
0
 10
10.2463
 20
-172.186
 11
10
 21
-172.2
  0
LINE
  8
0
 10
10
 20
-172.2
 11
9.75368
 21
-172.186
  0
LINE
  8
0
 10
154.754
 20
-172.186
 11
154.51
 21
-172.145
  0
LINE
  8
0
 10
154.51
 20
-172.145
 11
154.273
 21
-172.077
  0
LINE
  8
0
 10
154.273
 20
-172.077
 11
154.045
 21
-171.982
  0
LINE
  8
0
 10
154.045
 20
-171.982
 11
153.83
 21
-171.863
  0
LINE
  8
0
 10
153.83
 20
-171.863
 11
153.628
 21
-171.72
  0
LINE
  8
0
 10
153.628
 20
-171.72
 11
153.444
 21
-171.556
  0
LINE
  8
0
 10
153.444
 20
-171.556
 11
153.28
 21
-171.372
  0
LINE
  8
0
 10
153.28
 20
-171.372
 11
153.137
 21
-171.17
  0
LINE
  8
0
 10
153.137
 20
-171.17
 11
153.018
 21
-170.955
  0
LINE
  8
0
 10
153.018
 20
-170.955
 11
152.923
 21
-170.727
  0
LINE
  8
0
 10
152.923
 20
-170.727
 11
152.855
 21
-170.49
  0
LINE
  8
0
 10
152.855
 20
-170.49
 11
152.814
 21
-170.246
  0
LINE
  8
0
 10
152.814
 20
-170.246
 11
152.8
 21
-170
  0
LINE
  8
0
 10
152.8
 20
-170
 11
152.814
 21
-169.754
  0
LINE
  8
0
 10
152.814
 20
-169.754
 11
152.855
 21
-169.51
  0
LINE
  8
0
 10
152.855
 20
-169.51
 11
152.923
 21
-169.273
  0
LINE
  8
0
 10
152.923
 20
-169.273
 11
153.018
 21
-169.045
  0
LINE
  8
0
 10
153.018
 20
-169.045
 11
153.137
 21
-168.83
  0
LINE
  8
0
 10
153.137
 20
-168.83
 11
153.28
 21
-168.628
  0
LINE
  8
0
 10
153.28
 20
-168.628
 11
153.444
 21
-168.444
  0
LINE
  8
0
 10
153.444
 20
-168.444
 11
153.628
 21
-168.28
  0
LINE
  8
0
 10
153.628
 20
-168.28
 11
153.83
 21
-168.137
  0
LINE
  8
0
 10
153.83
 20
-168.137
 11
154.045
 21
-168.018
  0
LINE
  8
0
 10
154.045
 20
-168.018
 11
154.273
 21
-167.923
  0
LINE
  8
0
 10
154.273
 20
-167.923
 11
154.51
 21
-167.855
  0
LINE
  8
0
 10
154.51
 20
-167.855
 11
154.754
 21
-167.814
  0
LINE
  8
0
 10
154.754
 20
-167.814
 11
155
 21
-167.8
  0
LINE
  8
0
 10
155
 20
-167.8
 11
155.246
 21
-167.814
  0
LINE
  8
0
 10
155.246
 20
-167.814
 11
155.49
 21
-167.855
  0
LINE
  8
0
 10
155.49
 20
-167.855
 11
155.727
 21
-167.923
  0
LINE
  8
0
 10
155.727
 20
-167.923
 11
155.955
 21
-168.018
  0
LINE
  8
0
 10
155.955
 20
-168.018
 11
156.17
 21
-168.137
  0
LINE
  8
0
 10
156.17
 20
-168.137
 11
156.372
 21
-168.28
  0
LINE
  8
0
 10
156.372
 20
-168.28
 11
156.556
 21
-168.444
  0
LINE
  8
0
 10
156.556
 20
-168.444
 11
156.72
 21
-168.628
  0
LINE
  8
0
 10
156.72
 20
-168.628
 11
156.863
 21
-168.83
  0
LINE
  8
0
 10
156.863
 20
-168.83
 11
156.982
 21
-169.045
  0
LINE
  8
0
 10
156.982
 20
-169.045
 11
157.077
 21
-169.273
  0
LINE
  8
0
 10
157.077
 20
-169.273
 11
157.145
 21
-169.51
  0
LINE
  8
0
 10
157.145
 20
-169.51
 11
157.186
 21
-169.754
  0
LINE
  8
0
 10
157.186
 20
-169.754
 11
157.2
 21
-170
  0
LINE
  8
0
 10
157.2
 20
-170
 11
157.186
 21
-170.246
  0
LINE
  8
0
 10
157.186
 20
-170.246
 11
157.145
 21
-170.49
  0
LINE
  8
0
 10
157.145
 20
-170.49
 11
157.077
 21
-170.727
  0
LINE
  8
0
 10
157.077
 20
-170.727
 11
156.982
 21
-170.955
  0
LINE
  8
0
 10
156.982
 20
-170.955
 11
156.863
 21
-171.17
  0
LINE
  8
0
 10
156.863
 20
-171.17
 11
156.72
 21
-171.372
  0
LINE
  8
0
 10
156.72
 20
-171.372
 11
156.556
 21
-171.556
  0
LINE
  8
0
 10
156.556
 20
-171.556
 11
156.372
 21
-171.72
  0
LINE
  8
0
 10
156.372
 20
-171.72
 11
156.17
 21
-171.863
  0
LINE
  8
0
 10
156.17
 20
-171.863
 11
155.955
 21
-171.982
  0
LINE
  8
0
 10
155.955
 20
-171.982
 11
155.727
 21
-172.077
  0
LINE
  8
0
 10
155.727
 20
-172.077
 11
155.49
 21
-172.145
  0
LINE
  8
0
 10
155.49
 20
-172.145
 11
155.246
 21
-172.186
  0
LINE
  8
0
 10
155.246
 20
-172.186
 11
155
 21
-172.2
  0
LINE
  8
0
 10
155
 20
-172.2
 11
154.754
 21
-172.186
  0
ENDSEC
  0
SECTION
  2
OBJECTS
  0
DICTIONARY
  0
ENDSEC
  0
EOF
