  0
SECTION
  2
BLOCKS
  0
ENDSEC
  0
SECTION
  2
ENTITIES
  0
LINE
  8
0
 10
146.723
 20
-199.975
 11
146.934
 21
-199.901
  0
LINE
  8
0
 10
146.934
 20
-199.901
 11
147.123
 21
-199.782
  0
LINE
  8
0
 10
147.123
 20
-199.782
 11
147.282
 21
-199.623
  0
LINE
  8
0
 10
147.282
 20
-199.623
 11
147.401
 21
-199.434
  0
LINE
  8
0
 10
147.401
 20
-199.434
 11
147.475
 21
-199.223
  0
LINE
  8
0
 10
147.475
 20
-199.223
 11
147.5
 21
-199
  0
LINE
  8
0
 10
147.5
 20
-199
 11
147.5
 21
199
  0
LINE
  8
0
 10
147.5
 20
199
 11
147.475
 21
199.223
  0
LINE
  8
0
 10
147.475
 20
199.223
 11
147.401
 21
199.434
  0
LINE
  8
0
 10
147.401
 20
199.434
 11
147.282
 21
199.623
  0
LINE
  8
0
 10
147.282
 20
199.623
 11
147.123
 21
199.782
  0
LINE
  8
0
 10
147.123
 20
199.782
 11
146.934
 21
199.901
  0
LINE
  8
0
 10
146.934
 20
199.901
 11
146.723
 21
199.975
  0
LINE
  8
0
 10
146.723
 20
199.975
 11
146.5
 21
200
  0
LINE
  8
0
 10
146.5
 20
200
 11
-146.5
 21
200
  0
LINE
  8
0
 10
-146.5
 20
200
 11
-146.723
 21
199.975
  0
LINE
  8
0
 10
-146.723
 20
199.975
 11
-146.934
 21
199.901
  0
LINE
  8
0
 10
-146.934
 20
199.901
 11
-147.123
 21
199.782
  0
LINE
  8
0
 10
-147.123
 20
199.782
 11
-147.282
 21
199.623
  0
LINE
  8
0
 10
-147.282
 20
199.623
 11
-147.401
 21
199.434
  0
LINE
  8
0
 10
-147.401
 20
199.434
 11
-147.475
 21
199.223
  0
LINE
  8
0
 10
-147.475
 20
199.223
 11
-147.5
 21
199
  0
LINE
  8
0
 10
-147.5
 20
199
 11
-147.5
 21
-199
  0
LINE
  8
0
 10
-147.5
 20
-199
 11
-147.475
 21
-199.223
  0
LINE
  8
0
 10
-147.475
 20
-199.223
 11
-147.401
 21
-199.434
  0
LINE
  8
0
 10
-147.401
 20
-199.434
 11
-147.282
 21
-199.623
  0
LINE
  8
0
 10
-147.282
 20
-199.623
 11
-147.123
 21
-199.782
  0
LINE
  8
0
 10
-147.123
 20
-199.782
 11
-146.934
 21
-199.901
  0
LINE
  8
0
 10
-146.934
 20
-199.901
 11
-146.723
 21
-199.975
  0
LINE
  8
0
 10
-146.723
 20
-199.975
 11
-146.5
 21
-200
  0
LINE
  8
0
 10
-146.5
 20
-200
 11
146.5
 21
-200
  0
LINE
  8
0
 10
146.5
 20
-200
 11
146.723
 21
-199.975
  0
LINE
  8
0
 10
-137.761
 20
187.514
 11
-138.02
 21
187.555
  0
LINE
  8
0
 10
-138.02
 20
187.555
 11
-138.273
 21
187.622
  0
LINE
  8
0
 10
-138.273
 20
187.622
 11
-138.517
 21
187.716
  0
LINE
  8
0
 10
-138.517
 20
187.716
 11
-138.75
 21
187.835
  0
LINE
  8
0
 10
-138.75
 20
187.835
 11
-138.969
 21
187.977
  0
LINE
  8
0
 10
-138.969
 20
187.977
 11
-139.173
 21
188.142
  0
LINE
  8
0
 10
-139.173
 20
188.142
 11
-139.358
 21
188.327
  0
LINE
  8
0
 10
-139.358
 20
188.327
 11
-139.523
 21
188.531
  0
LINE
  8
0
 10
-139.523
 20
188.531
 11
-139.665
 21
188.75
  0
LINE
  8
0
 10
-139.665
 20
188.75
 11
-139.784
 21
188.983
  0
LINE
  8
0
 10
-139.784
 20
188.983
 11
-139.878
 21
189.227
  0
LINE
  8
0
 10
-139.878
 20
189.227
 11
-139.945
 21
189.48
  0
LINE
  8
0
 10
-139.945
 20
189.48
 11
-139.986
 21
189.739
  0
LINE
  8
0
 10
-139.986
 20
189.739
 11
-140
 21
190
  0
LINE
  8
0
 10
-140
 20
190
 11
-139.986
 21
190.261
  0
LINE
  8
0
 10
-139.986
 20
190.261
 11
-139.945
 21
190.52
  0
LINE
  8
0
 10
-139.945
 20
190.52
 11
-139.878
 21
190.773
  0
LINE
  8
0
 10
-139.878
 20
190.773
 11
-139.784
 21
191.017
  0
LINE
  8
0
 10
-139.784
 20
191.017
 11
-139.665
 21
191.25
  0
LINE
  8
0
 10
-139.665
 20
191.25
 11
-139.523
 21
191.469
  0
LINE
  8
0
 10
-139.523
 20
191.469
 11
-139.358
 21
191.673
  0
LINE
  8
0
 10
-139.358
 20
191.673
 11
-139.173
 21
191.858
  0
LINE
  8
0
 10
-139.173
 20
191.858
 11
-138.969
 21
192.023
  0
LINE
  8
0
 10
-138.969
 20
192.023
 11
-138.75
 21
192.165
  0
LINE
  8
0
 10
-138.75
 20
192.165
 11
-138.517
 21
192.284
  0
LINE
  8
0
 10
-138.517
 20
192.284
 11
-138.273
 21
192.378
  0
LINE
  8
0
 10
-138.273
 20
192.378
 11
-138.02
 21
192.445
  0
LINE
  8
0
 10
-138.02
 20
192.445
 11
-137.761
 21
192.486
  0
LINE
  8
0
 10
-137.761
 20
192.486
 11
-137.5
 21
192.5
  0
LINE
  8
0
 10
-137.5
 20
192.5
 11
-137.239
 21
192.486
  0
LINE
  8
0
 10
-137.239
 20
192.486
 11
-136.98
 21
192.445
  0
LINE
  8
0
 10
-136.98
 20
192.445
 11
-136.727
 21
192.378
  0
LINE
  8
0
 10
-136.727
 20
192.378
 11
-136.483
 21
192.284
  0
LINE
  8
0
 10
-136.483
 20
192.284
 11
-136.25
 21
192.165
  0
LINE
  8
0
 10
-136.25
 20
192.165
 11
-136.031
 21
192.023
  0
LINE
  8
0
 10
-136.031
 20
192.023
 11
-135.827
 21
191.858
  0
LINE
  8
0
 10
-135.827
 20
191.858
 11
-135.642
 21
191.673
  0
LINE
  8
0
 10
-135.642
 20
191.673
 11
-135.477
 21
191.469
  0
LINE
  8
0
 10
-135.477
 20
191.469
 11
-135.335
 21
191.25
  0
LINE
  8
0
 10
-135.335
 20
191.25
 11
-135.216
 21
191.017
  0
LINE
  8
0
 10
-135.216
 20
191.017
 11
-135.122
 21
190.773
  0
LINE
  8
0
 10
-135.122
 20
190.773
 11
-135.055
 21
190.52
  0
LINE
  8
0
 10
-135.055
 20
190.52
 11
-135.014
 21
190.261
  0
LINE
  8
0
 10
-135.014
 20
190.261
 11
-135
 21
190
  0
LINE
  8
0
 10
-135
 20
190
 11
-135.014
 21
189.739
  0
LINE
  8
0
 10
-135.014
 20
189.739
 11
-135.055
 21
189.48
  0
LINE
  8
0
 10
-135.055
 20
189.48
 11
-135.122
 21
189.227
  0
LINE
  8
0
 10
-135.122
 20
189.227
 11
-135.216
 21
188.983
  0
LINE
  8
0
 10
-135.216
 20
188.983
 11
-135.335
 21
188.75
  0
LINE
  8
0
 10
-135.335
 20
188.75
 11
-135.477
 21
188.531
  0
LINE
  8
0
 10
-135.477
 20
188.531
 11
-135.642
 21
188.327
  0
LINE
  8
0
 10
-135.642
 20
188.327
 11
-135.827
 21
188.142
  0
LINE
  8
0
 10
-135.827
 20
188.142
 11
-136.031
 21
187.977
  0
LINE
  8
0
 10
-136.031
 20
187.977
 11
-136.25
 21
187.835
  0
LINE
  8
0
 10
-136.25
 20
187.835
 11
-136.483
 21
187.716
  0
LINE
  8
0
 10
-136.483
 20
187.716
 11
-136.727
 21
187.622
  0
LINE
  8
0
 10
-136.727
 20
187.622
 11
-136.98
 21
187.555
  0
LINE
  8
0
 10
-136.98
 20
187.555
 11
-137.239
 21
187.514
  0
LINE
  8
0
 10
-137.239
 20
187.514
 11
-137.5
 21
187.5
  0
LINE
  8
0
 10
-137.5
 20
187.5
 11
-137.761
 21
187.514
  0
LINE
  8
0
 10
127.254
 20
187.814
 11
127.01
 21
187.855
  0
LINE
  8
0
 10
127.01
 20
187.855
 11
126.773
 21
187.923
  0
LINE
  8
0
 10
126.773
 20
187.923
 11
126.545
 21
188.018
  0
LINE
  8
0
 10
126.545
 20
188.018
 11
126.33
 21
188.137
  0
LINE
  8
0
 10
126.33
 20
188.137
 11
126.128
 21
188.28
  0
LINE
  8
0
 10
126.128
 20
188.28
 11
125.944
 21
188.444
  0
LINE
  8
0
 10
125.944
 20
188.444
 11
125.78
 21
188.628
  0
LINE
  8
0
 10
125.78
 20
188.628
 11
125.637
 21
188.83
  0
LINE
  8
0
 10
125.637
 20
188.83
 11
125.518
 21
189.045
  0
LINE
  8
0
 10
125.518
 20
189.045
 11
125.423
 21
189.273
  0
LINE
  8
0
 10
125.423
 20
189.273
 11
125.355
 21
189.51
  0
LINE
  8
0
 10
125.355
 20
189.51
 11
125.314
 21
189.754
  0
LINE
  8
0
 10
125.314
 20
189.754
 11
125.3
 21
190
  0
LINE
  8
0
 10
125.3
 20
190
 11
125.314
 21
190.246
  0
LINE
  8
0
 10
125.314
 20
190.246
 11
125.355
 21
190.49
  0
LINE
  8
0
 10
125.355
 20
190.49
 11
125.423
 21
190.727
  0
LINE
  8
0
 10
125.423
 20
190.727
 11
125.518
 21
190.955
  0
LINE
  8
0
 10
125.518
 20
190.955
 11
125.637
 21
191.17
  0
LINE
  8
0
 10
125.637
 20
191.17
 11
125.78
 21
191.372
  0
LINE
  8
0
 10
125.78
 20
191.372
 11
125.944
 21
191.556
  0
LINE
  8
0
 10
125.944
 20
191.556
 11
126.128
 21
191.72
  0
LINE
  8
0
 10
126.128
 20
191.72
 11
126.33
 21
191.863
  0
LINE
  8
0
 10
126.33
 20
191.863
 11
126.545
 21
191.982
  0
LINE
  8
0
 10
126.545
 20
191.982
 11
126.773
 21
192.077
  0
LINE
  8
0
 10
126.773
 20
192.077
 11
127.01
 21
192.145
  0
LINE
  8
0
 10
127.01
 20
192.145
 11
127.254
 21
192.186
  0
LINE
  8
0
 10
127.254
 20
192.186
 11
127.5
 21
192.2
  0
LINE
  8
0
 10
127.5
 20
192.2
 11
127.746
 21
192.186
  0
LINE
  8
0
 10
127.746
 20
192.186
 11
127.99
 21
192.145
  0
LINE
  8
0
 10
127.99
 20
192.145
 11
128.227
 21
192.077
  0
LINE
  8
0
 10
128.227
 20
192.077
 11
128.455
 21
191.982
  0
LINE
  8
0
 10
128.455
 20
191.982
 11
128.67
 21
191.863
  0
LINE
  8
0
 10
128.67
 20
191.863
 11
128.872
 21
191.72
  0
LINE
  8
0
 10
128.872
 20
191.72
 11
129.056
 21
191.556
  0
LINE
  8
0
 10
129.056
 20
191.556
 11
129.22
 21
191.372
  0
LINE
  8
0
 10
129.22
 20
191.372
 11
129.363
 21
191.17
  0
LINE
  8
0
 10
129.363
 20
191.17
 11
129.482
 21
190.955
  0
LINE
  8
0
 10
129.482
 20
190.955
 11
129.577
 21
190.727
  0
LINE
  8
0
 10
129.577
 20
190.727
 11
129.645
 21
190.49
  0
LINE
  8
0
 10
129.645
 20
190.49
 11
129.686
 21
190.246
  0
LINE
  8
0
 10
129.686
 20
190.246
 11
129.7
 21
190
  0
LINE
  8
0
 10
129.7
 20
190
 11
129.686
 21
189.754
  0
LINE
  8
0
 10
129.686
 20
189.754
 11
129.645
 21
189.51
  0
LINE
  8
0
 10
129.645
 20
189.51
 11
129.577
 21
189.273
  0
LINE
  8
0
 10
129.577
 20
189.273
 11
129.482
 21
189.045
  0
LINE
  8
0
 10
129.482
 20
189.045
 11
129.363
 21
188.83
  0
LINE
  8
0
 10
129.363
 20
188.83
 11
129.22
 21
188.628
  0
LINE
  8
0
 10
129.22
 20
188.628
 11
129.056
 21
188.444
  0
LINE
  8
0
 10
129.056
 20
188.444
 11
128.872
 21
188.28
  0
LINE
  8
0
 10
128.872
 20
188.28
 11
128.67
 21
188.137
  0
LINE
  8
0
 10
128.67
 20
188.137
 11
128.455
 21
188.018
  0
LINE
  8
0
 10
128.455
 20
188.018
 11
128.227
 21
187.923
  0
LINE
  8
0
 10
128.227
 20
187.923
 11
127.99
 21
187.855
  0
LINE
  8
0
 10
127.99
 20
187.855
 11
127.746
 21
187.814
  0
LINE
  8
0
 10
127.746
 20
187.814
 11
127.5
 21
187.8
  0
LINE
  8
0
 10
127.5
 20
187.8
 11
127.254
 21
187.814
  0
LINE
  8
0
 10
9.75368
 20
187.814
 11
9.51045
 21
187.855
  0
LINE
  8
0
 10
9.51045
 20
187.855
 11
9.27338
 21
187.923
  0
LINE
  8
0
 10
9.27338
 20
187.923
 11
9.04544
 21
188.018
  0
LINE
  8
0
 10
9.04544
 20
188.018
 11
8.82953
 21
188.137
  0
LINE
  8
0
 10
8.82953
 20
188.137
 11
8.62831
 21
188.28
  0
LINE
  8
0
 10
8.62831
 20
188.28
 11
8.44435
 21
188.444
  0
LINE
  8
0
 10
8.44435
 20
188.444
 11
8.27997
 21
188.628
  0
LINE
  8
0
 10
8.27997
 20
188.628
 11
8.13719
 21
188.83
  0
LINE
  8
0
 10
8.13719
 20
188.83
 11
8.01787
 21
189.045
  0
LINE
  8
0
 10
8.01787
 20
189.045
 11
7.92345
 21
189.273
  0
LINE
  8
0
 10
7.92345
 20
189.273
 11
7.85515
 21
189.51
  0
LINE
  8
0
 10
7.85515
 20
189.51
 11
7.81383
 21
189.754
  0
LINE
  8
0
 10
7.81383
 20
189.754
 11
7.79999
 21
190
  0
LINE
  8
0
 10
7.79999
 20
190
 11
7.81383
 21
190.246
  0
LINE
  8
0
 10
7.81383
 20
190.246
 11
7.85515
 21
190.49
  0
LINE
  8
0
 10
7.85515
 20
190.49
 11
7.92345
 21
190.727
  0
LINE
  8
0
 10
7.92345
 20
190.727
 11
8.01787
 21
190.955
  0
LINE
  8
0
 10
8.01787
 20
190.955
 11
8.13719
 21
191.17
  0
LINE
  8
0
 10
8.13719
 20
191.17
 11
8.27997
 21
191.372
  0
LINE
  8
0
 10
8.27997
 20
191.372
 11
8.44435
 21
191.556
  0
LINE
  8
0
 10
8.44435
 20
191.556
 11
8.62831
 21
191.72
  0
LINE
  8
0
 10
8.62831
 20
191.72
 11
8.82953
 21
191.863
  0
LINE
  8
0
 10
8.82953
 20
191.863
 11
9.04544
 21
191.982
  0
LINE
  8
0
 10
9.04544
 20
191.982
 11
9.27338
 21
192.077
  0
LINE
  8
0
 10
9.27338
 20
192.077
 11
9.51045
 21
192.145
  0
LINE
  8
0
 10
9.51045
 20
192.145
 11
9.75368
 21
192.186
  0
LINE
  8
0
 10
9.75368
 20
192.186
 11
10
 21
192.2
  0
LINE
  8
0
 10
10
 20
192.2
 11
10.2463
 21
192.186
  0
LINE
  8
0
 10
10.2463
 20
192.186
 11
10.4895
 21
192.145
  0
LINE
  8
0
 10
10.4895
 20
192.145
 11
10.7266
 21
192.077
  0
LINE
  8
0
 10
10.7266
 20
192.077
 11
10.9545
 21
191.982
  0
LINE
  8
0
 10
10.9545
 20
191.982
 11
11.1705
 21
191.863
  0
LINE
  8
0
 10
11.1705
 20
191.863
 11
11.3717
 21
191.72
  0
LINE
  8
0
 10
11.3717
 20
191.72
 11
11.5556
 21
191.556
  0
LINE
  8
0
 10
11.5556
 20
191.556
 11
11.72
 21
191.372
  0
LINE
  8
0
 10
11.72
 20
191.372
 11
11.8628
 21
191.17
  0
LINE
  8
0
 10
11.8628
 20
191.17
 11
11.9821
 21
190.955
  0
LINE
  8
0
 10
11.9821
 20
190.955
 11
12.0765
 21
190.727
  0
LINE
  8
0
 10
12.0765
 20
190.727
 11
12.1448
 21
190.49
  0
LINE
  8
0
 10
12.1448
 20
190.49
 11
12.1862
 21
190.246
  0
LINE
  8
0
 10
12.1862
 20
190.246
 11
12.2
 21
190
  0
LINE
  8
0
 10
12.2
 20
190
 11
12.1862
 21
189.754
  0
LINE
  8
0
 10
12.1862
 20
189.754
 11
12.1448
 21
189.51
  0
LINE
  8
0
 10
12.1448
 20
189.51
 11
12.0765
 21
189.273
  0
LINE
  8
0
 10
12.0765
 20
189.273
 11
11.9821
 21
189.045
  0
LINE
  8
0
 10
11.9821
 20
189.045
 11
11.8628
 21
188.83
  0
LINE
  8
0
 10
11.8628
 20
188.83
 11
11.72
 21
188.628
  0
LINE
  8
0
 10
11.72
 20
188.628
 11
11.5556
 21
188.444
  0
LINE
  8
0
 10
11.5556
 20
188.444
 11
11.3717
 21
188.28
  0
LINE
  8
0
 10
11.3717
 20
188.28
 11
11.1705
 21
188.137
  0
LINE
  8
0
 10
11.1705
 20
188.137
 11
10.9545
 21
188.018
  0
LINE
  8
0
 10
10.9545
 20
188.018
 11
10.7266
 21
187.923
  0
LINE
  8
0
 10
10.7266
 20
187.923
 11
10.4895
 21
187.855
  0
LINE
  8
0
 10
10.4895
 20
187.855
 11
10.2463
 21
187.814
  0
LINE
  8
0
 10
10.2463
 20
187.814
 11
10
 21
187.8
  0
LINE
  8
0
 10
10
 20
187.8
 11
9.75368
 21
187.814
  0
LINE
  8
0
 10
-107.746
 20
187.814
 11
-107.99
 21
187.855
  0
LINE
  8
0
 10
-107.99
 20
187.855
 11
-108.227
 21
187.923
  0
LINE
  8
0
 10
-108.227
 20
187.923
 11
-108.455
 21
188.018
  0
LINE
  8
0
 10
-108.455
 20
188.018
 11
-108.67
 21
188.137
  0
LINE
  8
0
 10
-108.67
 20
188.137
 11
-108.872
 21
188.28
  0
LINE
  8
0
 10
-108.872
 20
188.28
 11
-109.056
 21
188.444
  0
LINE
  8
0
 10
-109.056
 20
188.444
 11
-109.22
 21
188.628
  0
LINE
  8
0
 10
-109.22
 20
188.628
 11
-109.363
 21
188.83
  0
LINE
  8
0
 10
-109.363
 20
188.83
 11
-109.482
 21
189.045
  0
LINE
  8
0
 10
-109.482
 20
189.045
 11
-109.577
 21
189.273
  0
LINE
  8
0
 10
-109.577
 20
189.273
 11
-109.645
 21
189.51
  0
LINE
  8
0
 10
-109.645
 20
189.51
 11
-109.686
 21
189.754
  0
LINE
  8
0
 10
-109.686
 20
189.754
 11
-109.7
 21
190
  0
LINE
  8
0
 10
-109.7
 20
190
 11
-109.686
 21
190.246
  0
LINE
  8
0
 10
-109.686
 20
190.246
 11
-109.645
 21
190.49
  0
LINE
  8
0
 10
-109.645
 20
190.49
 11
-109.577
 21
190.727
  0
LINE
  8
0
 10
-109.577
 20
190.727
 11
-109.482
 21
190.955
  0
LINE
  8
0
 10
-109.482
 20
190.955
 11
-109.363
 21
191.17
  0
LINE
  8
0
 10
-109.363
 20
191.17
 11
-109.22
 21
191.372
  0
LINE
  8
0
 10
-109.22
 20
191.372
 11
-109.056
 21
191.556
  0
LINE
  8
0
 10
-109.056
 20
191.556
 11
-108.872
 21
191.72
  0
LINE
  8
0
 10
-108.872
 20
191.72
 11
-108.67
 21
191.863
  0
LINE
  8
0
 10
-108.67
 20
191.863
 11
-108.455
 21
191.982
  0
LINE
  8
0
 10
-108.455
 20
191.982
 11
-108.227
 21
192.077
  0
LINE
  8
0
 10
-108.227
 20
192.077
 11
-107.99
 21
192.145
  0
LINE
  8
0
 10
-107.99
 20
192.145
 11
-107.746
 21
192.186
  0
LINE
  8
0
 10
-107.746
 20
192.186
 11
-107.5
 21
192.2
  0
LINE
  8
0
 10
-107.5
 20
192.2
 11
-107.254
 21
192.186
  0
LINE
  8
0
 10
-107.254
 20
192.186
 11
-107.01
 21
192.145
  0
LINE
  8
0
 10
-107.01
 20
192.145
 11
-106.773
 21
192.077
  0
LINE
  8
0
 10
-106.773
 20
192.077
 11
-106.545
 21
191.982
  0
LINE
  8
0
 10
-106.545
 20
191.982
 11
-106.33
 21
191.863
  0
LINE
  8
0
 10
-106.33
 20
191.863
 11
-106.128
 21
191.72
  0
LINE
  8
0
 10
-106.128
 20
191.72
 11
-105.944
 21
191.556
  0
LINE
  8
0
 10
-105.944
 20
191.556
 11
-105.78
 21
191.372
  0
LINE
  8
0
 10
-105.78
 20
191.372
 11
-105.637
 21
191.17
  0
LINE
  8
0
 10
-105.637
 20
191.17
 11
-105.518
 21
190.955
  0
LINE
  8
0
 10
-105.518
 20
190.955
 11
-105.423
 21
190.727
  0
LINE
  8
0
 10
-105.423
 20
190.727
 11
-105.355
 21
190.49
  0
LINE
  8
0
 10
-105.355
 20
190.49
 11
-105.314
 21
190.246
  0
LINE
  8
0
 10
-105.314
 20
190.246
 11
-105.3
 21
190
  0
LINE
  8
0
 10
-105.3
 20
190
 11
-105.314
 21
189.754
  0
LINE
  8
0
 10
-105.314
 20
189.754
 11
-105.355
 21
189.51
  0
LINE
  8
0
 10
-105.355
 20
189.51
 11
-105.423
 21
189.273
  0
LINE
  8
0
 10
-105.423
 20
189.273
 11
-105.518
 21
189.045
  0
LINE
  8
0
 10
-105.518
 20
189.045
 11
-105.637
 21
188.83
  0
LINE
  8
0
 10
-105.637
 20
188.83
 11
-105.78
 21
188.628
  0
LINE
  8
0
 10
-105.78
 20
188.628
 11
-105.944
 21
188.444
  0
LINE
  8
0
 10
-105.944
 20
188.444
 11
-106.128
 21
188.28
  0
LINE
  8
0
 10
-106.128
 20
188.28
 11
-106.33
 21
188.137
  0
LINE
  8
0
 10
-106.33
 20
188.137
 11
-106.545
 21
188.018
  0
LINE
  8
0
 10
-106.545
 20
188.018
 11
-106.773
 21
187.923
  0
LINE
  8
0
 10
-106.773
 20
187.923
 11
-107.01
 21
187.855
  0
LINE
  8
0
 10
-107.01
 20
187.855
 11
-107.254
 21
187.814
  0
LINE
  8
0
 10
-107.254
 20
187.814
 11
-107.5
 21
187.8
  0
LINE
  8
0
 10
-107.5
 20
187.8
 11
-107.746
 21
187.814
  0
LINE
  8
0
 10
-137.746
 20
177.814
 11
-137.99
 21
177.855
  0
LINE
  8
0
 10
-137.99
 20
177.855
 11
-138.227
 21
177.923
  0
LINE
  8
0
 10
-138.227
 20
177.923
 11
-138.455
 21
178.018
  0
LINE
  8
0
 10
-138.455
 20
178.018
 11
-138.67
 21
178.137
  0
LINE
  8
0
 10
-138.67
 20
178.137
 11
-138.872
 21
178.28
  0
LINE
  8
0
 10
-138.872
 20
178.28
 11
-139.056
 21
178.444
  0
LINE
  8
0
 10
-139.056
 20
178.444
 11
-139.22
 21
178.628
  0
LINE
  8
0
 10
-139.22
 20
178.628
 11
-139.363
 21
178.83
  0
LINE
  8
0
 10
-139.363
 20
178.83
 11
-139.482
 21
179.045
  0
LINE
  8
0
 10
-139.482
 20
179.045
 11
-139.577
 21
179.273
  0
LINE
  8
0
 10
-139.577
 20
179.273
 11
-139.645
 21
179.51
  0
LINE
  8
0
 10
-139.645
 20
179.51
 11
-139.686
 21
179.754
  0
LINE
  8
0
 10
-139.686
 20
179.754
 11
-139.7
 21
180
  0
LINE
  8
0
 10
-139.7
 20
180
 11
-139.686
 21
180.246
  0
LINE
  8
0
 10
-139.686
 20
180.246
 11
-139.645
 21
180.49
  0
LINE
  8
0
 10
-139.645
 20
180.49
 11
-139.577
 21
180.727
  0
LINE
  8
0
 10
-139.577
 20
180.727
 11
-139.482
 21
180.955
  0
LINE
  8
0
 10
-139.482
 20
180.955
 11
-139.363
 21
181.17
  0
LINE
  8
0
 10
-139.363
 20
181.17
 11
-139.22
 21
181.372
  0
LINE
  8
0
 10
-139.22
 20
181.372
 11
-139.056
 21
181.556
  0
LINE
  8
0
 10
-139.056
 20
181.556
 11
-138.872
 21
181.72
  0
LINE
  8
0
 10
-138.872
 20
181.72
 11
-138.67
 21
181.863
  0
LINE
  8
0
 10
-138.67
 20
181.863
 11
-138.455
 21
181.982
  0
LINE
  8
0
 10
-138.455
 20
181.982
 11
-138.227
 21
182.077
  0
LINE
  8
0
 10
-138.227
 20
182.077
 11
-137.99
 21
182.145
  0
LINE
  8
0
 10
-137.99
 20
182.145
 11
-137.746
 21
182.186
  0
LINE
  8
0
 10
-137.746
 20
182.186
 11
-137.5
 21
182.2
  0
LINE
  8
0
 10
-137.5
 20
182.2
 11
-137.254
 21
182.186
  0
LINE
  8
0
 10
-137.254
 20
182.186
 11
-137.01
 21
182.145
  0
LINE
  8
0
 10
-137.01
 20
182.145
 11
-136.773
 21
182.077
  0
LINE
  8
0
 10
-136.773
 20
182.077
 11
-136.545
 21
181.982
  0
LINE
  8
0
 10
-136.545
 20
181.982
 11
-136.33
 21
181.863
  0
LINE
  8
0
 10
-136.33
 20
181.863
 11
-136.128
 21
181.72
  0
LINE
  8
0
 10
-136.128
 20
181.72
 11
-135.944
 21
181.556
  0
LINE
  8
0
 10
-135.944
 20
181.556
 11
-135.78
 21
181.372
  0
LINE
  8
0
 10
-135.78
 20
181.372
 11
-135.637
 21
181.17
  0
LINE
  8
0
 10
-135.637
 20
181.17
 11
-135.518
 21
180.955
  0
LINE
  8
0
 10
-135.518
 20
180.955
 11
-135.423
 21
180.727
  0
LINE
  8
0
 10
-135.423
 20
180.727
 11
-135.355
 21
180.49
  0
LINE
  8
0
 10
-135.355
 20
180.49
 11
-135.314
 21
180.246
  0
LINE
  8
0
 10
-135.314
 20
180.246
 11
-135.3
 21
180
  0
LINE
  8
0
 10
-135.3
 20
180
 11
-135.314
 21
179.754
  0
LINE
  8
0
 10
-135.314
 20
179.754
 11
-135.355
 21
179.51
  0
LINE
  8
0
 10
-135.355
 20
179.51
 11
-135.423
 21
179.273
  0
LINE
  8
0
 10
-135.423
 20
179.273
 11
-135.518
 21
179.045
  0
LINE
  8
0
 10
-135.518
 20
179.045
 11
-135.637
 21
178.83
  0
LINE
  8
0
 10
-135.637
 20
178.83
 11
-135.78
 21
178.628
  0
LINE
  8
0
 10
-135.78
 20
178.628
 11
-135.944
 21
178.444
  0
LINE
  8
0
 10
-135.944
 20
178.444
 11
-136.128
 21
178.28
  0
LINE
  8
0
 10
-136.128
 20
178.28
 11
-136.33
 21
178.137
  0
LINE
  8
0
 10
-136.33
 20
178.137
 11
-136.545
 21
178.018
  0
LINE
  8
0
 10
-136.545
 20
178.018
 11
-136.773
 21
177.923
  0
LINE
  8
0
 10
-136.773
 20
177.923
 11
-137.01
 21
177.855
  0
LINE
  8
0
 10
-137.01
 20
177.855
 11
-137.254
 21
177.814
  0
LINE
  8
0
 10
-137.254
 20
177.814
 11
-137.5
 21
177.8
  0
LINE
  8
0
 10
-137.5
 20
177.8
 11
-137.746
 21
177.814
  0
LINE
  8
0
 10
-137.746
 20
57.8138
 11
-137.99
 21
57.8551
  0
LINE
  8
0
 10
-137.99
 20
57.8551
 11
-138.227
 21
57.9234
  0
LINE
  8
0
 10
-138.227
 20
57.9234
 11
-138.455
 21
58.0179
  0
LINE
  8
0
 10
-138.455
 20
58.0179
 11
-138.67
 21
58.1372
  0
LINE
  8
0
 10
-138.67
 20
58.1372
 11
-138.872
 21
58.28
  0
LINE
  8
0
 10
-138.872
 20
58.28
 11
-139.056
 21
58.4444
  0
LINE
  8
0
 10
-139.056
 20
58.4444
 11
-139.22
 21
58.6283
  0
LINE
  8
0
 10
-139.22
 20
58.6283
 11
-139.363
 21
58.8295
  0
LINE
  8
0
 10
-139.363
 20
58.8295
 11
-139.482
 21
59.0454
  0
LINE
  8
0
 10
-139.482
 20
59.0454
 11
-139.577
 21
59.2734
  0
LINE
  8
0
 10
-139.577
 20
59.2734
 11
-139.645
 21
59.5105
  0
LINE
  8
0
 10
-139.645
 20
59.5105
 11
-139.686
 21
59.7537
  0
LINE
  8
0
 10
-139.686
 20
59.7537
 11
-139.7
 21
60
  0
LINE
  8
0
 10
-139.7
 20
60
 11
-139.686
 21
60.2463
  0
LINE
  8
0
 10
-139.686
 20
60.2463
 11
-139.645
 21
60.4895
  0
LINE
  8
0
 10
-139.645
 20
60.4895
 11
-139.577
 21
60.7266
  0
LINE
  8
0
 10
-139.577
 20
60.7266
 11
-139.482
 21
60.9545
  0
LINE
  8
0
 10
-139.482
 20
60.9545
 11
-139.363
 21
61.1705
  0
LINE
  8
0
 10
-139.363
 20
61.1705
 11
-139.22
 21
61.3717
  0
LINE
  8
0
 10
-139.22
 20
61.3717
 11
-139.056
 21
61.5556
  0
LINE
  8
0
 10
-139.056
 20
61.5556
 11
-138.872
 21
61.72
  0
LINE
  8
0
 10
-138.872
 20
61.72
 11
-138.67
 21
61.8628
  0
LINE
  8
0
 10
-138.67
 20
61.8628
 11
-138.455
 21
61.9821
  0
LINE
  8
0
 10
-138.455
 20
61.9821
 11
-138.227
 21
62.0765
  0
LINE
  8
0
 10
-138.227
 20
62.0765
 11
-137.99
 21
62.1448
  0
LINE
  8
0
 10
-137.99
 20
62.1448
 11
-137.746
 21
62.1862
  0
LINE
  8
0
 10
-137.746
 20
62.1862
 11
-137.5
 21
62.2
  0
LINE
  8
0
 10
-137.5
 20
62.2
 11
-137.254
 21
62.1862
  0
LINE
  8
0
 10
-137.254
 20
62.1862
 11
-137.01
 21
62.1448
  0
LINE
  8
0
 10
-137.01
 20
62.1448
 11
-136.773
 21
62.0765
  0
LINE
  8
0
 10
-136.773
 20
62.0765
 11
-136.545
 21
61.9821
  0
LINE
  8
0
 10
-136.545
 20
61.9821
 11
-136.33
 21
61.8628
  0
LINE
  8
0
 10
-136.33
 20
61.8628
 11
-136.128
 21
61.72
  0
LINE
  8
0
 10
-136.128
 20
61.72
 11
-135.944
 21
61.5556
  0
LINE
  8
0
 10
-135.944
 20
61.5556
 11
-135.78
 21
61.3717
  0
LINE
  8
0
 10
-135.78
 20
61.3717
 11
-135.637
 21
61.1705
  0
LINE
  8
0
 10
-135.637
 20
61.1705
 11
-135.518
 21
60.9545
  0
LINE
  8
0
 10
-135.518
 20
60.9545
 11
-135.423
 21
60.7266
  0
LINE
  8
0
 10
-135.423
 20
60.7266
 11
-135.355
 21
60.4895
  0
LINE
  8
0
 10
-135.355
 20
60.4895
 11
-135.314
 21
60.2463
  0
LINE
  8
0
 10
-135.314
 20
60.2463
 11
-135.3
 21
60
  0
LINE
  8
0
 10
-135.3
 20
60
 11
-135.314
 21
59.7537
  0
LINE
  8
0
 10
-135.314
 20
59.7537
 11
-135.355
 21
59.5105
  0
LINE
  8
0
 10
-135.355
 20
59.5105
 11
-135.423
 21
59.2734
  0
LINE
  8
0
 10
-135.423
 20
59.2734
 11
-135.518
 21
59.0454
  0
LINE
  8
0
 10
-135.518
 20
59.0454
 11
-135.637
 21
58.8295
  0
LINE
  8
0
 10
-135.637
 20
58.8295
 11
-135.78
 21
58.6283
  0
LINE
  8
0
 10
-135.78
 20
58.6283
 11
-135.944
 21
58.4444
  0
LINE
  8
0
 10
-135.944
 20
58.4444
 11
-136.128
 21
58.28
  0
LINE
  8
0
 10
-136.128
 20
58.28
 11
-136.33
 21
58.1372
  0
LINE
  8
0
 10
-136.33
 20
58.1372
 11
-136.545
 21
58.0179
  0
LINE
  8
0
 10
-136.545
 20
58.0179
 11
-136.773
 21
57.9234
  0
LINE
  8
0
 10
-136.773
 20
57.9234
 11
-137.01
 21
57.8551
  0
LINE
  8
0
 10
-137.01
 20
57.8551
 11
-137.254
 21
57.8138
  0
LINE
  8
0
 10
-137.254
 20
57.8138
 11
-137.5
 21
57.8
  0
LINE
  8
0
 10
-137.5
 20
57.8
 11
-137.746
 21
57.8138
  0
LINE
  8
0
 10
137.254
 20
22.8138
 11
137.01
 21
22.8551
  0
LINE
  8
0
 10
137.01
 20
22.8551
 11
136.773
 21
22.9234
  0
LINE
  8
0
 10
136.773
 20
22.9234
 11
136.545
 21
23.0179
  0
LINE
  8
0
 10
136.545
 20
23.0179
 11
136.33
 21
23.1372
  0
LINE
  8
0
 10
136.33
 20
23.1372
 11
136.128
 21
23.28
  0
LINE
  8
0
 10
136.128
 20
23.28
 11
135.944
 21
23.4444
  0
LINE
  8
0
 10
135.944
 20
23.4444
 11
135.78
 21
23.6283
  0
LINE
  8
0
 10
135.78
 20
23.6283
 11
135.637
 21
23.8295
  0
LINE
  8
0
 10
135.637
 20
23.8295
 11
135.518
 21
24.0454
  0
LINE
  8
0
 10
135.518
 20
24.0454
 11
135.423
 21
24.2734
  0
LINE
  8
0
 10
135.423
 20
24.2734
 11
135.355
 21
24.5105
  0
LINE
  8
0
 10
135.355
 20
24.5105
 11
135.314
 21
24.7537
  0
LINE
  8
0
 10
135.314
 20
24.7537
 11
135.3
 21
25
  0
LINE
  8
0
 10
135.3
 20
25
 11
135.314
 21
25.2463
  0
LINE
  8
0
 10
135.314
 20
25.2463
 11
135.355
 21
25.4895
  0
LINE
  8
0
 10
135.355
 20
25.4895
 11
135.423
 21
25.7266
  0
LINE
  8
0
 10
135.423
 20
25.7266
 11
135.518
 21
25.9545
  0
LINE
  8
0
 10
135.518
 20
25.9545
 11
135.637
 21
26.1705
  0
LINE
  8
0
 10
135.637
 20
26.1705
 11
135.78
 21
26.3717
  0
LINE
  8
0
 10
135.78
 20
26.3717
 11
135.944
 21
26.5556
  0
LINE
  8
0
 10
135.944
 20
26.5556
 11
136.128
 21
26.72
  0
LINE
  8
0
 10
136.128
 20
26.72
 11
136.33
 21
26.8628
  0
LINE
  8
0
 10
136.33
 20
26.8628
 11
136.545
 21
26.9821
  0
LINE
  8
0
 10
136.545
 20
26.9821
 11
136.773
 21
27.0765
  0
LINE
  8
0
 10
136.773
 20
27.0765
 11
137.01
 21
27.1448
  0
LINE
  8
0
 10
137.01
 20
27.1448
 11
137.254
 21
27.1862
  0
LINE
  8
0
 10
137.254
 20
27.1862
 11
137.5
 21
27.2
  0
LINE
  8
0
 10
137.5
 20
27.2
 11
137.746
 21
27.1862
  0
LINE
  8
0
 10
137.746
 20
27.1862
 11
137.99
 21
27.1448
  0
LINE
  8
0
 10
137.99
 20
27.1448
 11
138.227
 21
27.0765
  0
LINE
  8
0
 10
138.227
 20
27.0765
 11
138.455
 21
26.9821
  0
LINE
  8
0
 10
138.455
 20
26.9821
 11
138.67
 21
26.8628
  0
LINE
  8
0
 10
138.67
 20
26.8628
 11
138.872
 21
26.72
  0
LINE
  8
0
 10
138.872
 20
26.72
 11
139.056
 21
26.5556
  0
LINE
  8
0
 10
139.056
 20
26.5556
 11
139.22
 21
26.3717
  0
LINE
  8
0
 10
139.22
 20
26.3717
 11
139.363
 21
26.1705
  0
LINE
  8
0
 10
139.363
 20
26.1705
 11
139.482
 21
25.9545
  0
LINE
  8
0
 10
139.482
 20
25.9545
 11
139.577
 21
25.7266
  0
LINE
  8
0
 10
139.577
 20
25.7266
 11
139.645
 21
25.4895
  0
LINE
  8
0
 10
139.645
 20
25.4895
 11
139.686
 21
25.2463
  0
LINE
  8
0
 10
139.686
 20
25.2463
 11
139.7
 21
25
  0
LINE
  8
0
 10
139.7
 20
25
 11
139.686
 21
24.7537
  0
LINE
  8
0
 10
139.686
 20
24.7537
 11
139.645
 21
24.5105
  0
LINE
  8
0
 10
139.645
 20
24.5105
 11
139.577
 21
24.2734
  0
LINE
  8
0
 10
139.577
 20
24.2734
 11
139.482
 21
24.0454
  0
LINE
  8
0
 10
139.482
 20
24.0454
 11
139.363
 21
23.8295
  0
LINE
  8
0
 10
139.363
 20
23.8295
 11
139.22
 21
23.6283
  0
LINE
  8
0
 10
139.22
 20
23.6283
 11
139.056
 21
23.4444
  0
LINE
  8
0
 10
139.056
 20
23.4444
 11
138.872
 21
23.28
  0
LINE
  8
0
 10
138.872
 20
23.28
 11
138.67
 21
23.1372
  0
LINE
  8
0
 10
138.67
 20
23.1372
 11
138.455
 21
23.0179
  0
LINE
  8
0
 10
138.455
 20
23.0179
 11
138.227
 21
22.9234
  0
LINE
  8
0
 10
138.227
 20
22.9234
 11
137.99
 21
22.8551
  0
LINE
  8
0
 10
137.99
 20
22.8551
 11
137.746
 21
22.8138
  0
LINE
  8
0
 10
137.746
 20
22.8138
 11
137.5
 21
22.8
  0
LINE
  8
0
 10
137.5
 20
22.8
 11
137.254
 21
22.8138
  0
LINE
  8
0
 10
52.2537
 20
22.8138
 11
52.0105
 21
22.8551
  0
LINE
  8
0
 10
52.0105
 20
22.8551
 11
51.7734
 21
22.9234
  0
LINE
  8
0
 10
51.7734
 20
22.9234
 11
51.5454
 21
23.0179
  0
LINE
  8
0
 10
51.5454
 20
23.0179
 11
51.3295
 21
23.1372
  0
LINE
  8
0
 10
51.3295
 20
23.1372
 11
51.1283
 21
23.28
  0
LINE
  8
0
 10
51.1283
 20
23.28
 11
50.9444
 21
23.4444
  0
LINE
  8
0
 10
50.9444
 20
23.4444
 11
50.78
 21
23.6283
  0
LINE
  8
0
 10
50.78
 20
23.6283
 11
50.6372
 21
23.8295
  0
LINE
  8
0
 10
50.6372
 20
23.8295
 11
50.5179
 21
24.0454
  0
LINE
  8
0
 10
50.5179
 20
24.0454
 11
50.4234
 21
24.2734
  0
LINE
  8
0
 10
50.4234
 20
24.2734
 11
50.3551
 21
24.5105
  0
LINE
  8
0
 10
50.3551
 20
24.5105
 11
50.3138
 21
24.7537
  0
LINE
  8
0
 10
50.3138
 20
24.7537
 11
50.3
 21
25
  0
LINE
  8
0
 10
50.3
 20
25
 11
50.3138
 21
25.2463
  0
LINE
  8
0
 10
50.3138
 20
25.2463
 11
50.3551
 21
25.4895
  0
LINE
  8
0
 10
50.3551
 20
25.4895
 11
50.4234
 21
25.7266
  0
LINE
  8
0
 10
50.4234
 20
25.7266
 11
50.5179
 21
25.9545
  0
LINE
  8
0
 10
50.5179
 20
25.9545
 11
50.6372
 21
26.1705
  0
LINE
  8
0
 10
50.6372
 20
26.1705
 11
50.78
 21
26.3717
  0
LINE
  8
0
 10
50.78
 20
26.3717
 11
50.9444
 21
26.5556
  0
LINE
  8
0
 10
50.9444
 20
26.5556
 11
51.1283
 21
26.72
  0
LINE
  8
0
 10
51.1283
 20
26.72
 11
51.3295
 21
26.8628
  0
LINE
  8
0
 10
51.3295
 20
26.8628
 11
51.5454
 21
26.9821
  0
LINE
  8
0
 10
51.5454
 20
26.9821
 11
51.7734
 21
27.0765
  0
LINE
  8
0
 10
51.7734
 20
27.0765
 11
52.0105
 21
27.1448
  0
LINE
  8
0
 10
52.0105
 20
27.1448
 11
52.2537
 21
27.1862
  0
LINE
  8
0
 10
52.2537
 20
27.1862
 11
52.5
 21
27.2
  0
LINE
  8
0
 10
52.5
 20
27.2
 11
52.7463
 21
27.1862
  0
LINE
  8
0
 10
52.7463
 20
27.1862
 11
52.9895
 21
27.1448
  0
LINE
  8
0
 10
52.9895
 20
27.1448
 11
53.2266
 21
27.0765
  0
LINE
  8
0
 10
53.2266
 20
27.0765
 11
53.4545
 21
26.9821
  0
LINE
  8
0
 10
53.4545
 20
26.9821
 11
53.6705
 21
26.8628
  0
LINE
  8
0
 10
53.6705
 20
26.8628
 11
53.8717
 21
26.72
  0
LINE
  8
0
 10
53.8717
 20
26.72
 11
54.0556
 21
26.5556
  0
LINE
  8
0
 10
54.0556
 20
26.5556
 11
54.22
 21
26.3717
  0
LINE
  8
0
 10
54.22
 20
26.3717
 11
54.3628
 21
26.1705
  0
LINE
  8
0
 10
54.3628
 20
26.1705
 11
54.4821
 21
25.9545
  0
LINE
  8
0
 10
54.4821
 20
25.9545
 11
54.5765
 21
25.7266
  0
LINE
  8
0
 10
54.5765
 20
25.7266
 11
54.6448
 21
25.4895
  0
LINE
  8
0
 10
54.6448
 20
25.4895
 11
54.6862
 21
25.2463
  0
LINE
  8
0
 10
54.6862
 20
25.2463
 11
54.7
 21
25
  0
LINE
  8
0
 10
54.7
 20
25
 11
54.6862
 21
24.7537
  0
LINE
  8
0
 10
54.6862
 20
24.7537
 11
54.6448
 21
24.5105
  0
LINE
  8
0
 10
54.6448
 20
24.5105
 11
54.5765
 21
24.2734
  0
LINE
  8
0
 10
54.5765
 20
24.2734
 11
54.4821
 21
24.0454
  0
LINE
  8
0
 10
54.4821
 20
24.0454
 11
54.3628
 21
23.8295
  0
LINE
  8
0
 10
54.3628
 20
23.8295
 11
54.22
 21
23.6283
  0
LINE
  8
0
 10
54.22
 20
23.6283
 11
54.0556
 21
23.4444
  0
LINE
  8
0
 10
54.0556
 20
23.4444
 11
53.8717
 21
23.28
  0
LINE
  8
0
 10
53.8717
 20
23.28
 11
53.6705
 21
23.1372
  0
LINE
  8
0
 10
53.6705
 20
23.1372
 11
53.4545
 21
23.0179
  0
LINE
  8
0
 10
53.4545
 20
23.0179
 11
53.2266
 21
22.9234
  0
LINE
  8
0
 10
53.2266
 20
22.9234
 11
52.9895
 21
22.8551
  0
LINE
  8
0
 10
52.9895
 20
22.8551
 11
52.7463
 21
22.8138
  0
LINE
  8
0
 10
52.7463
 20
22.8138
 11
52.5
 21
22.8
  0
LINE
  8
0
 10
52.5
 20
22.8
 11
52.2537
 21
22.8138
  0
LINE
  8
0
 10
92.2537
 20
22.8138
 11
92.0105
 21
22.8551
  0
LINE
  8
0
 10
92.0105
 20
22.8551
 11
91.7734
 21
22.9234
  0
LINE
  8
0
 10
91.7734
 20
22.9234
 11
91.5454
 21
23.0179
  0
LINE
  8
0
 10
91.5454
 20
23.0179
 11
91.3295
 21
23.1372
  0
LINE
  8
0
 10
91.3295
 20
23.1372
 11
91.1283
 21
23.28
  0
LINE
  8
0
 10
91.1283
 20
23.28
 11
90.9444
 21
23.4444
  0
LINE
  8
0
 10
90.9444
 20
23.4444
 11
90.78
 21
23.6283
  0
LINE
  8
0
 10
90.78
 20
23.6283
 11
90.6372
 21
23.8295
  0
LINE
  8
0
 10
90.6372
 20
23.8295
 11
90.5179
 21
24.0454
  0
LINE
  8
0
 10
90.5179
 20
24.0454
 11
90.4234
 21
24.2734
  0
LINE
  8
0
 10
90.4234
 20
24.2734
 11
90.3551
 21
24.5105
  0
LINE
  8
0
 10
90.3551
 20
24.5105
 11
90.3138
 21
24.7537
  0
LINE
  8
0
 10
90.3138
 20
24.7537
 11
90.3
 21
25
  0
LINE
  8
0
 10
90.3
 20
25
 11
90.3138
 21
25.2463
  0
LINE
  8
0
 10
90.3138
 20
25.2463
 11
90.3551
 21
25.4895
  0
LINE
  8
0
 10
90.3551
 20
25.4895
 11
90.4234
 21
25.7266
  0
LINE
  8
0
 10
90.4234
 20
25.7266
 11
90.5179
 21
25.9545
  0
LINE
  8
0
 10
90.5179
 20
25.9545
 11
90.6372
 21
26.1705
  0
LINE
  8
0
 10
90.6372
 20
26.1705
 11
90.78
 21
26.3717
  0
LINE
  8
0
 10
90.78
 20
26.3717
 11
90.9444
 21
26.5556
  0
LINE
  8
0
 10
90.9444
 20
26.5556
 11
91.1283
 21
26.72
  0
LINE
  8
0
 10
91.1283
 20
26.72
 11
91.3295
 21
26.8628
  0
LINE
  8
0
 10
91.3295
 20
26.8628
 11
91.5454
 21
26.9821
  0
LINE
  8
0
 10
91.5454
 20
26.9821
 11
91.7734
 21
27.0765
  0
LINE
  8
0
 10
91.7734
 20
27.0765
 11
92.0105
 21
27.1448
  0
LINE
  8
0
 10
92.0105
 20
27.1448
 11
92.2537
 21
27.1862
  0
LINE
  8
0
 10
92.2537
 20
27.1862
 11
92.5
 21
27.2
  0
LINE
  8
0
 10
92.5
 20
27.2
 11
92.7463
 21
27.1862
  0
LINE
  8
0
 10
92.7463
 20
27.1862
 11
92.9895
 21
27.1448
  0
LINE
  8
0
 10
92.9895
 20
27.1448
 11
93.2266
 21
27.0765
  0
LINE
  8
0
 10
93.2266
 20
27.0765
 11
93.4545
 21
26.9821
  0
LINE
  8
0
 10
93.4545
 20
26.9821
 11
93.6705
 21
26.8628
  0
LINE
  8
0
 10
93.6705
 20
26.8628
 11
93.8717
 21
26.72
  0
LINE
  8
0
 10
93.8717
 20
26.72
 11
94.0556
 21
26.5556
  0
LINE
  8
0
 10
94.0556
 20
26.5556
 11
94.22
 21
26.3717
  0
LINE
  8
0
 10
94.22
 20
26.3717
 11
94.3628
 21
26.1705
  0
LINE
  8
0
 10
94.3628
 20
26.1705
 11
94.4821
 21
25.9545
  0
LINE
  8
0
 10
94.4821
 20
25.9545
 11
94.5765
 21
25.7266
  0
LINE
  8
0
 10
94.5765
 20
25.7266
 11
94.6448
 21
25.4895
  0
LINE
  8
0
 10
94.6448
 20
25.4895
 11
94.6862
 21
25.2463
  0
LINE
  8
0
 10
94.6862
 20
25.2463
 11
94.7
 21
25
  0
LINE
  8
0
 10
94.7
 20
25
 11
94.6862
 21
24.7537
  0
LINE
  8
0
 10
94.6862
 20
24.7537
 11
94.6448
 21
24.5105
  0
LINE
  8
0
 10
94.6448
 20
24.5105
 11
94.5765
 21
24.2734
  0
LINE
  8
0
 10
94.5765
 20
24.2734
 11
94.4821
 21
24.0454
  0
LINE
  8
0
 10
94.4821
 20
24.0454
 11
94.3628
 21
23.8295
  0
LINE
  8
0
 10
94.3628
 20
23.8295
 11
94.22
 21
23.6283
  0
LINE
  8
0
 10
94.22
 20
23.6283
 11
94.0556
 21
23.4444
  0
LINE
  8
0
 10
94.0556
 20
23.4444
 11
93.8717
 21
23.28
  0
LINE
  8
0
 10
93.8717
 20
23.28
 11
93.6705
 21
23.1372
  0
LINE
  8
0
 10
93.6705
 20
23.1372
 11
93.4545
 21
23.0179
  0
LINE
  8
0
 10
93.4545
 20
23.0179
 11
93.2266
 21
22.9234
  0
LINE
  8
0
 10
93.2266
 20
22.9234
 11
92.9895
 21
22.8551
  0
LINE
  8
0
 10
92.9895
 20
22.8551
 11
92.7463
 21
22.8138
  0
LINE
  8
0
 10
92.7463
 20
22.8138
 11
92.5
 21
22.8
  0
LINE
  8
0
 10
92.5
 20
22.8
 11
92.2537
 21
22.8138
  0
LINE
  8
0
 10
-137.746
 20
-62.1862
 11
-137.99
 21
-62.1448
  0
LINE
  8
0
 10
-137.99
 20
-62.1448
 11
-138.227
 21
-62.0765
  0
LINE
  8
0
 10
-138.227
 20
-62.0765
 11
-138.455
 21
-61.9821
  0
LINE
  8
0
 10
-138.455
 20
-61.9821
 11
-138.67
 21
-61.8628
  0
LINE
  8
0
 10
-138.67
 20
-61.8628
 11
-138.872
 21
-61.72
  0
LINE
  8
0
 10
-138.872
 20
-61.72
 11
-139.056
 21
-61.5556
  0
LINE
  8
0
 10
-139.056
 20
-61.5556
 11
-139.22
 21
-61.3717
  0
LINE
  8
0
 10
-139.22
 20
-61.3717
 11
-139.363
 21
-61.1705
  0
LINE
  8
0
 10
-139.363
 20
-61.1705
 11
-139.482
 21
-60.9545
  0
LINE
  8
0
 10
-139.482
 20
-60.9545
 11
-139.577
 21
-60.7266
  0
LINE
  8
0
 10
-139.577
 20
-60.7266
 11
-139.645
 21
-60.4895
  0
LINE
  8
0
 10
-139.645
 20
-60.4895
 11
-139.686
 21
-60.2463
  0
LINE
  8
0
 10
-139.686
 20
-60.2463
 11
-139.7
 21
-60
  0
LINE
  8
0
 10
-139.7
 20
-60
 11
-139.686
 21
-59.7537
  0
LINE
  8
0
 10
-139.686
 20
-59.7537
 11
-139.645
 21
-59.5105
  0
LINE
  8
0
 10
-139.645
 20
-59.5105
 11
-139.577
 21
-59.2734
  0
LINE
  8
0
 10
-139.577
 20
-59.2734
 11
-139.482
 21
-59.0454
  0
LINE
  8
0
 10
-139.482
 20
-59.0454
 11
-139.363
 21
-58.8295
  0
LINE
  8
0
 10
-139.363
 20
-58.8295
 11
-139.22
 21
-58.6283
  0
LINE
  8
0
 10
-139.22
 20
-58.6283
 11
-139.056
 21
-58.4444
  0
LINE
  8
0
 10
-139.056
 20
-58.4444
 11
-138.872
 21
-58.28
  0
LINE
  8
0
 10
-138.872
 20
-58.28
 11
-138.67
 21
-58.1372
  0
LINE
  8
0
 10
-138.67
 20
-58.1372
 11
-138.455
 21
-58.0179
  0
LINE
  8
0
 10
-138.455
 20
-58.0179
 11
-138.227
 21
-57.9234
  0
LINE
  8
0
 10
-138.227
 20
-57.9234
 11
-137.99
 21
-57.8551
  0
LINE
  8
0
 10
-137.99
 20
-57.8551
 11
-137.746
 21
-57.8138
  0
LINE
  8
0
 10
-137.746
 20
-57.8138
 11
-137.5
 21
-57.8
  0
LINE
  8
0
 10
-137.5
 20
-57.8
 11
-137.254
 21
-57.8138
  0
LINE
  8
0
 10
-137.254
 20
-57.8138
 11
-137.01
 21
-57.8551
  0
LINE
  8
0
 10
-137.01
 20
-57.8551
 11
-136.773
 21
-57.9234
  0
LINE
  8
0
 10
-136.773
 20
-57.9234
 11
-136.545
 21
-58.0179
  0
LINE
  8
0
 10
-136.545
 20
-58.0179
 11
-136.33
 21
-58.1372
  0
LINE
  8
0
 10
-136.33
 20
-58.1372
 11
-136.128
 21
-58.28
  0
LINE
  8
0
 10
-136.128
 20
-58.28
 11
-135.944
 21
-58.4444
  0
LINE
  8
0
 10
-135.944
 20
-58.4444
 11
-135.78
 21
-58.6283
  0
LINE
  8
0
 10
-135.78
 20
-58.6283
 11
-135.637
 21
-58.8295
  0
LINE
  8
0
 10
-135.637
 20
-58.8295
 11
-135.518
 21
-59.0454
  0
LINE
  8
0
 10
-135.518
 20
-59.0454
 11
-135.423
 21
-59.2734
  0
LINE
  8
0
 10
-135.423
 20
-59.2734
 11
-135.355
 21
-59.5105
  0
LINE
  8
0
 10
-135.355
 20
-59.5105
 11
-135.314
 21
-59.7537
  0
LINE
  8
0
 10
-135.314
 20
-59.7537
 11
-135.3
 21
-60
  0
LINE
  8
0
 10
-135.3
 20
-60
 11
-135.314
 21
-60.2463
  0
LINE
  8
0
 10
-135.314
 20
-60.2463
 11
-135.355
 21
-60.4895
  0
LINE
  8
0
 10
-135.355
 20
-60.4895
 11
-135.423
 21
-60.7266
  0
LINE
  8
0
 10
-135.423
 20
-60.7266
 11
-135.518
 21
-60.9545
  0
LINE
  8
0
 10
-135.518
 20
-60.9545
 11
-135.637
 21
-61.1705
  0
LINE
  8
0
 10
-135.637
 20
-61.1705
 11
-135.78
 21
-61.3717
  0
LINE
  8
0
 10
-135.78
 20
-61.3717
 11
-135.944
 21
-61.5556
  0
LINE
  8
0
 10
-135.944
 20
-61.5556
 11
-136.128
 21
-61.72
  0
LINE
  8
0
 10
-136.128
 20
-61.72
 11
-136.33
 21
-61.8628
  0
LINE
  8
0
 10
-136.33
 20
-61.8628
 11
-136.545
 21
-61.9821
  0
LINE
  8
0
 10
-136.545
 20
-61.9821
 11
-136.773
 21
-62.0765
  0
LINE
  8
0
 10
-136.773
 20
-62.0765
 11
-137.01
 21
-62.1448
  0
LINE
  8
0
 10
-137.01
 20
-62.1448
 11
-137.254
 21
-62.1862
  0
LINE
  8
0
 10
-137.254
 20
-62.1862
 11
-137.5
 21
-62.2
  0
LINE
  8
0
 10
-137.5
 20
-62.2
 11
-137.746
 21
-62.1862
  0
LINE
  8
0
 10
-137.761
 20
-132.486
 11
-138.02
 21
-132.445
  0
LINE
  8
0
 10
-138.02
 20
-132.445
 11
-138.273
 21
-132.378
  0
LINE
  8
0
 10
-138.273
 20
-132.378
 11
-138.517
 21
-132.284
  0
LINE
  8
0
 10
-138.517
 20
-132.284
 11
-138.75
 21
-132.165
  0
LINE
  8
0
 10
-138.75
 20
-132.165
 11
-138.969
 21
-132.023
  0
LINE
  8
0
 10
-138.969
 20
-132.023
 11
-139.173
 21
-131.858
  0
LINE
  8
0
 10
-139.173
 20
-131.858
 11
-139.358
 21
-131.673
  0
LINE
  8
0
 10
-139.358
 20
-131.673
 11
-139.523
 21
-131.469
  0
LINE
  8
0
 10
-139.523
 20
-131.469
 11
-139.665
 21
-131.25
  0
LINE
  8
0
 10
-139.665
 20
-131.25
 11
-139.784
 21
-131.017
  0
LINE
  8
0
 10
-139.784
 20
-131.017
 11
-139.878
 21
-130.773
  0
LINE
  8
0
 10
-139.878
 20
-130.773
 11
-139.945
 21
-130.52
  0
LINE
  8
0
 10
-139.945
 20
-130.52
 11
-139.986
 21
-130.261
  0
LINE
  8
0
 10
-139.986
 20
-130.261
 11
-140
 21
-130
  0
LINE
  8
0
 10
-140
 20
-130
 11
-139.986
 21
-129.739
  0
LINE
  8
0
 10
-139.986
 20
-129.739
 11
-139.945
 21
-129.48
  0
LINE
  8
0
 10
-139.945
 20
-129.48
 11
-139.878
 21
-129.227
  0
LINE
  8
0
 10
-139.878
 20
-129.227
 11
-139.784
 21
-128.983
  0
LINE
  8
0
 10
-139.784
 20
-128.983
 11
-139.665
 21
-128.75
  0
LINE
  8
0
 10
-139.665
 20
-128.75
 11
-139.523
 21
-128.531
  0
LINE
  8
0
 10
-139.523
 20
-128.531
 11
-139.358
 21
-128.327
  0
LINE
  8
0
 10
-139.358
 20
-128.327
 11
-139.173
 21
-128.142
  0
LINE
  8
0
 10
-139.173
 20
-128.142
 11
-138.969
 21
-127.977
  0
LINE
  8
0
 10
-138.969
 20
-127.977
 11
-138.75
 21
-127.835
  0
LINE
  8
0
 10
-138.75
 20
-127.835
 11
-138.517
 21
-127.716
  0
LINE
  8
0
 10
-138.517
 20
-127.716
 11
-138.273
 21
-127.622
  0
LINE
  8
0
 10
-138.273
 20
-127.622
 11
-138.02
 21
-127.555
  0
LINE
  8
0
 10
-138.02
 20
-127.555
 11
-137.761
 21
-127.514
  0
LINE
  8
0
 10
-137.761
 20
-127.514
 11
-137.5
 21
-127.5
  0
LINE
  8
0
 10
-137.5
 20
-127.5
 11
-137.239
 21
-127.514
  0
LINE
  8
0
 10
-137.239
 20
-127.514
 11
-136.98
 21
-127.555
  0
LINE
  8
0
 10
-136.98
 20
-127.555
 11
-136.727
 21
-127.622
  0
LINE
  8
0
 10
-136.727
 20
-127.622
 11
-136.483
 21
-127.716
  0
LINE
  8
0
 10
-136.483
 20
-127.716
 11
-136.25
 21
-127.835
  0
LINE
  8
0
 10
-136.25
 20
-127.835
 11
-136.031
 21
-127.977
  0
LINE
  8
0
 10
-136.031
 20
-127.977
 11
-135.827
 21
-128.142
  0
LINE
  8
0
 10
-135.827
 20
-128.142
 11
-135.642
 21
-128.327
  0
LINE
  8
0
 10
-135.642
 20
-128.327
 11
-135.477
 21
-128.531
  0
LINE
  8
0
 10
-135.477
 20
-128.531
 11
-135.335
 21
-128.75
  0
LINE
  8
0
 10
-135.335
 20
-128.75
 11
-135.216
 21
-128.983
  0
LINE
  8
0
 10
-135.216
 20
-128.983
 11
-135.122
 21
-129.227
  0
LINE
  8
0
 10
-135.122
 20
-129.227
 11
-135.055
 21
-129.48
  0
LINE
  8
0
 10
-135.055
 20
-129.48
 11
-135.014
 21
-129.739
  0
LINE
  8
0
 10
-135.014
 20
-129.739
 11
-135
 21
-130
  0
LINE
  8
0
 10
-135
 20
-130
 11
-135.014
 21
-130.261
  0
LINE
  8
0
 10
-135.014
 20
-130.261
 11
-135.055
 21
-130.52
  0
LINE
  8
0
 10
-135.055
 20
-130.52
 11
-135.122
 21
-130.773
  0
LINE
  8
0
 10
-135.122
 20
-130.773
 11
-135.216
 21
-131.017
  0
LINE
  8
0
 10
-135.216
 20
-131.017
 11
-135.335
 21
-131.25
  0
LINE
  8
0
 10
-135.335
 20
-131.25
 11
-135.477
 21
-131.469
  0
LINE
  8
0
 10
-135.477
 20
-131.469
 11
-135.642
 21
-131.673
  0
LINE
  8
0
 10
-135.642
 20
-131.673
 11
-135.827
 21
-131.858
  0
LINE
  8
0
 10
-135.827
 20
-131.858
 11
-136.031
 21
-132.023
  0
LINE
  8
0
 10
-136.031
 20
-132.023
 11
-136.25
 21
-132.165
  0
LINE
  8
0
 10
-136.25
 20
-132.165
 11
-136.483
 21
-132.284
  0
LINE
  8
0
 10
-136.483
 20
-132.284
 11
-136.727
 21
-132.378
  0
LINE
  8
0
 10
-136.727
 20
-132.378
 11
-136.98
 21
-132.445
  0
LINE
  8
0
 10
-136.98
 20
-132.445
 11
-137.239
 21
-132.486
  0
LINE
  8
0
 10
-137.239
 20
-132.486
 11
-137.5
 21
-132.5
  0
LINE
  8
0
 10
-137.5
 20
-132.5
 11
-137.761
 21
-132.486
  0
LINE
  8
0
 10
-137.761
 20
-152.486
 11
-138.02
 21
-152.445
  0
LINE
  8
0
 10
-138.02
 20
-152.445
 11
-138.273
 21
-152.378
  0
LINE
  8
0
 10
-138.273
 20
-152.378
 11
-138.517
 21
-152.284
  0
LINE
  8
0
 10
-138.517
 20
-152.284
 11
-138.75
 21
-152.165
  0
LINE
  8
0
 10
-138.75
 20
-152.165
 11
-138.969
 21
-152.023
  0
LINE
  8
0
 10
-138.969
 20
-152.023
 11
-139.173
 21
-151.858
  0
LINE
  8
0
 10
-139.173
 20
-151.858
 11
-139.358
 21
-151.673
  0
LINE
  8
0
 10
-139.358
 20
-151.673
 11
-139.523
 21
-151.469
  0
LINE
  8
0
 10
-139.523
 20
-151.469
 11
-139.665
 21
-151.25
  0
LINE
  8
0
 10
-139.665
 20
-151.25
 11
-139.784
 21
-151.017
  0
LINE
  8
0
 10
-139.784
 20
-151.017
 11
-139.878
 21
-150.773
  0
LINE
  8
0
 10
-139.878
 20
-150.773
 11
-139.945
 21
-150.52
  0
LINE
  8
0
 10
-139.945
 20
-150.52
 11
-139.986
 21
-150.261
  0
LINE
  8
0
 10
-139.986
 20
-150.261
 11
-140
 21
-150
  0
LINE
  8
0
 10
-140
 20
-150
 11
-139.986
 21
-149.739
  0
LINE
  8
0
 10
-139.986
 20
-149.739
 11
-139.945
 21
-149.48
  0
LINE
  8
0
 10
-139.945
 20
-149.48
 11
-139.878
 21
-149.227
  0
LINE
  8
0
 10
-139.878
 20
-149.227
 11
-139.784
 21
-148.983
  0
LINE
  8
0
 10
-139.784
 20
-148.983
 11
-139.665
 21
-148.75
  0
LINE
  8
0
 10
-139.665
 20
-148.75
 11
-139.523
 21
-148.531
  0
LINE
  8
0
 10
-139.523
 20
-148.531
 11
-139.358
 21
-148.327
  0
LINE
  8
0
 10
-139.358
 20
-148.327
 11
-139.173
 21
-148.142
  0
LINE
  8
0
 10
-139.173
 20
-148.142
 11
-138.969
 21
-147.977
  0
LINE
  8
0
 10
-138.969
 20
-147.977
 11
-138.75
 21
-147.835
  0
LINE
  8
0
 10
-138.75
 20
-147.835
 11
-138.517
 21
-147.716
  0
LINE
  8
0
 10
-138.517
 20
-147.716
 11
-138.273
 21
-147.622
  0
LINE
  8
0
 10
-138.273
 20
-147.622
 11
-138.02
 21
-147.555
  0
LINE
  8
0
 10
-138.02
 20
-147.555
 11
-137.761
 21
-147.514
  0
LINE
  8
0
 10
-137.761
 20
-147.514
 11
-137.5
 21
-147.5
  0
LINE
  8
0
 10
-137.5
 20
-147.5
 11
-137.239
 21
-147.514
  0
LINE
  8
0
 10
-137.239
 20
-147.514
 11
-136.98
 21
-147.555
  0
LINE
  8
0
 10
-136.98
 20
-147.555
 11
-136.727
 21
-147.622
  0
LINE
  8
0
 10
-136.727
 20
-147.622
 11
-136.483
 21
-147.716
  0
LINE
  8
0
 10
-136.483
 20
-147.716
 11
-136.25
 21
-147.835
  0
LINE
  8
0
 10
-136.25
 20
-147.835
 11
-136.031
 21
-147.977
  0
LINE
  8
0
 10
-136.031
 20
-147.977
 11
-135.827
 21
-148.142
  0
LINE
  8
0
 10
-135.827
 20
-148.142
 11
-135.642
 21
-148.327
  0
LINE
  8
0
 10
-135.642
 20
-148.327
 11
-135.477
 21
-148.531
  0
LINE
  8
0
 10
-135.477
 20
-148.531
 11
-135.335
 21
-148.75
  0
LINE
  8
0
 10
-135.335
 20
-148.75
 11
-135.216
 21
-148.983
  0
LINE
  8
0
 10
-135.216
 20
-148.983
 11
-135.122
 21
-149.227
  0
LINE
  8
0
 10
-135.122
 20
-149.227
 11
-135.055
 21
-149.48
  0
LINE
  8
0
 10
-135.055
 20
-149.48
 11
-135.014
 21
-149.739
  0
LINE
  8
0
 10
-135.014
 20
-149.739
 11
-135
 21
-150
  0
LINE
  8
0
 10
-135
 20
-150
 11
-135.014
 21
-150.261
  0
LINE
  8
0
 10
-135.014
 20
-150.261
 11
-135.055
 21
-150.52
  0
LINE
  8
0
 10
-135.055
 20
-150.52
 11
-135.122
 21
-150.773
  0
LINE
  8
0
 10
-135.122
 20
-150.773
 11
-135.216
 21
-151.017
  0
LINE
  8
0
 10
-135.216
 20
-151.017
 11
-135.335
 21
-151.25
  0
LINE
  8
0
 10
-135.335
 20
-151.25
 11
-135.477
 21
-151.469
  0
LINE
  8
0
 10
-135.477
 20
-151.469
 11
-135.642
 21
-151.673
  0
LINE
  8
0
 10
-135.642
 20
-151.673
 11
-135.827
 21
-151.858
  0
LINE
  8
0
 10
-135.827
 20
-151.858
 11
-136.031
 21
-152.023
  0
LINE
  8
0
 10
-136.031
 20
-152.023
 11
-136.25
 21
-152.165
  0
LINE
  8
0
 10
-136.25
 20
-152.165
 11
-136.483
 21
-152.284
  0
LINE
  8
0
 10
-136.483
 20
-152.284
 11
-136.727
 21
-152.378
  0
LINE
  8
0
 10
-136.727
 20
-152.378
 11
-136.98
 21
-152.445
  0
LINE
  8
0
 10
-136.98
 20
-152.445
 11
-137.239
 21
-152.486
  0
LINE
  8
0
 10
-137.239
 20
-152.486
 11
-137.5
 21
-152.5
  0
LINE
  8
0
 10
-137.5
 20
-152.5
 11
-137.761
 21
-152.486
  0
LINE
  8
0
 10
-137.761
 20
-172.486
 11
-138.02
 21
-172.445
  0
LINE
  8
0
 10
-138.02
 20
-172.445
 11
-138.273
 21
-172.378
  0
LINE
  8
0
 10
-138.273
 20
-172.378
 11
-138.517
 21
-172.284
  0
LINE
  8
0
 10
-138.517
 20
-172.284
 11
-138.75
 21
-172.165
  0
LINE
  8
0
 10
-138.75
 20
-172.165
 11
-138.969
 21
-172.023
  0
LINE
  8
0
 10
-138.969
 20
-172.023
 11
-139.173
 21
-171.858
  0
LINE
  8
0
 10
-139.173
 20
-171.858
 11
-139.358
 21
-171.673
  0
LINE
  8
0
 10
-139.358
 20
-171.673
 11
-139.523
 21
-171.469
  0
LINE
  8
0
 10
-139.523
 20
-171.469
 11
-139.665
 21
-171.25
  0
LINE
  8
0
 10
-139.665
 20
-171.25
 11
-139.784
 21
-171.017
  0
LINE
  8
0
 10
-139.784
 20
-171.017
 11
-139.878
 21
-170.773
  0
LINE
  8
0
 10
-139.878
 20
-170.773
 11
-139.945
 21
-170.52
  0
LINE
  8
0
 10
-139.945
 20
-170.52
 11
-139.986
 21
-170.261
  0
LINE
  8
0
 10
-139.986
 20
-170.261
 11
-140
 21
-170
  0
LINE
  8
0
 10
-140
 20
-170
 11
-139.986
 21
-169.739
  0
LINE
  8
0
 10
-139.986
 20
-169.739
 11
-139.945
 21
-169.48
  0
LINE
  8
0
 10
-139.945
 20
-169.48
 11
-139.878
 21
-169.227
  0
LINE
  8
0
 10
-139.878
 20
-169.227
 11
-139.784
 21
-168.983
  0
LINE
  8
0
 10
-139.784
 20
-168.983
 11
-139.665
 21
-168.75
  0
LINE
  8
0
 10
-139.665
 20
-168.75
 11
-139.523
 21
-168.531
  0
LINE
  8
0
 10
-139.523
 20
-168.531
 11
-139.358
 21
-168.327
  0
LINE
  8
0
 10
-139.358
 20
-168.327
 11
-139.173
 21
-168.142
  0
LINE
  8
0
 10
-139.173
 20
-168.142
 11
-138.969
 21
-167.977
  0
LINE
  8
0
 10
-138.969
 20
-167.977
 11
-138.75
 21
-167.835
  0
LINE
  8
0
 10
-138.75
 20
-167.835
 11
-138.517
 21
-167.716
  0
LINE
  8
0
 10
-138.517
 20
-167.716
 11
-138.273
 21
-167.622
  0
LINE
  8
0
 10
-138.273
 20
-167.622
 11
-138.02
 21
-167.555
  0
LINE
  8
0
 10
-138.02
 20
-167.555
 11
-137.761
 21
-167.514
  0
LINE
  8
0
 10
-137.761
 20
-167.514
 11
-137.5
 21
-167.5
  0
LINE
  8
0
 10
-137.5
 20
-167.5
 11
-137.239
 21
-167.514
  0
LINE
  8
0
 10
-137.239
 20
-167.514
 11
-136.98
 21
-167.555
  0
LINE
  8
0
 10
-136.98
 20
-167.555
 11
-136.727
 21
-167.622
  0
LINE
  8
0
 10
-136.727
 20
-167.622
 11
-136.483
 21
-167.716
  0
LINE
  8
0
 10
-136.483
 20
-167.716
 11
-136.25
 21
-167.835
  0
LINE
  8
0
 10
-136.25
 20
-167.835
 11
-136.031
 21
-167.977
  0
LINE
  8
0
 10
-136.031
 20
-167.977
 11
-135.827
 21
-168.142
  0
LINE
  8
0
 10
-135.827
 20
-168.142
 11
-135.642
 21
-168.327
  0
LINE
  8
0
 10
-135.642
 20
-168.327
 11
-135.477
 21
-168.531
  0
LINE
  8
0
 10
-135.477
 20
-168.531
 11
-135.335
 21
-168.75
  0
LINE
  8
0
 10
-135.335
 20
-168.75
 11
-135.216
 21
-168.983
  0
LINE
  8
0
 10
-135.216
 20
-168.983
 11
-135.122
 21
-169.227
  0
LINE
  8
0
 10
-135.122
 20
-169.227
 11
-135.055
 21
-169.48
  0
LINE
  8
0
 10
-135.055
 20
-169.48
 11
-135.014
 21
-169.739
  0
LINE
  8
0
 10
-135.014
 20
-169.739
 11
-135
 21
-170
  0
LINE
  8
0
 10
-135
 20
-170
 11
-135.014
 21
-170.261
  0
LINE
  8
0
 10
-135.014
 20
-170.261
 11
-135.055
 21
-170.52
  0
LINE
  8
0
 10
-135.055
 20
-170.52
 11
-135.122
 21
-170.773
  0
LINE
  8
0
 10
-135.122
 20
-170.773
 11
-135.216
 21
-171.017
  0
LINE
  8
0
 10
-135.216
 20
-171.017
 11
-135.335
 21
-171.25
  0
LINE
  8
0
 10
-135.335
 20
-171.25
 11
-135.477
 21
-171.469
  0
LINE
  8
0
 10
-135.477
 20
-171.469
 11
-135.642
 21
-171.673
  0
LINE
  8
0
 10
-135.642
 20
-171.673
 11
-135.827
 21
-171.858
  0
LINE
  8
0
 10
-135.827
 20
-171.858
 11
-136.031
 21
-172.023
  0
LINE
  8
0
 10
-136.031
 20
-172.023
 11
-136.25
 21
-172.165
  0
LINE
  8
0
 10
-136.25
 20
-172.165
 11
-136.483
 21
-172.284
  0
LINE
  8
0
 10
-136.483
 20
-172.284
 11
-136.727
 21
-172.378
  0
LINE
  8
0
 10
-136.727
 20
-172.378
 11
-136.98
 21
-172.445
  0
LINE
  8
0
 10
-136.98
 20
-172.445
 11
-137.239
 21
-172.486
  0
LINE
  8
0
 10
-137.239
 20
-172.486
 11
-137.5
 21
-172.5
  0
LINE
  8
0
 10
-137.5
 20
-172.5
 11
-137.761
 21
-172.486
  0
LINE
  8
0
 10
-137.746
 20
-182.186
 11
-137.99
 21
-182.145
  0
LINE
  8
0
 10
-137.99
 20
-182.145
 11
-138.227
 21
-182.077
  0
LINE
  8
0
 10
-138.227
 20
-182.077
 11
-138.455
 21
-181.982
  0
LINE
  8
0
 10
-138.455
 20
-181.982
 11
-138.67
 21
-181.863
  0
LINE
  8
0
 10
-138.67
 20
-181.863
 11
-138.872
 21
-181.72
  0
LINE
  8
0
 10
-138.872
 20
-181.72
 11
-139.056
 21
-181.556
  0
LINE
  8
0
 10
-139.056
 20
-181.556
 11
-139.22
 21
-181.372
  0
LINE
  8
0
 10
-139.22
 20
-181.372
 11
-139.363
 21
-181.17
  0
LINE
  8
0
 10
-139.363
 20
-181.17
 11
-139.482
 21
-180.955
  0
LINE
  8
0
 10
-139.482
 20
-180.955
 11
-139.577
 21
-180.727
  0
LINE
  8
0
 10
-139.577
 20
-180.727
 11
-139.645
 21
-180.49
  0
LINE
  8
0
 10
-139.645
 20
-180.49
 11
-139.686
 21
-180.246
  0
LINE
  8
0
 10
-139.686
 20
-180.246
 11
-139.7
 21
-180
  0
LINE
  8
0
 10
-139.7
 20
-180
 11
-139.686
 21
-179.754
  0
LINE
  8
0
 10
-139.686
 20
-179.754
 11
-139.645
 21
-179.51
  0
LINE
  8
0
 10
-139.645
 20
-179.51
 11
-139.577
 21
-179.273
  0
LINE
  8
0
 10
-139.577
 20
-179.273
 11
-139.482
 21
-179.045
  0
LINE
  8
0
 10
-139.482
 20
-179.045
 11
-139.363
 21
-178.83
  0
LINE
  8
0
 10
-139.363
 20
-178.83
 11
-139.22
 21
-178.628
  0
LINE
  8
0
 10
-139.22
 20
-178.628
 11
-139.056
 21
-178.444
  0
LINE
  8
0
 10
-139.056
 20
-178.444
 11
-138.872
 21
-178.28
  0
LINE
  8
0
 10
-138.872
 20
-178.28
 11
-138.67
 21
-178.137
  0
LINE
  8
0
 10
-138.67
 20
-178.137
 11
-138.455
 21
-178.018
  0
LINE
  8
0
 10
-138.455
 20
-178.018
 11
-138.227
 21
-177.923
  0
LINE
  8
0
 10
-138.227
 20
-177.923
 11
-137.99
 21
-177.855
  0
LINE
  8
0
 10
-137.99
 20
-177.855
 11
-137.746
 21
-177.814
  0
LINE
  8
0
 10
-137.746
 20
-177.814
 11
-137.5
 21
-177.8
  0
LINE
  8
0
 10
-137.5
 20
-177.8
 11
-137.254
 21
-177.814
  0
LINE
  8
0
 10
-137.254
 20
-177.814
 11
-137.01
 21
-177.855
  0
LINE
  8
0
 10
-137.01
 20
-177.855
 11
-136.773
 21
-177.923
  0
LINE
  8
0
 10
-136.773
 20
-177.923
 11
-136.545
 21
-178.018
  0
LINE
  8
0
 10
-136.545
 20
-178.018
 11
-136.33
 21
-178.137
  0
LINE
  8
0
 10
-136.33
 20
-178.137
 11
-136.128
 21
-178.28
  0
LINE
  8
0
 10
-136.128
 20
-178.28
 11
-135.944
 21
-178.444
  0
LINE
  8
0
 10
-135.944
 20
-178.444
 11
-135.78
 21
-178.628
  0
LINE
  8
0
 10
-135.78
 20
-178.628
 11
-135.637
 21
-178.83
  0
LINE
  8
0
 10
-135.637
 20
-178.83
 11
-135.518
 21
-179.045
  0
LINE
  8
0
 10
-135.518
 20
-179.045
 11
-135.423
 21
-179.273
  0
LINE
  8
0
 10
-135.423
 20
-179.273
 11
-135.355
 21
-179.51
  0
LINE
  8
0
 10
-135.355
 20
-179.51
 11
-135.314
 21
-179.754
  0
LINE
  8
0
 10
-135.314
 20
-179.754
 11
-135.3
 21
-180
  0
LINE
  8
0
 10
-135.3
 20
-180
 11
-135.314
 21
-180.246
  0
LINE
  8
0
 10
-135.314
 20
-180.246
 11
-135.355
 21
-180.49
  0
LINE
  8
0
 10
-135.355
 20
-180.49
 11
-135.423
 21
-180.727
  0
LINE
  8
0
 10
-135.423
 20
-180.727
 11
-135.518
 21
-180.955
  0
LINE
  8
0
 10
-135.518
 20
-180.955
 11
-135.637
 21
-181.17
  0
LINE
  8
0
 10
-135.637
 20
-181.17
 11
-135.78
 21
-181.372
  0
LINE
  8
0
 10
-135.78
 20
-181.372
 11
-135.944
 21
-181.556
  0
LINE
  8
0
 10
-135.944
 20
-181.556
 11
-136.128
 21
-181.72
  0
LINE
  8
0
 10
-136.128
 20
-181.72
 11
-136.33
 21
-181.863
  0
LINE
  8
0
 10
-136.33
 20
-181.863
 11
-136.545
 21
-181.982
  0
LINE
  8
0
 10
-136.545
 20
-181.982
 11
-136.773
 21
-182.077
  0
LINE
  8
0
 10
-136.773
 20
-182.077
 11
-137.01
 21
-182.145
  0
LINE
  8
0
 10
-137.01
 20
-182.145
 11
-137.254
 21
-182.186
  0
LINE
  8
0
 10
-137.254
 20
-182.186
 11
-137.5
 21
-182.2
  0
LINE
  8
0
 10
-137.5
 20
-182.2
 11
-137.746
 21
-182.186
  0
LINE
  8
0
 10
-137.761
 20
-192.486
 11
-138.02
 21
-192.445
  0
LINE
  8
0
 10
-138.02
 20
-192.445
 11
-138.273
 21
-192.378
  0
LINE
  8
0
 10
-138.273
 20
-192.378
 11
-138.517
 21
-192.284
  0
LINE
  8
0
 10
-138.517
 20
-192.284
 11
-138.75
 21
-192.165
  0
LINE
  8
0
 10
-138.75
 20
-192.165
 11
-138.969
 21
-192.023
  0
LINE
  8
0
 10
-138.969
 20
-192.023
 11
-139.173
 21
-191.858
  0
LINE
  8
0
 10
-139.173
 20
-191.858
 11
-139.358
 21
-191.673
  0
LINE
  8
0
 10
-139.358
 20
-191.673
 11
-139.523
 21
-191.469
  0
LINE
  8
0
 10
-139.523
 20
-191.469
 11
-139.665
 21
-191.25
  0
LINE
  8
0
 10
-139.665
 20
-191.25
 11
-139.784
 21
-191.017
  0
LINE
  8
0
 10
-139.784
 20
-191.017
 11
-139.878
 21
-190.773
  0
LINE
  8
0
 10
-139.878
 20
-190.773
 11
-139.945
 21
-190.52
  0
LINE
  8
0
 10
-139.945
 20
-190.52
 11
-139.986
 21
-190.261
  0
LINE
  8
0
 10
-139.986
 20
-190.261
 11
-140
 21
-190
  0
LINE
  8
0
 10
-140
 20
-190
 11
-139.986
 21
-189.739
  0
LINE
  8
0
 10
-139.986
 20
-189.739
 11
-139.945
 21
-189.48
  0
LINE
  8
0
 10
-139.945
 20
-189.48
 11
-139.878
 21
-189.227
  0
LINE
  8
0
 10
-139.878
 20
-189.227
 11
-139.784
 21
-188.983
  0
LINE
  8
0
 10
-139.784
 20
-188.983
 11
-139.665
 21
-188.75
  0
LINE
  8
0
 10
-139.665
 20
-188.75
 11
-139.523
 21
-188.531
  0
LINE
  8
0
 10
-139.523
 20
-188.531
 11
-139.358
 21
-188.327
  0
LINE
  8
0
 10
-139.358
 20
-188.327
 11
-139.173
 21
-188.142
  0
LINE
  8
0
 10
-139.173
 20
-188.142
 11
-138.969
 21
-187.977
  0
LINE
  8
0
 10
-138.969
 20
-187.977
 11
-138.75
 21
-187.835
  0
LINE
  8
0
 10
-138.75
 20
-187.835
 11
-138.517
 21
-187.716
  0
LINE
  8
0
 10
-138.517
 20
-187.716
 11
-138.273
 21
-187.622
  0
LINE
  8
0
 10
-138.273
 20
-187.622
 11
-138.02
 21
-187.555
  0
LINE
  8
0
 10
-138.02
 20
-187.555
 11
-137.761
 21
-187.514
  0
LINE
  8
0
 10
-137.761
 20
-187.514
 11
-137.5
 21
-187.5
  0
LINE
  8
0
 10
-137.5
 20
-187.5
 11
-137.239
 21
-187.514
  0
LINE
  8
0
 10
-137.239
 20
-187.514
 11
-136.98
 21
-187.555
  0
LINE
  8
0
 10
-136.98
 20
-187.555
 11
-136.727
 21
-187.622
  0
LINE
  8
0
 10
-136.727
 20
-187.622
 11
-136.483
 21
-187.716
  0
LINE
  8
0
 10
-136.483
 20
-187.716
 11
-136.25
 21
-187.835
  0
LINE
  8
0
 10
-136.25
 20
-187.835
 11
-136.031
 21
-187.977
  0
LINE
  8
0
 10
-136.031
 20
-187.977
 11
-135.827
 21
-188.142
  0
LINE
  8
0
 10
-135.827
 20
-188.142
 11
-135.642
 21
-188.327
  0
LINE
  8
0
 10
-135.642
 20
-188.327
 11
-135.477
 21
-188.531
  0
LINE
  8
0
 10
-135.477
 20
-188.531
 11
-135.335
 21
-188.75
  0
LINE
  8
0
 10
-135.335
 20
-188.75
 11
-135.216
 21
-188.983
  0
LINE
  8
0
 10
-135.216
 20
-188.983
 11
-135.122
 21
-189.227
  0
LINE
  8
0
 10
-135.122
 20
-189.227
 11
-135.055
 21
-189.48
  0
LINE
  8
0
 10
-135.055
 20
-189.48
 11
-135.014
 21
-189.739
  0
LINE
  8
0
 10
-135.014
 20
-189.739
 11
-135
 21
-190
  0
LINE
  8
0
 10
-135
 20
-190
 11
-135.014
 21
-190.261
  0
LINE
  8
0
 10
-135.014
 20
-190.261
 11
-135.055
 21
-190.52
  0
LINE
  8
0
 10
-135.055
 20
-190.52
 11
-135.122
 21
-190.773
  0
LINE
  8
0
 10
-135.122
 20
-190.773
 11
-135.216
 21
-191.017
  0
LINE
  8
0
 10
-135.216
 20
-191.017
 11
-135.335
 21
-191.25
  0
LINE
  8
0
 10
-135.335
 20
-191.25
 11
-135.477
 21
-191.469
  0
LINE
  8
0
 10
-135.477
 20
-191.469
 11
-135.642
 21
-191.673
  0
LINE
  8
0
 10
-135.642
 20
-191.673
 11
-135.827
 21
-191.858
  0
LINE
  8
0
 10
-135.827
 20
-191.858
 11
-136.031
 21
-192.023
  0
LINE
  8
0
 10
-136.031
 20
-192.023
 11
-136.25
 21
-192.165
  0
LINE
  8
0
 10
-136.25
 20
-192.165
 11
-136.483
 21
-192.284
  0
LINE
  8
0
 10
-136.483
 20
-192.284
 11
-136.727
 21
-192.378
  0
LINE
  8
0
 10
-136.727
 20
-192.378
 11
-136.98
 21
-192.445
  0
LINE
  8
0
 10
-136.98
 20
-192.445
 11
-137.239
 21
-192.486
  0
LINE
  8
0
 10
-137.239
 20
-192.486
 11
-137.5
 21
-192.5
  0
LINE
  8
0
 10
-137.5
 20
-192.5
 11
-137.761
 21
-192.486
  0
LINE
  8
0
 10
-107.746
 20
-192.186
 11
-107.99
 21
-192.145
  0
LINE
  8
0
 10
-107.99
 20
-192.145
 11
-108.227
 21
-192.077
  0
LINE
  8
0
 10
-108.227
 20
-192.077
 11
-108.455
 21
-191.982
  0
LINE
  8
0
 10
-108.455
 20
-191.982
 11
-108.67
 21
-191.863
  0
LINE
  8
0
 10
-108.67
 20
-191.863
 11
-108.872
 21
-191.72
  0
LINE
  8
0
 10
-108.872
 20
-191.72
 11
-109.056
 21
-191.556
  0
LINE
  8
0
 10
-109.056
 20
-191.556
 11
-109.22
 21
-191.372
  0
LINE
  8
0
 10
-109.22
 20
-191.372
 11
-109.363
 21
-191.17
  0
LINE
  8
0
 10
-109.363
 20
-191.17
 11
-109.482
 21
-190.955
  0
LINE
  8
0
 10
-109.482
 20
-190.955
 11
-109.577
 21
-190.727
  0
LINE
  8
0
 10
-109.577
 20
-190.727
 11
-109.645
 21
-190.49
  0
LINE
  8
0
 10
-109.645
 20
-190.49
 11
-109.686
 21
-190.246
  0
LINE
  8
0
 10
-109.686
 20
-190.246
 11
-109.7
 21
-190
  0
LINE
  8
0
 10
-109.7
 20
-190
 11
-109.686
 21
-189.754
  0
LINE
  8
0
 10
-109.686
 20
-189.754
 11
-109.645
 21
-189.51
  0
LINE
  8
0
 10
-109.645
 20
-189.51
 11
-109.577
 21
-189.273
  0
LINE
  8
0
 10
-109.577
 20
-189.273
 11
-109.482
 21
-189.045
  0
LINE
  8
0
 10
-109.482
 20
-189.045
 11
-109.363
 21
-188.83
  0
LINE
  8
0
 10
-109.363
 20
-188.83
 11
-109.22
 21
-188.628
  0
LINE
  8
0
 10
-109.22
 20
-188.628
 11
-109.056
 21
-188.444
  0
LINE
  8
0
 10
-109.056
 20
-188.444
 11
-108.872
 21
-188.28
  0
LINE
  8
0
 10
-108.872
 20
-188.28
 11
-108.67
 21
-188.137
  0
LINE
  8
0
 10
-108.67
 20
-188.137
 11
-108.455
 21
-188.018
  0
LINE
  8
0
 10
-108.455
 20
-188.018
 11
-108.227
 21
-187.923
  0
LINE
  8
0
 10
-108.227
 20
-187.923
 11
-107.99
 21
-187.855
  0
LINE
  8
0
 10
-107.99
 20
-187.855
 11
-107.746
 21
-187.814
  0
LINE
  8
0
 10
-107.746
 20
-187.814
 11
-107.5
 21
-187.8
  0
LINE
  8
0
 10
-107.5
 20
-187.8
 11
-107.254
 21
-187.814
  0
LINE
  8
0
 10
-107.254
 20
-187.814
 11
-107.01
 21
-187.855
  0
LINE
  8
0
 10
-107.01
 20
-187.855
 11
-106.773
 21
-187.923
  0
LINE
  8
0
 10
-106.773
 20
-187.923
 11
-106.545
 21
-188.018
  0
LINE
  8
0
 10
-106.545
 20
-188.018
 11
-106.33
 21
-188.137
  0
LINE
  8
0
 10
-106.33
 20
-188.137
 11
-106.128
 21
-188.28
  0
LINE
  8
0
 10
-106.128
 20
-188.28
 11
-105.944
 21
-188.444
  0
LINE
  8
0
 10
-105.944
 20
-188.444
 11
-105.78
 21
-188.628
  0
LINE
  8
0
 10
-105.78
 20
-188.628
 11
-105.637
 21
-188.83
  0
LINE
  8
0
 10
-105.637
 20
-188.83
 11
-105.518
 21
-189.045
  0
LINE
  8
0
 10
-105.518
 20
-189.045
 11
-105.423
 21
-189.273
  0
LINE
  8
0
 10
-105.423
 20
-189.273
 11
-105.355
 21
-189.51
  0
LINE
  8
0
 10
-105.355
 20
-189.51
 11
-105.314
 21
-189.754
  0
LINE
  8
0
 10
-105.314
 20
-189.754
 11
-105.3
 21
-190
  0
LINE
  8
0
 10
-105.3
 20
-190
 11
-105.314
 21
-190.246
  0
LINE
  8
0
 10
-105.314
 20
-190.246
 11
-105.355
 21
-190.49
  0
LINE
  8
0
 10
-105.355
 20
-190.49
 11
-105.423
 21
-190.727
  0
LINE
  8
0
 10
-105.423
 20
-190.727
 11
-105.518
 21
-190.955
  0
LINE
  8
0
 10
-105.518
 20
-190.955
 11
-105.637
 21
-191.17
  0
LINE
  8
0
 10
-105.637
 20
-191.17
 11
-105.78
 21
-191.372
  0
LINE
  8
0
 10
-105.78
 20
-191.372
 11
-105.944
 21
-191.556
  0
LINE
  8
0
 10
-105.944
 20
-191.556
 11
-106.128
 21
-191.72
  0
LINE
  8
0
 10
-106.128
 20
-191.72
 11
-106.33
 21
-191.863
  0
LINE
  8
0
 10
-106.33
 20
-191.863
 11
-106.545
 21
-191.982
  0
LINE
  8
0
 10
-106.545
 20
-191.982
 11
-106.773
 21
-192.077
  0
LINE
  8
0
 10
-106.773
 20
-192.077
 11
-107.01
 21
-192.145
  0
LINE
  8
0
 10
-107.01
 20
-192.145
 11
-107.254
 21
-192.186
  0
LINE
  8
0
 10
-107.254
 20
-192.186
 11
-107.5
 21
-192.2
  0
LINE
  8
0
 10
-107.5
 20
-192.2
 11
-107.746
 21
-192.186
  0
LINE
  8
0
 10
9.75368
 20
-192.186
 11
9.51045
 21
-192.145
  0
LINE
  8
0
 10
9.51045
 20
-192.145
 11
9.27338
 21
-192.077
  0
LINE
  8
0
 10
9.27338
 20
-192.077
 11
9.04544
 21
-191.982
  0
LINE
  8
0
 10
9.04544
 20
-191.982
 11
8.82953
 21
-191.863
  0
LINE
  8
0
 10
8.82953
 20
-191.863
 11
8.62831
 21
-191.72
  0
LINE
  8
0
 10
8.62831
 20
-191.72
 11
8.44435
 21
-191.556
  0
LINE
  8
0
 10
8.44435
 20
-191.556
 11
8.27997
 21
-191.372
  0
LINE
  8
0
 10
8.27997
 20
-191.372
 11
8.13719
 21
-191.17
  0
LINE
  8
0
 10
8.13719
 20
-191.17
 11
8.01787
 21
-190.955
  0
LINE
  8
0
 10
8.01787
 20
-190.955
 11
7.92345
 21
-190.727
  0
LINE
  8
0
 10
7.92345
 20
-190.727
 11
7.85515
 21
-190.49
  0
LINE
  8
0
 10
7.85515
 20
-190.49
 11
7.81383
 21
-190.246
  0
LINE
  8
0
 10
7.81383
 20
-190.246
 11
7.79999
 21
-190
  0
LINE
  8
0
 10
7.79999
 20
-190
 11
7.81383
 21
-189.754
  0
LINE
  8
0
 10
7.81383
 20
-189.754
 11
7.85515
 21
-189.51
  0
LINE
  8
0
 10
7.85515
 20
-189.51
 11
7.92345
 21
-189.273
  0
LINE
  8
0
 10
7.92345
 20
-189.273
 11
8.01787
 21
-189.045
  0
LINE
  8
0
 10
8.01787
 20
-189.045
 11
8.13719
 21
-188.83
  0
LINE
  8
0
 10
8.13719
 20
-188.83
 11
8.27997
 21
-188.628
  0
LINE
  8
0
 10
8.27997
 20
-188.628
 11
8.44435
 21
-188.444
  0
LINE
  8
0
 10
8.44435
 20
-188.444
 11
8.62831
 21
-188.28
  0
LINE
  8
0
 10
8.62831
 20
-188.28
 11
8.82953
 21
-188.137
  0
LINE
  8
0
 10
8.82953
 20
-188.137
 11
9.04544
 21
-188.018
  0
LINE
  8
0
 10
9.04544
 20
-188.018
 11
9.27338
 21
-187.923
  0
LINE
  8
0
 10
9.27338
 20
-187.923
 11
9.51045
 21
-187.855
  0
LINE
  8
0
 10
9.51045
 20
-187.855
 11
9.75368
 21
-187.814
  0
LINE
  8
0
 10
9.75368
 20
-187.814
 11
10
 21
-187.8
  0
LINE
  8
0
 10
10
 20
-187.8
 11
10.2463
 21
-187.814
  0
LINE
  8
0
 10
10.2463
 20
-187.814
 11
10.4895
 21
-187.855
  0
LINE
  8
0
 10
10.4895
 20
-187.855
 11
10.7266
 21
-187.923
  0
LINE
  8
0
 10
10.7266
 20
-187.923
 11
10.9545
 21
-188.018
  0
LINE
  8
0
 10
10.9545
 20
-188.018
 11
11.1705
 21
-188.137
  0
LINE
  8
0
 10
11.1705
 20
-188.137
 11
11.3717
 21
-188.28
  0
LINE
  8
0
 10
11.3717
 20
-188.28
 11
11.5556
 21
-188.444
  0
LINE
  8
0
 10
11.5556
 20
-188.444
 11
11.72
 21
-188.628
  0
LINE
  8
0
 10
11.72
 20
-188.628
 11
11.8628
 21
-188.83
  0
LINE
  8
0
 10
11.8628
 20
-188.83
 11
11.9821
 21
-189.045
  0
LINE
  8
0
 10
11.9821
 20
-189.045
 11
12.0765
 21
-189.273
  0
LINE
  8
0
 10
12.0765
 20
-189.273
 11
12.1448
 21
-189.51
  0
LINE
  8
0
 10
12.1448
 20
-189.51
 11
12.1862
 21
-189.754
  0
LINE
  8
0
 10
12.1862
 20
-189.754
 11
12.2
 21
-190
  0
LINE
  8
0
 10
12.2
 20
-190
 11
12.1862
 21
-190.246
  0
LINE
  8
0
 10
12.1862
 20
-190.246
 11
12.1448
 21
-190.49
  0
LINE
  8
0
 10
12.1448
 20
-190.49
 11
12.0765
 21
-190.727
  0
LINE
  8
0
 10
12.0765
 20
-190.727
 11
11.9821
 21
-190.955
  0
LINE
  8
0
 10
11.9821
 20
-190.955
 11
11.8628
 21
-191.17
  0
LINE
  8
0
 10
11.8628
 20
-191.17
 11
11.72
 21
-191.372
  0
LINE
  8
0
 10
11.72
 20
-191.372
 11
11.5556
 21
-191.556
  0
LINE
  8
0
 10
11.5556
 20
-191.556
 11
11.3717
 21
-191.72
  0
LINE
  8
0
 10
11.3717
 20
-191.72
 11
11.1705
 21
-191.863
  0
LINE
  8
0
 10
11.1705
 20
-191.863
 11
10.9545
 21
-191.982
  0
LINE
  8
0
 10
10.9545
 20
-191.982
 11
10.7266
 21
-192.077
  0
LINE
  8
0
 10
10.7266
 20
-192.077
 11
10.4895
 21
-192.145
  0
LINE
  8
0
 10
10.4895
 20
-192.145
 11
10.2463
 21
-192.186
  0
LINE
  8
0
 10
10.2463
 20
-192.186
 11
10
 21
-192.2
  0
LINE
  8
0
 10
10
 20
-192.2
 11
9.75368
 21
-192.186
  0
LINE
  8
0
 10
127.254
 20
-192.186
 11
127.01
 21
-192.145
  0
LINE
  8
0
 10
127.01
 20
-192.145
 11
126.773
 21
-192.077
  0
LINE
  8
0
 10
126.773
 20
-192.077
 11
126.545
 21
-191.982
  0
LINE
  8
0
 10
126.545
 20
-191.982
 11
126.33
 21
-191.863
  0
LINE
  8
0
 10
126.33
 20
-191.863
 11
126.128
 21
-191.72
  0
LINE
  8
0
 10
126.128
 20
-191.72
 11
125.944
 21
-191.556
  0
LINE
  8
0
 10
125.944
 20
-191.556
 11
125.78
 21
-191.372
  0
LINE
  8
0
 10
125.78
 20
-191.372
 11
125.637
 21
-191.17
  0
LINE
  8
0
 10
125.637
 20
-191.17
 11
125.518
 21
-190.955
  0
LINE
  8
0
 10
125.518
 20
-190.955
 11
125.423
 21
-190.727
  0
LINE
  8
0
 10
125.423
 20
-190.727
 11
125.355
 21
-190.49
  0
LINE
  8
0
 10
125.355
 20
-190.49
 11
125.314
 21
-190.246
  0
LINE
  8
0
 10
125.314
 20
-190.246
 11
125.3
 21
-190
  0
LINE
  8
0
 10
125.3
 20
-190
 11
125.314
 21
-189.754
  0
LINE
  8
0
 10
125.314
 20
-189.754
 11
125.355
 21
-189.51
  0
LINE
  8
0
 10
125.355
 20
-189.51
 11
125.423
 21
-189.273
  0
LINE
  8
0
 10
125.423
 20
-189.273
 11
125.518
 21
-189.045
  0
LINE
  8
0
 10
125.518
 20
-189.045
 11
125.637
 21
-188.83
  0
LINE
  8
0
 10
125.637
 20
-188.83
 11
125.78
 21
-188.628
  0
LINE
  8
0
 10
125.78
 20
-188.628
 11
125.944
 21
-188.444
  0
LINE
  8
0
 10
125.944
 20
-188.444
 11
126.128
 21
-188.28
  0
LINE
  8
0
 10
126.128
 20
-188.28
 11
126.33
 21
-188.137
  0
LINE
  8
0
 10
126.33
 20
-188.137
 11
126.545
 21
-188.018
  0
LINE
  8
0
 10
126.545
 20
-188.018
 11
126.773
 21
-187.923
  0
LINE
  8
0
 10
126.773
 20
-187.923
 11
127.01
 21
-187.855
  0
LINE
  8
0
 10
127.01
 20
-187.855
 11
127.254
 21
-187.814
  0
LINE
  8
0
 10
127.254
 20
-187.814
 11
127.5
 21
-187.8
  0
LINE
  8
0
 10
127.5
 20
-187.8
 11
127.746
 21
-187.814
  0
LINE
  8
0
 10
127.746
 20
-187.814
 11
127.99
 21
-187.855
  0
LINE
  8
0
 10
127.99
 20
-187.855
 11
128.227
 21
-187.923
  0
LINE
  8
0
 10
128.227
 20
-187.923
 11
128.455
 21
-188.018
  0
LINE
  8
0
 10
128.455
 20
-188.018
 11
128.67
 21
-188.137
  0
LINE
  8
0
 10
128.67
 20
-188.137
 11
128.872
 21
-188.28
  0
LINE
  8
0
 10
128.872
 20
-188.28
 11
129.056
 21
-188.444
  0
LINE
  8
0
 10
129.056
 20
-188.444
 11
129.22
 21
-188.628
  0
LINE
  8
0
 10
129.22
 20
-188.628
 11
129.363
 21
-188.83
  0
LINE
  8
0
 10
129.363
 20
-188.83
 11
129.482
 21
-189.045
  0
LINE
  8
0
 10
129.482
 20
-189.045
 11
129.577
 21
-189.273
  0
LINE
  8
0
 10
129.577
 20
-189.273
 11
129.645
 21
-189.51
  0
LINE
  8
0
 10
129.645
 20
-189.51
 11
129.686
 21
-189.754
  0
LINE
  8
0
 10
129.686
 20
-189.754
 11
129.7
 21
-190
  0
LINE
  8
0
 10
129.7
 20
-190
 11
129.686
 21
-190.246
  0
LINE
  8
0
 10
129.686
 20
-190.246
 11
129.645
 21
-190.49
  0
LINE
  8
0
 10
129.645
 20
-190.49
 11
129.577
 21
-190.727
  0
LINE
  8
0
 10
129.577
 20
-190.727
 11
129.482
 21
-190.955
  0
LINE
  8
0
 10
129.482
 20
-190.955
 11
129.363
 21
-191.17
  0
LINE
  8
0
 10
129.363
 20
-191.17
 11
129.22
 21
-191.372
  0
LINE
  8
0
 10
129.22
 20
-191.372
 11
129.056
 21
-191.556
  0
LINE
  8
0
 10
129.056
 20
-191.556
 11
128.872
 21
-191.72
  0
LINE
  8
0
 10
128.872
 20
-191.72
 11
128.67
 21
-191.863
  0
LINE
  8
0
 10
128.67
 20
-191.863
 11
128.455
 21
-191.982
  0
LINE
  8
0
 10
128.455
 20
-191.982
 11
128.227
 21
-192.077
  0
LINE
  8
0
 10
128.227
 20
-192.077
 11
127.99
 21
-192.145
  0
LINE
  8
0
 10
127.99
 20
-192.145
 11
127.746
 21
-192.186
  0
LINE
  8
0
 10
127.746
 20
-192.186
 11
127.5
 21
-192.2
  0
LINE
  8
0
 10
127.5
 20
-192.2
 11
127.254
 21
-192.186
  0
ENDSEC
  0
SECTION
  2
OBJECTS
  0
DICTIONARY
  0
ENDSEC
  0
EOF
