  0
SECTION
  2
BLOCKS
  0
ENDSEC
  0
SECTION
  2
ENTITIES
  0
LINE
  8
0
 10
149.223
 20
-44.9749
 11
149.434
 21
-44.901
  0
LINE
  8
0
 10
149.434
 20
-44.901
 11
149.623
 21
-44.7818
  0
LINE
  8
0
 10
149.623
 20
-44.7818
 11
149.782
 21
-44.6235
  0
LINE
  8
0
 10
149.782
 20
-44.6235
 11
149.901
 21
-44.4339
  0
LINE
  8
0
 10
149.901
 20
-44.4339
 11
149.975
 21
-44.2225
  0
LINE
  8
0
 10
149.975
 20
-44.2225
 11
150
 21
-44
  0
LINE
  8
0
 10
150
 20
-44
 11
150
 21
44
  0
LINE
  8
0
 10
150
 20
44
 11
149.975
 21
44.2225
  0
LINE
  8
0
 10
149.975
 20
44.2225
 11
149.901
 21
44.4339
  0
LINE
  8
0
 10
149.901
 20
44.4339
 11
149.782
 21
44.6235
  0
LINE
  8
0
 10
149.782
 20
44.6235
 11
149.623
 21
44.7818
  0
LINE
  8
0
 10
149.623
 20
44.7818
 11
149.434
 21
44.901
  0
LINE
  8
0
 10
149.434
 20
44.901
 11
149.223
 21
44.9749
  0
LINE
  8
0
 10
149.223
 20
44.9749
 11
149
 21
45
  0
LINE
  8
0
 10
149
 20
45
 11
-149
 21
45
  0
LINE
  8
0
 10
-149
 20
45
 11
-149.223
 21
44.9749
  0
LINE
  8
0
 10
-149.223
 20
44.9749
 11
-149.434
 21
44.901
  0
LINE
  8
0
 10
-149.434
 20
44.901
 11
-149.623
 21
44.7818
  0
LINE
  8
0
 10
-149.623
 20
44.7818
 11
-149.782
 21
44.6235
  0
LINE
  8
0
 10
-149.782
 20
44.6235
 11
-149.901
 21
44.4339
  0
LINE
  8
0
 10
-149.901
 20
44.4339
 11
-149.975
 21
44.2225
  0
LINE
  8
0
 10
-149.975
 20
44.2225
 11
-150
 21
44
  0
LINE
  8
0
 10
-150
 20
44
 11
-150
 21
-44
  0
LINE
  8
0
 10
-150
 20
-44
 11
-149.975
 21
-44.2225
  0
LINE
  8
0
 10
-149.975
 20
-44.2225
 11
-149.901
 21
-44.4339
  0
LINE
  8
0
 10
-149.901
 20
-44.4339
 11
-149.782
 21
-44.6235
  0
LINE
  8
0
 10
-149.782
 20
-44.6235
 11
-149.623
 21
-44.7818
  0
LINE
  8
0
 10
-149.623
 20
-44.7818
 11
-149.434
 21
-44.901
  0
LINE
  8
0
 10
-149.434
 20
-44.901
 11
-149.223
 21
-44.9749
  0
LINE
  8
0
 10
-149.223
 20
-44.9749
 11
-149
 21
-45
  0
LINE
  8
0
 10
-149
 20
-45
 11
149
 21
-45
  0
LINE
  8
0
 10
149
 20
-45
 11
149.223
 21
-44.9749
  0
LINE
  8
0
 10
-140.246
 20
32.8138
 11
-140.49
 21
32.8551
  0
LINE
  8
0
 10
-140.49
 20
32.8551
 11
-140.727
 21
32.9234
  0
LINE
  8
0
 10
-140.727
 20
32.9234
 11
-140.955
 21
33.0179
  0
LINE
  8
0
 10
-140.955
 20
33.0179
 11
-141.17
 21
33.1372
  0
LINE
  8
0
 10
-141.17
 20
33.1372
 11
-141.372
 21
33.28
  0
LINE
  8
0
 10
-141.372
 20
33.28
 11
-141.556
 21
33.4444
  0
LINE
  8
0
 10
-141.556
 20
33.4444
 11
-141.72
 21
33.6283
  0
LINE
  8
0
 10
-141.72
 20
33.6283
 11
-141.863
 21
33.8295
  0
LINE
  8
0
 10
-141.863
 20
33.8295
 11
-141.982
 21
34.0454
  0
LINE
  8
0
 10
-141.982
 20
34.0454
 11
-142.077
 21
34.2734
  0
LINE
  8
0
 10
-142.077
 20
34.2734
 11
-142.145
 21
34.5105
  0
LINE
  8
0
 10
-142.145
 20
34.5105
 11
-142.186
 21
34.7537
  0
LINE
  8
0
 10
-142.186
 20
34.7537
 11
-142.2
 21
35
  0
LINE
  8
0
 10
-142.2
 20
35
 11
-142.186
 21
35.2463
  0
LINE
  8
0
 10
-142.186
 20
35.2463
 11
-142.145
 21
35.4895
  0
LINE
  8
0
 10
-142.145
 20
35.4895
 11
-142.077
 21
35.7266
  0
LINE
  8
0
 10
-142.077
 20
35.7266
 11
-141.982
 21
35.9545
  0
LINE
  8
0
 10
-141.982
 20
35.9545
 11
-141.863
 21
36.1705
  0
LINE
  8
0
 10
-141.863
 20
36.1705
 11
-141.72
 21
36.3717
  0
LINE
  8
0
 10
-141.72
 20
36.3717
 11
-141.556
 21
36.5556
  0
LINE
  8
0
 10
-141.556
 20
36.5556
 11
-141.372
 21
36.72
  0
LINE
  8
0
 10
-141.372
 20
36.72
 11
-141.17
 21
36.8628
  0
LINE
  8
0
 10
-141.17
 20
36.8628
 11
-140.955
 21
36.9821
  0
LINE
  8
0
 10
-140.955
 20
36.9821
 11
-140.727
 21
37.0765
  0
LINE
  8
0
 10
-140.727
 20
37.0765
 11
-140.49
 21
37.1448
  0
LINE
  8
0
 10
-140.49
 20
37.1448
 11
-140.246
 21
37.1862
  0
LINE
  8
0
 10
-140.246
 20
37.1862
 11
-140
 21
37.2
  0
LINE
  8
0
 10
-140
 20
37.2
 11
-139.754
 21
37.1862
  0
LINE
  8
0
 10
-139.754
 20
37.1862
 11
-139.51
 21
37.1448
  0
LINE
  8
0
 10
-139.51
 20
37.1448
 11
-139.273
 21
37.0765
  0
LINE
  8
0
 10
-139.273
 20
37.0765
 11
-139.045
 21
36.9821
  0
LINE
  8
0
 10
-139.045
 20
36.9821
 11
-138.83
 21
36.8628
  0
LINE
  8
0
 10
-138.83
 20
36.8628
 11
-138.628
 21
36.72
  0
LINE
  8
0
 10
-138.628
 20
36.72
 11
-138.444
 21
36.5556
  0
LINE
  8
0
 10
-138.444
 20
36.5556
 11
-138.28
 21
36.3717
  0
LINE
  8
0
 10
-138.28
 20
36.3717
 11
-138.137
 21
36.1705
  0
LINE
  8
0
 10
-138.137
 20
36.1705
 11
-138.018
 21
35.9545
  0
LINE
  8
0
 10
-138.018
 20
35.9545
 11
-137.923
 21
35.7266
  0
LINE
  8
0
 10
-137.923
 20
35.7266
 11
-137.855
 21
35.4895
  0
LINE
  8
0
 10
-137.855
 20
35.4895
 11
-137.814
 21
35.2463
  0
LINE
  8
0
 10
-137.814
 20
35.2463
 11
-137.8
 21
35
  0
LINE
  8
0
 10
-137.8
 20
35
 11
-137.814
 21
34.7537
  0
LINE
  8
0
 10
-137.814
 20
34.7537
 11
-137.855
 21
34.5105
  0
LINE
  8
0
 10
-137.855
 20
34.5105
 11
-137.923
 21
34.2734
  0
LINE
  8
0
 10
-137.923
 20
34.2734
 11
-138.018
 21
34.0454
  0
LINE
  8
0
 10
-138.018
 20
34.0454
 11
-138.137
 21
33.8295
  0
LINE
  8
0
 10
-138.137
 20
33.8295
 11
-138.28
 21
33.6283
  0
LINE
  8
0
 10
-138.28
 20
33.6283
 11
-138.444
 21
33.4444
  0
LINE
  8
0
 10
-138.444
 20
33.4444
 11
-138.628
 21
33.28
  0
LINE
  8
0
 10
-138.628
 20
33.28
 11
-138.83
 21
33.1372
  0
LINE
  8
0
 10
-138.83
 20
33.1372
 11
-139.045
 21
33.0179
  0
LINE
  8
0
 10
-139.045
 20
33.0179
 11
-139.273
 21
32.9234
  0
LINE
  8
0
 10
-139.273
 20
32.9234
 11
-139.51
 21
32.8551
  0
LINE
  8
0
 10
-139.51
 20
32.8551
 11
-139.754
 21
32.8138
  0
LINE
  8
0
 10
-139.754
 20
32.8138
 11
-140
 21
32.8
  0
LINE
  8
0
 10
-140
 20
32.8
 11
-140.246
 21
32.8138
  0
LINE
  8
0
 10
-0.246307
 20
32.8138
 11
-0.489532
 21
32.8551
  0
LINE
  8
0
 10
-0.489532
 20
32.8551
 11
-0.726608
 21
32.9234
  0
LINE
  8
0
 10
-0.726608
 20
32.9234
 11
-0.954544
 21
33.0179
  0
LINE
  8
0
 10
-0.954544
 20
33.0179
 11
-1.17046
 21
33.1372
  0
LINE
  8
0
 10
-1.17046
 20
33.1372
 11
-1.37167
 21
33.28
  0
LINE
  8
0
 10
-1.37167
 20
33.28
 11
-1.55563
 21
33.4444
  0
LINE
  8
0
 10
-1.55563
 20
33.4444
 11
-1.72002
 21
33.6283
  0
LINE
  8
0
 10
-1.72002
 20
33.6283
 11
-1.86279
 21
33.8295
  0
LINE
  8
0
 10
-1.86279
 20
33.8295
 11
-1.98212
 21
34.0454
  0
LINE
  8
0
 10
-1.98212
 20
34.0454
 11
-2.07654
 21
34.2734
  0
LINE
  8
0
 10
-2.07654
 20
34.2734
 11
-2.14484
 21
34.5105
  0
LINE
  8
0
 10
-2.14484
 20
34.5105
 11
-2.18616
 21
34.7537
  0
LINE
  8
0
 10
-2.18616
 20
34.7537
 11
-2.2
 21
35
  0
LINE
  8
0
 10
-2.2
 20
35
 11
-2.18616
 21
35.2463
  0
LINE
  8
0
 10
-2.18616
 20
35.2463
 11
-2.14484
 21
35.4895
  0
LINE
  8
0
 10
-2.14484
 20
35.4895
 11
-2.07654
 21
35.7266
  0
LINE
  8
0
 10
-2.07654
 20
35.7266
 11
-1.98212
 21
35.9545
  0
LINE
  8
0
 10
-1.98212
 20
35.9545
 11
-1.86279
 21
36.1705
  0
LINE
  8
0
 10
-1.86279
 20
36.1705
 11
-1.72002
 21
36.3717
  0
LINE
  8
0
 10
-1.72002
 20
36.3717
 11
-1.55563
 21
36.5556
  0
LINE
  8
0
 10
-1.55563
 20
36.5556
 11
-1.37167
 21
36.72
  0
LINE
  8
0
 10
-1.37167
 20
36.72
 11
-1.17046
 21
36.8628
  0
LINE
  8
0
 10
-1.17046
 20
36.8628
 11
-0.954544
 21
36.9821
  0
LINE
  8
0
 10
-0.954544
 20
36.9821
 11
-0.726608
 21
37.0765
  0
LINE
  8
0
 10
-0.726608
 20
37.0765
 11
-0.489532
 21
37.1448
  0
LINE
  8
0
 10
-0.489532
 20
37.1448
 11
-0.246307
 21
37.1862
  0
LINE
  8
0
 10
-0.246307
 20
37.1862
 11
0
 21
37.2
  0
LINE
  8
0
 10
0
 20
37.2
 11
0.246307
 21
37.1862
  0
LINE
  8
0
 10
0.246307
 20
37.1862
 11
0.489532
 21
37.1448
  0
LINE
  8
0
 10
0.489532
 20
37.1448
 11
0.726608
 21
37.0765
  0
LINE
  8
0
 10
0.726608
 20
37.0765
 11
0.954544
 21
36.9821
  0
LINE
  8
0
 10
0.954544
 20
36.9821
 11
1.17046
 21
36.8628
  0
LINE
  8
0
 10
1.17046
 20
36.8628
 11
1.37167
 21
36.72
  0
LINE
  8
0
 10
1.37167
 20
36.72
 11
1.55563
 21
36.5556
  0
LINE
  8
0
 10
1.55563
 20
36.5556
 11
1.72002
 21
36.3717
  0
LINE
  8
0
 10
1.72002
 20
36.3717
 11
1.86279
 21
36.1705
  0
LINE
  8
0
 10
1.86279
 20
36.1705
 11
1.98212
 21
35.9545
  0
LINE
  8
0
 10
1.98212
 20
35.9545
 11
2.07654
 21
35.7266
  0
LINE
  8
0
 10
2.07654
 20
35.7266
 11
2.14484
 21
35.4895
  0
LINE
  8
0
 10
2.14484
 20
35.4895
 11
2.18616
 21
35.2463
  0
LINE
  8
0
 10
2.18616
 20
35.2463
 11
2.2
 21
35
  0
LINE
  8
0
 10
2.2
 20
35
 11
2.18616
 21
34.7537
  0
LINE
  8
0
 10
2.18616
 20
34.7537
 11
2.14484
 21
34.5105
  0
LINE
  8
0
 10
2.14484
 20
34.5105
 11
2.07654
 21
34.2734
  0
LINE
  8
0
 10
2.07654
 20
34.2734
 11
1.98212
 21
34.0454
  0
LINE
  8
0
 10
1.98212
 20
34.0454
 11
1.86279
 21
33.8295
  0
LINE
  8
0
 10
1.86279
 20
33.8295
 11
1.72002
 21
33.6283
  0
LINE
  8
0
 10
1.72002
 20
33.6283
 11
1.55563
 21
33.4444
  0
LINE
  8
0
 10
1.55563
 20
33.4444
 11
1.37167
 21
33.28
  0
LINE
  8
0
 10
1.37167
 20
33.28
 11
1.17046
 21
33.1372
  0
LINE
  8
0
 10
1.17046
 20
33.1372
 11
0.954544
 21
33.0179
  0
LINE
  8
0
 10
0.954544
 20
33.0179
 11
0.726608
 21
32.9234
  0
LINE
  8
0
 10
0.726608
 20
32.9234
 11
0.489532
 21
32.8551
  0
LINE
  8
0
 10
0.489532
 20
32.8551
 11
0.246307
 21
32.8138
  0
LINE
  8
0
 10
0.246307
 20
32.8138
 11
0
 21
32.8
  0
LINE
  8
0
 10
0
 20
32.8
 11
-0.246307
 21
32.8138
  0
LINE
  8
0
 10
139.754
 20
32.8138
 11
139.51
 21
32.8551
  0
LINE
  8
0
 10
139.51
 20
32.8551
 11
139.273
 21
32.9234
  0
LINE
  8
0
 10
139.273
 20
32.9234
 11
139.045
 21
33.0179
  0
LINE
  8
0
 10
139.045
 20
33.0179
 11
138.83
 21
33.1372
  0
LINE
  8
0
 10
138.83
 20
33.1372
 11
138.628
 21
33.28
  0
LINE
  8
0
 10
138.628
 20
33.28
 11
138.444
 21
33.4444
  0
LINE
  8
0
 10
138.444
 20
33.4444
 11
138.28
 21
33.6283
  0
LINE
  8
0
 10
138.28
 20
33.6283
 11
138.137
 21
33.8295
  0
LINE
  8
0
 10
138.137
 20
33.8295
 11
138.018
 21
34.0454
  0
LINE
  8
0
 10
138.018
 20
34.0454
 11
137.923
 21
34.2734
  0
LINE
  8
0
 10
137.923
 20
34.2734
 11
137.855
 21
34.5105
  0
LINE
  8
0
 10
137.855
 20
34.5105
 11
137.814
 21
34.7537
  0
LINE
  8
0
 10
137.814
 20
34.7537
 11
137.8
 21
35
  0
LINE
  8
0
 10
137.8
 20
35
 11
137.814
 21
35.2463
  0
LINE
  8
0
 10
137.814
 20
35.2463
 11
137.855
 21
35.4895
  0
LINE
  8
0
 10
137.855
 20
35.4895
 11
137.923
 21
35.7266
  0
LINE
  8
0
 10
137.923
 20
35.7266
 11
138.018
 21
35.9545
  0
LINE
  8
0
 10
138.018
 20
35.9545
 11
138.137
 21
36.1705
  0
LINE
  8
0
 10
138.137
 20
36.1705
 11
138.28
 21
36.3717
  0
LINE
  8
0
 10
138.28
 20
36.3717
 11
138.444
 21
36.5556
  0
LINE
  8
0
 10
138.444
 20
36.5556
 11
138.628
 21
36.72
  0
LINE
  8
0
 10
138.628
 20
36.72
 11
138.83
 21
36.8628
  0
LINE
  8
0
 10
138.83
 20
36.8628
 11
139.045
 21
36.9821
  0
LINE
  8
0
 10
139.045
 20
36.9821
 11
139.273
 21
37.0765
  0
LINE
  8
0
 10
139.273
 20
37.0765
 11
139.51
 21
37.1448
  0
LINE
  8
0
 10
139.51
 20
37.1448
 11
139.754
 21
37.1862
  0
LINE
  8
0
 10
139.754
 20
37.1862
 11
140
 21
37.2
  0
LINE
  8
0
 10
140
 20
37.2
 11
140.246
 21
37.1862
  0
LINE
  8
0
 10
140.246
 20
37.1862
 11
140.49
 21
37.1448
  0
LINE
  8
0
 10
140.49
 20
37.1448
 11
140.727
 21
37.0765
  0
LINE
  8
0
 10
140.727
 20
37.0765
 11
140.955
 21
36.9821
  0
LINE
  8
0
 10
140.955
 20
36.9821
 11
141.17
 21
36.8628
  0
LINE
  8
0
 10
141.17
 20
36.8628
 11
141.372
 21
36.72
  0
LINE
  8
0
 10
141.372
 20
36.72
 11
141.556
 21
36.5556
  0
LINE
  8
0
 10
141.556
 20
36.5556
 11
141.72
 21
36.3717
  0
LINE
  8
0
 10
141.72
 20
36.3717
 11
141.863
 21
36.1705
  0
LINE
  8
0
 10
141.863
 20
36.1705
 11
141.982
 21
35.9545
  0
LINE
  8
0
 10
141.982
 20
35.9545
 11
142.077
 21
35.7266
  0
LINE
  8
0
 10
142.077
 20
35.7266
 11
142.145
 21
35.4895
  0
LINE
  8
0
 10
142.145
 20
35.4895
 11
142.186
 21
35.2463
  0
LINE
  8
0
 10
142.186
 20
35.2463
 11
142.2
 21
35
  0
LINE
  8
0
 10
142.2
 20
35
 11
142.186
 21
34.7537
  0
LINE
  8
0
 10
142.186
 20
34.7537
 11
142.145
 21
34.5105
  0
LINE
  8
0
 10
142.145
 20
34.5105
 11
142.077
 21
34.2734
  0
LINE
  8
0
 10
142.077
 20
34.2734
 11
141.982
 21
34.0454
  0
LINE
  8
0
 10
141.982
 20
34.0454
 11
141.863
 21
33.8295
  0
LINE
  8
0
 10
141.863
 20
33.8295
 11
141.72
 21
33.6283
  0
LINE
  8
0
 10
141.72
 20
33.6283
 11
141.556
 21
33.4444
  0
LINE
  8
0
 10
141.556
 20
33.4444
 11
141.372
 21
33.28
  0
LINE
  8
0
 10
141.372
 20
33.28
 11
141.17
 21
33.1372
  0
LINE
  8
0
 10
141.17
 20
33.1372
 11
140.955
 21
33.0179
  0
LINE
  8
0
 10
140.955
 20
33.0179
 11
140.727
 21
32.9234
  0
LINE
  8
0
 10
140.727
 20
32.9234
 11
140.49
 21
32.8551
  0
LINE
  8
0
 10
140.49
 20
32.8551
 11
140.246
 21
32.8138
  0
LINE
  8
0
 10
140.246
 20
32.8138
 11
140
 21
32.8
  0
LINE
  8
0
 10
140
 20
32.8
 11
139.754
 21
32.8138
  0
LINE
  8
0
 10
-140.246
 20
-37.1862
 11
-140.49
 21
-37.1448
  0
LINE
  8
0
 10
-140.49
 20
-37.1448
 11
-140.727
 21
-37.0765
  0
LINE
  8
0
 10
-140.727
 20
-37.0765
 11
-140.955
 21
-36.9821
  0
LINE
  8
0
 10
-140.955
 20
-36.9821
 11
-141.17
 21
-36.8628
  0
LINE
  8
0
 10
-141.17
 20
-36.8628
 11
-141.372
 21
-36.72
  0
LINE
  8
0
 10
-141.372
 20
-36.72
 11
-141.556
 21
-36.5556
  0
LINE
  8
0
 10
-141.556
 20
-36.5556
 11
-141.72
 21
-36.3717
  0
LINE
  8
0
 10
-141.72
 20
-36.3717
 11
-141.863
 21
-36.1705
  0
LINE
  8
0
 10
-141.863
 20
-36.1705
 11
-141.982
 21
-35.9545
  0
LINE
  8
0
 10
-141.982
 20
-35.9545
 11
-142.077
 21
-35.7266
  0
LINE
  8
0
 10
-142.077
 20
-35.7266
 11
-142.145
 21
-35.4895
  0
LINE
  8
0
 10
-142.145
 20
-35.4895
 11
-142.186
 21
-35.2463
  0
LINE
  8
0
 10
-142.186
 20
-35.2463
 11
-142.2
 21
-35
  0
LINE
  8
0
 10
-142.2
 20
-35
 11
-142.186
 21
-34.7537
  0
LINE
  8
0
 10
-142.186
 20
-34.7537
 11
-142.145
 21
-34.5105
  0
LINE
  8
0
 10
-142.145
 20
-34.5105
 11
-142.077
 21
-34.2734
  0
LINE
  8
0
 10
-142.077
 20
-34.2734
 11
-141.982
 21
-34.0454
  0
LINE
  8
0
 10
-141.982
 20
-34.0454
 11
-141.863
 21
-33.8295
  0
LINE
  8
0
 10
-141.863
 20
-33.8295
 11
-141.72
 21
-33.6283
  0
LINE
  8
0
 10
-141.72
 20
-33.6283
 11
-141.556
 21
-33.4444
  0
LINE
  8
0
 10
-141.556
 20
-33.4444
 11
-141.372
 21
-33.28
  0
LINE
  8
0
 10
-141.372
 20
-33.28
 11
-141.17
 21
-33.1372
  0
LINE
  8
0
 10
-141.17
 20
-33.1372
 11
-140.955
 21
-33.0179
  0
LINE
  8
0
 10
-140.955
 20
-33.0179
 11
-140.727
 21
-32.9234
  0
LINE
  8
0
 10
-140.727
 20
-32.9234
 11
-140.49
 21
-32.8551
  0
LINE
  8
0
 10
-140.49
 20
-32.8551
 11
-140.246
 21
-32.8138
  0
LINE
  8
0
 10
-140.246
 20
-32.8138
 11
-140
 21
-32.8
  0
LINE
  8
0
 10
-140
 20
-32.8
 11
-139.754
 21
-32.8138
  0
LINE
  8
0
 10
-139.754
 20
-32.8138
 11
-139.51
 21
-32.8551
  0
LINE
  8
0
 10
-139.51
 20
-32.8551
 11
-139.273
 21
-32.9234
  0
LINE
  8
0
 10
-139.273
 20
-32.9234
 11
-139.045
 21
-33.0179
  0
LINE
  8
0
 10
-139.045
 20
-33.0179
 11
-138.83
 21
-33.1372
  0
LINE
  8
0
 10
-138.83
 20
-33.1372
 11
-138.628
 21
-33.28
  0
LINE
  8
0
 10
-138.628
 20
-33.28
 11
-138.444
 21
-33.4444
  0
LINE
  8
0
 10
-138.444
 20
-33.4444
 11
-138.28
 21
-33.6283
  0
LINE
  8
0
 10
-138.28
 20
-33.6283
 11
-138.137
 21
-33.8295
  0
LINE
  8
0
 10
-138.137
 20
-33.8295
 11
-138.018
 21
-34.0454
  0
LINE
  8
0
 10
-138.018
 20
-34.0454
 11
-137.923
 21
-34.2734
  0
LINE
  8
0
 10
-137.923
 20
-34.2734
 11
-137.855
 21
-34.5105
  0
LINE
  8
0
 10
-137.855
 20
-34.5105
 11
-137.814
 21
-34.7537
  0
LINE
  8
0
 10
-137.814
 20
-34.7537
 11
-137.8
 21
-35
  0
LINE
  8
0
 10
-137.8
 20
-35
 11
-137.814
 21
-35.2463
  0
LINE
  8
0
 10
-137.814
 20
-35.2463
 11
-137.855
 21
-35.4895
  0
LINE
  8
0
 10
-137.855
 20
-35.4895
 11
-137.923
 21
-35.7266
  0
LINE
  8
0
 10
-137.923
 20
-35.7266
 11
-138.018
 21
-35.9545
  0
LINE
  8
0
 10
-138.018
 20
-35.9545
 11
-138.137
 21
-36.1705
  0
LINE
  8
0
 10
-138.137
 20
-36.1705
 11
-138.28
 21
-36.3717
  0
LINE
  8
0
 10
-138.28
 20
-36.3717
 11
-138.444
 21
-36.5556
  0
LINE
  8
0
 10
-138.444
 20
-36.5556
 11
-138.628
 21
-36.72
  0
LINE
  8
0
 10
-138.628
 20
-36.72
 11
-138.83
 21
-36.8628
  0
LINE
  8
0
 10
-138.83
 20
-36.8628
 11
-139.045
 21
-36.9821
  0
LINE
  8
0
 10
-139.045
 20
-36.9821
 11
-139.273
 21
-37.0765
  0
LINE
  8
0
 10
-139.273
 20
-37.0765
 11
-139.51
 21
-37.1448
  0
LINE
  8
0
 10
-139.51
 20
-37.1448
 11
-139.754
 21
-37.1862
  0
LINE
  8
0
 10
-139.754
 20
-37.1862
 11
-140
 21
-37.2
  0
LINE
  8
0
 10
-140
 20
-37.2
 11
-140.246
 21
-37.1862
  0
LINE
  8
0
 10
-0.246307
 20
-37.1862
 11
-0.489532
 21
-37.1448
  0
LINE
  8
0
 10
-0.489532
 20
-37.1448
 11
-0.726608
 21
-37.0765
  0
LINE
  8
0
 10
-0.726608
 20
-37.0765
 11
-0.954544
 21
-36.9821
  0
LINE
  8
0
 10
-0.954544
 20
-36.9821
 11
-1.17046
 21
-36.8628
  0
LINE
  8
0
 10
-1.17046
 20
-36.8628
 11
-1.37167
 21
-36.72
  0
LINE
  8
0
 10
-1.37167
 20
-36.72
 11
-1.55563
 21
-36.5556
  0
LINE
  8
0
 10
-1.55563
 20
-36.5556
 11
-1.72002
 21
-36.3717
  0
LINE
  8
0
 10
-1.72002
 20
-36.3717
 11
-1.86279
 21
-36.1705
  0
LINE
  8
0
 10
-1.86279
 20
-36.1705
 11
-1.98212
 21
-35.9545
  0
LINE
  8
0
 10
-1.98212
 20
-35.9545
 11
-2.07654
 21
-35.7266
  0
LINE
  8
0
 10
-2.07654
 20
-35.7266
 11
-2.14484
 21
-35.4895
  0
LINE
  8
0
 10
-2.14484
 20
-35.4895
 11
-2.18616
 21
-35.2463
  0
LINE
  8
0
 10
-2.18616
 20
-35.2463
 11
-2.2
 21
-35
  0
LINE
  8
0
 10
-2.2
 20
-35
 11
-2.18616
 21
-34.7537
  0
LINE
  8
0
 10
-2.18616
 20
-34.7537
 11
-2.14484
 21
-34.5105
  0
LINE
  8
0
 10
-2.14484
 20
-34.5105
 11
-2.07654
 21
-34.2734
  0
LINE
  8
0
 10
-2.07654
 20
-34.2734
 11
-1.98212
 21
-34.0454
  0
LINE
  8
0
 10
-1.98212
 20
-34.0454
 11
-1.86279
 21
-33.8295
  0
LINE
  8
0
 10
-1.86279
 20
-33.8295
 11
-1.72002
 21
-33.6283
  0
LINE
  8
0
 10
-1.72002
 20
-33.6283
 11
-1.55563
 21
-33.4444
  0
LINE
  8
0
 10
-1.55563
 20
-33.4444
 11
-1.37167
 21
-33.28
  0
LINE
  8
0
 10
-1.37167
 20
-33.28
 11
-1.17046
 21
-33.1372
  0
LINE
  8
0
 10
-1.17046
 20
-33.1372
 11
-0.954544
 21
-33.0179
  0
LINE
  8
0
 10
-0.954544
 20
-33.0179
 11
-0.726608
 21
-32.9234
  0
LINE
  8
0
 10
-0.726608
 20
-32.9234
 11
-0.489532
 21
-32.8551
  0
LINE
  8
0
 10
-0.489532
 20
-32.8551
 11
-0.246307
 21
-32.8138
  0
LINE
  8
0
 10
-0.246307
 20
-32.8138
 11
0
 21
-32.8
  0
LINE
  8
0
 10
0
 20
-32.8
 11
0.246307
 21
-32.8138
  0
LINE
  8
0
 10
0.246307
 20
-32.8138
 11
0.489532
 21
-32.8551
  0
LINE
  8
0
 10
0.489532
 20
-32.8551
 11
0.726608
 21
-32.9234
  0
LINE
  8
0
 10
0.726608
 20
-32.9234
 11
0.954544
 21
-33.0179
  0
LINE
  8
0
 10
0.954544
 20
-33.0179
 11
1.17046
 21
-33.1372
  0
LINE
  8
0
 10
1.17046
 20
-33.1372
 11
1.37167
 21
-33.28
  0
LINE
  8
0
 10
1.37167
 20
-33.28
 11
1.55563
 21
-33.4444
  0
LINE
  8
0
 10
1.55563
 20
-33.4444
 11
1.72002
 21
-33.6283
  0
LINE
  8
0
 10
1.72002
 20
-33.6283
 11
1.86279
 21
-33.8295
  0
LINE
  8
0
 10
1.86279
 20
-33.8295
 11
1.98212
 21
-34.0454
  0
LINE
  8
0
 10
1.98212
 20
-34.0454
 11
2.07654
 21
-34.2734
  0
LINE
  8
0
 10
2.07654
 20
-34.2734
 11
2.14484
 21
-34.5105
  0
LINE
  8
0
 10
2.14484
 20
-34.5105
 11
2.18616
 21
-34.7537
  0
LINE
  8
0
 10
2.18616
 20
-34.7537
 11
2.2
 21
-35
  0
LINE
  8
0
 10
2.2
 20
-35
 11
2.18616
 21
-35.2463
  0
LINE
  8
0
 10
2.18616
 20
-35.2463
 11
2.14484
 21
-35.4895
  0
LINE
  8
0
 10
2.14484
 20
-35.4895
 11
2.07654
 21
-35.7266
  0
LINE
  8
0
 10
2.07654
 20
-35.7266
 11
1.98212
 21
-35.9545
  0
LINE
  8
0
 10
1.98212
 20
-35.9545
 11
1.86279
 21
-36.1705
  0
LINE
  8
0
 10
1.86279
 20
-36.1705
 11
1.72002
 21
-36.3717
  0
LINE
  8
0
 10
1.72002
 20
-36.3717
 11
1.55563
 21
-36.5556
  0
LINE
  8
0
 10
1.55563
 20
-36.5556
 11
1.37167
 21
-36.72
  0
LINE
  8
0
 10
1.37167
 20
-36.72
 11
1.17046
 21
-36.8628
  0
LINE
  8
0
 10
1.17046
 20
-36.8628
 11
0.954544
 21
-36.9821
  0
LINE
  8
0
 10
0.954544
 20
-36.9821
 11
0.726608
 21
-37.0765
  0
LINE
  8
0
 10
0.726608
 20
-37.0765
 11
0.489532
 21
-37.1448
  0
LINE
  8
0
 10
0.489532
 20
-37.1448
 11
0.246307
 21
-37.1862
  0
LINE
  8
0
 10
0.246307
 20
-37.1862
 11
0
 21
-37.2
  0
LINE
  8
0
 10
0
 20
-37.2
 11
-0.246307
 21
-37.1862
  0
LINE
  8
0
 10
139.754
 20
-37.1862
 11
139.51
 21
-37.1448
  0
LINE
  8
0
 10
139.51
 20
-37.1448
 11
139.273
 21
-37.0765
  0
LINE
  8
0
 10
139.273
 20
-37.0765
 11
139.045
 21
-36.9821
  0
LINE
  8
0
 10
139.045
 20
-36.9821
 11
138.83
 21
-36.8628
  0
LINE
  8
0
 10
138.83
 20
-36.8628
 11
138.628
 21
-36.72
  0
LINE
  8
0
 10
138.628
 20
-36.72
 11
138.444
 21
-36.5556
  0
LINE
  8
0
 10
138.444
 20
-36.5556
 11
138.28
 21
-36.3717
  0
LINE
  8
0
 10
138.28
 20
-36.3717
 11
138.137
 21
-36.1705
  0
LINE
  8
0
 10
138.137
 20
-36.1705
 11
138.018
 21
-35.9545
  0
LINE
  8
0
 10
138.018
 20
-35.9545
 11
137.923
 21
-35.7266
  0
LINE
  8
0
 10
137.923
 20
-35.7266
 11
137.855
 21
-35.4895
  0
LINE
  8
0
 10
137.855
 20
-35.4895
 11
137.814
 21
-35.2463
  0
LINE
  8
0
 10
137.814
 20
-35.2463
 11
137.8
 21
-35
  0
LINE
  8
0
 10
137.8
 20
-35
 11
137.814
 21
-34.7537
  0
LINE
  8
0
 10
137.814
 20
-34.7537
 11
137.855
 21
-34.5105
  0
LINE
  8
0
 10
137.855
 20
-34.5105
 11
137.923
 21
-34.2734
  0
LINE
  8
0
 10
137.923
 20
-34.2734
 11
138.018
 21
-34.0454
  0
LINE
  8
0
 10
138.018
 20
-34.0454
 11
138.137
 21
-33.8295
  0
LINE
  8
0
 10
138.137
 20
-33.8295
 11
138.28
 21
-33.6283
  0
LINE
  8
0
 10
138.28
 20
-33.6283
 11
138.444
 21
-33.4444
  0
LINE
  8
0
 10
138.444
 20
-33.4444
 11
138.628
 21
-33.28
  0
LINE
  8
0
 10
138.628
 20
-33.28
 11
138.83
 21
-33.1372
  0
LINE
  8
0
 10
138.83
 20
-33.1372
 11
139.045
 21
-33.0179
  0
LINE
  8
0
 10
139.045
 20
-33.0179
 11
139.273
 21
-32.9234
  0
LINE
  8
0
 10
139.273
 20
-32.9234
 11
139.51
 21
-32.8551
  0
LINE
  8
0
 10
139.51
 20
-32.8551
 11
139.754
 21
-32.8138
  0
LINE
  8
0
 10
139.754
 20
-32.8138
 11
140
 21
-32.8
  0
LINE
  8
0
 10
140
 20
-32.8
 11
140.246
 21
-32.8138
  0
LINE
  8
0
 10
140.246
 20
-32.8138
 11
140.49
 21
-32.8551
  0
LINE
  8
0
 10
140.49
 20
-32.8551
 11
140.727
 21
-32.9234
  0
LINE
  8
0
 10
140.727
 20
-32.9234
 11
140.955
 21
-33.0179
  0
LINE
  8
0
 10
140.955
 20
-33.0179
 11
141.17
 21
-33.1372
  0
LINE
  8
0
 10
141.17
 20
-33.1372
 11
141.372
 21
-33.28
  0
LINE
  8
0
 10
141.372
 20
-33.28
 11
141.556
 21
-33.4444
  0
LINE
  8
0
 10
141.556
 20
-33.4444
 11
141.72
 21
-33.6283
  0
LINE
  8
0
 10
141.72
 20
-33.6283
 11
141.863
 21
-33.8295
  0
LINE
  8
0
 10
141.863
 20
-33.8295
 11
141.982
 21
-34.0454
  0
LINE
  8
0
 10
141.982
 20
-34.0454
 11
142.077
 21
-34.2734
  0
LINE
  8
0
 10
142.077
 20
-34.2734
 11
142.145
 21
-34.5105
  0
LINE
  8
0
 10
142.145
 20
-34.5105
 11
142.186
 21
-34.7537
  0
LINE
  8
0
 10
142.186
 20
-34.7537
 11
142.2
 21
-35
  0
LINE
  8
0
 10
142.2
 20
-35
 11
142.186
 21
-35.2463
  0
LINE
  8
0
 10
142.186
 20
-35.2463
 11
142.145
 21
-35.4895
  0
LINE
  8
0
 10
142.145
 20
-35.4895
 11
142.077
 21
-35.7266
  0
LINE
  8
0
 10
142.077
 20
-35.7266
 11
141.982
 21
-35.9545
  0
LINE
  8
0
 10
141.982
 20
-35.9545
 11
141.863
 21
-36.1705
  0
LINE
  8
0
 10
141.863
 20
-36.1705
 11
141.72
 21
-36.3717
  0
LINE
  8
0
 10
141.72
 20
-36.3717
 11
141.556
 21
-36.5556
  0
LINE
  8
0
 10
141.556
 20
-36.5556
 11
141.372
 21
-36.72
  0
LINE
  8
0
 10
141.372
 20
-36.72
 11
141.17
 21
-36.8628
  0
LINE
  8
0
 10
141.17
 20
-36.8628
 11
140.955
 21
-36.9821
  0
LINE
  8
0
 10
140.955
 20
-36.9821
 11
140.727
 21
-37.0765
  0
LINE
  8
0
 10
140.727
 20
-37.0765
 11
140.49
 21
-37.1448
  0
LINE
  8
0
 10
140.49
 20
-37.1448
 11
140.246
 21
-37.1862
  0
LINE
  8
0
 10
140.246
 20
-37.1862
 11
140
 21
-37.2
  0
LINE
  8
0
 10
140
 20
-37.2
 11
139.754
 21
-37.1862
  0
ENDSEC
  0
SECTION
  2
OBJECTS
  0
DICTIONARY
  0
ENDSEC
  0
EOF
