  0
SECTION
  2
BLOCKS
  0
ENDSEC
  0
SECTION
  2
ENTITIES
  0
LINE
  8
0
 10
169.223
 20
-199.975
 11
169.434
 21
-199.901
  0
LINE
  8
0
 10
169.434
 20
-199.901
 11
169.623
 21
-199.782
  0
LINE
  8
0
 10
169.623
 20
-199.782
 11
169.782
 21
-199.623
  0
LINE
  8
0
 10
169.782
 20
-199.623
 11
169.901
 21
-199.434
  0
LINE
  8
0
 10
169.901
 20
-199.434
 11
169.975
 21
-199.223
  0
LINE
  8
0
 10
169.975
 20
-199.223
 11
170
 21
-199
  0
LINE
  8
0
 10
170
 20
-199
 11
170
 21
199
  0
LINE
  8
0
 10
170
 20
199
 11
169.975
 21
199.223
  0
LINE
  8
0
 10
169.975
 20
199.223
 11
169.901
 21
199.434
  0
LINE
  8
0
 10
169.901
 20
199.434
 11
169.782
 21
199.623
  0
LINE
  8
0
 10
169.782
 20
199.623
 11
169.623
 21
199.782
  0
LINE
  8
0
 10
169.623
 20
199.782
 11
169.434
 21
199.901
  0
LINE
  8
0
 10
169.434
 20
199.901
 11
169.223
 21
199.975
  0
LINE
  8
0
 10
169.223
 20
199.975
 11
169
 21
200
  0
LINE
  8
0
 10
169
 20
200
 11
-169
 21
200
  0
LINE
  8
0
 10
-169
 20
200
 11
-169.223
 21
199.975
  0
LINE
  8
0
 10
-169.223
 20
199.975
 11
-169.434
 21
199.901
  0
LINE
  8
0
 10
-169.434
 20
199.901
 11
-169.623
 21
199.782
  0
LINE
  8
0
 10
-169.623
 20
199.782
 11
-169.782
 21
199.623
  0
LINE
  8
0
 10
-169.782
 20
199.623
 11
-169.901
 21
199.434
  0
LINE
  8
0
 10
-169.901
 20
199.434
 11
-169.975
 21
199.223
  0
LINE
  8
0
 10
-169.975
 20
199.223
 11
-170
 21
199
  0
LINE
  8
0
 10
-170
 20
199
 11
-170
 21
-199
  0
LINE
  8
0
 10
-170
 20
-199
 11
-169.975
 21
-199.223
  0
LINE
  8
0
 10
-169.975
 20
-199.223
 11
-169.901
 21
-199.434
  0
LINE
  8
0
 10
-169.901
 20
-199.434
 11
-169.782
 21
-199.623
  0
LINE
  8
0
 10
-169.782
 20
-199.623
 11
-169.623
 21
-199.782
  0
LINE
  8
0
 10
-169.623
 20
-199.782
 11
-169.434
 21
-199.901
  0
LINE
  8
0
 10
-169.434
 20
-199.901
 11
-169.223
 21
-199.975
  0
LINE
  8
0
 10
-169.223
 20
-199.975
 11
-169
 21
-200
  0
LINE
  8
0
 10
-169
 20
-200
 11
169
 21
-200
  0
LINE
  8
0
 10
169
 20
-200
 11
169.223
 21
-199.975
  0
LINE
  8
0
 10
139.738
 20
187.51
 11
139.48
 21
187.551
  0
LINE
  8
0
 10
139.48
 20
187.551
 11
139.226
 21
187.619
  0
LINE
  8
0
 10
139.226
 20
187.619
 11
138.982
 21
187.713
  0
LINE
  8
0
 10
138.982
 20
187.713
 11
138.748
 21
187.832
  0
LINE
  8
0
 10
138.748
 20
187.832
 11
138.529
 21
187.975
  0
LINE
  8
0
 10
138.529
 20
187.975
 11
138.325
 21
188.14
  0
LINE
  8
0
 10
138.325
 20
188.14
 11
138.14
 21
188.325
  0
LINE
  8
0
 10
138.14
 20
188.325
 11
137.975
 21
188.529
  0
LINE
  8
0
 10
137.975
 20
188.529
 11
137.832
 21
188.748
  0
LINE
  8
0
 10
137.832
 20
188.748
 11
137.713
 21
188.982
  0
LINE
  8
0
 10
137.713
 20
188.982
 11
137.619
 21
189.226
  0
LINE
  8
0
 10
137.619
 20
189.226
 11
137.551
 21
189.48
  0
LINE
  8
0
 10
137.551
 20
189.48
 11
137.51
 21
189.738
  0
LINE
  8
0
 10
137.51
 20
189.738
 11
137.497
 21
190
  0
LINE
  8
0
 10
137.497
 20
190
 11
137.51
 21
190.262
  0
LINE
  8
0
 10
137.51
 20
190.262
 11
137.551
 21
190.52
  0
LINE
  8
0
 10
137.551
 20
190.52
 11
137.619
 21
190.774
  0
LINE
  8
0
 10
137.619
 20
190.774
 11
137.713
 21
191.018
  0
LINE
  8
0
 10
137.713
 20
191.018
 11
137.832
 21
191.252
  0
LINE
  8
0
 10
137.832
 20
191.252
 11
137.975
 21
191.471
  0
LINE
  8
0
 10
137.975
 20
191.471
 11
138.14
 21
191.675
  0
LINE
  8
0
 10
138.14
 20
191.675
 11
138.325
 21
191.86
  0
LINE
  8
0
 10
138.325
 20
191.86
 11
138.529
 21
192.025
  0
LINE
  8
0
 10
138.529
 20
192.025
 11
138.748
 21
192.168
  0
LINE
  8
0
 10
138.748
 20
192.168
 11
138.982
 21
192.287
  0
LINE
  8
0
 10
138.982
 20
192.287
 11
139.226
 21
192.381
  0
LINE
  8
0
 10
139.226
 20
192.381
 11
139.48
 21
192.449
  0
LINE
  8
0
 10
139.48
 20
192.449
 11
139.738
 21
192.49
  0
LINE
  8
0
 10
139.738
 20
192.49
 11
140
 21
192.503
  0
LINE
  8
0
 10
140
 20
192.503
 11
140.262
 21
192.49
  0
LINE
  8
0
 10
140.262
 20
192.49
 11
140.52
 21
192.449
  0
LINE
  8
0
 10
140.52
 20
192.449
 11
140.774
 21
192.381
  0
LINE
  8
0
 10
140.774
 20
192.381
 11
141.018
 21
192.287
  0
LINE
  8
0
 10
141.018
 20
192.287
 11
141.252
 21
192.168
  0
LINE
  8
0
 10
141.252
 20
192.168
 11
141.471
 21
192.025
  0
LINE
  8
0
 10
141.471
 20
192.025
 11
141.675
 21
191.86
  0
LINE
  8
0
 10
141.675
 20
191.86
 11
141.86
 21
191.675
  0
LINE
  8
0
 10
141.86
 20
191.675
 11
142.025
 21
191.471
  0
LINE
  8
0
 10
142.025
 20
191.471
 11
142.168
 21
191.252
  0
LINE
  8
0
 10
142.168
 20
191.252
 11
142.287
 21
191.018
  0
LINE
  8
0
 10
142.287
 20
191.018
 11
142.381
 21
190.774
  0
LINE
  8
0
 10
142.381
 20
190.774
 11
142.449
 21
190.52
  0
LINE
  8
0
 10
142.449
 20
190.52
 11
142.49
 21
190.262
  0
LINE
  8
0
 10
142.49
 20
190.262
 11
142.503
 21
190
  0
LINE
  8
0
 10
142.503
 20
190
 11
142.49
 21
189.738
  0
LINE
  8
0
 10
142.49
 20
189.738
 11
142.449
 21
189.48
  0
LINE
  8
0
 10
142.449
 20
189.48
 11
142.381
 21
189.226
  0
LINE
  8
0
 10
142.381
 20
189.226
 11
142.287
 21
188.982
  0
LINE
  8
0
 10
142.287
 20
188.982
 11
142.168
 21
188.748
  0
LINE
  8
0
 10
142.168
 20
188.748
 11
142.025
 21
188.529
  0
LINE
  8
0
 10
142.025
 20
188.529
 11
141.86
 21
188.325
  0
LINE
  8
0
 10
141.86
 20
188.325
 11
141.675
 21
188.14
  0
LINE
  8
0
 10
141.675
 20
188.14
 11
141.471
 21
187.975
  0
LINE
  8
0
 10
141.471
 20
187.975
 11
141.252
 21
187.832
  0
LINE
  8
0
 10
141.252
 20
187.832
 11
141.018
 21
187.713
  0
LINE
  8
0
 10
141.018
 20
187.713
 11
140.774
 21
187.619
  0
LINE
  8
0
 10
140.774
 20
187.619
 11
140.52
 21
187.551
  0
LINE
  8
0
 10
140.52
 20
187.551
 11
140.262
 21
187.51
  0
LINE
  8
0
 10
140.262
 20
187.51
 11
140
 21
187.497
  0
LINE
  8
0
 10
140
 20
187.497
 11
139.738
 21
187.51
  0
LINE
  8
0
 10
-160.262
 20
187.51
 11
-160.52
 21
187.551
  0
LINE
  8
0
 10
-160.52
 20
187.551
 11
-160.774
 21
187.619
  0
LINE
  8
0
 10
-160.774
 20
187.619
 11
-161.018
 21
187.713
  0
LINE
  8
0
 10
-161.018
 20
187.713
 11
-161.252
 21
187.832
  0
LINE
  8
0
 10
-161.252
 20
187.832
 11
-161.471
 21
187.975
  0
LINE
  8
0
 10
-161.471
 20
187.975
 11
-161.675
 21
188.14
  0
LINE
  8
0
 10
-161.675
 20
188.14
 11
-161.86
 21
188.325
  0
LINE
  8
0
 10
-161.86
 20
188.325
 11
-162.025
 21
188.529
  0
LINE
  8
0
 10
-162.025
 20
188.529
 11
-162.168
 21
188.748
  0
LINE
  8
0
 10
-162.168
 20
188.748
 11
-162.287
 21
188.982
  0
LINE
  8
0
 10
-162.287
 20
188.982
 11
-162.381
 21
189.226
  0
LINE
  8
0
 10
-162.381
 20
189.226
 11
-162.449
 21
189.48
  0
LINE
  8
0
 10
-162.449
 20
189.48
 11
-162.49
 21
189.738
  0
LINE
  8
0
 10
-162.49
 20
189.738
 11
-162.503
 21
190
  0
LINE
  8
0
 10
-162.503
 20
190
 11
-162.49
 21
190.262
  0
LINE
  8
0
 10
-162.49
 20
190.262
 11
-162.449
 21
190.52
  0
LINE
  8
0
 10
-162.449
 20
190.52
 11
-162.381
 21
190.774
  0
LINE
  8
0
 10
-162.381
 20
190.774
 11
-162.287
 21
191.018
  0
LINE
  8
0
 10
-162.287
 20
191.018
 11
-162.168
 21
191.252
  0
LINE
  8
0
 10
-162.168
 20
191.252
 11
-162.025
 21
191.471
  0
LINE
  8
0
 10
-162.025
 20
191.471
 11
-161.86
 21
191.675
  0
LINE
  8
0
 10
-161.86
 20
191.675
 11
-161.675
 21
191.86
  0
LINE
  8
0
 10
-161.675
 20
191.86
 11
-161.471
 21
192.025
  0
LINE
  8
0
 10
-161.471
 20
192.025
 11
-161.252
 21
192.168
  0
LINE
  8
0
 10
-161.252
 20
192.168
 11
-161.018
 21
192.287
  0
LINE
  8
0
 10
-161.018
 20
192.287
 11
-160.774
 21
192.381
  0
LINE
  8
0
 10
-160.774
 20
192.381
 11
-160.52
 21
192.449
  0
LINE
  8
0
 10
-160.52
 20
192.449
 11
-160.262
 21
192.49
  0
LINE
  8
0
 10
-160.262
 20
192.49
 11
-160
 21
192.503
  0
LINE
  8
0
 10
-160
 20
192.503
 11
-159.738
 21
192.49
  0
LINE
  8
0
 10
-159.738
 20
192.49
 11
-159.48
 21
192.449
  0
LINE
  8
0
 10
-159.48
 20
192.449
 11
-159.226
 21
192.381
  0
LINE
  8
0
 10
-159.226
 20
192.381
 11
-158.982
 21
192.287
  0
LINE
  8
0
 10
-158.982
 20
192.287
 11
-158.748
 21
192.168
  0
LINE
  8
0
 10
-158.748
 20
192.168
 11
-158.529
 21
192.025
  0
LINE
  8
0
 10
-158.529
 20
192.025
 11
-158.325
 21
191.86
  0
LINE
  8
0
 10
-158.325
 20
191.86
 11
-158.14
 21
191.675
  0
LINE
  8
0
 10
-158.14
 20
191.675
 11
-157.975
 21
191.471
  0
LINE
  8
0
 10
-157.975
 20
191.471
 11
-157.832
 21
191.252
  0
LINE
  8
0
 10
-157.832
 20
191.252
 11
-157.713
 21
191.018
  0
LINE
  8
0
 10
-157.713
 20
191.018
 11
-157.619
 21
190.774
  0
LINE
  8
0
 10
-157.619
 20
190.774
 11
-157.551
 21
190.52
  0
LINE
  8
0
 10
-157.551
 20
190.52
 11
-157.51
 21
190.262
  0
LINE
  8
0
 10
-157.51
 20
190.262
 11
-157.497
 21
190
  0
LINE
  8
0
 10
-157.497
 20
190
 11
-157.51
 21
189.738
  0
LINE
  8
0
 10
-157.51
 20
189.738
 11
-157.551
 21
189.48
  0
LINE
  8
0
 10
-157.551
 20
189.48
 11
-157.619
 21
189.226
  0
LINE
  8
0
 10
-157.619
 20
189.226
 11
-157.713
 21
188.982
  0
LINE
  8
0
 10
-157.713
 20
188.982
 11
-157.832
 21
188.748
  0
LINE
  8
0
 10
-157.832
 20
188.748
 11
-157.975
 21
188.529
  0
LINE
  8
0
 10
-157.975
 20
188.529
 11
-158.14
 21
188.325
  0
LINE
  8
0
 10
-158.14
 20
188.325
 11
-158.325
 21
188.14
  0
LINE
  8
0
 10
-158.325
 20
188.14
 11
-158.529
 21
187.975
  0
LINE
  8
0
 10
-158.529
 20
187.975
 11
-158.748
 21
187.832
  0
LINE
  8
0
 10
-158.748
 20
187.832
 11
-158.982
 21
187.713
  0
LINE
  8
0
 10
-158.982
 20
187.713
 11
-159.226
 21
187.619
  0
LINE
  8
0
 10
-159.226
 20
187.619
 11
-159.48
 21
187.551
  0
LINE
  8
0
 10
-159.48
 20
187.551
 11
-159.738
 21
187.51
  0
LINE
  8
0
 10
-159.738
 20
187.51
 11
-160
 21
187.497
  0
LINE
  8
0
 10
-160
 20
187.497
 11
-160.262
 21
187.51
  0
LINE
  8
0
 10
159.738
 20
187.51
 11
159.48
 21
187.551
  0
LINE
  8
0
 10
159.48
 20
187.551
 11
159.226
 21
187.619
  0
LINE
  8
0
 10
159.226
 20
187.619
 11
158.982
 21
187.713
  0
LINE
  8
0
 10
158.982
 20
187.713
 11
158.748
 21
187.832
  0
LINE
  8
0
 10
158.748
 20
187.832
 11
158.529
 21
187.975
  0
LINE
  8
0
 10
158.529
 20
187.975
 11
158.325
 21
188.14
  0
LINE
  8
0
 10
158.325
 20
188.14
 11
158.14
 21
188.325
  0
LINE
  8
0
 10
158.14
 20
188.325
 11
157.975
 21
188.529
  0
LINE
  8
0
 10
157.975
 20
188.529
 11
157.832
 21
188.748
  0
LINE
  8
0
 10
157.832
 20
188.748
 11
157.713
 21
188.982
  0
LINE
  8
0
 10
157.713
 20
188.982
 11
157.619
 21
189.226
  0
LINE
  8
0
 10
157.619
 20
189.226
 11
157.551
 21
189.48
  0
LINE
  8
0
 10
157.551
 20
189.48
 11
157.51
 21
189.738
  0
LINE
  8
0
 10
157.51
 20
189.738
 11
157.497
 21
190
  0
LINE
  8
0
 10
157.497
 20
190
 11
157.51
 21
190.262
  0
LINE
  8
0
 10
157.51
 20
190.262
 11
157.551
 21
190.52
  0
LINE
  8
0
 10
157.551
 20
190.52
 11
157.619
 21
190.774
  0
LINE
  8
0
 10
157.619
 20
190.774
 11
157.713
 21
191.018
  0
LINE
  8
0
 10
157.713
 20
191.018
 11
157.832
 21
191.252
  0
LINE
  8
0
 10
157.832
 20
191.252
 11
157.975
 21
191.471
  0
LINE
  8
0
 10
157.975
 20
191.471
 11
158.14
 21
191.675
  0
LINE
  8
0
 10
158.14
 20
191.675
 11
158.325
 21
191.86
  0
LINE
  8
0
 10
158.325
 20
191.86
 11
158.529
 21
192.025
  0
LINE
  8
0
 10
158.529
 20
192.025
 11
158.748
 21
192.168
  0
LINE
  8
0
 10
158.748
 20
192.168
 11
158.982
 21
192.287
  0
LINE
  8
0
 10
158.982
 20
192.287
 11
159.226
 21
192.381
  0
LINE
  8
0
 10
159.226
 20
192.381
 11
159.48
 21
192.449
  0
LINE
  8
0
 10
159.48
 20
192.449
 11
159.738
 21
192.49
  0
LINE
  8
0
 10
159.738
 20
192.49
 11
160
 21
192.503
  0
LINE
  8
0
 10
160
 20
192.503
 11
160.262
 21
192.49
  0
LINE
  8
0
 10
160.262
 20
192.49
 11
160.52
 21
192.449
  0
LINE
  8
0
 10
160.52
 20
192.449
 11
160.774
 21
192.381
  0
LINE
  8
0
 10
160.774
 20
192.381
 11
161.018
 21
192.287
  0
LINE
  8
0
 10
161.018
 20
192.287
 11
161.252
 21
192.168
  0
LINE
  8
0
 10
161.252
 20
192.168
 11
161.471
 21
192.025
  0
LINE
  8
0
 10
161.471
 20
192.025
 11
161.675
 21
191.86
  0
LINE
  8
0
 10
161.675
 20
191.86
 11
161.86
 21
191.675
  0
LINE
  8
0
 10
161.86
 20
191.675
 11
162.025
 21
191.471
  0
LINE
  8
0
 10
162.025
 20
191.471
 11
162.168
 21
191.252
  0
LINE
  8
0
 10
162.168
 20
191.252
 11
162.287
 21
191.018
  0
LINE
  8
0
 10
162.287
 20
191.018
 11
162.381
 21
190.774
  0
LINE
  8
0
 10
162.381
 20
190.774
 11
162.449
 21
190.52
  0
LINE
  8
0
 10
162.449
 20
190.52
 11
162.49
 21
190.262
  0
LINE
  8
0
 10
162.49
 20
190.262
 11
162.503
 21
190
  0
LINE
  8
0
 10
162.503
 20
190
 11
162.49
 21
189.738
  0
LINE
  8
0
 10
162.49
 20
189.738
 11
162.449
 21
189.48
  0
LINE
  8
0
 10
162.449
 20
189.48
 11
162.381
 21
189.226
  0
LINE
  8
0
 10
162.381
 20
189.226
 11
162.287
 21
188.982
  0
LINE
  8
0
 10
162.287
 20
188.982
 11
162.168
 21
188.748
  0
LINE
  8
0
 10
162.168
 20
188.748
 11
162.025
 21
188.529
  0
LINE
  8
0
 10
162.025
 20
188.529
 11
161.86
 21
188.325
  0
LINE
  8
0
 10
161.86
 20
188.325
 11
161.675
 21
188.14
  0
LINE
  8
0
 10
161.675
 20
188.14
 11
161.471
 21
187.975
  0
LINE
  8
0
 10
161.471
 20
187.975
 11
161.252
 21
187.832
  0
LINE
  8
0
 10
161.252
 20
187.832
 11
161.018
 21
187.713
  0
LINE
  8
0
 10
161.018
 20
187.713
 11
160.774
 21
187.619
  0
LINE
  8
0
 10
160.774
 20
187.619
 11
160.52
 21
187.551
  0
LINE
  8
0
 10
160.52
 20
187.551
 11
160.262
 21
187.51
  0
LINE
  8
0
 10
160.262
 20
187.51
 11
160
 21
187.497
  0
LINE
  8
0
 10
160
 20
187.497
 11
159.738
 21
187.51
  0
LINE
  8
0
 10
-140.262
 20
187.51
 11
-140.52
 21
187.551
  0
LINE
  8
0
 10
-140.52
 20
187.551
 11
-140.774
 21
187.619
  0
LINE
  8
0
 10
-140.774
 20
187.619
 11
-141.018
 21
187.713
  0
LINE
  8
0
 10
-141.018
 20
187.713
 11
-141.252
 21
187.832
  0
LINE
  8
0
 10
-141.252
 20
187.832
 11
-141.471
 21
187.975
  0
LINE
  8
0
 10
-141.471
 20
187.975
 11
-141.675
 21
188.14
  0
LINE
  8
0
 10
-141.675
 20
188.14
 11
-141.86
 21
188.325
  0
LINE
  8
0
 10
-141.86
 20
188.325
 11
-142.025
 21
188.529
  0
LINE
  8
0
 10
-142.025
 20
188.529
 11
-142.168
 21
188.748
  0
LINE
  8
0
 10
-142.168
 20
188.748
 11
-142.287
 21
188.982
  0
LINE
  8
0
 10
-142.287
 20
188.982
 11
-142.381
 21
189.226
  0
LINE
  8
0
 10
-142.381
 20
189.226
 11
-142.449
 21
189.48
  0
LINE
  8
0
 10
-142.449
 20
189.48
 11
-142.49
 21
189.738
  0
LINE
  8
0
 10
-142.49
 20
189.738
 11
-142.503
 21
190
  0
LINE
  8
0
 10
-142.503
 20
190
 11
-142.49
 21
190.262
  0
LINE
  8
0
 10
-142.49
 20
190.262
 11
-142.449
 21
190.52
  0
LINE
  8
0
 10
-142.449
 20
190.52
 11
-142.381
 21
190.774
  0
LINE
  8
0
 10
-142.381
 20
190.774
 11
-142.287
 21
191.018
  0
LINE
  8
0
 10
-142.287
 20
191.018
 11
-142.168
 21
191.252
  0
LINE
  8
0
 10
-142.168
 20
191.252
 11
-142.025
 21
191.471
  0
LINE
  8
0
 10
-142.025
 20
191.471
 11
-141.86
 21
191.675
  0
LINE
  8
0
 10
-141.86
 20
191.675
 11
-141.675
 21
191.86
  0
LINE
  8
0
 10
-141.675
 20
191.86
 11
-141.471
 21
192.025
  0
LINE
  8
0
 10
-141.471
 20
192.025
 11
-141.252
 21
192.168
  0
LINE
  8
0
 10
-141.252
 20
192.168
 11
-141.018
 21
192.287
  0
LINE
  8
0
 10
-141.018
 20
192.287
 11
-140.774
 21
192.381
  0
LINE
  8
0
 10
-140.774
 20
192.381
 11
-140.52
 21
192.449
  0
LINE
  8
0
 10
-140.52
 20
192.449
 11
-140.262
 21
192.49
  0
LINE
  8
0
 10
-140.262
 20
192.49
 11
-140
 21
192.503
  0
LINE
  8
0
 10
-140
 20
192.503
 11
-139.738
 21
192.49
  0
LINE
  8
0
 10
-139.738
 20
192.49
 11
-139.48
 21
192.449
  0
LINE
  8
0
 10
-139.48
 20
192.449
 11
-139.226
 21
192.381
  0
LINE
  8
0
 10
-139.226
 20
192.381
 11
-138.982
 21
192.287
  0
LINE
  8
0
 10
-138.982
 20
192.287
 11
-138.748
 21
192.168
  0
LINE
  8
0
 10
-138.748
 20
192.168
 11
-138.529
 21
192.025
  0
LINE
  8
0
 10
-138.529
 20
192.025
 11
-138.325
 21
191.86
  0
LINE
  8
0
 10
-138.325
 20
191.86
 11
-138.14
 21
191.675
  0
LINE
  8
0
 10
-138.14
 20
191.675
 11
-137.975
 21
191.471
  0
LINE
  8
0
 10
-137.975
 20
191.471
 11
-137.832
 21
191.252
  0
LINE
  8
0
 10
-137.832
 20
191.252
 11
-137.713
 21
191.018
  0
LINE
  8
0
 10
-137.713
 20
191.018
 11
-137.619
 21
190.774
  0
LINE
  8
0
 10
-137.619
 20
190.774
 11
-137.551
 21
190.52
  0
LINE
  8
0
 10
-137.551
 20
190.52
 11
-137.51
 21
190.262
  0
LINE
  8
0
 10
-137.51
 20
190.262
 11
-137.497
 21
190
  0
LINE
  8
0
 10
-137.497
 20
190
 11
-137.51
 21
189.738
  0
LINE
  8
0
 10
-137.51
 20
189.738
 11
-137.551
 21
189.48
  0
LINE
  8
0
 10
-137.551
 20
189.48
 11
-137.619
 21
189.226
  0
LINE
  8
0
 10
-137.619
 20
189.226
 11
-137.713
 21
188.982
  0
LINE
  8
0
 10
-137.713
 20
188.982
 11
-137.832
 21
188.748
  0
LINE
  8
0
 10
-137.832
 20
188.748
 11
-137.975
 21
188.529
  0
LINE
  8
0
 10
-137.975
 20
188.529
 11
-138.14
 21
188.325
  0
LINE
  8
0
 10
-138.14
 20
188.325
 11
-138.325
 21
188.14
  0
LINE
  8
0
 10
-138.325
 20
188.14
 11
-138.529
 21
187.975
  0
LINE
  8
0
 10
-138.529
 20
187.975
 11
-138.748
 21
187.832
  0
LINE
  8
0
 10
-138.748
 20
187.832
 11
-138.982
 21
187.713
  0
LINE
  8
0
 10
-138.982
 20
187.713
 11
-139.226
 21
187.619
  0
LINE
  8
0
 10
-139.226
 20
187.619
 11
-139.48
 21
187.551
  0
LINE
  8
0
 10
-139.48
 20
187.551
 11
-139.738
 21
187.51
  0
LINE
  8
0
 10
-139.738
 20
187.51
 11
-140
 21
187.497
  0
LINE
  8
0
 10
-140
 20
187.497
 11
-140.262
 21
187.51
  0
LINE
  8
0
 10
99.7533
 20
187.81
 11
99.5097
 21
187.852
  0
LINE
  8
0
 10
99.5097
 20
187.852
 11
99.2722
 21
187.92
  0
LINE
  8
0
 10
99.2722
 20
187.92
 11
99.0439
 21
188.015
  0
LINE
  8
0
 10
99.0439
 20
188.015
 11
98.8277
 21
188.134
  0
LINE
  8
0
 10
98.8277
 20
188.134
 11
98.6262
 21
188.277
  0
LINE
  8
0
 10
98.6262
 20
188.277
 11
98.4419
 21
188.442
  0
LINE
  8
0
 10
98.4419
 20
188.442
 11
98.2773
 21
188.626
  0
LINE
  8
0
 10
98.2773
 20
188.626
 11
98.1343
 21
188.828
  0
LINE
  8
0
 10
98.1343
 20
188.828
 11
98.0147
 21
189.044
  0
LINE
  8
0
 10
98.0147
 20
189.044
 11
97.9202
 21
189.272
  0
LINE
  8
0
 10
97.9202
 20
189.272
 11
97.8518
 21
189.51
  0
LINE
  8
0
 10
97.8518
 20
189.51
 11
97.8104
 21
189.753
  0
LINE
  8
0
 10
97.8104
 20
189.753
 11
97.7965
 21
190
  0
LINE
  8
0
 10
97.7965
 20
190
 11
97.8104
 21
190.247
  0
LINE
  8
0
 10
97.8104
 20
190.247
 11
97.8518
 21
190.49
  0
LINE
  8
0
 10
97.8518
 20
190.49
 11
97.9202
 21
190.728
  0
LINE
  8
0
 10
97.9202
 20
190.728
 11
98.0147
 21
190.956
  0
LINE
  8
0
 10
98.0147
 20
190.956
 11
98.1343
 21
191.172
  0
LINE
  8
0
 10
98.1343
 20
191.172
 11
98.2773
 21
191.374
  0
LINE
  8
0
 10
98.2773
 20
191.374
 11
98.4419
 21
191.558
  0
LINE
  8
0
 10
98.4419
 20
191.558
 11
98.6262
 21
191.723
  0
LINE
  8
0
 10
98.6262
 20
191.723
 11
98.8277
 21
191.866
  0
LINE
  8
0
 10
98.8277
 20
191.866
 11
99.0439
 21
191.985
  0
LINE
  8
0
 10
99.0439
 20
191.985
 11
99.2722
 21
192.08
  0
LINE
  8
0
 10
99.2722
 20
192.08
 11
99.5097
 21
192.148
  0
LINE
  8
0
 10
99.5097
 20
192.148
 11
99.7533
 21
192.19
  0
LINE
  8
0
 10
99.7533
 20
192.19
 11
100
 21
192.203
  0
LINE
  8
0
 10
100
 20
192.203
 11
100.247
 21
192.19
  0
LINE
  8
0
 10
100.247
 20
192.19
 11
100.49
 21
192.148
  0
LINE
  8
0
 10
100.49
 20
192.148
 11
100.728
 21
192.08
  0
LINE
  8
0
 10
100.728
 20
192.08
 11
100.956
 21
191.985
  0
LINE
  8
0
 10
100.956
 20
191.985
 11
101.172
 21
191.866
  0
LINE
  8
0
 10
101.172
 20
191.866
 11
101.374
 21
191.723
  0
LINE
  8
0
 10
101.374
 20
191.723
 11
101.558
 21
191.558
  0
LINE
  8
0
 10
101.558
 20
191.558
 11
101.723
 21
191.374
  0
LINE
  8
0
 10
101.723
 20
191.374
 11
101.866
 21
191.172
  0
LINE
  8
0
 10
101.866
 20
191.172
 11
101.985
 21
190.956
  0
LINE
  8
0
 10
101.985
 20
190.956
 11
102.08
 21
190.728
  0
LINE
  8
0
 10
102.08
 20
190.728
 11
102.148
 21
190.49
  0
LINE
  8
0
 10
102.148
 20
190.49
 11
102.19
 21
190.247
  0
LINE
  8
0
 10
102.19
 20
190.247
 11
102.203
 21
190
  0
LINE
  8
0
 10
102.203
 20
190
 11
102.19
 21
189.753
  0
LINE
  8
0
 10
102.19
 20
189.753
 11
102.148
 21
189.51
  0
LINE
  8
0
 10
102.148
 20
189.51
 11
102.08
 21
189.272
  0
LINE
  8
0
 10
102.08
 20
189.272
 11
101.985
 21
189.044
  0
LINE
  8
0
 10
101.985
 20
189.044
 11
101.866
 21
188.828
  0
LINE
  8
0
 10
101.866
 20
188.828
 11
101.723
 21
188.626
  0
LINE
  8
0
 10
101.723
 20
188.626
 11
101.558
 21
188.442
  0
LINE
  8
0
 10
101.558
 20
188.442
 11
101.374
 21
188.277
  0
LINE
  8
0
 10
101.374
 20
188.277
 11
101.172
 21
188.134
  0
LINE
  8
0
 10
101.172
 20
188.134
 11
100.956
 21
188.015
  0
LINE
  8
0
 10
100.956
 20
188.015
 11
100.728
 21
187.92
  0
LINE
  8
0
 10
100.728
 20
187.92
 11
100.49
 21
187.852
  0
LINE
  8
0
 10
100.49
 20
187.852
 11
100.247
 21
187.81
  0
LINE
  8
0
 10
100.247
 20
187.81
 11
100
 21
187.797
  0
LINE
  8
0
 10
100
 20
187.797
 11
99.7533
 21
187.81
  0
LINE
  8
0
 10
-0.246719
 20
187.81
 11
-0.490326
 21
187.852
  0
LINE
  8
0
 10
-0.490326
 20
187.852
 11
-0.727768
 21
187.92
  0
LINE
  8
0
 10
-0.727768
 20
187.92
 11
-0.956055
 21
188.015
  0
LINE
  8
0
 10
-0.956055
 20
188.015
 11
-1.17232
 21
188.134
  0
LINE
  8
0
 10
-1.17232
 20
188.134
 11
-1.37384
 21
188.277
  0
LINE
  8
0
 10
-1.37384
 20
188.277
 11
-1.55809
 21
188.442
  0
LINE
  8
0
 10
-1.55809
 20
188.442
 11
-1.72275
 21
188.626
  0
LINE
  8
0
 10
-1.72275
 20
188.626
 11
-1.86574
 21
188.828
  0
LINE
  8
0
 10
-1.86574
 20
188.828
 11
-1.98526
 21
189.044
  0
LINE
  8
0
 10
-1.98526
 20
189.044
 11
-2.07982
 21
189.272
  0
LINE
  8
0
 10
-2.07982
 20
189.272
 11
-2.14822
 21
189.51
  0
LINE
  8
0
 10
-2.14822
 20
189.51
 11
-2.18962
 21
189.753
  0
LINE
  8
0
 10
-2.18962
 20
189.753
 11
-2.20348
 21
190
  0
LINE
  8
0
 10
-2.20348
 20
190
 11
-2.18962
 21
190.247
  0
LINE
  8
0
 10
-2.18962
 20
190.247
 11
-2.14822
 21
190.49
  0
LINE
  8
0
 10
-2.14822
 20
190.49
 11
-2.07982
 21
190.728
  0
LINE
  8
0
 10
-2.07982
 20
190.728
 11
-1.98526
 21
190.956
  0
LINE
  8
0
 10
-1.98526
 20
190.956
 11
-1.86574
 21
191.172
  0
LINE
  8
0
 10
-1.86574
 20
191.172
 11
-1.72275
 21
191.374
  0
LINE
  8
0
 10
-1.72275
 20
191.374
 11
-1.55809
 21
191.558
  0
LINE
  8
0
 10
-1.55809
 20
191.558
 11
-1.37384
 21
191.723
  0
LINE
  8
0
 10
-1.37384
 20
191.723
 11
-1.17232
 21
191.866
  0
LINE
  8
0
 10
-1.17232
 20
191.866
 11
-0.956055
 21
191.985
  0
LINE
  8
0
 10
-0.956055
 20
191.985
 11
-0.727768
 21
192.08
  0
LINE
  8
0
 10
-0.727768
 20
192.08
 11
-0.490326
 21
192.148
  0
LINE
  8
0
 10
-0.490326
 20
192.148
 11
-0.246719
 21
192.19
  0
LINE
  8
0
 10
-0.246719
 20
192.19
 11
0
 21
192.203
  0
LINE
  8
0
 10
0
 20
192.203
 11
0.246704
 21
192.19
  0
LINE
  8
0
 10
0.246704
 20
192.19
 11
0.490311
 21
192.148
  0
LINE
  8
0
 10
0.490311
 20
192.148
 11
0.727753
 21
192.08
  0
LINE
  8
0
 10
0.727753
 20
192.08
 11
0.956039
 21
191.985
  0
LINE
  8
0
 10
0.956039
 20
191.985
 11
1.1723
 21
191.866
  0
LINE
  8
0
 10
1.1723
 20
191.866
 11
1.37383
 21
191.723
  0
LINE
  8
0
 10
1.37383
 20
191.723
 11
1.55807
 21
191.558
  0
LINE
  8
0
 10
1.55807
 20
191.558
 11
1.72273
 21
191.374
  0
LINE
  8
0
 10
1.72273
 20
191.374
 11
1.86572
 21
191.172
  0
LINE
  8
0
 10
1.86572
 20
191.172
 11
1.98524
 21
190.956
  0
LINE
  8
0
 10
1.98524
 20
190.956
 11
2.0798
 21
190.728
  0
LINE
  8
0
 10
2.0798
 20
190.728
 11
2.14821
 21
190.49
  0
LINE
  8
0
 10
2.14821
 20
190.49
 11
2.18961
 21
190.247
  0
LINE
  8
0
 10
2.18961
 20
190.247
 11
2.20346
 21
190
  0
LINE
  8
0
 10
2.20346
 20
190
 11
2.18961
 21
189.753
  0
LINE
  8
0
 10
2.18961
 20
189.753
 11
2.14821
 21
189.51
  0
LINE
  8
0
 10
2.14821
 20
189.51
 11
2.0798
 21
189.272
  0
LINE
  8
0
 10
2.0798
 20
189.272
 11
1.98524
 21
189.044
  0
LINE
  8
0
 10
1.98524
 20
189.044
 11
1.86572
 21
188.828
  0
LINE
  8
0
 10
1.86572
 20
188.828
 11
1.72273
 21
188.626
  0
LINE
  8
0
 10
1.72273
 20
188.626
 11
1.55807
 21
188.442
  0
LINE
  8
0
 10
1.55807
 20
188.442
 11
1.37383
 21
188.277
  0
LINE
  8
0
 10
1.37383
 20
188.277
 11
1.1723
 21
188.134
  0
LINE
  8
0
 10
1.1723
 20
188.134
 11
0.956039
 21
188.015
  0
LINE
  8
0
 10
0.956039
 20
188.015
 11
0.727753
 21
187.92
  0
LINE
  8
0
 10
0.727753
 20
187.92
 11
0.490311
 21
187.852
  0
LINE
  8
0
 10
0.490311
 20
187.852
 11
0.246704
 21
187.81
  0
LINE
  8
0
 10
0.246704
 20
187.81
 11
0
 21
187.797
  0
LINE
  8
0
 10
0
 20
187.797
 11
-0.246719
 21
187.81
  0
LINE
  8
0
 10
-100.247
 20
187.81
 11
-100.49
 21
187.852
  0
LINE
  8
0
 10
-100.49
 20
187.852
 11
-100.728
 21
187.92
  0
LINE
  8
0
 10
-100.728
 20
187.92
 11
-100.956
 21
188.015
  0
LINE
  8
0
 10
-100.956
 20
188.015
 11
-101.172
 21
188.134
  0
LINE
  8
0
 10
-101.172
 20
188.134
 11
-101.374
 21
188.277
  0
LINE
  8
0
 10
-101.374
 20
188.277
 11
-101.558
 21
188.442
  0
LINE
  8
0
 10
-101.558
 20
188.442
 11
-101.723
 21
188.626
  0
LINE
  8
0
 10
-101.723
 20
188.626
 11
-101.866
 21
188.828
  0
LINE
  8
0
 10
-101.866
 20
188.828
 11
-101.985
 21
189.044
  0
LINE
  8
0
 10
-101.985
 20
189.044
 11
-102.08
 21
189.272
  0
LINE
  8
0
 10
-102.08
 20
189.272
 11
-102.148
 21
189.51
  0
LINE
  8
0
 10
-102.148
 20
189.51
 11
-102.19
 21
189.753
  0
LINE
  8
0
 10
-102.19
 20
189.753
 11
-102.203
 21
190
  0
LINE
  8
0
 10
-102.203
 20
190
 11
-102.19
 21
190.247
  0
LINE
  8
0
 10
-102.19
 20
190.247
 11
-102.148
 21
190.49
  0
LINE
  8
0
 10
-102.148
 20
190.49
 11
-102.08
 21
190.728
  0
LINE
  8
0
 10
-102.08
 20
190.728
 11
-101.985
 21
190.956
  0
LINE
  8
0
 10
-101.985
 20
190.956
 11
-101.866
 21
191.172
  0
LINE
  8
0
 10
-101.866
 20
191.172
 11
-101.723
 21
191.374
  0
LINE
  8
0
 10
-101.723
 20
191.374
 11
-101.558
 21
191.558
  0
LINE
  8
0
 10
-101.558
 20
191.558
 11
-101.374
 21
191.723
  0
LINE
  8
0
 10
-101.374
 20
191.723
 11
-101.172
 21
191.866
  0
LINE
  8
0
 10
-101.172
 20
191.866
 11
-100.956
 21
191.985
  0
LINE
  8
0
 10
-100.956
 20
191.985
 11
-100.728
 21
192.08
  0
LINE
  8
0
 10
-100.728
 20
192.08
 11
-100.49
 21
192.148
  0
LINE
  8
0
 10
-100.49
 20
192.148
 11
-100.247
 21
192.19
  0
LINE
  8
0
 10
-100.247
 20
192.19
 11
-100
 21
192.203
  0
LINE
  8
0
 10
-100
 20
192.203
 11
-99.7533
 21
192.19
  0
LINE
  8
0
 10
-99.7533
 20
192.19
 11
-99.5097
 21
192.148
  0
LINE
  8
0
 10
-99.5097
 20
192.148
 11
-99.2722
 21
192.08
  0
LINE
  8
0
 10
-99.2722
 20
192.08
 11
-99.044
 21
191.985
  0
LINE
  8
0
 10
-99.044
 20
191.985
 11
-98.8277
 21
191.866
  0
LINE
  8
0
 10
-98.8277
 20
191.866
 11
-98.6262
 21
191.723
  0
LINE
  8
0
 10
-98.6262
 20
191.723
 11
-98.4419
 21
191.558
  0
LINE
  8
0
 10
-98.4419
 20
191.558
 11
-98.2773
 21
191.374
  0
LINE
  8
0
 10
-98.2773
 20
191.374
 11
-98.1343
 21
191.172
  0
LINE
  8
0
 10
-98.1343
 20
191.172
 11
-98.0148
 21
190.956
  0
LINE
  8
0
 10
-98.0148
 20
190.956
 11
-97.9202
 21
190.728
  0
LINE
  8
0
 10
-97.9202
 20
190.728
 11
-97.8518
 21
190.49
  0
LINE
  8
0
 10
-97.8518
 20
190.49
 11
-97.8104
 21
190.247
  0
LINE
  8
0
 10
-97.8104
 20
190.247
 11
-97.7965
 21
190
  0
LINE
  8
0
 10
-97.7965
 20
190
 11
-97.8104
 21
189.753
  0
LINE
  8
0
 10
-97.8104
 20
189.753
 11
-97.8518
 21
189.51
  0
LINE
  8
0
 10
-97.8518
 20
189.51
 11
-97.9202
 21
189.272
  0
LINE
  8
0
 10
-97.9202
 20
189.272
 11
-98.0148
 21
189.044
  0
LINE
  8
0
 10
-98.0148
 20
189.044
 11
-98.1343
 21
188.828
  0
LINE
  8
0
 10
-98.1343
 20
188.828
 11
-98.2773
 21
188.626
  0
LINE
  8
0
 10
-98.2773
 20
188.626
 11
-98.4419
 21
188.442
  0
LINE
  8
0
 10
-98.4419
 20
188.442
 11
-98.6262
 21
188.277
  0
LINE
  8
0
 10
-98.6262
 20
188.277
 11
-98.8277
 21
188.134
  0
LINE
  8
0
 10
-98.8277
 20
188.134
 11
-99.044
 21
188.015
  0
LINE
  8
0
 10
-99.044
 20
188.015
 11
-99.2722
 21
187.92
  0
LINE
  8
0
 10
-99.2722
 20
187.92
 11
-99.5097
 21
187.852
  0
LINE
  8
0
 10
-99.5097
 20
187.852
 11
-99.7533
 21
187.81
  0
LINE
  8
0
 10
-99.7533
 20
187.81
 11
-100
 21
187.797
  0
LINE
  8
0
 10
-100
 20
187.797
 11
-100.247
 21
187.81
  0
LINE
  8
0
 10
-160.247
 20
177.81
 11
-160.49
 21
177.852
  0
LINE
  8
0
 10
-160.49
 20
177.852
 11
-160.728
 21
177.92
  0
LINE
  8
0
 10
-160.728
 20
177.92
 11
-160.956
 21
178.015
  0
LINE
  8
0
 10
-160.956
 20
178.015
 11
-161.172
 21
178.134
  0
LINE
  8
0
 10
-161.172
 20
178.134
 11
-161.374
 21
178.277
  0
LINE
  8
0
 10
-161.374
 20
178.277
 11
-161.558
 21
178.442
  0
LINE
  8
0
 10
-161.558
 20
178.442
 11
-161.723
 21
178.626
  0
LINE
  8
0
 10
-161.723
 20
178.626
 11
-161.866
 21
178.828
  0
LINE
  8
0
 10
-161.866
 20
178.828
 11
-161.985
 21
179.044
  0
LINE
  8
0
 10
-161.985
 20
179.044
 11
-162.08
 21
179.272
  0
LINE
  8
0
 10
-162.08
 20
179.272
 11
-162.148
 21
179.51
  0
LINE
  8
0
 10
-162.148
 20
179.51
 11
-162.19
 21
179.753
  0
LINE
  8
0
 10
-162.19
 20
179.753
 11
-162.203
 21
180
  0
LINE
  8
0
 10
-162.203
 20
180
 11
-162.19
 21
180.247
  0
LINE
  8
0
 10
-162.19
 20
180.247
 11
-162.148
 21
180.49
  0
LINE
  8
0
 10
-162.148
 20
180.49
 11
-162.08
 21
180.728
  0
LINE
  8
0
 10
-162.08
 20
180.728
 11
-161.985
 21
180.956
  0
LINE
  8
0
 10
-161.985
 20
180.956
 11
-161.866
 21
181.172
  0
LINE
  8
0
 10
-161.866
 20
181.172
 11
-161.723
 21
181.374
  0
LINE
  8
0
 10
-161.723
 20
181.374
 11
-161.558
 21
181.558
  0
LINE
  8
0
 10
-161.558
 20
181.558
 11
-161.374
 21
181.723
  0
LINE
  8
0
 10
-161.374
 20
181.723
 11
-161.172
 21
181.866
  0
LINE
  8
0
 10
-161.172
 20
181.866
 11
-160.956
 21
181.985
  0
LINE
  8
0
 10
-160.956
 20
181.985
 11
-160.728
 21
182.08
  0
LINE
  8
0
 10
-160.728
 20
182.08
 11
-160.49
 21
182.148
  0
LINE
  8
0
 10
-160.49
 20
182.148
 11
-160.247
 21
182.19
  0
LINE
  8
0
 10
-160.247
 20
182.19
 11
-160
 21
182.203
  0
LINE
  8
0
 10
-160
 20
182.203
 11
-159.753
 21
182.19
  0
LINE
  8
0
 10
-159.753
 20
182.19
 11
-159.51
 21
182.148
  0
LINE
  8
0
 10
-159.51
 20
182.148
 11
-159.272
 21
182.08
  0
LINE
  8
0
 10
-159.272
 20
182.08
 11
-159.044
 21
181.985
  0
LINE
  8
0
 10
-159.044
 20
181.985
 11
-158.828
 21
181.866
  0
LINE
  8
0
 10
-158.828
 20
181.866
 11
-158.626
 21
181.723
  0
LINE
  8
0
 10
-158.626
 20
181.723
 11
-158.442
 21
181.558
  0
LINE
  8
0
 10
-158.442
 20
181.558
 11
-158.277
 21
181.374
  0
LINE
  8
0
 10
-158.277
 20
181.374
 11
-158.134
 21
181.172
  0
LINE
  8
0
 10
-158.134
 20
181.172
 11
-158.015
 21
180.956
  0
LINE
  8
0
 10
-158.015
 20
180.956
 11
-157.92
 21
180.728
  0
LINE
  8
0
 10
-157.92
 20
180.728
 11
-157.852
 21
180.49
  0
LINE
  8
0
 10
-157.852
 20
180.49
 11
-157.81
 21
180.247
  0
LINE
  8
0
 10
-157.81
 20
180.247
 11
-157.797
 21
180
  0
LINE
  8
0
 10
-157.797
 20
180
 11
-157.81
 21
179.753
  0
LINE
  8
0
 10
-157.81
 20
179.753
 11
-157.852
 21
179.51
  0
LINE
  8
0
 10
-157.852
 20
179.51
 11
-157.92
 21
179.272
  0
LINE
  8
0
 10
-157.92
 20
179.272
 11
-158.015
 21
179.044
  0
LINE
  8
0
 10
-158.015
 20
179.044
 11
-158.134
 21
178.828
  0
LINE
  8
0
 10
-158.134
 20
178.828
 11
-158.277
 21
178.626
  0
LINE
  8
0
 10
-158.277
 20
178.626
 11
-158.442
 21
178.442
  0
LINE
  8
0
 10
-158.442
 20
178.442
 11
-158.626
 21
178.277
  0
LINE
  8
0
 10
-158.626
 20
178.277
 11
-158.828
 21
178.134
  0
LINE
  8
0
 10
-158.828
 20
178.134
 11
-159.044
 21
178.015
  0
LINE
  8
0
 10
-159.044
 20
178.015
 11
-159.272
 21
177.92
  0
LINE
  8
0
 10
-159.272
 20
177.92
 11
-159.51
 21
177.852
  0
LINE
  8
0
 10
-159.51
 20
177.852
 11
-159.753
 21
177.81
  0
LINE
  8
0
 10
-159.753
 20
177.81
 11
-160
 21
177.797
  0
LINE
  8
0
 10
-160
 20
177.797
 11
-160.247
 21
177.81
  0
LINE
  8
0
 10
159.753
 20
177.81
 11
159.51
 21
177.852
  0
LINE
  8
0
 10
159.51
 20
177.852
 11
159.272
 21
177.92
  0
LINE
  8
0
 10
159.272
 20
177.92
 11
159.044
 21
178.015
  0
LINE
  8
0
 10
159.044
 20
178.015
 11
158.828
 21
178.134
  0
LINE
  8
0
 10
158.828
 20
178.134
 11
158.626
 21
178.277
  0
LINE
  8
0
 10
158.626
 20
178.277
 11
158.442
 21
178.442
  0
LINE
  8
0
 10
158.442
 20
178.442
 11
158.277
 21
178.626
  0
LINE
  8
0
 10
158.277
 20
178.626
 11
158.134
 21
178.828
  0
LINE
  8
0
 10
158.134
 20
178.828
 11
158.015
 21
179.044
  0
LINE
  8
0
 10
158.015
 20
179.044
 11
157.92
 21
179.272
  0
LINE
  8
0
 10
157.92
 20
179.272
 11
157.852
 21
179.51
  0
LINE
  8
0
 10
157.852
 20
179.51
 11
157.81
 21
179.753
  0
LINE
  8
0
 10
157.81
 20
179.753
 11
157.797
 21
180
  0
LINE
  8
0
 10
157.797
 20
180
 11
157.81
 21
180.247
  0
LINE
  8
0
 10
157.81
 20
180.247
 11
157.852
 21
180.49
  0
LINE
  8
0
 10
157.852
 20
180.49
 11
157.92
 21
180.728
  0
LINE
  8
0
 10
157.92
 20
180.728
 11
158.015
 21
180.956
  0
LINE
  8
0
 10
158.015
 20
180.956
 11
158.134
 21
181.172
  0
LINE
  8
0
 10
158.134
 20
181.172
 11
158.277
 21
181.374
  0
LINE
  8
0
 10
158.277
 20
181.374
 11
158.442
 21
181.558
  0
LINE
  8
0
 10
158.442
 20
181.558
 11
158.626
 21
181.723
  0
LINE
  8
0
 10
158.626
 20
181.723
 11
158.828
 21
181.866
  0
LINE
  8
0
 10
158.828
 20
181.866
 11
159.044
 21
181.985
  0
LINE
  8
0
 10
159.044
 20
181.985
 11
159.272
 21
182.08
  0
LINE
  8
0
 10
159.272
 20
182.08
 11
159.51
 21
182.148
  0
LINE
  8
0
 10
159.51
 20
182.148
 11
159.753
 21
182.19
  0
LINE
  8
0
 10
159.753
 20
182.19
 11
160
 21
182.203
  0
LINE
  8
0
 10
160
 20
182.203
 11
160.247
 21
182.19
  0
LINE
  8
0
 10
160.247
 20
182.19
 11
160.49
 21
182.148
  0
LINE
  8
0
 10
160.49
 20
182.148
 11
160.728
 21
182.08
  0
LINE
  8
0
 10
160.728
 20
182.08
 11
160.956
 21
181.985
  0
LINE
  8
0
 10
160.956
 20
181.985
 11
161.172
 21
181.866
  0
LINE
  8
0
 10
161.172
 20
181.866
 11
161.374
 21
181.723
  0
LINE
  8
0
 10
161.374
 20
181.723
 11
161.558
 21
181.558
  0
LINE
  8
0
 10
161.558
 20
181.558
 11
161.723
 21
181.374
  0
LINE
  8
0
 10
161.723
 20
181.374
 11
161.866
 21
181.172
  0
LINE
  8
0
 10
161.866
 20
181.172
 11
161.985
 21
180.956
  0
LINE
  8
0
 10
161.985
 20
180.956
 11
162.08
 21
180.728
  0
LINE
  8
0
 10
162.08
 20
180.728
 11
162.148
 21
180.49
  0
LINE
  8
0
 10
162.148
 20
180.49
 11
162.19
 21
180.247
  0
LINE
  8
0
 10
162.19
 20
180.247
 11
162.203
 21
180
  0
LINE
  8
0
 10
162.203
 20
180
 11
162.19
 21
179.753
  0
LINE
  8
0
 10
162.19
 20
179.753
 11
162.148
 21
179.51
  0
LINE
  8
0
 10
162.148
 20
179.51
 11
162.08
 21
179.272
  0
LINE
  8
0
 10
162.08
 20
179.272
 11
161.985
 21
179.044
  0
LINE
  8
0
 10
161.985
 20
179.044
 11
161.866
 21
178.828
  0
LINE
  8
0
 10
161.866
 20
178.828
 11
161.723
 21
178.626
  0
LINE
  8
0
 10
161.723
 20
178.626
 11
161.558
 21
178.442
  0
LINE
  8
0
 10
161.558
 20
178.442
 11
161.374
 21
178.277
  0
LINE
  8
0
 10
161.374
 20
178.277
 11
161.172
 21
178.134
  0
LINE
  8
0
 10
161.172
 20
178.134
 11
160.956
 21
178.015
  0
LINE
  8
0
 10
160.956
 20
178.015
 11
160.728
 21
177.92
  0
LINE
  8
0
 10
160.728
 20
177.92
 11
160.49
 21
177.852
  0
LINE
  8
0
 10
160.49
 20
177.852
 11
160.247
 21
177.81
  0
LINE
  8
0
 10
160.247
 20
177.81
 11
160
 21
177.797
  0
LINE
  8
0
 10
160
 20
177.797
 11
159.753
 21
177.81
  0
LINE
  8
0
 10
-160.262
 20
112.51
 11
-160.52
 21
112.551
  0
LINE
  8
0
 10
-160.52
 20
112.551
 11
-160.774
 21
112.619
  0
LINE
  8
0
 10
-160.774
 20
112.619
 11
-161.018
 21
112.713
  0
LINE
  8
0
 10
-161.018
 20
112.713
 11
-161.252
 21
112.832
  0
LINE
  8
0
 10
-161.252
 20
112.832
 11
-161.471
 21
112.975
  0
LINE
  8
0
 10
-161.471
 20
112.975
 11
-161.675
 21
113.14
  0
LINE
  8
0
 10
-161.675
 20
113.14
 11
-161.86
 21
113.325
  0
LINE
  8
0
 10
-161.86
 20
113.325
 11
-162.025
 21
113.529
  0
LINE
  8
0
 10
-162.025
 20
113.529
 11
-162.168
 21
113.748
  0
LINE
  8
0
 10
-162.168
 20
113.748
 11
-162.287
 21
113.982
  0
LINE
  8
0
 10
-162.287
 20
113.982
 11
-162.381
 21
114.226
  0
LINE
  8
0
 10
-162.381
 20
114.226
 11
-162.449
 21
114.48
  0
LINE
  8
0
 10
-162.449
 20
114.48
 11
-162.49
 21
114.738
  0
LINE
  8
0
 10
-162.49
 20
114.738
 11
-162.503
 21
115
  0
LINE
  8
0
 10
-162.503
 20
115
 11
-162.49
 21
115.262
  0
LINE
  8
0
 10
-162.49
 20
115.262
 11
-162.449
 21
115.52
  0
LINE
  8
0
 10
-162.449
 20
115.52
 11
-162.381
 21
115.774
  0
LINE
  8
0
 10
-162.381
 20
115.774
 11
-162.287
 21
116.018
  0
LINE
  8
0
 10
-162.287
 20
116.018
 11
-162.168
 21
116.252
  0
LINE
  8
0
 10
-162.168
 20
116.252
 11
-162.025
 21
116.471
  0
LINE
  8
0
 10
-162.025
 20
116.471
 11
-161.86
 21
116.675
  0
LINE
  8
0
 10
-161.86
 20
116.675
 11
-161.675
 21
116.86
  0
LINE
  8
0
 10
-161.675
 20
116.86
 11
-161.471
 21
117.025
  0
LINE
  8
0
 10
-161.471
 20
117.025
 11
-161.252
 21
117.168
  0
LINE
  8
0
 10
-161.252
 20
117.168
 11
-161.018
 21
117.287
  0
LINE
  8
0
 10
-161.018
 20
117.287
 11
-160.774
 21
117.381
  0
LINE
  8
0
 10
-160.774
 20
117.381
 11
-160.52
 21
117.449
  0
LINE
  8
0
 10
-160.52
 20
117.449
 11
-160.262
 21
117.49
  0
LINE
  8
0
 10
-160.262
 20
117.49
 11
-160
 21
117.503
  0
LINE
  8
0
 10
-160
 20
117.503
 11
-159.738
 21
117.49
  0
LINE
  8
0
 10
-159.738
 20
117.49
 11
-159.48
 21
117.449
  0
LINE
  8
0
 10
-159.48
 20
117.449
 11
-159.226
 21
117.381
  0
LINE
  8
0
 10
-159.226
 20
117.381
 11
-158.982
 21
117.287
  0
LINE
  8
0
 10
-158.982
 20
117.287
 11
-158.748
 21
117.168
  0
LINE
  8
0
 10
-158.748
 20
117.168
 11
-158.529
 21
117.025
  0
LINE
  8
0
 10
-158.529
 20
117.025
 11
-158.325
 21
116.86
  0
LINE
  8
0
 10
-158.325
 20
116.86
 11
-158.14
 21
116.675
  0
LINE
  8
0
 10
-158.14
 20
116.675
 11
-157.975
 21
116.471
  0
LINE
  8
0
 10
-157.975
 20
116.471
 11
-157.832
 21
116.252
  0
LINE
  8
0
 10
-157.832
 20
116.252
 11
-157.713
 21
116.018
  0
LINE
  8
0
 10
-157.713
 20
116.018
 11
-157.619
 21
115.774
  0
LINE
  8
0
 10
-157.619
 20
115.774
 11
-157.551
 21
115.52
  0
LINE
  8
0
 10
-157.551
 20
115.52
 11
-157.51
 21
115.262
  0
LINE
  8
0
 10
-157.51
 20
115.262
 11
-157.497
 21
115
  0
LINE
  8
0
 10
-157.497
 20
115
 11
-157.51
 21
114.738
  0
LINE
  8
0
 10
-157.51
 20
114.738
 11
-157.551
 21
114.48
  0
LINE
  8
0
 10
-157.551
 20
114.48
 11
-157.619
 21
114.226
  0
LINE
  8
0
 10
-157.619
 20
114.226
 11
-157.713
 21
113.982
  0
LINE
  8
0
 10
-157.713
 20
113.982
 11
-157.832
 21
113.748
  0
LINE
  8
0
 10
-157.832
 20
113.748
 11
-157.975
 21
113.529
  0
LINE
  8
0
 10
-157.975
 20
113.529
 11
-158.14
 21
113.325
  0
LINE
  8
0
 10
-158.14
 20
113.325
 11
-158.325
 21
113.14
  0
LINE
  8
0
 10
-158.325
 20
113.14
 11
-158.529
 21
112.975
  0
LINE
  8
0
 10
-158.529
 20
112.975
 11
-158.748
 21
112.832
  0
LINE
  8
0
 10
-158.748
 20
112.832
 11
-158.982
 21
112.713
  0
LINE
  8
0
 10
-158.982
 20
112.713
 11
-159.226
 21
112.619
  0
LINE
  8
0
 10
-159.226
 20
112.619
 11
-159.48
 21
112.551
  0
LINE
  8
0
 10
-159.48
 20
112.551
 11
-159.738
 21
112.51
  0
LINE
  8
0
 10
-159.738
 20
112.51
 11
-160
 21
112.497
  0
LINE
  8
0
 10
-160
 20
112.497
 11
-160.262
 21
112.51
  0
LINE
  8
0
 10
3.2534
 20
94.8638
 11
3.0123
 21
94.9189
  0
LINE
  8
0
 10
3.0123
 20
94.9189
 11
2.78209
 21
95.0092
  0
LINE
  8
0
 10
2.78209
 20
95.0092
 11
2.56792
 21
95.1329
  0
LINE
  8
0
 10
2.56792
 20
95.1329
 11
2.37457
 21
95.2871
  0
LINE
  8
0
 10
2.37457
 20
95.2871
 11
2.20638
 21
95.4684
  0
LINE
  8
0
 10
2.20638
 20
95.4684
 11
2.06706
 21
95.6727
  0
LINE
  8
0
 10
2.06706
 20
95.6727
 11
1.95976
 21
95.8955
  0
LINE
  8
0
 10
1.95976
 20
95.8955
 11
1.88687
 21
96.1318
  0
LINE
  8
0
 10
1.88687
 20
96.1318
 11
1.85001
 21
96.3763
  0
LINE
  8
0
 10
1.85001
 20
96.3763
 11
1.85001
 21
96.6236
  0
LINE
  8
0
 10
1.85001
 20
96.6236
 11
1.88687
 21
96.8682
  0
LINE
  8
0
 10
1.88687
 20
96.8682
 11
1.95976
 21
97.1045
  0
LINE
  8
0
 10
1.95976
 20
97.1045
 11
2.06706
 21
97.3273
  0
LINE
  8
0
 10
2.06706
 20
97.3273
 11
2.20638
 21
97.5316
  0
LINE
  8
0
 10
2.20638
 20
97.5316
 11
2.37457
 21
97.7129
  0
LINE
  8
0
 10
2.37457
 20
97.7129
 11
2.56792
 21
97.8671
  0
LINE
  8
0
 10
2.56792
 20
97.8671
 11
2.78209
 21
97.9908
  0
LINE
  8
0
 10
2.78209
 20
97.9908
 11
3.0123
 21
98.0811
  0
LINE
  8
0
 10
3.0123
 20
98.0811
 11
3.2534
 21
98.1361
  0
LINE
  8
0
 10
3.2534
 20
98.1361
 11
3.5
 21
98.1546
  0
LINE
  8
0
 10
3.5
 20
98.1546
 11
3.74661
 21
98.1361
  0
LINE
  8
0
 10
3.74661
 20
98.1361
 11
3.98772
 21
98.0811
  0
LINE
  8
0
 10
3.98772
 20
98.0811
 11
4.21793
 21
97.9908
  0
LINE
  8
0
 10
4.21793
 20
97.9908
 11
4.4321
 21
97.8671
  0
LINE
  8
0
 10
4.4321
 20
97.8671
 11
4.62544
 21
97.7129
  0
LINE
  8
0
 10
4.62544
 20
97.7129
 11
4.79364
 21
97.5316
  0
LINE
  8
0
 10
4.79364
 20
97.5316
 11
4.93295
 21
97.3273
  0
LINE
  8
0
 10
4.93295
 20
97.3273
 11
5.04025
 21
97.1045
  0
LINE
  8
0
 10
5.04025
 20
97.1045
 11
5.11314
 21
96.8682
  0
LINE
  8
0
 10
5.11314
 20
96.8682
 11
5.15001
 21
96.6236
  0
LINE
  8
0
 10
5.15001
 20
96.6236
 11
5.15001
 21
96.3763
  0
LINE
  8
0
 10
5.15001
 20
96.3763
 11
5.11314
 21
96.1318
  0
LINE
  8
0
 10
5.11314
 20
96.1318
 11
5.04025
 21
95.8955
  0
LINE
  8
0
 10
5.04025
 20
95.8955
 11
4.93295
 21
95.6727
  0
LINE
  8
0
 10
4.93295
 20
95.6727
 11
4.79364
 21
95.4684
  0
LINE
  8
0
 10
4.79364
 20
95.4684
 11
4.62544
 21
95.2871
  0
LINE
  8
0
 10
4.62544
 20
95.2871
 11
4.4321
 21
95.1329
  0
LINE
  8
0
 10
4.4321
 20
95.1329
 11
4.21793
 21
95.0092
  0
LINE
  8
0
 10
4.21793
 20
95.0092
 11
3.98772
 21
94.9189
  0
LINE
  8
0
 10
3.98772
 20
94.9189
 11
3.74661
 21
94.8638
  0
LINE
  8
0
 10
3.74661
 20
94.8638
 11
3.5
 21
94.8454
  0
LINE
  8
0
 10
3.5
 20
94.8454
 11
3.2534
 21
94.8638
  0
LINE
  8
0
 10
52.2534
 20
94.8638
 11
52.0123
 21
94.9189
  0
LINE
  8
0
 10
52.0123
 20
94.9189
 11
51.7821
 21
95.0092
  0
LINE
  8
0
 10
51.7821
 20
95.0092
 11
51.5679
 21
95.1329
  0
LINE
  8
0
 10
51.5679
 20
95.1329
 11
51.3746
 21
95.2871
  0
LINE
  8
0
 10
51.3746
 20
95.2871
 11
51.2064
 21
95.4684
  0
LINE
  8
0
 10
51.2064
 20
95.4684
 11
51.067
 21
95.6727
  0
LINE
  8
0
 10
51.067
 20
95.6727
 11
50.9597
 21
95.8955
  0
LINE
  8
0
 10
50.9597
 20
95.8955
 11
50.8869
 21
96.1318
  0
LINE
  8
0
 10
50.8869
 20
96.1318
 11
50.85
 21
96.3763
  0
LINE
  8
0
 10
50.85
 20
96.3763
 11
50.85
 21
96.6236
  0
LINE
  8
0
 10
50.85
 20
96.6236
 11
50.8869
 21
96.8682
  0
LINE
  8
0
 10
50.8869
 20
96.8682
 11
50.9597
 21
97.1045
  0
LINE
  8
0
 10
50.9597
 20
97.1045
 11
51.067
 21
97.3273
  0
LINE
  8
0
 10
51.067
 20
97.3273
 11
51.2064
 21
97.5316
  0
LINE
  8
0
 10
51.2064
 20
97.5316
 11
51.3746
 21
97.7129
  0
LINE
  8
0
 10
51.3746
 20
97.7129
 11
51.5679
 21
97.8671
  0
LINE
  8
0
 10
51.5679
 20
97.8671
 11
51.7821
 21
97.9908
  0
LINE
  8
0
 10
51.7821
 20
97.9908
 11
52.0123
 21
98.0811
  0
LINE
  8
0
 10
52.0123
 20
98.0811
 11
52.2534
 21
98.1361
  0
LINE
  8
0
 10
52.2534
 20
98.1361
 11
52.5
 21
98.1546
  0
LINE
  8
0
 10
52.5
 20
98.1546
 11
52.7466
 21
98.1361
  0
LINE
  8
0
 10
52.7466
 20
98.1361
 11
52.9877
 21
98.0811
  0
LINE
  8
0
 10
52.9877
 20
98.0811
 11
53.2179
 21
97.9908
  0
LINE
  8
0
 10
53.2179
 20
97.9908
 11
53.4321
 21
97.8671
  0
LINE
  8
0
 10
53.4321
 20
97.8671
 11
53.6254
 21
97.7129
  0
LINE
  8
0
 10
53.6254
 20
97.7129
 11
53.7936
 21
97.5316
  0
LINE
  8
0
 10
53.7936
 20
97.5316
 11
53.9329
 21
97.3273
  0
LINE
  8
0
 10
53.9329
 20
97.3273
 11
54.0402
 21
97.1045
  0
LINE
  8
0
 10
54.0402
 20
97.1045
 11
54.1131
 21
96.8682
  0
LINE
  8
0
 10
54.1131
 20
96.8682
 11
54.15
 21
96.6236
  0
LINE
  8
0
 10
54.15
 20
96.6236
 11
54.15
 21
96.3763
  0
LINE
  8
0
 10
54.15
 20
96.3763
 11
54.1131
 21
96.1318
  0
LINE
  8
0
 10
54.1131
 20
96.1318
 11
54.0402
 21
95.8955
  0
LINE
  8
0
 10
54.0402
 20
95.8955
 11
53.9329
 21
95.6727
  0
LINE
  8
0
 10
53.9329
 20
95.6727
 11
53.7936
 21
95.4684
  0
LINE
  8
0
 10
53.7936
 20
95.4684
 11
53.6254
 21
95.2871
  0
LINE
  8
0
 10
53.6254
 20
95.2871
 11
53.4321
 21
95.1329
  0
LINE
  8
0
 10
53.4321
 20
95.1329
 11
53.2179
 21
95.0092
  0
LINE
  8
0
 10
53.2179
 20
95.0092
 11
52.9877
 21
94.9189
  0
LINE
  8
0
 10
52.9877
 20
94.9189
 11
52.7466
 21
94.8638
  0
LINE
  8
0
 10
52.7466
 20
94.8638
 11
52.5
 21
94.8454
  0
LINE
  8
0
 10
52.5
 20
94.8454
 11
52.2534
 21
94.8638
  0
LINE
  8
0
 10
-160.262
 20
92.5103
 11
-160.52
 21
92.5513
  0
LINE
  8
0
 10
-160.52
 20
92.5513
 11
-160.774
 21
92.6191
  0
LINE
  8
0
 10
-160.774
 20
92.6191
 11
-161.018
 21
92.713
  0
LINE
  8
0
 10
-161.018
 20
92.713
 11
-161.252
 21
92.832
  0
LINE
  8
0
 10
-161.252
 20
92.832
 11
-161.471
 21
92.9747
  0
LINE
  8
0
 10
-161.471
 20
92.9747
 11
-161.675
 21
93.1396
  0
LINE
  8
0
 10
-161.675
 20
93.1396
 11
-161.86
 21
93.3249
  0
LINE
  8
0
 10
-161.86
 20
93.3249
 11
-162.025
 21
93.5285
  0
LINE
  8
0
 10
-162.025
 20
93.5285
 11
-162.168
 21
93.7483
  0
LINE
  8
0
 10
-162.168
 20
93.7483
 11
-162.287
 21
93.9818
  0
LINE
  8
0
 10
-162.287
 20
93.9818
 11
-162.381
 21
94.2264
  0
LINE
  8
0
 10
-162.381
 20
94.2264
 11
-162.449
 21
94.4795
  0
LINE
  8
0
 10
-162.449
 20
94.4795
 11
-162.49
 21
94.7383
  0
LINE
  8
0
 10
-162.49
 20
94.7383
 11
-162.503
 21
95
  0
LINE
  8
0
 10
-162.503
 20
95
 11
-162.49
 21
95.2617
  0
LINE
  8
0
 10
-162.49
 20
95.2617
 11
-162.449
 21
95.5205
  0
LINE
  8
0
 10
-162.449
 20
95.5205
 11
-162.381
 21
95.7736
  0
LINE
  8
0
 10
-162.381
 20
95.7736
 11
-162.287
 21
96.0182
  0
LINE
  8
0
 10
-162.287
 20
96.0182
 11
-162.168
 21
96.2517
  0
LINE
  8
0
 10
-162.168
 20
96.2517
 11
-162.025
 21
96.4715
  0
LINE
  8
0
 10
-162.025
 20
96.4715
 11
-161.86
 21
96.6751
  0
LINE
  8
0
 10
-161.86
 20
96.6751
 11
-161.675
 21
96.8604
  0
LINE
  8
0
 10
-161.675
 20
96.8604
 11
-161.471
 21
97.0253
  0
LINE
  8
0
 10
-161.471
 20
97.0253
 11
-161.252
 21
97.168
  0
LINE
  8
0
 10
-161.252
 20
97.168
 11
-161.018
 21
97.287
  0
LINE
  8
0
 10
-161.018
 20
97.287
 11
-160.774
 21
97.3809
  0
LINE
  8
0
 10
-160.774
 20
97.3809
 11
-160.52
 21
97.4487
  0
LINE
  8
0
 10
-160.52
 20
97.4487
 11
-160.262
 21
97.4897
  0
LINE
  8
0
 10
-160.262
 20
97.4897
 11
-160
 21
97.5034
  0
LINE
  8
0
 10
-160
 20
97.5034
 11
-159.738
 21
97.4897
  0
LINE
  8
0
 10
-159.738
 20
97.4897
 11
-159.48
 21
97.4487
  0
LINE
  8
0
 10
-159.48
 20
97.4487
 11
-159.226
 21
97.3809
  0
LINE
  8
0
 10
-159.226
 20
97.3809
 11
-158.982
 21
97.287
  0
LINE
  8
0
 10
-158.982
 20
97.287
 11
-158.748
 21
97.168
  0
LINE
  8
0
 10
-158.748
 20
97.168
 11
-158.529
 21
97.0253
  0
LINE
  8
0
 10
-158.529
 20
97.0253
 11
-158.325
 21
96.8604
  0
LINE
  8
0
 10
-158.325
 20
96.8604
 11
-158.14
 21
96.6751
  0
LINE
  8
0
 10
-158.14
 20
96.6751
 11
-157.975
 21
96.4715
  0
LINE
  8
0
 10
-157.975
 20
96.4715
 11
-157.832
 21
96.2517
  0
LINE
  8
0
 10
-157.832
 20
96.2517
 11
-157.713
 21
96.0182
  0
LINE
  8
0
 10
-157.713
 20
96.0182
 11
-157.619
 21
95.7736
  0
LINE
  8
0
 10
-157.619
 20
95.7736
 11
-157.551
 21
95.5205
  0
LINE
  8
0
 10
-157.551
 20
95.5205
 11
-157.51
 21
95.2617
  0
LINE
  8
0
 10
-157.51
 20
95.2617
 11
-157.497
 21
95
  0
LINE
  8
0
 10
-157.497
 20
95
 11
-157.51
 21
94.7383
  0
LINE
  8
0
 10
-157.51
 20
94.7383
 11
-157.551
 21
94.4795
  0
LINE
  8
0
 10
-157.551
 20
94.4795
 11
-157.619
 21
94.2264
  0
LINE
  8
0
 10
-157.619
 20
94.2264
 11
-157.713
 21
93.9818
  0
LINE
  8
0
 10
-157.713
 20
93.9818
 11
-157.832
 21
93.7483
  0
LINE
  8
0
 10
-157.832
 20
93.7483
 11
-157.975
 21
93.5285
  0
LINE
  8
0
 10
-157.975
 20
93.5285
 11
-158.14
 21
93.3249
  0
LINE
  8
0
 10
-158.14
 20
93.3249
 11
-158.325
 21
93.1396
  0
LINE
  8
0
 10
-158.325
 20
93.1396
 11
-158.529
 21
92.9747
  0
LINE
  8
0
 10
-158.529
 20
92.9747
 11
-158.748
 21
92.832
  0
LINE
  8
0
 10
-158.748
 20
92.832
 11
-158.982
 21
92.713
  0
LINE
  8
0
 10
-158.982
 20
92.713
 11
-159.226
 21
92.6191
  0
LINE
  8
0
 10
-159.226
 20
92.6191
 11
-159.48
 21
92.5513
  0
LINE
  8
0
 10
-159.48
 20
92.5513
 11
-159.738
 21
92.5103
  0
LINE
  8
0
 10
-159.738
 20
92.5103
 11
-160
 21
92.4966
  0
LINE
  8
0
 10
-160
 20
92.4966
 11
-160.262
 21
92.5103
  0
LINE
  8
0
 10
-160.247
 20
57.8104
 11
-160.49
 21
57.8518
  0
LINE
  8
0
 10
-160.49
 20
57.8518
 11
-160.728
 21
57.9202
  0
LINE
  8
0
 10
-160.728
 20
57.9202
 11
-160.956
 21
58.0147
  0
LINE
  8
0
 10
-160.956
 20
58.0147
 11
-161.172
 21
58.1343
  0
LINE
  8
0
 10
-161.172
 20
58.1343
 11
-161.374
 21
58.2773
  0
LINE
  8
0
 10
-161.374
 20
58.2773
 11
-161.558
 21
58.4419
  0
LINE
  8
0
 10
-161.558
 20
58.4419
 11
-161.723
 21
58.6262
  0
LINE
  8
0
 10
-161.723
 20
58.6262
 11
-161.866
 21
58.8277
  0
LINE
  8
0
 10
-161.866
 20
58.8277
 11
-161.985
 21
59.0439
  0
LINE
  8
0
 10
-161.985
 20
59.0439
 11
-162.08
 21
59.2722
  0
LINE
  8
0
 10
-162.08
 20
59.2722
 11
-162.148
 21
59.5097
  0
LINE
  8
0
 10
-162.148
 20
59.5097
 11
-162.19
 21
59.7533
  0
LINE
  8
0
 10
-162.19
 20
59.7533
 11
-162.203
 21
60
  0
LINE
  8
0
 10
-162.203
 20
60
 11
-162.19
 21
60.2467
  0
LINE
  8
0
 10
-162.19
 20
60.2467
 11
-162.148
 21
60.4903
  0
LINE
  8
0
 10
-162.148
 20
60.4903
 11
-162.08
 21
60.7278
  0
LINE
  8
0
 10
-162.08
 20
60.7278
 11
-161.985
 21
60.956
  0
LINE
  8
0
 10
-161.985
 20
60.956
 11
-161.866
 21
61.1723
  0
LINE
  8
0
 10
-161.866
 20
61.1723
 11
-161.723
 21
61.3738
  0
LINE
  8
0
 10
-161.723
 20
61.3738
 11
-161.558
 21
61.5581
  0
LINE
  8
0
 10
-161.558
 20
61.5581
 11
-161.374
 21
61.7227
  0
LINE
  8
0
 10
-161.374
 20
61.7227
 11
-161.172
 21
61.8657
  0
LINE
  8
0
 10
-161.172
 20
61.8657
 11
-160.956
 21
61.9852
  0
LINE
  8
0
 10
-160.956
 20
61.9852
 11
-160.728
 21
62.0798
  0
LINE
  8
0
 10
-160.728
 20
62.0798
 11
-160.49
 21
62.1482
  0
LINE
  8
0
 10
-160.49
 20
62.1482
 11
-160.247
 21
62.1896
  0
LINE
  8
0
 10
-160.247
 20
62.1896
 11
-160
 21
62.2035
  0
LINE
  8
0
 10
-160
 20
62.2035
 11
-159.753
 21
62.1896
  0
LINE
  8
0
 10
-159.753
 20
62.1896
 11
-159.51
 21
62.1482
  0
LINE
  8
0
 10
-159.51
 20
62.1482
 11
-159.272
 21
62.0798
  0
LINE
  8
0
 10
-159.272
 20
62.0798
 11
-159.044
 21
61.9852
  0
LINE
  8
0
 10
-159.044
 20
61.9852
 11
-158.828
 21
61.8657
  0
LINE
  8
0
 10
-158.828
 20
61.8657
 11
-158.626
 21
61.7227
  0
LINE
  8
0
 10
-158.626
 20
61.7227
 11
-158.442
 21
61.5581
  0
LINE
  8
0
 10
-158.442
 20
61.5581
 11
-158.277
 21
61.3738
  0
LINE
  8
0
 10
-158.277
 20
61.3738
 11
-158.134
 21
61.1723
  0
LINE
  8
0
 10
-158.134
 20
61.1723
 11
-158.015
 21
60.956
  0
LINE
  8
0
 10
-158.015
 20
60.956
 11
-157.92
 21
60.7278
  0
LINE
  8
0
 10
-157.92
 20
60.7278
 11
-157.852
 21
60.4903
  0
LINE
  8
0
 10
-157.852
 20
60.4903
 11
-157.81
 21
60.2467
  0
LINE
  8
0
 10
-157.81
 20
60.2467
 11
-157.797
 21
60
  0
LINE
  8
0
 10
-157.797
 20
60
 11
-157.81
 21
59.7533
  0
LINE
  8
0
 10
-157.81
 20
59.7533
 11
-157.852
 21
59.5097
  0
LINE
  8
0
 10
-157.852
 20
59.5097
 11
-157.92
 21
59.2722
  0
LINE
  8
0
 10
-157.92
 20
59.2722
 11
-158.015
 21
59.0439
  0
LINE
  8
0
 10
-158.015
 20
59.0439
 11
-158.134
 21
58.8277
  0
LINE
  8
0
 10
-158.134
 20
58.8277
 11
-158.277
 21
58.6262
  0
LINE
  8
0
 10
-158.277
 20
58.6262
 11
-158.442
 21
58.4419
  0
LINE
  8
0
 10
-158.442
 20
58.4419
 11
-158.626
 21
58.2773
  0
LINE
  8
0
 10
-158.626
 20
58.2773
 11
-158.828
 21
58.1343
  0
LINE
  8
0
 10
-158.828
 20
58.1343
 11
-159.044
 21
58.0147
  0
LINE
  8
0
 10
-159.044
 20
58.0147
 11
-159.272
 21
57.9202
  0
LINE
  8
0
 10
-159.272
 20
57.9202
 11
-159.51
 21
57.8518
  0
LINE
  8
0
 10
-159.51
 20
57.8518
 11
-159.753
 21
57.8104
  0
LINE
  8
0
 10
-159.753
 20
57.8104
 11
-160
 21
57.7965
  0
LINE
  8
0
 10
-160
 20
57.7965
 11
-160.247
 21
57.8104
  0
LINE
  8
0
 10
159.753
 20
57.8104
 11
159.51
 21
57.8518
  0
LINE
  8
0
 10
159.51
 20
57.8518
 11
159.272
 21
57.9202
  0
LINE
  8
0
 10
159.272
 20
57.9202
 11
159.044
 21
58.0147
  0
LINE
  8
0
 10
159.044
 20
58.0147
 11
158.828
 21
58.1343
  0
LINE
  8
0
 10
158.828
 20
58.1343
 11
158.626
 21
58.2773
  0
LINE
  8
0
 10
158.626
 20
58.2773
 11
158.442
 21
58.4419
  0
LINE
  8
0
 10
158.442
 20
58.4419
 11
158.277
 21
58.6262
  0
LINE
  8
0
 10
158.277
 20
58.6262
 11
158.134
 21
58.8277
  0
LINE
  8
0
 10
158.134
 20
58.8277
 11
158.015
 21
59.0439
  0
LINE
  8
0
 10
158.015
 20
59.0439
 11
157.92
 21
59.2722
  0
LINE
  8
0
 10
157.92
 20
59.2722
 11
157.852
 21
59.5097
  0
LINE
  8
0
 10
157.852
 20
59.5097
 11
157.81
 21
59.7533
  0
LINE
  8
0
 10
157.81
 20
59.7533
 11
157.797
 21
60
  0
LINE
  8
0
 10
157.797
 20
60
 11
157.81
 21
60.2467
  0
LINE
  8
0
 10
157.81
 20
60.2467
 11
157.852
 21
60.4903
  0
LINE
  8
0
 10
157.852
 20
60.4903
 11
157.92
 21
60.7278
  0
LINE
  8
0
 10
157.92
 20
60.7278
 11
158.015
 21
60.956
  0
LINE
  8
0
 10
158.015
 20
60.956
 11
158.134
 21
61.1723
  0
LINE
  8
0
 10
158.134
 20
61.1723
 11
158.277
 21
61.3738
  0
LINE
  8
0
 10
158.277
 20
61.3738
 11
158.442
 21
61.5581
  0
LINE
  8
0
 10
158.442
 20
61.5581
 11
158.626
 21
61.7227
  0
LINE
  8
0
 10
158.626
 20
61.7227
 11
158.828
 21
61.8657
  0
LINE
  8
0
 10
158.828
 20
61.8657
 11
159.044
 21
61.9852
  0
LINE
  8
0
 10
159.044
 20
61.9852
 11
159.272
 21
62.0798
  0
LINE
  8
0
 10
159.272
 20
62.0798
 11
159.51
 21
62.1482
  0
LINE
  8
0
 10
159.51
 20
62.1482
 11
159.753
 21
62.1896
  0
LINE
  8
0
 10
159.753
 20
62.1896
 11
160
 21
62.2035
  0
LINE
  8
0
 10
160
 20
62.2035
 11
160.247
 21
62.1896
  0
LINE
  8
0
 10
160.247
 20
62.1896
 11
160.49
 21
62.1482
  0
LINE
  8
0
 10
160.49
 20
62.1482
 11
160.728
 21
62.0798
  0
LINE
  8
0
 10
160.728
 20
62.0798
 11
160.956
 21
61.9852
  0
LINE
  8
0
 10
160.956
 20
61.9852
 11
161.172
 21
61.8657
  0
LINE
  8
0
 10
161.172
 20
61.8657
 11
161.374
 21
61.7227
  0
LINE
  8
0
 10
161.374
 20
61.7227
 11
161.558
 21
61.5581
  0
LINE
  8
0
 10
161.558
 20
61.5581
 11
161.723
 21
61.3738
  0
LINE
  8
0
 10
161.723
 20
61.3738
 11
161.866
 21
61.1723
  0
LINE
  8
0
 10
161.866
 20
61.1723
 11
161.985
 21
60.956
  0
LINE
  8
0
 10
161.985
 20
60.956
 11
162.08
 21
60.7278
  0
LINE
  8
0
 10
162.08
 20
60.7278
 11
162.148
 21
60.4903
  0
LINE
  8
0
 10
162.148
 20
60.4903
 11
162.19
 21
60.2467
  0
LINE
  8
0
 10
162.19
 20
60.2467
 11
162.203
 21
60
  0
LINE
  8
0
 10
162.203
 20
60
 11
162.19
 21
59.7533
  0
LINE
  8
0
 10
162.19
 20
59.7533
 11
162.148
 21
59.5097
  0
LINE
  8
0
 10
162.148
 20
59.5097
 11
162.08
 21
59.2722
  0
LINE
  8
0
 10
162.08
 20
59.2722
 11
161.985
 21
59.0439
  0
LINE
  8
0
 10
161.985
 20
59.0439
 11
161.866
 21
58.8277
  0
LINE
  8
0
 10
161.866
 20
58.8277
 11
161.723
 21
58.6262
  0
LINE
  8
0
 10
161.723
 20
58.6262
 11
161.558
 21
58.4419
  0
LINE
  8
0
 10
161.558
 20
58.4419
 11
161.374
 21
58.2773
  0
LINE
  8
0
 10
161.374
 20
58.2773
 11
161.172
 21
58.1343
  0
LINE
  8
0
 10
161.172
 20
58.1343
 11
160.956
 21
58.0147
  0
LINE
  8
0
 10
160.956
 20
58.0147
 11
160.728
 21
57.9202
  0
LINE
  8
0
 10
160.728
 20
57.9202
 11
160.49
 21
57.8518
  0
LINE
  8
0
 10
160.49
 20
57.8518
 11
160.247
 21
57.8104
  0
LINE
  8
0
 10
160.247
 20
57.8104
 11
160
 21
57.7965
  0
LINE
  8
0
 10
160
 20
57.7965
 11
159.753
 21
57.8104
  0
LINE
  8
0
 10
3.2534
 20
36.8639
 11
3.0123
 21
36.9189
  0
LINE
  8
0
 10
3.0123
 20
36.9189
 11
2.78209
 21
37.0092
  0
LINE
  8
0
 10
2.78209
 20
37.0092
 11
2.56792
 21
37.1329
  0
LINE
  8
0
 10
2.56792
 20
37.1329
 11
2.37457
 21
37.2871
  0
LINE
  8
0
 10
2.37457
 20
37.2871
 11
2.20638
 21
37.4684
  0
LINE
  8
0
 10
2.20638
 20
37.4684
 11
2.06706
 21
37.6727
  0
LINE
  8
0
 10
2.06706
 20
37.6727
 11
1.95976
 21
37.8955
  0
LINE
  8
0
 10
1.95976
 20
37.8955
 11
1.88687
 21
38.1318
  0
LINE
  8
0
 10
1.88687
 20
38.1318
 11
1.85001
 21
38.3764
  0
LINE
  8
0
 10
1.85001
 20
38.3764
 11
1.85001
 21
38.6237
  0
LINE
  8
0
 10
1.85001
 20
38.6237
 11
1.88687
 21
38.8682
  0
LINE
  8
0
 10
1.88687
 20
38.8682
 11
1.95976
 21
39.1045
  0
LINE
  8
0
 10
1.95976
 20
39.1045
 11
2.06706
 21
39.3273
  0
LINE
  8
0
 10
2.06706
 20
39.3273
 11
2.20638
 21
39.5316
  0
LINE
  8
0
 10
2.20638
 20
39.5316
 11
2.37457
 21
39.7129
  0
LINE
  8
0
 10
2.37457
 20
39.7129
 11
2.56792
 21
39.8671
  0
LINE
  8
0
 10
2.56792
 20
39.8671
 11
2.78209
 21
39.9908
  0
LINE
  8
0
 10
2.78209
 20
39.9908
 11
3.0123
 21
40.0811
  0
LINE
  8
0
 10
3.0123
 20
40.0811
 11
3.2534
 21
40.1362
  0
LINE
  8
0
 10
3.2534
 20
40.1362
 11
3.5
 21
40.1546
  0
LINE
  8
0
 10
3.5
 20
40.1546
 11
3.74661
 21
40.1362
  0
LINE
  8
0
 10
3.74661
 20
40.1362
 11
3.98772
 21
40.0811
  0
LINE
  8
0
 10
3.98772
 20
40.0811
 11
4.21793
 21
39.9908
  0
LINE
  8
0
 10
4.21793
 20
39.9908
 11
4.4321
 21
39.8671
  0
LINE
  8
0
 10
4.4321
 20
39.8671
 11
4.62544
 21
39.7129
  0
LINE
  8
0
 10
4.62544
 20
39.7129
 11
4.79364
 21
39.5316
  0
LINE
  8
0
 10
4.79364
 20
39.5316
 11
4.93295
 21
39.3273
  0
LINE
  8
0
 10
4.93295
 20
39.3273
 11
5.04025
 21
39.1045
  0
LINE
  8
0
 10
5.04025
 20
39.1045
 11
5.11314
 21
38.8682
  0
LINE
  8
0
 10
5.11314
 20
38.8682
 11
5.15001
 21
38.6237
  0
LINE
  8
0
 10
5.15001
 20
38.6237
 11
5.15001
 21
38.3764
  0
LINE
  8
0
 10
5.15001
 20
38.3764
 11
5.11314
 21
38.1318
  0
LINE
  8
0
 10
5.11314
 20
38.1318
 11
5.04025
 21
37.8955
  0
LINE
  8
0
 10
5.04025
 20
37.8955
 11
4.93295
 21
37.6727
  0
LINE
  8
0
 10
4.93295
 20
37.6727
 11
4.79364
 21
37.4684
  0
LINE
  8
0
 10
4.79364
 20
37.4684
 11
4.62544
 21
37.2871
  0
LINE
  8
0
 10
4.62544
 20
37.2871
 11
4.4321
 21
37.1329
  0
LINE
  8
0
 10
4.4321
 20
37.1329
 11
4.21793
 21
37.0092
  0
LINE
  8
0
 10
4.21793
 20
37.0092
 11
3.98772
 21
36.9189
  0
LINE
  8
0
 10
3.98772
 20
36.9189
 11
3.74661
 21
36.8639
  0
LINE
  8
0
 10
3.74661
 20
36.8639
 11
3.5
 21
36.8454
  0
LINE
  8
0
 10
3.5
 20
36.8454
 11
3.2534
 21
36.8639
  0
LINE
  8
0
 10
52.2534
 20
36.8639
 11
52.0123
 21
36.9189
  0
LINE
  8
0
 10
52.0123
 20
36.9189
 11
51.7821
 21
37.0092
  0
LINE
  8
0
 10
51.7821
 20
37.0092
 11
51.5679
 21
37.1329
  0
LINE
  8
0
 10
51.5679
 20
37.1329
 11
51.3746
 21
37.2871
  0
LINE
  8
0
 10
51.3746
 20
37.2871
 11
51.2064
 21
37.4684
  0
LINE
  8
0
 10
51.2064
 20
37.4684
 11
51.067
 21
37.6727
  0
LINE
  8
0
 10
51.067
 20
37.6727
 11
50.9597
 21
37.8955
  0
LINE
  8
0
 10
50.9597
 20
37.8955
 11
50.8869
 21
38.1318
  0
LINE
  8
0
 10
50.8869
 20
38.1318
 11
50.85
 21
38.3764
  0
LINE
  8
0
 10
50.85
 20
38.3764
 11
50.85
 21
38.6237
  0
LINE
  8
0
 10
50.85
 20
38.6237
 11
50.8869
 21
38.8682
  0
LINE
  8
0
 10
50.8869
 20
38.8682
 11
50.9597
 21
39.1045
  0
LINE
  8
0
 10
50.9597
 20
39.1045
 11
51.067
 21
39.3273
  0
LINE
  8
0
 10
51.067
 20
39.3273
 11
51.2064
 21
39.5316
  0
LINE
  8
0
 10
51.2064
 20
39.5316
 11
51.3746
 21
39.7129
  0
LINE
  8
0
 10
51.3746
 20
39.7129
 11
51.5679
 21
39.8671
  0
LINE
  8
0
 10
51.5679
 20
39.8671
 11
51.7821
 21
39.9908
  0
LINE
  8
0
 10
51.7821
 20
39.9908
 11
52.0123
 21
40.0811
  0
LINE
  8
0
 10
52.0123
 20
40.0811
 11
52.2534
 21
40.1362
  0
LINE
  8
0
 10
52.2534
 20
40.1362
 11
52.5
 21
40.1546
  0
LINE
  8
0
 10
52.5
 20
40.1546
 11
52.7466
 21
40.1362
  0
LINE
  8
0
 10
52.7466
 20
40.1362
 11
52.9877
 21
40.0811
  0
LINE
  8
0
 10
52.9877
 20
40.0811
 11
53.2179
 21
39.9908
  0
LINE
  8
0
 10
53.2179
 20
39.9908
 11
53.4321
 21
39.8671
  0
LINE
  8
0
 10
53.4321
 20
39.8671
 11
53.6254
 21
39.7129
  0
LINE
  8
0
 10
53.6254
 20
39.7129
 11
53.7936
 21
39.5316
  0
LINE
  8
0
 10
53.7936
 20
39.5316
 11
53.9329
 21
39.3273
  0
LINE
  8
0
 10
53.9329
 20
39.3273
 11
54.0402
 21
39.1045
  0
LINE
  8
0
 10
54.0402
 20
39.1045
 11
54.1131
 21
38.8682
  0
LINE
  8
0
 10
54.1131
 20
38.8682
 11
54.15
 21
38.6237
  0
LINE
  8
0
 10
54.15
 20
38.6237
 11
54.15
 21
38.3764
  0
LINE
  8
0
 10
54.15
 20
38.3764
 11
54.1131
 21
38.1318
  0
LINE
  8
0
 10
54.1131
 20
38.1318
 11
54.0402
 21
37.8955
  0
LINE
  8
0
 10
54.0402
 20
37.8955
 11
53.9329
 21
37.6727
  0
LINE
  8
0
 10
53.9329
 20
37.6727
 11
53.7936
 21
37.4684
  0
LINE
  8
0
 10
53.7936
 20
37.4684
 11
53.6254
 21
37.2871
  0
LINE
  8
0
 10
53.6254
 20
37.2871
 11
53.4321
 21
37.1329
  0
LINE
  8
0
 10
53.4321
 20
37.1329
 11
53.2179
 21
37.0092
  0
LINE
  8
0
 10
53.2179
 20
37.0092
 11
52.9877
 21
36.9189
  0
LINE
  8
0
 10
52.9877
 20
36.9189
 11
52.7466
 21
36.8639
  0
LINE
  8
0
 10
52.7466
 20
36.8639
 11
52.5
 21
36.8454
  0
LINE
  8
0
 10
52.5
 20
36.8454
 11
52.2534
 21
36.8639
  0
LINE
  8
0
 10
-114.747
 20
35.3104
 11
-114.99
 21
35.3518
  0
LINE
  8
0
 10
-114.99
 20
35.3518
 11
-115.228
 21
35.4202
  0
LINE
  8
0
 10
-115.228
 20
35.4202
 11
-115.456
 21
35.5147
  0
LINE
  8
0
 10
-115.456
 20
35.5147
 11
-115.672
 21
35.6343
  0
LINE
  8
0
 10
-115.672
 20
35.6343
 11
-115.874
 21
35.7773
  0
LINE
  8
0
 10
-115.874
 20
35.7773
 11
-116.058
 21
35.9419
  0
LINE
  8
0
 10
-116.058
 20
35.9419
 11
-116.223
 21
36.1262
  0
LINE
  8
0
 10
-116.223
 20
36.1262
 11
-116.366
 21
36.3277
  0
LINE
  8
0
 10
-116.366
 20
36.3277
 11
-116.485
 21
36.5439
  0
LINE
  8
0
 10
-116.485
 20
36.5439
 11
-116.58
 21
36.7722
  0
LINE
  8
0
 10
-116.58
 20
36.7722
 11
-116.648
 21
37.0097
  0
LINE
  8
0
 10
-116.648
 20
37.0097
 11
-116.69
 21
37.2533
  0
LINE
  8
0
 10
-116.69
 20
37.2533
 11
-116.703
 21
37.5
  0
LINE
  8
0
 10
-116.703
 20
37.5
 11
-116.69
 21
37.7467
  0
LINE
  8
0
 10
-116.69
 20
37.7467
 11
-116.648
 21
37.9903
  0
LINE
  8
0
 10
-116.648
 20
37.9903
 11
-116.58
 21
38.2278
  0
LINE
  8
0
 10
-116.58
 20
38.2278
 11
-116.485
 21
38.456
  0
LINE
  8
0
 10
-116.485
 20
38.456
 11
-116.366
 21
38.6723
  0
LINE
  8
0
 10
-116.366
 20
38.6723
 11
-116.223
 21
38.8738
  0
LINE
  8
0
 10
-116.223
 20
38.8738
 11
-116.058
 21
39.0581
  0
LINE
  8
0
 10
-116.058
 20
39.0581
 11
-115.874
 21
39.2227
  0
LINE
  8
0
 10
-115.874
 20
39.2227
 11
-115.672
 21
39.3657
  0
LINE
  8
0
 10
-115.672
 20
39.3657
 11
-115.456
 21
39.4852
  0
LINE
  8
0
 10
-115.456
 20
39.4852
 11
-115.228
 21
39.5798
  0
LINE
  8
0
 10
-115.228
 20
39.5798
 11
-114.99
 21
39.6482
  0
LINE
  8
0
 10
-114.99
 20
39.6482
 11
-114.747
 21
39.6896
  0
LINE
  8
0
 10
-114.747
 20
39.6896
 11
-114.5
 21
39.7035
  0
LINE
  8
0
 10
-114.5
 20
39.7035
 11
-114.253
 21
39.6896
  0
LINE
  8
0
 10
-114.253
 20
39.6896
 11
-114.01
 21
39.6482
  0
LINE
  8
0
 10
-114.01
 20
39.6482
 11
-113.772
 21
39.5798
  0
LINE
  8
0
 10
-113.772
 20
39.5798
 11
-113.544
 21
39.4852
  0
LINE
  8
0
 10
-113.544
 20
39.4852
 11
-113.328
 21
39.3657
  0
LINE
  8
0
 10
-113.328
 20
39.3657
 11
-113.126
 21
39.2227
  0
LINE
  8
0
 10
-113.126
 20
39.2227
 11
-112.942
 21
39.0581
  0
LINE
  8
0
 10
-112.942
 20
39.0581
 11
-112.777
 21
38.8738
  0
LINE
  8
0
 10
-112.777
 20
38.8738
 11
-112.634
 21
38.6723
  0
LINE
  8
0
 10
-112.634
 20
38.6723
 11
-112.515
 21
38.456
  0
LINE
  8
0
 10
-112.515
 20
38.456
 11
-112.42
 21
38.2278
  0
LINE
  8
0
 10
-112.42
 20
38.2278
 11
-112.352
 21
37.9903
  0
LINE
  8
0
 10
-112.352
 20
37.9903
 11
-112.31
 21
37.7467
  0
LINE
  8
0
 10
-112.31
 20
37.7467
 11
-112.297
 21
37.5
  0
LINE
  8
0
 10
-112.297
 20
37.5
 11
-112.31
 21
37.2533
  0
LINE
  8
0
 10
-112.31
 20
37.2533
 11
-112.352
 21
37.0097
  0
LINE
  8
0
 10
-112.352
 20
37.0097
 11
-112.42
 21
36.7722
  0
LINE
  8
0
 10
-112.42
 20
36.7722
 11
-112.515
 21
36.5439
  0
LINE
  8
0
 10
-112.515
 20
36.5439
 11
-112.634
 21
36.3277
  0
LINE
  8
0
 10
-112.634
 20
36.3277
 11
-112.777
 21
36.1262
  0
LINE
  8
0
 10
-112.777
 20
36.1262
 11
-112.942
 21
35.9419
  0
LINE
  8
0
 10
-112.942
 20
35.9419
 11
-113.126
 21
35.7773
  0
LINE
  8
0
 10
-113.126
 20
35.7773
 11
-113.328
 21
35.6343
  0
LINE
  8
0
 10
-113.328
 20
35.6343
 11
-113.544
 21
35.5147
  0
LINE
  8
0
 10
-113.544
 20
35.5147
 11
-113.772
 21
35.4202
  0
LINE
  8
0
 10
-113.772
 20
35.4202
 11
-114.01
 21
35.3518
  0
LINE
  8
0
 10
-114.01
 20
35.3518
 11
-114.253
 21
35.3104
  0
LINE
  8
0
 10
-114.253
 20
35.3104
 11
-114.5
 21
35.2965
  0
LINE
  8
0
 10
-114.5
 20
35.2965
 11
-114.747
 21
35.3104
  0
LINE
  8
0
 10
-64.7467
 20
35.3104
 11
-64.9903
 21
35.3518
  0
LINE
  8
0
 10
-64.9903
 20
35.3518
 11
-65.2278
 21
35.4202
  0
LINE
  8
0
 10
-65.2278
 20
35.4202
 11
-65.4561
 21
35.5147
  0
LINE
  8
0
 10
-65.4561
 20
35.5147
 11
-65.6723
 21
35.6343
  0
LINE
  8
0
 10
-65.6723
 20
35.6343
 11
-65.8738
 21
35.7773
  0
LINE
  8
0
 10
-65.8738
 20
35.7773
 11
-66.0581
 21
35.9419
  0
LINE
  8
0
 10
-66.0581
 20
35.9419
 11
-66.2227
 21
36.1262
  0
LINE
  8
0
 10
-66.2227
 20
36.1262
 11
-66.3657
 21
36.3277
  0
LINE
  8
0
 10
-66.3657
 20
36.3277
 11
-66.4853
 21
36.5439
  0
LINE
  8
0
 10
-66.4853
 20
36.5439
 11
-66.5798
 21
36.7722
  0
LINE
  8
0
 10
-66.5798
 20
36.7722
 11
-66.6482
 21
37.0097
  0
LINE
  8
0
 10
-66.6482
 20
37.0097
 11
-66.6896
 21
37.2533
  0
LINE
  8
0
 10
-66.6896
 20
37.2533
 11
-66.7035
 21
37.5
  0
LINE
  8
0
 10
-66.7035
 20
37.5
 11
-66.6896
 21
37.7467
  0
LINE
  8
0
 10
-66.6896
 20
37.7467
 11
-66.6482
 21
37.9903
  0
LINE
  8
0
 10
-66.6482
 20
37.9903
 11
-66.5798
 21
38.2278
  0
LINE
  8
0
 10
-66.5798
 20
38.2278
 11
-66.4853
 21
38.456
  0
LINE
  8
0
 10
-66.4853
 20
38.456
 11
-66.3657
 21
38.6723
  0
LINE
  8
0
 10
-66.3657
 20
38.6723
 11
-66.2227
 21
38.8738
  0
LINE
  8
0
 10
-66.2227
 20
38.8738
 11
-66.0581
 21
39.0581
  0
LINE
  8
0
 10
-66.0581
 20
39.0581
 11
-65.8738
 21
39.2227
  0
LINE
  8
0
 10
-65.8738
 20
39.2227
 11
-65.6723
 21
39.3657
  0
LINE
  8
0
 10
-65.6723
 20
39.3657
 11
-65.4561
 21
39.4852
  0
LINE
  8
0
 10
-65.4561
 20
39.4852
 11
-65.2278
 21
39.5798
  0
LINE
  8
0
 10
-65.2278
 20
39.5798
 11
-64.9903
 21
39.6482
  0
LINE
  8
0
 10
-64.9903
 20
39.6482
 11
-64.7467
 21
39.6896
  0
LINE
  8
0
 10
-64.7467
 20
39.6896
 11
-64.5
 21
39.7035
  0
LINE
  8
0
 10
-64.5
 20
39.7035
 11
-64.2533
 21
39.6896
  0
LINE
  8
0
 10
-64.2533
 20
39.6896
 11
-64.0097
 21
39.6482
  0
LINE
  8
0
 10
-64.0097
 20
39.6482
 11
-63.7722
 21
39.5798
  0
LINE
  8
0
 10
-63.7722
 20
39.5798
 11
-63.544
 21
39.4852
  0
LINE
  8
0
 10
-63.544
 20
39.4852
 11
-63.3277
 21
39.3657
  0
LINE
  8
0
 10
-63.3277
 20
39.3657
 11
-63.1262
 21
39.2227
  0
LINE
  8
0
 10
-63.1262
 20
39.2227
 11
-62.9419
 21
39.0581
  0
LINE
  8
0
 10
-62.9419
 20
39.0581
 11
-62.7773
 21
38.8738
  0
LINE
  8
0
 10
-62.7773
 20
38.8738
 11
-62.6343
 21
38.6723
  0
LINE
  8
0
 10
-62.6343
 20
38.6723
 11
-62.5148
 21
38.456
  0
LINE
  8
0
 10
-62.5148
 20
38.456
 11
-62.4202
 21
38.2278
  0
LINE
  8
0
 10
-62.4202
 20
38.2278
 11
-62.3518
 21
37.9903
  0
LINE
  8
0
 10
-62.3518
 20
37.9903
 11
-62.3104
 21
37.7467
  0
LINE
  8
0
 10
-62.3104
 20
37.7467
 11
-62.2965
 21
37.5
  0
LINE
  8
0
 10
-62.2965
 20
37.5
 11
-62.3104
 21
37.2533
  0
LINE
  8
0
 10
-62.3104
 20
37.2533
 11
-62.3518
 21
37.0097
  0
LINE
  8
0
 10
-62.3518
 20
37.0097
 11
-62.4202
 21
36.7722
  0
LINE
  8
0
 10
-62.4202
 20
36.7722
 11
-62.5148
 21
36.5439
  0
LINE
  8
0
 10
-62.5148
 20
36.5439
 11
-62.6343
 21
36.3277
  0
LINE
  8
0
 10
-62.6343
 20
36.3277
 11
-62.7773
 21
36.1262
  0
LINE
  8
0
 10
-62.7773
 20
36.1262
 11
-62.9419
 21
35.9419
  0
LINE
  8
0
 10
-62.9419
 20
35.9419
 11
-63.1262
 21
35.7773
  0
LINE
  8
0
 10
-63.1262
 20
35.7773
 11
-63.3277
 21
35.6343
  0
LINE
  8
0
 10
-63.3277
 20
35.6343
 11
-63.544
 21
35.5147
  0
LINE
  8
0
 10
-63.544
 20
35.5147
 11
-63.7722
 21
35.4202
  0
LINE
  8
0
 10
-63.7722
 20
35.4202
 11
-64.0097
 21
35.3518
  0
LINE
  8
0
 10
-64.0097
 20
35.3518
 11
-64.2533
 21
35.3104
  0
LINE
  8
0
 10
-64.2533
 20
35.3104
 11
-64.5
 21
35.2965
  0
LINE
  8
0
 10
-64.5
 20
35.2965
 11
-64.7467
 21
35.3104
  0
LINE
  8
0
 10
145.753
 20
4.36385
 11
145.512
 21
4.41887
  0
LINE
  8
0
 10
145.512
 20
4.41887
 11
145.282
 21
4.50923
  0
LINE
  8
0
 10
145.282
 20
4.50923
 11
145.068
 21
4.63287
  0
LINE
  8
0
 10
145.068
 20
4.63287
 11
144.875
 21
4.78706
  0
LINE
  8
0
 10
144.875
 20
4.78706
 11
144.706
 21
4.96835
  0
LINE
  8
0
 10
144.706
 20
4.96835
 11
144.567
 21
5.17268
  0
LINE
  8
0
 10
144.567
 20
5.17268
 11
144.46
 21
5.39549
  0
LINE
  8
0
 10
144.46
 20
5.39549
 11
144.387
 21
5.63181
  0
LINE
  8
0
 10
144.387
 20
5.63181
 11
144.35
 21
5.87634
  0
LINE
  8
0
 10
144.35
 20
5.87634
 11
144.35
 21
6.12364
  0
LINE
  8
0
 10
144.35
 20
6.12364
 11
144.387
 21
6.36818
  0
LINE
  8
0
 10
144.387
 20
6.36818
 11
144.46
 21
6.60449
  0
LINE
  8
0
 10
144.46
 20
6.60449
 11
144.567
 21
6.8273
  0
LINE
  8
0
 10
144.567
 20
6.8273
 11
144.706
 21
7.03163
  0
LINE
  8
0
 10
144.706
 20
7.03163
 11
144.875
 21
7.21292
  0
LINE
  8
0
 10
144.875
 20
7.21292
 11
145.068
 21
7.36711
  0
LINE
  8
0
 10
145.068
 20
7.36711
 11
145.282
 21
7.49075
  0
LINE
  8
0
 10
145.282
 20
7.49075
 11
145.512
 21
7.58112
  0
LINE
  8
0
 10
145.512
 20
7.58112
 11
145.753
 21
7.63614
  0
LINE
  8
0
 10
145.753
 20
7.63614
 11
146
 21
7.65462
  0
LINE
  8
0
 10
146
 20
7.65462
 11
146.247
 21
7.63614
  0
LINE
  8
0
 10
146.247
 20
7.63614
 11
146.488
 21
7.58112
  0
LINE
  8
0
 10
146.488
 20
7.58112
 11
146.718
 21
7.49075
  0
LINE
  8
0
 10
146.718
 20
7.49075
 11
146.932
 21
7.36711
  0
LINE
  8
0
 10
146.932
 20
7.36711
 11
147.125
 21
7.21292
  0
LINE
  8
0
 10
147.125
 20
7.21292
 11
147.294
 21
7.03163
  0
LINE
  8
0
 10
147.294
 20
7.03163
 11
147.433
 21
6.8273
  0
LINE
  8
0
 10
147.433
 20
6.8273
 11
147.54
 21
6.60449
  0
LINE
  8
0
 10
147.54
 20
6.60449
 11
147.613
 21
6.36818
  0
LINE
  8
0
 10
147.613
 20
6.36818
 11
147.65
 21
6.12364
  0
LINE
  8
0
 10
147.65
 20
6.12364
 11
147.65
 21
5.87634
  0
LINE
  8
0
 10
147.65
 20
5.87634
 11
147.613
 21
5.63181
  0
LINE
  8
0
 10
147.613
 20
5.63181
 11
147.54
 21
5.39549
  0
LINE
  8
0
 10
147.54
 20
5.39549
 11
147.433
 21
5.17268
  0
LINE
  8
0
 10
147.433
 20
5.17268
 11
147.294
 21
4.96835
  0
LINE
  8
0
 10
147.294
 20
4.96835
 11
147.125
 21
4.78706
  0
LINE
  8
0
 10
147.125
 20
4.78706
 11
146.932
 21
4.63287
  0
LINE
  8
0
 10
146.932
 20
4.63287
 11
146.718
 21
4.50923
  0
LINE
  8
0
 10
146.718
 20
4.50923
 11
146.488
 21
4.41887
  0
LINE
  8
0
 10
146.488
 20
4.41887
 11
146.247
 21
4.36385
  0
LINE
  8
0
 10
146.247
 20
4.36385
 11
146
 21
4.34537
  0
LINE
  8
0
 10
146
 20
4.34537
 11
145.753
 21
4.36385
  0
LINE
  8
0
 10
68.7534
 20
4.36385
 11
68.5123
 21
4.41887
  0
LINE
  8
0
 10
68.5123
 20
4.41887
 11
68.2821
 21
4.50923
  0
LINE
  8
0
 10
68.2821
 20
4.50923
 11
68.0679
 21
4.63287
  0
LINE
  8
0
 10
68.0679
 20
4.63287
 11
67.8746
 21
4.78706
  0
LINE
  8
0
 10
67.8746
 20
4.78706
 11
67.7064
 21
4.96835
  0
LINE
  8
0
 10
67.7064
 20
4.96835
 11
67.5671
 21
5.17268
  0
LINE
  8
0
 10
67.5671
 20
5.17268
 11
67.4598
 21
5.39549
  0
LINE
  8
0
 10
67.4598
 20
5.39549
 11
67.3869
 21
5.63181
  0
LINE
  8
0
 10
67.3869
 20
5.63181
 11
67.35
 21
5.87634
  0
LINE
  8
0
 10
67.35
 20
5.87634
 11
67.35
 21
6.12364
  0
LINE
  8
0
 10
67.35
 20
6.12364
 11
67.3869
 21
6.36818
  0
LINE
  8
0
 10
67.3869
 20
6.36818
 11
67.4598
 21
6.60449
  0
LINE
  8
0
 10
67.4598
 20
6.60449
 11
67.5671
 21
6.8273
  0
LINE
  8
0
 10
67.5671
 20
6.8273
 11
67.7064
 21
7.03163
  0
LINE
  8
0
 10
67.7064
 20
7.03163
 11
67.8746
 21
7.21292
  0
LINE
  8
0
 10
67.8746
 20
7.21292
 11
68.0679
 21
7.36711
  0
LINE
  8
0
 10
68.0679
 20
7.36711
 11
68.2821
 21
7.49075
  0
LINE
  8
0
 10
68.2821
 20
7.49075
 11
68.5123
 21
7.58112
  0
LINE
  8
0
 10
68.5123
 20
7.58112
 11
68.7534
 21
7.63614
  0
LINE
  8
0
 10
68.7534
 20
7.63614
 11
69
 21
7.65462
  0
LINE
  8
0
 10
69
 20
7.65462
 11
69.2466
 21
7.63614
  0
LINE
  8
0
 10
69.2466
 20
7.63614
 11
69.4877
 21
7.58112
  0
LINE
  8
0
 10
69.4877
 20
7.58112
 11
69.7179
 21
7.49075
  0
LINE
  8
0
 10
69.7179
 20
7.49075
 11
69.9321
 21
7.36711
  0
LINE
  8
0
 10
69.9321
 20
7.36711
 11
70.1254
 21
7.21292
  0
LINE
  8
0
 10
70.1254
 20
7.21292
 11
70.2936
 21
7.03163
  0
LINE
  8
0
 10
70.2936
 20
7.03163
 11
70.433
 21
6.8273
  0
LINE
  8
0
 10
70.433
 20
6.8273
 11
70.5403
 21
6.60449
  0
LINE
  8
0
 10
70.5403
 20
6.60449
 11
70.6131
 21
6.36818
  0
LINE
  8
0
 10
70.6131
 20
6.36818
 11
70.65
 21
6.12364
  0
LINE
  8
0
 10
70.65
 20
6.12364
 11
70.65
 21
5.87634
  0
LINE
  8
0
 10
70.65
 20
5.87634
 11
70.6131
 21
5.63181
  0
LINE
  8
0
 10
70.6131
 20
5.63181
 11
70.5403
 21
5.39549
  0
LINE
  8
0
 10
70.5403
 20
5.39549
 11
70.433
 21
5.17268
  0
LINE
  8
0
 10
70.433
 20
5.17268
 11
70.2936
 21
4.96835
  0
LINE
  8
0
 10
70.2936
 20
4.96835
 11
70.1254
 21
4.78706
  0
LINE
  8
0
 10
70.1254
 20
4.78706
 11
69.9321
 21
4.63287
  0
LINE
  8
0
 10
69.9321
 20
4.63287
 11
69.7179
 21
4.50923
  0
LINE
  8
0
 10
69.7179
 20
4.50923
 11
69.4877
 21
4.41887
  0
LINE
  8
0
 10
69.4877
 20
4.41887
 11
69.2466
 21
4.36385
  0
LINE
  8
0
 10
69.2466
 20
4.36385
 11
69
 21
4.34537
  0
LINE
  8
0
 10
69
 20
4.34537
 11
68.7534
 21
4.36385
  0
LINE
  8
0
 10
159.738
 20
2.51027
 11
159.48
 21
2.55127
  0
LINE
  8
0
 10
159.48
 20
2.55127
 11
159.226
 21
2.61909
  0
LINE
  8
0
 10
159.226
 20
2.61909
 11
158.982
 21
2.713
  0
LINE
  8
0
 10
158.982
 20
2.713
 11
158.748
 21
2.83195
  0
LINE
  8
0
 10
158.748
 20
2.83195
 11
158.529
 21
2.97467
  0
LINE
  8
0
 10
158.529
 20
2.97467
 11
158.325
 21
3.13959
  0
LINE
  8
0
 10
158.325
 20
3.13959
 11
158.14
 21
3.32487
  0
LINE
  8
0
 10
158.14
 20
3.32487
 11
157.975
 21
3.52852
  0
LINE
  8
0
 10
157.975
 20
3.52852
 11
157.832
 21
3.74828
  0
LINE
  8
0
 10
157.832
 20
3.74828
 11
157.713
 21
3.98175
  0
LINE
  8
0
 10
157.713
 20
3.98175
 11
157.619
 21
4.22639
  0
LINE
  8
0
 10
157.619
 20
4.22639
 11
157.551
 21
4.47951
  0
LINE
  8
0
 10
157.551
 20
4.47951
 11
157.51
 21
4.73831
  0
LINE
  8
0
 10
157.51
 20
4.73831
 11
157.497
 21
5
  0
LINE
  8
0
 10
157.497
 20
5
 11
157.51
 21
5.26167
  0
LINE
  8
0
 10
157.51
 20
5.26167
 11
157.551
 21
5.52048
  0
LINE
  8
0
 10
157.551
 20
5.52048
 11
157.619
 21
5.77359
  0
LINE
  8
0
 10
157.619
 20
5.77359
 11
157.713
 21
6.01823
  0
LINE
  8
0
 10
157.713
 20
6.01823
 11
157.832
 21
6.25171
  0
LINE
  8
0
 10
157.832
 20
6.25171
 11
157.975
 21
6.47147
  0
LINE
  8
0
 10
157.975
 20
6.47147
 11
158.14
 21
6.67511
  0
LINE
  8
0
 10
158.14
 20
6.67511
 11
158.325
 21
6.8604
  0
LINE
  8
0
 10
158.325
 20
6.8604
 11
158.529
 21
7.02531
  0
LINE
  8
0
 10
158.529
 20
7.02531
 11
158.748
 21
7.16803
  0
LINE
  8
0
 10
158.748
 20
7.16803
 11
158.982
 21
7.28699
  0
LINE
  8
0
 10
158.982
 20
7.28699
 11
159.226
 21
7.38089
  0
LINE
  8
0
 10
159.226
 20
7.38089
 11
159.48
 21
7.44872
  0
LINE
  8
0
 10
159.48
 20
7.44872
 11
159.738
 21
7.48972
  0
LINE
  8
0
 10
159.738
 20
7.48972
 11
160
 21
7.50342
  0
LINE
  8
0
 10
160
 20
7.50342
 11
160.262
 21
7.48972
  0
LINE
  8
0
 10
160.262
 20
7.48972
 11
160.52
 21
7.44872
  0
LINE
  8
0
 10
160.52
 20
7.44872
 11
160.774
 21
7.38089
  0
LINE
  8
0
 10
160.774
 20
7.38089
 11
161.018
 21
7.28699
  0
LINE
  8
0
 10
161.018
 20
7.28699
 11
161.252
 21
7.16803
  0
LINE
  8
0
 10
161.252
 20
7.16803
 11
161.471
 21
7.02531
  0
LINE
  8
0
 10
161.471
 20
7.02531
 11
161.675
 21
6.8604
  0
LINE
  8
0
 10
161.675
 20
6.8604
 11
161.86
 21
6.67511
  0
LINE
  8
0
 10
161.86
 20
6.67511
 11
162.025
 21
6.47147
  0
LINE
  8
0
 10
162.025
 20
6.47147
 11
162.168
 21
6.25171
  0
LINE
  8
0
 10
162.168
 20
6.25171
 11
162.287
 21
6.01823
  0
LINE
  8
0
 10
162.287
 20
6.01823
 11
162.381
 21
5.77359
  0
LINE
  8
0
 10
162.381
 20
5.77359
 11
162.449
 21
5.52048
  0
LINE
  8
0
 10
162.449
 20
5.52048
 11
162.49
 21
5.26167
  0
LINE
  8
0
 10
162.49
 20
5.26167
 11
162.503
 21
5
  0
LINE
  8
0
 10
162.503
 20
5
 11
162.49
 21
4.73831
  0
LINE
  8
0
 10
162.49
 20
4.73831
 11
162.449
 21
4.47951
  0
LINE
  8
0
 10
162.449
 20
4.47951
 11
162.381
 21
4.22639
  0
LINE
  8
0
 10
162.381
 20
4.22639
 11
162.287
 21
3.98175
  0
LINE
  8
0
 10
162.287
 20
3.98175
 11
162.168
 21
3.74828
  0
LINE
  8
0
 10
162.168
 20
3.74828
 11
162.025
 21
3.52852
  0
LINE
  8
0
 10
162.025
 20
3.52852
 11
161.86
 21
3.32487
  0
LINE
  8
0
 10
161.86
 20
3.32487
 11
161.675
 21
3.13959
  0
LINE
  8
0
 10
161.675
 20
3.13959
 11
161.471
 21
2.97467
  0
LINE
  8
0
 10
161.471
 20
2.97467
 11
161.252
 21
2.83195
  0
LINE
  8
0
 10
161.252
 20
2.83195
 11
161.018
 21
2.713
  0
LINE
  8
0
 10
161.018
 20
2.713
 11
160.774
 21
2.61909
  0
LINE
  8
0
 10
160.774
 20
2.61909
 11
160.52
 21
2.55127
  0
LINE
  8
0
 10
160.52
 20
2.55127
 11
160.262
 21
2.51027
  0
LINE
  8
0
 10
160.262
 20
2.51027
 11
160
 21
2.49657
  0
LINE
  8
0
 10
160
 20
2.49657
 11
159.738
 21
2.51027
  0
LINE
  8
0
 10
159.738
 20
-17.4897
 11
159.48
 21
-17.4487
  0
LINE
  8
0
 10
159.48
 20
-17.4487
 11
159.226
 21
-17.3809
  0
LINE
  8
0
 10
159.226
 20
-17.3809
 11
158.982
 21
-17.287
  0
LINE
  8
0
 10
158.982
 20
-17.287
 11
158.748
 21
-17.168
  0
LINE
  8
0
 10
158.748
 20
-17.168
 11
158.529
 21
-17.0253
  0
LINE
  8
0
 10
158.529
 20
-17.0253
 11
158.325
 21
-16.8604
  0
LINE
  8
0
 10
158.325
 20
-16.8604
 11
158.14
 21
-16.6751
  0
LINE
  8
0
 10
158.14
 20
-16.6751
 11
157.975
 21
-16.4715
  0
LINE
  8
0
 10
157.975
 20
-16.4715
 11
157.832
 21
-16.2517
  0
LINE
  8
0
 10
157.832
 20
-16.2517
 11
157.713
 21
-16.0182
  0
LINE
  8
0
 10
157.713
 20
-16.0182
 11
157.619
 21
-15.7736
  0
LINE
  8
0
 10
157.619
 20
-15.7736
 11
157.551
 21
-15.5205
  0
LINE
  8
0
 10
157.551
 20
-15.5205
 11
157.51
 21
-15.2617
  0
LINE
  8
0
 10
157.51
 20
-15.2617
 11
157.497
 21
-15
  0
LINE
  8
0
 10
157.497
 20
-15
 11
157.51
 21
-14.7383
  0
LINE
  8
0
 10
157.51
 20
-14.7383
 11
157.551
 21
-14.4795
  0
LINE
  8
0
 10
157.551
 20
-14.4795
 11
157.619
 21
-14.2264
  0
LINE
  8
0
 10
157.619
 20
-14.2264
 11
157.713
 21
-13.9818
  0
LINE
  8
0
 10
157.713
 20
-13.9818
 11
157.832
 21
-13.7483
  0
LINE
  8
0
 10
157.832
 20
-13.7483
 11
157.975
 21
-13.5285
  0
LINE
  8
0
 10
157.975
 20
-13.5285
 11
158.14
 21
-13.3249
  0
LINE
  8
0
 10
158.14
 20
-13.3249
 11
158.325
 21
-13.1396
  0
LINE
  8
0
 10
158.325
 20
-13.1396
 11
158.529
 21
-12.9747
  0
LINE
  8
0
 10
158.529
 20
-12.9747
 11
158.748
 21
-12.832
  0
LINE
  8
0
 10
158.748
 20
-12.832
 11
158.982
 21
-12.713
  0
LINE
  8
0
 10
158.982
 20
-12.713
 11
159.226
 21
-12.6191
  0
LINE
  8
0
 10
159.226
 20
-12.6191
 11
159.48
 21
-12.5513
  0
LINE
  8
0
 10
159.48
 20
-12.5513
 11
159.738
 21
-12.5103
  0
LINE
  8
0
 10
159.738
 20
-12.5103
 11
160
 21
-12.4966
  0
LINE
  8
0
 10
160
 20
-12.4966
 11
160.262
 21
-12.5103
  0
LINE
  8
0
 10
160.262
 20
-12.5103
 11
160.52
 21
-12.5513
  0
LINE
  8
0
 10
160.52
 20
-12.5513
 11
160.774
 21
-12.6191
  0
LINE
  8
0
 10
160.774
 20
-12.6191
 11
161.018
 21
-12.713
  0
LINE
  8
0
 10
161.018
 20
-12.713
 11
161.252
 21
-12.832
  0
LINE
  8
0
 10
161.252
 20
-12.832
 11
161.471
 21
-12.9747
  0
LINE
  8
0
 10
161.471
 20
-12.9747
 11
161.675
 21
-13.1396
  0
LINE
  8
0
 10
161.675
 20
-13.1396
 11
161.86
 21
-13.3249
  0
LINE
  8
0
 10
161.86
 20
-13.3249
 11
162.025
 21
-13.5285
  0
LINE
  8
0
 10
162.025
 20
-13.5285
 11
162.168
 21
-13.7483
  0
LINE
  8
0
 10
162.168
 20
-13.7483
 11
162.287
 21
-13.9818
  0
LINE
  8
0
 10
162.287
 20
-13.9818
 11
162.381
 21
-14.2264
  0
LINE
  8
0
 10
162.381
 20
-14.2264
 11
162.449
 21
-14.4795
  0
LINE
  8
0
 10
162.449
 20
-14.4795
 11
162.49
 21
-14.7383
  0
LINE
  8
0
 10
162.49
 20
-14.7383
 11
162.503
 21
-15
  0
LINE
  8
0
 10
162.503
 20
-15
 11
162.49
 21
-15.2617
  0
LINE
  8
0
 10
162.49
 20
-15.2617
 11
162.449
 21
-15.5205
  0
LINE
  8
0
 10
162.449
 20
-15.5205
 11
162.381
 21
-15.7736
  0
LINE
  8
0
 10
162.381
 20
-15.7736
 11
162.287
 21
-16.0182
  0
LINE
  8
0
 10
162.287
 20
-16.0182
 11
162.168
 21
-16.2517
  0
LINE
  8
0
 10
162.168
 20
-16.2517
 11
162.025
 21
-16.4715
  0
LINE
  8
0
 10
162.025
 20
-16.4715
 11
161.86
 21
-16.6751
  0
LINE
  8
0
 10
161.86
 20
-16.6751
 11
161.675
 21
-16.8604
  0
LINE
  8
0
 10
161.675
 20
-16.8604
 11
161.471
 21
-17.0253
  0
LINE
  8
0
 10
161.471
 20
-17.0253
 11
161.252
 21
-17.168
  0
LINE
  8
0
 10
161.252
 20
-17.168
 11
161.018
 21
-17.287
  0
LINE
  8
0
 10
161.018
 20
-17.287
 11
160.774
 21
-17.3809
  0
LINE
  8
0
 10
160.774
 20
-17.3809
 11
160.52
 21
-17.4487
  0
LINE
  8
0
 10
160.52
 20
-17.4487
 11
160.262
 21
-17.4897
  0
LINE
  8
0
 10
160.262
 20
-17.4897
 11
160
 21
-17.5034
  0
LINE
  8
0
 10
160
 20
-17.5034
 11
159.738
 21
-17.4897
  0
LINE
  8
0
 10
-160.247
 20
-62.1896
 11
-160.49
 21
-62.1482
  0
LINE
  8
0
 10
-160.49
 20
-62.1482
 11
-160.728
 21
-62.0798
  0
LINE
  8
0
 10
-160.728
 20
-62.0798
 11
-160.956
 21
-61.9853
  0
LINE
  8
0
 10
-160.956
 20
-61.9853
 11
-161.172
 21
-61.8657
  0
LINE
  8
0
 10
-161.172
 20
-61.8657
 11
-161.374
 21
-61.7227
  0
LINE
  8
0
 10
-161.374
 20
-61.7227
 11
-161.558
 21
-61.5581
  0
LINE
  8
0
 10
-161.558
 20
-61.5581
 11
-161.723
 21
-61.3738
  0
LINE
  8
0
 10
-161.723
 20
-61.3738
 11
-161.866
 21
-61.1723
  0
LINE
  8
0
 10
-161.866
 20
-61.1723
 11
-161.985
 21
-60.9561
  0
LINE
  8
0
 10
-161.985
 20
-60.9561
 11
-162.08
 21
-60.7278
  0
LINE
  8
0
 10
-162.08
 20
-60.7278
 11
-162.148
 21
-60.4903
  0
LINE
  8
0
 10
-162.148
 20
-60.4903
 11
-162.19
 21
-60.2467
  0
LINE
  8
0
 10
-162.19
 20
-60.2467
 11
-162.203
 21
-60
  0
LINE
  8
0
 10
-162.203
 20
-60
 11
-162.19
 21
-59.7533
  0
LINE
  8
0
 10
-162.19
 20
-59.7533
 11
-162.148
 21
-59.5097
  0
LINE
  8
0
 10
-162.148
 20
-59.5097
 11
-162.08
 21
-59.2722
  0
LINE
  8
0
 10
-162.08
 20
-59.2722
 11
-161.985
 21
-59.044
  0
LINE
  8
0
 10
-161.985
 20
-59.044
 11
-161.866
 21
-58.8277
  0
LINE
  8
0
 10
-161.866
 20
-58.8277
 11
-161.723
 21
-58.6262
  0
LINE
  8
0
 10
-161.723
 20
-58.6262
 11
-161.558
 21
-58.4419
  0
LINE
  8
0
 10
-161.558
 20
-58.4419
 11
-161.374
 21
-58.2773
  0
LINE
  8
0
 10
-161.374
 20
-58.2773
 11
-161.172
 21
-58.1343
  0
LINE
  8
0
 10
-161.172
 20
-58.1343
 11
-160.956
 21
-58.0148
  0
LINE
  8
0
 10
-160.956
 20
-58.0148
 11
-160.728
 21
-57.9202
  0
LINE
  8
0
 10
-160.728
 20
-57.9202
 11
-160.49
 21
-57.8518
  0
LINE
  8
0
 10
-160.49
 20
-57.8518
 11
-160.247
 21
-57.8104
  0
LINE
  8
0
 10
-160.247
 20
-57.8104
 11
-160
 21
-57.7965
  0
LINE
  8
0
 10
-160
 20
-57.7965
 11
-159.753
 21
-57.8104
  0
LINE
  8
0
 10
-159.753
 20
-57.8104
 11
-159.51
 21
-57.8518
  0
LINE
  8
0
 10
-159.51
 20
-57.8518
 11
-159.272
 21
-57.9202
  0
LINE
  8
0
 10
-159.272
 20
-57.9202
 11
-159.044
 21
-58.0148
  0
LINE
  8
0
 10
-159.044
 20
-58.0148
 11
-158.828
 21
-58.1343
  0
LINE
  8
0
 10
-158.828
 20
-58.1343
 11
-158.626
 21
-58.2773
  0
LINE
  8
0
 10
-158.626
 20
-58.2773
 11
-158.442
 21
-58.4419
  0
LINE
  8
0
 10
-158.442
 20
-58.4419
 11
-158.277
 21
-58.6262
  0
LINE
  8
0
 10
-158.277
 20
-58.6262
 11
-158.134
 21
-58.8277
  0
LINE
  8
0
 10
-158.134
 20
-58.8277
 11
-158.015
 21
-59.044
  0
LINE
  8
0
 10
-158.015
 20
-59.044
 11
-157.92
 21
-59.2722
  0
LINE
  8
0
 10
-157.92
 20
-59.2722
 11
-157.852
 21
-59.5097
  0
LINE
  8
0
 10
-157.852
 20
-59.5097
 11
-157.81
 21
-59.7533
  0
LINE
  8
0
 10
-157.81
 20
-59.7533
 11
-157.797
 21
-60
  0
LINE
  8
0
 10
-157.797
 20
-60
 11
-157.81
 21
-60.2467
  0
LINE
  8
0
 10
-157.81
 20
-60.2467
 11
-157.852
 21
-60.4903
  0
LINE
  8
0
 10
-157.852
 20
-60.4903
 11
-157.92
 21
-60.7278
  0
LINE
  8
0
 10
-157.92
 20
-60.7278
 11
-158.015
 21
-60.9561
  0
LINE
  8
0
 10
-158.015
 20
-60.9561
 11
-158.134
 21
-61.1723
  0
LINE
  8
0
 10
-158.134
 20
-61.1723
 11
-158.277
 21
-61.3738
  0
LINE
  8
0
 10
-158.277
 20
-61.3738
 11
-158.442
 21
-61.5581
  0
LINE
  8
0
 10
-158.442
 20
-61.5581
 11
-158.626
 21
-61.7227
  0
LINE
  8
0
 10
-158.626
 20
-61.7227
 11
-158.828
 21
-61.8657
  0
LINE
  8
0
 10
-158.828
 20
-61.8657
 11
-159.044
 21
-61.9853
  0
LINE
  8
0
 10
-159.044
 20
-61.9853
 11
-159.272
 21
-62.0798
  0
LINE
  8
0
 10
-159.272
 20
-62.0798
 11
-159.51
 21
-62.1482
  0
LINE
  8
0
 10
-159.51
 20
-62.1482
 11
-159.753
 21
-62.1896
  0
LINE
  8
0
 10
-159.753
 20
-62.1896
 11
-160
 21
-62.2035
  0
LINE
  8
0
 10
-160
 20
-62.2035
 11
-160.247
 21
-62.1896
  0
LINE
  8
0
 10
159.753
 20
-62.1896
 11
159.51
 21
-62.1482
  0
LINE
  8
0
 10
159.51
 20
-62.1482
 11
159.272
 21
-62.0798
  0
LINE
  8
0
 10
159.272
 20
-62.0798
 11
159.044
 21
-61.9853
  0
LINE
  8
0
 10
159.044
 20
-61.9853
 11
158.828
 21
-61.8657
  0
LINE
  8
0
 10
158.828
 20
-61.8657
 11
158.626
 21
-61.7227
  0
LINE
  8
0
 10
158.626
 20
-61.7227
 11
158.442
 21
-61.5581
  0
LINE
  8
0
 10
158.442
 20
-61.5581
 11
158.277
 21
-61.3738
  0
LINE
  8
0
 10
158.277
 20
-61.3738
 11
158.134
 21
-61.1723
  0
LINE
  8
0
 10
158.134
 20
-61.1723
 11
158.015
 21
-60.9561
  0
LINE
  8
0
 10
158.015
 20
-60.9561
 11
157.92
 21
-60.7278
  0
LINE
  8
0
 10
157.92
 20
-60.7278
 11
157.852
 21
-60.4903
  0
LINE
  8
0
 10
157.852
 20
-60.4903
 11
157.81
 21
-60.2467
  0
LINE
  8
0
 10
157.81
 20
-60.2467
 11
157.797
 21
-60
  0
LINE
  8
0
 10
157.797
 20
-60
 11
157.81
 21
-59.7533
  0
LINE
  8
0
 10
157.81
 20
-59.7533
 11
157.852
 21
-59.5097
  0
LINE
  8
0
 10
157.852
 20
-59.5097
 11
157.92
 21
-59.2722
  0
LINE
  8
0
 10
157.92
 20
-59.2722
 11
158.015
 21
-59.044
  0
LINE
  8
0
 10
158.015
 20
-59.044
 11
158.134
 21
-58.8277
  0
LINE
  8
0
 10
158.134
 20
-58.8277
 11
158.277
 21
-58.6262
  0
LINE
  8
0
 10
158.277
 20
-58.6262
 11
158.442
 21
-58.4419
  0
LINE
  8
0
 10
158.442
 20
-58.4419
 11
158.626
 21
-58.2773
  0
LINE
  8
0
 10
158.626
 20
-58.2773
 11
158.828
 21
-58.1343
  0
LINE
  8
0
 10
158.828
 20
-58.1343
 11
159.044
 21
-58.0148
  0
LINE
  8
0
 10
159.044
 20
-58.0148
 11
159.272
 21
-57.9202
  0
LINE
  8
0
 10
159.272
 20
-57.9202
 11
159.51
 21
-57.8518
  0
LINE
  8
0
 10
159.51
 20
-57.8518
 11
159.753
 21
-57.8104
  0
LINE
  8
0
 10
159.753
 20
-57.8104
 11
160
 21
-57.7965
  0
LINE
  8
0
 10
160
 20
-57.7965
 11
160.247
 21
-57.8104
  0
LINE
  8
0
 10
160.247
 20
-57.8104
 11
160.49
 21
-57.8518
  0
LINE
  8
0
 10
160.49
 20
-57.8518
 11
160.728
 21
-57.9202
  0
LINE
  8
0
 10
160.728
 20
-57.9202
 11
160.956
 21
-58.0148
  0
LINE
  8
0
 10
160.956
 20
-58.0148
 11
161.172
 21
-58.1343
  0
LINE
  8
0
 10
161.172
 20
-58.1343
 11
161.374
 21
-58.2773
  0
LINE
  8
0
 10
161.374
 20
-58.2773
 11
161.558
 21
-58.4419
  0
LINE
  8
0
 10
161.558
 20
-58.4419
 11
161.723
 21
-58.6262
  0
LINE
  8
0
 10
161.723
 20
-58.6262
 11
161.866
 21
-58.8277
  0
LINE
  8
0
 10
161.866
 20
-58.8277
 11
161.985
 21
-59.044
  0
LINE
  8
0
 10
161.985
 20
-59.044
 11
162.08
 21
-59.2722
  0
LINE
  8
0
 10
162.08
 20
-59.2722
 11
162.148
 21
-59.5097
  0
LINE
  8
0
 10
162.148
 20
-59.5097
 11
162.19
 21
-59.7533
  0
LINE
  8
0
 10
162.19
 20
-59.7533
 11
162.203
 21
-60
  0
LINE
  8
0
 10
162.203
 20
-60
 11
162.19
 21
-60.2467
  0
LINE
  8
0
 10
162.19
 20
-60.2467
 11
162.148
 21
-60.4903
  0
LINE
  8
0
 10
162.148
 20
-60.4903
 11
162.08
 21
-60.7278
  0
LINE
  8
0
 10
162.08
 20
-60.7278
 11
161.985
 21
-60.9561
  0
LINE
  8
0
 10
161.985
 20
-60.9561
 11
161.866
 21
-61.1723
  0
LINE
  8
0
 10
161.866
 20
-61.1723
 11
161.723
 21
-61.3738
  0
LINE
  8
0
 10
161.723
 20
-61.3738
 11
161.558
 21
-61.5581
  0
LINE
  8
0
 10
161.558
 20
-61.5581
 11
161.374
 21
-61.7227
  0
LINE
  8
0
 10
161.374
 20
-61.7227
 11
161.172
 21
-61.8657
  0
LINE
  8
0
 10
161.172
 20
-61.8657
 11
160.956
 21
-61.9853
  0
LINE
  8
0
 10
160.956
 20
-61.9853
 11
160.728
 21
-62.0798
  0
LINE
  8
0
 10
160.728
 20
-62.0798
 11
160.49
 21
-62.1482
  0
LINE
  8
0
 10
160.49
 20
-62.1482
 11
160.247
 21
-62.1896
  0
LINE
  8
0
 10
160.247
 20
-62.1896
 11
160
 21
-62.2035
  0
LINE
  8
0
 10
160
 20
-62.2035
 11
159.753
 21
-62.1896
  0
LINE
  8
0
 10
68.7534
 20
-97.6361
 11
68.5123
 21
-97.5811
  0
LINE
  8
0
 10
68.5123
 20
-97.5811
 11
68.2821
 21
-97.4908
  0
LINE
  8
0
 10
68.2821
 20
-97.4908
 11
68.0679
 21
-97.3671
  0
LINE
  8
0
 10
68.0679
 20
-97.3671
 11
67.8746
 21
-97.2129
  0
LINE
  8
0
 10
67.8746
 20
-97.2129
 11
67.7064
 21
-97.0316
  0
LINE
  8
0
 10
67.7064
 20
-97.0316
 11
67.5671
 21
-96.8273
  0
LINE
  8
0
 10
67.5671
 20
-96.8273
 11
67.4598
 21
-96.6045
  0
LINE
  8
0
 10
67.4598
 20
-96.6045
 11
67.3869
 21
-96.3682
  0
LINE
  8
0
 10
67.3869
 20
-96.3682
 11
67.35
 21
-96.1236
  0
LINE
  8
0
 10
67.35
 20
-96.1236
 11
67.35
 21
-95.8763
  0
LINE
  8
0
 10
67.35
 20
-95.8763
 11
67.3869
 21
-95.6318
  0
LINE
  8
0
 10
67.3869
 20
-95.6318
 11
67.4598
 21
-95.3955
  0
LINE
  8
0
 10
67.4598
 20
-95.3955
 11
67.5671
 21
-95.1727
  0
LINE
  8
0
 10
67.5671
 20
-95.1727
 11
67.7064
 21
-94.9684
  0
LINE
  8
0
 10
67.7064
 20
-94.9684
 11
67.8746
 21
-94.7871
  0
LINE
  8
0
 10
67.8746
 20
-94.7871
 11
68.0679
 21
-94.6329
  0
LINE
  8
0
 10
68.0679
 20
-94.6329
 11
68.2821
 21
-94.5092
  0
LINE
  8
0
 10
68.2821
 20
-94.5092
 11
68.5123
 21
-94.4189
  0
LINE
  8
0
 10
68.5123
 20
-94.4189
 11
68.7534
 21
-94.3638
  0
LINE
  8
0
 10
68.7534
 20
-94.3638
 11
69
 21
-94.3454
  0
LINE
  8
0
 10
69
 20
-94.3454
 11
69.2466
 21
-94.3638
  0
LINE
  8
0
 10
69.2466
 20
-94.3638
 11
69.4877
 21
-94.4189
  0
LINE
  8
0
 10
69.4877
 20
-94.4189
 11
69.7179
 21
-94.5092
  0
LINE
  8
0
 10
69.7179
 20
-94.5092
 11
69.9321
 21
-94.6329
  0
LINE
  8
0
 10
69.9321
 20
-94.6329
 11
70.1254
 21
-94.7871
  0
LINE
  8
0
 10
70.1254
 20
-94.7871
 11
70.2936
 21
-94.9684
  0
LINE
  8
0
 10
70.2936
 20
-94.9684
 11
70.433
 21
-95.1727
  0
LINE
  8
0
 10
70.433
 20
-95.1727
 11
70.5403
 21
-95.3955
  0
LINE
  8
0
 10
70.5403
 20
-95.3955
 11
70.6131
 21
-95.6318
  0
LINE
  8
0
 10
70.6131
 20
-95.6318
 11
70.65
 21
-95.8763
  0
LINE
  8
0
 10
70.65
 20
-95.8763
 11
70.65
 21
-96.1236
  0
LINE
  8
0
 10
70.65
 20
-96.1236
 11
70.6131
 21
-96.3682
  0
LINE
  8
0
 10
70.6131
 20
-96.3682
 11
70.5403
 21
-96.6045
  0
LINE
  8
0
 10
70.5403
 20
-96.6045
 11
70.433
 21
-96.8273
  0
LINE
  8
0
 10
70.433
 20
-96.8273
 11
70.2936
 21
-97.0316
  0
LINE
  8
0
 10
70.2936
 20
-97.0316
 11
70.1254
 21
-97.2129
  0
LINE
  8
0
 10
70.1254
 20
-97.2129
 11
69.9321
 21
-97.3671
  0
LINE
  8
0
 10
69.9321
 20
-97.3671
 11
69.7179
 21
-97.4908
  0
LINE
  8
0
 10
69.7179
 20
-97.4908
 11
69.4877
 21
-97.5811
  0
LINE
  8
0
 10
69.4877
 20
-97.5811
 11
69.2466
 21
-97.6361
  0
LINE
  8
0
 10
69.2466
 20
-97.6361
 11
69
 21
-97.6546
  0
LINE
  8
0
 10
69
 20
-97.6546
 11
68.7534
 21
-97.6361
  0
LINE
  8
0
 10
145.753
 20
-97.6361
 11
145.512
 21
-97.5811
  0
LINE
  8
0
 10
145.512
 20
-97.5811
 11
145.282
 21
-97.4908
  0
LINE
  8
0
 10
145.282
 20
-97.4908
 11
145.068
 21
-97.3671
  0
LINE
  8
0
 10
145.068
 20
-97.3671
 11
144.875
 21
-97.2129
  0
LINE
  8
0
 10
144.875
 20
-97.2129
 11
144.706
 21
-97.0316
  0
LINE
  8
0
 10
144.706
 20
-97.0316
 11
144.567
 21
-96.8273
  0
LINE
  8
0
 10
144.567
 20
-96.8273
 11
144.46
 21
-96.6045
  0
LINE
  8
0
 10
144.46
 20
-96.6045
 11
144.387
 21
-96.3682
  0
LINE
  8
0
 10
144.387
 20
-96.3682
 11
144.35
 21
-96.1236
  0
LINE
  8
0
 10
144.35
 20
-96.1236
 11
144.35
 21
-95.8763
  0
LINE
  8
0
 10
144.35
 20
-95.8763
 11
144.387
 21
-95.6318
  0
LINE
  8
0
 10
144.387
 20
-95.6318
 11
144.46
 21
-95.3955
  0
LINE
  8
0
 10
144.46
 20
-95.3955
 11
144.567
 21
-95.1727
  0
LINE
  8
0
 10
144.567
 20
-95.1727
 11
144.706
 21
-94.9684
  0
LINE
  8
0
 10
144.706
 20
-94.9684
 11
144.875
 21
-94.7871
  0
LINE
  8
0
 10
144.875
 20
-94.7871
 11
145.068
 21
-94.6329
  0
LINE
  8
0
 10
145.068
 20
-94.6329
 11
145.282
 21
-94.5092
  0
LINE
  8
0
 10
145.282
 20
-94.5092
 11
145.512
 21
-94.4189
  0
LINE
  8
0
 10
145.512
 20
-94.4189
 11
145.753
 21
-94.3638
  0
LINE
  8
0
 10
145.753
 20
-94.3638
 11
146
 21
-94.3454
  0
LINE
  8
0
 10
146
 20
-94.3454
 11
146.247
 21
-94.3638
  0
LINE
  8
0
 10
146.247
 20
-94.3638
 11
146.488
 21
-94.4189
  0
LINE
  8
0
 10
146.488
 20
-94.4189
 11
146.718
 21
-94.5092
  0
LINE
  8
0
 10
146.718
 20
-94.5092
 11
146.932
 21
-94.6329
  0
LINE
  8
0
 10
146.932
 20
-94.6329
 11
147.125
 21
-94.7871
  0
LINE
  8
0
 10
147.125
 20
-94.7871
 11
147.294
 21
-94.9684
  0
LINE
  8
0
 10
147.294
 20
-94.9684
 11
147.433
 21
-95.1727
  0
LINE
  8
0
 10
147.433
 20
-95.1727
 11
147.54
 21
-95.3955
  0
LINE
  8
0
 10
147.54
 20
-95.3955
 11
147.613
 21
-95.6318
  0
LINE
  8
0
 10
147.613
 20
-95.6318
 11
147.65
 21
-95.8763
  0
LINE
  8
0
 10
147.65
 20
-95.8763
 11
147.65
 21
-96.1236
  0
LINE
  8
0
 10
147.65
 20
-96.1236
 11
147.613
 21
-96.3682
  0
LINE
  8
0
 10
147.613
 20
-96.3682
 11
147.54
 21
-96.6045
  0
LINE
  8
0
 10
147.54
 20
-96.6045
 11
147.433
 21
-96.8273
  0
LINE
  8
0
 10
147.433
 20
-96.8273
 11
147.294
 21
-97.0316
  0
LINE
  8
0
 10
147.294
 20
-97.0316
 11
147.125
 21
-97.2129
  0
LINE
  8
0
 10
147.125
 20
-97.2129
 11
146.932
 21
-97.3671
  0
LINE
  8
0
 10
146.932
 20
-97.3671
 11
146.718
 21
-97.4908
  0
LINE
  8
0
 10
146.718
 20
-97.4908
 11
146.488
 21
-97.5811
  0
LINE
  8
0
 10
146.488
 20
-97.5811
 11
146.247
 21
-97.6361
  0
LINE
  8
0
 10
146.247
 20
-97.6361
 11
146
 21
-97.6546
  0
LINE
  8
0
 10
146
 20
-97.6546
 11
145.753
 21
-97.6361
  0
LINE
  8
0
 10
-114.747
 20
-114.69
 11
-114.99
 21
-114.648
  0
LINE
  8
0
 10
-114.99
 20
-114.648
 11
-115.228
 21
-114.58
  0
LINE
  8
0
 10
-115.228
 20
-114.58
 11
-115.456
 21
-114.485
  0
LINE
  8
0
 10
-115.456
 20
-114.485
 11
-115.672
 21
-114.366
  0
LINE
  8
0
 10
-115.672
 20
-114.366
 11
-115.874
 21
-114.223
  0
LINE
  8
0
 10
-115.874
 20
-114.223
 11
-116.058
 21
-114.058
  0
LINE
  8
0
 10
-116.058
 20
-114.058
 11
-116.223
 21
-113.874
  0
LINE
  8
0
 10
-116.223
 20
-113.874
 11
-116.366
 21
-113.672
  0
LINE
  8
0
 10
-116.366
 20
-113.672
 11
-116.485
 21
-113.456
  0
LINE
  8
0
 10
-116.485
 20
-113.456
 11
-116.58
 21
-113.228
  0
LINE
  8
0
 10
-116.58
 20
-113.228
 11
-116.648
 21
-112.99
  0
LINE
  8
0
 10
-116.648
 20
-112.99
 11
-116.69
 21
-112.747
  0
LINE
  8
0
 10
-116.69
 20
-112.747
 11
-116.703
 21
-112.5
  0
LINE
  8
0
 10
-116.703
 20
-112.5
 11
-116.69
 21
-112.253
  0
LINE
  8
0
 10
-116.69
 20
-112.253
 11
-116.648
 21
-112.01
  0
LINE
  8
0
 10
-116.648
 20
-112.01
 11
-116.58
 21
-111.772
  0
LINE
  8
0
 10
-116.58
 20
-111.772
 11
-116.485
 21
-111.544
  0
LINE
  8
0
 10
-116.485
 20
-111.544
 11
-116.366
 21
-111.328
  0
LINE
  8
0
 10
-116.366
 20
-111.328
 11
-116.223
 21
-111.126
  0
LINE
  8
0
 10
-116.223
 20
-111.126
 11
-116.058
 21
-110.942
  0
LINE
  8
0
 10
-116.058
 20
-110.942
 11
-115.874
 21
-110.777
  0
LINE
  8
0
 10
-115.874
 20
-110.777
 11
-115.672
 21
-110.634
  0
LINE
  8
0
 10
-115.672
 20
-110.634
 11
-115.456
 21
-110.515
  0
LINE
  8
0
 10
-115.456
 20
-110.515
 11
-115.228
 21
-110.42
  0
LINE
  8
0
 10
-115.228
 20
-110.42
 11
-114.99
 21
-110.352
  0
LINE
  8
0
 10
-114.99
 20
-110.352
 11
-114.747
 21
-110.31
  0
LINE
  8
0
 10
-114.747
 20
-110.31
 11
-114.5
 21
-110.297
  0
LINE
  8
0
 10
-114.5
 20
-110.297
 11
-114.253
 21
-110.31
  0
LINE
  8
0
 10
-114.253
 20
-110.31
 11
-114.01
 21
-110.352
  0
LINE
  8
0
 10
-114.01
 20
-110.352
 11
-113.772
 21
-110.42
  0
LINE
  8
0
 10
-113.772
 20
-110.42
 11
-113.544
 21
-110.515
  0
LINE
  8
0
 10
-113.544
 20
-110.515
 11
-113.328
 21
-110.634
  0
LINE
  8
0
 10
-113.328
 20
-110.634
 11
-113.126
 21
-110.777
  0
LINE
  8
0
 10
-113.126
 20
-110.777
 11
-112.942
 21
-110.942
  0
LINE
  8
0
 10
-112.942
 20
-110.942
 11
-112.777
 21
-111.126
  0
LINE
  8
0
 10
-112.777
 20
-111.126
 11
-112.634
 21
-111.328
  0
LINE
  8
0
 10
-112.634
 20
-111.328
 11
-112.515
 21
-111.544
  0
LINE
  8
0
 10
-112.515
 20
-111.544
 11
-112.42
 21
-111.772
  0
LINE
  8
0
 10
-112.42
 20
-111.772
 11
-112.352
 21
-112.01
  0
LINE
  8
0
 10
-112.352
 20
-112.01
 11
-112.31
 21
-112.253
  0
LINE
  8
0
 10
-112.31
 20
-112.253
 11
-112.297
 21
-112.5
  0
LINE
  8
0
 10
-112.297
 20
-112.5
 11
-112.31
 21
-112.747
  0
LINE
  8
0
 10
-112.31
 20
-112.747
 11
-112.352
 21
-112.99
  0
LINE
  8
0
 10
-112.352
 20
-112.99
 11
-112.42
 21
-113.228
  0
LINE
  8
0
 10
-112.42
 20
-113.228
 11
-112.515
 21
-113.456
  0
LINE
  8
0
 10
-112.515
 20
-113.456
 11
-112.634
 21
-113.672
  0
LINE
  8
0
 10
-112.634
 20
-113.672
 11
-112.777
 21
-113.874
  0
LINE
  8
0
 10
-112.777
 20
-113.874
 11
-112.942
 21
-114.058
  0
LINE
  8
0
 10
-112.942
 20
-114.058
 11
-113.126
 21
-114.223
  0
LINE
  8
0
 10
-113.126
 20
-114.223
 11
-113.328
 21
-114.366
  0
LINE
  8
0
 10
-113.328
 20
-114.366
 11
-113.544
 21
-114.485
  0
LINE
  8
0
 10
-113.544
 20
-114.485
 11
-113.772
 21
-114.58
  0
LINE
  8
0
 10
-113.772
 20
-114.58
 11
-114.01
 21
-114.648
  0
LINE
  8
0
 10
-114.01
 20
-114.648
 11
-114.253
 21
-114.69
  0
LINE
  8
0
 10
-114.253
 20
-114.69
 11
-114.5
 21
-114.703
  0
LINE
  8
0
 10
-114.5
 20
-114.703
 11
-114.747
 21
-114.69
  0
LINE
  8
0
 10
-64.7467
 20
-114.69
 11
-64.9903
 21
-114.648
  0
LINE
  8
0
 10
-64.9903
 20
-114.648
 11
-65.2278
 21
-114.58
  0
LINE
  8
0
 10
-65.2278
 20
-114.58
 11
-65.4561
 21
-114.485
  0
LINE
  8
0
 10
-65.4561
 20
-114.485
 11
-65.6723
 21
-114.366
  0
LINE
  8
0
 10
-65.6723
 20
-114.366
 11
-65.8738
 21
-114.223
  0
LINE
  8
0
 10
-65.8738
 20
-114.223
 11
-66.0581
 21
-114.058
  0
LINE
  8
0
 10
-66.0581
 20
-114.058
 11
-66.2227
 21
-113.874
  0
LINE
  8
0
 10
-66.2227
 20
-113.874
 11
-66.3657
 21
-113.672
  0
LINE
  8
0
 10
-66.3657
 20
-113.672
 11
-66.4853
 21
-113.456
  0
LINE
  8
0
 10
-66.4853
 20
-113.456
 11
-66.5798
 21
-113.228
  0
LINE
  8
0
 10
-66.5798
 20
-113.228
 11
-66.6482
 21
-112.99
  0
LINE
  8
0
 10
-66.6482
 20
-112.99
 11
-66.6896
 21
-112.747
  0
LINE
  8
0
 10
-66.6896
 20
-112.747
 11
-66.7035
 21
-112.5
  0
LINE
  8
0
 10
-66.7035
 20
-112.5
 11
-66.6896
 21
-112.253
  0
LINE
  8
0
 10
-66.6896
 20
-112.253
 11
-66.6482
 21
-112.01
  0
LINE
  8
0
 10
-66.6482
 20
-112.01
 11
-66.5798
 21
-111.772
  0
LINE
  8
0
 10
-66.5798
 20
-111.772
 11
-66.4853
 21
-111.544
  0
LINE
  8
0
 10
-66.4853
 20
-111.544
 11
-66.3657
 21
-111.328
  0
LINE
  8
0
 10
-66.3657
 20
-111.328
 11
-66.2227
 21
-111.126
  0
LINE
  8
0
 10
-66.2227
 20
-111.126
 11
-66.0581
 21
-110.942
  0
LINE
  8
0
 10
-66.0581
 20
-110.942
 11
-65.8738
 21
-110.777
  0
LINE
  8
0
 10
-65.8738
 20
-110.777
 11
-65.6723
 21
-110.634
  0
LINE
  8
0
 10
-65.6723
 20
-110.634
 11
-65.4561
 21
-110.515
  0
LINE
  8
0
 10
-65.4561
 20
-110.515
 11
-65.2278
 21
-110.42
  0
LINE
  8
0
 10
-65.2278
 20
-110.42
 11
-64.9903
 21
-110.352
  0
LINE
  8
0
 10
-64.9903
 20
-110.352
 11
-64.7467
 21
-110.31
  0
LINE
  8
0
 10
-64.7467
 20
-110.31
 11
-64.5
 21
-110.297
  0
LINE
  8
0
 10
-64.5
 20
-110.297
 11
-64.2533
 21
-110.31
  0
LINE
  8
0
 10
-64.2533
 20
-110.31
 11
-64.0097
 21
-110.352
  0
LINE
  8
0
 10
-64.0097
 20
-110.352
 11
-63.7722
 21
-110.42
  0
LINE
  8
0
 10
-63.7722
 20
-110.42
 11
-63.544
 21
-110.515
  0
LINE
  8
0
 10
-63.544
 20
-110.515
 11
-63.3277
 21
-110.634
  0
LINE
  8
0
 10
-63.3277
 20
-110.634
 11
-63.1262
 21
-110.777
  0
LINE
  8
0
 10
-63.1262
 20
-110.777
 11
-62.9419
 21
-110.942
  0
LINE
  8
0
 10
-62.9419
 20
-110.942
 11
-62.7773
 21
-111.126
  0
LINE
  8
0
 10
-62.7773
 20
-111.126
 11
-62.6343
 21
-111.328
  0
LINE
  8
0
 10
-62.6343
 20
-111.328
 11
-62.5148
 21
-111.544
  0
LINE
  8
0
 10
-62.5148
 20
-111.544
 11
-62.4202
 21
-111.772
  0
LINE
  8
0
 10
-62.4202
 20
-111.772
 11
-62.3518
 21
-112.01
  0
LINE
  8
0
 10
-62.3518
 20
-112.01
 11
-62.3104
 21
-112.253
  0
LINE
  8
0
 10
-62.3104
 20
-112.253
 11
-62.2965
 21
-112.5
  0
LINE
  8
0
 10
-62.2965
 20
-112.5
 11
-62.3104
 21
-112.747
  0
LINE
  8
0
 10
-62.3104
 20
-112.747
 11
-62.3518
 21
-112.99
  0
LINE
  8
0
 10
-62.3518
 20
-112.99
 11
-62.4202
 21
-113.228
  0
LINE
  8
0
 10
-62.4202
 20
-113.228
 11
-62.5148
 21
-113.456
  0
LINE
  8
0
 10
-62.5148
 20
-113.456
 11
-62.6343
 21
-113.672
  0
LINE
  8
0
 10
-62.6343
 20
-113.672
 11
-62.7773
 21
-113.874
  0
LINE
  8
0
 10
-62.7773
 20
-113.874
 11
-62.9419
 21
-114.058
  0
LINE
  8
0
 10
-62.9419
 20
-114.058
 11
-63.1262
 21
-114.223
  0
LINE
  8
0
 10
-63.1262
 20
-114.223
 11
-63.3277
 21
-114.366
  0
LINE
  8
0
 10
-63.3277
 20
-114.366
 11
-63.544
 21
-114.485
  0
LINE
  8
0
 10
-63.544
 20
-114.485
 11
-63.7722
 21
-114.58
  0
LINE
  8
0
 10
-63.7722
 20
-114.58
 11
-64.0097
 21
-114.648
  0
LINE
  8
0
 10
-64.0097
 20
-114.648
 11
-64.2533
 21
-114.69
  0
LINE
  8
0
 10
-64.2533
 20
-114.69
 11
-64.5
 21
-114.703
  0
LINE
  8
0
 10
-64.5
 20
-114.703
 11
-64.7467
 21
-114.69
  0
LINE
  8
0
 10
159.738
 20
-172.49
 11
159.48
 21
-172.449
  0
LINE
  8
0
 10
159.48
 20
-172.449
 11
159.226
 21
-172.381
  0
LINE
  8
0
 10
159.226
 20
-172.381
 11
158.982
 21
-172.287
  0
LINE
  8
0
 10
158.982
 20
-172.287
 11
158.748
 21
-172.168
  0
LINE
  8
0
 10
158.748
 20
-172.168
 11
158.529
 21
-172.025
  0
LINE
  8
0
 10
158.529
 20
-172.025
 11
158.325
 21
-171.86
  0
LINE
  8
0
 10
158.325
 20
-171.86
 11
158.14
 21
-171.675
  0
LINE
  8
0
 10
158.14
 20
-171.675
 11
157.975
 21
-171.471
  0
LINE
  8
0
 10
157.975
 20
-171.471
 11
157.832
 21
-171.252
  0
LINE
  8
0
 10
157.832
 20
-171.252
 11
157.713
 21
-171.018
  0
LINE
  8
0
 10
157.713
 20
-171.018
 11
157.619
 21
-170.774
  0
LINE
  8
0
 10
157.619
 20
-170.774
 11
157.551
 21
-170.52
  0
LINE
  8
0
 10
157.551
 20
-170.52
 11
157.51
 21
-170.262
  0
LINE
  8
0
 10
157.51
 20
-170.262
 11
157.497
 21
-170
  0
LINE
  8
0
 10
157.497
 20
-170
 11
157.51
 21
-169.738
  0
LINE
  8
0
 10
157.51
 20
-169.738
 11
157.551
 21
-169.48
  0
LINE
  8
0
 10
157.551
 20
-169.48
 11
157.619
 21
-169.226
  0
LINE
  8
0
 10
157.619
 20
-169.226
 11
157.713
 21
-168.982
  0
LINE
  8
0
 10
157.713
 20
-168.982
 11
157.832
 21
-168.748
  0
LINE
  8
0
 10
157.832
 20
-168.748
 11
157.975
 21
-168.529
  0
LINE
  8
0
 10
157.975
 20
-168.529
 11
158.14
 21
-168.325
  0
LINE
  8
0
 10
158.14
 20
-168.325
 11
158.325
 21
-168.14
  0
LINE
  8
0
 10
158.325
 20
-168.14
 11
158.529
 21
-167.975
  0
LINE
  8
0
 10
158.529
 20
-167.975
 11
158.748
 21
-167.832
  0
LINE
  8
0
 10
158.748
 20
-167.832
 11
158.982
 21
-167.713
  0
LINE
  8
0
 10
158.982
 20
-167.713
 11
159.226
 21
-167.619
  0
LINE
  8
0
 10
159.226
 20
-167.619
 11
159.48
 21
-167.551
  0
LINE
  8
0
 10
159.48
 20
-167.551
 11
159.738
 21
-167.51
  0
LINE
  8
0
 10
159.738
 20
-167.51
 11
160
 21
-167.497
  0
LINE
  8
0
 10
160
 20
-167.497
 11
160.262
 21
-167.51
  0
LINE
  8
0
 10
160.262
 20
-167.51
 11
160.52
 21
-167.551
  0
LINE
  8
0
 10
160.52
 20
-167.551
 11
160.774
 21
-167.619
  0
LINE
  8
0
 10
160.774
 20
-167.619
 11
161.018
 21
-167.713
  0
LINE
  8
0
 10
161.018
 20
-167.713
 11
161.252
 21
-167.832
  0
LINE
  8
0
 10
161.252
 20
-167.832
 11
161.471
 21
-167.975
  0
LINE
  8
0
 10
161.471
 20
-167.975
 11
161.675
 21
-168.14
  0
LINE
  8
0
 10
161.675
 20
-168.14
 11
161.86
 21
-168.325
  0
LINE
  8
0
 10
161.86
 20
-168.325
 11
162.025
 21
-168.529
  0
LINE
  8
0
 10
162.025
 20
-168.529
 11
162.168
 21
-168.748
  0
LINE
  8
0
 10
162.168
 20
-168.748
 11
162.287
 21
-168.982
  0
LINE
  8
0
 10
162.287
 20
-168.982
 11
162.381
 21
-169.226
  0
LINE
  8
0
 10
162.381
 20
-169.226
 11
162.449
 21
-169.48
  0
LINE
  8
0
 10
162.449
 20
-169.48
 11
162.49
 21
-169.738
  0
LINE
  8
0
 10
162.49
 20
-169.738
 11
162.503
 21
-170
  0
LINE
  8
0
 10
162.503
 20
-170
 11
162.49
 21
-170.262
  0
LINE
  8
0
 10
162.49
 20
-170.262
 11
162.449
 21
-170.52
  0
LINE
  8
0
 10
162.449
 20
-170.52
 11
162.381
 21
-170.774
  0
LINE
  8
0
 10
162.381
 20
-170.774
 11
162.287
 21
-171.018
  0
LINE
  8
0
 10
162.287
 20
-171.018
 11
162.168
 21
-171.252
  0
LINE
  8
0
 10
162.168
 20
-171.252
 11
162.025
 21
-171.471
  0
LINE
  8
0
 10
162.025
 20
-171.471
 11
161.86
 21
-171.675
  0
LINE
  8
0
 10
161.86
 20
-171.675
 11
161.675
 21
-171.86
  0
LINE
  8
0
 10
161.675
 20
-171.86
 11
161.471
 21
-172.025
  0
LINE
  8
0
 10
161.471
 20
-172.025
 11
161.252
 21
-172.168
  0
LINE
  8
0
 10
161.252
 20
-172.168
 11
161.018
 21
-172.287
  0
LINE
  8
0
 10
161.018
 20
-172.287
 11
160.774
 21
-172.381
  0
LINE
  8
0
 10
160.774
 20
-172.381
 11
160.52
 21
-172.449
  0
LINE
  8
0
 10
160.52
 20
-172.449
 11
160.262
 21
-172.49
  0
LINE
  8
0
 10
160.262
 20
-172.49
 11
160
 21
-172.503
  0
LINE
  8
0
 10
160
 20
-172.503
 11
159.738
 21
-172.49
  0
LINE
  8
0
 10
-160.262
 20
-172.49
 11
-160.52
 21
-172.449
  0
LINE
  8
0
 10
-160.52
 20
-172.449
 11
-160.774
 21
-172.381
  0
LINE
  8
0
 10
-160.774
 20
-172.381
 11
-161.018
 21
-172.287
  0
LINE
  8
0
 10
-161.018
 20
-172.287
 11
-161.252
 21
-172.168
  0
LINE
  8
0
 10
-161.252
 20
-172.168
 11
-161.471
 21
-172.025
  0
LINE
  8
0
 10
-161.471
 20
-172.025
 11
-161.675
 21
-171.86
  0
LINE
  8
0
 10
-161.675
 20
-171.86
 11
-161.86
 21
-171.675
  0
LINE
  8
0
 10
-161.86
 20
-171.675
 11
-162.025
 21
-171.471
  0
LINE
  8
0
 10
-162.025
 20
-171.471
 11
-162.168
 21
-171.252
  0
LINE
  8
0
 10
-162.168
 20
-171.252
 11
-162.287
 21
-171.018
  0
LINE
  8
0
 10
-162.287
 20
-171.018
 11
-162.381
 21
-170.774
  0
LINE
  8
0
 10
-162.381
 20
-170.774
 11
-162.449
 21
-170.52
  0
LINE
  8
0
 10
-162.449
 20
-170.52
 11
-162.49
 21
-170.262
  0
LINE
  8
0
 10
-162.49
 20
-170.262
 11
-162.503
 21
-170
  0
LINE
  8
0
 10
-162.503
 20
-170
 11
-162.49
 21
-169.738
  0
LINE
  8
0
 10
-162.49
 20
-169.738
 11
-162.449
 21
-169.48
  0
LINE
  8
0
 10
-162.449
 20
-169.48
 11
-162.381
 21
-169.226
  0
LINE
  8
0
 10
-162.381
 20
-169.226
 11
-162.287
 21
-168.982
  0
LINE
  8
0
 10
-162.287
 20
-168.982
 11
-162.168
 21
-168.748
  0
LINE
  8
0
 10
-162.168
 20
-168.748
 11
-162.025
 21
-168.529
  0
LINE
  8
0
 10
-162.025
 20
-168.529
 11
-161.86
 21
-168.325
  0
LINE
  8
0
 10
-161.86
 20
-168.325
 11
-161.675
 21
-168.14
  0
LINE
  8
0
 10
-161.675
 20
-168.14
 11
-161.471
 21
-167.975
  0
LINE
  8
0
 10
-161.471
 20
-167.975
 11
-161.252
 21
-167.832
  0
LINE
  8
0
 10
-161.252
 20
-167.832
 11
-161.018
 21
-167.713
  0
LINE
  8
0
 10
-161.018
 20
-167.713
 11
-160.774
 21
-167.619
  0
LINE
  8
0
 10
-160.774
 20
-167.619
 11
-160.52
 21
-167.551
  0
LINE
  8
0
 10
-160.52
 20
-167.551
 11
-160.262
 21
-167.51
  0
LINE
  8
0
 10
-160.262
 20
-167.51
 11
-160
 21
-167.497
  0
LINE
  8
0
 10
-160
 20
-167.497
 11
-159.738
 21
-167.51
  0
LINE
  8
0
 10
-159.738
 20
-167.51
 11
-159.48
 21
-167.551
  0
LINE
  8
0
 10
-159.48
 20
-167.551
 11
-159.226
 21
-167.619
  0
LINE
  8
0
 10
-159.226
 20
-167.619
 11
-158.982
 21
-167.713
  0
LINE
  8
0
 10
-158.982
 20
-167.713
 11
-158.748
 21
-167.832
  0
LINE
  8
0
 10
-158.748
 20
-167.832
 11
-158.529
 21
-167.975
  0
LINE
  8
0
 10
-158.529
 20
-167.975
 11
-158.325
 21
-168.14
  0
LINE
  8
0
 10
-158.325
 20
-168.14
 11
-158.14
 21
-168.325
  0
LINE
  8
0
 10
-158.14
 20
-168.325
 11
-157.975
 21
-168.529
  0
LINE
  8
0
 10
-157.975
 20
-168.529
 11
-157.832
 21
-168.748
  0
LINE
  8
0
 10
-157.832
 20
-168.748
 11
-157.713
 21
-168.982
  0
LINE
  8
0
 10
-157.713
 20
-168.982
 11
-157.619
 21
-169.226
  0
LINE
  8
0
 10
-157.619
 20
-169.226
 11
-157.551
 21
-169.48
  0
LINE
  8
0
 10
-157.551
 20
-169.48
 11
-157.51
 21
-169.738
  0
LINE
  8
0
 10
-157.51
 20
-169.738
 11
-157.497
 21
-170
  0
LINE
  8
0
 10
-157.497
 20
-170
 11
-157.51
 21
-170.262
  0
LINE
  8
0
 10
-157.51
 20
-170.262
 11
-157.551
 21
-170.52
  0
LINE
  8
0
 10
-157.551
 20
-170.52
 11
-157.619
 21
-170.774
  0
LINE
  8
0
 10
-157.619
 20
-170.774
 11
-157.713
 21
-171.018
  0
LINE
  8
0
 10
-157.713
 20
-171.018
 11
-157.832
 21
-171.252
  0
LINE
  8
0
 10
-157.832
 20
-171.252
 11
-157.975
 21
-171.471
  0
LINE
  8
0
 10
-157.975
 20
-171.471
 11
-158.14
 21
-171.675
  0
LINE
  8
0
 10
-158.14
 20
-171.675
 11
-158.325
 21
-171.86
  0
LINE
  8
0
 10
-158.325
 20
-171.86
 11
-158.529
 21
-172.025
  0
LINE
  8
0
 10
-158.529
 20
-172.025
 11
-158.748
 21
-172.168
  0
LINE
  8
0
 10
-158.748
 20
-172.168
 11
-158.982
 21
-172.287
  0
LINE
  8
0
 10
-158.982
 20
-172.287
 11
-159.226
 21
-172.381
  0
LINE
  8
0
 10
-159.226
 20
-172.381
 11
-159.48
 21
-172.449
  0
LINE
  8
0
 10
-159.48
 20
-172.449
 11
-159.738
 21
-172.49
  0
LINE
  8
0
 10
-159.738
 20
-172.49
 11
-160
 21
-172.503
  0
LINE
  8
0
 10
-160
 20
-172.503
 11
-160.262
 21
-172.49
  0
LINE
  8
0
 10
-160.247
 20
-182.19
 11
-160.49
 21
-182.148
  0
LINE
  8
0
 10
-160.49
 20
-182.148
 11
-160.728
 21
-182.08
  0
LINE
  8
0
 10
-160.728
 20
-182.08
 11
-160.956
 21
-181.985
  0
LINE
  8
0
 10
-160.956
 20
-181.985
 11
-161.172
 21
-181.866
  0
LINE
  8
0
 10
-161.172
 20
-181.866
 11
-161.374
 21
-181.723
  0
LINE
  8
0
 10
-161.374
 20
-181.723
 11
-161.558
 21
-181.558
  0
LINE
  8
0
 10
-161.558
 20
-181.558
 11
-161.723
 21
-181.374
  0
LINE
  8
0
 10
-161.723
 20
-181.374
 11
-161.866
 21
-181.172
  0
LINE
  8
0
 10
-161.866
 20
-181.172
 11
-161.985
 21
-180.956
  0
LINE
  8
0
 10
-161.985
 20
-180.956
 11
-162.08
 21
-180.728
  0
LINE
  8
0
 10
-162.08
 20
-180.728
 11
-162.148
 21
-180.49
  0
LINE
  8
0
 10
-162.148
 20
-180.49
 11
-162.19
 21
-180.247
  0
LINE
  8
0
 10
-162.19
 20
-180.247
 11
-162.203
 21
-180
  0
LINE
  8
0
 10
-162.203
 20
-180
 11
-162.19
 21
-179.753
  0
LINE
  8
0
 10
-162.19
 20
-179.753
 11
-162.148
 21
-179.51
  0
LINE
  8
0
 10
-162.148
 20
-179.51
 11
-162.08
 21
-179.272
  0
LINE
  8
0
 10
-162.08
 20
-179.272
 11
-161.985
 21
-179.044
  0
LINE
  8
0
 10
-161.985
 20
-179.044
 11
-161.866
 21
-178.828
  0
LINE
  8
0
 10
-161.866
 20
-178.828
 11
-161.723
 21
-178.626
  0
LINE
  8
0
 10
-161.723
 20
-178.626
 11
-161.558
 21
-178.442
  0
LINE
  8
0
 10
-161.558
 20
-178.442
 11
-161.374
 21
-178.277
  0
LINE
  8
0
 10
-161.374
 20
-178.277
 11
-161.172
 21
-178.134
  0
LINE
  8
0
 10
-161.172
 20
-178.134
 11
-160.956
 21
-178.015
  0
LINE
  8
0
 10
-160.956
 20
-178.015
 11
-160.728
 21
-177.92
  0
LINE
  8
0
 10
-160.728
 20
-177.92
 11
-160.49
 21
-177.852
  0
LINE
  8
0
 10
-160.49
 20
-177.852
 11
-160.247
 21
-177.81
  0
LINE
  8
0
 10
-160.247
 20
-177.81
 11
-160
 21
-177.797
  0
LINE
  8
0
 10
-160
 20
-177.797
 11
-159.753
 21
-177.81
  0
LINE
  8
0
 10
-159.753
 20
-177.81
 11
-159.51
 21
-177.852
  0
LINE
  8
0
 10
-159.51
 20
-177.852
 11
-159.272
 21
-177.92
  0
LINE
  8
0
 10
-159.272
 20
-177.92
 11
-159.044
 21
-178.015
  0
LINE
  8
0
 10
-159.044
 20
-178.015
 11
-158.828
 21
-178.134
  0
LINE
  8
0
 10
-158.828
 20
-178.134
 11
-158.626
 21
-178.277
  0
LINE
  8
0
 10
-158.626
 20
-178.277
 11
-158.442
 21
-178.442
  0
LINE
  8
0
 10
-158.442
 20
-178.442
 11
-158.277
 21
-178.626
  0
LINE
  8
0
 10
-158.277
 20
-178.626
 11
-158.134
 21
-178.828
  0
LINE
  8
0
 10
-158.134
 20
-178.828
 11
-158.015
 21
-179.044
  0
LINE
  8
0
 10
-158.015
 20
-179.044
 11
-157.92
 21
-179.272
  0
LINE
  8
0
 10
-157.92
 20
-179.272
 11
-157.852
 21
-179.51
  0
LINE
  8
0
 10
-157.852
 20
-179.51
 11
-157.81
 21
-179.753
  0
LINE
  8
0
 10
-157.81
 20
-179.753
 11
-157.797
 21
-180
  0
LINE
  8
0
 10
-157.797
 20
-180
 11
-157.81
 21
-180.247
  0
LINE
  8
0
 10
-157.81
 20
-180.247
 11
-157.852
 21
-180.49
  0
LINE
  8
0
 10
-157.852
 20
-180.49
 11
-157.92
 21
-180.728
  0
LINE
  8
0
 10
-157.92
 20
-180.728
 11
-158.015
 21
-180.956
  0
LINE
  8
0
 10
-158.015
 20
-180.956
 11
-158.134
 21
-181.172
  0
LINE
  8
0
 10
-158.134
 20
-181.172
 11
-158.277
 21
-181.374
  0
LINE
  8
0
 10
-158.277
 20
-181.374
 11
-158.442
 21
-181.558
  0
LINE
  8
0
 10
-158.442
 20
-181.558
 11
-158.626
 21
-181.723
  0
LINE
  8
0
 10
-158.626
 20
-181.723
 11
-158.828
 21
-181.866
  0
LINE
  8
0
 10
-158.828
 20
-181.866
 11
-159.044
 21
-181.985
  0
LINE
  8
0
 10
-159.044
 20
-181.985
 11
-159.272
 21
-182.08
  0
LINE
  8
0
 10
-159.272
 20
-182.08
 11
-159.51
 21
-182.148
  0
LINE
  8
0
 10
-159.51
 20
-182.148
 11
-159.753
 21
-182.19
  0
LINE
  8
0
 10
-159.753
 20
-182.19
 11
-160
 21
-182.203
  0
LINE
  8
0
 10
-160
 20
-182.203
 11
-160.247
 21
-182.19
  0
LINE
  8
0
 10
159.753
 20
-182.19
 11
159.51
 21
-182.148
  0
LINE
  8
0
 10
159.51
 20
-182.148
 11
159.272
 21
-182.08
  0
LINE
  8
0
 10
159.272
 20
-182.08
 11
159.044
 21
-181.985
  0
LINE
  8
0
 10
159.044
 20
-181.985
 11
158.828
 21
-181.866
  0
LINE
  8
0
 10
158.828
 20
-181.866
 11
158.626
 21
-181.723
  0
LINE
  8
0
 10
158.626
 20
-181.723
 11
158.442
 21
-181.558
  0
LINE
  8
0
 10
158.442
 20
-181.558
 11
158.277
 21
-181.374
  0
LINE
  8
0
 10
158.277
 20
-181.374
 11
158.134
 21
-181.172
  0
LINE
  8
0
 10
158.134
 20
-181.172
 11
158.015
 21
-180.956
  0
LINE
  8
0
 10
158.015
 20
-180.956
 11
157.92
 21
-180.728
  0
LINE
  8
0
 10
157.92
 20
-180.728
 11
157.852
 21
-180.49
  0
LINE
  8
0
 10
157.852
 20
-180.49
 11
157.81
 21
-180.247
  0
LINE
  8
0
 10
157.81
 20
-180.247
 11
157.797
 21
-180
  0
LINE
  8
0
 10
157.797
 20
-180
 11
157.81
 21
-179.753
  0
LINE
  8
0
 10
157.81
 20
-179.753
 11
157.852
 21
-179.51
  0
LINE
  8
0
 10
157.852
 20
-179.51
 11
157.92
 21
-179.272
  0
LINE
  8
0
 10
157.92
 20
-179.272
 11
158.015
 21
-179.044
  0
LINE
  8
0
 10
158.015
 20
-179.044
 11
158.134
 21
-178.828
  0
LINE
  8
0
 10
158.134
 20
-178.828
 11
158.277
 21
-178.626
  0
LINE
  8
0
 10
158.277
 20
-178.626
 11
158.442
 21
-178.442
  0
LINE
  8
0
 10
158.442
 20
-178.442
 11
158.626
 21
-178.277
  0
LINE
  8
0
 10
158.626
 20
-178.277
 11
158.828
 21
-178.134
  0
LINE
  8
0
 10
158.828
 20
-178.134
 11
159.044
 21
-178.015
  0
LINE
  8
0
 10
159.044
 20
-178.015
 11
159.272
 21
-177.92
  0
LINE
  8
0
 10
159.272
 20
-177.92
 11
159.51
 21
-177.852
  0
LINE
  8
0
 10
159.51
 20
-177.852
 11
159.753
 21
-177.81
  0
LINE
  8
0
 10
159.753
 20
-177.81
 11
160
 21
-177.797
  0
LINE
  8
0
 10
160
 20
-177.797
 11
160.247
 21
-177.81
  0
LINE
  8
0
 10
160.247
 20
-177.81
 11
160.49
 21
-177.852
  0
LINE
  8
0
 10
160.49
 20
-177.852
 11
160.728
 21
-177.92
  0
LINE
  8
0
 10
160.728
 20
-177.92
 11
160.956
 21
-178.015
  0
LINE
  8
0
 10
160.956
 20
-178.015
 11
161.172
 21
-178.134
  0
LINE
  8
0
 10
161.172
 20
-178.134
 11
161.374
 21
-178.277
  0
LINE
  8
0
 10
161.374
 20
-178.277
 11
161.558
 21
-178.442
  0
LINE
  8
0
 10
161.558
 20
-178.442
 11
161.723
 21
-178.626
  0
LINE
  8
0
 10
161.723
 20
-178.626
 11
161.866
 21
-178.828
  0
LINE
  8
0
 10
161.866
 20
-178.828
 11
161.985
 21
-179.044
  0
LINE
  8
0
 10
161.985
 20
-179.044
 11
162.08
 21
-179.272
  0
LINE
  8
0
 10
162.08
 20
-179.272
 11
162.148
 21
-179.51
  0
LINE
  8
0
 10
162.148
 20
-179.51
 11
162.19
 21
-179.753
  0
LINE
  8
0
 10
162.19
 20
-179.753
 11
162.203
 21
-180
  0
LINE
  8
0
 10
162.203
 20
-180
 11
162.19
 21
-180.247
  0
LINE
  8
0
 10
162.19
 20
-180.247
 11
162.148
 21
-180.49
  0
LINE
  8
0
 10
162.148
 20
-180.49
 11
162.08
 21
-180.728
  0
LINE
  8
0
 10
162.08
 20
-180.728
 11
161.985
 21
-180.956
  0
LINE
  8
0
 10
161.985
 20
-180.956
 11
161.866
 21
-181.172
  0
LINE
  8
0
 10
161.866
 20
-181.172
 11
161.723
 21
-181.374
  0
LINE
  8
0
 10
161.723
 20
-181.374
 11
161.558
 21
-181.558
  0
LINE
  8
0
 10
161.558
 20
-181.558
 11
161.374
 21
-181.723
  0
LINE
  8
0
 10
161.374
 20
-181.723
 11
161.172
 21
-181.866
  0
LINE
  8
0
 10
161.172
 20
-181.866
 11
160.956
 21
-181.985
  0
LINE
  8
0
 10
160.956
 20
-181.985
 11
160.728
 21
-182.08
  0
LINE
  8
0
 10
160.728
 20
-182.08
 11
160.49
 21
-182.148
  0
LINE
  8
0
 10
160.49
 20
-182.148
 11
160.247
 21
-182.19
  0
LINE
  8
0
 10
160.247
 20
-182.19
 11
160
 21
-182.203
  0
LINE
  8
0
 10
160
 20
-182.203
 11
159.753
 21
-182.19
  0
LINE
  8
0
 10
159.738
 20
-192.49
 11
159.48
 21
-192.449
  0
LINE
  8
0
 10
159.48
 20
-192.449
 11
159.226
 21
-192.381
  0
LINE
  8
0
 10
159.226
 20
-192.381
 11
158.982
 21
-192.287
  0
LINE
  8
0
 10
158.982
 20
-192.287
 11
158.748
 21
-192.168
  0
LINE
  8
0
 10
158.748
 20
-192.168
 11
158.529
 21
-192.025
  0
LINE
  8
0
 10
158.529
 20
-192.025
 11
158.325
 21
-191.86
  0
LINE
  8
0
 10
158.325
 20
-191.86
 11
158.14
 21
-191.675
  0
LINE
  8
0
 10
158.14
 20
-191.675
 11
157.975
 21
-191.471
  0
LINE
  8
0
 10
157.975
 20
-191.471
 11
157.832
 21
-191.252
  0
LINE
  8
0
 10
157.832
 20
-191.252
 11
157.713
 21
-191.018
  0
LINE
  8
0
 10
157.713
 20
-191.018
 11
157.619
 21
-190.774
  0
LINE
  8
0
 10
157.619
 20
-190.774
 11
157.551
 21
-190.52
  0
LINE
  8
0
 10
157.551
 20
-190.52
 11
157.51
 21
-190.262
  0
LINE
  8
0
 10
157.51
 20
-190.262
 11
157.497
 21
-190
  0
LINE
  8
0
 10
157.497
 20
-190
 11
157.51
 21
-189.738
  0
LINE
  8
0
 10
157.51
 20
-189.738
 11
157.551
 21
-189.48
  0
LINE
  8
0
 10
157.551
 20
-189.48
 11
157.619
 21
-189.226
  0
LINE
  8
0
 10
157.619
 20
-189.226
 11
157.713
 21
-188.982
  0
LINE
  8
0
 10
157.713
 20
-188.982
 11
157.832
 21
-188.748
  0
LINE
  8
0
 10
157.832
 20
-188.748
 11
157.975
 21
-188.529
  0
LINE
  8
0
 10
157.975
 20
-188.529
 11
158.14
 21
-188.325
  0
LINE
  8
0
 10
158.14
 20
-188.325
 11
158.325
 21
-188.14
  0
LINE
  8
0
 10
158.325
 20
-188.14
 11
158.529
 21
-187.975
  0
LINE
  8
0
 10
158.529
 20
-187.975
 11
158.748
 21
-187.832
  0
LINE
  8
0
 10
158.748
 20
-187.832
 11
158.982
 21
-187.713
  0
LINE
  8
0
 10
158.982
 20
-187.713
 11
159.226
 21
-187.619
  0
LINE
  8
0
 10
159.226
 20
-187.619
 11
159.48
 21
-187.551
  0
LINE
  8
0
 10
159.48
 20
-187.551
 11
159.738
 21
-187.51
  0
LINE
  8
0
 10
159.738
 20
-187.51
 11
160
 21
-187.497
  0
LINE
  8
0
 10
160
 20
-187.497
 11
160.262
 21
-187.51
  0
LINE
  8
0
 10
160.262
 20
-187.51
 11
160.52
 21
-187.551
  0
LINE
  8
0
 10
160.52
 20
-187.551
 11
160.774
 21
-187.619
  0
LINE
  8
0
 10
160.774
 20
-187.619
 11
161.018
 21
-187.713
  0
LINE
  8
0
 10
161.018
 20
-187.713
 11
161.252
 21
-187.832
  0
LINE
  8
0
 10
161.252
 20
-187.832
 11
161.471
 21
-187.975
  0
LINE
  8
0
 10
161.471
 20
-187.975
 11
161.675
 21
-188.14
  0
LINE
  8
0
 10
161.675
 20
-188.14
 11
161.86
 21
-188.325
  0
LINE
  8
0
 10
161.86
 20
-188.325
 11
162.025
 21
-188.529
  0
LINE
  8
0
 10
162.025
 20
-188.529
 11
162.168
 21
-188.748
  0
LINE
  8
0
 10
162.168
 20
-188.748
 11
162.287
 21
-188.982
  0
LINE
  8
0
 10
162.287
 20
-188.982
 11
162.381
 21
-189.226
  0
LINE
  8
0
 10
162.381
 20
-189.226
 11
162.449
 21
-189.48
  0
LINE
  8
0
 10
162.449
 20
-189.48
 11
162.49
 21
-189.738
  0
LINE
  8
0
 10
162.49
 20
-189.738
 11
162.503
 21
-190
  0
LINE
  8
0
 10
162.503
 20
-190
 11
162.49
 21
-190.262
  0
LINE
  8
0
 10
162.49
 20
-190.262
 11
162.449
 21
-190.52
  0
LINE
  8
0
 10
162.449
 20
-190.52
 11
162.381
 21
-190.774
  0
LINE
  8
0
 10
162.381
 20
-190.774
 11
162.287
 21
-191.018
  0
LINE
  8
0
 10
162.287
 20
-191.018
 11
162.168
 21
-191.252
  0
LINE
  8
0
 10
162.168
 20
-191.252
 11
162.025
 21
-191.471
  0
LINE
  8
0
 10
162.025
 20
-191.471
 11
161.86
 21
-191.675
  0
LINE
  8
0
 10
161.86
 20
-191.675
 11
161.675
 21
-191.86
  0
LINE
  8
0
 10
161.675
 20
-191.86
 11
161.471
 21
-192.025
  0
LINE
  8
0
 10
161.471
 20
-192.025
 11
161.252
 21
-192.168
  0
LINE
  8
0
 10
161.252
 20
-192.168
 11
161.018
 21
-192.287
  0
LINE
  8
0
 10
161.018
 20
-192.287
 11
160.774
 21
-192.381
  0
LINE
  8
0
 10
160.774
 20
-192.381
 11
160.52
 21
-192.449
  0
LINE
  8
0
 10
160.52
 20
-192.449
 11
160.262
 21
-192.49
  0
LINE
  8
0
 10
160.262
 20
-192.49
 11
160
 21
-192.503
  0
LINE
  8
0
 10
160
 20
-192.503
 11
159.738
 21
-192.49
  0
LINE
  8
0
 10
-160.262
 20
-192.49
 11
-160.52
 21
-192.449
  0
LINE
  8
0
 10
-160.52
 20
-192.449
 11
-160.774
 21
-192.381
  0
LINE
  8
0
 10
-160.774
 20
-192.381
 11
-161.018
 21
-192.287
  0
LINE
  8
0
 10
-161.018
 20
-192.287
 11
-161.252
 21
-192.168
  0
LINE
  8
0
 10
-161.252
 20
-192.168
 11
-161.471
 21
-192.025
  0
LINE
  8
0
 10
-161.471
 20
-192.025
 11
-161.675
 21
-191.86
  0
LINE
  8
0
 10
-161.675
 20
-191.86
 11
-161.86
 21
-191.675
  0
LINE
  8
0
 10
-161.86
 20
-191.675
 11
-162.025
 21
-191.471
  0
LINE
  8
0
 10
-162.025
 20
-191.471
 11
-162.168
 21
-191.252
  0
LINE
  8
0
 10
-162.168
 20
-191.252
 11
-162.287
 21
-191.018
  0
LINE
  8
0
 10
-162.287
 20
-191.018
 11
-162.381
 21
-190.774
  0
LINE
  8
0
 10
-162.381
 20
-190.774
 11
-162.449
 21
-190.52
  0
LINE
  8
0
 10
-162.449
 20
-190.52
 11
-162.49
 21
-190.262
  0
LINE
  8
0
 10
-162.49
 20
-190.262
 11
-162.503
 21
-190
  0
LINE
  8
0
 10
-162.503
 20
-190
 11
-162.49
 21
-189.738
  0
LINE
  8
0
 10
-162.49
 20
-189.738
 11
-162.449
 21
-189.48
  0
LINE
  8
0
 10
-162.449
 20
-189.48
 11
-162.381
 21
-189.226
  0
LINE
  8
0
 10
-162.381
 20
-189.226
 11
-162.287
 21
-188.982
  0
LINE
  8
0
 10
-162.287
 20
-188.982
 11
-162.168
 21
-188.748
  0
LINE
  8
0
 10
-162.168
 20
-188.748
 11
-162.025
 21
-188.529
  0
LINE
  8
0
 10
-162.025
 20
-188.529
 11
-161.86
 21
-188.325
  0
LINE
  8
0
 10
-161.86
 20
-188.325
 11
-161.675
 21
-188.14
  0
LINE
  8
0
 10
-161.675
 20
-188.14
 11
-161.471
 21
-187.975
  0
LINE
  8
0
 10
-161.471
 20
-187.975
 11
-161.252
 21
-187.832
  0
LINE
  8
0
 10
-161.252
 20
-187.832
 11
-161.018
 21
-187.713
  0
LINE
  8
0
 10
-161.018
 20
-187.713
 11
-160.774
 21
-187.619
  0
LINE
  8
0
 10
-160.774
 20
-187.619
 11
-160.52
 21
-187.551
  0
LINE
  8
0
 10
-160.52
 20
-187.551
 11
-160.262
 21
-187.51
  0
LINE
  8
0
 10
-160.262
 20
-187.51
 11
-160
 21
-187.497
  0
LINE
  8
0
 10
-160
 20
-187.497
 11
-159.738
 21
-187.51
  0
LINE
  8
0
 10
-159.738
 20
-187.51
 11
-159.48
 21
-187.551
  0
LINE
  8
0
 10
-159.48
 20
-187.551
 11
-159.226
 21
-187.619
  0
LINE
  8
0
 10
-159.226
 20
-187.619
 11
-158.982
 21
-187.713
  0
LINE
  8
0
 10
-158.982
 20
-187.713
 11
-158.748
 21
-187.832
  0
LINE
  8
0
 10
-158.748
 20
-187.832
 11
-158.529
 21
-187.975
  0
LINE
  8
0
 10
-158.529
 20
-187.975
 11
-158.325
 21
-188.14
  0
LINE
  8
0
 10
-158.325
 20
-188.14
 11
-158.14
 21
-188.325
  0
LINE
  8
0
 10
-158.14
 20
-188.325
 11
-157.975
 21
-188.529
  0
LINE
  8
0
 10
-157.975
 20
-188.529
 11
-157.832
 21
-188.748
  0
LINE
  8
0
 10
-157.832
 20
-188.748
 11
-157.713
 21
-188.982
  0
LINE
  8
0
 10
-157.713
 20
-188.982
 11
-157.619
 21
-189.226
  0
LINE
  8
0
 10
-157.619
 20
-189.226
 11
-157.551
 21
-189.48
  0
LINE
  8
0
 10
-157.551
 20
-189.48
 11
-157.51
 21
-189.738
  0
LINE
  8
0
 10
-157.51
 20
-189.738
 11
-157.497
 21
-190
  0
LINE
  8
0
 10
-157.497
 20
-190
 11
-157.51
 21
-190.262
  0
LINE
  8
0
 10
-157.51
 20
-190.262
 11
-157.551
 21
-190.52
  0
LINE
  8
0
 10
-157.551
 20
-190.52
 11
-157.619
 21
-190.774
  0
LINE
  8
0
 10
-157.619
 20
-190.774
 11
-157.713
 21
-191.018
  0
LINE
  8
0
 10
-157.713
 20
-191.018
 11
-157.832
 21
-191.252
  0
LINE
  8
0
 10
-157.832
 20
-191.252
 11
-157.975
 21
-191.471
  0
LINE
  8
0
 10
-157.975
 20
-191.471
 11
-158.14
 21
-191.675
  0
LINE
  8
0
 10
-158.14
 20
-191.675
 11
-158.325
 21
-191.86
  0
LINE
  8
0
 10
-158.325
 20
-191.86
 11
-158.529
 21
-192.025
  0
LINE
  8
0
 10
-158.529
 20
-192.025
 11
-158.748
 21
-192.168
  0
LINE
  8
0
 10
-158.748
 20
-192.168
 11
-158.982
 21
-192.287
  0
LINE
  8
0
 10
-158.982
 20
-192.287
 11
-159.226
 21
-192.381
  0
LINE
  8
0
 10
-159.226
 20
-192.381
 11
-159.48
 21
-192.449
  0
LINE
  8
0
 10
-159.48
 20
-192.449
 11
-159.738
 21
-192.49
  0
LINE
  8
0
 10
-159.738
 20
-192.49
 11
-160
 21
-192.503
  0
LINE
  8
0
 10
-160
 20
-192.503
 11
-160.262
 21
-192.49
  0
LINE
  8
0
 10
-100.247
 20
-192.19
 11
-100.49
 21
-192.148
  0
LINE
  8
0
 10
-100.49
 20
-192.148
 11
-100.728
 21
-192.08
  0
LINE
  8
0
 10
-100.728
 20
-192.08
 11
-100.956
 21
-191.985
  0
LINE
  8
0
 10
-100.956
 20
-191.985
 11
-101.172
 21
-191.866
  0
LINE
  8
0
 10
-101.172
 20
-191.866
 11
-101.374
 21
-191.723
  0
LINE
  8
0
 10
-101.374
 20
-191.723
 11
-101.558
 21
-191.558
  0
LINE
  8
0
 10
-101.558
 20
-191.558
 11
-101.723
 21
-191.374
  0
LINE
  8
0
 10
-101.723
 20
-191.374
 11
-101.866
 21
-191.172
  0
LINE
  8
0
 10
-101.866
 20
-191.172
 11
-101.985
 21
-190.956
  0
LINE
  8
0
 10
-101.985
 20
-190.956
 11
-102.08
 21
-190.728
  0
LINE
  8
0
 10
-102.08
 20
-190.728
 11
-102.148
 21
-190.49
  0
LINE
  8
0
 10
-102.148
 20
-190.49
 11
-102.19
 21
-190.247
  0
LINE
  8
0
 10
-102.19
 20
-190.247
 11
-102.203
 21
-190
  0
LINE
  8
0
 10
-102.203
 20
-190
 11
-102.19
 21
-189.753
  0
LINE
  8
0
 10
-102.19
 20
-189.753
 11
-102.148
 21
-189.51
  0
LINE
  8
0
 10
-102.148
 20
-189.51
 11
-102.08
 21
-189.272
  0
LINE
  8
0
 10
-102.08
 20
-189.272
 11
-101.985
 21
-189.044
  0
LINE
  8
0
 10
-101.985
 20
-189.044
 11
-101.866
 21
-188.828
  0
LINE
  8
0
 10
-101.866
 20
-188.828
 11
-101.723
 21
-188.626
  0
LINE
  8
0
 10
-101.723
 20
-188.626
 11
-101.558
 21
-188.442
  0
LINE
  8
0
 10
-101.558
 20
-188.442
 11
-101.374
 21
-188.277
  0
LINE
  8
0
 10
-101.374
 20
-188.277
 11
-101.172
 21
-188.134
  0
LINE
  8
0
 10
-101.172
 20
-188.134
 11
-100.956
 21
-188.015
  0
LINE
  8
0
 10
-100.956
 20
-188.015
 11
-100.728
 21
-187.92
  0
LINE
  8
0
 10
-100.728
 20
-187.92
 11
-100.49
 21
-187.852
  0
LINE
  8
0
 10
-100.49
 20
-187.852
 11
-100.247
 21
-187.81
  0
LINE
  8
0
 10
-100.247
 20
-187.81
 11
-100
 21
-187.797
  0
LINE
  8
0
 10
-100
 20
-187.797
 11
-99.7533
 21
-187.81
  0
LINE
  8
0
 10
-99.7533
 20
-187.81
 11
-99.5097
 21
-187.852
  0
LINE
  8
0
 10
-99.5097
 20
-187.852
 11
-99.2722
 21
-187.92
  0
LINE
  8
0
 10
-99.2722
 20
-187.92
 11
-99.044
 21
-188.015
  0
LINE
  8
0
 10
-99.044
 20
-188.015
 11
-98.8277
 21
-188.134
  0
LINE
  8
0
 10
-98.8277
 20
-188.134
 11
-98.6262
 21
-188.277
  0
LINE
  8
0
 10
-98.6262
 20
-188.277
 11
-98.4419
 21
-188.442
  0
LINE
  8
0
 10
-98.4419
 20
-188.442
 11
-98.2773
 21
-188.626
  0
LINE
  8
0
 10
-98.2773
 20
-188.626
 11
-98.1343
 21
-188.828
  0
LINE
  8
0
 10
-98.1343
 20
-188.828
 11
-98.0148
 21
-189.044
  0
LINE
  8
0
 10
-98.0148
 20
-189.044
 11
-97.9202
 21
-189.272
  0
LINE
  8
0
 10
-97.9202
 20
-189.272
 11
-97.8518
 21
-189.51
  0
LINE
  8
0
 10
-97.8518
 20
-189.51
 11
-97.8104
 21
-189.753
  0
LINE
  8
0
 10
-97.8104
 20
-189.753
 11
-97.7965
 21
-190
  0
LINE
  8
0
 10
-97.7965
 20
-190
 11
-97.8104
 21
-190.247
  0
LINE
  8
0
 10
-97.8104
 20
-190.247
 11
-97.8518
 21
-190.49
  0
LINE
  8
0
 10
-97.8518
 20
-190.49
 11
-97.9202
 21
-190.728
  0
LINE
  8
0
 10
-97.9202
 20
-190.728
 11
-98.0148
 21
-190.956
  0
LINE
  8
0
 10
-98.0148
 20
-190.956
 11
-98.1343
 21
-191.172
  0
LINE
  8
0
 10
-98.1343
 20
-191.172
 11
-98.2773
 21
-191.374
  0
LINE
  8
0
 10
-98.2773
 20
-191.374
 11
-98.4419
 21
-191.558
  0
LINE
  8
0
 10
-98.4419
 20
-191.558
 11
-98.6262
 21
-191.723
  0
LINE
  8
0
 10
-98.6262
 20
-191.723
 11
-98.8277
 21
-191.866
  0
LINE
  8
0
 10
-98.8277
 20
-191.866
 11
-99.044
 21
-191.985
  0
LINE
  8
0
 10
-99.044
 20
-191.985
 11
-99.2722
 21
-192.08
  0
LINE
  8
0
 10
-99.2722
 20
-192.08
 11
-99.5097
 21
-192.148
  0
LINE
  8
0
 10
-99.5097
 20
-192.148
 11
-99.7533
 21
-192.19
  0
LINE
  8
0
 10
-99.7533
 20
-192.19
 11
-100
 21
-192.203
  0
LINE
  8
0
 10
-100
 20
-192.203
 11
-100.247
 21
-192.19
  0
LINE
  8
0
 10
-0.246719
 20
-192.19
 11
-0.490326
 21
-192.148
  0
LINE
  8
0
 10
-0.490326
 20
-192.148
 11
-0.727768
 21
-192.08
  0
LINE
  8
0
 10
-0.727768
 20
-192.08
 11
-0.956055
 21
-191.985
  0
LINE
  8
0
 10
-0.956055
 20
-191.985
 11
-1.17232
 21
-191.866
  0
LINE
  8
0
 10
-1.17232
 20
-191.866
 11
-1.37384
 21
-191.723
  0
LINE
  8
0
 10
-1.37384
 20
-191.723
 11
-1.55809
 21
-191.558
  0
LINE
  8
0
 10
-1.55809
 20
-191.558
 11
-1.72275
 21
-191.374
  0
LINE
  8
0
 10
-1.72275
 20
-191.374
 11
-1.86574
 21
-191.172
  0
LINE
  8
0
 10
-1.86574
 20
-191.172
 11
-1.98526
 21
-190.956
  0
LINE
  8
0
 10
-1.98526
 20
-190.956
 11
-2.07982
 21
-190.728
  0
LINE
  8
0
 10
-2.07982
 20
-190.728
 11
-2.14822
 21
-190.49
  0
LINE
  8
0
 10
-2.14822
 20
-190.49
 11
-2.18962
 21
-190.247
  0
LINE
  8
0
 10
-2.18962
 20
-190.247
 11
-2.20348
 21
-190
  0
LINE
  8
0
 10
-2.20348
 20
-190
 11
-2.18962
 21
-189.753
  0
LINE
  8
0
 10
-2.18962
 20
-189.753
 11
-2.14822
 21
-189.51
  0
LINE
  8
0
 10
-2.14822
 20
-189.51
 11
-2.07982
 21
-189.272
  0
LINE
  8
0
 10
-2.07982
 20
-189.272
 11
-1.98526
 21
-189.044
  0
LINE
  8
0
 10
-1.98526
 20
-189.044
 11
-1.86574
 21
-188.828
  0
LINE
  8
0
 10
-1.86574
 20
-188.828
 11
-1.72275
 21
-188.626
  0
LINE
  8
0
 10
-1.72275
 20
-188.626
 11
-1.55809
 21
-188.442
  0
LINE
  8
0
 10
-1.55809
 20
-188.442
 11
-1.37384
 21
-188.277
  0
LINE
  8
0
 10
-1.37384
 20
-188.277
 11
-1.17232
 21
-188.134
  0
LINE
  8
0
 10
-1.17232
 20
-188.134
 11
-0.956055
 21
-188.015
  0
LINE
  8
0
 10
-0.956055
 20
-188.015
 11
-0.727768
 21
-187.92
  0
LINE
  8
0
 10
-0.727768
 20
-187.92
 11
-0.490326
 21
-187.852
  0
LINE
  8
0
 10
-0.490326
 20
-187.852
 11
-0.246719
 21
-187.81
  0
LINE
  8
0
 10
-0.246719
 20
-187.81
 11
0
 21
-187.797
  0
LINE
  8
0
 10
0
 20
-187.797
 11
0.246704
 21
-187.81
  0
LINE
  8
0
 10
0.246704
 20
-187.81
 11
0.490311
 21
-187.852
  0
LINE
  8
0
 10
0.490311
 20
-187.852
 11
0.727753
 21
-187.92
  0
LINE
  8
0
 10
0.727753
 20
-187.92
 11
0.956039
 21
-188.015
  0
LINE
  8
0
 10
0.956039
 20
-188.015
 11
1.1723
 21
-188.134
  0
LINE
  8
0
 10
1.1723
 20
-188.134
 11
1.37383
 21
-188.277
  0
LINE
  8
0
 10
1.37383
 20
-188.277
 11
1.55807
 21
-188.442
  0
LINE
  8
0
 10
1.55807
 20
-188.442
 11
1.72273
 21
-188.626
  0
LINE
  8
0
 10
1.72273
 20
-188.626
 11
1.86572
 21
-188.828
  0
LINE
  8
0
 10
1.86572
 20
-188.828
 11
1.98524
 21
-189.044
  0
LINE
  8
0
 10
1.98524
 20
-189.044
 11
2.0798
 21
-189.272
  0
LINE
  8
0
 10
2.0798
 20
-189.272
 11
2.14821
 21
-189.51
  0
LINE
  8
0
 10
2.14821
 20
-189.51
 11
2.18961
 21
-189.753
  0
LINE
  8
0
 10
2.18961
 20
-189.753
 11
2.20346
 21
-190
  0
LINE
  8
0
 10
2.20346
 20
-190
 11
2.18961
 21
-190.247
  0
LINE
  8
0
 10
2.18961
 20
-190.247
 11
2.14821
 21
-190.49
  0
LINE
  8
0
 10
2.14821
 20
-190.49
 11
2.0798
 21
-190.728
  0
LINE
  8
0
 10
2.0798
 20
-190.728
 11
1.98524
 21
-190.956
  0
LINE
  8
0
 10
1.98524
 20
-190.956
 11
1.86572
 21
-191.172
  0
LINE
  8
0
 10
1.86572
 20
-191.172
 11
1.72273
 21
-191.374
  0
LINE
  8
0
 10
1.72273
 20
-191.374
 11
1.55807
 21
-191.558
  0
LINE
  8
0
 10
1.55807
 20
-191.558
 11
1.37383
 21
-191.723
  0
LINE
  8
0
 10
1.37383
 20
-191.723
 11
1.1723
 21
-191.866
  0
LINE
  8
0
 10
1.1723
 20
-191.866
 11
0.956039
 21
-191.985
  0
LINE
  8
0
 10
0.956039
 20
-191.985
 11
0.727753
 21
-192.08
  0
LINE
  8
0
 10
0.727753
 20
-192.08
 11
0.490311
 21
-192.148
  0
LINE
  8
0
 10
0.490311
 20
-192.148
 11
0.246704
 21
-192.19
  0
LINE
  8
0
 10
0.246704
 20
-192.19
 11
0
 21
-192.203
  0
LINE
  8
0
 10
0
 20
-192.203
 11
-0.246719
 21
-192.19
  0
LINE
  8
0
 10
99.7533
 20
-192.19
 11
99.5097
 21
-192.148
  0
LINE
  8
0
 10
99.5097
 20
-192.148
 11
99.2722
 21
-192.08
  0
LINE
  8
0
 10
99.2722
 20
-192.08
 11
99.0439
 21
-191.985
  0
LINE
  8
0
 10
99.0439
 20
-191.985
 11
98.8277
 21
-191.866
  0
LINE
  8
0
 10
98.8277
 20
-191.866
 11
98.6262
 21
-191.723
  0
LINE
  8
0
 10
98.6262
 20
-191.723
 11
98.4419
 21
-191.558
  0
LINE
  8
0
 10
98.4419
 20
-191.558
 11
98.2773
 21
-191.374
  0
LINE
  8
0
 10
98.2773
 20
-191.374
 11
98.1343
 21
-191.172
  0
LINE
  8
0
 10
98.1343
 20
-191.172
 11
98.0147
 21
-190.956
  0
LINE
  8
0
 10
98.0147
 20
-190.956
 11
97.9202
 21
-190.728
  0
LINE
  8
0
 10
97.9202
 20
-190.728
 11
97.8518
 21
-190.49
  0
LINE
  8
0
 10
97.8518
 20
-190.49
 11
97.8104
 21
-190.247
  0
LINE
  8
0
 10
97.8104
 20
-190.247
 11
97.7965
 21
-190
  0
LINE
  8
0
 10
97.7965
 20
-190
 11
97.8104
 21
-189.753
  0
LINE
  8
0
 10
97.8104
 20
-189.753
 11
97.8518
 21
-189.51
  0
LINE
  8
0
 10
97.8518
 20
-189.51
 11
97.9202
 21
-189.272
  0
LINE
  8
0
 10
97.9202
 20
-189.272
 11
98.0147
 21
-189.044
  0
LINE
  8
0
 10
98.0147
 20
-189.044
 11
98.1343
 21
-188.828
  0
LINE
  8
0
 10
98.1343
 20
-188.828
 11
98.2773
 21
-188.626
  0
LINE
  8
0
 10
98.2773
 20
-188.626
 11
98.4419
 21
-188.442
  0
LINE
  8
0
 10
98.4419
 20
-188.442
 11
98.6262
 21
-188.277
  0
LINE
  8
0
 10
98.6262
 20
-188.277
 11
98.8277
 21
-188.134
  0
LINE
  8
0
 10
98.8277
 20
-188.134
 11
99.0439
 21
-188.015
  0
LINE
  8
0
 10
99.0439
 20
-188.015
 11
99.2722
 21
-187.92
  0
LINE
  8
0
 10
99.2722
 20
-187.92
 11
99.5097
 21
-187.852
  0
LINE
  8
0
 10
99.5097
 20
-187.852
 11
99.7533
 21
-187.81
  0
LINE
  8
0
 10
99.7533
 20
-187.81
 11
100
 21
-187.797
  0
LINE
  8
0
 10
100
 20
-187.797
 11
100.247
 21
-187.81
  0
LINE
  8
0
 10
100.247
 20
-187.81
 11
100.49
 21
-187.852
  0
LINE
  8
0
 10
100.49
 20
-187.852
 11
100.728
 21
-187.92
  0
LINE
  8
0
 10
100.728
 20
-187.92
 11
100.956
 21
-188.015
  0
LINE
  8
0
 10
100.956
 20
-188.015
 11
101.172
 21
-188.134
  0
LINE
  8
0
 10
101.172
 20
-188.134
 11
101.374
 21
-188.277
  0
LINE
  8
0
 10
101.374
 20
-188.277
 11
101.558
 21
-188.442
  0
LINE
  8
0
 10
101.558
 20
-188.442
 11
101.723
 21
-188.626
  0
LINE
  8
0
 10
101.723
 20
-188.626
 11
101.866
 21
-188.828
  0
LINE
  8
0
 10
101.866
 20
-188.828
 11
101.985
 21
-189.044
  0
LINE
  8
0
 10
101.985
 20
-189.044
 11
102.08
 21
-189.272
  0
LINE
  8
0
 10
102.08
 20
-189.272
 11
102.148
 21
-189.51
  0
LINE
  8
0
 10
102.148
 20
-189.51
 11
102.19
 21
-189.753
  0
LINE
  8
0
 10
102.19
 20
-189.753
 11
102.203
 21
-190
  0
LINE
  8
0
 10
102.203
 20
-190
 11
102.19
 21
-190.247
  0
LINE
  8
0
 10
102.19
 20
-190.247
 11
102.148
 21
-190.49
  0
LINE
  8
0
 10
102.148
 20
-190.49
 11
102.08
 21
-190.728
  0
LINE
  8
0
 10
102.08
 20
-190.728
 11
101.985
 21
-190.956
  0
LINE
  8
0
 10
101.985
 20
-190.956
 11
101.866
 21
-191.172
  0
LINE
  8
0
 10
101.866
 20
-191.172
 11
101.723
 21
-191.374
  0
LINE
  8
0
 10
101.723
 20
-191.374
 11
101.558
 21
-191.558
  0
LINE
  8
0
 10
101.558
 20
-191.558
 11
101.374
 21
-191.723
  0
LINE
  8
0
 10
101.374
 20
-191.723
 11
101.172
 21
-191.866
  0
LINE
  8
0
 10
101.172
 20
-191.866
 11
100.956
 21
-191.985
  0
LINE
  8
0
 10
100.956
 20
-191.985
 11
100.728
 21
-192.08
  0
LINE
  8
0
 10
100.728
 20
-192.08
 11
100.49
 21
-192.148
  0
LINE
  8
0
 10
100.49
 20
-192.148
 11
100.247
 21
-192.19
  0
LINE
  8
0
 10
100.247
 20
-192.19
 11
100
 21
-192.203
  0
LINE
  8
0
 10
100
 20
-192.203
 11
99.7533
 21
-192.19
  0
ENDSEC
  0
SECTION
  2
OBJECTS
  0
DICTIONARY
  0
ENDSEC
  0
EOF
