  0
SECTION
  2
BLOCKS
  0
ENDSEC
  0
SECTION
  2
ENTITIES
  0
LINE
  8
0
 10
168.241
 20
-169.985
 11
168.479
 21
-169.942
  0
LINE
  8
0
 10
168.479
 20
-169.942
 11
168.709
 21
-169.87
  0
LINE
  8
0
 10
168.709
 20
-169.87
 11
168.929
 21
-169.771
  0
LINE
  8
0
 10
168.929
 20
-169.771
 11
169.136
 21
-169.646
  0
LINE
  8
0
 10
169.136
 20
-169.646
 11
169.326
 21
-169.497
  0
LINE
  8
0
 10
169.326
 20
-169.497
 11
169.497
 21
-169.326
  0
LINE
  8
0
 10
169.497
 20
-169.326
 11
169.646
 21
-169.136
  0
LINE
  8
0
 10
169.646
 20
-169.136
 11
169.771
 21
-168.929
  0
LINE
  8
0
 10
169.771
 20
-168.929
 11
169.87
 21
-168.709
  0
LINE
  8
0
 10
169.87
 20
-168.709
 11
169.942
 21
-168.479
  0
LINE
  8
0
 10
169.942
 20
-168.479
 11
169.985
 21
-168.241
  0
LINE
  8
0
 10
169.985
 20
-168.241
 11
170
 21
-168
  0
LINE
  8
0
 10
170
 20
-168
 11
170
 21
168
  0
LINE
  8
0
 10
170
 20
168
 11
169.985
 21
168.241
  0
LINE
  8
0
 10
169.985
 20
168.241
 11
169.942
 21
168.479
  0
LINE
  8
0
 10
169.942
 20
168.479
 11
169.87
 21
168.709
  0
LINE
  8
0
 10
169.87
 20
168.709
 11
169.771
 21
168.929
  0
LINE
  8
0
 10
169.771
 20
168.929
 11
169.646
 21
169.136
  0
LINE
  8
0
 10
169.646
 20
169.136
 11
169.497
 21
169.326
  0
LINE
  8
0
 10
169.497
 20
169.326
 11
169.326
 21
169.497
  0
LINE
  8
0
 10
169.326
 20
169.497
 11
169.136
 21
169.646
  0
LINE
  8
0
 10
169.136
 20
169.646
 11
168.929
 21
169.771
  0
LINE
  8
0
 10
168.929
 20
169.771
 11
168.709
 21
169.87
  0
LINE
  8
0
 10
168.709
 20
169.87
 11
168.479
 21
169.942
  0
LINE
  8
0
 10
168.479
 20
169.942
 11
168.241
 21
169.985
  0
LINE
  8
0
 10
168.241
 20
169.985
 11
168
 21
170
  0
LINE
  8
0
 10
168
 20
170
 11
-168
 21
170
  0
LINE
  8
0
 10
-168
 20
170
 11
-168.241
 21
169.985
  0
LINE
  8
0
 10
-168.241
 20
169.985
 11
-168.479
 21
169.942
  0
LINE
  8
0
 10
-168.479
 20
169.942
 11
-168.709
 21
169.87
  0
LINE
  8
0
 10
-168.709
 20
169.87
 11
-168.929
 21
169.771
  0
LINE
  8
0
 10
-168.929
 20
169.771
 11
-169.136
 21
169.646
  0
LINE
  8
0
 10
-169.136
 20
169.646
 11
-169.326
 21
169.497
  0
LINE
  8
0
 10
-169.326
 20
169.497
 11
-169.497
 21
169.326
  0
LINE
  8
0
 10
-169.497
 20
169.326
 11
-169.646
 21
169.136
  0
LINE
  8
0
 10
-169.646
 20
169.136
 11
-169.771
 21
168.929
  0
LINE
  8
0
 10
-169.771
 20
168.929
 11
-169.87
 21
168.709
  0
LINE
  8
0
 10
-169.87
 20
168.709
 11
-169.942
 21
168.479
  0
LINE
  8
0
 10
-169.942
 20
168.479
 11
-169.985
 21
168.241
  0
LINE
  8
0
 10
-169.985
 20
168.241
 11
-170
 21
168
  0
LINE
  8
0
 10
-170
 20
168
 11
-170
 21
-168
  0
LINE
  8
0
 10
-170
 20
-168
 11
-169.985
 21
-168.241
  0
LINE
  8
0
 10
-169.985
 20
-168.241
 11
-169.942
 21
-168.479
  0
LINE
  8
0
 10
-169.942
 20
-168.479
 11
-169.87
 21
-168.709
  0
LINE
  8
0
 10
-169.87
 20
-168.709
 11
-169.771
 21
-168.929
  0
LINE
  8
0
 10
-169.771
 20
-168.929
 11
-169.646
 21
-169.136
  0
LINE
  8
0
 10
-169.646
 20
-169.136
 11
-169.497
 21
-169.326
  0
LINE
  8
0
 10
-169.497
 20
-169.326
 11
-169.326
 21
-169.497
  0
LINE
  8
0
 10
-169.326
 20
-169.497
 11
-169.136
 21
-169.646
  0
LINE
  8
0
 10
-169.136
 20
-169.646
 11
-168.929
 21
-169.771
  0
LINE
  8
0
 10
-168.929
 20
-169.771
 11
-168.709
 21
-169.87
  0
LINE
  8
0
 10
-168.709
 20
-169.87
 11
-168.479
 21
-169.942
  0
LINE
  8
0
 10
-168.479
 20
-169.942
 11
-168.241
 21
-169.985
  0
LINE
  8
0
 10
-168.241
 20
-169.985
 11
-168
 21
-170
  0
LINE
  8
0
 10
-168
 20
-170
 11
168
 21
-170
  0
LINE
  8
0
 10
168
 20
-170
 11
168.241
 21
-169.985
  0
LINE
  8
0
 10
159.665
 20
156.813
 11
159.334
 21
156.866
  0
LINE
  8
0
 10
159.334
 20
156.866
 11
159.01
 21
156.952
  0
LINE
  8
0
 10
159.01
 20
156.952
 11
158.697
 21
157.073
  0
LINE
  8
0
 10
158.697
 20
157.073
 11
158.398
 21
157.225
  0
LINE
  8
0
 10
158.398
 20
157.225
 11
158.117
 21
157.408
  0
LINE
  8
0
 10
158.117
 20
157.408
 11
157.856
 21
157.619
  0
LINE
  8
0
 10
157.856
 20
157.619
 11
157.619
 21
157.856
  0
LINE
  8
0
 10
157.619
 20
157.856
 11
157.408
 21
158.117
  0
LINE
  8
0
 10
157.408
 20
158.117
 11
157.225
 21
158.398
  0
LINE
  8
0
 10
157.225
 20
158.398
 11
157.073
 21
158.697
  0
LINE
  8
0
 10
157.073
 20
158.697
 11
156.952
 21
159.01
  0
LINE
  8
0
 10
156.952
 20
159.01
 11
156.866
 21
159.334
  0
LINE
  8
0
 10
156.866
 20
159.334
 11
156.813
 21
159.665
  0
LINE
  8
0
 10
156.813
 20
159.665
 11
156.796
 21
160
  0
LINE
  8
0
 10
156.796
 20
160
 11
156.813
 21
160.335
  0
LINE
  8
0
 10
156.813
 20
160.335
 11
156.866
 21
160.666
  0
LINE
  8
0
 10
156.866
 20
160.666
 11
156.952
 21
160.99
  0
LINE
  8
0
 10
156.952
 20
160.99
 11
157.073
 21
161.303
  0
LINE
  8
0
 10
157.073
 20
161.303
 11
157.225
 21
161.602
  0
LINE
  8
0
 10
157.225
 20
161.602
 11
157.408
 21
161.883
  0
LINE
  8
0
 10
157.408
 20
161.883
 11
157.619
 21
162.144
  0
LINE
  8
0
 10
157.619
 20
162.144
 11
157.856
 21
162.381
  0
LINE
  8
0
 10
157.856
 20
162.381
 11
158.117
 21
162.592
  0
LINE
  8
0
 10
158.117
 20
162.592
 11
158.398
 21
162.775
  0
LINE
  8
0
 10
158.398
 20
162.775
 11
158.697
 21
162.927
  0
LINE
  8
0
 10
158.697
 20
162.927
 11
159.01
 21
163.048
  0
LINE
  8
0
 10
159.01
 20
163.048
 11
159.334
 21
163.134
  0
LINE
  8
0
 10
159.334
 20
163.134
 11
159.665
 21
163.187
  0
LINE
  8
0
 10
159.665
 20
163.187
 11
160
 21
163.204
  0
LINE
  8
0
 10
160
 20
163.204
 11
160.335
 21
163.187
  0
LINE
  8
0
 10
160.335
 20
163.187
 11
160.666
 21
163.134
  0
LINE
  8
0
 10
160.666
 20
163.134
 11
160.99
 21
163.048
  0
LINE
  8
0
 10
160.99
 20
163.048
 11
161.303
 21
162.927
  0
LINE
  8
0
 10
161.303
 20
162.927
 11
161.602
 21
162.775
  0
LINE
  8
0
 10
161.602
 20
162.775
 11
161.883
 21
162.592
  0
LINE
  8
0
 10
161.883
 20
162.592
 11
162.144
 21
162.381
  0
LINE
  8
0
 10
162.144
 20
162.381
 11
162.381
 21
162.144
  0
LINE
  8
0
 10
162.381
 20
162.144
 11
162.592
 21
161.883
  0
LINE
  8
0
 10
162.592
 20
161.883
 11
162.775
 21
161.602
  0
LINE
  8
0
 10
162.775
 20
161.602
 11
162.927
 21
161.303
  0
LINE
  8
0
 10
162.927
 20
161.303
 11
163.048
 21
160.99
  0
LINE
  8
0
 10
163.048
 20
160.99
 11
163.134
 21
160.666
  0
LINE
  8
0
 10
163.134
 20
160.666
 11
163.187
 21
160.335
  0
LINE
  8
0
 10
163.187
 20
160.335
 11
163.204
 21
160
  0
LINE
  8
0
 10
163.204
 20
160
 11
163.187
 21
159.665
  0
LINE
  8
0
 10
163.187
 20
159.665
 11
163.134
 21
159.334
  0
LINE
  8
0
 10
163.134
 20
159.334
 11
163.048
 21
159.01
  0
LINE
  8
0
 10
163.048
 20
159.01
 11
162.927
 21
158.697
  0
LINE
  8
0
 10
162.927
 20
158.697
 11
162.775
 21
158.398
  0
LINE
  8
0
 10
162.775
 20
158.398
 11
162.592
 21
158.117
  0
LINE
  8
0
 10
162.592
 20
158.117
 11
162.381
 21
157.856
  0
LINE
  8
0
 10
162.381
 20
157.856
 11
162.144
 21
157.619
  0
LINE
  8
0
 10
162.144
 20
157.619
 11
161.883
 21
157.408
  0
LINE
  8
0
 10
161.883
 20
157.408
 11
161.602
 21
157.225
  0
LINE
  8
0
 10
161.602
 20
157.225
 11
161.303
 21
157.073
  0
LINE
  8
0
 10
161.303
 20
157.073
 11
160.99
 21
156.952
  0
LINE
  8
0
 10
160.99
 20
156.952
 11
160.666
 21
156.866
  0
LINE
  8
0
 10
160.666
 20
156.866
 11
160.335
 21
156.813
  0
LINE
  8
0
 10
160.335
 20
156.813
 11
160
 21
156.796
  0
LINE
  8
0
 10
160
 20
156.796
 11
159.665
 21
156.813
  0
LINE
  8
0
 10
-160.335
 20
156.813
 11
-160.666
 21
156.866
  0
LINE
  8
0
 10
-160.666
 20
156.866
 11
-160.99
 21
156.952
  0
LINE
  8
0
 10
-160.99
 20
156.952
 11
-161.303
 21
157.073
  0
LINE
  8
0
 10
-161.303
 20
157.073
 11
-161.602
 21
157.225
  0
LINE
  8
0
 10
-161.602
 20
157.225
 11
-161.883
 21
157.408
  0
LINE
  8
0
 10
-161.883
 20
157.408
 11
-162.144
 21
157.619
  0
LINE
  8
0
 10
-162.144
 20
157.619
 11
-162.381
 21
157.856
  0
LINE
  8
0
 10
-162.381
 20
157.856
 11
-162.592
 21
158.117
  0
LINE
  8
0
 10
-162.592
 20
158.117
 11
-162.775
 21
158.398
  0
LINE
  8
0
 10
-162.775
 20
158.398
 11
-162.927
 21
158.697
  0
LINE
  8
0
 10
-162.927
 20
158.697
 11
-163.048
 21
159.01
  0
LINE
  8
0
 10
-163.048
 20
159.01
 11
-163.134
 21
159.334
  0
LINE
  8
0
 10
-163.134
 20
159.334
 11
-163.187
 21
159.665
  0
LINE
  8
0
 10
-163.187
 20
159.665
 11
-163.204
 21
160
  0
LINE
  8
0
 10
-163.204
 20
160
 11
-163.187
 21
160.335
  0
LINE
  8
0
 10
-163.187
 20
160.335
 11
-163.134
 21
160.666
  0
LINE
  8
0
 10
-163.134
 20
160.666
 11
-163.048
 21
160.99
  0
LINE
  8
0
 10
-163.048
 20
160.99
 11
-162.927
 21
161.303
  0
LINE
  8
0
 10
-162.927
 20
161.303
 11
-162.775
 21
161.602
  0
LINE
  8
0
 10
-162.775
 20
161.602
 11
-162.592
 21
161.883
  0
LINE
  8
0
 10
-162.592
 20
161.883
 11
-162.381
 21
162.144
  0
LINE
  8
0
 10
-162.381
 20
162.144
 11
-162.144
 21
162.381
  0
LINE
  8
0
 10
-162.144
 20
162.381
 11
-161.883
 21
162.592
  0
LINE
  8
0
 10
-161.883
 20
162.592
 11
-161.602
 21
162.775
  0
LINE
  8
0
 10
-161.602
 20
162.775
 11
-161.303
 21
162.927
  0
LINE
  8
0
 10
-161.303
 20
162.927
 11
-160.99
 21
163.048
  0
LINE
  8
0
 10
-160.99
 20
163.048
 11
-160.666
 21
163.134
  0
LINE
  8
0
 10
-160.666
 20
163.134
 11
-160.335
 21
163.187
  0
LINE
  8
0
 10
-160.335
 20
163.187
 11
-160
 21
163.204
  0
LINE
  8
0
 10
-160
 20
163.204
 11
-159.665
 21
163.187
  0
LINE
  8
0
 10
-159.665
 20
163.187
 11
-159.334
 21
163.134
  0
LINE
  8
0
 10
-159.334
 20
163.134
 11
-159.01
 21
163.048
  0
LINE
  8
0
 10
-159.01
 20
163.048
 11
-158.697
 21
162.927
  0
LINE
  8
0
 10
-158.697
 20
162.927
 11
-158.398
 21
162.775
  0
LINE
  8
0
 10
-158.398
 20
162.775
 11
-158.117
 21
162.592
  0
LINE
  8
0
 10
-158.117
 20
162.592
 11
-157.856
 21
162.381
  0
LINE
  8
0
 10
-157.856
 20
162.381
 11
-157.619
 21
162.144
  0
LINE
  8
0
 10
-157.619
 20
162.144
 11
-157.408
 21
161.883
  0
LINE
  8
0
 10
-157.408
 20
161.883
 11
-157.225
 21
161.602
  0
LINE
  8
0
 10
-157.225
 20
161.602
 11
-157.073
 21
161.303
  0
LINE
  8
0
 10
-157.073
 20
161.303
 11
-156.952
 21
160.99
  0
LINE
  8
0
 10
-156.952
 20
160.99
 11
-156.866
 21
160.666
  0
LINE
  8
0
 10
-156.866
 20
160.666
 11
-156.813
 21
160.335
  0
LINE
  8
0
 10
-156.813
 20
160.335
 11
-156.796
 21
160
  0
LINE
  8
0
 10
-156.796
 20
160
 11
-156.813
 21
159.665
  0
LINE
  8
0
 10
-156.813
 20
159.665
 11
-156.866
 21
159.334
  0
LINE
  8
0
 10
-156.866
 20
159.334
 11
-156.952
 21
159.01
  0
LINE
  8
0
 10
-156.952
 20
159.01
 11
-157.073
 21
158.697
  0
LINE
  8
0
 10
-157.073
 20
158.697
 11
-157.225
 21
158.398
  0
LINE
  8
0
 10
-157.225
 20
158.398
 11
-157.408
 21
158.117
  0
LINE
  8
0
 10
-157.408
 20
158.117
 11
-157.619
 21
157.856
  0
LINE
  8
0
 10
-157.619
 20
157.856
 11
-157.856
 21
157.619
  0
LINE
  8
0
 10
-157.856
 20
157.619
 11
-158.117
 21
157.408
  0
LINE
  8
0
 10
-158.117
 20
157.408
 11
-158.398
 21
157.225
  0
LINE
  8
0
 10
-158.398
 20
157.225
 11
-158.697
 21
157.073
  0
LINE
  8
0
 10
-158.697
 20
157.073
 11
-159.01
 21
156.952
  0
LINE
  8
0
 10
-159.01
 20
156.952
 11
-159.334
 21
156.866
  0
LINE
  8
0
 10
-159.334
 20
156.866
 11
-159.665
 21
156.813
  0
LINE
  8
0
 10
-159.665
 20
156.813
 11
-160
 21
156.796
  0
LINE
  8
0
 10
-160
 20
156.796
 11
-160.335
 21
156.813
  0
LINE
  8
0
 10
44.7533
 20
157.81
 11
44.5097
 21
157.852
  0
LINE
  8
0
 10
44.5097
 20
157.852
 11
44.2722
 21
157.92
  0
LINE
  8
0
 10
44.2722
 20
157.92
 11
44.0439
 21
158.015
  0
LINE
  8
0
 10
44.0439
 20
158.015
 11
43.8277
 21
158.134
  0
LINE
  8
0
 10
43.8277
 20
158.134
 11
43.6262
 21
158.277
  0
LINE
  8
0
 10
43.6262
 20
158.277
 11
43.4419
 21
158.442
  0
LINE
  8
0
 10
43.4419
 20
158.442
 11
43.2773
 21
158.626
  0
LINE
  8
0
 10
43.2773
 20
158.626
 11
43.1343
 21
158.828
  0
LINE
  8
0
 10
43.1343
 20
158.828
 11
43.0147
 21
159.044
  0
LINE
  8
0
 10
43.0147
 20
159.044
 11
42.9202
 21
159.272
  0
LINE
  8
0
 10
42.9202
 20
159.272
 11
42.8518
 21
159.51
  0
LINE
  8
0
 10
42.8518
 20
159.51
 11
42.8104
 21
159.753
  0
LINE
  8
0
 10
42.8104
 20
159.753
 11
42.7965
 21
160
  0
LINE
  8
0
 10
42.7965
 20
160
 11
42.8104
 21
160.247
  0
LINE
  8
0
 10
42.8104
 20
160.247
 11
42.8518
 21
160.49
  0
LINE
  8
0
 10
42.8518
 20
160.49
 11
42.9202
 21
160.728
  0
LINE
  8
0
 10
42.9202
 20
160.728
 11
43.0147
 21
160.956
  0
LINE
  8
0
 10
43.0147
 20
160.956
 11
43.1343
 21
161.172
  0
LINE
  8
0
 10
43.1343
 20
161.172
 11
43.2773
 21
161.374
  0
LINE
  8
0
 10
43.2773
 20
161.374
 11
43.4419
 21
161.558
  0
LINE
  8
0
 10
43.4419
 20
161.558
 11
43.6262
 21
161.723
  0
LINE
  8
0
 10
43.6262
 20
161.723
 11
43.8277
 21
161.866
  0
LINE
  8
0
 10
43.8277
 20
161.866
 11
44.0439
 21
161.985
  0
LINE
  8
0
 10
44.0439
 20
161.985
 11
44.2722
 21
162.08
  0
LINE
  8
0
 10
44.2722
 20
162.08
 11
44.5097
 21
162.148
  0
LINE
  8
0
 10
44.5097
 20
162.148
 11
44.7533
 21
162.19
  0
LINE
  8
0
 10
44.7533
 20
162.19
 11
45
 21
162.203
  0
LINE
  8
0
 10
45
 20
162.203
 11
45.2467
 21
162.19
  0
LINE
  8
0
 10
45.2467
 20
162.19
 11
45.4903
 21
162.148
  0
LINE
  8
0
 10
45.4903
 20
162.148
 11
45.7278
 21
162.08
  0
LINE
  8
0
 10
45.7278
 20
162.08
 11
45.956
 21
161.985
  0
LINE
  8
0
 10
45.956
 20
161.985
 11
46.1723
 21
161.866
  0
LINE
  8
0
 10
46.1723
 20
161.866
 11
46.3738
 21
161.723
  0
LINE
  8
0
 10
46.3738
 20
161.723
 11
46.5581
 21
161.558
  0
LINE
  8
0
 10
46.5581
 20
161.558
 11
46.7227
 21
161.374
  0
LINE
  8
0
 10
46.7227
 20
161.374
 11
46.8657
 21
161.172
  0
LINE
  8
0
 10
46.8657
 20
161.172
 11
46.9852
 21
160.956
  0
LINE
  8
0
 10
46.9852
 20
160.956
 11
47.0798
 21
160.728
  0
LINE
  8
0
 10
47.0798
 20
160.728
 11
47.1482
 21
160.49
  0
LINE
  8
0
 10
47.1482
 20
160.49
 11
47.1896
 21
160.247
  0
LINE
  8
0
 10
47.1896
 20
160.247
 11
47.2035
 21
160
  0
LINE
  8
0
 10
47.2035
 20
160
 11
47.1896
 21
159.753
  0
LINE
  8
0
 10
47.1896
 20
159.753
 11
47.1482
 21
159.51
  0
LINE
  8
0
 10
47.1482
 20
159.51
 11
47.0798
 21
159.272
  0
LINE
  8
0
 10
47.0798
 20
159.272
 11
46.9852
 21
159.044
  0
LINE
  8
0
 10
46.9852
 20
159.044
 11
46.8657
 21
158.828
  0
LINE
  8
0
 10
46.8657
 20
158.828
 11
46.7227
 21
158.626
  0
LINE
  8
0
 10
46.7227
 20
158.626
 11
46.5581
 21
158.442
  0
LINE
  8
0
 10
46.5581
 20
158.442
 11
46.3738
 21
158.277
  0
LINE
  8
0
 10
46.3738
 20
158.277
 11
46.1723
 21
158.134
  0
LINE
  8
0
 10
46.1723
 20
158.134
 11
45.956
 21
158.015
  0
LINE
  8
0
 10
45.956
 20
158.015
 11
45.7278
 21
157.92
  0
LINE
  8
0
 10
45.7278
 20
157.92
 11
45.4903
 21
157.852
  0
LINE
  8
0
 10
45.4903
 20
157.852
 11
45.2467
 21
157.81
  0
LINE
  8
0
 10
45.2467
 20
157.81
 11
45
 21
157.797
  0
LINE
  8
0
 10
45
 20
157.797
 11
44.7533
 21
157.81
  0
LINE
  8
0
 10
134.753
 20
157.81
 11
134.51
 21
157.852
  0
LINE
  8
0
 10
134.51
 20
157.852
 11
134.272
 21
157.92
  0
LINE
  8
0
 10
134.272
 20
157.92
 11
134.044
 21
158.015
  0
LINE
  8
0
 10
134.044
 20
158.015
 11
133.828
 21
158.134
  0
LINE
  8
0
 10
133.828
 20
158.134
 11
133.626
 21
158.277
  0
LINE
  8
0
 10
133.626
 20
158.277
 11
133.442
 21
158.442
  0
LINE
  8
0
 10
133.442
 20
158.442
 11
133.277
 21
158.626
  0
LINE
  8
0
 10
133.277
 20
158.626
 11
133.134
 21
158.828
  0
LINE
  8
0
 10
133.134
 20
158.828
 11
133.015
 21
159.044
  0
LINE
  8
0
 10
133.015
 20
159.044
 11
132.92
 21
159.272
  0
LINE
  8
0
 10
132.92
 20
159.272
 11
132.852
 21
159.51
  0
LINE
  8
0
 10
132.852
 20
159.51
 11
132.81
 21
159.753
  0
LINE
  8
0
 10
132.81
 20
159.753
 11
132.797
 21
160
  0
LINE
  8
0
 10
132.797
 20
160
 11
132.81
 21
160.247
  0
LINE
  8
0
 10
132.81
 20
160.247
 11
132.852
 21
160.49
  0
LINE
  8
0
 10
132.852
 20
160.49
 11
132.92
 21
160.728
  0
LINE
  8
0
 10
132.92
 20
160.728
 11
133.015
 21
160.956
  0
LINE
  8
0
 10
133.015
 20
160.956
 11
133.134
 21
161.172
  0
LINE
  8
0
 10
133.134
 20
161.172
 11
133.277
 21
161.374
  0
LINE
  8
0
 10
133.277
 20
161.374
 11
133.442
 21
161.558
  0
LINE
  8
0
 10
133.442
 20
161.558
 11
133.626
 21
161.723
  0
LINE
  8
0
 10
133.626
 20
161.723
 11
133.828
 21
161.866
  0
LINE
  8
0
 10
133.828
 20
161.866
 11
134.044
 21
161.985
  0
LINE
  8
0
 10
134.044
 20
161.985
 11
134.272
 21
162.08
  0
LINE
  8
0
 10
134.272
 20
162.08
 11
134.51
 21
162.148
  0
LINE
  8
0
 10
134.51
 20
162.148
 11
134.753
 21
162.19
  0
LINE
  8
0
 10
134.753
 20
162.19
 11
135
 21
162.203
  0
LINE
  8
0
 10
135
 20
162.203
 11
135.247
 21
162.19
  0
LINE
  8
0
 10
135.247
 20
162.19
 11
135.49
 21
162.148
  0
LINE
  8
0
 10
135.49
 20
162.148
 11
135.728
 21
162.08
  0
LINE
  8
0
 10
135.728
 20
162.08
 11
135.956
 21
161.985
  0
LINE
  8
0
 10
135.956
 20
161.985
 11
136.172
 21
161.866
  0
LINE
  8
0
 10
136.172
 20
161.866
 11
136.374
 21
161.723
  0
LINE
  8
0
 10
136.374
 20
161.723
 11
136.558
 21
161.558
  0
LINE
  8
0
 10
136.558
 20
161.558
 11
136.723
 21
161.374
  0
LINE
  8
0
 10
136.723
 20
161.374
 11
136.866
 21
161.172
  0
LINE
  8
0
 10
136.866
 20
161.172
 11
136.985
 21
160.956
  0
LINE
  8
0
 10
136.985
 20
160.956
 11
137.08
 21
160.728
  0
LINE
  8
0
 10
137.08
 20
160.728
 11
137.148
 21
160.49
  0
LINE
  8
0
 10
137.148
 20
160.49
 11
137.19
 21
160.247
  0
LINE
  8
0
 10
137.19
 20
160.247
 11
137.203
 21
160
  0
LINE
  8
0
 10
137.203
 20
160
 11
137.19
 21
159.753
  0
LINE
  8
0
 10
137.19
 20
159.753
 11
137.148
 21
159.51
  0
LINE
  8
0
 10
137.148
 20
159.51
 11
137.08
 21
159.272
  0
LINE
  8
0
 10
137.08
 20
159.272
 11
136.985
 21
159.044
  0
LINE
  8
0
 10
136.985
 20
159.044
 11
136.866
 21
158.828
  0
LINE
  8
0
 10
136.866
 20
158.828
 11
136.723
 21
158.626
  0
LINE
  8
0
 10
136.723
 20
158.626
 11
136.558
 21
158.442
  0
LINE
  8
0
 10
136.558
 20
158.442
 11
136.374
 21
158.277
  0
LINE
  8
0
 10
136.374
 20
158.277
 11
136.172
 21
158.134
  0
LINE
  8
0
 10
136.172
 20
158.134
 11
135.956
 21
158.015
  0
LINE
  8
0
 10
135.956
 20
158.015
 11
135.728
 21
157.92
  0
LINE
  8
0
 10
135.728
 20
157.92
 11
135.49
 21
157.852
  0
LINE
  8
0
 10
135.49
 20
157.852
 11
135.247
 21
157.81
  0
LINE
  8
0
 10
135.247
 20
157.81
 11
135
 21
157.797
  0
LINE
  8
0
 10
135
 20
157.797
 11
134.753
 21
157.81
  0
LINE
  8
0
 10
-135.247
 20
157.81
 11
-135.49
 21
157.852
  0
LINE
  8
0
 10
-135.49
 20
157.852
 11
-135.728
 21
157.92
  0
LINE
  8
0
 10
-135.728
 20
157.92
 11
-135.956
 21
158.015
  0
LINE
  8
0
 10
-135.956
 20
158.015
 11
-136.172
 21
158.134
  0
LINE
  8
0
 10
-136.172
 20
158.134
 11
-136.374
 21
158.277
  0
LINE
  8
0
 10
-136.374
 20
158.277
 11
-136.558
 21
158.442
  0
LINE
  8
0
 10
-136.558
 20
158.442
 11
-136.723
 21
158.626
  0
LINE
  8
0
 10
-136.723
 20
158.626
 11
-136.866
 21
158.828
  0
LINE
  8
0
 10
-136.866
 20
158.828
 11
-136.985
 21
159.044
  0
LINE
  8
0
 10
-136.985
 20
159.044
 11
-137.08
 21
159.272
  0
LINE
  8
0
 10
-137.08
 20
159.272
 11
-137.148
 21
159.51
  0
LINE
  8
0
 10
-137.148
 20
159.51
 11
-137.19
 21
159.753
  0
LINE
  8
0
 10
-137.19
 20
159.753
 11
-137.203
 21
160
  0
LINE
  8
0
 10
-137.203
 20
160
 11
-137.19
 21
160.247
  0
LINE
  8
0
 10
-137.19
 20
160.247
 11
-137.148
 21
160.49
  0
LINE
  8
0
 10
-137.148
 20
160.49
 11
-137.08
 21
160.728
  0
LINE
  8
0
 10
-137.08
 20
160.728
 11
-136.985
 21
160.956
  0
LINE
  8
0
 10
-136.985
 20
160.956
 11
-136.866
 21
161.172
  0
LINE
  8
0
 10
-136.866
 20
161.172
 11
-136.723
 21
161.374
  0
LINE
  8
0
 10
-136.723
 20
161.374
 11
-136.558
 21
161.558
  0
LINE
  8
0
 10
-136.558
 20
161.558
 11
-136.374
 21
161.723
  0
LINE
  8
0
 10
-136.374
 20
161.723
 11
-136.172
 21
161.866
  0
LINE
  8
0
 10
-136.172
 20
161.866
 11
-135.956
 21
161.985
  0
LINE
  8
0
 10
-135.956
 20
161.985
 11
-135.728
 21
162.08
  0
LINE
  8
0
 10
-135.728
 20
162.08
 11
-135.49
 21
162.148
  0
LINE
  8
0
 10
-135.49
 20
162.148
 11
-135.247
 21
162.19
  0
LINE
  8
0
 10
-135.247
 20
162.19
 11
-135
 21
162.203
  0
LINE
  8
0
 10
-135
 20
162.203
 11
-134.753
 21
162.19
  0
LINE
  8
0
 10
-134.753
 20
162.19
 11
-134.51
 21
162.148
  0
LINE
  8
0
 10
-134.51
 20
162.148
 11
-134.272
 21
162.08
  0
LINE
  8
0
 10
-134.272
 20
162.08
 11
-134.044
 21
161.985
  0
LINE
  8
0
 10
-134.044
 20
161.985
 11
-133.828
 21
161.866
  0
LINE
  8
0
 10
-133.828
 20
161.866
 11
-133.626
 21
161.723
  0
LINE
  8
0
 10
-133.626
 20
161.723
 11
-133.442
 21
161.558
  0
LINE
  8
0
 10
-133.442
 20
161.558
 11
-133.277
 21
161.374
  0
LINE
  8
0
 10
-133.277
 20
161.374
 11
-133.134
 21
161.172
  0
LINE
  8
0
 10
-133.134
 20
161.172
 11
-133.015
 21
160.956
  0
LINE
  8
0
 10
-133.015
 20
160.956
 11
-132.92
 21
160.728
  0
LINE
  8
0
 10
-132.92
 20
160.728
 11
-132.852
 21
160.49
  0
LINE
  8
0
 10
-132.852
 20
160.49
 11
-132.81
 21
160.247
  0
LINE
  8
0
 10
-132.81
 20
160.247
 11
-132.797
 21
160
  0
LINE
  8
0
 10
-132.797
 20
160
 11
-132.81
 21
159.753
  0
LINE
  8
0
 10
-132.81
 20
159.753
 11
-132.852
 21
159.51
  0
LINE
  8
0
 10
-132.852
 20
159.51
 11
-132.92
 21
159.272
  0
LINE
  8
0
 10
-132.92
 20
159.272
 11
-133.015
 21
159.044
  0
LINE
  8
0
 10
-133.015
 20
159.044
 11
-133.134
 21
158.828
  0
LINE
  8
0
 10
-133.134
 20
158.828
 11
-133.277
 21
158.626
  0
LINE
  8
0
 10
-133.277
 20
158.626
 11
-133.442
 21
158.442
  0
LINE
  8
0
 10
-133.442
 20
158.442
 11
-133.626
 21
158.277
  0
LINE
  8
0
 10
-133.626
 20
158.277
 11
-133.828
 21
158.134
  0
LINE
  8
0
 10
-133.828
 20
158.134
 11
-134.044
 21
158.015
  0
LINE
  8
0
 10
-134.044
 20
158.015
 11
-134.272
 21
157.92
  0
LINE
  8
0
 10
-134.272
 20
157.92
 11
-134.51
 21
157.852
  0
LINE
  8
0
 10
-134.51
 20
157.852
 11
-134.753
 21
157.81
  0
LINE
  8
0
 10
-134.753
 20
157.81
 11
-135
 21
157.797
  0
LINE
  8
0
 10
-135
 20
157.797
 11
-135.247
 21
157.81
  0
LINE
  8
0
 10
-45.2467
 20
157.81
 11
-45.4903
 21
157.852
  0
LINE
  8
0
 10
-45.4903
 20
157.852
 11
-45.7278
 21
157.92
  0
LINE
  8
0
 10
-45.7278
 20
157.92
 11
-45.9561
 21
158.015
  0
LINE
  8
0
 10
-45.9561
 20
158.015
 11
-46.1723
 21
158.134
  0
LINE
  8
0
 10
-46.1723
 20
158.134
 11
-46.3738
 21
158.277
  0
LINE
  8
0
 10
-46.3738
 20
158.277
 11
-46.5581
 21
158.442
  0
LINE
  8
0
 10
-46.5581
 20
158.442
 11
-46.7227
 21
158.626
  0
LINE
  8
0
 10
-46.7227
 20
158.626
 11
-46.8657
 21
158.828
  0
LINE
  8
0
 10
-46.8657
 20
158.828
 11
-46.9853
 21
159.044
  0
LINE
  8
0
 10
-46.9853
 20
159.044
 11
-47.0798
 21
159.272
  0
LINE
  8
0
 10
-47.0798
 20
159.272
 11
-47.1482
 21
159.51
  0
LINE
  8
0
 10
-47.1482
 20
159.51
 11
-47.1896
 21
159.753
  0
LINE
  8
0
 10
-47.1896
 20
159.753
 11
-47.2035
 21
160
  0
LINE
  8
0
 10
-47.2035
 20
160
 11
-47.1896
 21
160.247
  0
LINE
  8
0
 10
-47.1896
 20
160.247
 11
-47.1482
 21
160.49
  0
LINE
  8
0
 10
-47.1482
 20
160.49
 11
-47.0798
 21
160.728
  0
LINE
  8
0
 10
-47.0798
 20
160.728
 11
-46.9853
 21
160.956
  0
LINE
  8
0
 10
-46.9853
 20
160.956
 11
-46.8657
 21
161.172
  0
LINE
  8
0
 10
-46.8657
 20
161.172
 11
-46.7227
 21
161.374
  0
LINE
  8
0
 10
-46.7227
 20
161.374
 11
-46.5581
 21
161.558
  0
LINE
  8
0
 10
-46.5581
 20
161.558
 11
-46.3738
 21
161.723
  0
LINE
  8
0
 10
-46.3738
 20
161.723
 11
-46.1723
 21
161.866
  0
LINE
  8
0
 10
-46.1723
 20
161.866
 11
-45.9561
 21
161.985
  0
LINE
  8
0
 10
-45.9561
 20
161.985
 11
-45.7278
 21
162.08
  0
LINE
  8
0
 10
-45.7278
 20
162.08
 11
-45.4903
 21
162.148
  0
LINE
  8
0
 10
-45.4903
 20
162.148
 11
-45.2467
 21
162.19
  0
LINE
  8
0
 10
-45.2467
 20
162.19
 11
-45
 21
162.203
  0
LINE
  8
0
 10
-45
 20
162.203
 11
-44.7533
 21
162.19
  0
LINE
  8
0
 10
-44.7533
 20
162.19
 11
-44.5097
 21
162.148
  0
LINE
  8
0
 10
-44.5097
 20
162.148
 11
-44.2722
 21
162.08
  0
LINE
  8
0
 10
-44.2722
 20
162.08
 11
-44.044
 21
161.985
  0
LINE
  8
0
 10
-44.044
 20
161.985
 11
-43.8277
 21
161.866
  0
LINE
  8
0
 10
-43.8277
 20
161.866
 11
-43.6262
 21
161.723
  0
LINE
  8
0
 10
-43.6262
 20
161.723
 11
-43.4419
 21
161.558
  0
LINE
  8
0
 10
-43.4419
 20
161.558
 11
-43.2773
 21
161.374
  0
LINE
  8
0
 10
-43.2773
 20
161.374
 11
-43.1343
 21
161.172
  0
LINE
  8
0
 10
-43.1343
 20
161.172
 11
-43.0148
 21
160.956
  0
LINE
  8
0
 10
-43.0148
 20
160.956
 11
-42.9202
 21
160.728
  0
LINE
  8
0
 10
-42.9202
 20
160.728
 11
-42.8518
 21
160.49
  0
LINE
  8
0
 10
-42.8518
 20
160.49
 11
-42.8104
 21
160.247
  0
LINE
  8
0
 10
-42.8104
 20
160.247
 11
-42.7965
 21
160
  0
LINE
  8
0
 10
-42.7965
 20
160
 11
-42.8104
 21
159.753
  0
LINE
  8
0
 10
-42.8104
 20
159.753
 11
-42.8518
 21
159.51
  0
LINE
  8
0
 10
-42.8518
 20
159.51
 11
-42.9202
 21
159.272
  0
LINE
  8
0
 10
-42.9202
 20
159.272
 11
-43.0148
 21
159.044
  0
LINE
  8
0
 10
-43.0148
 20
159.044
 11
-43.1343
 21
158.828
  0
LINE
  8
0
 10
-43.1343
 20
158.828
 11
-43.2773
 21
158.626
  0
LINE
  8
0
 10
-43.2773
 20
158.626
 11
-43.4419
 21
158.442
  0
LINE
  8
0
 10
-43.4419
 20
158.442
 11
-43.6262
 21
158.277
  0
LINE
  8
0
 10
-43.6262
 20
158.277
 11
-43.8277
 21
158.134
  0
LINE
  8
0
 10
-43.8277
 20
158.134
 11
-44.044
 21
158.015
  0
LINE
  8
0
 10
-44.044
 20
158.015
 11
-44.2722
 21
157.92
  0
LINE
  8
0
 10
-44.2722
 20
157.92
 11
-44.5097
 21
157.852
  0
LINE
  8
0
 10
-44.5097
 20
157.852
 11
-44.7533
 21
157.81
  0
LINE
  8
0
 10
-44.7533
 20
157.81
 11
-45
 21
157.797
  0
LINE
  8
0
 10
-45
 20
157.797
 11
-45.2467
 21
157.81
  0
LINE
  8
0
 10
-160.247
 20
132.81
 11
-160.49
 21
132.852
  0
LINE
  8
0
 10
-160.49
 20
132.852
 11
-160.728
 21
132.92
  0
LINE
  8
0
 10
-160.728
 20
132.92
 11
-160.956
 21
133.015
  0
LINE
  8
0
 10
-160.956
 20
133.015
 11
-161.172
 21
133.134
  0
LINE
  8
0
 10
-161.172
 20
133.134
 11
-161.374
 21
133.277
  0
LINE
  8
0
 10
-161.374
 20
133.277
 11
-161.558
 21
133.442
  0
LINE
  8
0
 10
-161.558
 20
133.442
 11
-161.723
 21
133.626
  0
LINE
  8
0
 10
-161.723
 20
133.626
 11
-161.866
 21
133.828
  0
LINE
  8
0
 10
-161.866
 20
133.828
 11
-161.985
 21
134.044
  0
LINE
  8
0
 10
-161.985
 20
134.044
 11
-162.08
 21
134.272
  0
LINE
  8
0
 10
-162.08
 20
134.272
 11
-162.148
 21
134.51
  0
LINE
  8
0
 10
-162.148
 20
134.51
 11
-162.19
 21
134.753
  0
LINE
  8
0
 10
-162.19
 20
134.753
 11
-162.203
 21
135
  0
LINE
  8
0
 10
-162.203
 20
135
 11
-162.19
 21
135.247
  0
LINE
  8
0
 10
-162.19
 20
135.247
 11
-162.148
 21
135.49
  0
LINE
  8
0
 10
-162.148
 20
135.49
 11
-162.08
 21
135.728
  0
LINE
  8
0
 10
-162.08
 20
135.728
 11
-161.985
 21
135.956
  0
LINE
  8
0
 10
-161.985
 20
135.956
 11
-161.866
 21
136.172
  0
LINE
  8
0
 10
-161.866
 20
136.172
 11
-161.723
 21
136.374
  0
LINE
  8
0
 10
-161.723
 20
136.374
 11
-161.558
 21
136.558
  0
LINE
  8
0
 10
-161.558
 20
136.558
 11
-161.374
 21
136.723
  0
LINE
  8
0
 10
-161.374
 20
136.723
 11
-161.172
 21
136.866
  0
LINE
  8
0
 10
-161.172
 20
136.866
 11
-160.956
 21
136.985
  0
LINE
  8
0
 10
-160.956
 20
136.985
 11
-160.728
 21
137.08
  0
LINE
  8
0
 10
-160.728
 20
137.08
 11
-160.49
 21
137.148
  0
LINE
  8
0
 10
-160.49
 20
137.148
 11
-160.247
 21
137.19
  0
LINE
  8
0
 10
-160.247
 20
137.19
 11
-160
 21
137.203
  0
LINE
  8
0
 10
-160
 20
137.203
 11
-159.753
 21
137.19
  0
LINE
  8
0
 10
-159.753
 20
137.19
 11
-159.51
 21
137.148
  0
LINE
  8
0
 10
-159.51
 20
137.148
 11
-159.272
 21
137.08
  0
LINE
  8
0
 10
-159.272
 20
137.08
 11
-159.044
 21
136.985
  0
LINE
  8
0
 10
-159.044
 20
136.985
 11
-158.828
 21
136.866
  0
LINE
  8
0
 10
-158.828
 20
136.866
 11
-158.626
 21
136.723
  0
LINE
  8
0
 10
-158.626
 20
136.723
 11
-158.442
 21
136.558
  0
LINE
  8
0
 10
-158.442
 20
136.558
 11
-158.277
 21
136.374
  0
LINE
  8
0
 10
-158.277
 20
136.374
 11
-158.134
 21
136.172
  0
LINE
  8
0
 10
-158.134
 20
136.172
 11
-158.015
 21
135.956
  0
LINE
  8
0
 10
-158.015
 20
135.956
 11
-157.92
 21
135.728
  0
LINE
  8
0
 10
-157.92
 20
135.728
 11
-157.852
 21
135.49
  0
LINE
  8
0
 10
-157.852
 20
135.49
 11
-157.81
 21
135.247
  0
LINE
  8
0
 10
-157.81
 20
135.247
 11
-157.797
 21
135
  0
LINE
  8
0
 10
-157.797
 20
135
 11
-157.81
 21
134.753
  0
LINE
  8
0
 10
-157.81
 20
134.753
 11
-157.852
 21
134.51
  0
LINE
  8
0
 10
-157.852
 20
134.51
 11
-157.92
 21
134.272
  0
LINE
  8
0
 10
-157.92
 20
134.272
 11
-158.015
 21
134.044
  0
LINE
  8
0
 10
-158.015
 20
134.044
 11
-158.134
 21
133.828
  0
LINE
  8
0
 10
-158.134
 20
133.828
 11
-158.277
 21
133.626
  0
LINE
  8
0
 10
-158.277
 20
133.626
 11
-158.442
 21
133.442
  0
LINE
  8
0
 10
-158.442
 20
133.442
 11
-158.626
 21
133.277
  0
LINE
  8
0
 10
-158.626
 20
133.277
 11
-158.828
 21
133.134
  0
LINE
  8
0
 10
-158.828
 20
133.134
 11
-159.044
 21
133.015
  0
LINE
  8
0
 10
-159.044
 20
133.015
 11
-159.272
 21
132.92
  0
LINE
  8
0
 10
-159.272
 20
132.92
 11
-159.51
 21
132.852
  0
LINE
  8
0
 10
-159.51
 20
132.852
 11
-159.753
 21
132.81
  0
LINE
  8
0
 10
-159.753
 20
132.81
 11
-160
 21
132.797
  0
LINE
  8
0
 10
-160
 20
132.797
 11
-160.247
 21
132.81
  0
LINE
  8
0
 10
159.753
 20
132.81
 11
159.51
 21
132.852
  0
LINE
  8
0
 10
159.51
 20
132.852
 11
159.272
 21
132.92
  0
LINE
  8
0
 10
159.272
 20
132.92
 11
159.044
 21
133.015
  0
LINE
  8
0
 10
159.044
 20
133.015
 11
158.828
 21
133.134
  0
LINE
  8
0
 10
158.828
 20
133.134
 11
158.626
 21
133.277
  0
LINE
  8
0
 10
158.626
 20
133.277
 11
158.442
 21
133.442
  0
LINE
  8
0
 10
158.442
 20
133.442
 11
158.277
 21
133.626
  0
LINE
  8
0
 10
158.277
 20
133.626
 11
158.134
 21
133.828
  0
LINE
  8
0
 10
158.134
 20
133.828
 11
158.015
 21
134.044
  0
LINE
  8
0
 10
158.015
 20
134.044
 11
157.92
 21
134.272
  0
LINE
  8
0
 10
157.92
 20
134.272
 11
157.852
 21
134.51
  0
LINE
  8
0
 10
157.852
 20
134.51
 11
157.81
 21
134.753
  0
LINE
  8
0
 10
157.81
 20
134.753
 11
157.797
 21
135
  0
LINE
  8
0
 10
157.797
 20
135
 11
157.81
 21
135.247
  0
LINE
  8
0
 10
157.81
 20
135.247
 11
157.852
 21
135.49
  0
LINE
  8
0
 10
157.852
 20
135.49
 11
157.92
 21
135.728
  0
LINE
  8
0
 10
157.92
 20
135.728
 11
158.015
 21
135.956
  0
LINE
  8
0
 10
158.015
 20
135.956
 11
158.134
 21
136.172
  0
LINE
  8
0
 10
158.134
 20
136.172
 11
158.277
 21
136.374
  0
LINE
  8
0
 10
158.277
 20
136.374
 11
158.442
 21
136.558
  0
LINE
  8
0
 10
158.442
 20
136.558
 11
158.626
 21
136.723
  0
LINE
  8
0
 10
158.626
 20
136.723
 11
158.828
 21
136.866
  0
LINE
  8
0
 10
158.828
 20
136.866
 11
159.044
 21
136.985
  0
LINE
  8
0
 10
159.044
 20
136.985
 11
159.272
 21
137.08
  0
LINE
  8
0
 10
159.272
 20
137.08
 11
159.51
 21
137.148
  0
LINE
  8
0
 10
159.51
 20
137.148
 11
159.753
 21
137.19
  0
LINE
  8
0
 10
159.753
 20
137.19
 11
160
 21
137.203
  0
LINE
  8
0
 10
160
 20
137.203
 11
160.247
 21
137.19
  0
LINE
  8
0
 10
160.247
 20
137.19
 11
160.49
 21
137.148
  0
LINE
  8
0
 10
160.49
 20
137.148
 11
160.728
 21
137.08
  0
LINE
  8
0
 10
160.728
 20
137.08
 11
160.956
 21
136.985
  0
LINE
  8
0
 10
160.956
 20
136.985
 11
161.172
 21
136.866
  0
LINE
  8
0
 10
161.172
 20
136.866
 11
161.374
 21
136.723
  0
LINE
  8
0
 10
161.374
 20
136.723
 11
161.558
 21
136.558
  0
LINE
  8
0
 10
161.558
 20
136.558
 11
161.723
 21
136.374
  0
LINE
  8
0
 10
161.723
 20
136.374
 11
161.866
 21
136.172
  0
LINE
  8
0
 10
161.866
 20
136.172
 11
161.985
 21
135.956
  0
LINE
  8
0
 10
161.985
 20
135.956
 11
162.08
 21
135.728
  0
LINE
  8
0
 10
162.08
 20
135.728
 11
162.148
 21
135.49
  0
LINE
  8
0
 10
162.148
 20
135.49
 11
162.19
 21
135.247
  0
LINE
  8
0
 10
162.19
 20
135.247
 11
162.203
 21
135
  0
LINE
  8
0
 10
162.203
 20
135
 11
162.19
 21
134.753
  0
LINE
  8
0
 10
162.19
 20
134.753
 11
162.148
 21
134.51
  0
LINE
  8
0
 10
162.148
 20
134.51
 11
162.08
 21
134.272
  0
LINE
  8
0
 10
162.08
 20
134.272
 11
161.985
 21
134.044
  0
LINE
  8
0
 10
161.985
 20
134.044
 11
161.866
 21
133.828
  0
LINE
  8
0
 10
161.866
 20
133.828
 11
161.723
 21
133.626
  0
LINE
  8
0
 10
161.723
 20
133.626
 11
161.558
 21
133.442
  0
LINE
  8
0
 10
161.558
 20
133.442
 11
161.374
 21
133.277
  0
LINE
  8
0
 10
161.374
 20
133.277
 11
161.172
 21
133.134
  0
LINE
  8
0
 10
161.172
 20
133.134
 11
160.956
 21
133.015
  0
LINE
  8
0
 10
160.956
 20
133.015
 11
160.728
 21
132.92
  0
LINE
  8
0
 10
160.728
 20
132.92
 11
160.49
 21
132.852
  0
LINE
  8
0
 10
160.49
 20
132.852
 11
160.247
 21
132.81
  0
LINE
  8
0
 10
160.247
 20
132.81
 11
160
 21
132.797
  0
LINE
  8
0
 10
160
 20
132.797
 11
159.753
 21
132.81
  0
LINE
  8
0
 10
51.9534
 20
125.364
 11
51.7123
 21
125.419
  0
LINE
  8
0
 10
51.7123
 20
125.419
 11
51.4821
 21
125.509
  0
LINE
  8
0
 10
51.4821
 20
125.509
 11
51.2679
 21
125.633
  0
LINE
  8
0
 10
51.2679
 20
125.633
 11
51.0746
 21
125.787
  0
LINE
  8
0
 10
51.0746
 20
125.787
 11
50.9064
 21
125.968
  0
LINE
  8
0
 10
50.9064
 20
125.968
 11
50.767
 21
126.173
  0
LINE
  8
0
 10
50.767
 20
126.173
 11
50.6597
 21
126.395
  0
LINE
  8
0
 10
50.6597
 20
126.395
 11
50.5869
 21
126.632
  0
LINE
  8
0
 10
50.5869
 20
126.632
 11
50.55
 21
126.876
  0
LINE
  8
0
 10
50.55
 20
126.876
 11
50.55
 21
127.124
  0
LINE
  8
0
 10
50.55
 20
127.124
 11
50.5869
 21
127.368
  0
LINE
  8
0
 10
50.5869
 20
127.368
 11
50.6597
 21
127.604
  0
LINE
  8
0
 10
50.6597
 20
127.604
 11
50.767
 21
127.827
  0
LINE
  8
0
 10
50.767
 20
127.827
 11
50.9064
 21
128.032
  0
LINE
  8
0
 10
50.9064
 20
128.032
 11
51.0746
 21
128.213
  0
LINE
  8
0
 10
51.0746
 20
128.213
 11
51.2679
 21
128.367
  0
LINE
  8
0
 10
51.2679
 20
128.367
 11
51.4821
 21
128.491
  0
LINE
  8
0
 10
51.4821
 20
128.491
 11
51.7123
 21
128.581
  0
LINE
  8
0
 10
51.7123
 20
128.581
 11
51.9534
 21
128.636
  0
LINE
  8
0
 10
51.9534
 20
128.636
 11
52.2
 21
128.655
  0
LINE
  8
0
 10
52.2
 20
128.655
 11
52.4466
 21
128.636
  0
LINE
  8
0
 10
52.4466
 20
128.636
 11
52.6877
 21
128.581
  0
LINE
  8
0
 10
52.6877
 20
128.581
 11
52.9179
 21
128.491
  0
LINE
  8
0
 10
52.9179
 20
128.491
 11
53.1321
 21
128.367
  0
LINE
  8
0
 10
53.1321
 20
128.367
 11
53.3254
 21
128.213
  0
LINE
  8
0
 10
53.3254
 20
128.213
 11
53.4936
 21
128.032
  0
LINE
  8
0
 10
53.4936
 20
128.032
 11
53.6329
 21
127.827
  0
LINE
  8
0
 10
53.6329
 20
127.827
 11
53.7402
 21
127.604
  0
LINE
  8
0
 10
53.7402
 20
127.604
 11
53.8131
 21
127.368
  0
LINE
  8
0
 10
53.8131
 20
127.368
 11
53.85
 21
127.124
  0
LINE
  8
0
 10
53.85
 20
127.124
 11
53.85
 21
126.876
  0
LINE
  8
0
 10
53.85
 20
126.876
 11
53.8131
 21
126.632
  0
LINE
  8
0
 10
53.8131
 20
126.632
 11
53.7402
 21
126.395
  0
LINE
  8
0
 10
53.7402
 20
126.395
 11
53.6329
 21
126.173
  0
LINE
  8
0
 10
53.6329
 20
126.173
 11
53.4936
 21
125.968
  0
LINE
  8
0
 10
53.4936
 20
125.968
 11
53.3254
 21
125.787
  0
LINE
  8
0
 10
53.3254
 20
125.787
 11
53.1321
 21
125.633
  0
LINE
  8
0
 10
53.1321
 20
125.633
 11
52.9179
 21
125.509
  0
LINE
  8
0
 10
52.9179
 20
125.509
 11
52.6877
 21
125.419
  0
LINE
  8
0
 10
52.6877
 20
125.419
 11
52.4466
 21
125.364
  0
LINE
  8
0
 10
52.4466
 20
125.364
 11
52.2
 21
125.345
  0
LINE
  8
0
 10
52.2
 20
125.345
 11
51.9534
 21
125.364
  0
LINE
  8
0
 10
81.2534
 20
125.364
 11
81.0123
 21
125.419
  0
LINE
  8
0
 10
81.0123
 20
125.419
 11
80.7821
 21
125.509
  0
LINE
  8
0
 10
80.7821
 20
125.509
 11
80.5679
 21
125.633
  0
LINE
  8
0
 10
80.5679
 20
125.633
 11
80.3746
 21
125.787
  0
LINE
  8
0
 10
80.3746
 20
125.787
 11
80.2063
 21
125.968
  0
LINE
  8
0
 10
80.2063
 20
125.968
 11
80.067
 21
126.173
  0
LINE
  8
0
 10
80.067
 20
126.173
 11
79.9597
 21
126.395
  0
LINE
  8
0
 10
79.9597
 20
126.395
 11
79.8868
 21
126.632
  0
LINE
  8
0
 10
79.8868
 20
126.632
 11
79.85
 21
126.876
  0
LINE
  8
0
 10
79.85
 20
126.876
 11
79.85
 21
127.124
  0
LINE
  8
0
 10
79.85
 20
127.124
 11
79.8868
 21
127.368
  0
LINE
  8
0
 10
79.8868
 20
127.368
 11
79.9597
 21
127.604
  0
LINE
  8
0
 10
79.9597
 20
127.604
 11
80.067
 21
127.827
  0
LINE
  8
0
 10
80.067
 20
127.827
 11
80.2063
 21
128.032
  0
LINE
  8
0
 10
80.2063
 20
128.032
 11
80.3746
 21
128.213
  0
LINE
  8
0
 10
80.3746
 20
128.213
 11
80.5679
 21
128.367
  0
LINE
  8
0
 10
80.5679
 20
128.367
 11
80.7821
 21
128.491
  0
LINE
  8
0
 10
80.7821
 20
128.491
 11
81.0123
 21
128.581
  0
LINE
  8
0
 10
81.0123
 20
128.581
 11
81.2534
 21
128.636
  0
LINE
  8
0
 10
81.2534
 20
128.636
 11
81.5
 21
128.655
  0
LINE
  8
0
 10
81.5
 20
128.655
 11
81.7466
 21
128.636
  0
LINE
  8
0
 10
81.7466
 20
128.636
 11
81.9877
 21
128.581
  0
LINE
  8
0
 10
81.9877
 20
128.581
 11
82.2179
 21
128.491
  0
LINE
  8
0
 10
82.2179
 20
128.491
 11
82.4321
 21
128.367
  0
LINE
  8
0
 10
82.4321
 20
128.367
 11
82.6254
 21
128.213
  0
LINE
  8
0
 10
82.6254
 20
128.213
 11
82.7936
 21
128.032
  0
LINE
  8
0
 10
82.7936
 20
128.032
 11
82.9329
 21
127.827
  0
LINE
  8
0
 10
82.9329
 20
127.827
 11
83.0402
 21
127.604
  0
LINE
  8
0
 10
83.0402
 20
127.604
 11
83.1131
 21
127.368
  0
LINE
  8
0
 10
83.1131
 20
127.368
 11
83.15
 21
127.124
  0
LINE
  8
0
 10
83.15
 20
127.124
 11
83.15
 21
126.876
  0
LINE
  8
0
 10
83.15
 20
126.876
 11
83.1131
 21
126.632
  0
LINE
  8
0
 10
83.1131
 20
126.632
 11
83.0402
 21
126.395
  0
LINE
  8
0
 10
83.0402
 20
126.395
 11
82.9329
 21
126.173
  0
LINE
  8
0
 10
82.9329
 20
126.173
 11
82.7936
 21
125.968
  0
LINE
  8
0
 10
82.7936
 20
125.968
 11
82.6254
 21
125.787
  0
LINE
  8
0
 10
82.6254
 20
125.787
 11
82.4321
 21
125.633
  0
LINE
  8
0
 10
82.4321
 20
125.633
 11
82.2179
 21
125.509
  0
LINE
  8
0
 10
82.2179
 20
125.509
 11
81.9877
 21
125.419
  0
LINE
  8
0
 10
81.9877
 20
125.419
 11
81.7466
 21
125.364
  0
LINE
  8
0
 10
81.7466
 20
125.364
 11
81.5
 21
125.345
  0
LINE
  8
0
 10
81.5
 20
125.345
 11
81.2534
 21
125.364
  0
LINE
  8
0
 10
27.2533
 20
123.81
 11
27.0097
 21
123.852
  0
LINE
  8
0
 10
27.0097
 20
123.852
 11
26.7722
 21
123.92
  0
LINE
  8
0
 10
26.7722
 20
123.92
 11
26.5439
 21
124.015
  0
LINE
  8
0
 10
26.5439
 20
124.015
 11
26.3277
 21
124.134
  0
LINE
  8
0
 10
26.3277
 20
124.134
 11
26.1262
 21
124.277
  0
LINE
  8
0
 10
26.1262
 20
124.277
 11
25.9419
 21
124.442
  0
LINE
  8
0
 10
25.9419
 20
124.442
 11
25.7773
 21
124.626
  0
LINE
  8
0
 10
25.7773
 20
124.626
 11
25.6343
 21
124.828
  0
LINE
  8
0
 10
25.6343
 20
124.828
 11
25.5147
 21
125.044
  0
LINE
  8
0
 10
25.5147
 20
125.044
 11
25.4202
 21
125.272
  0
LINE
  8
0
 10
25.4202
 20
125.272
 11
25.3518
 21
125.51
  0
LINE
  8
0
 10
25.3518
 20
125.51
 11
25.3104
 21
125.753
  0
LINE
  8
0
 10
25.3104
 20
125.753
 11
25.2965
 21
126
  0
LINE
  8
0
 10
25.2965
 20
126
 11
25.3104
 21
126.247
  0
LINE
  8
0
 10
25.3104
 20
126.247
 11
25.3518
 21
126.49
  0
LINE
  8
0
 10
25.3518
 20
126.49
 11
25.4202
 21
126.728
  0
LINE
  8
0
 10
25.4202
 20
126.728
 11
25.5147
 21
126.956
  0
LINE
  8
0
 10
25.5147
 20
126.956
 11
25.6343
 21
127.172
  0
LINE
  8
0
 10
25.6343
 20
127.172
 11
25.7773
 21
127.374
  0
LINE
  8
0
 10
25.7773
 20
127.374
 11
25.9419
 21
127.558
  0
LINE
  8
0
 10
25.9419
 20
127.558
 11
26.1262
 21
127.723
  0
LINE
  8
0
 10
26.1262
 20
127.723
 11
26.3277
 21
127.866
  0
LINE
  8
0
 10
26.3277
 20
127.866
 11
26.5439
 21
127.985
  0
LINE
  8
0
 10
26.5439
 20
127.985
 11
26.7722
 21
128.08
  0
LINE
  8
0
 10
26.7722
 20
128.08
 11
27.0097
 21
128.148
  0
LINE
  8
0
 10
27.0097
 20
128.148
 11
27.2533
 21
128.19
  0
LINE
  8
0
 10
27.2533
 20
128.19
 11
27.5
 21
128.203
  0
LINE
  8
0
 10
27.5
 20
128.203
 11
27.7467
 21
128.19
  0
LINE
  8
0
 10
27.7467
 20
128.19
 11
27.9903
 21
128.148
  0
LINE
  8
0
 10
27.9903
 20
128.148
 11
28.2278
 21
128.08
  0
LINE
  8
0
 10
28.2278
 20
128.08
 11
28.456
 21
127.985
  0
LINE
  8
0
 10
28.456
 20
127.985
 11
28.6723
 21
127.866
  0
LINE
  8
0
 10
28.6723
 20
127.866
 11
28.8738
 21
127.723
  0
LINE
  8
0
 10
28.8738
 20
127.723
 11
29.0581
 21
127.558
  0
LINE
  8
0
 10
29.0581
 20
127.558
 11
29.2227
 21
127.374
  0
LINE
  8
0
 10
29.2227
 20
127.374
 11
29.3657
 21
127.172
  0
LINE
  8
0
 10
29.3657
 20
127.172
 11
29.4852
 21
126.956
  0
LINE
  8
0
 10
29.4852
 20
126.956
 11
29.5798
 21
126.728
  0
LINE
  8
0
 10
29.5798
 20
126.728
 11
29.6482
 21
126.49
  0
LINE
  8
0
 10
29.6482
 20
126.49
 11
29.6896
 21
126.247
  0
LINE
  8
0
 10
29.6896
 20
126.247
 11
29.7035
 21
126
  0
LINE
  8
0
 10
29.7035
 20
126
 11
29.6896
 21
125.753
  0
LINE
  8
0
 10
29.6896
 20
125.753
 11
29.6482
 21
125.51
  0
LINE
  8
0
 10
29.6482
 20
125.51
 11
29.5798
 21
125.272
  0
LINE
  8
0
 10
29.5798
 20
125.272
 11
29.4852
 21
125.044
  0
LINE
  8
0
 10
29.4852
 20
125.044
 11
29.3657
 21
124.828
  0
LINE
  8
0
 10
29.3657
 20
124.828
 11
29.2227
 21
124.626
  0
LINE
  8
0
 10
29.2227
 20
124.626
 11
29.0581
 21
124.442
  0
LINE
  8
0
 10
29.0581
 20
124.442
 11
28.8738
 21
124.277
  0
LINE
  8
0
 10
28.8738
 20
124.277
 11
28.6723
 21
124.134
  0
LINE
  8
0
 10
28.6723
 20
124.134
 11
28.456
 21
124.015
  0
LINE
  8
0
 10
28.456
 20
124.015
 11
28.2278
 21
123.92
  0
LINE
  8
0
 10
28.2278
 20
123.92
 11
27.9903
 21
123.852
  0
LINE
  8
0
 10
27.9903
 20
123.852
 11
27.7467
 21
123.81
  0
LINE
  8
0
 10
27.7467
 20
123.81
 11
27.5
 21
123.797
  0
LINE
  8
0
 10
27.5
 20
123.797
 11
27.2533
 21
123.81
  0
LINE
  8
0
 10
141.253
 20
54.8638
 11
141.012
 21
54.9189
  0
LINE
  8
0
 10
141.012
 20
54.9189
 11
140.782
 21
55.0092
  0
LINE
  8
0
 10
140.782
 20
55.0092
 11
140.568
 21
55.1329
  0
LINE
  8
0
 10
140.568
 20
55.1329
 11
140.375
 21
55.2871
  0
LINE
  8
0
 10
140.375
 20
55.2871
 11
140.206
 21
55.4684
  0
LINE
  8
0
 10
140.206
 20
55.4684
 11
140.067
 21
55.6727
  0
LINE
  8
0
 10
140.067
 20
55.6727
 11
139.96
 21
55.8955
  0
LINE
  8
0
 10
139.96
 20
55.8955
 11
139.887
 21
56.1318
  0
LINE
  8
0
 10
139.887
 20
56.1318
 11
139.85
 21
56.3763
  0
LINE
  8
0
 10
139.85
 20
56.3763
 11
139.85
 21
56.6236
  0
LINE
  8
0
 10
139.85
 20
56.6236
 11
139.887
 21
56.8682
  0
LINE
  8
0
 10
139.887
 20
56.8682
 11
139.96
 21
57.1045
  0
LINE
  8
0
 10
139.96
 20
57.1045
 11
140.067
 21
57.3273
  0
LINE
  8
0
 10
140.067
 20
57.3273
 11
140.206
 21
57.5316
  0
LINE
  8
0
 10
140.206
 20
57.5316
 11
140.375
 21
57.7129
  0
LINE
  8
0
 10
140.375
 20
57.7129
 11
140.568
 21
57.8671
  0
LINE
  8
0
 10
140.568
 20
57.8671
 11
140.782
 21
57.9908
  0
LINE
  8
0
 10
140.782
 20
57.9908
 11
141.012
 21
58.0811
  0
LINE
  8
0
 10
141.012
 20
58.0811
 11
141.253
 21
58.1361
  0
LINE
  8
0
 10
141.253
 20
58.1361
 11
141.5
 21
58.1546
  0
LINE
  8
0
 10
141.5
 20
58.1546
 11
141.747
 21
58.1361
  0
LINE
  8
0
 10
141.747
 20
58.1361
 11
141.988
 21
58.0811
  0
LINE
  8
0
 10
141.988
 20
58.0811
 11
142.218
 21
57.9908
  0
LINE
  8
0
 10
142.218
 20
57.9908
 11
142.432
 21
57.8671
  0
LINE
  8
0
 10
142.432
 20
57.8671
 11
142.625
 21
57.7129
  0
LINE
  8
0
 10
142.625
 20
57.7129
 11
142.794
 21
57.5316
  0
LINE
  8
0
 10
142.794
 20
57.5316
 11
142.933
 21
57.3273
  0
LINE
  8
0
 10
142.933
 20
57.3273
 11
143.04
 21
57.1045
  0
LINE
  8
0
 10
143.04
 20
57.1045
 11
143.113
 21
56.8682
  0
LINE
  8
0
 10
143.113
 20
56.8682
 11
143.15
 21
56.6236
  0
LINE
  8
0
 10
143.15
 20
56.6236
 11
143.15
 21
56.3763
  0
LINE
  8
0
 10
143.15
 20
56.3763
 11
143.113
 21
56.1318
  0
LINE
  8
0
 10
143.113
 20
56.1318
 11
143.04
 21
55.8955
  0
LINE
  8
0
 10
143.04
 20
55.8955
 11
142.933
 21
55.6727
  0
LINE
  8
0
 10
142.933
 20
55.6727
 11
142.794
 21
55.4684
  0
LINE
  8
0
 10
142.794
 20
55.4684
 11
142.625
 21
55.2871
  0
LINE
  8
0
 10
142.625
 20
55.2871
 11
142.432
 21
55.1329
  0
LINE
  8
0
 10
142.432
 20
55.1329
 11
142.218
 21
55.0092
  0
LINE
  8
0
 10
142.218
 20
55.0092
 11
141.988
 21
54.9189
  0
LINE
  8
0
 10
141.988
 20
54.9189
 11
141.747
 21
54.8638
  0
LINE
  8
0
 10
141.747
 20
54.8638
 11
141.5
 21
54.8454
  0
LINE
  8
0
 10
141.5
 20
54.8454
 11
141.253
 21
54.8638
  0
LINE
  8
0
 10
92.2534
 20
54.8638
 11
92.0123
 21
54.9189
  0
LINE
  8
0
 10
92.0123
 20
54.9189
 11
91.7821
 21
55.0092
  0
LINE
  8
0
 10
91.7821
 20
55.0092
 11
91.5679
 21
55.1329
  0
LINE
  8
0
 10
91.5679
 20
55.1329
 11
91.3746
 21
55.2871
  0
LINE
  8
0
 10
91.3746
 20
55.2871
 11
91.2064
 21
55.4684
  0
LINE
  8
0
 10
91.2064
 20
55.4684
 11
91.0671
 21
55.6727
  0
LINE
  8
0
 10
91.0671
 20
55.6727
 11
90.9598
 21
55.8955
  0
LINE
  8
0
 10
90.9598
 20
55.8955
 11
90.8869
 21
56.1318
  0
LINE
  8
0
 10
90.8869
 20
56.1318
 11
90.85
 21
56.3763
  0
LINE
  8
0
 10
90.85
 20
56.3763
 11
90.85
 21
56.6236
  0
LINE
  8
0
 10
90.85
 20
56.6236
 11
90.8869
 21
56.8682
  0
LINE
  8
0
 10
90.8869
 20
56.8682
 11
90.9598
 21
57.1045
  0
LINE
  8
0
 10
90.9598
 20
57.1045
 11
91.0671
 21
57.3273
  0
LINE
  8
0
 10
91.0671
 20
57.3273
 11
91.2064
 21
57.5316
  0
LINE
  8
0
 10
91.2064
 20
57.5316
 11
91.3746
 21
57.7129
  0
LINE
  8
0
 10
91.3746
 20
57.7129
 11
91.5679
 21
57.8671
  0
LINE
  8
0
 10
91.5679
 20
57.8671
 11
91.7821
 21
57.9908
  0
LINE
  8
0
 10
91.7821
 20
57.9908
 11
92.0123
 21
58.0811
  0
LINE
  8
0
 10
92.0123
 20
58.0811
 11
92.2534
 21
58.1361
  0
LINE
  8
0
 10
92.2534
 20
58.1361
 11
92.5
 21
58.1546
  0
LINE
  8
0
 10
92.5
 20
58.1546
 11
92.7466
 21
58.1361
  0
LINE
  8
0
 10
92.7466
 20
58.1361
 11
92.9877
 21
58.0811
  0
LINE
  8
0
 10
92.9877
 20
58.0811
 11
93.2179
 21
57.9908
  0
LINE
  8
0
 10
93.2179
 20
57.9908
 11
93.4321
 21
57.8671
  0
LINE
  8
0
 10
93.4321
 20
57.8671
 11
93.6254
 21
57.7129
  0
LINE
  8
0
 10
93.6254
 20
57.7129
 11
93.7936
 21
57.5316
  0
LINE
  8
0
 10
93.7936
 20
57.5316
 11
93.933
 21
57.3273
  0
LINE
  8
0
 10
93.933
 20
57.3273
 11
94.0403
 21
57.1045
  0
LINE
  8
0
 10
94.0403
 20
57.1045
 11
94.1131
 21
56.8682
  0
LINE
  8
0
 10
94.1131
 20
56.8682
 11
94.15
 21
56.6236
  0
LINE
  8
0
 10
94.15
 20
56.6236
 11
94.15
 21
56.3763
  0
LINE
  8
0
 10
94.15
 20
56.3763
 11
94.1131
 21
56.1318
  0
LINE
  8
0
 10
94.1131
 20
56.1318
 11
94.0403
 21
55.8955
  0
LINE
  8
0
 10
94.0403
 20
55.8955
 11
93.933
 21
55.6727
  0
LINE
  8
0
 10
93.933
 20
55.6727
 11
93.7936
 21
55.4684
  0
LINE
  8
0
 10
93.7936
 20
55.4684
 11
93.6254
 21
55.2871
  0
LINE
  8
0
 10
93.6254
 20
55.2871
 11
93.4321
 21
55.1329
  0
LINE
  8
0
 10
93.4321
 20
55.1329
 11
93.2179
 21
55.0092
  0
LINE
  8
0
 10
93.2179
 20
55.0092
 11
92.9877
 21
54.9189
  0
LINE
  8
0
 10
92.9877
 20
54.9189
 11
92.7466
 21
54.8638
  0
LINE
  8
0
 10
92.7466
 20
54.8638
 11
92.5
 21
54.8454
  0
LINE
  8
0
 10
92.5
 20
54.8454
 11
92.2534
 21
54.8638
  0
LINE
  8
0
 10
81.2534
 20
50.9639
 11
81.0123
 21
51.0189
  0
LINE
  8
0
 10
81.0123
 20
51.0189
 11
80.7821
 21
51.1092
  0
LINE
  8
0
 10
80.7821
 20
51.1092
 11
80.5679
 21
51.2329
  0
LINE
  8
0
 10
80.5679
 20
51.2329
 11
80.3746
 21
51.3871
  0
LINE
  8
0
 10
80.3746
 20
51.3871
 11
80.2063
 21
51.5684
  0
LINE
  8
0
 10
80.2063
 20
51.5684
 11
80.067
 21
51.7727
  0
LINE
  8
0
 10
80.067
 20
51.7727
 11
79.9597
 21
51.9955
  0
LINE
  8
0
 10
79.9597
 20
51.9955
 11
79.8868
 21
52.2318
  0
LINE
  8
0
 10
79.8868
 20
52.2318
 11
79.85
 21
52.4763
  0
LINE
  8
0
 10
79.85
 20
52.4763
 11
79.85
 21
52.7236
  0
LINE
  8
0
 10
79.85
 20
52.7236
 11
79.8868
 21
52.9682
  0
LINE
  8
0
 10
79.8868
 20
52.9682
 11
79.9597
 21
53.2045
  0
LINE
  8
0
 10
79.9597
 20
53.2045
 11
80.067
 21
53.4273
  0
LINE
  8
0
 10
80.067
 20
53.4273
 11
80.2063
 21
53.6316
  0
LINE
  8
0
 10
80.2063
 20
53.6316
 11
80.3746
 21
53.8129
  0
LINE
  8
0
 10
80.3746
 20
53.8129
 11
80.5679
 21
53.9671
  0
LINE
  8
0
 10
80.5679
 20
53.9671
 11
80.7821
 21
54.0908
  0
LINE
  8
0
 10
80.7821
 20
54.0908
 11
81.0123
 21
54.1811
  0
LINE
  8
0
 10
81.0123
 20
54.1811
 11
81.2534
 21
54.2361
  0
LINE
  8
0
 10
81.2534
 20
54.2361
 11
81.5
 21
54.2546
  0
LINE
  8
0
 10
81.5
 20
54.2546
 11
81.7466
 21
54.2361
  0
LINE
  8
0
 10
81.7466
 20
54.2361
 11
81.9877
 21
54.1811
  0
LINE
  8
0
 10
81.9877
 20
54.1811
 11
82.2179
 21
54.0908
  0
LINE
  8
0
 10
82.2179
 20
54.0908
 11
82.4321
 21
53.9671
  0
LINE
  8
0
 10
82.4321
 20
53.9671
 11
82.6254
 21
53.8129
  0
LINE
  8
0
 10
82.6254
 20
53.8129
 11
82.7936
 21
53.6316
  0
LINE
  8
0
 10
82.7936
 20
53.6316
 11
82.9329
 21
53.4273
  0
LINE
  8
0
 10
82.9329
 20
53.4273
 11
83.0402
 21
53.2045
  0
LINE
  8
0
 10
83.0402
 20
53.2045
 11
83.1131
 21
52.9682
  0
LINE
  8
0
 10
83.1131
 20
52.9682
 11
83.15
 21
52.7236
  0
LINE
  8
0
 10
83.15
 20
52.7236
 11
83.15
 21
52.4763
  0
LINE
  8
0
 10
83.15
 20
52.4763
 11
83.1131
 21
52.2318
  0
LINE
  8
0
 10
83.1131
 20
52.2318
 11
83.0402
 21
51.9955
  0
LINE
  8
0
 10
83.0402
 20
51.9955
 11
82.9329
 21
51.7727
  0
LINE
  8
0
 10
82.9329
 20
51.7727
 11
82.7936
 21
51.5684
  0
LINE
  8
0
 10
82.7936
 20
51.5684
 11
82.6254
 21
51.3871
  0
LINE
  8
0
 10
82.6254
 20
51.3871
 11
82.4321
 21
51.2329
  0
LINE
  8
0
 10
82.4321
 20
51.2329
 11
82.2179
 21
51.1092
  0
LINE
  8
0
 10
82.2179
 20
51.1092
 11
81.9877
 21
51.0189
  0
LINE
  8
0
 10
81.9877
 20
51.0189
 11
81.7466
 21
50.9639
  0
LINE
  8
0
 10
81.7466
 20
50.9639
 11
81.5
 21
50.9454
  0
LINE
  8
0
 10
81.5
 20
50.9454
 11
81.2534
 21
50.9639
  0
LINE
  8
0
 10
51.9534
 20
50.9639
 11
51.7123
 21
51.0189
  0
LINE
  8
0
 10
51.7123
 20
51.0189
 11
51.4821
 21
51.1092
  0
LINE
  8
0
 10
51.4821
 20
51.1092
 11
51.2679
 21
51.2329
  0
LINE
  8
0
 10
51.2679
 20
51.2329
 11
51.0746
 21
51.3871
  0
LINE
  8
0
 10
51.0746
 20
51.3871
 11
50.9064
 21
51.5684
  0
LINE
  8
0
 10
50.9064
 20
51.5684
 11
50.767
 21
51.7727
  0
LINE
  8
0
 10
50.767
 20
51.7727
 11
50.6597
 21
51.9955
  0
LINE
  8
0
 10
50.6597
 20
51.9955
 11
50.5869
 21
52.2318
  0
LINE
  8
0
 10
50.5869
 20
52.2318
 11
50.55
 21
52.4763
  0
LINE
  8
0
 10
50.55
 20
52.4763
 11
50.55
 21
52.7236
  0
LINE
  8
0
 10
50.55
 20
52.7236
 11
50.5869
 21
52.9682
  0
LINE
  8
0
 10
50.5869
 20
52.9682
 11
50.6597
 21
53.2045
  0
LINE
  8
0
 10
50.6597
 20
53.2045
 11
50.767
 21
53.4273
  0
LINE
  8
0
 10
50.767
 20
53.4273
 11
50.9064
 21
53.6316
  0
LINE
  8
0
 10
50.9064
 20
53.6316
 11
51.0746
 21
53.8129
  0
LINE
  8
0
 10
51.0746
 20
53.8129
 11
51.2679
 21
53.9671
  0
LINE
  8
0
 10
51.2679
 20
53.9671
 11
51.4821
 21
54.0908
  0
LINE
  8
0
 10
51.4821
 20
54.0908
 11
51.7123
 21
54.1811
  0
LINE
  8
0
 10
51.7123
 20
54.1811
 11
51.9534
 21
54.2361
  0
LINE
  8
0
 10
51.9534
 20
54.2361
 11
52.2
 21
54.2546
  0
LINE
  8
0
 10
52.2
 20
54.2546
 11
52.4466
 21
54.2361
  0
LINE
  8
0
 10
52.4466
 20
54.2361
 11
52.6877
 21
54.1811
  0
LINE
  8
0
 10
52.6877
 20
54.1811
 11
52.9179
 21
54.0908
  0
LINE
  8
0
 10
52.9179
 20
54.0908
 11
53.1321
 21
53.9671
  0
LINE
  8
0
 10
53.1321
 20
53.9671
 11
53.3254
 21
53.8129
  0
LINE
  8
0
 10
53.3254
 20
53.8129
 11
53.4936
 21
53.6316
  0
LINE
  8
0
 10
53.4936
 20
53.6316
 11
53.6329
 21
53.4273
  0
LINE
  8
0
 10
53.6329
 20
53.4273
 11
53.7402
 21
53.2045
  0
LINE
  8
0
 10
53.7402
 20
53.2045
 11
53.8131
 21
52.9682
  0
LINE
  8
0
 10
53.8131
 20
52.9682
 11
53.85
 21
52.7236
  0
LINE
  8
0
 10
53.85
 20
52.7236
 11
53.85
 21
52.4763
  0
LINE
  8
0
 10
53.85
 20
52.4763
 11
53.8131
 21
52.2318
  0
LINE
  8
0
 10
53.8131
 20
52.2318
 11
53.7402
 21
51.9955
  0
LINE
  8
0
 10
53.7402
 20
51.9955
 11
53.6329
 21
51.7727
  0
LINE
  8
0
 10
53.6329
 20
51.7727
 11
53.4936
 21
51.5684
  0
LINE
  8
0
 10
53.4936
 20
51.5684
 11
53.3254
 21
51.3871
  0
LINE
  8
0
 10
53.3254
 20
51.3871
 11
53.1321
 21
51.2329
  0
LINE
  8
0
 10
53.1321
 20
51.2329
 11
52.9179
 21
51.1092
  0
LINE
  8
0
 10
52.9179
 20
51.1092
 11
52.6877
 21
51.0189
  0
LINE
  8
0
 10
52.6877
 20
51.0189
 11
52.4466
 21
50.9639
  0
LINE
  8
0
 10
52.4466
 20
50.9639
 11
52.2
 21
50.9454
  0
LINE
  8
0
 10
52.2
 20
50.9454
 11
51.9534
 21
50.9639
  0
LINE
  8
0
 10
159.753
 20
42.8104
 11
159.51
 21
42.8518
  0
LINE
  8
0
 10
159.51
 20
42.8518
 11
159.272
 21
42.9202
  0
LINE
  8
0
 10
159.272
 20
42.9202
 11
159.044
 21
43.0147
  0
LINE
  8
0
 10
159.044
 20
43.0147
 11
158.828
 21
43.1343
  0
LINE
  8
0
 10
158.828
 20
43.1343
 11
158.626
 21
43.2773
  0
LINE
  8
0
 10
158.626
 20
43.2773
 11
158.442
 21
43.4419
  0
LINE
  8
0
 10
158.442
 20
43.4419
 11
158.277
 21
43.6262
  0
LINE
  8
0
 10
158.277
 20
43.6262
 11
158.134
 21
43.8277
  0
LINE
  8
0
 10
158.134
 20
43.8277
 11
158.015
 21
44.0439
  0
LINE
  8
0
 10
158.015
 20
44.0439
 11
157.92
 21
44.2722
  0
LINE
  8
0
 10
157.92
 20
44.2722
 11
157.852
 21
44.5097
  0
LINE
  8
0
 10
157.852
 20
44.5097
 11
157.81
 21
44.7533
  0
LINE
  8
0
 10
157.81
 20
44.7533
 11
157.797
 21
45
  0
LINE
  8
0
 10
157.797
 20
45
 11
157.81
 21
45.2467
  0
LINE
  8
0
 10
157.81
 20
45.2467
 11
157.852
 21
45.4903
  0
LINE
  8
0
 10
157.852
 20
45.4903
 11
157.92
 21
45.7278
  0
LINE
  8
0
 10
157.92
 20
45.7278
 11
158.015
 21
45.956
  0
LINE
  8
0
 10
158.015
 20
45.956
 11
158.134
 21
46.1723
  0
LINE
  8
0
 10
158.134
 20
46.1723
 11
158.277
 21
46.3738
  0
LINE
  8
0
 10
158.277
 20
46.3738
 11
158.442
 21
46.5581
  0
LINE
  8
0
 10
158.442
 20
46.5581
 11
158.626
 21
46.7227
  0
LINE
  8
0
 10
158.626
 20
46.7227
 11
158.828
 21
46.8657
  0
LINE
  8
0
 10
158.828
 20
46.8657
 11
159.044
 21
46.9852
  0
LINE
  8
0
 10
159.044
 20
46.9852
 11
159.272
 21
47.0798
  0
LINE
  8
0
 10
159.272
 20
47.0798
 11
159.51
 21
47.1482
  0
LINE
  8
0
 10
159.51
 20
47.1482
 11
159.753
 21
47.1896
  0
LINE
  8
0
 10
159.753
 20
47.1896
 11
160
 21
47.2035
  0
LINE
  8
0
 10
160
 20
47.2035
 11
160.247
 21
47.1896
  0
LINE
  8
0
 10
160.247
 20
47.1896
 11
160.49
 21
47.1482
  0
LINE
  8
0
 10
160.49
 20
47.1482
 11
160.728
 21
47.0798
  0
LINE
  8
0
 10
160.728
 20
47.0798
 11
160.956
 21
46.9852
  0
LINE
  8
0
 10
160.956
 20
46.9852
 11
161.172
 21
46.8657
  0
LINE
  8
0
 10
161.172
 20
46.8657
 11
161.374
 21
46.7227
  0
LINE
  8
0
 10
161.374
 20
46.7227
 11
161.558
 21
46.5581
  0
LINE
  8
0
 10
161.558
 20
46.5581
 11
161.723
 21
46.3738
  0
LINE
  8
0
 10
161.723
 20
46.3738
 11
161.866
 21
46.1723
  0
LINE
  8
0
 10
161.866
 20
46.1723
 11
161.985
 21
45.956
  0
LINE
  8
0
 10
161.985
 20
45.956
 11
162.08
 21
45.7278
  0
LINE
  8
0
 10
162.08
 20
45.7278
 11
162.148
 21
45.4903
  0
LINE
  8
0
 10
162.148
 20
45.4903
 11
162.19
 21
45.2467
  0
LINE
  8
0
 10
162.19
 20
45.2467
 11
162.203
 21
45
  0
LINE
  8
0
 10
162.203
 20
45
 11
162.19
 21
44.7533
  0
LINE
  8
0
 10
162.19
 20
44.7533
 11
162.148
 21
44.5097
  0
LINE
  8
0
 10
162.148
 20
44.5097
 11
162.08
 21
44.2722
  0
LINE
  8
0
 10
162.08
 20
44.2722
 11
161.985
 21
44.0439
  0
LINE
  8
0
 10
161.985
 20
44.0439
 11
161.866
 21
43.8277
  0
LINE
  8
0
 10
161.866
 20
43.8277
 11
161.723
 21
43.6262
  0
LINE
  8
0
 10
161.723
 20
43.6262
 11
161.558
 21
43.4419
  0
LINE
  8
0
 10
161.558
 20
43.4419
 11
161.374
 21
43.2773
  0
LINE
  8
0
 10
161.374
 20
43.2773
 11
161.172
 21
43.1343
  0
LINE
  8
0
 10
161.172
 20
43.1343
 11
160.956
 21
43.0147
  0
LINE
  8
0
 10
160.956
 20
43.0147
 11
160.728
 21
42.9202
  0
LINE
  8
0
 10
160.728
 20
42.9202
 11
160.49
 21
42.8518
  0
LINE
  8
0
 10
160.49
 20
42.8518
 11
160.247
 21
42.8104
  0
LINE
  8
0
 10
160.247
 20
42.8104
 11
160
 21
42.7965
  0
LINE
  8
0
 10
160
 20
42.7965
 11
159.753
 21
42.8104
  0
LINE
  8
0
 10
-160.247
 20
42.8104
 11
-160.49
 21
42.8518
  0
LINE
  8
0
 10
-160.49
 20
42.8518
 11
-160.728
 21
42.9202
  0
LINE
  8
0
 10
-160.728
 20
42.9202
 11
-160.956
 21
43.0147
  0
LINE
  8
0
 10
-160.956
 20
43.0147
 11
-161.172
 21
43.1343
  0
LINE
  8
0
 10
-161.172
 20
43.1343
 11
-161.374
 21
43.2773
  0
LINE
  8
0
 10
-161.374
 20
43.2773
 11
-161.558
 21
43.4419
  0
LINE
  8
0
 10
-161.558
 20
43.4419
 11
-161.723
 21
43.6262
  0
LINE
  8
0
 10
-161.723
 20
43.6262
 11
-161.866
 21
43.8277
  0
LINE
  8
0
 10
-161.866
 20
43.8277
 11
-161.985
 21
44.0439
  0
LINE
  8
0
 10
-161.985
 20
44.0439
 11
-162.08
 21
44.2722
  0
LINE
  8
0
 10
-162.08
 20
44.2722
 11
-162.148
 21
44.5097
  0
LINE
  8
0
 10
-162.148
 20
44.5097
 11
-162.19
 21
44.7533
  0
LINE
  8
0
 10
-162.19
 20
44.7533
 11
-162.203
 21
45
  0
LINE
  8
0
 10
-162.203
 20
45
 11
-162.19
 21
45.2467
  0
LINE
  8
0
 10
-162.19
 20
45.2467
 11
-162.148
 21
45.4903
  0
LINE
  8
0
 10
-162.148
 20
45.4903
 11
-162.08
 21
45.7278
  0
LINE
  8
0
 10
-162.08
 20
45.7278
 11
-161.985
 21
45.956
  0
LINE
  8
0
 10
-161.985
 20
45.956
 11
-161.866
 21
46.1723
  0
LINE
  8
0
 10
-161.866
 20
46.1723
 11
-161.723
 21
46.3738
  0
LINE
  8
0
 10
-161.723
 20
46.3738
 11
-161.558
 21
46.5581
  0
LINE
  8
0
 10
-161.558
 20
46.5581
 11
-161.374
 21
46.7227
  0
LINE
  8
0
 10
-161.374
 20
46.7227
 11
-161.172
 21
46.8657
  0
LINE
  8
0
 10
-161.172
 20
46.8657
 11
-160.956
 21
46.9852
  0
LINE
  8
0
 10
-160.956
 20
46.9852
 11
-160.728
 21
47.0798
  0
LINE
  8
0
 10
-160.728
 20
47.0798
 11
-160.49
 21
47.1482
  0
LINE
  8
0
 10
-160.49
 20
47.1482
 11
-160.247
 21
47.1896
  0
LINE
  8
0
 10
-160.247
 20
47.1896
 11
-160
 21
47.2035
  0
LINE
  8
0
 10
-160
 20
47.2035
 11
-159.753
 21
47.1896
  0
LINE
  8
0
 10
-159.753
 20
47.1896
 11
-159.51
 21
47.1482
  0
LINE
  8
0
 10
-159.51
 20
47.1482
 11
-159.272
 21
47.0798
  0
LINE
  8
0
 10
-159.272
 20
47.0798
 11
-159.044
 21
46.9852
  0
LINE
  8
0
 10
-159.044
 20
46.9852
 11
-158.828
 21
46.8657
  0
LINE
  8
0
 10
-158.828
 20
46.8657
 11
-158.626
 21
46.7227
  0
LINE
  8
0
 10
-158.626
 20
46.7227
 11
-158.442
 21
46.5581
  0
LINE
  8
0
 10
-158.442
 20
46.5581
 11
-158.277
 21
46.3738
  0
LINE
  8
0
 10
-158.277
 20
46.3738
 11
-158.134
 21
46.1723
  0
LINE
  8
0
 10
-158.134
 20
46.1723
 11
-158.015
 21
45.956
  0
LINE
  8
0
 10
-158.015
 20
45.956
 11
-157.92
 21
45.7278
  0
LINE
  8
0
 10
-157.92
 20
45.7278
 11
-157.852
 21
45.4903
  0
LINE
  8
0
 10
-157.852
 20
45.4903
 11
-157.81
 21
45.2467
  0
LINE
  8
0
 10
-157.81
 20
45.2467
 11
-157.797
 21
45
  0
LINE
  8
0
 10
-157.797
 20
45
 11
-157.81
 21
44.7533
  0
LINE
  8
0
 10
-157.81
 20
44.7533
 11
-157.852
 21
44.5097
  0
LINE
  8
0
 10
-157.852
 20
44.5097
 11
-157.92
 21
44.2722
  0
LINE
  8
0
 10
-157.92
 20
44.2722
 11
-158.015
 21
44.0439
  0
LINE
  8
0
 10
-158.015
 20
44.0439
 11
-158.134
 21
43.8277
  0
LINE
  8
0
 10
-158.134
 20
43.8277
 11
-158.277
 21
43.6262
  0
LINE
  8
0
 10
-158.277
 20
43.6262
 11
-158.442
 21
43.4419
  0
LINE
  8
0
 10
-158.442
 20
43.4419
 11
-158.626
 21
43.2773
  0
LINE
  8
0
 10
-158.626
 20
43.2773
 11
-158.828
 21
43.1343
  0
LINE
  8
0
 10
-158.828
 20
43.1343
 11
-159.044
 21
43.0147
  0
LINE
  8
0
 10
-159.044
 20
43.0147
 11
-159.272
 21
42.9202
  0
LINE
  8
0
 10
-159.272
 20
42.9202
 11
-159.51
 21
42.8518
  0
LINE
  8
0
 10
-159.51
 20
42.8518
 11
-159.753
 21
42.8104
  0
LINE
  8
0
 10
-159.753
 20
42.8104
 11
-160
 21
42.7965
  0
LINE
  8
0
 10
-160
 20
42.7965
 11
-160.247
 21
42.8104
  0
LINE
  8
0
 10
82.8534
 20
36.8638
 11
82.6123
 21
36.9189
  0
LINE
  8
0
 10
82.6123
 20
36.9189
 11
82.3821
 21
37.0092
  0
LINE
  8
0
 10
82.3821
 20
37.0092
 11
82.1679
 21
37.1329
  0
LINE
  8
0
 10
82.1679
 20
37.1329
 11
81.9745
 21
37.287
  0
LINE
  8
0
 10
81.9745
 20
37.287
 11
81.8064
 21
37.4683
  0
LINE
  8
0
 10
81.8064
 20
37.4683
 11
81.667
 21
37.6727
  0
LINE
  8
0
 10
81.667
 20
37.6727
 11
81.5597
 21
37.8955
  0
LINE
  8
0
 10
81.5597
 20
37.8955
 11
81.4868
 21
38.1318
  0
LINE
  8
0
 10
81.4868
 20
38.1318
 11
81.45
 21
38.3763
  0
LINE
  8
0
 10
81.45
 20
38.3763
 11
81.45
 21
38.6236
  0
LINE
  8
0
 10
81.45
 20
38.6236
 11
81.4868
 21
38.8682
  0
LINE
  8
0
 10
81.4868
 20
38.8682
 11
81.5597
 21
39.1045
  0
LINE
  8
0
 10
81.5597
 20
39.1045
 11
81.667
 21
39.3273
  0
LINE
  8
0
 10
81.667
 20
39.3273
 11
81.8064
 21
39.5316
  0
LINE
  8
0
 10
81.8064
 20
39.5316
 11
81.9745
 21
39.7129
  0
LINE
  8
0
 10
81.9745
 20
39.7129
 11
82.1679
 21
39.8671
  0
LINE
  8
0
 10
82.1679
 20
39.8671
 11
82.3821
 21
39.9908
  0
LINE
  8
0
 10
82.3821
 20
39.9908
 11
82.6123
 21
40.0811
  0
LINE
  8
0
 10
82.6123
 20
40.0811
 11
82.8534
 21
40.1361
  0
LINE
  8
0
 10
82.8534
 20
40.1361
 11
83.1
 21
40.1546
  0
LINE
  8
0
 10
83.1
 20
40.1546
 11
83.3466
 21
40.1361
  0
LINE
  8
0
 10
83.3466
 20
40.1361
 11
83.5877
 21
40.0811
  0
LINE
  8
0
 10
83.5877
 20
40.0811
 11
83.8179
 21
39.9908
  0
LINE
  8
0
 10
83.8179
 20
39.9908
 11
84.0321
 21
39.8671
  0
LINE
  8
0
 10
84.0321
 20
39.8671
 11
84.2254
 21
39.7129
  0
LINE
  8
0
 10
84.2254
 20
39.7129
 11
84.3936
 21
39.5316
  0
LINE
  8
0
 10
84.3936
 20
39.5316
 11
84.5329
 21
39.3273
  0
LINE
  8
0
 10
84.5329
 20
39.3273
 11
84.6402
 21
39.1045
  0
LINE
  8
0
 10
84.6402
 20
39.1045
 11
84.7131
 21
38.8682
  0
LINE
  8
0
 10
84.7131
 20
38.8682
 11
84.75
 21
38.6236
  0
LINE
  8
0
 10
84.75
 20
38.6236
 11
84.75
 21
38.3763
  0
LINE
  8
0
 10
84.75
 20
38.3763
 11
84.7131
 21
38.1318
  0
LINE
  8
0
 10
84.7131
 20
38.1318
 11
84.6402
 21
37.8955
  0
LINE
  8
0
 10
84.6402
 20
37.8955
 11
84.5329
 21
37.6727
  0
LINE
  8
0
 10
84.5329
 20
37.6727
 11
84.3936
 21
37.4683
  0
LINE
  8
0
 10
84.3936
 20
37.4683
 11
84.2254
 21
37.287
  0
LINE
  8
0
 10
84.2254
 20
37.287
 11
84.0321
 21
37.1329
  0
LINE
  8
0
 10
84.0321
 20
37.1329
 11
83.8179
 21
37.0092
  0
LINE
  8
0
 10
83.8179
 20
37.0092
 11
83.5877
 21
36.9189
  0
LINE
  8
0
 10
83.5877
 20
36.9189
 11
83.3466
 21
36.8638
  0
LINE
  8
0
 10
83.3466
 20
36.8638
 11
83.1
 21
36.8454
  0
LINE
  8
0
 10
83.1
 20
36.8454
 11
82.8534
 21
36.8638
  0
LINE
  8
0
 10
60.3534
 20
36.8638
 11
60.1123
 21
36.9189
  0
LINE
  8
0
 10
60.1123
 20
36.9189
 11
59.8821
 21
37.0092
  0
LINE
  8
0
 10
59.8821
 20
37.0092
 11
59.6679
 21
37.1329
  0
LINE
  8
0
 10
59.6679
 20
37.1329
 11
59.4746
 21
37.287
  0
LINE
  8
0
 10
59.4746
 20
37.287
 11
59.3064
 21
37.4683
  0
LINE
  8
0
 10
59.3064
 20
37.4683
 11
59.1671
 21
37.6727
  0
LINE
  8
0
 10
59.1671
 20
37.6727
 11
59.0598
 21
37.8955
  0
LINE
  8
0
 10
59.0598
 20
37.8955
 11
58.9869
 21
38.1318
  0
LINE
  8
0
 10
58.9869
 20
38.1318
 11
58.95
 21
38.3763
  0
LINE
  8
0
 10
58.95
 20
38.3763
 11
58.95
 21
38.6236
  0
LINE
  8
0
 10
58.95
 20
38.6236
 11
58.9869
 21
38.8682
  0
LINE
  8
0
 10
58.9869
 20
38.8682
 11
59.0598
 21
39.1045
  0
LINE
  8
0
 10
59.0598
 20
39.1045
 11
59.1671
 21
39.3273
  0
LINE
  8
0
 10
59.1671
 20
39.3273
 11
59.3064
 21
39.5316
  0
LINE
  8
0
 10
59.3064
 20
39.5316
 11
59.4746
 21
39.7129
  0
LINE
  8
0
 10
59.4746
 20
39.7129
 11
59.6679
 21
39.8671
  0
LINE
  8
0
 10
59.6679
 20
39.8671
 11
59.8821
 21
39.9908
  0
LINE
  8
0
 10
59.8821
 20
39.9908
 11
60.1123
 21
40.0811
  0
LINE
  8
0
 10
60.1123
 20
40.0811
 11
60.3534
 21
40.1361
  0
LINE
  8
0
 10
60.3534
 20
40.1361
 11
60.6
 21
40.1546
  0
LINE
  8
0
 10
60.6
 20
40.1546
 11
60.8466
 21
40.1361
  0
LINE
  8
0
 10
60.8466
 20
40.1361
 11
61.0877
 21
40.0811
  0
LINE
  8
0
 10
61.0877
 20
40.0811
 11
61.3179
 21
39.9908
  0
LINE
  8
0
 10
61.3179
 20
39.9908
 11
61.5321
 21
39.8671
  0
LINE
  8
0
 10
61.5321
 20
39.8671
 11
61.7254
 21
39.7129
  0
LINE
  8
0
 10
61.7254
 20
39.7129
 11
61.8936
 21
39.5316
  0
LINE
  8
0
 10
61.8936
 20
39.5316
 11
62.0329
 21
39.3273
  0
LINE
  8
0
 10
62.0329
 20
39.3273
 11
62.1402
 21
39.1045
  0
LINE
  8
0
 10
62.1402
 20
39.1045
 11
62.2131
 21
38.8682
  0
LINE
  8
0
 10
62.2131
 20
38.8682
 11
62.25
 21
38.6236
  0
LINE
  8
0
 10
62.25
 20
38.6236
 11
62.25
 21
38.3763
  0
LINE
  8
0
 10
62.25
 20
38.3763
 11
62.2131
 21
38.1318
  0
LINE
  8
0
 10
62.2131
 20
38.1318
 11
62.1402
 21
37.8955
  0
LINE
  8
0
 10
62.1402
 20
37.8955
 11
62.0329
 21
37.6727
  0
LINE
  8
0
 10
62.0329
 20
37.6727
 11
61.8936
 21
37.4683
  0
LINE
  8
0
 10
61.8936
 20
37.4683
 11
61.7254
 21
37.287
  0
LINE
  8
0
 10
61.7254
 20
37.287
 11
61.5321
 21
37.1329
  0
LINE
  8
0
 10
61.5321
 20
37.1329
 11
61.3179
 21
37.0092
  0
LINE
  8
0
 10
61.3179
 20
37.0092
 11
61.0877
 21
36.9189
  0
LINE
  8
0
 10
61.0877
 20
36.9189
 11
60.8466
 21
36.8638
  0
LINE
  8
0
 10
60.8466
 20
36.8638
 11
60.6
 21
36.8454
  0
LINE
  8
0
 10
60.6
 20
36.8454
 11
60.3534
 21
36.8638
  0
LINE
  8
0
 10
92.2534
 20
-3.13614
 11
92.0123
 21
-3.08112
  0
LINE
  8
0
 10
92.0123
 20
-3.08112
 11
91.7821
 21
-2.99075
  0
LINE
  8
0
 10
91.7821
 20
-2.99075
 11
91.5679
 21
-2.86711
  0
LINE
  8
0
 10
91.5679
 20
-2.86711
 11
91.3746
 21
-2.71292
  0
LINE
  8
0
 10
91.3746
 20
-2.71292
 11
91.2064
 21
-2.53163
  0
LINE
  8
0
 10
91.2064
 20
-2.53163
 11
91.0671
 21
-2.3273
  0
LINE
  8
0
 10
91.0671
 20
-2.3273
 11
90.9598
 21
-2.10449
  0
LINE
  8
0
 10
90.9598
 20
-2.10449
 11
90.8869
 21
-1.86818
  0
LINE
  8
0
 10
90.8869
 20
-1.86818
 11
90.85
 21
-1.62364
  0
LINE
  8
0
 10
90.85
 20
-1.62364
 11
90.85
 21
-1.37634
  0
LINE
  8
0
 10
90.85
 20
-1.37634
 11
90.8869
 21
-1.13181
  0
LINE
  8
0
 10
90.8869
 20
-1.13181
 11
90.9598
 21
-0.895493
  0
LINE
  8
0
 10
90.9598
 20
-0.895493
 11
91.0671
 21
-0.672684
  0
LINE
  8
0
 10
91.0671
 20
-0.672684
 11
91.2064
 21
-0.468353
  0
LINE
  8
0
 10
91.2064
 20
-0.468353
 11
91.3746
 21
-0.287064
  0
LINE
  8
0
 10
91.3746
 20
-0.287064
 11
91.5679
 21
-0.132874
  0
LINE
  8
0
 10
91.5679
 20
-0.132874
 11
91.7821
 21
-0.00923157
  0
LINE
  8
0
 10
91.7821
 20
-0.00923157
 11
92.0123
 21
0.081131
  0
LINE
  8
0
 10
92.0123
 20
0.081131
 11
92.2534
 21
0.136154
  0
LINE
  8
0
 10
92.2534
 20
0.136154
 11
92.5
 21
0.154633
  0
LINE
  8
0
 10
92.5
 20
0.154633
 11
92.7466
 21
0.136154
  0
LINE
  8
0
 10
92.7466
 20
0.136154
 11
92.9877
 21
0.081131
  0
LINE
  8
0
 10
92.9877
 20
0.081131
 11
93.2179
 21
-0.00923157
  0
LINE
  8
0
 10
93.2179
 20
-0.00923157
 11
93.4321
 21
-0.132874
  0
LINE
  8
0
 10
93.4321
 20
-0.132874
 11
93.6254
 21
-0.287064
  0
LINE
  8
0
 10
93.6254
 20
-0.287064
 11
93.7936
 21
-0.468353
  0
LINE
  8
0
 10
93.7936
 20
-0.468353
 11
93.933
 21
-0.672684
  0
LINE
  8
0
 10
93.933
 20
-0.672684
 11
94.0403
 21
-0.895493
  0
LINE
  8
0
 10
94.0403
 20
-0.895493
 11
94.1131
 21
-1.13181
  0
LINE
  8
0
 10
94.1131
 20
-1.13181
 11
94.15
 21
-1.37634
  0
LINE
  8
0
 10
94.15
 20
-1.37634
 11
94.15
 21
-1.62364
  0
LINE
  8
0
 10
94.15
 20
-1.62364
 11
94.1131
 21
-1.86818
  0
LINE
  8
0
 10
94.1131
 20
-1.86818
 11
94.0403
 21
-2.10449
  0
LINE
  8
0
 10
94.0403
 20
-2.10449
 11
93.933
 21
-2.3273
  0
LINE
  8
0
 10
93.933
 20
-2.3273
 11
93.7936
 21
-2.53163
  0
LINE
  8
0
 10
93.7936
 20
-2.53163
 11
93.6254
 21
-2.71292
  0
LINE
  8
0
 10
93.6254
 20
-2.71292
 11
93.4321
 21
-2.86711
  0
LINE
  8
0
 10
93.4321
 20
-2.86711
 11
93.2179
 21
-2.99075
  0
LINE
  8
0
 10
93.2179
 20
-2.99075
 11
92.9877
 21
-3.08112
  0
LINE
  8
0
 10
92.9877
 20
-3.08112
 11
92.7466
 21
-3.13614
  0
LINE
  8
0
 10
92.7466
 20
-3.13614
 11
92.5
 21
-3.15462
  0
LINE
  8
0
 10
92.5
 20
-3.15462
 11
92.2534
 21
-3.13614
  0
LINE
  8
0
 10
141.253
 20
-3.13614
 11
141.012
 21
-3.08112
  0
LINE
  8
0
 10
141.012
 20
-3.08112
 11
140.782
 21
-2.99075
  0
LINE
  8
0
 10
140.782
 20
-2.99075
 11
140.568
 21
-2.86711
  0
LINE
  8
0
 10
140.568
 20
-2.86711
 11
140.375
 21
-2.71292
  0
LINE
  8
0
 10
140.375
 20
-2.71292
 11
140.206
 21
-2.53163
  0
LINE
  8
0
 10
140.206
 20
-2.53163
 11
140.067
 21
-2.3273
  0
LINE
  8
0
 10
140.067
 20
-2.3273
 11
139.96
 21
-2.10449
  0
LINE
  8
0
 10
139.96
 20
-2.10449
 11
139.887
 21
-1.86818
  0
LINE
  8
0
 10
139.887
 20
-1.86818
 11
139.85
 21
-1.62364
  0
LINE
  8
0
 10
139.85
 20
-1.62364
 11
139.85
 21
-1.37634
  0
LINE
  8
0
 10
139.85
 20
-1.37634
 11
139.887
 21
-1.13181
  0
LINE
  8
0
 10
139.887
 20
-1.13181
 11
139.96
 21
-0.895493
  0
LINE
  8
0
 10
139.96
 20
-0.895493
 11
140.067
 21
-0.672684
  0
LINE
  8
0
 10
140.067
 20
-0.672684
 11
140.206
 21
-0.468353
  0
LINE
  8
0
 10
140.206
 20
-0.468353
 11
140.375
 21
-0.287064
  0
LINE
  8
0
 10
140.375
 20
-0.287064
 11
140.568
 21
-0.132874
  0
LINE
  8
0
 10
140.568
 20
-0.132874
 11
140.782
 21
-0.00923157
  0
LINE
  8
0
 10
140.782
 20
-0.00923157
 11
141.012
 21
0.081131
  0
LINE
  8
0
 10
141.012
 20
0.081131
 11
141.253
 21
0.136154
  0
LINE
  8
0
 10
141.253
 20
0.136154
 11
141.5
 21
0.154633
  0
LINE
  8
0
 10
141.5
 20
0.154633
 11
141.747
 21
0.136154
  0
LINE
  8
0
 10
141.747
 20
0.136154
 11
141.988
 21
0.081131
  0
LINE
  8
0
 10
141.988
 20
0.081131
 11
142.218
 21
-0.00923157
  0
LINE
  8
0
 10
142.218
 20
-0.00923157
 11
142.432
 21
-0.132874
  0
LINE
  8
0
 10
142.432
 20
-0.132874
 11
142.625
 21
-0.287064
  0
LINE
  8
0
 10
142.625
 20
-0.287064
 11
142.794
 21
-0.468353
  0
LINE
  8
0
 10
142.794
 20
-0.468353
 11
142.933
 21
-0.672684
  0
LINE
  8
0
 10
142.933
 20
-0.672684
 11
143.04
 21
-0.895493
  0
LINE
  8
0
 10
143.04
 20
-0.895493
 11
143.113
 21
-1.13181
  0
LINE
  8
0
 10
143.113
 20
-1.13181
 11
143.15
 21
-1.37634
  0
LINE
  8
0
 10
143.15
 20
-1.37634
 11
143.15
 21
-1.62364
  0
LINE
  8
0
 10
143.15
 20
-1.62364
 11
143.113
 21
-1.86818
  0
LINE
  8
0
 10
143.113
 20
-1.86818
 11
143.04
 21
-2.10449
  0
LINE
  8
0
 10
143.04
 20
-2.10449
 11
142.933
 21
-2.3273
  0
LINE
  8
0
 10
142.933
 20
-2.3273
 11
142.794
 21
-2.53163
  0
LINE
  8
0
 10
142.794
 20
-2.53163
 11
142.625
 21
-2.71292
  0
LINE
  8
0
 10
142.625
 20
-2.71292
 11
142.432
 21
-2.86711
  0
LINE
  8
0
 10
142.432
 20
-2.86711
 11
142.218
 21
-2.99075
  0
LINE
  8
0
 10
142.218
 20
-2.99075
 11
141.988
 21
-3.08112
  0
LINE
  8
0
 10
141.988
 20
-3.08112
 11
141.747
 21
-3.13614
  0
LINE
  8
0
 10
141.747
 20
-3.13614
 11
141.5
 21
-3.15462
  0
LINE
  8
0
 10
141.5
 20
-3.15462
 11
141.253
 21
-3.13614
  0
LINE
  8
0
 10
60.3534
 20
-11.0361
 11
60.1123
 21
-10.9811
  0
LINE
  8
0
 10
60.1123
 20
-10.9811
 11
59.8821
 21
-10.8908
  0
LINE
  8
0
 10
59.8821
 20
-10.8908
 11
59.6679
 21
-10.7671
  0
LINE
  8
0
 10
59.6679
 20
-10.7671
 11
59.4746
 21
-10.6129
  0
LINE
  8
0
 10
59.4746
 20
-10.6129
 11
59.3064
 21
-10.4316
  0
LINE
  8
0
 10
59.3064
 20
-10.4316
 11
59.1671
 21
-10.2273
  0
LINE
  8
0
 10
59.1671
 20
-10.2273
 11
59.0598
 21
-10.0045
  0
LINE
  8
0
 10
59.0598
 20
-10.0045
 11
58.9869
 21
-9.76819
  0
LINE
  8
0
 10
58.9869
 20
-9.76819
 11
58.95
 21
-9.52365
  0
LINE
  8
0
 10
58.95
 20
-9.52365
 11
58.95
 21
-9.27635
  0
LINE
  8
0
 10
58.95
 20
-9.27635
 11
58.9869
 21
-9.03181
  0
LINE
  8
0
 10
58.9869
 20
-9.03181
 11
59.0598
 21
-8.7955
  0
LINE
  8
0
 10
59.0598
 20
-8.7955
 11
59.1671
 21
-8.57269
  0
LINE
  8
0
 10
59.1671
 20
-8.57269
 11
59.3064
 21
-8.36836
  0
LINE
  8
0
 10
59.3064
 20
-8.36836
 11
59.4746
 21
-8.18707
  0
LINE
  8
0
 10
59.4746
 20
-8.18707
 11
59.6679
 21
-8.03288
  0
LINE
  8
0
 10
59.6679
 20
-8.03288
 11
59.8821
 21
-7.90924
  0
LINE
  8
0
 10
59.8821
 20
-7.90924
 11
60.1123
 21
-7.81889
  0
LINE
  8
0
 10
60.1123
 20
-7.81889
 11
60.3534
 21
-7.76385
  0
LINE
  8
0
 10
60.3534
 20
-7.76385
 11
60.6
 21
-7.74538
  0
LINE
  8
0
 10
60.6
 20
-7.74538
 11
60.8466
 21
-7.76385
  0
LINE
  8
0
 10
60.8466
 20
-7.76385
 11
61.0877
 21
-7.81889
  0
LINE
  8
0
 10
61.0877
 20
-7.81889
 11
61.3179
 21
-7.90924
  0
LINE
  8
0
 10
61.3179
 20
-7.90924
 11
61.5321
 21
-8.03288
  0
LINE
  8
0
 10
61.5321
 20
-8.03288
 11
61.7254
 21
-8.18707
  0
LINE
  8
0
 10
61.7254
 20
-8.18707
 11
61.8936
 21
-8.36836
  0
LINE
  8
0
 10
61.8936
 20
-8.36836
 11
62.0329
 21
-8.57269
  0
LINE
  8
0
 10
62.0329
 20
-8.57269
 11
62.1402
 21
-8.7955
  0
LINE
  8
0
 10
62.1402
 20
-8.7955
 11
62.2131
 21
-9.03181
  0
LINE
  8
0
 10
62.2131
 20
-9.03181
 11
62.25
 21
-9.27635
  0
LINE
  8
0
 10
62.25
 20
-9.27635
 11
62.25
 21
-9.52365
  0
LINE
  8
0
 10
62.25
 20
-9.52365
 11
62.2131
 21
-9.76819
  0
LINE
  8
0
 10
62.2131
 20
-9.76819
 11
62.1402
 21
-10.0045
  0
LINE
  8
0
 10
62.1402
 20
-10.0045
 11
62.0329
 21
-10.2273
  0
LINE
  8
0
 10
62.0329
 20
-10.2273
 11
61.8936
 21
-10.4316
  0
LINE
  8
0
 10
61.8936
 20
-10.4316
 11
61.7254
 21
-10.6129
  0
LINE
  8
0
 10
61.7254
 20
-10.6129
 11
61.5321
 21
-10.7671
  0
LINE
  8
0
 10
61.5321
 20
-10.7671
 11
61.3179
 21
-10.8908
  0
LINE
  8
0
 10
61.3179
 20
-10.8908
 11
61.0877
 21
-10.9811
  0
LINE
  8
0
 10
61.0877
 20
-10.9811
 11
60.8466
 21
-11.0361
  0
LINE
  8
0
 10
60.8466
 20
-11.0361
 11
60.6
 21
-11.0546
  0
LINE
  8
0
 10
60.6
 20
-11.0546
 11
60.3534
 21
-11.0361
  0
LINE
  8
0
 10
82.8534
 20
-11.0361
 11
82.6123
 21
-10.9811
  0
LINE
  8
0
 10
82.6123
 20
-10.9811
 11
82.3821
 21
-10.8908
  0
LINE
  8
0
 10
82.3821
 20
-10.8908
 11
82.1679
 21
-10.7671
  0
LINE
  8
0
 10
82.1679
 20
-10.7671
 11
81.9745
 21
-10.6129
  0
LINE
  8
0
 10
81.9745
 20
-10.6129
 11
81.8064
 21
-10.4316
  0
LINE
  8
0
 10
81.8064
 20
-10.4316
 11
81.667
 21
-10.2273
  0
LINE
  8
0
 10
81.667
 20
-10.2273
 11
81.5597
 21
-10.0045
  0
LINE
  8
0
 10
81.5597
 20
-10.0045
 11
81.4868
 21
-9.76819
  0
LINE
  8
0
 10
81.4868
 20
-9.76819
 11
81.45
 21
-9.52365
  0
LINE
  8
0
 10
81.45
 20
-9.52365
 11
81.45
 21
-9.27635
  0
LINE
  8
0
 10
81.45
 20
-9.27635
 11
81.4868
 21
-9.03181
  0
LINE
  8
0
 10
81.4868
 20
-9.03181
 11
81.5597
 21
-8.7955
  0
LINE
  8
0
 10
81.5597
 20
-8.7955
 11
81.667
 21
-8.57269
  0
LINE
  8
0
 10
81.667
 20
-8.57269
 11
81.8064
 21
-8.36836
  0
LINE
  8
0
 10
81.8064
 20
-8.36836
 11
81.9745
 21
-8.18707
  0
LINE
  8
0
 10
81.9745
 20
-8.18707
 11
82.1679
 21
-8.03288
  0
LINE
  8
0
 10
82.1679
 20
-8.03288
 11
82.3821
 21
-7.90924
  0
LINE
  8
0
 10
82.3821
 20
-7.90924
 11
82.6123
 21
-7.81889
  0
LINE
  8
0
 10
82.6123
 20
-7.81889
 11
82.8534
 21
-7.76385
  0
LINE
  8
0
 10
82.8534
 20
-7.76385
 11
83.1
 21
-7.74538
  0
LINE
  8
0
 10
83.1
 20
-7.74538
 11
83.3466
 21
-7.76385
  0
LINE
  8
0
 10
83.3466
 20
-7.76385
 11
83.5877
 21
-7.81889
  0
LINE
  8
0
 10
83.5877
 20
-7.81889
 11
83.8179
 21
-7.90924
  0
LINE
  8
0
 10
83.8179
 20
-7.90924
 11
84.0321
 21
-8.03288
  0
LINE
  8
0
 10
84.0321
 20
-8.03288
 11
84.2254
 21
-8.18707
  0
LINE
  8
0
 10
84.2254
 20
-8.18707
 11
84.3936
 21
-8.36836
  0
LINE
  8
0
 10
84.3936
 20
-8.36836
 11
84.5329
 21
-8.57269
  0
LINE
  8
0
 10
84.5329
 20
-8.57269
 11
84.6402
 21
-8.7955
  0
LINE
  8
0
 10
84.6402
 20
-8.7955
 11
84.7131
 21
-9.03181
  0
LINE
  8
0
 10
84.7131
 20
-9.03181
 11
84.75
 21
-9.27635
  0
LINE
  8
0
 10
84.75
 20
-9.27635
 11
84.75
 21
-9.52365
  0
LINE
  8
0
 10
84.75
 20
-9.52365
 11
84.7131
 21
-9.76819
  0
LINE
  8
0
 10
84.7131
 20
-9.76819
 11
84.6402
 21
-10.0045
  0
LINE
  8
0
 10
84.6402
 20
-10.0045
 11
84.5329
 21
-10.2273
  0
LINE
  8
0
 10
84.5329
 20
-10.2273
 11
84.3936
 21
-10.4316
  0
LINE
  8
0
 10
84.3936
 20
-10.4316
 11
84.2254
 21
-10.6129
  0
LINE
  8
0
 10
84.2254
 20
-10.6129
 11
84.0321
 21
-10.7671
  0
LINE
  8
0
 10
84.0321
 20
-10.7671
 11
83.8179
 21
-10.8908
  0
LINE
  8
0
 10
83.8179
 20
-10.8908
 11
83.5877
 21
-10.9811
  0
LINE
  8
0
 10
83.5877
 20
-10.9811
 11
83.3466
 21
-11.0361
  0
LINE
  8
0
 10
83.3466
 20
-11.0361
 11
83.1
 21
-11.0546
  0
LINE
  8
0
 10
83.1
 20
-11.0546
 11
82.8534
 21
-11.0361
  0
LINE
  8
0
 10
82.7534
 20
-25.6362
 11
82.5123
 21
-25.5811
  0
LINE
  8
0
 10
82.5123
 20
-25.5811
 11
82.2821
 21
-25.4908
  0
LINE
  8
0
 10
82.2821
 20
-25.4908
 11
82.0679
 21
-25.3671
  0
LINE
  8
0
 10
82.0679
 20
-25.3671
 11
81.8746
 21
-25.2129
  0
LINE
  8
0
 10
81.8746
 20
-25.2129
 11
81.7064
 21
-25.0316
  0
LINE
  8
0
 10
81.7064
 20
-25.0316
 11
81.5671
 21
-24.8273
  0
LINE
  8
0
 10
81.5671
 20
-24.8273
 11
81.4598
 21
-24.6045
  0
LINE
  8
0
 10
81.4598
 20
-24.6045
 11
81.3869
 21
-24.3682
  0
LINE
  8
0
 10
81.3869
 20
-24.3682
 11
81.35
 21
-24.1237
  0
LINE
  8
0
 10
81.35
 20
-24.1237
 11
81.35
 21
-23.8764
  0
LINE
  8
0
 10
81.35
 20
-23.8764
 11
81.3869
 21
-23.6318
  0
LINE
  8
0
 10
81.3869
 20
-23.6318
 11
81.4598
 21
-23.3955
  0
LINE
  8
0
 10
81.4598
 20
-23.3955
 11
81.5671
 21
-23.1727
  0
LINE
  8
0
 10
81.5671
 20
-23.1727
 11
81.7064
 21
-22.9684
  0
LINE
  8
0
 10
81.7064
 20
-22.9684
 11
81.8746
 21
-22.7871
  0
LINE
  8
0
 10
81.8746
 20
-22.7871
 11
82.0679
 21
-22.6329
  0
LINE
  8
0
 10
82.0679
 20
-22.6329
 11
82.2821
 21
-22.5092
  0
LINE
  8
0
 10
82.2821
 20
-22.5092
 11
82.5123
 21
-22.4189
  0
LINE
  8
0
 10
82.5123
 20
-22.4189
 11
82.7534
 21
-22.3639
  0
LINE
  8
0
 10
82.7534
 20
-22.3639
 11
83
 21
-22.3454
  0
LINE
  8
0
 10
83
 20
-22.3454
 11
83.2466
 21
-22.3639
  0
LINE
  8
0
 10
83.2466
 20
-22.3639
 11
83.4877
 21
-22.4189
  0
LINE
  8
0
 10
83.4877
 20
-22.4189
 11
83.7179
 21
-22.5092
  0
LINE
  8
0
 10
83.7179
 20
-22.5092
 11
83.9321
 21
-22.6329
  0
LINE
  8
0
 10
83.9321
 20
-22.6329
 11
84.1254
 21
-22.7871
  0
LINE
  8
0
 10
84.1254
 20
-22.7871
 11
84.2936
 21
-22.9684
  0
LINE
  8
0
 10
84.2936
 20
-22.9684
 11
84.433
 21
-23.1727
  0
LINE
  8
0
 10
84.433
 20
-23.1727
 11
84.5403
 21
-23.3955
  0
LINE
  8
0
 10
84.5403
 20
-23.3955
 11
84.6131
 21
-23.6318
  0
LINE
  8
0
 10
84.6131
 20
-23.6318
 11
84.65
 21
-23.8764
  0
LINE
  8
0
 10
84.65
 20
-23.8764
 11
84.65
 21
-24.1237
  0
LINE
  8
0
 10
84.65
 20
-24.1237
 11
84.6131
 21
-24.3682
  0
LINE
  8
0
 10
84.6131
 20
-24.3682
 11
84.5403
 21
-24.6045
  0
LINE
  8
0
 10
84.5403
 20
-24.6045
 11
84.433
 21
-24.8273
  0
LINE
  8
0
 10
84.433
 20
-24.8273
 11
84.2936
 21
-25.0316
  0
LINE
  8
0
 10
84.2936
 20
-25.0316
 11
84.1254
 21
-25.2129
  0
LINE
  8
0
 10
84.1254
 20
-25.2129
 11
83.9321
 21
-25.3671
  0
LINE
  8
0
 10
83.9321
 20
-25.3671
 11
83.7179
 21
-25.4908
  0
LINE
  8
0
 10
83.7179
 20
-25.4908
 11
83.4877
 21
-25.5811
  0
LINE
  8
0
 10
83.4877
 20
-25.5811
 11
83.2466
 21
-25.6362
  0
LINE
  8
0
 10
83.2466
 20
-25.6362
 11
83
 21
-25.6546
  0
LINE
  8
0
 10
83
 20
-25.6546
 11
82.7534
 21
-25.6362
  0
LINE
  8
0
 10
159.753
 20
-25.6362
 11
159.512
 21
-25.5811
  0
LINE
  8
0
 10
159.512
 20
-25.5811
 11
159.282
 21
-25.4908
  0
LINE
  8
0
 10
159.282
 20
-25.4908
 11
159.068
 21
-25.3671
  0
LINE
  8
0
 10
159.068
 20
-25.3671
 11
158.875
 21
-25.2129
  0
LINE
  8
0
 10
158.875
 20
-25.2129
 11
158.706
 21
-25.0316
  0
LINE
  8
0
 10
158.706
 20
-25.0316
 11
158.567
 21
-24.8273
  0
LINE
  8
0
 10
158.567
 20
-24.8273
 11
158.46
 21
-24.6045
  0
LINE
  8
0
 10
158.46
 20
-24.6045
 11
158.387
 21
-24.3682
  0
LINE
  8
0
 10
158.387
 20
-24.3682
 11
158.35
 21
-24.1237
  0
LINE
  8
0
 10
158.35
 20
-24.1237
 11
158.35
 21
-23.8764
  0
LINE
  8
0
 10
158.35
 20
-23.8764
 11
158.387
 21
-23.6318
  0
LINE
  8
0
 10
158.387
 20
-23.6318
 11
158.46
 21
-23.3955
  0
LINE
  8
0
 10
158.46
 20
-23.3955
 11
158.567
 21
-23.1727
  0
LINE
  8
0
 10
158.567
 20
-23.1727
 11
158.706
 21
-22.9684
  0
LINE
  8
0
 10
158.706
 20
-22.9684
 11
158.875
 21
-22.7871
  0
LINE
  8
0
 10
158.875
 20
-22.7871
 11
159.068
 21
-22.6329
  0
LINE
  8
0
 10
159.068
 20
-22.6329
 11
159.282
 21
-22.5092
  0
LINE
  8
0
 10
159.282
 20
-22.5092
 11
159.512
 21
-22.4189
  0
LINE
  8
0
 10
159.512
 20
-22.4189
 11
159.753
 21
-22.3639
  0
LINE
  8
0
 10
159.753
 20
-22.3639
 11
160
 21
-22.3454
  0
LINE
  8
0
 10
160
 20
-22.3454
 11
160.247
 21
-22.3639
  0
LINE
  8
0
 10
160.247
 20
-22.3639
 11
160.488
 21
-22.4189
  0
LINE
  8
0
 10
160.488
 20
-22.4189
 11
160.718
 21
-22.5092
  0
LINE
  8
0
 10
160.718
 20
-22.5092
 11
160.932
 21
-22.6329
  0
LINE
  8
0
 10
160.932
 20
-22.6329
 11
161.125
 21
-22.7871
  0
LINE
  8
0
 10
161.125
 20
-22.7871
 11
161.294
 21
-22.9684
  0
LINE
  8
0
 10
161.294
 20
-22.9684
 11
161.433
 21
-23.1727
  0
LINE
  8
0
 10
161.433
 20
-23.1727
 11
161.54
 21
-23.3955
  0
LINE
  8
0
 10
161.54
 20
-23.3955
 11
161.613
 21
-23.6318
  0
LINE
  8
0
 10
161.613
 20
-23.6318
 11
161.65
 21
-23.8764
  0
LINE
  8
0
 10
161.65
 20
-23.8764
 11
161.65
 21
-24.1237
  0
LINE
  8
0
 10
161.65
 20
-24.1237
 11
161.613
 21
-24.3682
  0
LINE
  8
0
 10
161.613
 20
-24.3682
 11
161.54
 21
-24.6045
  0
LINE
  8
0
 10
161.54
 20
-24.6045
 11
161.433
 21
-24.8273
  0
LINE
  8
0
 10
161.433
 20
-24.8273
 11
161.294
 21
-25.0316
  0
LINE
  8
0
 10
161.294
 20
-25.0316
 11
161.125
 21
-25.2129
  0
LINE
  8
0
 10
161.125
 20
-25.2129
 11
160.932
 21
-25.3671
  0
LINE
  8
0
 10
160.932
 20
-25.3671
 11
160.718
 21
-25.4908
  0
LINE
  8
0
 10
160.718
 20
-25.4908
 11
160.488
 21
-25.5811
  0
LINE
  8
0
 10
160.488
 20
-25.5811
 11
160.247
 21
-25.6362
  0
LINE
  8
0
 10
160.247
 20
-25.6362
 11
160
 21
-25.6546
  0
LINE
  8
0
 10
160
 20
-25.6546
 11
159.753
 21
-25.6362
  0
LINE
  8
0
 10
159.753
 20
-47.1896
 11
159.51
 21
-47.1482
  0
LINE
  8
0
 10
159.51
 20
-47.1482
 11
159.272
 21
-47.0798
  0
LINE
  8
0
 10
159.272
 20
-47.0798
 11
159.044
 21
-46.9853
  0
LINE
  8
0
 10
159.044
 20
-46.9853
 11
158.828
 21
-46.8657
  0
LINE
  8
0
 10
158.828
 20
-46.8657
 11
158.626
 21
-46.7227
  0
LINE
  8
0
 10
158.626
 20
-46.7227
 11
158.442
 21
-46.5581
  0
LINE
  8
0
 10
158.442
 20
-46.5581
 11
158.277
 21
-46.3738
  0
LINE
  8
0
 10
158.277
 20
-46.3738
 11
158.134
 21
-46.1723
  0
LINE
  8
0
 10
158.134
 20
-46.1723
 11
158.015
 21
-45.9561
  0
LINE
  8
0
 10
158.015
 20
-45.9561
 11
157.92
 21
-45.7278
  0
LINE
  8
0
 10
157.92
 20
-45.7278
 11
157.852
 21
-45.4903
  0
LINE
  8
0
 10
157.852
 20
-45.4903
 11
157.81
 21
-45.2467
  0
LINE
  8
0
 10
157.81
 20
-45.2467
 11
157.797
 21
-45
  0
LINE
  8
0
 10
157.797
 20
-45
 11
157.81
 21
-44.7533
  0
LINE
  8
0
 10
157.81
 20
-44.7533
 11
157.852
 21
-44.5097
  0
LINE
  8
0
 10
157.852
 20
-44.5097
 11
157.92
 21
-44.2722
  0
LINE
  8
0
 10
157.92
 20
-44.2722
 11
158.015
 21
-44.044
  0
LINE
  8
0
 10
158.015
 20
-44.044
 11
158.134
 21
-43.8277
  0
LINE
  8
0
 10
158.134
 20
-43.8277
 11
158.277
 21
-43.6262
  0
LINE
  8
0
 10
158.277
 20
-43.6262
 11
158.442
 21
-43.4419
  0
LINE
  8
0
 10
158.442
 20
-43.4419
 11
158.626
 21
-43.2773
  0
LINE
  8
0
 10
158.626
 20
-43.2773
 11
158.828
 21
-43.1343
  0
LINE
  8
0
 10
158.828
 20
-43.1343
 11
159.044
 21
-43.0148
  0
LINE
  8
0
 10
159.044
 20
-43.0148
 11
159.272
 21
-42.9202
  0
LINE
  8
0
 10
159.272
 20
-42.9202
 11
159.51
 21
-42.8518
  0
LINE
  8
0
 10
159.51
 20
-42.8518
 11
159.753
 21
-42.8104
  0
LINE
  8
0
 10
159.753
 20
-42.8104
 11
160
 21
-42.7965
  0
LINE
  8
0
 10
160
 20
-42.7965
 11
160.247
 21
-42.8104
  0
LINE
  8
0
 10
160.247
 20
-42.8104
 11
160.49
 21
-42.8518
  0
LINE
  8
0
 10
160.49
 20
-42.8518
 11
160.728
 21
-42.9202
  0
LINE
  8
0
 10
160.728
 20
-42.9202
 11
160.956
 21
-43.0148
  0
LINE
  8
0
 10
160.956
 20
-43.0148
 11
161.172
 21
-43.1343
  0
LINE
  8
0
 10
161.172
 20
-43.1343
 11
161.374
 21
-43.2773
  0
LINE
  8
0
 10
161.374
 20
-43.2773
 11
161.558
 21
-43.4419
  0
LINE
  8
0
 10
161.558
 20
-43.4419
 11
161.723
 21
-43.6262
  0
LINE
  8
0
 10
161.723
 20
-43.6262
 11
161.866
 21
-43.8277
  0
LINE
  8
0
 10
161.866
 20
-43.8277
 11
161.985
 21
-44.044
  0
LINE
  8
0
 10
161.985
 20
-44.044
 11
162.08
 21
-44.2722
  0
LINE
  8
0
 10
162.08
 20
-44.2722
 11
162.148
 21
-44.5097
  0
LINE
  8
0
 10
162.148
 20
-44.5097
 11
162.19
 21
-44.7533
  0
LINE
  8
0
 10
162.19
 20
-44.7533
 11
162.203
 21
-45
  0
LINE
  8
0
 10
162.203
 20
-45
 11
162.19
 21
-45.2467
  0
LINE
  8
0
 10
162.19
 20
-45.2467
 11
162.148
 21
-45.4903
  0
LINE
  8
0
 10
162.148
 20
-45.4903
 11
162.08
 21
-45.7278
  0
LINE
  8
0
 10
162.08
 20
-45.7278
 11
161.985
 21
-45.9561
  0
LINE
  8
0
 10
161.985
 20
-45.9561
 11
161.866
 21
-46.1723
  0
LINE
  8
0
 10
161.866
 20
-46.1723
 11
161.723
 21
-46.3738
  0
LINE
  8
0
 10
161.723
 20
-46.3738
 11
161.558
 21
-46.5581
  0
LINE
  8
0
 10
161.558
 20
-46.5581
 11
161.374
 21
-46.7227
  0
LINE
  8
0
 10
161.374
 20
-46.7227
 11
161.172
 21
-46.8657
  0
LINE
  8
0
 10
161.172
 20
-46.8657
 11
160.956
 21
-46.9853
  0
LINE
  8
0
 10
160.956
 20
-46.9853
 11
160.728
 21
-47.0798
  0
LINE
  8
0
 10
160.728
 20
-47.0798
 11
160.49
 21
-47.1482
  0
LINE
  8
0
 10
160.49
 20
-47.1482
 11
160.247
 21
-47.1896
  0
LINE
  8
0
 10
160.247
 20
-47.1896
 11
160
 21
-47.2035
  0
LINE
  8
0
 10
160
 20
-47.2035
 11
159.753
 21
-47.1896
  0
LINE
  8
0
 10
-160.247
 20
-47.1896
 11
-160.49
 21
-47.1482
  0
LINE
  8
0
 10
-160.49
 20
-47.1482
 11
-160.728
 21
-47.0798
  0
LINE
  8
0
 10
-160.728
 20
-47.0798
 11
-160.956
 21
-46.9853
  0
LINE
  8
0
 10
-160.956
 20
-46.9853
 11
-161.172
 21
-46.8657
  0
LINE
  8
0
 10
-161.172
 20
-46.8657
 11
-161.374
 21
-46.7227
  0
LINE
  8
0
 10
-161.374
 20
-46.7227
 11
-161.558
 21
-46.5581
  0
LINE
  8
0
 10
-161.558
 20
-46.5581
 11
-161.723
 21
-46.3738
  0
LINE
  8
0
 10
-161.723
 20
-46.3738
 11
-161.866
 21
-46.1723
  0
LINE
  8
0
 10
-161.866
 20
-46.1723
 11
-161.985
 21
-45.9561
  0
LINE
  8
0
 10
-161.985
 20
-45.9561
 11
-162.08
 21
-45.7278
  0
LINE
  8
0
 10
-162.08
 20
-45.7278
 11
-162.148
 21
-45.4903
  0
LINE
  8
0
 10
-162.148
 20
-45.4903
 11
-162.19
 21
-45.2467
  0
LINE
  8
0
 10
-162.19
 20
-45.2467
 11
-162.203
 21
-45
  0
LINE
  8
0
 10
-162.203
 20
-45
 11
-162.19
 21
-44.7533
  0
LINE
  8
0
 10
-162.19
 20
-44.7533
 11
-162.148
 21
-44.5097
  0
LINE
  8
0
 10
-162.148
 20
-44.5097
 11
-162.08
 21
-44.2722
  0
LINE
  8
0
 10
-162.08
 20
-44.2722
 11
-161.985
 21
-44.044
  0
LINE
  8
0
 10
-161.985
 20
-44.044
 11
-161.866
 21
-43.8277
  0
LINE
  8
0
 10
-161.866
 20
-43.8277
 11
-161.723
 21
-43.6262
  0
LINE
  8
0
 10
-161.723
 20
-43.6262
 11
-161.558
 21
-43.4419
  0
LINE
  8
0
 10
-161.558
 20
-43.4419
 11
-161.374
 21
-43.2773
  0
LINE
  8
0
 10
-161.374
 20
-43.2773
 11
-161.172
 21
-43.1343
  0
LINE
  8
0
 10
-161.172
 20
-43.1343
 11
-160.956
 21
-43.0148
  0
LINE
  8
0
 10
-160.956
 20
-43.0148
 11
-160.728
 21
-42.9202
  0
LINE
  8
0
 10
-160.728
 20
-42.9202
 11
-160.49
 21
-42.8518
  0
LINE
  8
0
 10
-160.49
 20
-42.8518
 11
-160.247
 21
-42.8104
  0
LINE
  8
0
 10
-160.247
 20
-42.8104
 11
-160
 21
-42.7965
  0
LINE
  8
0
 10
-160
 20
-42.7965
 11
-159.753
 21
-42.8104
  0
LINE
  8
0
 10
-159.753
 20
-42.8104
 11
-159.51
 21
-42.8518
  0
LINE
  8
0
 10
-159.51
 20
-42.8518
 11
-159.272
 21
-42.9202
  0
LINE
  8
0
 10
-159.272
 20
-42.9202
 11
-159.044
 21
-43.0148
  0
LINE
  8
0
 10
-159.044
 20
-43.0148
 11
-158.828
 21
-43.1343
  0
LINE
  8
0
 10
-158.828
 20
-43.1343
 11
-158.626
 21
-43.2773
  0
LINE
  8
0
 10
-158.626
 20
-43.2773
 11
-158.442
 21
-43.4419
  0
LINE
  8
0
 10
-158.442
 20
-43.4419
 11
-158.277
 21
-43.6262
  0
LINE
  8
0
 10
-158.277
 20
-43.6262
 11
-158.134
 21
-43.8277
  0
LINE
  8
0
 10
-158.134
 20
-43.8277
 11
-158.015
 21
-44.044
  0
LINE
  8
0
 10
-158.015
 20
-44.044
 11
-157.92
 21
-44.2722
  0
LINE
  8
0
 10
-157.92
 20
-44.2722
 11
-157.852
 21
-44.5097
  0
LINE
  8
0
 10
-157.852
 20
-44.5097
 11
-157.81
 21
-44.7533
  0
LINE
  8
0
 10
-157.81
 20
-44.7533
 11
-157.797
 21
-45
  0
LINE
  8
0
 10
-157.797
 20
-45
 11
-157.81
 21
-45.2467
  0
LINE
  8
0
 10
-157.81
 20
-45.2467
 11
-157.852
 21
-45.4903
  0
LINE
  8
0
 10
-157.852
 20
-45.4903
 11
-157.92
 21
-45.7278
  0
LINE
  8
0
 10
-157.92
 20
-45.7278
 11
-158.015
 21
-45.9561
  0
LINE
  8
0
 10
-158.015
 20
-45.9561
 11
-158.134
 21
-46.1723
  0
LINE
  8
0
 10
-158.134
 20
-46.1723
 11
-158.277
 21
-46.3738
  0
LINE
  8
0
 10
-158.277
 20
-46.3738
 11
-158.442
 21
-46.5581
  0
LINE
  8
0
 10
-158.442
 20
-46.5581
 11
-158.626
 21
-46.7227
  0
LINE
  8
0
 10
-158.626
 20
-46.7227
 11
-158.828
 21
-46.8657
  0
LINE
  8
0
 10
-158.828
 20
-46.8657
 11
-159.044
 21
-46.9853
  0
LINE
  8
0
 10
-159.044
 20
-46.9853
 11
-159.272
 21
-47.0798
  0
LINE
  8
0
 10
-159.272
 20
-47.0798
 11
-159.51
 21
-47.1482
  0
LINE
  8
0
 10
-159.51
 20
-47.1482
 11
-159.753
 21
-47.1896
  0
LINE
  8
0
 10
-159.753
 20
-47.1896
 11
-160
 21
-47.2035
  0
LINE
  8
0
 10
-160
 20
-47.2035
 11
-160.247
 21
-47.1896
  0
LINE
  8
0
 10
-7.7467
 20
-106.19
 11
-7.99031
 21
-106.148
  0
LINE
  8
0
 10
-7.99031
 20
-106.148
 11
-8.22775
 21
-106.08
  0
LINE
  8
0
 10
-8.22775
 20
-106.08
 11
-8.45604
 21
-105.985
  0
LINE
  8
0
 10
-8.45604
 20
-105.985
 11
-8.6723
 21
-105.866
  0
LINE
  8
0
 10
-8.6723
 20
-105.866
 11
-8.87383
 21
-105.723
  0
LINE
  8
0
 10
-8.87383
 20
-105.723
 11
-9.05807
 21
-105.558
  0
LINE
  8
0
 10
-9.05807
 20
-105.558
 11
-9.22273
 21
-105.374
  0
LINE
  8
0
 10
-9.22273
 20
-105.374
 11
-9.36572
 21
-105.172
  0
LINE
  8
0
 10
-9.36572
 20
-105.172
 11
-9.48524
 21
-104.956
  0
LINE
  8
0
 10
-9.48524
 20
-104.956
 11
-9.5798
 21
-104.728
  0
LINE
  8
0
 10
-9.5798
 20
-104.728
 11
-9.64821
 21
-104.49
  0
LINE
  8
0
 10
-9.64821
 20
-104.49
 11
-9.68961
 21
-104.247
  0
LINE
  8
0
 10
-9.68961
 20
-104.247
 11
-9.70346
 21
-104
  0
LINE
  8
0
 10
-9.70346
 20
-104
 11
-9.68961
 21
-103.753
  0
LINE
  8
0
 10
-9.68961
 20
-103.753
 11
-9.64821
 21
-103.51
  0
LINE
  8
0
 10
-9.64821
 20
-103.51
 11
-9.5798
 21
-103.272
  0
LINE
  8
0
 10
-9.5798
 20
-103.272
 11
-9.48524
 21
-103.044
  0
LINE
  8
0
 10
-9.48524
 20
-103.044
 11
-9.36572
 21
-102.828
  0
LINE
  8
0
 10
-9.36572
 20
-102.828
 11
-9.22273
 21
-102.626
  0
LINE
  8
0
 10
-9.22273
 20
-102.626
 11
-9.05807
 21
-102.442
  0
LINE
  8
0
 10
-9.05807
 20
-102.442
 11
-8.87383
 21
-102.277
  0
LINE
  8
0
 10
-8.87383
 20
-102.277
 11
-8.6723
 21
-102.134
  0
LINE
  8
0
 10
-8.6723
 20
-102.134
 11
-8.45604
 21
-102.015
  0
LINE
  8
0
 10
-8.45604
 20
-102.015
 11
-8.22775
 21
-101.92
  0
LINE
  8
0
 10
-8.22775
 20
-101.92
 11
-7.99031
 21
-101.852
  0
LINE
  8
0
 10
-7.99031
 20
-101.852
 11
-7.7467
 21
-101.81
  0
LINE
  8
0
 10
-7.7467
 20
-101.81
 11
-7.5
 21
-101.797
  0
LINE
  8
0
 10
-7.5
 20
-101.797
 11
-7.25328
 21
-101.81
  0
LINE
  8
0
 10
-7.25328
 20
-101.81
 11
-7.00967
 21
-101.852
  0
LINE
  8
0
 10
-7.00967
 20
-101.852
 11
-6.77223
 21
-101.92
  0
LINE
  8
0
 10
-6.77223
 20
-101.92
 11
-6.54395
 21
-102.015
  0
LINE
  8
0
 10
-6.54395
 20
-102.015
 11
-6.32768
 21
-102.134
  0
LINE
  8
0
 10
-6.32768
 20
-102.134
 11
-6.12616
 21
-102.277
  0
LINE
  8
0
 10
-6.12616
 20
-102.277
 11
-5.94191
 21
-102.442
  0
LINE
  8
0
 10
-5.94191
 20
-102.442
 11
-5.77725
 21
-102.626
  0
LINE
  8
0
 10
-5.77725
 20
-102.626
 11
-5.63426
 21
-102.828
  0
LINE
  8
0
 10
-5.63426
 20
-102.828
 11
-5.51474
 21
-103.044
  0
LINE
  8
0
 10
-5.51474
 20
-103.044
 11
-5.42018
 21
-103.272
  0
LINE
  8
0
 10
-5.42018
 20
-103.272
 11
-5.35178
 21
-103.51
  0
LINE
  8
0
 10
-5.35178
 20
-103.51
 11
-5.31038
 21
-103.753
  0
LINE
  8
0
 10
-5.31038
 20
-103.753
 11
-5.29652
 21
-104
  0
LINE
  8
0
 10
-5.29652
 20
-104
 11
-5.31038
 21
-104.247
  0
LINE
  8
0
 10
-5.31038
 20
-104.247
 11
-5.35178
 21
-104.49
  0
LINE
  8
0
 10
-5.35178
 20
-104.49
 11
-5.42018
 21
-104.728
  0
LINE
  8
0
 10
-5.42018
 20
-104.728
 11
-5.51474
 21
-104.956
  0
LINE
  8
0
 10
-5.51474
 20
-104.956
 11
-5.63426
 21
-105.172
  0
LINE
  8
0
 10
-5.63426
 20
-105.172
 11
-5.77725
 21
-105.374
  0
LINE
  8
0
 10
-5.77725
 20
-105.374
 11
-5.94191
 21
-105.558
  0
LINE
  8
0
 10
-5.94191
 20
-105.558
 11
-6.12616
 21
-105.723
  0
LINE
  8
0
 10
-6.12616
 20
-105.723
 11
-6.32768
 21
-105.866
  0
LINE
  8
0
 10
-6.32768
 20
-105.866
 11
-6.54395
 21
-105.985
  0
LINE
  8
0
 10
-6.54395
 20
-105.985
 11
-6.77223
 21
-106.08
  0
LINE
  8
0
 10
-6.77223
 20
-106.08
 11
-7.00967
 21
-106.148
  0
LINE
  8
0
 10
-7.00967
 20
-106.148
 11
-7.25328
 21
-106.19
  0
LINE
  8
0
 10
-7.25328
 20
-106.19
 11
-7.5
 21
-106.203
  0
LINE
  8
0
 10
-7.5
 20
-106.203
 11
-7.7467
 21
-106.19
  0
LINE
  8
0
 10
82.7534
 20
-127.636
 11
82.5123
 21
-127.581
  0
LINE
  8
0
 10
82.5123
 20
-127.581
 11
82.2821
 21
-127.491
  0
LINE
  8
0
 10
82.2821
 20
-127.491
 11
82.0679
 21
-127.367
  0
LINE
  8
0
 10
82.0679
 20
-127.367
 11
81.8746
 21
-127.213
  0
LINE
  8
0
 10
81.8746
 20
-127.213
 11
81.7064
 21
-127.032
  0
LINE
  8
0
 10
81.7064
 20
-127.032
 11
81.5671
 21
-126.827
  0
LINE
  8
0
 10
81.5671
 20
-126.827
 11
81.4598
 21
-126.604
  0
LINE
  8
0
 10
81.4598
 20
-126.604
 11
81.3869
 21
-126.368
  0
LINE
  8
0
 10
81.3869
 20
-126.368
 11
81.35
 21
-126.124
  0
LINE
  8
0
 10
81.35
 20
-126.124
 11
81.35
 21
-125.876
  0
LINE
  8
0
 10
81.35
 20
-125.876
 11
81.3869
 21
-125.632
  0
LINE
  8
0
 10
81.3869
 20
-125.632
 11
81.4598
 21
-125.395
  0
LINE
  8
0
 10
81.4598
 20
-125.395
 11
81.5671
 21
-125.173
  0
LINE
  8
0
 10
81.5671
 20
-125.173
 11
81.7064
 21
-124.968
  0
LINE
  8
0
 10
81.7064
 20
-124.968
 11
81.8746
 21
-124.787
  0
LINE
  8
0
 10
81.8746
 20
-124.787
 11
82.0679
 21
-124.633
  0
LINE
  8
0
 10
82.0679
 20
-124.633
 11
82.2821
 21
-124.509
  0
LINE
  8
0
 10
82.2821
 20
-124.509
 11
82.5123
 21
-124.419
  0
LINE
  8
0
 10
82.5123
 20
-124.419
 11
82.7534
 21
-124.364
  0
LINE
  8
0
 10
82.7534
 20
-124.364
 11
83
 21
-124.345
  0
LINE
  8
0
 10
83
 20
-124.345
 11
83.2466
 21
-124.364
  0
LINE
  8
0
 10
83.2466
 20
-124.364
 11
83.4877
 21
-124.419
  0
LINE
  8
0
 10
83.4877
 20
-124.419
 11
83.7179
 21
-124.509
  0
LINE
  8
0
 10
83.7179
 20
-124.509
 11
83.9321
 21
-124.633
  0
LINE
  8
0
 10
83.9321
 20
-124.633
 11
84.1254
 21
-124.787
  0
LINE
  8
0
 10
84.1254
 20
-124.787
 11
84.2936
 21
-124.968
  0
LINE
  8
0
 10
84.2936
 20
-124.968
 11
84.433
 21
-125.173
  0
LINE
  8
0
 10
84.433
 20
-125.173
 11
84.5403
 21
-125.395
  0
LINE
  8
0
 10
84.5403
 20
-125.395
 11
84.6131
 21
-125.632
  0
LINE
  8
0
 10
84.6131
 20
-125.632
 11
84.65
 21
-125.876
  0
LINE
  8
0
 10
84.65
 20
-125.876
 11
84.65
 21
-126.124
  0
LINE
  8
0
 10
84.65
 20
-126.124
 11
84.6131
 21
-126.368
  0
LINE
  8
0
 10
84.6131
 20
-126.368
 11
84.5403
 21
-126.604
  0
LINE
  8
0
 10
84.5403
 20
-126.604
 11
84.433
 21
-126.827
  0
LINE
  8
0
 10
84.433
 20
-126.827
 11
84.2936
 21
-127.032
  0
LINE
  8
0
 10
84.2936
 20
-127.032
 11
84.1254
 21
-127.213
  0
LINE
  8
0
 10
84.1254
 20
-127.213
 11
83.9321
 21
-127.367
  0
LINE
  8
0
 10
83.9321
 20
-127.367
 11
83.7179
 21
-127.491
  0
LINE
  8
0
 10
83.7179
 20
-127.491
 11
83.4877
 21
-127.581
  0
LINE
  8
0
 10
83.4877
 20
-127.581
 11
83.2466
 21
-127.636
  0
LINE
  8
0
 10
83.2466
 20
-127.636
 11
83
 21
-127.655
  0
LINE
  8
0
 10
83
 20
-127.655
 11
82.7534
 21
-127.636
  0
LINE
  8
0
 10
159.753
 20
-127.636
 11
159.512
 21
-127.581
  0
LINE
  8
0
 10
159.512
 20
-127.581
 11
159.282
 21
-127.491
  0
LINE
  8
0
 10
159.282
 20
-127.491
 11
159.068
 21
-127.367
  0
LINE
  8
0
 10
159.068
 20
-127.367
 11
158.875
 21
-127.213
  0
LINE
  8
0
 10
158.875
 20
-127.213
 11
158.706
 21
-127.032
  0
LINE
  8
0
 10
158.706
 20
-127.032
 11
158.567
 21
-126.827
  0
LINE
  8
0
 10
158.567
 20
-126.827
 11
158.46
 21
-126.604
  0
LINE
  8
0
 10
158.46
 20
-126.604
 11
158.387
 21
-126.368
  0
LINE
  8
0
 10
158.387
 20
-126.368
 11
158.35
 21
-126.124
  0
LINE
  8
0
 10
158.35
 20
-126.124
 11
158.35
 21
-125.876
  0
LINE
  8
0
 10
158.35
 20
-125.876
 11
158.387
 21
-125.632
  0
LINE
  8
0
 10
158.387
 20
-125.632
 11
158.46
 21
-125.395
  0
LINE
  8
0
 10
158.46
 20
-125.395
 11
158.567
 21
-125.173
  0
LINE
  8
0
 10
158.567
 20
-125.173
 11
158.706
 21
-124.968
  0
LINE
  8
0
 10
158.706
 20
-124.968
 11
158.875
 21
-124.787
  0
LINE
  8
0
 10
158.875
 20
-124.787
 11
159.068
 21
-124.633
  0
LINE
  8
0
 10
159.068
 20
-124.633
 11
159.282
 21
-124.509
  0
LINE
  8
0
 10
159.282
 20
-124.509
 11
159.512
 21
-124.419
  0
LINE
  8
0
 10
159.512
 20
-124.419
 11
159.753
 21
-124.364
  0
LINE
  8
0
 10
159.753
 20
-124.364
 11
160
 21
-124.345
  0
LINE
  8
0
 10
160
 20
-124.345
 11
160.247
 21
-124.364
  0
LINE
  8
0
 10
160.247
 20
-124.364
 11
160.488
 21
-124.419
  0
LINE
  8
0
 10
160.488
 20
-124.419
 11
160.718
 21
-124.509
  0
LINE
  8
0
 10
160.718
 20
-124.509
 11
160.932
 21
-124.633
  0
LINE
  8
0
 10
160.932
 20
-124.633
 11
161.125
 21
-124.787
  0
LINE
  8
0
 10
161.125
 20
-124.787
 11
161.294
 21
-124.968
  0
LINE
  8
0
 10
161.294
 20
-124.968
 11
161.433
 21
-125.173
  0
LINE
  8
0
 10
161.433
 20
-125.173
 11
161.54
 21
-125.395
  0
LINE
  8
0
 10
161.54
 20
-125.395
 11
161.613
 21
-125.632
  0
LINE
  8
0
 10
161.613
 20
-125.632
 11
161.65
 21
-125.876
  0
LINE
  8
0
 10
161.65
 20
-125.876
 11
161.65
 21
-126.124
  0
LINE
  8
0
 10
161.65
 20
-126.124
 11
161.613
 21
-126.368
  0
LINE
  8
0
 10
161.613
 20
-126.368
 11
161.54
 21
-126.604
  0
LINE
  8
0
 10
161.54
 20
-126.604
 11
161.433
 21
-126.827
  0
LINE
  8
0
 10
161.433
 20
-126.827
 11
161.294
 21
-127.032
  0
LINE
  8
0
 10
161.294
 20
-127.032
 11
161.125
 21
-127.213
  0
LINE
  8
0
 10
161.125
 20
-127.213
 11
160.932
 21
-127.367
  0
LINE
  8
0
 10
160.932
 20
-127.367
 11
160.718
 21
-127.491
  0
LINE
  8
0
 10
160.718
 20
-127.491
 11
160.488
 21
-127.581
  0
LINE
  8
0
 10
160.488
 20
-127.581
 11
160.247
 21
-127.636
  0
LINE
  8
0
 10
160.247
 20
-127.636
 11
160
 21
-127.655
  0
LINE
  8
0
 10
160
 20
-127.655
 11
159.753
 21
-127.636
  0
LINE
  8
0
 10
159.753
 20
-137.19
 11
159.51
 21
-137.148
  0
LINE
  8
0
 10
159.51
 20
-137.148
 11
159.272
 21
-137.08
  0
LINE
  8
0
 10
159.272
 20
-137.08
 11
159.044
 21
-136.985
  0
LINE
  8
0
 10
159.044
 20
-136.985
 11
158.828
 21
-136.866
  0
LINE
  8
0
 10
158.828
 20
-136.866
 11
158.626
 21
-136.723
  0
LINE
  8
0
 10
158.626
 20
-136.723
 11
158.442
 21
-136.558
  0
LINE
  8
0
 10
158.442
 20
-136.558
 11
158.277
 21
-136.374
  0
LINE
  8
0
 10
158.277
 20
-136.374
 11
158.134
 21
-136.172
  0
LINE
  8
0
 10
158.134
 20
-136.172
 11
158.015
 21
-135.956
  0
LINE
  8
0
 10
158.015
 20
-135.956
 11
157.92
 21
-135.728
  0
LINE
  8
0
 10
157.92
 20
-135.728
 11
157.852
 21
-135.49
  0
LINE
  8
0
 10
157.852
 20
-135.49
 11
157.81
 21
-135.247
  0
LINE
  8
0
 10
157.81
 20
-135.247
 11
157.797
 21
-135
  0
LINE
  8
0
 10
157.797
 20
-135
 11
157.81
 21
-134.753
  0
LINE
  8
0
 10
157.81
 20
-134.753
 11
157.852
 21
-134.51
  0
LINE
  8
0
 10
157.852
 20
-134.51
 11
157.92
 21
-134.272
  0
LINE
  8
0
 10
157.92
 20
-134.272
 11
158.015
 21
-134.044
  0
LINE
  8
0
 10
158.015
 20
-134.044
 11
158.134
 21
-133.828
  0
LINE
  8
0
 10
158.134
 20
-133.828
 11
158.277
 21
-133.626
  0
LINE
  8
0
 10
158.277
 20
-133.626
 11
158.442
 21
-133.442
  0
LINE
  8
0
 10
158.442
 20
-133.442
 11
158.626
 21
-133.277
  0
LINE
  8
0
 10
158.626
 20
-133.277
 11
158.828
 21
-133.134
  0
LINE
  8
0
 10
158.828
 20
-133.134
 11
159.044
 21
-133.015
  0
LINE
  8
0
 10
159.044
 20
-133.015
 11
159.272
 21
-132.92
  0
LINE
  8
0
 10
159.272
 20
-132.92
 11
159.51
 21
-132.852
  0
LINE
  8
0
 10
159.51
 20
-132.852
 11
159.753
 21
-132.81
  0
LINE
  8
0
 10
159.753
 20
-132.81
 11
160
 21
-132.797
  0
LINE
  8
0
 10
160
 20
-132.797
 11
160.247
 21
-132.81
  0
LINE
  8
0
 10
160.247
 20
-132.81
 11
160.49
 21
-132.852
  0
LINE
  8
0
 10
160.49
 20
-132.852
 11
160.728
 21
-132.92
  0
LINE
  8
0
 10
160.728
 20
-132.92
 11
160.956
 21
-133.015
  0
LINE
  8
0
 10
160.956
 20
-133.015
 11
161.172
 21
-133.134
  0
LINE
  8
0
 10
161.172
 20
-133.134
 11
161.374
 21
-133.277
  0
LINE
  8
0
 10
161.374
 20
-133.277
 11
161.558
 21
-133.442
  0
LINE
  8
0
 10
161.558
 20
-133.442
 11
161.723
 21
-133.626
  0
LINE
  8
0
 10
161.723
 20
-133.626
 11
161.866
 21
-133.828
  0
LINE
  8
0
 10
161.866
 20
-133.828
 11
161.985
 21
-134.044
  0
LINE
  8
0
 10
161.985
 20
-134.044
 11
162.08
 21
-134.272
  0
LINE
  8
0
 10
162.08
 20
-134.272
 11
162.148
 21
-134.51
  0
LINE
  8
0
 10
162.148
 20
-134.51
 11
162.19
 21
-134.753
  0
LINE
  8
0
 10
162.19
 20
-134.753
 11
162.203
 21
-135
  0
LINE
  8
0
 10
162.203
 20
-135
 11
162.19
 21
-135.247
  0
LINE
  8
0
 10
162.19
 20
-135.247
 11
162.148
 21
-135.49
  0
LINE
  8
0
 10
162.148
 20
-135.49
 11
162.08
 21
-135.728
  0
LINE
  8
0
 10
162.08
 20
-135.728
 11
161.985
 21
-135.956
  0
LINE
  8
0
 10
161.985
 20
-135.956
 11
161.866
 21
-136.172
  0
LINE
  8
0
 10
161.866
 20
-136.172
 11
161.723
 21
-136.374
  0
LINE
  8
0
 10
161.723
 20
-136.374
 11
161.558
 21
-136.558
  0
LINE
  8
0
 10
161.558
 20
-136.558
 11
161.374
 21
-136.723
  0
LINE
  8
0
 10
161.374
 20
-136.723
 11
161.172
 21
-136.866
  0
LINE
  8
0
 10
161.172
 20
-136.866
 11
160.956
 21
-136.985
  0
LINE
  8
0
 10
160.956
 20
-136.985
 11
160.728
 21
-137.08
  0
LINE
  8
0
 10
160.728
 20
-137.08
 11
160.49
 21
-137.148
  0
LINE
  8
0
 10
160.49
 20
-137.148
 11
160.247
 21
-137.19
  0
LINE
  8
0
 10
160.247
 20
-137.19
 11
160
 21
-137.203
  0
LINE
  8
0
 10
160
 20
-137.203
 11
159.753
 21
-137.19
  0
LINE
  8
0
 10
-160.247
 20
-137.19
 11
-160.49
 21
-137.148
  0
LINE
  8
0
 10
-160.49
 20
-137.148
 11
-160.728
 21
-137.08
  0
LINE
  8
0
 10
-160.728
 20
-137.08
 11
-160.956
 21
-136.985
  0
LINE
  8
0
 10
-160.956
 20
-136.985
 11
-161.172
 21
-136.866
  0
LINE
  8
0
 10
-161.172
 20
-136.866
 11
-161.374
 21
-136.723
  0
LINE
  8
0
 10
-161.374
 20
-136.723
 11
-161.558
 21
-136.558
  0
LINE
  8
0
 10
-161.558
 20
-136.558
 11
-161.723
 21
-136.374
  0
LINE
  8
0
 10
-161.723
 20
-136.374
 11
-161.866
 21
-136.172
  0
LINE
  8
0
 10
-161.866
 20
-136.172
 11
-161.985
 21
-135.956
  0
LINE
  8
0
 10
-161.985
 20
-135.956
 11
-162.08
 21
-135.728
  0
LINE
  8
0
 10
-162.08
 20
-135.728
 11
-162.148
 21
-135.49
  0
LINE
  8
0
 10
-162.148
 20
-135.49
 11
-162.19
 21
-135.247
  0
LINE
  8
0
 10
-162.19
 20
-135.247
 11
-162.203
 21
-135
  0
LINE
  8
0
 10
-162.203
 20
-135
 11
-162.19
 21
-134.753
  0
LINE
  8
0
 10
-162.19
 20
-134.753
 11
-162.148
 21
-134.51
  0
LINE
  8
0
 10
-162.148
 20
-134.51
 11
-162.08
 21
-134.272
  0
LINE
  8
0
 10
-162.08
 20
-134.272
 11
-161.985
 21
-134.044
  0
LINE
  8
0
 10
-161.985
 20
-134.044
 11
-161.866
 21
-133.828
  0
LINE
  8
0
 10
-161.866
 20
-133.828
 11
-161.723
 21
-133.626
  0
LINE
  8
0
 10
-161.723
 20
-133.626
 11
-161.558
 21
-133.442
  0
LINE
  8
0
 10
-161.558
 20
-133.442
 11
-161.374
 21
-133.277
  0
LINE
  8
0
 10
-161.374
 20
-133.277
 11
-161.172
 21
-133.134
  0
LINE
  8
0
 10
-161.172
 20
-133.134
 11
-160.956
 21
-133.015
  0
LINE
  8
0
 10
-160.956
 20
-133.015
 11
-160.728
 21
-132.92
  0
LINE
  8
0
 10
-160.728
 20
-132.92
 11
-160.49
 21
-132.852
  0
LINE
  8
0
 10
-160.49
 20
-132.852
 11
-160.247
 21
-132.81
  0
LINE
  8
0
 10
-160.247
 20
-132.81
 11
-160
 21
-132.797
  0
LINE
  8
0
 10
-160
 20
-132.797
 11
-159.753
 21
-132.81
  0
LINE
  8
0
 10
-159.753
 20
-132.81
 11
-159.51
 21
-132.852
  0
LINE
  8
0
 10
-159.51
 20
-132.852
 11
-159.272
 21
-132.92
  0
LINE
  8
0
 10
-159.272
 20
-132.92
 11
-159.044
 21
-133.015
  0
LINE
  8
0
 10
-159.044
 20
-133.015
 11
-158.828
 21
-133.134
  0
LINE
  8
0
 10
-158.828
 20
-133.134
 11
-158.626
 21
-133.277
  0
LINE
  8
0
 10
-158.626
 20
-133.277
 11
-158.442
 21
-133.442
  0
LINE
  8
0
 10
-158.442
 20
-133.442
 11
-158.277
 21
-133.626
  0
LINE
  8
0
 10
-158.277
 20
-133.626
 11
-158.134
 21
-133.828
  0
LINE
  8
0
 10
-158.134
 20
-133.828
 11
-158.015
 21
-134.044
  0
LINE
  8
0
 10
-158.015
 20
-134.044
 11
-157.92
 21
-134.272
  0
LINE
  8
0
 10
-157.92
 20
-134.272
 11
-157.852
 21
-134.51
  0
LINE
  8
0
 10
-157.852
 20
-134.51
 11
-157.81
 21
-134.753
  0
LINE
  8
0
 10
-157.81
 20
-134.753
 11
-157.797
 21
-135
  0
LINE
  8
0
 10
-157.797
 20
-135
 11
-157.81
 21
-135.247
  0
LINE
  8
0
 10
-157.81
 20
-135.247
 11
-157.852
 21
-135.49
  0
LINE
  8
0
 10
-157.852
 20
-135.49
 11
-157.92
 21
-135.728
  0
LINE
  8
0
 10
-157.92
 20
-135.728
 11
-158.015
 21
-135.956
  0
LINE
  8
0
 10
-158.015
 20
-135.956
 11
-158.134
 21
-136.172
  0
LINE
  8
0
 10
-158.134
 20
-136.172
 11
-158.277
 21
-136.374
  0
LINE
  8
0
 10
-158.277
 20
-136.374
 11
-158.442
 21
-136.558
  0
LINE
  8
0
 10
-158.442
 20
-136.558
 11
-158.626
 21
-136.723
  0
LINE
  8
0
 10
-158.626
 20
-136.723
 11
-158.828
 21
-136.866
  0
LINE
  8
0
 10
-158.828
 20
-136.866
 11
-159.044
 21
-136.985
  0
LINE
  8
0
 10
-159.044
 20
-136.985
 11
-159.272
 21
-137.08
  0
LINE
  8
0
 10
-159.272
 20
-137.08
 11
-159.51
 21
-137.148
  0
LINE
  8
0
 10
-159.51
 20
-137.148
 11
-159.753
 21
-137.19
  0
LINE
  8
0
 10
-159.753
 20
-137.19
 11
-160
 21
-137.203
  0
LINE
  8
0
 10
-160
 20
-137.203
 11
-160.247
 21
-137.19
  0
LINE
  8
0
 10
159.665
 20
-163.187
 11
159.334
 21
-163.134
  0
LINE
  8
0
 10
159.334
 20
-163.134
 11
159.01
 21
-163.048
  0
LINE
  8
0
 10
159.01
 20
-163.048
 11
158.697
 21
-162.927
  0
LINE
  8
0
 10
158.697
 20
-162.927
 11
158.398
 21
-162.775
  0
LINE
  8
0
 10
158.398
 20
-162.775
 11
158.117
 21
-162.592
  0
LINE
  8
0
 10
158.117
 20
-162.592
 11
157.856
 21
-162.381
  0
LINE
  8
0
 10
157.856
 20
-162.381
 11
157.619
 21
-162.144
  0
LINE
  8
0
 10
157.619
 20
-162.144
 11
157.408
 21
-161.883
  0
LINE
  8
0
 10
157.408
 20
-161.883
 11
157.225
 21
-161.602
  0
LINE
  8
0
 10
157.225
 20
-161.602
 11
157.073
 21
-161.303
  0
LINE
  8
0
 10
157.073
 20
-161.303
 11
156.952
 21
-160.99
  0
LINE
  8
0
 10
156.952
 20
-160.99
 11
156.866
 21
-160.666
  0
LINE
  8
0
 10
156.866
 20
-160.666
 11
156.813
 21
-160.335
  0
LINE
  8
0
 10
156.813
 20
-160.335
 11
156.796
 21
-160
  0
LINE
  8
0
 10
156.796
 20
-160
 11
156.813
 21
-159.665
  0
LINE
  8
0
 10
156.813
 20
-159.665
 11
156.866
 21
-159.334
  0
LINE
  8
0
 10
156.866
 20
-159.334
 11
156.952
 21
-159.01
  0
LINE
  8
0
 10
156.952
 20
-159.01
 11
157.073
 21
-158.697
  0
LINE
  8
0
 10
157.073
 20
-158.697
 11
157.225
 21
-158.398
  0
LINE
  8
0
 10
157.225
 20
-158.398
 11
157.408
 21
-158.117
  0
LINE
  8
0
 10
157.408
 20
-158.117
 11
157.619
 21
-157.856
  0
LINE
  8
0
 10
157.619
 20
-157.856
 11
157.856
 21
-157.619
  0
LINE
  8
0
 10
157.856
 20
-157.619
 11
158.117
 21
-157.408
  0
LINE
  8
0
 10
158.117
 20
-157.408
 11
158.398
 21
-157.225
  0
LINE
  8
0
 10
158.398
 20
-157.225
 11
158.697
 21
-157.073
  0
LINE
  8
0
 10
158.697
 20
-157.073
 11
159.01
 21
-156.952
  0
LINE
  8
0
 10
159.01
 20
-156.952
 11
159.334
 21
-156.866
  0
LINE
  8
0
 10
159.334
 20
-156.866
 11
159.665
 21
-156.813
  0
LINE
  8
0
 10
159.665
 20
-156.813
 11
160
 21
-156.796
  0
LINE
  8
0
 10
160
 20
-156.796
 11
160.335
 21
-156.813
  0
LINE
  8
0
 10
160.335
 20
-156.813
 11
160.666
 21
-156.866
  0
LINE
  8
0
 10
160.666
 20
-156.866
 11
160.99
 21
-156.952
  0
LINE
  8
0
 10
160.99
 20
-156.952
 11
161.303
 21
-157.073
  0
LINE
  8
0
 10
161.303
 20
-157.073
 11
161.602
 21
-157.225
  0
LINE
  8
0
 10
161.602
 20
-157.225
 11
161.883
 21
-157.408
  0
LINE
  8
0
 10
161.883
 20
-157.408
 11
162.144
 21
-157.619
  0
LINE
  8
0
 10
162.144
 20
-157.619
 11
162.381
 21
-157.856
  0
LINE
  8
0
 10
162.381
 20
-157.856
 11
162.592
 21
-158.117
  0
LINE
  8
0
 10
162.592
 20
-158.117
 11
162.775
 21
-158.398
  0
LINE
  8
0
 10
162.775
 20
-158.398
 11
162.927
 21
-158.697
  0
LINE
  8
0
 10
162.927
 20
-158.697
 11
163.048
 21
-159.01
  0
LINE
  8
0
 10
163.048
 20
-159.01
 11
163.134
 21
-159.334
  0
LINE
  8
0
 10
163.134
 20
-159.334
 11
163.187
 21
-159.665
  0
LINE
  8
0
 10
163.187
 20
-159.665
 11
163.204
 21
-160
  0
LINE
  8
0
 10
163.204
 20
-160
 11
163.187
 21
-160.335
  0
LINE
  8
0
 10
163.187
 20
-160.335
 11
163.134
 21
-160.666
  0
LINE
  8
0
 10
163.134
 20
-160.666
 11
163.048
 21
-160.99
  0
LINE
  8
0
 10
163.048
 20
-160.99
 11
162.927
 21
-161.303
  0
LINE
  8
0
 10
162.927
 20
-161.303
 11
162.775
 21
-161.602
  0
LINE
  8
0
 10
162.775
 20
-161.602
 11
162.592
 21
-161.883
  0
LINE
  8
0
 10
162.592
 20
-161.883
 11
162.381
 21
-162.144
  0
LINE
  8
0
 10
162.381
 20
-162.144
 11
162.144
 21
-162.381
  0
LINE
  8
0
 10
162.144
 20
-162.381
 11
161.883
 21
-162.592
  0
LINE
  8
0
 10
161.883
 20
-162.592
 11
161.602
 21
-162.775
  0
LINE
  8
0
 10
161.602
 20
-162.775
 11
161.303
 21
-162.927
  0
LINE
  8
0
 10
161.303
 20
-162.927
 11
160.99
 21
-163.048
  0
LINE
  8
0
 10
160.99
 20
-163.048
 11
160.666
 21
-163.134
  0
LINE
  8
0
 10
160.666
 20
-163.134
 11
160.335
 21
-163.187
  0
LINE
  8
0
 10
160.335
 20
-163.187
 11
160
 21
-163.204
  0
LINE
  8
0
 10
160
 20
-163.204
 11
159.665
 21
-163.187
  0
LINE
  8
0
 10
-160.335
 20
-163.187
 11
-160.666
 21
-163.134
  0
LINE
  8
0
 10
-160.666
 20
-163.134
 11
-160.99
 21
-163.048
  0
LINE
  8
0
 10
-160.99
 20
-163.048
 11
-161.303
 21
-162.927
  0
LINE
  8
0
 10
-161.303
 20
-162.927
 11
-161.602
 21
-162.775
  0
LINE
  8
0
 10
-161.602
 20
-162.775
 11
-161.883
 21
-162.592
  0
LINE
  8
0
 10
-161.883
 20
-162.592
 11
-162.144
 21
-162.381
  0
LINE
  8
0
 10
-162.144
 20
-162.381
 11
-162.381
 21
-162.144
  0
LINE
  8
0
 10
-162.381
 20
-162.144
 11
-162.592
 21
-161.883
  0
LINE
  8
0
 10
-162.592
 20
-161.883
 11
-162.775
 21
-161.602
  0
LINE
  8
0
 10
-162.775
 20
-161.602
 11
-162.927
 21
-161.303
  0
LINE
  8
0
 10
-162.927
 20
-161.303
 11
-163.048
 21
-160.99
  0
LINE
  8
0
 10
-163.048
 20
-160.99
 11
-163.134
 21
-160.666
  0
LINE
  8
0
 10
-163.134
 20
-160.666
 11
-163.187
 21
-160.335
  0
LINE
  8
0
 10
-163.187
 20
-160.335
 11
-163.204
 21
-160
  0
LINE
  8
0
 10
-163.204
 20
-160
 11
-163.187
 21
-159.665
  0
LINE
  8
0
 10
-163.187
 20
-159.665
 11
-163.134
 21
-159.334
  0
LINE
  8
0
 10
-163.134
 20
-159.334
 11
-163.048
 21
-159.01
  0
LINE
  8
0
 10
-163.048
 20
-159.01
 11
-162.927
 21
-158.697
  0
LINE
  8
0
 10
-162.927
 20
-158.697
 11
-162.775
 21
-158.398
  0
LINE
  8
0
 10
-162.775
 20
-158.398
 11
-162.592
 21
-158.117
  0
LINE
  8
0
 10
-162.592
 20
-158.117
 11
-162.381
 21
-157.856
  0
LINE
  8
0
 10
-162.381
 20
-157.856
 11
-162.144
 21
-157.619
  0
LINE
  8
0
 10
-162.144
 20
-157.619
 11
-161.883
 21
-157.408
  0
LINE
  8
0
 10
-161.883
 20
-157.408
 11
-161.602
 21
-157.225
  0
LINE
  8
0
 10
-161.602
 20
-157.225
 11
-161.303
 21
-157.073
  0
LINE
  8
0
 10
-161.303
 20
-157.073
 11
-160.99
 21
-156.952
  0
LINE
  8
0
 10
-160.99
 20
-156.952
 11
-160.666
 21
-156.866
  0
LINE
  8
0
 10
-160.666
 20
-156.866
 11
-160.335
 21
-156.813
  0
LINE
  8
0
 10
-160.335
 20
-156.813
 11
-160
 21
-156.796
  0
LINE
  8
0
 10
-160
 20
-156.796
 11
-159.665
 21
-156.813
  0
LINE
  8
0
 10
-159.665
 20
-156.813
 11
-159.334
 21
-156.866
  0
LINE
  8
0
 10
-159.334
 20
-156.866
 11
-159.01
 21
-156.952
  0
LINE
  8
0
 10
-159.01
 20
-156.952
 11
-158.697
 21
-157.073
  0
LINE
  8
0
 10
-158.697
 20
-157.073
 11
-158.398
 21
-157.225
  0
LINE
  8
0
 10
-158.398
 20
-157.225
 11
-158.117
 21
-157.408
  0
LINE
  8
0
 10
-158.117
 20
-157.408
 11
-157.856
 21
-157.619
  0
LINE
  8
0
 10
-157.856
 20
-157.619
 11
-157.619
 21
-157.856
  0
LINE
  8
0
 10
-157.619
 20
-157.856
 11
-157.408
 21
-158.117
  0
LINE
  8
0
 10
-157.408
 20
-158.117
 11
-157.225
 21
-158.398
  0
LINE
  8
0
 10
-157.225
 20
-158.398
 11
-157.073
 21
-158.697
  0
LINE
  8
0
 10
-157.073
 20
-158.697
 11
-156.952
 21
-159.01
  0
LINE
  8
0
 10
-156.952
 20
-159.01
 11
-156.866
 21
-159.334
  0
LINE
  8
0
 10
-156.866
 20
-159.334
 11
-156.813
 21
-159.665
  0
LINE
  8
0
 10
-156.813
 20
-159.665
 11
-156.796
 21
-160
  0
LINE
  8
0
 10
-156.796
 20
-160
 11
-156.813
 21
-160.335
  0
LINE
  8
0
 10
-156.813
 20
-160.335
 11
-156.866
 21
-160.666
  0
LINE
  8
0
 10
-156.866
 20
-160.666
 11
-156.952
 21
-160.99
  0
LINE
  8
0
 10
-156.952
 20
-160.99
 11
-157.073
 21
-161.303
  0
LINE
  8
0
 10
-157.073
 20
-161.303
 11
-157.225
 21
-161.602
  0
LINE
  8
0
 10
-157.225
 20
-161.602
 11
-157.408
 21
-161.883
  0
LINE
  8
0
 10
-157.408
 20
-161.883
 11
-157.619
 21
-162.144
  0
LINE
  8
0
 10
-157.619
 20
-162.144
 11
-157.856
 21
-162.381
  0
LINE
  8
0
 10
-157.856
 20
-162.381
 11
-158.117
 21
-162.592
  0
LINE
  8
0
 10
-158.117
 20
-162.592
 11
-158.398
 21
-162.775
  0
LINE
  8
0
 10
-158.398
 20
-162.775
 11
-158.697
 21
-162.927
  0
LINE
  8
0
 10
-158.697
 20
-162.927
 11
-159.01
 21
-163.048
  0
LINE
  8
0
 10
-159.01
 20
-163.048
 11
-159.334
 21
-163.134
  0
LINE
  8
0
 10
-159.334
 20
-163.134
 11
-159.665
 21
-163.187
  0
LINE
  8
0
 10
-159.665
 20
-163.187
 11
-160
 21
-163.204
  0
LINE
  8
0
 10
-160
 20
-163.204
 11
-160.335
 21
-163.187
  0
LINE
  8
0
 10
134.753
 20
-162.19
 11
134.51
 21
-162.148
  0
LINE
  8
0
 10
134.51
 20
-162.148
 11
134.272
 21
-162.08
  0
LINE
  8
0
 10
134.272
 20
-162.08
 11
134.044
 21
-161.985
  0
LINE
  8
0
 10
134.044
 20
-161.985
 11
133.828
 21
-161.866
  0
LINE
  8
0
 10
133.828
 20
-161.866
 11
133.626
 21
-161.723
  0
LINE
  8
0
 10
133.626
 20
-161.723
 11
133.442
 21
-161.558
  0
LINE
  8
0
 10
133.442
 20
-161.558
 11
133.277
 21
-161.374
  0
LINE
  8
0
 10
133.277
 20
-161.374
 11
133.134
 21
-161.172
  0
LINE
  8
0
 10
133.134
 20
-161.172
 11
133.015
 21
-160.956
  0
LINE
  8
0
 10
133.015
 20
-160.956
 11
132.92
 21
-160.728
  0
LINE
  8
0
 10
132.92
 20
-160.728
 11
132.852
 21
-160.49
  0
LINE
  8
0
 10
132.852
 20
-160.49
 11
132.81
 21
-160.247
  0
LINE
  8
0
 10
132.81
 20
-160.247
 11
132.797
 21
-160
  0
LINE
  8
0
 10
132.797
 20
-160
 11
132.81
 21
-159.753
  0
LINE
  8
0
 10
132.81
 20
-159.753
 11
132.852
 21
-159.51
  0
LINE
  8
0
 10
132.852
 20
-159.51
 11
132.92
 21
-159.272
  0
LINE
  8
0
 10
132.92
 20
-159.272
 11
133.015
 21
-159.044
  0
LINE
  8
0
 10
133.015
 20
-159.044
 11
133.134
 21
-158.828
  0
LINE
  8
0
 10
133.134
 20
-158.828
 11
133.277
 21
-158.626
  0
LINE
  8
0
 10
133.277
 20
-158.626
 11
133.442
 21
-158.442
  0
LINE
  8
0
 10
133.442
 20
-158.442
 11
133.626
 21
-158.277
  0
LINE
  8
0
 10
133.626
 20
-158.277
 11
133.828
 21
-158.134
  0
LINE
  8
0
 10
133.828
 20
-158.134
 11
134.044
 21
-158.015
  0
LINE
  8
0
 10
134.044
 20
-158.015
 11
134.272
 21
-157.92
  0
LINE
  8
0
 10
134.272
 20
-157.92
 11
134.51
 21
-157.852
  0
LINE
  8
0
 10
134.51
 20
-157.852
 11
134.753
 21
-157.81
  0
LINE
  8
0
 10
134.753
 20
-157.81
 11
135
 21
-157.797
  0
LINE
  8
0
 10
135
 20
-157.797
 11
135.247
 21
-157.81
  0
LINE
  8
0
 10
135.247
 20
-157.81
 11
135.49
 21
-157.852
  0
LINE
  8
0
 10
135.49
 20
-157.852
 11
135.728
 21
-157.92
  0
LINE
  8
0
 10
135.728
 20
-157.92
 11
135.956
 21
-158.015
  0
LINE
  8
0
 10
135.956
 20
-158.015
 11
136.172
 21
-158.134
  0
LINE
  8
0
 10
136.172
 20
-158.134
 11
136.374
 21
-158.277
  0
LINE
  8
0
 10
136.374
 20
-158.277
 11
136.558
 21
-158.442
  0
LINE
  8
0
 10
136.558
 20
-158.442
 11
136.723
 21
-158.626
  0
LINE
  8
0
 10
136.723
 20
-158.626
 11
136.866
 21
-158.828
  0
LINE
  8
0
 10
136.866
 20
-158.828
 11
136.985
 21
-159.044
  0
LINE
  8
0
 10
136.985
 20
-159.044
 11
137.08
 21
-159.272
  0
LINE
  8
0
 10
137.08
 20
-159.272
 11
137.148
 21
-159.51
  0
LINE
  8
0
 10
137.148
 20
-159.51
 11
137.19
 21
-159.753
  0
LINE
  8
0
 10
137.19
 20
-159.753
 11
137.203
 21
-160
  0
LINE
  8
0
 10
137.203
 20
-160
 11
137.19
 21
-160.247
  0
LINE
  8
0
 10
137.19
 20
-160.247
 11
137.148
 21
-160.49
  0
LINE
  8
0
 10
137.148
 20
-160.49
 11
137.08
 21
-160.728
  0
LINE
  8
0
 10
137.08
 20
-160.728
 11
136.985
 21
-160.956
  0
LINE
  8
0
 10
136.985
 20
-160.956
 11
136.866
 21
-161.172
  0
LINE
  8
0
 10
136.866
 20
-161.172
 11
136.723
 21
-161.374
  0
LINE
  8
0
 10
136.723
 20
-161.374
 11
136.558
 21
-161.558
  0
LINE
  8
0
 10
136.558
 20
-161.558
 11
136.374
 21
-161.723
  0
LINE
  8
0
 10
136.374
 20
-161.723
 11
136.172
 21
-161.866
  0
LINE
  8
0
 10
136.172
 20
-161.866
 11
135.956
 21
-161.985
  0
LINE
  8
0
 10
135.956
 20
-161.985
 11
135.728
 21
-162.08
  0
LINE
  8
0
 10
135.728
 20
-162.08
 11
135.49
 21
-162.148
  0
LINE
  8
0
 10
135.49
 20
-162.148
 11
135.247
 21
-162.19
  0
LINE
  8
0
 10
135.247
 20
-162.19
 11
135
 21
-162.203
  0
LINE
  8
0
 10
135
 20
-162.203
 11
134.753
 21
-162.19
  0
LINE
  8
0
 10
-135.247
 20
-162.19
 11
-135.49
 21
-162.148
  0
LINE
  8
0
 10
-135.49
 20
-162.148
 11
-135.728
 21
-162.08
  0
LINE
  8
0
 10
-135.728
 20
-162.08
 11
-135.956
 21
-161.985
  0
LINE
  8
0
 10
-135.956
 20
-161.985
 11
-136.172
 21
-161.866
  0
LINE
  8
0
 10
-136.172
 20
-161.866
 11
-136.374
 21
-161.723
  0
LINE
  8
0
 10
-136.374
 20
-161.723
 11
-136.558
 21
-161.558
  0
LINE
  8
0
 10
-136.558
 20
-161.558
 11
-136.723
 21
-161.374
  0
LINE
  8
0
 10
-136.723
 20
-161.374
 11
-136.866
 21
-161.172
  0
LINE
  8
0
 10
-136.866
 20
-161.172
 11
-136.985
 21
-160.956
  0
LINE
  8
0
 10
-136.985
 20
-160.956
 11
-137.08
 21
-160.728
  0
LINE
  8
0
 10
-137.08
 20
-160.728
 11
-137.148
 21
-160.49
  0
LINE
  8
0
 10
-137.148
 20
-160.49
 11
-137.19
 21
-160.247
  0
LINE
  8
0
 10
-137.19
 20
-160.247
 11
-137.203
 21
-160
  0
LINE
  8
0
 10
-137.203
 20
-160
 11
-137.19
 21
-159.753
  0
LINE
  8
0
 10
-137.19
 20
-159.753
 11
-137.148
 21
-159.51
  0
LINE
  8
0
 10
-137.148
 20
-159.51
 11
-137.08
 21
-159.272
  0
LINE
  8
0
 10
-137.08
 20
-159.272
 11
-136.985
 21
-159.044
  0
LINE
  8
0
 10
-136.985
 20
-159.044
 11
-136.866
 21
-158.828
  0
LINE
  8
0
 10
-136.866
 20
-158.828
 11
-136.723
 21
-158.626
  0
LINE
  8
0
 10
-136.723
 20
-158.626
 11
-136.558
 21
-158.442
  0
LINE
  8
0
 10
-136.558
 20
-158.442
 11
-136.374
 21
-158.277
  0
LINE
  8
0
 10
-136.374
 20
-158.277
 11
-136.172
 21
-158.134
  0
LINE
  8
0
 10
-136.172
 20
-158.134
 11
-135.956
 21
-158.015
  0
LINE
  8
0
 10
-135.956
 20
-158.015
 11
-135.728
 21
-157.92
  0
LINE
  8
0
 10
-135.728
 20
-157.92
 11
-135.49
 21
-157.852
  0
LINE
  8
0
 10
-135.49
 20
-157.852
 11
-135.247
 21
-157.81
  0
LINE
  8
0
 10
-135.247
 20
-157.81
 11
-135
 21
-157.797
  0
LINE
  8
0
 10
-135
 20
-157.797
 11
-134.753
 21
-157.81
  0
LINE
  8
0
 10
-134.753
 20
-157.81
 11
-134.51
 21
-157.852
  0
LINE
  8
0
 10
-134.51
 20
-157.852
 11
-134.272
 21
-157.92
  0
LINE
  8
0
 10
-134.272
 20
-157.92
 11
-134.044
 21
-158.015
  0
LINE
  8
0
 10
-134.044
 20
-158.015
 11
-133.828
 21
-158.134
  0
LINE
  8
0
 10
-133.828
 20
-158.134
 11
-133.626
 21
-158.277
  0
LINE
  8
0
 10
-133.626
 20
-158.277
 11
-133.442
 21
-158.442
  0
LINE
  8
0
 10
-133.442
 20
-158.442
 11
-133.277
 21
-158.626
  0
LINE
  8
0
 10
-133.277
 20
-158.626
 11
-133.134
 21
-158.828
  0
LINE
  8
0
 10
-133.134
 20
-158.828
 11
-133.015
 21
-159.044
  0
LINE
  8
0
 10
-133.015
 20
-159.044
 11
-132.92
 21
-159.272
  0
LINE
  8
0
 10
-132.92
 20
-159.272
 11
-132.852
 21
-159.51
  0
LINE
  8
0
 10
-132.852
 20
-159.51
 11
-132.81
 21
-159.753
  0
LINE
  8
0
 10
-132.81
 20
-159.753
 11
-132.797
 21
-160
  0
LINE
  8
0
 10
-132.797
 20
-160
 11
-132.81
 21
-160.247
  0
LINE
  8
0
 10
-132.81
 20
-160.247
 11
-132.852
 21
-160.49
  0
LINE
  8
0
 10
-132.852
 20
-160.49
 11
-132.92
 21
-160.728
  0
LINE
  8
0
 10
-132.92
 20
-160.728
 11
-133.015
 21
-160.956
  0
LINE
  8
0
 10
-133.015
 20
-160.956
 11
-133.134
 21
-161.172
  0
LINE
  8
0
 10
-133.134
 20
-161.172
 11
-133.277
 21
-161.374
  0
LINE
  8
0
 10
-133.277
 20
-161.374
 11
-133.442
 21
-161.558
  0
LINE
  8
0
 10
-133.442
 20
-161.558
 11
-133.626
 21
-161.723
  0
LINE
  8
0
 10
-133.626
 20
-161.723
 11
-133.828
 21
-161.866
  0
LINE
  8
0
 10
-133.828
 20
-161.866
 11
-134.044
 21
-161.985
  0
LINE
  8
0
 10
-134.044
 20
-161.985
 11
-134.272
 21
-162.08
  0
LINE
  8
0
 10
-134.272
 20
-162.08
 11
-134.51
 21
-162.148
  0
LINE
  8
0
 10
-134.51
 20
-162.148
 11
-134.753
 21
-162.19
  0
LINE
  8
0
 10
-134.753
 20
-162.19
 11
-135
 21
-162.203
  0
LINE
  8
0
 10
-135
 20
-162.203
 11
-135.247
 21
-162.19
  0
LINE
  8
0
 10
44.7533
 20
-162.19
 11
44.5097
 21
-162.148
  0
LINE
  8
0
 10
44.5097
 20
-162.148
 11
44.2722
 21
-162.08
  0
LINE
  8
0
 10
44.2722
 20
-162.08
 11
44.0439
 21
-161.985
  0
LINE
  8
0
 10
44.0439
 20
-161.985
 11
43.8277
 21
-161.866
  0
LINE
  8
0
 10
43.8277
 20
-161.866
 11
43.6262
 21
-161.723
  0
LINE
  8
0
 10
43.6262
 20
-161.723
 11
43.4419
 21
-161.558
  0
LINE
  8
0
 10
43.4419
 20
-161.558
 11
43.2773
 21
-161.374
  0
LINE
  8
0
 10
43.2773
 20
-161.374
 11
43.1343
 21
-161.172
  0
LINE
  8
0
 10
43.1343
 20
-161.172
 11
43.0147
 21
-160.956
  0
LINE
  8
0
 10
43.0147
 20
-160.956
 11
42.9202
 21
-160.728
  0
LINE
  8
0
 10
42.9202
 20
-160.728
 11
42.8518
 21
-160.49
  0
LINE
  8
0
 10
42.8518
 20
-160.49
 11
42.8104
 21
-160.247
  0
LINE
  8
0
 10
42.8104
 20
-160.247
 11
42.7965
 21
-160
  0
LINE
  8
0
 10
42.7965
 20
-160
 11
42.8104
 21
-159.753
  0
LINE
  8
0
 10
42.8104
 20
-159.753
 11
42.8518
 21
-159.51
  0
LINE
  8
0
 10
42.8518
 20
-159.51
 11
42.9202
 21
-159.272
  0
LINE
  8
0
 10
42.9202
 20
-159.272
 11
43.0147
 21
-159.044
  0
LINE
  8
0
 10
43.0147
 20
-159.044
 11
43.1343
 21
-158.828
  0
LINE
  8
0
 10
43.1343
 20
-158.828
 11
43.2773
 21
-158.626
  0
LINE
  8
0
 10
43.2773
 20
-158.626
 11
43.4419
 21
-158.442
  0
LINE
  8
0
 10
43.4419
 20
-158.442
 11
43.6262
 21
-158.277
  0
LINE
  8
0
 10
43.6262
 20
-158.277
 11
43.8277
 21
-158.134
  0
LINE
  8
0
 10
43.8277
 20
-158.134
 11
44.0439
 21
-158.015
  0
LINE
  8
0
 10
44.0439
 20
-158.015
 11
44.2722
 21
-157.92
  0
LINE
  8
0
 10
44.2722
 20
-157.92
 11
44.5097
 21
-157.852
  0
LINE
  8
0
 10
44.5097
 20
-157.852
 11
44.7533
 21
-157.81
  0
LINE
  8
0
 10
44.7533
 20
-157.81
 11
45
 21
-157.797
  0
LINE
  8
0
 10
45
 20
-157.797
 11
45.2467
 21
-157.81
  0
LINE
  8
0
 10
45.2467
 20
-157.81
 11
45.4903
 21
-157.852
  0
LINE
  8
0
 10
45.4903
 20
-157.852
 11
45.7278
 21
-157.92
  0
LINE
  8
0
 10
45.7278
 20
-157.92
 11
45.956
 21
-158.015
  0
LINE
  8
0
 10
45.956
 20
-158.015
 11
46.1723
 21
-158.134
  0
LINE
  8
0
 10
46.1723
 20
-158.134
 11
46.3738
 21
-158.277
  0
LINE
  8
0
 10
46.3738
 20
-158.277
 11
46.5581
 21
-158.442
  0
LINE
  8
0
 10
46.5581
 20
-158.442
 11
46.7227
 21
-158.626
  0
LINE
  8
0
 10
46.7227
 20
-158.626
 11
46.8657
 21
-158.828
  0
LINE
  8
0
 10
46.8657
 20
-158.828
 11
46.9852
 21
-159.044
  0
LINE
  8
0
 10
46.9852
 20
-159.044
 11
47.0798
 21
-159.272
  0
LINE
  8
0
 10
47.0798
 20
-159.272
 11
47.1482
 21
-159.51
  0
LINE
  8
0
 10
47.1482
 20
-159.51
 11
47.1896
 21
-159.753
  0
LINE
  8
0
 10
47.1896
 20
-159.753
 11
47.2035
 21
-160
  0
LINE
  8
0
 10
47.2035
 20
-160
 11
47.1896
 21
-160.247
  0
LINE
  8
0
 10
47.1896
 20
-160.247
 11
47.1482
 21
-160.49
  0
LINE
  8
0
 10
47.1482
 20
-160.49
 11
47.0798
 21
-160.728
  0
LINE
  8
0
 10
47.0798
 20
-160.728
 11
46.9852
 21
-160.956
  0
LINE
  8
0
 10
46.9852
 20
-160.956
 11
46.8657
 21
-161.172
  0
LINE
  8
0
 10
46.8657
 20
-161.172
 11
46.7227
 21
-161.374
  0
LINE
  8
0
 10
46.7227
 20
-161.374
 11
46.5581
 21
-161.558
  0
LINE
  8
0
 10
46.5581
 20
-161.558
 11
46.3738
 21
-161.723
  0
LINE
  8
0
 10
46.3738
 20
-161.723
 11
46.1723
 21
-161.866
  0
LINE
  8
0
 10
46.1723
 20
-161.866
 11
45.956
 21
-161.985
  0
LINE
  8
0
 10
45.956
 20
-161.985
 11
45.7278
 21
-162.08
  0
LINE
  8
0
 10
45.7278
 20
-162.08
 11
45.4903
 21
-162.148
  0
LINE
  8
0
 10
45.4903
 20
-162.148
 11
45.2467
 21
-162.19
  0
LINE
  8
0
 10
45.2467
 20
-162.19
 11
45
 21
-162.203
  0
LINE
  8
0
 10
45
 20
-162.203
 11
44.7533
 21
-162.19
  0
LINE
  8
0
 10
-45.2467
 20
-162.19
 11
-45.4903
 21
-162.148
  0
LINE
  8
0
 10
-45.4903
 20
-162.148
 11
-45.7278
 21
-162.08
  0
LINE
  8
0
 10
-45.7278
 20
-162.08
 11
-45.9561
 21
-161.985
  0
LINE
  8
0
 10
-45.9561
 20
-161.985
 11
-46.1723
 21
-161.866
  0
LINE
  8
0
 10
-46.1723
 20
-161.866
 11
-46.3738
 21
-161.723
  0
LINE
  8
0
 10
-46.3738
 20
-161.723
 11
-46.5581
 21
-161.558
  0
LINE
  8
0
 10
-46.5581
 20
-161.558
 11
-46.7227
 21
-161.374
  0
LINE
  8
0
 10
-46.7227
 20
-161.374
 11
-46.8657
 21
-161.172
  0
LINE
  8
0
 10
-46.8657
 20
-161.172
 11
-46.9853
 21
-160.956
  0
LINE
  8
0
 10
-46.9853
 20
-160.956
 11
-47.0798
 21
-160.728
  0
LINE
  8
0
 10
-47.0798
 20
-160.728
 11
-47.1482
 21
-160.49
  0
LINE
  8
0
 10
-47.1482
 20
-160.49
 11
-47.1896
 21
-160.247
  0
LINE
  8
0
 10
-47.1896
 20
-160.247
 11
-47.2035
 21
-160
  0
LINE
  8
0
 10
-47.2035
 20
-160
 11
-47.1896
 21
-159.753
  0
LINE
  8
0
 10
-47.1896
 20
-159.753
 11
-47.1482
 21
-159.51
  0
LINE
  8
0
 10
-47.1482
 20
-159.51
 11
-47.0798
 21
-159.272
  0
LINE
  8
0
 10
-47.0798
 20
-159.272
 11
-46.9853
 21
-159.044
  0
LINE
  8
0
 10
-46.9853
 20
-159.044
 11
-46.8657
 21
-158.828
  0
LINE
  8
0
 10
-46.8657
 20
-158.828
 11
-46.7227
 21
-158.626
  0
LINE
  8
0
 10
-46.7227
 20
-158.626
 11
-46.5581
 21
-158.442
  0
LINE
  8
0
 10
-46.5581
 20
-158.442
 11
-46.3738
 21
-158.277
  0
LINE
  8
0
 10
-46.3738
 20
-158.277
 11
-46.1723
 21
-158.134
  0
LINE
  8
0
 10
-46.1723
 20
-158.134
 11
-45.9561
 21
-158.015
  0
LINE
  8
0
 10
-45.9561
 20
-158.015
 11
-45.7278
 21
-157.92
  0
LINE
  8
0
 10
-45.7278
 20
-157.92
 11
-45.4903
 21
-157.852
  0
LINE
  8
0
 10
-45.4903
 20
-157.852
 11
-45.2467
 21
-157.81
  0
LINE
  8
0
 10
-45.2467
 20
-157.81
 11
-45
 21
-157.797
  0
LINE
  8
0
 10
-45
 20
-157.797
 11
-44.7533
 21
-157.81
  0
LINE
  8
0
 10
-44.7533
 20
-157.81
 11
-44.5097
 21
-157.852
  0
LINE
  8
0
 10
-44.5097
 20
-157.852
 11
-44.2722
 21
-157.92
  0
LINE
  8
0
 10
-44.2722
 20
-157.92
 11
-44.044
 21
-158.015
  0
LINE
  8
0
 10
-44.044
 20
-158.015
 11
-43.8277
 21
-158.134
  0
LINE
  8
0
 10
-43.8277
 20
-158.134
 11
-43.6262
 21
-158.277
  0
LINE
  8
0
 10
-43.6262
 20
-158.277
 11
-43.4419
 21
-158.442
  0
LINE
  8
0
 10
-43.4419
 20
-158.442
 11
-43.2773
 21
-158.626
  0
LINE
  8
0
 10
-43.2773
 20
-158.626
 11
-43.1343
 21
-158.828
  0
LINE
  8
0
 10
-43.1343
 20
-158.828
 11
-43.0148
 21
-159.044
  0
LINE
  8
0
 10
-43.0148
 20
-159.044
 11
-42.9202
 21
-159.272
  0
LINE
  8
0
 10
-42.9202
 20
-159.272
 11
-42.8518
 21
-159.51
  0
LINE
  8
0
 10
-42.8518
 20
-159.51
 11
-42.8104
 21
-159.753
  0
LINE
  8
0
 10
-42.8104
 20
-159.753
 11
-42.7965
 21
-160
  0
LINE
  8
0
 10
-42.7965
 20
-160
 11
-42.8104
 21
-160.247
  0
LINE
  8
0
 10
-42.8104
 20
-160.247
 11
-42.8518
 21
-160.49
  0
LINE
  8
0
 10
-42.8518
 20
-160.49
 11
-42.9202
 21
-160.728
  0
LINE
  8
0
 10
-42.9202
 20
-160.728
 11
-43.0148
 21
-160.956
  0
LINE
  8
0
 10
-43.0148
 20
-160.956
 11
-43.1343
 21
-161.172
  0
LINE
  8
0
 10
-43.1343
 20
-161.172
 11
-43.2773
 21
-161.374
  0
LINE
  8
0
 10
-43.2773
 20
-161.374
 11
-43.4419
 21
-161.558
  0
LINE
  8
0
 10
-43.4419
 20
-161.558
 11
-43.6262
 21
-161.723
  0
LINE
  8
0
 10
-43.6262
 20
-161.723
 11
-43.8277
 21
-161.866
  0
LINE
  8
0
 10
-43.8277
 20
-161.866
 11
-44.044
 21
-161.985
  0
LINE
  8
0
 10
-44.044
 20
-161.985
 11
-44.2722
 21
-162.08
  0
LINE
  8
0
 10
-44.2722
 20
-162.08
 11
-44.5097
 21
-162.148
  0
LINE
  8
0
 10
-44.5097
 20
-162.148
 11
-44.7533
 21
-162.19
  0
LINE
  8
0
 10
-44.7533
 20
-162.19
 11
-45
 21
-162.203
  0
LINE
  8
0
 10
-45
 20
-162.203
 11
-45.2467
 21
-162.19
  0
ENDSEC
  0
SECTION
  2
OBJECTS
  0
DICTIONARY
  0
ENDSEC
  0
EOF
