  0
SECTION
  2
BLOCKS
  0
ENDSEC
  0
SECTION
  2
ENTITIES
  0
LINE
  8
0
 10
168.241
 20
-169.985
 11
168.479
 21
-169.942
  0
LINE
  8
0
 10
168.479
 20
-169.942
 11
168.709
 21
-169.87
  0
LINE
  8
0
 10
168.709
 20
-169.87
 11
168.929
 21
-169.771
  0
LINE
  8
0
 10
168.929
 20
-169.771
 11
169.136
 21
-169.646
  0
LINE
  8
0
 10
169.136
 20
-169.646
 11
169.326
 21
-169.497
  0
LINE
  8
0
 10
169.326
 20
-169.497
 11
169.497
 21
-169.326
  0
LINE
  8
0
 10
169.497
 20
-169.326
 11
169.646
 21
-169.136
  0
LINE
  8
0
 10
169.646
 20
-169.136
 11
169.771
 21
-168.929
  0
LINE
  8
0
 10
169.771
 20
-168.929
 11
169.87
 21
-168.709
  0
LINE
  8
0
 10
169.87
 20
-168.709
 11
169.942
 21
-168.479
  0
LINE
  8
0
 10
169.942
 20
-168.479
 11
169.985
 21
-168.241
  0
LINE
  8
0
 10
169.985
 20
-168.241
 11
170
 21
-168
  0
LINE
  8
0
 10
170
 20
-168
 11
170
 21
168
  0
LINE
  8
0
 10
170
 20
168
 11
169.985
 21
168.241
  0
LINE
  8
0
 10
169.985
 20
168.241
 11
169.942
 21
168.479
  0
LINE
  8
0
 10
169.942
 20
168.479
 11
169.87
 21
168.709
  0
LINE
  8
0
 10
169.87
 20
168.709
 11
169.771
 21
168.929
  0
LINE
  8
0
 10
169.771
 20
168.929
 11
169.646
 21
169.136
  0
LINE
  8
0
 10
169.646
 20
169.136
 11
169.497
 21
169.326
  0
LINE
  8
0
 10
169.497
 20
169.326
 11
169.326
 21
169.497
  0
LINE
  8
0
 10
169.326
 20
169.497
 11
169.136
 21
169.646
  0
LINE
  8
0
 10
169.136
 20
169.646
 11
168.929
 21
169.771
  0
LINE
  8
0
 10
168.929
 20
169.771
 11
168.709
 21
169.87
  0
LINE
  8
0
 10
168.709
 20
169.87
 11
168.479
 21
169.942
  0
LINE
  8
0
 10
168.479
 20
169.942
 11
168.241
 21
169.985
  0
LINE
  8
0
 10
168.241
 20
169.985
 11
168
 21
170
  0
LINE
  8
0
 10
168
 20
170
 11
-168
 21
170
  0
LINE
  8
0
 10
-168
 20
170
 11
-168.241
 21
169.985
  0
LINE
  8
0
 10
-168.241
 20
169.985
 11
-168.479
 21
169.942
  0
LINE
  8
0
 10
-168.479
 20
169.942
 11
-168.709
 21
169.87
  0
LINE
  8
0
 10
-168.709
 20
169.87
 11
-168.929
 21
169.771
  0
LINE
  8
0
 10
-168.929
 20
169.771
 11
-169.136
 21
169.646
  0
LINE
  8
0
 10
-169.136
 20
169.646
 11
-169.326
 21
169.497
  0
LINE
  8
0
 10
-169.326
 20
169.497
 11
-169.497
 21
169.326
  0
LINE
  8
0
 10
-169.497
 20
169.326
 11
-169.646
 21
169.136
  0
LINE
  8
0
 10
-169.646
 20
169.136
 11
-169.771
 21
168.929
  0
LINE
  8
0
 10
-169.771
 20
168.929
 11
-169.87
 21
168.709
  0
LINE
  8
0
 10
-169.87
 20
168.709
 11
-169.942
 21
168.479
  0
LINE
  8
0
 10
-169.942
 20
168.479
 11
-169.985
 21
168.241
  0
LINE
  8
0
 10
-169.985
 20
168.241
 11
-170
 21
168
  0
LINE
  8
0
 10
-170
 20
168
 11
-170
 21
-168
  0
LINE
  8
0
 10
-170
 20
-168
 11
-169.985
 21
-168.241
  0
LINE
  8
0
 10
-169.985
 20
-168.241
 11
-169.942
 21
-168.479
  0
LINE
  8
0
 10
-169.942
 20
-168.479
 11
-169.87
 21
-168.709
  0
LINE
  8
0
 10
-169.87
 20
-168.709
 11
-169.771
 21
-168.929
  0
LINE
  8
0
 10
-169.771
 20
-168.929
 11
-169.646
 21
-169.136
  0
LINE
  8
0
 10
-169.646
 20
-169.136
 11
-169.497
 21
-169.326
  0
LINE
  8
0
 10
-169.497
 20
-169.326
 11
-169.326
 21
-169.497
  0
LINE
  8
0
 10
-169.326
 20
-169.497
 11
-169.136
 21
-169.646
  0
LINE
  8
0
 10
-169.136
 20
-169.646
 11
-168.929
 21
-169.771
  0
LINE
  8
0
 10
-168.929
 20
-169.771
 11
-168.709
 21
-169.87
  0
LINE
  8
0
 10
-168.709
 20
-169.87
 11
-168.479
 21
-169.942
  0
LINE
  8
0
 10
-168.479
 20
-169.942
 11
-168.241
 21
-169.985
  0
LINE
  8
0
 10
-168.241
 20
-169.985
 11
-168
 21
-170
  0
LINE
  8
0
 10
-168
 20
-170
 11
168
 21
-170
  0
LINE
  8
0
 10
168
 20
-170
 11
168.241
 21
-169.985
  0
LINE
  8
0
 10
159.665
 20
156.813
 11
159.334
 21
156.866
  0
LINE
  8
0
 10
159.334
 20
156.866
 11
159.01
 21
156.952
  0
LINE
  8
0
 10
159.01
 20
156.952
 11
158.697
 21
157.073
  0
LINE
  8
0
 10
158.697
 20
157.073
 11
158.398
 21
157.225
  0
LINE
  8
0
 10
158.398
 20
157.225
 11
158.117
 21
157.408
  0
LINE
  8
0
 10
158.117
 20
157.408
 11
157.856
 21
157.619
  0
LINE
  8
0
 10
157.856
 20
157.619
 11
157.619
 21
157.856
  0
LINE
  8
0
 10
157.619
 20
157.856
 11
157.408
 21
158.117
  0
LINE
  8
0
 10
157.408
 20
158.117
 11
157.225
 21
158.398
  0
LINE
  8
0
 10
157.225
 20
158.398
 11
157.073
 21
158.697
  0
LINE
  8
0
 10
157.073
 20
158.697
 11
156.952
 21
159.01
  0
LINE
  8
0
 10
156.952
 20
159.01
 11
156.866
 21
159.334
  0
LINE
  8
0
 10
156.866
 20
159.334
 11
156.813
 21
159.665
  0
LINE
  8
0
 10
156.813
 20
159.665
 11
156.796
 21
160
  0
LINE
  8
0
 10
156.796
 20
160
 11
156.813
 21
160.335
  0
LINE
  8
0
 10
156.813
 20
160.335
 11
156.866
 21
160.666
  0
LINE
  8
0
 10
156.866
 20
160.666
 11
156.952
 21
160.99
  0
LINE
  8
0
 10
156.952
 20
160.99
 11
157.073
 21
161.303
  0
LINE
  8
0
 10
157.073
 20
161.303
 11
157.225
 21
161.602
  0
LINE
  8
0
 10
157.225
 20
161.602
 11
157.408
 21
161.883
  0
LINE
  8
0
 10
157.408
 20
161.883
 11
157.619
 21
162.144
  0
LINE
  8
0
 10
157.619
 20
162.144
 11
157.856
 21
162.381
  0
LINE
  8
0
 10
157.856
 20
162.381
 11
158.117
 21
162.592
  0
LINE
  8
0
 10
158.117
 20
162.592
 11
158.398
 21
162.775
  0
LINE
  8
0
 10
158.398
 20
162.775
 11
158.697
 21
162.927
  0
LINE
  8
0
 10
158.697
 20
162.927
 11
159.01
 21
163.048
  0
LINE
  8
0
 10
159.01
 20
163.048
 11
159.334
 21
163.134
  0
LINE
  8
0
 10
159.334
 20
163.134
 11
159.665
 21
163.187
  0
LINE
  8
0
 10
159.665
 20
163.187
 11
160
 21
163.204
  0
LINE
  8
0
 10
160
 20
163.204
 11
160.335
 21
163.187
  0
LINE
  8
0
 10
160.335
 20
163.187
 11
160.666
 21
163.134
  0
LINE
  8
0
 10
160.666
 20
163.134
 11
160.99
 21
163.048
  0
LINE
  8
0
 10
160.99
 20
163.048
 11
161.303
 21
162.927
  0
LINE
  8
0
 10
161.303
 20
162.927
 11
161.602
 21
162.775
  0
LINE
  8
0
 10
161.602
 20
162.775
 11
161.883
 21
162.592
  0
LINE
  8
0
 10
161.883
 20
162.592
 11
162.144
 21
162.381
  0
LINE
  8
0
 10
162.144
 20
162.381
 11
162.381
 21
162.144
  0
LINE
  8
0
 10
162.381
 20
162.144
 11
162.592
 21
161.883
  0
LINE
  8
0
 10
162.592
 20
161.883
 11
162.775
 21
161.602
  0
LINE
  8
0
 10
162.775
 20
161.602
 11
162.927
 21
161.303
  0
LINE
  8
0
 10
162.927
 20
161.303
 11
163.048
 21
160.99
  0
LINE
  8
0
 10
163.048
 20
160.99
 11
163.134
 21
160.666
  0
LINE
  8
0
 10
163.134
 20
160.666
 11
163.187
 21
160.335
  0
LINE
  8
0
 10
163.187
 20
160.335
 11
163.204
 21
160
  0
LINE
  8
0
 10
163.204
 20
160
 11
163.187
 21
159.665
  0
LINE
  8
0
 10
163.187
 20
159.665
 11
163.134
 21
159.334
  0
LINE
  8
0
 10
163.134
 20
159.334
 11
163.048
 21
159.01
  0
LINE
  8
0
 10
163.048
 20
159.01
 11
162.927
 21
158.697
  0
LINE
  8
0
 10
162.927
 20
158.697
 11
162.775
 21
158.398
  0
LINE
  8
0
 10
162.775
 20
158.398
 11
162.592
 21
158.117
  0
LINE
  8
0
 10
162.592
 20
158.117
 11
162.381
 21
157.856
  0
LINE
  8
0
 10
162.381
 20
157.856
 11
162.144
 21
157.619
  0
LINE
  8
0
 10
162.144
 20
157.619
 11
161.883
 21
157.408
  0
LINE
  8
0
 10
161.883
 20
157.408
 11
161.602
 21
157.225
  0
LINE
  8
0
 10
161.602
 20
157.225
 11
161.303
 21
157.073
  0
LINE
  8
0
 10
161.303
 20
157.073
 11
160.99
 21
156.952
  0
LINE
  8
0
 10
160.99
 20
156.952
 11
160.666
 21
156.866
  0
LINE
  8
0
 10
160.666
 20
156.866
 11
160.335
 21
156.813
  0
LINE
  8
0
 10
160.335
 20
156.813
 11
160
 21
156.796
  0
LINE
  8
0
 10
160
 20
156.796
 11
159.665
 21
156.813
  0
LINE
  8
0
 10
-160.335
 20
156.813
 11
-160.666
 21
156.866
  0
LINE
  8
0
 10
-160.666
 20
156.866
 11
-160.99
 21
156.952
  0
LINE
  8
0
 10
-160.99
 20
156.952
 11
-161.303
 21
157.073
  0
LINE
  8
0
 10
-161.303
 20
157.073
 11
-161.602
 21
157.225
  0
LINE
  8
0
 10
-161.602
 20
157.225
 11
-161.883
 21
157.408
  0
LINE
  8
0
 10
-161.883
 20
157.408
 11
-162.144
 21
157.619
  0
LINE
  8
0
 10
-162.144
 20
157.619
 11
-162.381
 21
157.856
  0
LINE
  8
0
 10
-162.381
 20
157.856
 11
-162.592
 21
158.117
  0
LINE
  8
0
 10
-162.592
 20
158.117
 11
-162.775
 21
158.398
  0
LINE
  8
0
 10
-162.775
 20
158.398
 11
-162.927
 21
158.697
  0
LINE
  8
0
 10
-162.927
 20
158.697
 11
-163.048
 21
159.01
  0
LINE
  8
0
 10
-163.048
 20
159.01
 11
-163.134
 21
159.334
  0
LINE
  8
0
 10
-163.134
 20
159.334
 11
-163.187
 21
159.665
  0
LINE
  8
0
 10
-163.187
 20
159.665
 11
-163.204
 21
160
  0
LINE
  8
0
 10
-163.204
 20
160
 11
-163.187
 21
160.335
  0
LINE
  8
0
 10
-163.187
 20
160.335
 11
-163.134
 21
160.666
  0
LINE
  8
0
 10
-163.134
 20
160.666
 11
-163.048
 21
160.99
  0
LINE
  8
0
 10
-163.048
 20
160.99
 11
-162.927
 21
161.303
  0
LINE
  8
0
 10
-162.927
 20
161.303
 11
-162.775
 21
161.602
  0
LINE
  8
0
 10
-162.775
 20
161.602
 11
-162.592
 21
161.883
  0
LINE
  8
0
 10
-162.592
 20
161.883
 11
-162.381
 21
162.144
  0
LINE
  8
0
 10
-162.381
 20
162.144
 11
-162.144
 21
162.381
  0
LINE
  8
0
 10
-162.144
 20
162.381
 11
-161.883
 21
162.592
  0
LINE
  8
0
 10
-161.883
 20
162.592
 11
-161.602
 21
162.775
  0
LINE
  8
0
 10
-161.602
 20
162.775
 11
-161.303
 21
162.927
  0
LINE
  8
0
 10
-161.303
 20
162.927
 11
-160.99
 21
163.048
  0
LINE
  8
0
 10
-160.99
 20
163.048
 11
-160.666
 21
163.134
  0
LINE
  8
0
 10
-160.666
 20
163.134
 11
-160.335
 21
163.187
  0
LINE
  8
0
 10
-160.335
 20
163.187
 11
-160
 21
163.204
  0
LINE
  8
0
 10
-160
 20
163.204
 11
-159.665
 21
163.187
  0
LINE
  8
0
 10
-159.665
 20
163.187
 11
-159.334
 21
163.134
  0
LINE
  8
0
 10
-159.334
 20
163.134
 11
-159.01
 21
163.048
  0
LINE
  8
0
 10
-159.01
 20
163.048
 11
-158.697
 21
162.927
  0
LINE
  8
0
 10
-158.697
 20
162.927
 11
-158.398
 21
162.775
  0
LINE
  8
0
 10
-158.398
 20
162.775
 11
-158.117
 21
162.592
  0
LINE
  8
0
 10
-158.117
 20
162.592
 11
-157.856
 21
162.381
  0
LINE
  8
0
 10
-157.856
 20
162.381
 11
-157.619
 21
162.144
  0
LINE
  8
0
 10
-157.619
 20
162.144
 11
-157.408
 21
161.883
  0
LINE
  8
0
 10
-157.408
 20
161.883
 11
-157.225
 21
161.602
  0
LINE
  8
0
 10
-157.225
 20
161.602
 11
-157.073
 21
161.303
  0
LINE
  8
0
 10
-157.073
 20
161.303
 11
-156.952
 21
160.99
  0
LINE
  8
0
 10
-156.952
 20
160.99
 11
-156.866
 21
160.666
  0
LINE
  8
0
 10
-156.866
 20
160.666
 11
-156.813
 21
160.335
  0
LINE
  8
0
 10
-156.813
 20
160.335
 11
-156.796
 21
160
  0
LINE
  8
0
 10
-156.796
 20
160
 11
-156.813
 21
159.665
  0
LINE
  8
0
 10
-156.813
 20
159.665
 11
-156.866
 21
159.334
  0
LINE
  8
0
 10
-156.866
 20
159.334
 11
-156.952
 21
159.01
  0
LINE
  8
0
 10
-156.952
 20
159.01
 11
-157.073
 21
158.697
  0
LINE
  8
0
 10
-157.073
 20
158.697
 11
-157.225
 21
158.398
  0
LINE
  8
0
 10
-157.225
 20
158.398
 11
-157.408
 21
158.117
  0
LINE
  8
0
 10
-157.408
 20
158.117
 11
-157.619
 21
157.856
  0
LINE
  8
0
 10
-157.619
 20
157.856
 11
-157.856
 21
157.619
  0
LINE
  8
0
 10
-157.856
 20
157.619
 11
-158.117
 21
157.408
  0
LINE
  8
0
 10
-158.117
 20
157.408
 11
-158.398
 21
157.225
  0
LINE
  8
0
 10
-158.398
 20
157.225
 11
-158.697
 21
157.073
  0
LINE
  8
0
 10
-158.697
 20
157.073
 11
-159.01
 21
156.952
  0
LINE
  8
0
 10
-159.01
 20
156.952
 11
-159.334
 21
156.866
  0
LINE
  8
0
 10
-159.334
 20
156.866
 11
-159.665
 21
156.813
  0
LINE
  8
0
 10
-159.665
 20
156.813
 11
-160
 21
156.796
  0
LINE
  8
0
 10
-160
 20
156.796
 11
-160.335
 21
156.813
  0
LINE
  8
0
 10
44.7533
 20
157.81
 11
44.5097
 21
157.852
  0
LINE
  8
0
 10
44.5097
 20
157.852
 11
44.2722
 21
157.92
  0
LINE
  8
0
 10
44.2722
 20
157.92
 11
44.0439
 21
158.015
  0
LINE
  8
0
 10
44.0439
 20
158.015
 11
43.8277
 21
158.134
  0
LINE
  8
0
 10
43.8277
 20
158.134
 11
43.6262
 21
158.277
  0
LINE
  8
0
 10
43.6262
 20
158.277
 11
43.4419
 21
158.442
  0
LINE
  8
0
 10
43.4419
 20
158.442
 11
43.2773
 21
158.626
  0
LINE
  8
0
 10
43.2773
 20
158.626
 11
43.1343
 21
158.828
  0
LINE
  8
0
 10
43.1343
 20
158.828
 11
43.0147
 21
159.044
  0
LINE
  8
0
 10
43.0147
 20
159.044
 11
42.9202
 21
159.272
  0
LINE
  8
0
 10
42.9202
 20
159.272
 11
42.8518
 21
159.51
  0
LINE
  8
0
 10
42.8518
 20
159.51
 11
42.8104
 21
159.753
  0
LINE
  8
0
 10
42.8104
 20
159.753
 11
42.7965
 21
160
  0
LINE
  8
0
 10
42.7965
 20
160
 11
42.8104
 21
160.247
  0
LINE
  8
0
 10
42.8104
 20
160.247
 11
42.8518
 21
160.49
  0
LINE
  8
0
 10
42.8518
 20
160.49
 11
42.9202
 21
160.728
  0
LINE
  8
0
 10
42.9202
 20
160.728
 11
43.0147
 21
160.956
  0
LINE
  8
0
 10
43.0147
 20
160.956
 11
43.1343
 21
161.172
  0
LINE
  8
0
 10
43.1343
 20
161.172
 11
43.2773
 21
161.374
  0
LINE
  8
0
 10
43.2773
 20
161.374
 11
43.4419
 21
161.558
  0
LINE
  8
0
 10
43.4419
 20
161.558
 11
43.6262
 21
161.723
  0
LINE
  8
0
 10
43.6262
 20
161.723
 11
43.8277
 21
161.866
  0
LINE
  8
0
 10
43.8277
 20
161.866
 11
44.0439
 21
161.985
  0
LINE
  8
0
 10
44.0439
 20
161.985
 11
44.2722
 21
162.08
  0
LINE
  8
0
 10
44.2722
 20
162.08
 11
44.5097
 21
162.148
  0
LINE
  8
0
 10
44.5097
 20
162.148
 11
44.7533
 21
162.19
  0
LINE
  8
0
 10
44.7533
 20
162.19
 11
45
 21
162.203
  0
LINE
  8
0
 10
45
 20
162.203
 11
45.2467
 21
162.19
  0
LINE
  8
0
 10
45.2467
 20
162.19
 11
45.4903
 21
162.148
  0
LINE
  8
0
 10
45.4903
 20
162.148
 11
45.7278
 21
162.08
  0
LINE
  8
0
 10
45.7278
 20
162.08
 11
45.956
 21
161.985
  0
LINE
  8
0
 10
45.956
 20
161.985
 11
46.1723
 21
161.866
  0
LINE
  8
0
 10
46.1723
 20
161.866
 11
46.3738
 21
161.723
  0
LINE
  8
0
 10
46.3738
 20
161.723
 11
46.5581
 21
161.558
  0
LINE
  8
0
 10
46.5581
 20
161.558
 11
46.7227
 21
161.374
  0
LINE
  8
0
 10
46.7227
 20
161.374
 11
46.8657
 21
161.172
  0
LINE
  8
0
 10
46.8657
 20
161.172
 11
46.9852
 21
160.956
  0
LINE
  8
0
 10
46.9852
 20
160.956
 11
47.0798
 21
160.728
  0
LINE
  8
0
 10
47.0798
 20
160.728
 11
47.1482
 21
160.49
  0
LINE
  8
0
 10
47.1482
 20
160.49
 11
47.1896
 21
160.247
  0
LINE
  8
0
 10
47.1896
 20
160.247
 11
47.2035
 21
160
  0
LINE
  8
0
 10
47.2035
 20
160
 11
47.1896
 21
159.753
  0
LINE
  8
0
 10
47.1896
 20
159.753
 11
47.1482
 21
159.51
  0
LINE
  8
0
 10
47.1482
 20
159.51
 11
47.0798
 21
159.272
  0
LINE
  8
0
 10
47.0798
 20
159.272
 11
46.9852
 21
159.044
  0
LINE
  8
0
 10
46.9852
 20
159.044
 11
46.8657
 21
158.828
  0
LINE
  8
0
 10
46.8657
 20
158.828
 11
46.7227
 21
158.626
  0
LINE
  8
0
 10
46.7227
 20
158.626
 11
46.5581
 21
158.442
  0
LINE
  8
0
 10
46.5581
 20
158.442
 11
46.3738
 21
158.277
  0
LINE
  8
0
 10
46.3738
 20
158.277
 11
46.1723
 21
158.134
  0
LINE
  8
0
 10
46.1723
 20
158.134
 11
45.956
 21
158.015
  0
LINE
  8
0
 10
45.956
 20
158.015
 11
45.7278
 21
157.92
  0
LINE
  8
0
 10
45.7278
 20
157.92
 11
45.4903
 21
157.852
  0
LINE
  8
0
 10
45.4903
 20
157.852
 11
45.2467
 21
157.81
  0
LINE
  8
0
 10
45.2467
 20
157.81
 11
45
 21
157.797
  0
LINE
  8
0
 10
45
 20
157.797
 11
44.7533
 21
157.81
  0
LINE
  8
0
 10
-45.2467
 20
157.81
 11
-45.4903
 21
157.852
  0
LINE
  8
0
 10
-45.4903
 20
157.852
 11
-45.7278
 21
157.92
  0
LINE
  8
0
 10
-45.7278
 20
157.92
 11
-45.9561
 21
158.015
  0
LINE
  8
0
 10
-45.9561
 20
158.015
 11
-46.1723
 21
158.134
  0
LINE
  8
0
 10
-46.1723
 20
158.134
 11
-46.3738
 21
158.277
  0
LINE
  8
0
 10
-46.3738
 20
158.277
 11
-46.5581
 21
158.442
  0
LINE
  8
0
 10
-46.5581
 20
158.442
 11
-46.7227
 21
158.626
  0
LINE
  8
0
 10
-46.7227
 20
158.626
 11
-46.8657
 21
158.828
  0
LINE
  8
0
 10
-46.8657
 20
158.828
 11
-46.9853
 21
159.044
  0
LINE
  8
0
 10
-46.9853
 20
159.044
 11
-47.0798
 21
159.272
  0
LINE
  8
0
 10
-47.0798
 20
159.272
 11
-47.1482
 21
159.51
  0
LINE
  8
0
 10
-47.1482
 20
159.51
 11
-47.1896
 21
159.753
  0
LINE
  8
0
 10
-47.1896
 20
159.753
 11
-47.2035
 21
160
  0
LINE
  8
0
 10
-47.2035
 20
160
 11
-47.1896
 21
160.247
  0
LINE
  8
0
 10
-47.1896
 20
160.247
 11
-47.1482
 21
160.49
  0
LINE
  8
0
 10
-47.1482
 20
160.49
 11
-47.0798
 21
160.728
  0
LINE
  8
0
 10
-47.0798
 20
160.728
 11
-46.9853
 21
160.956
  0
LINE
  8
0
 10
-46.9853
 20
160.956
 11
-46.8657
 21
161.172
  0
LINE
  8
0
 10
-46.8657
 20
161.172
 11
-46.7227
 21
161.374
  0
LINE
  8
0
 10
-46.7227
 20
161.374
 11
-46.5581
 21
161.558
  0
LINE
  8
0
 10
-46.5581
 20
161.558
 11
-46.3738
 21
161.723
  0
LINE
  8
0
 10
-46.3738
 20
161.723
 11
-46.1723
 21
161.866
  0
LINE
  8
0
 10
-46.1723
 20
161.866
 11
-45.9561
 21
161.985
  0
LINE
  8
0
 10
-45.9561
 20
161.985
 11
-45.7278
 21
162.08
  0
LINE
  8
0
 10
-45.7278
 20
162.08
 11
-45.4903
 21
162.148
  0
LINE
  8
0
 10
-45.4903
 20
162.148
 11
-45.2467
 21
162.19
  0
LINE
  8
0
 10
-45.2467
 20
162.19
 11
-45
 21
162.203
  0
LINE
  8
0
 10
-45
 20
162.203
 11
-44.7533
 21
162.19
  0
LINE
  8
0
 10
-44.7533
 20
162.19
 11
-44.5097
 21
162.148
  0
LINE
  8
0
 10
-44.5097
 20
162.148
 11
-44.2722
 21
162.08
  0
LINE
  8
0
 10
-44.2722
 20
162.08
 11
-44.044
 21
161.985
  0
LINE
  8
0
 10
-44.044
 20
161.985
 11
-43.8277
 21
161.866
  0
LINE
  8
0
 10
-43.8277
 20
161.866
 11
-43.6262
 21
161.723
  0
LINE
  8
0
 10
-43.6262
 20
161.723
 11
-43.4419
 21
161.558
  0
LINE
  8
0
 10
-43.4419
 20
161.558
 11
-43.2773
 21
161.374
  0
LINE
  8
0
 10
-43.2773
 20
161.374
 11
-43.1343
 21
161.172
  0
LINE
  8
0
 10
-43.1343
 20
161.172
 11
-43.0148
 21
160.956
  0
LINE
  8
0
 10
-43.0148
 20
160.956
 11
-42.9202
 21
160.728
  0
LINE
  8
0
 10
-42.9202
 20
160.728
 11
-42.8518
 21
160.49
  0
LINE
  8
0
 10
-42.8518
 20
160.49
 11
-42.8104
 21
160.247
  0
LINE
  8
0
 10
-42.8104
 20
160.247
 11
-42.7965
 21
160
  0
LINE
  8
0
 10
-42.7965
 20
160
 11
-42.8104
 21
159.753
  0
LINE
  8
0
 10
-42.8104
 20
159.753
 11
-42.8518
 21
159.51
  0
LINE
  8
0
 10
-42.8518
 20
159.51
 11
-42.9202
 21
159.272
  0
LINE
  8
0
 10
-42.9202
 20
159.272
 11
-43.0148
 21
159.044
  0
LINE
  8
0
 10
-43.0148
 20
159.044
 11
-43.1343
 21
158.828
  0
LINE
  8
0
 10
-43.1343
 20
158.828
 11
-43.2773
 21
158.626
  0
LINE
  8
0
 10
-43.2773
 20
158.626
 11
-43.4419
 21
158.442
  0
LINE
  8
0
 10
-43.4419
 20
158.442
 11
-43.6262
 21
158.277
  0
LINE
  8
0
 10
-43.6262
 20
158.277
 11
-43.8277
 21
158.134
  0
LINE
  8
0
 10
-43.8277
 20
158.134
 11
-44.044
 21
158.015
  0
LINE
  8
0
 10
-44.044
 20
158.015
 11
-44.2722
 21
157.92
  0
LINE
  8
0
 10
-44.2722
 20
157.92
 11
-44.5097
 21
157.852
  0
LINE
  8
0
 10
-44.5097
 20
157.852
 11
-44.7533
 21
157.81
  0
LINE
  8
0
 10
-44.7533
 20
157.81
 11
-45
 21
157.797
  0
LINE
  8
0
 10
-45
 20
157.797
 11
-45.2467
 21
157.81
  0
LINE
  8
0
 10
-135.247
 20
157.81
 11
-135.49
 21
157.852
  0
LINE
  8
0
 10
-135.49
 20
157.852
 11
-135.728
 21
157.92
  0
LINE
  8
0
 10
-135.728
 20
157.92
 11
-135.956
 21
158.015
  0
LINE
  8
0
 10
-135.956
 20
158.015
 11
-136.172
 21
158.134
  0
LINE
  8
0
 10
-136.172
 20
158.134
 11
-136.374
 21
158.277
  0
LINE
  8
0
 10
-136.374
 20
158.277
 11
-136.558
 21
158.442
  0
LINE
  8
0
 10
-136.558
 20
158.442
 11
-136.723
 21
158.626
  0
LINE
  8
0
 10
-136.723
 20
158.626
 11
-136.866
 21
158.828
  0
LINE
  8
0
 10
-136.866
 20
158.828
 11
-136.985
 21
159.044
  0
LINE
  8
0
 10
-136.985
 20
159.044
 11
-137.08
 21
159.272
  0
LINE
  8
0
 10
-137.08
 20
159.272
 11
-137.148
 21
159.51
  0
LINE
  8
0
 10
-137.148
 20
159.51
 11
-137.19
 21
159.753
  0
LINE
  8
0
 10
-137.19
 20
159.753
 11
-137.203
 21
160
  0
LINE
  8
0
 10
-137.203
 20
160
 11
-137.19
 21
160.247
  0
LINE
  8
0
 10
-137.19
 20
160.247
 11
-137.148
 21
160.49
  0
LINE
  8
0
 10
-137.148
 20
160.49
 11
-137.08
 21
160.728
  0
LINE
  8
0
 10
-137.08
 20
160.728
 11
-136.985
 21
160.956
  0
LINE
  8
0
 10
-136.985
 20
160.956
 11
-136.866
 21
161.172
  0
LINE
  8
0
 10
-136.866
 20
161.172
 11
-136.723
 21
161.374
  0
LINE
  8
0
 10
-136.723
 20
161.374
 11
-136.558
 21
161.558
  0
LINE
  8
0
 10
-136.558
 20
161.558
 11
-136.374
 21
161.723
  0
LINE
  8
0
 10
-136.374
 20
161.723
 11
-136.172
 21
161.866
  0
LINE
  8
0
 10
-136.172
 20
161.866
 11
-135.956
 21
161.985
  0
LINE
  8
0
 10
-135.956
 20
161.985
 11
-135.728
 21
162.08
  0
LINE
  8
0
 10
-135.728
 20
162.08
 11
-135.49
 21
162.148
  0
LINE
  8
0
 10
-135.49
 20
162.148
 11
-135.247
 21
162.19
  0
LINE
  8
0
 10
-135.247
 20
162.19
 11
-135
 21
162.203
  0
LINE
  8
0
 10
-135
 20
162.203
 11
-134.753
 21
162.19
  0
LINE
  8
0
 10
-134.753
 20
162.19
 11
-134.51
 21
162.148
  0
LINE
  8
0
 10
-134.51
 20
162.148
 11
-134.272
 21
162.08
  0
LINE
  8
0
 10
-134.272
 20
162.08
 11
-134.044
 21
161.985
  0
LINE
  8
0
 10
-134.044
 20
161.985
 11
-133.828
 21
161.866
  0
LINE
  8
0
 10
-133.828
 20
161.866
 11
-133.626
 21
161.723
  0
LINE
  8
0
 10
-133.626
 20
161.723
 11
-133.442
 21
161.558
  0
LINE
  8
0
 10
-133.442
 20
161.558
 11
-133.277
 21
161.374
  0
LINE
  8
0
 10
-133.277
 20
161.374
 11
-133.134
 21
161.172
  0
LINE
  8
0
 10
-133.134
 20
161.172
 11
-133.015
 21
160.956
  0
LINE
  8
0
 10
-133.015
 20
160.956
 11
-132.92
 21
160.728
  0
LINE
  8
0
 10
-132.92
 20
160.728
 11
-132.852
 21
160.49
  0
LINE
  8
0
 10
-132.852
 20
160.49
 11
-132.81
 21
160.247
  0
LINE
  8
0
 10
-132.81
 20
160.247
 11
-132.797
 21
160
  0
LINE
  8
0
 10
-132.797
 20
160
 11
-132.81
 21
159.753
  0
LINE
  8
0
 10
-132.81
 20
159.753
 11
-132.852
 21
159.51
  0
LINE
  8
0
 10
-132.852
 20
159.51
 11
-132.92
 21
159.272
  0
LINE
  8
0
 10
-132.92
 20
159.272
 11
-133.015
 21
159.044
  0
LINE
  8
0
 10
-133.015
 20
159.044
 11
-133.134
 21
158.828
  0
LINE
  8
0
 10
-133.134
 20
158.828
 11
-133.277
 21
158.626
  0
LINE
  8
0
 10
-133.277
 20
158.626
 11
-133.442
 21
158.442
  0
LINE
  8
0
 10
-133.442
 20
158.442
 11
-133.626
 21
158.277
  0
LINE
  8
0
 10
-133.626
 20
158.277
 11
-133.828
 21
158.134
  0
LINE
  8
0
 10
-133.828
 20
158.134
 11
-134.044
 21
158.015
  0
LINE
  8
0
 10
-134.044
 20
158.015
 11
-134.272
 21
157.92
  0
LINE
  8
0
 10
-134.272
 20
157.92
 11
-134.51
 21
157.852
  0
LINE
  8
0
 10
-134.51
 20
157.852
 11
-134.753
 21
157.81
  0
LINE
  8
0
 10
-134.753
 20
157.81
 11
-135
 21
157.797
  0
LINE
  8
0
 10
-135
 20
157.797
 11
-135.247
 21
157.81
  0
LINE
  8
0
 10
134.753
 20
157.81
 11
134.51
 21
157.852
  0
LINE
  8
0
 10
134.51
 20
157.852
 11
134.272
 21
157.92
  0
LINE
  8
0
 10
134.272
 20
157.92
 11
134.044
 21
158.015
  0
LINE
  8
0
 10
134.044
 20
158.015
 11
133.828
 21
158.134
  0
LINE
  8
0
 10
133.828
 20
158.134
 11
133.626
 21
158.277
  0
LINE
  8
0
 10
133.626
 20
158.277
 11
133.442
 21
158.442
  0
LINE
  8
0
 10
133.442
 20
158.442
 11
133.277
 21
158.626
  0
LINE
  8
0
 10
133.277
 20
158.626
 11
133.134
 21
158.828
  0
LINE
  8
0
 10
133.134
 20
158.828
 11
133.015
 21
159.044
  0
LINE
  8
0
 10
133.015
 20
159.044
 11
132.92
 21
159.272
  0
LINE
  8
0
 10
132.92
 20
159.272
 11
132.852
 21
159.51
  0
LINE
  8
0
 10
132.852
 20
159.51
 11
132.81
 21
159.753
  0
LINE
  8
0
 10
132.81
 20
159.753
 11
132.797
 21
160
  0
LINE
  8
0
 10
132.797
 20
160
 11
132.81
 21
160.247
  0
LINE
  8
0
 10
132.81
 20
160.247
 11
132.852
 21
160.49
  0
LINE
  8
0
 10
132.852
 20
160.49
 11
132.92
 21
160.728
  0
LINE
  8
0
 10
132.92
 20
160.728
 11
133.015
 21
160.956
  0
LINE
  8
0
 10
133.015
 20
160.956
 11
133.134
 21
161.172
  0
LINE
  8
0
 10
133.134
 20
161.172
 11
133.277
 21
161.374
  0
LINE
  8
0
 10
133.277
 20
161.374
 11
133.442
 21
161.558
  0
LINE
  8
0
 10
133.442
 20
161.558
 11
133.626
 21
161.723
  0
LINE
  8
0
 10
133.626
 20
161.723
 11
133.828
 21
161.866
  0
LINE
  8
0
 10
133.828
 20
161.866
 11
134.044
 21
161.985
  0
LINE
  8
0
 10
134.044
 20
161.985
 11
134.272
 21
162.08
  0
LINE
  8
0
 10
134.272
 20
162.08
 11
134.51
 21
162.148
  0
LINE
  8
0
 10
134.51
 20
162.148
 11
134.753
 21
162.19
  0
LINE
  8
0
 10
134.753
 20
162.19
 11
135
 21
162.203
  0
LINE
  8
0
 10
135
 20
162.203
 11
135.247
 21
162.19
  0
LINE
  8
0
 10
135.247
 20
162.19
 11
135.49
 21
162.148
  0
LINE
  8
0
 10
135.49
 20
162.148
 11
135.728
 21
162.08
  0
LINE
  8
0
 10
135.728
 20
162.08
 11
135.956
 21
161.985
  0
LINE
  8
0
 10
135.956
 20
161.985
 11
136.172
 21
161.866
  0
LINE
  8
0
 10
136.172
 20
161.866
 11
136.374
 21
161.723
  0
LINE
  8
0
 10
136.374
 20
161.723
 11
136.558
 21
161.558
  0
LINE
  8
0
 10
136.558
 20
161.558
 11
136.723
 21
161.374
  0
LINE
  8
0
 10
136.723
 20
161.374
 11
136.866
 21
161.172
  0
LINE
  8
0
 10
136.866
 20
161.172
 11
136.985
 21
160.956
  0
LINE
  8
0
 10
136.985
 20
160.956
 11
137.08
 21
160.728
  0
LINE
  8
0
 10
137.08
 20
160.728
 11
137.148
 21
160.49
  0
LINE
  8
0
 10
137.148
 20
160.49
 11
137.19
 21
160.247
  0
LINE
  8
0
 10
137.19
 20
160.247
 11
137.203
 21
160
  0
LINE
  8
0
 10
137.203
 20
160
 11
137.19
 21
159.753
  0
LINE
  8
0
 10
137.19
 20
159.753
 11
137.148
 21
159.51
  0
LINE
  8
0
 10
137.148
 20
159.51
 11
137.08
 21
159.272
  0
LINE
  8
0
 10
137.08
 20
159.272
 11
136.985
 21
159.044
  0
LINE
  8
0
 10
136.985
 20
159.044
 11
136.866
 21
158.828
  0
LINE
  8
0
 10
136.866
 20
158.828
 11
136.723
 21
158.626
  0
LINE
  8
0
 10
136.723
 20
158.626
 11
136.558
 21
158.442
  0
LINE
  8
0
 10
136.558
 20
158.442
 11
136.374
 21
158.277
  0
LINE
  8
0
 10
136.374
 20
158.277
 11
136.172
 21
158.134
  0
LINE
  8
0
 10
136.172
 20
158.134
 11
135.956
 21
158.015
  0
LINE
  8
0
 10
135.956
 20
158.015
 11
135.728
 21
157.92
  0
LINE
  8
0
 10
135.728
 20
157.92
 11
135.49
 21
157.852
  0
LINE
  8
0
 10
135.49
 20
157.852
 11
135.247
 21
157.81
  0
LINE
  8
0
 10
135.247
 20
157.81
 11
135
 21
157.797
  0
LINE
  8
0
 10
135
 20
157.797
 11
134.753
 21
157.81
  0
LINE
  8
0
 10
-160.247
 20
132.81
 11
-160.49
 21
132.852
  0
LINE
  8
0
 10
-160.49
 20
132.852
 11
-160.728
 21
132.92
  0
LINE
  8
0
 10
-160.728
 20
132.92
 11
-160.956
 21
133.015
  0
LINE
  8
0
 10
-160.956
 20
133.015
 11
-161.172
 21
133.134
  0
LINE
  8
0
 10
-161.172
 20
133.134
 11
-161.374
 21
133.277
  0
LINE
  8
0
 10
-161.374
 20
133.277
 11
-161.558
 21
133.442
  0
LINE
  8
0
 10
-161.558
 20
133.442
 11
-161.723
 21
133.626
  0
LINE
  8
0
 10
-161.723
 20
133.626
 11
-161.866
 21
133.828
  0
LINE
  8
0
 10
-161.866
 20
133.828
 11
-161.985
 21
134.044
  0
LINE
  8
0
 10
-161.985
 20
134.044
 11
-162.08
 21
134.272
  0
LINE
  8
0
 10
-162.08
 20
134.272
 11
-162.148
 21
134.51
  0
LINE
  8
0
 10
-162.148
 20
134.51
 11
-162.19
 21
134.753
  0
LINE
  8
0
 10
-162.19
 20
134.753
 11
-162.203
 21
135
  0
LINE
  8
0
 10
-162.203
 20
135
 11
-162.19
 21
135.247
  0
LINE
  8
0
 10
-162.19
 20
135.247
 11
-162.148
 21
135.49
  0
LINE
  8
0
 10
-162.148
 20
135.49
 11
-162.08
 21
135.728
  0
LINE
  8
0
 10
-162.08
 20
135.728
 11
-161.985
 21
135.956
  0
LINE
  8
0
 10
-161.985
 20
135.956
 11
-161.866
 21
136.172
  0
LINE
  8
0
 10
-161.866
 20
136.172
 11
-161.723
 21
136.374
  0
LINE
  8
0
 10
-161.723
 20
136.374
 11
-161.558
 21
136.558
  0
LINE
  8
0
 10
-161.558
 20
136.558
 11
-161.374
 21
136.723
  0
LINE
  8
0
 10
-161.374
 20
136.723
 11
-161.172
 21
136.866
  0
LINE
  8
0
 10
-161.172
 20
136.866
 11
-160.956
 21
136.985
  0
LINE
  8
0
 10
-160.956
 20
136.985
 11
-160.728
 21
137.08
  0
LINE
  8
0
 10
-160.728
 20
137.08
 11
-160.49
 21
137.148
  0
LINE
  8
0
 10
-160.49
 20
137.148
 11
-160.247
 21
137.19
  0
LINE
  8
0
 10
-160.247
 20
137.19
 11
-160
 21
137.203
  0
LINE
  8
0
 10
-160
 20
137.203
 11
-159.753
 21
137.19
  0
LINE
  8
0
 10
-159.753
 20
137.19
 11
-159.51
 21
137.148
  0
LINE
  8
0
 10
-159.51
 20
137.148
 11
-159.272
 21
137.08
  0
LINE
  8
0
 10
-159.272
 20
137.08
 11
-159.044
 21
136.985
  0
LINE
  8
0
 10
-159.044
 20
136.985
 11
-158.828
 21
136.866
  0
LINE
  8
0
 10
-158.828
 20
136.866
 11
-158.626
 21
136.723
  0
LINE
  8
0
 10
-158.626
 20
136.723
 11
-158.442
 21
136.558
  0
LINE
  8
0
 10
-158.442
 20
136.558
 11
-158.277
 21
136.374
  0
LINE
  8
0
 10
-158.277
 20
136.374
 11
-158.134
 21
136.172
  0
LINE
  8
0
 10
-158.134
 20
136.172
 11
-158.015
 21
135.956
  0
LINE
  8
0
 10
-158.015
 20
135.956
 11
-157.92
 21
135.728
  0
LINE
  8
0
 10
-157.92
 20
135.728
 11
-157.852
 21
135.49
  0
LINE
  8
0
 10
-157.852
 20
135.49
 11
-157.81
 21
135.247
  0
LINE
  8
0
 10
-157.81
 20
135.247
 11
-157.797
 21
135
  0
LINE
  8
0
 10
-157.797
 20
135
 11
-157.81
 21
134.753
  0
LINE
  8
0
 10
-157.81
 20
134.753
 11
-157.852
 21
134.51
  0
LINE
  8
0
 10
-157.852
 20
134.51
 11
-157.92
 21
134.272
  0
LINE
  8
0
 10
-157.92
 20
134.272
 11
-158.015
 21
134.044
  0
LINE
  8
0
 10
-158.015
 20
134.044
 11
-158.134
 21
133.828
  0
LINE
  8
0
 10
-158.134
 20
133.828
 11
-158.277
 21
133.626
  0
LINE
  8
0
 10
-158.277
 20
133.626
 11
-158.442
 21
133.442
  0
LINE
  8
0
 10
-158.442
 20
133.442
 11
-158.626
 21
133.277
  0
LINE
  8
0
 10
-158.626
 20
133.277
 11
-158.828
 21
133.134
  0
LINE
  8
0
 10
-158.828
 20
133.134
 11
-159.044
 21
133.015
  0
LINE
  8
0
 10
-159.044
 20
133.015
 11
-159.272
 21
132.92
  0
LINE
  8
0
 10
-159.272
 20
132.92
 11
-159.51
 21
132.852
  0
LINE
  8
0
 10
-159.51
 20
132.852
 11
-159.753
 21
132.81
  0
LINE
  8
0
 10
-159.753
 20
132.81
 11
-160
 21
132.797
  0
LINE
  8
0
 10
-160
 20
132.797
 11
-160.247
 21
132.81
  0
LINE
  8
0
 10
159.753
 20
132.81
 11
159.51
 21
132.852
  0
LINE
  8
0
 10
159.51
 20
132.852
 11
159.272
 21
132.92
  0
LINE
  8
0
 10
159.272
 20
132.92
 11
159.044
 21
133.015
  0
LINE
  8
0
 10
159.044
 20
133.015
 11
158.828
 21
133.134
  0
LINE
  8
0
 10
158.828
 20
133.134
 11
158.626
 21
133.277
  0
LINE
  8
0
 10
158.626
 20
133.277
 11
158.442
 21
133.442
  0
LINE
  8
0
 10
158.442
 20
133.442
 11
158.277
 21
133.626
  0
LINE
  8
0
 10
158.277
 20
133.626
 11
158.134
 21
133.828
  0
LINE
  8
0
 10
158.134
 20
133.828
 11
158.015
 21
134.044
  0
LINE
  8
0
 10
158.015
 20
134.044
 11
157.92
 21
134.272
  0
LINE
  8
0
 10
157.92
 20
134.272
 11
157.852
 21
134.51
  0
LINE
  8
0
 10
157.852
 20
134.51
 11
157.81
 21
134.753
  0
LINE
  8
0
 10
157.81
 20
134.753
 11
157.797
 21
135
  0
LINE
  8
0
 10
157.797
 20
135
 11
157.81
 21
135.247
  0
LINE
  8
0
 10
157.81
 20
135.247
 11
157.852
 21
135.49
  0
LINE
  8
0
 10
157.852
 20
135.49
 11
157.92
 21
135.728
  0
LINE
  8
0
 10
157.92
 20
135.728
 11
158.015
 21
135.956
  0
LINE
  8
0
 10
158.015
 20
135.956
 11
158.134
 21
136.172
  0
LINE
  8
0
 10
158.134
 20
136.172
 11
158.277
 21
136.374
  0
LINE
  8
0
 10
158.277
 20
136.374
 11
158.442
 21
136.558
  0
LINE
  8
0
 10
158.442
 20
136.558
 11
158.626
 21
136.723
  0
LINE
  8
0
 10
158.626
 20
136.723
 11
158.828
 21
136.866
  0
LINE
  8
0
 10
158.828
 20
136.866
 11
159.044
 21
136.985
  0
LINE
  8
0
 10
159.044
 20
136.985
 11
159.272
 21
137.08
  0
LINE
  8
0
 10
159.272
 20
137.08
 11
159.51
 21
137.148
  0
LINE
  8
0
 10
159.51
 20
137.148
 11
159.753
 21
137.19
  0
LINE
  8
0
 10
159.753
 20
137.19
 11
160
 21
137.203
  0
LINE
  8
0
 10
160
 20
137.203
 11
160.247
 21
137.19
  0
LINE
  8
0
 10
160.247
 20
137.19
 11
160.49
 21
137.148
  0
LINE
  8
0
 10
160.49
 20
137.148
 11
160.728
 21
137.08
  0
LINE
  8
0
 10
160.728
 20
137.08
 11
160.956
 21
136.985
  0
LINE
  8
0
 10
160.956
 20
136.985
 11
161.172
 21
136.866
  0
LINE
  8
0
 10
161.172
 20
136.866
 11
161.374
 21
136.723
  0
LINE
  8
0
 10
161.374
 20
136.723
 11
161.558
 21
136.558
  0
LINE
  8
0
 10
161.558
 20
136.558
 11
161.723
 21
136.374
  0
LINE
  8
0
 10
161.723
 20
136.374
 11
161.866
 21
136.172
  0
LINE
  8
0
 10
161.866
 20
136.172
 11
161.985
 21
135.956
  0
LINE
  8
0
 10
161.985
 20
135.956
 11
162.08
 21
135.728
  0
LINE
  8
0
 10
162.08
 20
135.728
 11
162.148
 21
135.49
  0
LINE
  8
0
 10
162.148
 20
135.49
 11
162.19
 21
135.247
  0
LINE
  8
0
 10
162.19
 20
135.247
 11
162.203
 21
135
  0
LINE
  8
0
 10
162.203
 20
135
 11
162.19
 21
134.753
  0
LINE
  8
0
 10
162.19
 20
134.753
 11
162.148
 21
134.51
  0
LINE
  8
0
 10
162.148
 20
134.51
 11
162.08
 21
134.272
  0
LINE
  8
0
 10
162.08
 20
134.272
 11
161.985
 21
134.044
  0
LINE
  8
0
 10
161.985
 20
134.044
 11
161.866
 21
133.828
  0
LINE
  8
0
 10
161.866
 20
133.828
 11
161.723
 21
133.626
  0
LINE
  8
0
 10
161.723
 20
133.626
 11
161.558
 21
133.442
  0
LINE
  8
0
 10
161.558
 20
133.442
 11
161.374
 21
133.277
  0
LINE
  8
0
 10
161.374
 20
133.277
 11
161.172
 21
133.134
  0
LINE
  8
0
 10
161.172
 20
133.134
 11
160.956
 21
133.015
  0
LINE
  8
0
 10
160.956
 20
133.015
 11
160.728
 21
132.92
  0
LINE
  8
0
 10
160.728
 20
132.92
 11
160.49
 21
132.852
  0
LINE
  8
0
 10
160.49
 20
132.852
 11
160.247
 21
132.81
  0
LINE
  8
0
 10
160.247
 20
132.81
 11
160
 21
132.797
  0
LINE
  8
0
 10
160
 20
132.797
 11
159.753
 21
132.81
  0
LINE
  8
0
 10
51.955
 20
125.768
 11
51.7193
 21
125.84
  0
LINE
  8
0
 10
51.7193
 20
125.84
 11
51.5022
 21
125.956
  0
LINE
  8
0
 10
51.5022
 20
125.956
 11
51.3118
 21
126.112
  0
LINE
  8
0
 10
51.3118
 20
126.112
 11
51.1556
 21
126.302
  0
LINE
  8
0
 10
51.1556
 20
126.302
 11
51.0396
 21
126.519
  0
LINE
  8
0
 10
51.0396
 20
126.519
 11
50.9681
 21
126.755
  0
LINE
  8
0
 10
50.9681
 20
126.755
 11
50.944
 21
127
  0
LINE
  8
0
 10
50.944
 20
127
 11
50.9681
 21
127.245
  0
LINE
  8
0
 10
50.9681
 20
127.245
 11
51.0396
 21
127.481
  0
LINE
  8
0
 10
51.0396
 20
127.481
 11
51.1556
 21
127.698
  0
LINE
  8
0
 10
51.1556
 20
127.698
 11
51.3118
 21
127.888
  0
LINE
  8
0
 10
51.3118
 20
127.888
 11
51.5022
 21
128.044
  0
LINE
  8
0
 10
51.5022
 20
128.044
 11
51.7193
 21
128.16
  0
LINE
  8
0
 10
51.7193
 20
128.16
 11
51.955
 21
128.232
  0
LINE
  8
0
 10
51.955
 20
128.232
 11
52.2
 21
128.256
  0
LINE
  8
0
 10
52.2
 20
128.256
 11
52.445
 21
128.232
  0
LINE
  8
0
 10
52.445
 20
128.232
 11
52.6807
 21
128.16
  0
LINE
  8
0
 10
52.6807
 20
128.16
 11
52.8978
 21
128.044
  0
LINE
  8
0
 10
52.8978
 20
128.044
 11
53.0882
 21
127.888
  0
LINE
  8
0
 10
53.0882
 20
127.888
 11
53.2444
 21
127.698
  0
LINE
  8
0
 10
53.2444
 20
127.698
 11
53.3604
 21
127.481
  0
LINE
  8
0
 10
53.3604
 20
127.481
 11
53.4319
 21
127.245
  0
LINE
  8
0
 10
53.4319
 20
127.245
 11
53.456
 21
127
  0
LINE
  8
0
 10
53.456
 20
127
 11
53.4319
 21
126.755
  0
LINE
  8
0
 10
53.4319
 20
126.755
 11
53.3604
 21
126.519
  0
LINE
  8
0
 10
53.3604
 20
126.519
 11
53.2444
 21
126.302
  0
LINE
  8
0
 10
53.2444
 20
126.302
 11
53.0882
 21
126.112
  0
LINE
  8
0
 10
53.0882
 20
126.112
 11
52.8978
 21
125.956
  0
LINE
  8
0
 10
52.8978
 20
125.956
 11
52.6807
 21
125.84
  0
LINE
  8
0
 10
52.6807
 20
125.84
 11
52.445
 21
125.768
  0
LINE
  8
0
 10
52.445
 20
125.768
 11
52.2
 21
125.744
  0
LINE
  8
0
 10
52.2
 20
125.744
 11
51.955
 21
125.768
  0
LINE
  8
0
 10
81.2549
 20
125.768
 11
81.0193
 21
125.84
  0
LINE
  8
0
 10
81.0193
 20
125.84
 11
80.8022
 21
125.956
  0
LINE
  8
0
 10
80.8022
 20
125.956
 11
80.6118
 21
126.112
  0
LINE
  8
0
 10
80.6118
 20
126.112
 11
80.4556
 21
126.302
  0
LINE
  8
0
 10
80.4556
 20
126.302
 11
80.3395
 21
126.519
  0
LINE
  8
0
 10
80.3395
 20
126.519
 11
80.2681
 21
126.755
  0
LINE
  8
0
 10
80.2681
 20
126.755
 11
80.2439
 21
127
  0
LINE
  8
0
 10
80.2439
 20
127
 11
80.2681
 21
127.245
  0
LINE
  8
0
 10
80.2681
 20
127.245
 11
80.3395
 21
127.481
  0
LINE
  8
0
 10
80.3395
 20
127.481
 11
80.4556
 21
127.698
  0
LINE
  8
0
 10
80.4556
 20
127.698
 11
80.6118
 21
127.888
  0
LINE
  8
0
 10
80.6118
 20
127.888
 11
80.8022
 21
128.044
  0
LINE
  8
0
 10
80.8022
 20
128.044
 11
81.0193
 21
128.16
  0
LINE
  8
0
 10
81.0193
 20
128.16
 11
81.2549
 21
128.232
  0
LINE
  8
0
 10
81.2549
 20
128.232
 11
81.5
 21
128.256
  0
LINE
  8
0
 10
81.5
 20
128.256
 11
81.745
 21
128.232
  0
LINE
  8
0
 10
81.745
 20
128.232
 11
81.9807
 21
128.16
  0
LINE
  8
0
 10
81.9807
 20
128.16
 11
82.1978
 21
128.044
  0
LINE
  8
0
 10
82.1978
 20
128.044
 11
82.3881
 21
127.888
  0
LINE
  8
0
 10
82.3881
 20
127.888
 11
82.5443
 21
127.698
  0
LINE
  8
0
 10
82.5443
 20
127.698
 11
82.6604
 21
127.481
  0
LINE
  8
0
 10
82.6604
 20
127.481
 11
82.7319
 21
127.245
  0
LINE
  8
0
 10
82.7319
 20
127.245
 11
82.756
 21
127
  0
LINE
  8
0
 10
82.756
 20
127
 11
82.7319
 21
126.755
  0
LINE
  8
0
 10
82.7319
 20
126.755
 11
82.6604
 21
126.519
  0
LINE
  8
0
 10
82.6604
 20
126.519
 11
82.5443
 21
126.302
  0
LINE
  8
0
 10
82.5443
 20
126.302
 11
82.3881
 21
126.112
  0
LINE
  8
0
 10
82.3881
 20
126.112
 11
82.1978
 21
125.956
  0
LINE
  8
0
 10
82.1978
 20
125.956
 11
81.9807
 21
125.84
  0
LINE
  8
0
 10
81.9807
 20
125.84
 11
81.745
 21
125.768
  0
LINE
  8
0
 10
81.745
 20
125.768
 11
81.5
 21
125.744
  0
LINE
  8
0
 10
81.5
 20
125.744
 11
81.2549
 21
125.768
  0
LINE
  8
0
 10
27.2533
 20
123.81
 11
27.0097
 21
123.852
  0
LINE
  8
0
 10
27.0097
 20
123.852
 11
26.7722
 21
123.92
  0
LINE
  8
0
 10
26.7722
 20
123.92
 11
26.5439
 21
124.015
  0
LINE
  8
0
 10
26.5439
 20
124.015
 11
26.3277
 21
124.134
  0
LINE
  8
0
 10
26.3277
 20
124.134
 11
26.1262
 21
124.277
  0
LINE
  8
0
 10
26.1262
 20
124.277
 11
25.9419
 21
124.442
  0
LINE
  8
0
 10
25.9419
 20
124.442
 11
25.7773
 21
124.626
  0
LINE
  8
0
 10
25.7773
 20
124.626
 11
25.6343
 21
124.828
  0
LINE
  8
0
 10
25.6343
 20
124.828
 11
25.5147
 21
125.044
  0
LINE
  8
0
 10
25.5147
 20
125.044
 11
25.4202
 21
125.272
  0
LINE
  8
0
 10
25.4202
 20
125.272
 11
25.3518
 21
125.51
  0
LINE
  8
0
 10
25.3518
 20
125.51
 11
25.3104
 21
125.753
  0
LINE
  8
0
 10
25.3104
 20
125.753
 11
25.2965
 21
126
  0
LINE
  8
0
 10
25.2965
 20
126
 11
25.3104
 21
126.247
  0
LINE
  8
0
 10
25.3104
 20
126.247
 11
25.3518
 21
126.49
  0
LINE
  8
0
 10
25.3518
 20
126.49
 11
25.4202
 21
126.728
  0
LINE
  8
0
 10
25.4202
 20
126.728
 11
25.5147
 21
126.956
  0
LINE
  8
0
 10
25.5147
 20
126.956
 11
25.6343
 21
127.172
  0
LINE
  8
0
 10
25.6343
 20
127.172
 11
25.7773
 21
127.374
  0
LINE
  8
0
 10
25.7773
 20
127.374
 11
25.9419
 21
127.558
  0
LINE
  8
0
 10
25.9419
 20
127.558
 11
26.1262
 21
127.723
  0
LINE
  8
0
 10
26.1262
 20
127.723
 11
26.3277
 21
127.866
  0
LINE
  8
0
 10
26.3277
 20
127.866
 11
26.5439
 21
127.985
  0
LINE
  8
0
 10
26.5439
 20
127.985
 11
26.7722
 21
128.08
  0
LINE
  8
0
 10
26.7722
 20
128.08
 11
27.0097
 21
128.148
  0
LINE
  8
0
 10
27.0097
 20
128.148
 11
27.2533
 21
128.19
  0
LINE
  8
0
 10
27.2533
 20
128.19
 11
27.5
 21
128.203
  0
LINE
  8
0
 10
27.5
 20
128.203
 11
27.7467
 21
128.19
  0
LINE
  8
0
 10
27.7467
 20
128.19
 11
27.9903
 21
128.148
  0
LINE
  8
0
 10
27.9903
 20
128.148
 11
28.2278
 21
128.08
  0
LINE
  8
0
 10
28.2278
 20
128.08
 11
28.456
 21
127.985
  0
LINE
  8
0
 10
28.456
 20
127.985
 11
28.6723
 21
127.866
  0
LINE
  8
0
 10
28.6723
 20
127.866
 11
28.8738
 21
127.723
  0
LINE
  8
0
 10
28.8738
 20
127.723
 11
29.0581
 21
127.558
  0
LINE
  8
0
 10
29.0581
 20
127.558
 11
29.2227
 21
127.374
  0
LINE
  8
0
 10
29.2227
 20
127.374
 11
29.3657
 21
127.172
  0
LINE
  8
0
 10
29.3657
 20
127.172
 11
29.4852
 21
126.956
  0
LINE
  8
0
 10
29.4852
 20
126.956
 11
29.5798
 21
126.728
  0
LINE
  8
0
 10
29.5798
 20
126.728
 11
29.6482
 21
126.49
  0
LINE
  8
0
 10
29.6482
 20
126.49
 11
29.6896
 21
126.247
  0
LINE
  8
0
 10
29.6896
 20
126.247
 11
29.7035
 21
126
  0
LINE
  8
0
 10
29.7035
 20
126
 11
29.6896
 21
125.753
  0
LINE
  8
0
 10
29.6896
 20
125.753
 11
29.6482
 21
125.51
  0
LINE
  8
0
 10
29.6482
 20
125.51
 11
29.5798
 21
125.272
  0
LINE
  8
0
 10
29.5798
 20
125.272
 11
29.4852
 21
125.044
  0
LINE
  8
0
 10
29.4852
 20
125.044
 11
29.3657
 21
124.828
  0
LINE
  8
0
 10
29.3657
 20
124.828
 11
29.2227
 21
124.626
  0
LINE
  8
0
 10
29.2227
 20
124.626
 11
29.0581
 21
124.442
  0
LINE
  8
0
 10
29.0581
 20
124.442
 11
28.8738
 21
124.277
  0
LINE
  8
0
 10
28.8738
 20
124.277
 11
28.6723
 21
124.134
  0
LINE
  8
0
 10
28.6723
 20
124.134
 11
28.456
 21
124.015
  0
LINE
  8
0
 10
28.456
 20
124.015
 11
28.2278
 21
123.92
  0
LINE
  8
0
 10
28.2278
 20
123.92
 11
27.9903
 21
123.852
  0
LINE
  8
0
 10
27.9903
 20
123.852
 11
27.7467
 21
123.81
  0
LINE
  8
0
 10
27.7467
 20
123.81
 11
27.5
 21
123.797
  0
LINE
  8
0
 10
27.5
 20
123.797
 11
27.2533
 21
123.81
  0
LINE
  8
0
 10
141.255
 20
55.2681
 11
141.019
 21
55.3396
  0
LINE
  8
0
 10
141.019
 20
55.3396
 11
140.802
 21
55.4556
  0
LINE
  8
0
 10
140.802
 20
55.4556
 11
140.612
 21
55.6118
  0
LINE
  8
0
 10
140.612
 20
55.6118
 11
140.456
 21
55.8022
  0
LINE
  8
0
 10
140.456
 20
55.8022
 11
140.34
 21
56.0193
  0
LINE
  8
0
 10
140.34
 20
56.0193
 11
140.268
 21
56.2549
  0
LINE
  8
0
 10
140.268
 20
56.2549
 11
140.244
 21
56.5
  0
LINE
  8
0
 10
140.244
 20
56.5
 11
140.268
 21
56.745
  0
LINE
  8
0
 10
140.268
 20
56.745
 11
140.34
 21
56.9807
  0
LINE
  8
0
 10
140.34
 20
56.9807
 11
140.456
 21
57.1978
  0
LINE
  8
0
 10
140.456
 20
57.1978
 11
140.612
 21
57.3882
  0
LINE
  8
0
 10
140.612
 20
57.3882
 11
140.802
 21
57.5444
  0
LINE
  8
0
 10
140.802
 20
57.5444
 11
141.019
 21
57.6604
  0
LINE
  8
0
 10
141.019
 20
57.6604
 11
141.255
 21
57.7319
  0
LINE
  8
0
 10
141.255
 20
57.7319
 11
141.5
 21
57.756
  0
LINE
  8
0
 10
141.5
 20
57.756
 11
141.745
 21
57.7319
  0
LINE
  8
0
 10
141.745
 20
57.7319
 11
141.981
 21
57.6604
  0
LINE
  8
0
 10
141.981
 20
57.6604
 11
142.198
 21
57.5444
  0
LINE
  8
0
 10
142.198
 20
57.5444
 11
142.388
 21
57.3882
  0
LINE
  8
0
 10
142.388
 20
57.3882
 11
142.544
 21
57.1978
  0
LINE
  8
0
 10
142.544
 20
57.1978
 11
142.66
 21
56.9807
  0
LINE
  8
0
 10
142.66
 20
56.9807
 11
142.732
 21
56.745
  0
LINE
  8
0
 10
142.732
 20
56.745
 11
142.756
 21
56.5
  0
LINE
  8
0
 10
142.756
 20
56.5
 11
142.732
 21
56.2549
  0
LINE
  8
0
 10
142.732
 20
56.2549
 11
142.66
 21
56.0193
  0
LINE
  8
0
 10
142.66
 20
56.0193
 11
142.544
 21
55.8022
  0
LINE
  8
0
 10
142.544
 20
55.8022
 11
142.388
 21
55.6118
  0
LINE
  8
0
 10
142.388
 20
55.6118
 11
142.198
 21
55.4556
  0
LINE
  8
0
 10
142.198
 20
55.4556
 11
141.981
 21
55.3396
  0
LINE
  8
0
 10
141.981
 20
55.3396
 11
141.745
 21
55.2681
  0
LINE
  8
0
 10
141.745
 20
55.2681
 11
141.5
 21
55.2439
  0
LINE
  8
0
 10
141.5
 20
55.2439
 11
141.255
 21
55.2681
  0
LINE
  8
0
 10
92.255
 20
55.2681
 11
92.0193
 21
55.3396
  0
LINE
  8
0
 10
92.0193
 20
55.3396
 11
91.8022
 21
55.4556
  0
LINE
  8
0
 10
91.8022
 20
55.4556
 11
91.6118
 21
55.6118
  0
LINE
  8
0
 10
91.6118
 20
55.6118
 11
91.4556
 21
55.8022
  0
LINE
  8
0
 10
91.4556
 20
55.8022
 11
91.3396
 21
56.0193
  0
LINE
  8
0
 10
91.3396
 20
56.0193
 11
91.2681
 21
56.2549
  0
LINE
  8
0
 10
91.2681
 20
56.2549
 11
91.244
 21
56.5
  0
LINE
  8
0
 10
91.244
 20
56.5
 11
91.2681
 21
56.745
  0
LINE
  8
0
 10
91.2681
 20
56.745
 11
91.3396
 21
56.9807
  0
LINE
  8
0
 10
91.3396
 20
56.9807
 11
91.4556
 21
57.1978
  0
LINE
  8
0
 10
91.4556
 20
57.1978
 11
91.6118
 21
57.3882
  0
LINE
  8
0
 10
91.6118
 20
57.3882
 11
91.8022
 21
57.5444
  0
LINE
  8
0
 10
91.8022
 20
57.5444
 11
92.0193
 21
57.6604
  0
LINE
  8
0
 10
92.0193
 20
57.6604
 11
92.255
 21
57.7319
  0
LINE
  8
0
 10
92.255
 20
57.7319
 11
92.5
 21
57.756
  0
LINE
  8
0
 10
92.5
 20
57.756
 11
92.7451
 21
57.7319
  0
LINE
  8
0
 10
92.7451
 20
57.7319
 11
92.9807
 21
57.6604
  0
LINE
  8
0
 10
92.9807
 20
57.6604
 11
93.1978
 21
57.5444
  0
LINE
  8
0
 10
93.1978
 20
57.5444
 11
93.3882
 21
57.3882
  0
LINE
  8
0
 10
93.3882
 20
57.3882
 11
93.5444
 21
57.1978
  0
LINE
  8
0
 10
93.5444
 20
57.1978
 11
93.6604
 21
56.9807
  0
LINE
  8
0
 10
93.6604
 20
56.9807
 11
93.7319
 21
56.745
  0
LINE
  8
0
 10
93.7319
 20
56.745
 11
93.7561
 21
56.5
  0
LINE
  8
0
 10
93.7561
 20
56.5
 11
93.7319
 21
56.2549
  0
LINE
  8
0
 10
93.7319
 20
56.2549
 11
93.6604
 21
56.0193
  0
LINE
  8
0
 10
93.6604
 20
56.0193
 11
93.5444
 21
55.8022
  0
LINE
  8
0
 10
93.5444
 20
55.8022
 11
93.3882
 21
55.6118
  0
LINE
  8
0
 10
93.3882
 20
55.6118
 11
93.1978
 21
55.4556
  0
LINE
  8
0
 10
93.1978
 20
55.4556
 11
92.9807
 21
55.3396
  0
LINE
  8
0
 10
92.9807
 20
55.3396
 11
92.7451
 21
55.2681
  0
LINE
  8
0
 10
92.7451
 20
55.2681
 11
92.5
 21
55.2439
  0
LINE
  8
0
 10
92.5
 20
55.2439
 11
92.255
 21
55.2681
  0
LINE
  8
0
 10
81.2549
 20
51.3681
 11
81.0193
 21
51.4396
  0
LINE
  8
0
 10
81.0193
 20
51.4396
 11
80.8022
 21
51.5556
  0
LINE
  8
0
 10
80.8022
 20
51.5556
 11
80.6118
 21
51.7118
  0
LINE
  8
0
 10
80.6118
 20
51.7118
 11
80.4556
 21
51.9022
  0
LINE
  8
0
 10
80.4556
 20
51.9022
 11
80.3395
 21
52.1193
  0
LINE
  8
0
 10
80.3395
 20
52.1193
 11
80.2681
 21
52.3549
  0
LINE
  8
0
 10
80.2681
 20
52.3549
 11
80.2439
 21
52.6
  0
LINE
  8
0
 10
80.2439
 20
52.6
 11
80.2681
 21
52.845
  0
LINE
  8
0
 10
80.2681
 20
52.845
 11
80.3395
 21
53.0807
  0
LINE
  8
0
 10
80.3395
 20
53.0807
 11
80.4556
 21
53.2978
  0
LINE
  8
0
 10
80.4556
 20
53.2978
 11
80.6118
 21
53.4882
  0
LINE
  8
0
 10
80.6118
 20
53.4882
 11
80.8022
 21
53.6444
  0
LINE
  8
0
 10
80.8022
 20
53.6444
 11
81.0193
 21
53.7604
  0
LINE
  8
0
 10
81.0193
 20
53.7604
 11
81.2549
 21
53.8319
  0
LINE
  8
0
 10
81.2549
 20
53.8319
 11
81.5
 21
53.856
  0
LINE
  8
0
 10
81.5
 20
53.856
 11
81.745
 21
53.8319
  0
LINE
  8
0
 10
81.745
 20
53.8319
 11
81.9807
 21
53.7604
  0
LINE
  8
0
 10
81.9807
 20
53.7604
 11
82.1978
 21
53.6444
  0
LINE
  8
0
 10
82.1978
 20
53.6444
 11
82.3881
 21
53.4882
  0
LINE
  8
0
 10
82.3881
 20
53.4882
 11
82.5443
 21
53.2978
  0
LINE
  8
0
 10
82.5443
 20
53.2978
 11
82.6604
 21
53.0807
  0
LINE
  8
0
 10
82.6604
 20
53.0807
 11
82.7319
 21
52.845
  0
LINE
  8
0
 10
82.7319
 20
52.845
 11
82.756
 21
52.6
  0
LINE
  8
0
 10
82.756
 20
52.6
 11
82.7319
 21
52.3549
  0
LINE
  8
0
 10
82.7319
 20
52.3549
 11
82.6604
 21
52.1193
  0
LINE
  8
0
 10
82.6604
 20
52.1193
 11
82.5443
 21
51.9022
  0
LINE
  8
0
 10
82.5443
 20
51.9022
 11
82.3881
 21
51.7118
  0
LINE
  8
0
 10
82.3881
 20
51.7118
 11
82.1978
 21
51.5556
  0
LINE
  8
0
 10
82.1978
 20
51.5556
 11
81.9807
 21
51.4396
  0
LINE
  8
0
 10
81.9807
 20
51.4396
 11
81.745
 21
51.3681
  0
LINE
  8
0
 10
81.745
 20
51.3681
 11
81.5
 21
51.3439
  0
LINE
  8
0
 10
81.5
 20
51.3439
 11
81.2549
 21
51.3681
  0
LINE
  8
0
 10
51.955
 20
51.3681
 11
51.7193
 21
51.4396
  0
LINE
  8
0
 10
51.7193
 20
51.4396
 11
51.5022
 21
51.5556
  0
LINE
  8
0
 10
51.5022
 20
51.5556
 11
51.3118
 21
51.7118
  0
LINE
  8
0
 10
51.3118
 20
51.7118
 11
51.1556
 21
51.9022
  0
LINE
  8
0
 10
51.1556
 20
51.9022
 11
51.0396
 21
52.1193
  0
LINE
  8
0
 10
51.0396
 20
52.1193
 11
50.9681
 21
52.3549
  0
LINE
  8
0
 10
50.9681
 20
52.3549
 11
50.944
 21
52.6
  0
LINE
  8
0
 10
50.944
 20
52.6
 11
50.9681
 21
52.845
  0
LINE
  8
0
 10
50.9681
 20
52.845
 11
51.0396
 21
53.0807
  0
LINE
  8
0
 10
51.0396
 20
53.0807
 11
51.1556
 21
53.2978
  0
LINE
  8
0
 10
51.1556
 20
53.2978
 11
51.3118
 21
53.4882
  0
LINE
  8
0
 10
51.3118
 20
53.4882
 11
51.5022
 21
53.6444
  0
LINE
  8
0
 10
51.5022
 20
53.6444
 11
51.7193
 21
53.7604
  0
LINE
  8
0
 10
51.7193
 20
53.7604
 11
51.955
 21
53.8319
  0
LINE
  8
0
 10
51.955
 20
53.8319
 11
52.2
 21
53.856
  0
LINE
  8
0
 10
52.2
 20
53.856
 11
52.445
 21
53.8319
  0
LINE
  8
0
 10
52.445
 20
53.8319
 11
52.6807
 21
53.7604
  0
LINE
  8
0
 10
52.6807
 20
53.7604
 11
52.8978
 21
53.6444
  0
LINE
  8
0
 10
52.8978
 20
53.6444
 11
53.0882
 21
53.4882
  0
LINE
  8
0
 10
53.0882
 20
53.4882
 11
53.2444
 21
53.2978
  0
LINE
  8
0
 10
53.2444
 20
53.2978
 11
53.3604
 21
53.0807
  0
LINE
  8
0
 10
53.3604
 20
53.0807
 11
53.4319
 21
52.845
  0
LINE
  8
0
 10
53.4319
 20
52.845
 11
53.456
 21
52.6
  0
LINE
  8
0
 10
53.456
 20
52.6
 11
53.4319
 21
52.3549
  0
LINE
  8
0
 10
53.4319
 20
52.3549
 11
53.3604
 21
52.1193
  0
LINE
  8
0
 10
53.3604
 20
52.1193
 11
53.2444
 21
51.9022
  0
LINE
  8
0
 10
53.2444
 20
51.9022
 11
53.0882
 21
51.7118
  0
LINE
  8
0
 10
53.0882
 20
51.7118
 11
52.8978
 21
51.5556
  0
LINE
  8
0
 10
52.8978
 20
51.5556
 11
52.6807
 21
51.4396
  0
LINE
  8
0
 10
52.6807
 20
51.4396
 11
52.445
 21
51.3681
  0
LINE
  8
0
 10
52.445
 20
51.3681
 11
52.2
 21
51.3439
  0
LINE
  8
0
 10
52.2
 20
51.3439
 11
51.955
 21
51.3681
  0
LINE
  8
0
 10
159.753
 20
42.8104
 11
159.51
 21
42.8518
  0
LINE
  8
0
 10
159.51
 20
42.8518
 11
159.272
 21
42.9202
  0
LINE
  8
0
 10
159.272
 20
42.9202
 11
159.044
 21
43.0147
  0
LINE
  8
0
 10
159.044
 20
43.0147
 11
158.828
 21
43.1343
  0
LINE
  8
0
 10
158.828
 20
43.1343
 11
158.626
 21
43.2773
  0
LINE
  8
0
 10
158.626
 20
43.2773
 11
158.442
 21
43.4419
  0
LINE
  8
0
 10
158.442
 20
43.4419
 11
158.277
 21
43.6262
  0
LINE
  8
0
 10
158.277
 20
43.6262
 11
158.134
 21
43.8277
  0
LINE
  8
0
 10
158.134
 20
43.8277
 11
158.015
 21
44.0439
  0
LINE
  8
0
 10
158.015
 20
44.0439
 11
157.92
 21
44.2722
  0
LINE
  8
0
 10
157.92
 20
44.2722
 11
157.852
 21
44.5097
  0
LINE
  8
0
 10
157.852
 20
44.5097
 11
157.81
 21
44.7533
  0
LINE
  8
0
 10
157.81
 20
44.7533
 11
157.797
 21
45
  0
LINE
  8
0
 10
157.797
 20
45
 11
157.81
 21
45.2467
  0
LINE
  8
0
 10
157.81
 20
45.2467
 11
157.852
 21
45.4903
  0
LINE
  8
0
 10
157.852
 20
45.4903
 11
157.92
 21
45.7278
  0
LINE
  8
0
 10
157.92
 20
45.7278
 11
158.015
 21
45.956
  0
LINE
  8
0
 10
158.015
 20
45.956
 11
158.134
 21
46.1723
  0
LINE
  8
0
 10
158.134
 20
46.1723
 11
158.277
 21
46.3738
  0
LINE
  8
0
 10
158.277
 20
46.3738
 11
158.442
 21
46.5581
  0
LINE
  8
0
 10
158.442
 20
46.5581
 11
158.626
 21
46.7227
  0
LINE
  8
0
 10
158.626
 20
46.7227
 11
158.828
 21
46.8657
  0
LINE
  8
0
 10
158.828
 20
46.8657
 11
159.044
 21
46.9852
  0
LINE
  8
0
 10
159.044
 20
46.9852
 11
159.272
 21
47.0798
  0
LINE
  8
0
 10
159.272
 20
47.0798
 11
159.51
 21
47.1482
  0
LINE
  8
0
 10
159.51
 20
47.1482
 11
159.753
 21
47.1896
  0
LINE
  8
0
 10
159.753
 20
47.1896
 11
160
 21
47.2035
  0
LINE
  8
0
 10
160
 20
47.2035
 11
160.247
 21
47.1896
  0
LINE
  8
0
 10
160.247
 20
47.1896
 11
160.49
 21
47.1482
  0
LINE
  8
0
 10
160.49
 20
47.1482
 11
160.728
 21
47.0798
  0
LINE
  8
0
 10
160.728
 20
47.0798
 11
160.956
 21
46.9852
  0
LINE
  8
0
 10
160.956
 20
46.9852
 11
161.172
 21
46.8657
  0
LINE
  8
0
 10
161.172
 20
46.8657
 11
161.374
 21
46.7227
  0
LINE
  8
0
 10
161.374
 20
46.7227
 11
161.558
 21
46.5581
  0
LINE
  8
0
 10
161.558
 20
46.5581
 11
161.723
 21
46.3738
  0
LINE
  8
0
 10
161.723
 20
46.3738
 11
161.866
 21
46.1723
  0
LINE
  8
0
 10
161.866
 20
46.1723
 11
161.985
 21
45.956
  0
LINE
  8
0
 10
161.985
 20
45.956
 11
162.08
 21
45.7278
  0
LINE
  8
0
 10
162.08
 20
45.7278
 11
162.148
 21
45.4903
  0
LINE
  8
0
 10
162.148
 20
45.4903
 11
162.19
 21
45.2467
  0
LINE
  8
0
 10
162.19
 20
45.2467
 11
162.203
 21
45
  0
LINE
  8
0
 10
162.203
 20
45
 11
162.19
 21
44.7533
  0
LINE
  8
0
 10
162.19
 20
44.7533
 11
162.148
 21
44.5097
  0
LINE
  8
0
 10
162.148
 20
44.5097
 11
162.08
 21
44.2722
  0
LINE
  8
0
 10
162.08
 20
44.2722
 11
161.985
 21
44.0439
  0
LINE
  8
0
 10
161.985
 20
44.0439
 11
161.866
 21
43.8277
  0
LINE
  8
0
 10
161.866
 20
43.8277
 11
161.723
 21
43.6262
  0
LINE
  8
0
 10
161.723
 20
43.6262
 11
161.558
 21
43.4419
  0
LINE
  8
0
 10
161.558
 20
43.4419
 11
161.374
 21
43.2773
  0
LINE
  8
0
 10
161.374
 20
43.2773
 11
161.172
 21
43.1343
  0
LINE
  8
0
 10
161.172
 20
43.1343
 11
160.956
 21
43.0147
  0
LINE
  8
0
 10
160.956
 20
43.0147
 11
160.728
 21
42.9202
  0
LINE
  8
0
 10
160.728
 20
42.9202
 11
160.49
 21
42.8518
  0
LINE
  8
0
 10
160.49
 20
42.8518
 11
160.247
 21
42.8104
  0
LINE
  8
0
 10
160.247
 20
42.8104
 11
160
 21
42.7965
  0
LINE
  8
0
 10
160
 20
42.7965
 11
159.753
 21
42.8104
  0
LINE
  8
0
 10
-160.247
 20
42.8104
 11
-160.49
 21
42.8518
  0
LINE
  8
0
 10
-160.49
 20
42.8518
 11
-160.728
 21
42.9202
  0
LINE
  8
0
 10
-160.728
 20
42.9202
 11
-160.956
 21
43.0147
  0
LINE
  8
0
 10
-160.956
 20
43.0147
 11
-161.172
 21
43.1343
  0
LINE
  8
0
 10
-161.172
 20
43.1343
 11
-161.374
 21
43.2773
  0
LINE
  8
0
 10
-161.374
 20
43.2773
 11
-161.558
 21
43.4419
  0
LINE
  8
0
 10
-161.558
 20
43.4419
 11
-161.723
 21
43.6262
  0
LINE
  8
0
 10
-161.723
 20
43.6262
 11
-161.866
 21
43.8277
  0
LINE
  8
0
 10
-161.866
 20
43.8277
 11
-161.985
 21
44.0439
  0
LINE
  8
0
 10
-161.985
 20
44.0439
 11
-162.08
 21
44.2722
  0
LINE
  8
0
 10
-162.08
 20
44.2722
 11
-162.148
 21
44.5097
  0
LINE
  8
0
 10
-162.148
 20
44.5097
 11
-162.19
 21
44.7533
  0
LINE
  8
0
 10
-162.19
 20
44.7533
 11
-162.203
 21
45
  0
LINE
  8
0
 10
-162.203
 20
45
 11
-162.19
 21
45.2467
  0
LINE
  8
0
 10
-162.19
 20
45.2467
 11
-162.148
 21
45.4903
  0
LINE
  8
0
 10
-162.148
 20
45.4903
 11
-162.08
 21
45.7278
  0
LINE
  8
0
 10
-162.08
 20
45.7278
 11
-161.985
 21
45.956
  0
LINE
  8
0
 10
-161.985
 20
45.956
 11
-161.866
 21
46.1723
  0
LINE
  8
0
 10
-161.866
 20
46.1723
 11
-161.723
 21
46.3738
  0
LINE
  8
0
 10
-161.723
 20
46.3738
 11
-161.558
 21
46.5581
  0
LINE
  8
0
 10
-161.558
 20
46.5581
 11
-161.374
 21
46.7227
  0
LINE
  8
0
 10
-161.374
 20
46.7227
 11
-161.172
 21
46.8657
  0
LINE
  8
0
 10
-161.172
 20
46.8657
 11
-160.956
 21
46.9852
  0
LINE
  8
0
 10
-160.956
 20
46.9852
 11
-160.728
 21
47.0798
  0
LINE
  8
0
 10
-160.728
 20
47.0798
 11
-160.49
 21
47.1482
  0
LINE
  8
0
 10
-160.49
 20
47.1482
 11
-160.247
 21
47.1896
  0
LINE
  8
0
 10
-160.247
 20
47.1896
 11
-160
 21
47.2035
  0
LINE
  8
0
 10
-160
 20
47.2035
 11
-159.753
 21
47.1896
  0
LINE
  8
0
 10
-159.753
 20
47.1896
 11
-159.51
 21
47.1482
  0
LINE
  8
0
 10
-159.51
 20
47.1482
 11
-159.272
 21
47.0798
  0
LINE
  8
0
 10
-159.272
 20
47.0798
 11
-159.044
 21
46.9852
  0
LINE
  8
0
 10
-159.044
 20
46.9852
 11
-158.828
 21
46.8657
  0
LINE
  8
0
 10
-158.828
 20
46.8657
 11
-158.626
 21
46.7227
  0
LINE
  8
0
 10
-158.626
 20
46.7227
 11
-158.442
 21
46.5581
  0
LINE
  8
0
 10
-158.442
 20
46.5581
 11
-158.277
 21
46.3738
  0
LINE
  8
0
 10
-158.277
 20
46.3738
 11
-158.134
 21
46.1723
  0
LINE
  8
0
 10
-158.134
 20
46.1723
 11
-158.015
 21
45.956
  0
LINE
  8
0
 10
-158.015
 20
45.956
 11
-157.92
 21
45.7278
  0
LINE
  8
0
 10
-157.92
 20
45.7278
 11
-157.852
 21
45.4903
  0
LINE
  8
0
 10
-157.852
 20
45.4903
 11
-157.81
 21
45.2467
  0
LINE
  8
0
 10
-157.81
 20
45.2467
 11
-157.797
 21
45
  0
LINE
  8
0
 10
-157.797
 20
45
 11
-157.81
 21
44.7533
  0
LINE
  8
0
 10
-157.81
 20
44.7533
 11
-157.852
 21
44.5097
  0
LINE
  8
0
 10
-157.852
 20
44.5097
 11
-157.92
 21
44.2722
  0
LINE
  8
0
 10
-157.92
 20
44.2722
 11
-158.015
 21
44.0439
  0
LINE
  8
0
 10
-158.015
 20
44.0439
 11
-158.134
 21
43.8277
  0
LINE
  8
0
 10
-158.134
 20
43.8277
 11
-158.277
 21
43.6262
  0
LINE
  8
0
 10
-158.277
 20
43.6262
 11
-158.442
 21
43.4419
  0
LINE
  8
0
 10
-158.442
 20
43.4419
 11
-158.626
 21
43.2773
  0
LINE
  8
0
 10
-158.626
 20
43.2773
 11
-158.828
 21
43.1343
  0
LINE
  8
0
 10
-158.828
 20
43.1343
 11
-159.044
 21
43.0147
  0
LINE
  8
0
 10
-159.044
 20
43.0147
 11
-159.272
 21
42.9202
  0
LINE
  8
0
 10
-159.272
 20
42.9202
 11
-159.51
 21
42.8518
  0
LINE
  8
0
 10
-159.51
 20
42.8518
 11
-159.753
 21
42.8104
  0
LINE
  8
0
 10
-159.753
 20
42.8104
 11
-160
 21
42.7965
  0
LINE
  8
0
 10
-160
 20
42.7965
 11
-160.247
 21
42.8104
  0
LINE
  8
0
 10
82.9794
 20
37.7
 11
82.749
 21
37.7711
  0
LINE
  8
0
 10
82.749
 20
37.7711
 11
82.5497
 21
37.9069
  0
LINE
  8
0
 10
82.5497
 20
37.9069
 11
82.3993
 21
38.0955
  0
LINE
  8
0
 10
82.3993
 20
38.0955
 11
82.3112
 21
38.3199
  0
LINE
  8
0
 10
82.3112
 20
38.3199
 11
82.2932
 21
38.5604
  0
LINE
  8
0
 10
82.2932
 20
38.5604
 11
82.3469
 21
38.7955
  0
LINE
  8
0
 10
82.3469
 20
38.7955
 11
82.4675
 21
39.0044
  0
LINE
  8
0
 10
82.4675
 20
39.0044
 11
82.6442
 21
39.1684
  0
LINE
  8
0
 10
82.6442
 20
39.1684
 11
82.8615
 21
39.2731
  0
LINE
  8
0
 10
82.8615
 20
39.2731
 11
83.1
 21
39.309
  0
LINE
  8
0
 10
83.1
 20
39.309
 11
83.3385
 21
39.2731
  0
LINE
  8
0
 10
83.3385
 20
39.2731
 11
83.5557
 21
39.1684
  0
LINE
  8
0
 10
83.5557
 20
39.1684
 11
83.7325
 21
39.0044
  0
LINE
  8
0
 10
83.7325
 20
39.0044
 11
83.8531
 21
38.7955
  0
LINE
  8
0
 10
83.8531
 20
38.7955
 11
83.9068
 21
38.5604
  0
LINE
  8
0
 10
83.9068
 20
38.5604
 11
83.8887
 21
38.3199
  0
LINE
  8
0
 10
83.8887
 20
38.3199
 11
83.8006
 21
38.0955
  0
LINE
  8
0
 10
83.8006
 20
38.0955
 11
83.6503
 21
37.9069
  0
LINE
  8
0
 10
83.6503
 20
37.9069
 11
83.451
 21
37.7711
  0
LINE
  8
0
 10
83.451
 20
37.7711
 11
83.2206
 21
37.7
  0
LINE
  8
0
 10
83.2206
 20
37.7
 11
82.9794
 21
37.7
  0
LINE
  8
0
 10
60.4794
 20
37.7
 11
60.249
 21
37.7711
  0
LINE
  8
0
 10
60.249
 20
37.7711
 11
60.0497
 21
37.9069
  0
LINE
  8
0
 10
60.0497
 20
37.9069
 11
59.8994
 21
38.0955
  0
LINE
  8
0
 10
59.8994
 20
38.0955
 11
59.8112
 21
38.3199
  0
LINE
  8
0
 10
59.8112
 20
38.3199
 11
59.7932
 21
38.5604
  0
LINE
  8
0
 10
59.7932
 20
38.5604
 11
59.8469
 21
38.7955
  0
LINE
  8
0
 10
59.8469
 20
38.7955
 11
59.9675
 21
39.0044
  0
LINE
  8
0
 10
59.9675
 20
39.0044
 11
60.1443
 21
39.1684
  0
LINE
  8
0
 10
60.1443
 20
39.1684
 11
60.3615
 21
39.2731
  0
LINE
  8
0
 10
60.3615
 20
39.2731
 11
60.6
 21
39.309
  0
LINE
  8
0
 10
60.6
 20
39.309
 11
60.8385
 21
39.2731
  0
LINE
  8
0
 10
60.8385
 20
39.2731
 11
61.0557
 21
39.1684
  0
LINE
  8
0
 10
61.0557
 20
39.1684
 11
61.2325
 21
39.0044
  0
LINE
  8
0
 10
61.2325
 20
39.0044
 11
61.3531
 21
38.7955
  0
LINE
  8
0
 10
61.3531
 20
38.7955
 11
61.4068
 21
38.5604
  0
LINE
  8
0
 10
61.4068
 20
38.5604
 11
61.3887
 21
38.3199
  0
LINE
  8
0
 10
61.3887
 20
38.3199
 11
61.3006
 21
38.0955
  0
LINE
  8
0
 10
61.3006
 20
38.0955
 11
61.1503
 21
37.9069
  0
LINE
  8
0
 10
61.1503
 20
37.9069
 11
60.951
 21
37.7711
  0
LINE
  8
0
 10
60.951
 20
37.7711
 11
60.7206
 21
37.7
  0
LINE
  8
0
 10
60.7206
 20
37.7
 11
60.4794
 21
37.7
  0
LINE
  8
0
 10
92.255
 20
-2.7319
 11
92.0193
 21
-2.66043
  0
LINE
  8
0
 10
92.0193
 20
-2.66043
 11
91.8022
 21
-2.54436
  0
LINE
  8
0
 10
91.8022
 20
-2.54436
 11
91.6118
 21
-2.38815
  0
LINE
  8
0
 10
91.6118
 20
-2.38815
 11
91.4556
 21
-2.19781
  0
LINE
  8
0
 10
91.4556
 20
-2.19781
 11
91.3396
 21
-1.98067
  0
LINE
  8
0
 10
91.3396
 20
-1.98067
 11
91.2681
 21
-1.74504
  0
LINE
  8
0
 10
91.2681
 20
-1.74504
 11
91.244
 21
-1.5
  0
LINE
  8
0
 10
91.244
 20
-1.5
 11
91.2681
 21
-1.25494
  0
LINE
  8
0
 10
91.2681
 20
-1.25494
 11
91.3396
 21
-1.01932
  0
LINE
  8
0
 10
91.3396
 20
-1.01932
 11
91.4556
 21
-0.80217
  0
LINE
  8
0
 10
91.4556
 20
-0.80217
 11
91.6118
 21
-0.611832
  0
LINE
  8
0
 10
91.6118
 20
-0.611832
 11
91.8022
 21
-0.455627
  0
LINE
  8
0
 10
91.8022
 20
-0.455627
 11
92.0193
 21
-0.339554
  0
LINE
  8
0
 10
92.0193
 20
-0.339554
 11
92.255
 21
-0.268082
  0
LINE
  8
0
 10
92.255
 20
-0.268082
 11
92.5
 21
-0.243942
  0
LINE
  8
0
 10
92.5
 20
-0.243942
 11
92.7451
 21
-0.268082
  0
LINE
  8
0
 10
92.7451
 20
-0.268082
 11
92.9807
 21
-0.339554
  0
LINE
  8
0
 10
92.9807
 20
-0.339554
 11
93.1978
 21
-0.455627
  0
LINE
  8
0
 10
93.1978
 20
-0.455627
 11
93.3882
 21
-0.611832
  0
LINE
  8
0
 10
93.3882
 20
-0.611832
 11
93.5444
 21
-0.80217
  0
LINE
  8
0
 10
93.5444
 20
-0.80217
 11
93.6604
 21
-1.01932
  0
LINE
  8
0
 10
93.6604
 20
-1.01932
 11
93.7319
 21
-1.25494
  0
LINE
  8
0
 10
93.7319
 20
-1.25494
 11
93.7561
 21
-1.5
  0
LINE
  8
0
 10
93.7561
 20
-1.5
 11
93.7319
 21
-1.74504
  0
LINE
  8
0
 10
93.7319
 20
-1.74504
 11
93.6604
 21
-1.98067
  0
LINE
  8
0
 10
93.6604
 20
-1.98067
 11
93.5444
 21
-2.19781
  0
LINE
  8
0
 10
93.5444
 20
-2.19781
 11
93.3882
 21
-2.38815
  0
LINE
  8
0
 10
93.3882
 20
-2.38815
 11
93.1978
 21
-2.54436
  0
LINE
  8
0
 10
93.1978
 20
-2.54436
 11
92.9807
 21
-2.66043
  0
LINE
  8
0
 10
92.9807
 20
-2.66043
 11
92.7451
 21
-2.7319
  0
LINE
  8
0
 10
92.7451
 20
-2.7319
 11
92.5
 21
-2.75604
  0
LINE
  8
0
 10
92.5
 20
-2.75604
 11
92.255
 21
-2.7319
  0
LINE
  8
0
 10
141.255
 20
-2.7319
 11
141.019
 21
-2.66043
  0
LINE
  8
0
 10
141.019
 20
-2.66043
 11
140.802
 21
-2.54436
  0
LINE
  8
0
 10
140.802
 20
-2.54436
 11
140.612
 21
-2.38815
  0
LINE
  8
0
 10
140.612
 20
-2.38815
 11
140.456
 21
-2.19781
  0
LINE
  8
0
 10
140.456
 20
-2.19781
 11
140.34
 21
-1.98067
  0
LINE
  8
0
 10
140.34
 20
-1.98067
 11
140.268
 21
-1.74504
  0
LINE
  8
0
 10
140.268
 20
-1.74504
 11
140.244
 21
-1.5
  0
LINE
  8
0
 10
140.244
 20
-1.5
 11
140.268
 21
-1.25494
  0
LINE
  8
0
 10
140.268
 20
-1.25494
 11
140.34
 21
-1.01932
  0
LINE
  8
0
 10
140.34
 20
-1.01932
 11
140.456
 21
-0.80217
  0
LINE
  8
0
 10
140.456
 20
-0.80217
 11
140.612
 21
-0.611832
  0
LINE
  8
0
 10
140.612
 20
-0.611832
 11
140.802
 21
-0.455627
  0
LINE
  8
0
 10
140.802
 20
-0.455627
 11
141.019
 21
-0.339554
  0
LINE
  8
0
 10
141.019
 20
-0.339554
 11
141.255
 21
-0.268082
  0
LINE
  8
0
 10
141.255
 20
-0.268082
 11
141.5
 21
-0.243942
  0
LINE
  8
0
 10
141.5
 20
-0.243942
 11
141.745
 21
-0.268082
  0
LINE
  8
0
 10
141.745
 20
-0.268082
 11
141.981
 21
-0.339554
  0
LINE
  8
0
 10
141.981
 20
-0.339554
 11
142.198
 21
-0.455627
  0
LINE
  8
0
 10
142.198
 20
-0.455627
 11
142.388
 21
-0.611832
  0
LINE
  8
0
 10
142.388
 20
-0.611832
 11
142.544
 21
-0.80217
  0
LINE
  8
0
 10
142.544
 20
-0.80217
 11
142.66
 21
-1.01932
  0
LINE
  8
0
 10
142.66
 20
-1.01932
 11
142.732
 21
-1.25494
  0
LINE
  8
0
 10
142.732
 20
-1.25494
 11
142.756
 21
-1.5
  0
LINE
  8
0
 10
142.756
 20
-1.5
 11
142.732
 21
-1.74504
  0
LINE
  8
0
 10
142.732
 20
-1.74504
 11
142.66
 21
-1.98067
  0
LINE
  8
0
 10
142.66
 20
-1.98067
 11
142.544
 21
-2.19781
  0
LINE
  8
0
 10
142.544
 20
-2.19781
 11
142.388
 21
-2.38815
  0
LINE
  8
0
 10
142.388
 20
-2.38815
 11
142.198
 21
-2.54436
  0
LINE
  8
0
 10
142.198
 20
-2.54436
 11
141.981
 21
-2.66043
  0
LINE
  8
0
 10
141.981
 20
-2.66043
 11
141.745
 21
-2.7319
  0
LINE
  8
0
 10
141.745
 20
-2.7319
 11
141.5
 21
-2.75604
  0
LINE
  8
0
 10
141.5
 20
-2.75604
 11
141.255
 21
-2.7319
  0
LINE
  8
0
 10
60.4794
 20
-10.2
 11
60.249
 21
-10.1289
  0
LINE
  8
0
 10
60.249
 20
-10.1289
 11
60.0497
 21
-9.99307
  0
LINE
  8
0
 10
60.0497
 20
-9.99307
 11
59.8994
 21
-9.80452
  0
LINE
  8
0
 10
59.8994
 20
-9.80452
 11
59.8112
 21
-9.58003
  0
LINE
  8
0
 10
59.8112
 20
-9.58003
 11
59.7932
 21
-9.33954
  0
LINE
  8
0
 10
59.7932
 20
-9.33954
 11
59.8469
 21
-9.10443
  0
LINE
  8
0
 10
59.8469
 20
-9.10443
 11
59.9675
 21
-8.89558
  0
LINE
  8
0
 10
59.9675
 20
-8.89558
 11
60.1443
 21
-8.73155
  0
LINE
  8
0
 10
60.1443
 20
-8.73155
 11
60.3615
 21
-8.62691
  0
LINE
  8
0
 10
60.3615
 20
-8.62691
 11
60.6
 21
-8.59097
  0
LINE
  8
0
 10
60.6
 20
-8.59097
 11
60.8385
 21
-8.62691
  0
LINE
  8
0
 10
60.8385
 20
-8.62691
 11
61.0557
 21
-8.73155
  0
LINE
  8
0
 10
61.0557
 20
-8.73155
 11
61.2325
 21
-8.89558
  0
LINE
  8
0
 10
61.2325
 20
-8.89558
 11
61.3531
 21
-9.10443
  0
LINE
  8
0
 10
61.3531
 20
-9.10443
 11
61.4068
 21
-9.33954
  0
LINE
  8
0
 10
61.4068
 20
-9.33954
 11
61.3887
 21
-9.58003
  0
LINE
  8
0
 10
61.3887
 20
-9.58003
 11
61.3006
 21
-9.80452
  0
LINE
  8
0
 10
61.3006
 20
-9.80452
 11
61.1503
 21
-9.99307
  0
LINE
  8
0
 10
61.1503
 20
-9.99307
 11
60.951
 21
-10.1289
  0
LINE
  8
0
 10
60.951
 20
-10.1289
 11
60.7206
 21
-10.2
  0
LINE
  8
0
 10
60.7206
 20
-10.2
 11
60.4794
 21
-10.2
  0
LINE
  8
0
 10
82.9794
 20
-10.2
 11
82.749
 21
-10.1289
  0
LINE
  8
0
 10
82.749
 20
-10.1289
 11
82.5497
 21
-9.99307
  0
LINE
  8
0
 10
82.5497
 20
-9.99307
 11
82.3993
 21
-9.80452
  0
LINE
  8
0
 10
82.3993
 20
-9.80452
 11
82.3112
 21
-9.58003
  0
LINE
  8
0
 10
82.3112
 20
-9.58003
 11
82.2932
 21
-9.33954
  0
LINE
  8
0
 10
82.2932
 20
-9.33954
 11
82.3469
 21
-9.10443
  0
LINE
  8
0
 10
82.3469
 20
-9.10443
 11
82.4675
 21
-8.89558
  0
LINE
  8
0
 10
82.4675
 20
-8.89558
 11
82.6442
 21
-8.73155
  0
LINE
  8
0
 10
82.6442
 20
-8.73155
 11
82.8615
 21
-8.62691
  0
LINE
  8
0
 10
82.8615
 20
-8.62691
 11
83.1
 21
-8.59097
  0
LINE
  8
0
 10
83.1
 20
-8.59097
 11
83.3385
 21
-8.62691
  0
LINE
  8
0
 10
83.3385
 20
-8.62691
 11
83.5557
 21
-8.73155
  0
LINE
  8
0
 10
83.5557
 20
-8.73155
 11
83.7325
 21
-8.89558
  0
LINE
  8
0
 10
83.7325
 20
-8.89558
 11
83.8531
 21
-9.10443
  0
LINE
  8
0
 10
83.8531
 20
-9.10443
 11
83.9068
 21
-9.33954
  0
LINE
  8
0
 10
83.9068
 20
-9.33954
 11
83.8887
 21
-9.58003
  0
LINE
  8
0
 10
83.8887
 20
-9.58003
 11
83.8006
 21
-9.80452
  0
LINE
  8
0
 10
83.8006
 20
-9.80452
 11
83.6503
 21
-9.99307
  0
LINE
  8
0
 10
83.6503
 20
-9.99307
 11
83.451
 21
-10.1289
  0
LINE
  8
0
 10
83.451
 20
-10.1289
 11
83.2206
 21
-10.2
  0
LINE
  8
0
 10
83.2206
 20
-10.2
 11
82.9794
 21
-10.2
  0
LINE
  8
0
 10
82.7534
 20
-25.6362
 11
82.5123
 21
-25.5811
  0
LINE
  8
0
 10
82.5123
 20
-25.5811
 11
82.2821
 21
-25.4908
  0
LINE
  8
0
 10
82.2821
 20
-25.4908
 11
82.0679
 21
-25.3671
  0
LINE
  8
0
 10
82.0679
 20
-25.3671
 11
81.8746
 21
-25.2129
  0
LINE
  8
0
 10
81.8746
 20
-25.2129
 11
81.7064
 21
-25.0316
  0
LINE
  8
0
 10
81.7064
 20
-25.0316
 11
81.5671
 21
-24.8273
  0
LINE
  8
0
 10
81.5671
 20
-24.8273
 11
81.4598
 21
-24.6045
  0
LINE
  8
0
 10
81.4598
 20
-24.6045
 11
81.3869
 21
-24.3682
  0
LINE
  8
0
 10
81.3869
 20
-24.3682
 11
81.35
 21
-24.1237
  0
LINE
  8
0
 10
81.35
 20
-24.1237
 11
81.35
 21
-23.8764
  0
LINE
  8
0
 10
81.35
 20
-23.8764
 11
81.3869
 21
-23.6318
  0
LINE
  8
0
 10
81.3869
 20
-23.6318
 11
81.4598
 21
-23.3955
  0
LINE
  8
0
 10
81.4598
 20
-23.3955
 11
81.5671
 21
-23.1727
  0
LINE
  8
0
 10
81.5671
 20
-23.1727
 11
81.7064
 21
-22.9684
  0
LINE
  8
0
 10
81.7064
 20
-22.9684
 11
81.8746
 21
-22.7871
  0
LINE
  8
0
 10
81.8746
 20
-22.7871
 11
82.0679
 21
-22.6329
  0
LINE
  8
0
 10
82.0679
 20
-22.6329
 11
82.2821
 21
-22.5092
  0
LINE
  8
0
 10
82.2821
 20
-22.5092
 11
82.5123
 21
-22.4189
  0
LINE
  8
0
 10
82.5123
 20
-22.4189
 11
82.7534
 21
-22.3639
  0
LINE
  8
0
 10
82.7534
 20
-22.3639
 11
83
 21
-22.3454
  0
LINE
  8
0
 10
83
 20
-22.3454
 11
83.2466
 21
-22.3639
  0
LINE
  8
0
 10
83.2466
 20
-22.3639
 11
83.4877
 21
-22.4189
  0
LINE
  8
0
 10
83.4877
 20
-22.4189
 11
83.7179
 21
-22.5092
  0
LINE
  8
0
 10
83.7179
 20
-22.5092
 11
83.9321
 21
-22.6329
  0
LINE
  8
0
 10
83.9321
 20
-22.6329
 11
84.1254
 21
-22.7871
  0
LINE
  8
0
 10
84.1254
 20
-22.7871
 11
84.2936
 21
-22.9684
  0
LINE
  8
0
 10
84.2936
 20
-22.9684
 11
84.433
 21
-23.1727
  0
LINE
  8
0
 10
84.433
 20
-23.1727
 11
84.5403
 21
-23.3955
  0
LINE
  8
0
 10
84.5403
 20
-23.3955
 11
84.6131
 21
-23.6318
  0
LINE
  8
0
 10
84.6131
 20
-23.6318
 11
84.65
 21
-23.8764
  0
LINE
  8
0
 10
84.65
 20
-23.8764
 11
84.65
 21
-24.1237
  0
LINE
  8
0
 10
84.65
 20
-24.1237
 11
84.6131
 21
-24.3682
  0
LINE
  8
0
 10
84.6131
 20
-24.3682
 11
84.5403
 21
-24.6045
  0
LINE
  8
0
 10
84.5403
 20
-24.6045
 11
84.433
 21
-24.8273
  0
LINE
  8
0
 10
84.433
 20
-24.8273
 11
84.2936
 21
-25.0316
  0
LINE
  8
0
 10
84.2936
 20
-25.0316
 11
84.1254
 21
-25.2129
  0
LINE
  8
0
 10
84.1254
 20
-25.2129
 11
83.9321
 21
-25.3671
  0
LINE
  8
0
 10
83.9321
 20
-25.3671
 11
83.7179
 21
-25.4908
  0
LINE
  8
0
 10
83.7179
 20
-25.4908
 11
83.4877
 21
-25.5811
  0
LINE
  8
0
 10
83.4877
 20
-25.5811
 11
83.2466
 21
-25.6362
  0
LINE
  8
0
 10
83.2466
 20
-25.6362
 11
83
 21
-25.6546
  0
LINE
  8
0
 10
83
 20
-25.6546
 11
82.7534
 21
-25.6362
  0
LINE
  8
0
 10
159.753
 20
-47.1896
 11
159.51
 21
-47.1482
  0
LINE
  8
0
 10
159.51
 20
-47.1482
 11
159.272
 21
-47.0798
  0
LINE
  8
0
 10
159.272
 20
-47.0798
 11
159.044
 21
-46.9853
  0
LINE
  8
0
 10
159.044
 20
-46.9853
 11
158.828
 21
-46.8657
  0
LINE
  8
0
 10
158.828
 20
-46.8657
 11
158.626
 21
-46.7227
  0
LINE
  8
0
 10
158.626
 20
-46.7227
 11
158.442
 21
-46.5581
  0
LINE
  8
0
 10
158.442
 20
-46.5581
 11
158.277
 21
-46.3738
  0
LINE
  8
0
 10
158.277
 20
-46.3738
 11
158.134
 21
-46.1723
  0
LINE
  8
0
 10
158.134
 20
-46.1723
 11
158.015
 21
-45.9561
  0
LINE
  8
0
 10
158.015
 20
-45.9561
 11
157.92
 21
-45.7278
  0
LINE
  8
0
 10
157.92
 20
-45.7278
 11
157.852
 21
-45.4903
  0
LINE
  8
0
 10
157.852
 20
-45.4903
 11
157.81
 21
-45.2467
  0
LINE
  8
0
 10
157.81
 20
-45.2467
 11
157.797
 21
-45
  0
LINE
  8
0
 10
157.797
 20
-45
 11
157.81
 21
-44.7533
  0
LINE
  8
0
 10
157.81
 20
-44.7533
 11
157.852
 21
-44.5097
  0
LINE
  8
0
 10
157.852
 20
-44.5097
 11
157.92
 21
-44.2722
  0
LINE
  8
0
 10
157.92
 20
-44.2722
 11
158.015
 21
-44.044
  0
LINE
  8
0
 10
158.015
 20
-44.044
 11
158.134
 21
-43.8277
  0
LINE
  8
0
 10
158.134
 20
-43.8277
 11
158.277
 21
-43.6262
  0
LINE
  8
0
 10
158.277
 20
-43.6262
 11
158.442
 21
-43.4419
  0
LINE
  8
0
 10
158.442
 20
-43.4419
 11
158.626
 21
-43.2773
  0
LINE
  8
0
 10
158.626
 20
-43.2773
 11
158.828
 21
-43.1343
  0
LINE
  8
0
 10
158.828
 20
-43.1343
 11
159.044
 21
-43.0148
  0
LINE
  8
0
 10
159.044
 20
-43.0148
 11
159.272
 21
-42.9202
  0
LINE
  8
0
 10
159.272
 20
-42.9202
 11
159.51
 21
-42.8518
  0
LINE
  8
0
 10
159.51
 20
-42.8518
 11
159.753
 21
-42.8104
  0
LINE
  8
0
 10
159.753
 20
-42.8104
 11
160
 21
-42.7965
  0
LINE
  8
0
 10
160
 20
-42.7965
 11
160.247
 21
-42.8104
  0
LINE
  8
0
 10
160.247
 20
-42.8104
 11
160.49
 21
-42.8518
  0
LINE
  8
0
 10
160.49
 20
-42.8518
 11
160.728
 21
-42.9202
  0
LINE
  8
0
 10
160.728
 20
-42.9202
 11
160.956
 21
-43.0148
  0
LINE
  8
0
 10
160.956
 20
-43.0148
 11
161.172
 21
-43.1343
  0
LINE
  8
0
 10
161.172
 20
-43.1343
 11
161.374
 21
-43.2773
  0
LINE
  8
0
 10
161.374
 20
-43.2773
 11
161.558
 21
-43.4419
  0
LINE
  8
0
 10
161.558
 20
-43.4419
 11
161.723
 21
-43.6262
  0
LINE
  8
0
 10
161.723
 20
-43.6262
 11
161.866
 21
-43.8277
  0
LINE
  8
0
 10
161.866
 20
-43.8277
 11
161.985
 21
-44.044
  0
LINE
  8
0
 10
161.985
 20
-44.044
 11
162.08
 21
-44.2722
  0
LINE
  8
0
 10
162.08
 20
-44.2722
 11
162.148
 21
-44.5097
  0
LINE
  8
0
 10
162.148
 20
-44.5097
 11
162.19
 21
-44.7533
  0
LINE
  8
0
 10
162.19
 20
-44.7533
 11
162.203
 21
-45
  0
LINE
  8
0
 10
162.203
 20
-45
 11
162.19
 21
-45.2467
  0
LINE
  8
0
 10
162.19
 20
-45.2467
 11
162.148
 21
-45.4903
  0
LINE
  8
0
 10
162.148
 20
-45.4903
 11
162.08
 21
-45.7278
  0
LINE
  8
0
 10
162.08
 20
-45.7278
 11
161.985
 21
-45.9561
  0
LINE
  8
0
 10
161.985
 20
-45.9561
 11
161.866
 21
-46.1723
  0
LINE
  8
0
 10
161.866
 20
-46.1723
 11
161.723
 21
-46.3738
  0
LINE
  8
0
 10
161.723
 20
-46.3738
 11
161.558
 21
-46.5581
  0
LINE
  8
0
 10
161.558
 20
-46.5581
 11
161.374
 21
-46.7227
  0
LINE
  8
0
 10
161.374
 20
-46.7227
 11
161.172
 21
-46.8657
  0
LINE
  8
0
 10
161.172
 20
-46.8657
 11
160.956
 21
-46.9853
  0
LINE
  8
0
 10
160.956
 20
-46.9853
 11
160.728
 21
-47.0798
  0
LINE
  8
0
 10
160.728
 20
-47.0798
 11
160.49
 21
-47.1482
  0
LINE
  8
0
 10
160.49
 20
-47.1482
 11
160.247
 21
-47.1896
  0
LINE
  8
0
 10
160.247
 20
-47.1896
 11
160
 21
-47.2035
  0
LINE
  8
0
 10
160
 20
-47.2035
 11
159.753
 21
-47.1896
  0
LINE
  8
0
 10
-160.247
 20
-47.1896
 11
-160.49
 21
-47.1482
  0
LINE
  8
0
 10
-160.49
 20
-47.1482
 11
-160.728
 21
-47.0798
  0
LINE
  8
0
 10
-160.728
 20
-47.0798
 11
-160.956
 21
-46.9853
  0
LINE
  8
0
 10
-160.956
 20
-46.9853
 11
-161.172
 21
-46.8657
  0
LINE
  8
0
 10
-161.172
 20
-46.8657
 11
-161.374
 21
-46.7227
  0
LINE
  8
0
 10
-161.374
 20
-46.7227
 11
-161.558
 21
-46.5581
  0
LINE
  8
0
 10
-161.558
 20
-46.5581
 11
-161.723
 21
-46.3738
  0
LINE
  8
0
 10
-161.723
 20
-46.3738
 11
-161.866
 21
-46.1723
  0
LINE
  8
0
 10
-161.866
 20
-46.1723
 11
-161.985
 21
-45.9561
  0
LINE
  8
0
 10
-161.985
 20
-45.9561
 11
-162.08
 21
-45.7278
  0
LINE
  8
0
 10
-162.08
 20
-45.7278
 11
-162.148
 21
-45.4903
  0
LINE
  8
0
 10
-162.148
 20
-45.4903
 11
-162.19
 21
-45.2467
  0
LINE
  8
0
 10
-162.19
 20
-45.2467
 11
-162.203
 21
-45
  0
LINE
  8
0
 10
-162.203
 20
-45
 11
-162.19
 21
-44.7533
  0
LINE
  8
0
 10
-162.19
 20
-44.7533
 11
-162.148
 21
-44.5097
  0
LINE
  8
0
 10
-162.148
 20
-44.5097
 11
-162.08
 21
-44.2722
  0
LINE
  8
0
 10
-162.08
 20
-44.2722
 11
-161.985
 21
-44.044
  0
LINE
  8
0
 10
-161.985
 20
-44.044
 11
-161.866
 21
-43.8277
  0
LINE
  8
0
 10
-161.866
 20
-43.8277
 11
-161.723
 21
-43.6262
  0
LINE
  8
0
 10
-161.723
 20
-43.6262
 11
-161.558
 21
-43.4419
  0
LINE
  8
0
 10
-161.558
 20
-43.4419
 11
-161.374
 21
-43.2773
  0
LINE
  8
0
 10
-161.374
 20
-43.2773
 11
-161.172
 21
-43.1343
  0
LINE
  8
0
 10
-161.172
 20
-43.1343
 11
-160.956
 21
-43.0148
  0
LINE
  8
0
 10
-160.956
 20
-43.0148
 11
-160.728
 21
-42.9202
  0
LINE
  8
0
 10
-160.728
 20
-42.9202
 11
-160.49
 21
-42.8518
  0
LINE
  8
0
 10
-160.49
 20
-42.8518
 11
-160.247
 21
-42.8104
  0
LINE
  8
0
 10
-160.247
 20
-42.8104
 11
-160
 21
-42.7965
  0
LINE
  8
0
 10
-160
 20
-42.7965
 11
-159.753
 21
-42.8104
  0
LINE
  8
0
 10
-159.753
 20
-42.8104
 11
-159.51
 21
-42.8518
  0
LINE
  8
0
 10
-159.51
 20
-42.8518
 11
-159.272
 21
-42.9202
  0
LINE
  8
0
 10
-159.272
 20
-42.9202
 11
-159.044
 21
-43.0148
  0
LINE
  8
0
 10
-159.044
 20
-43.0148
 11
-158.828
 21
-43.1343
  0
LINE
  8
0
 10
-158.828
 20
-43.1343
 11
-158.626
 21
-43.2773
  0
LINE
  8
0
 10
-158.626
 20
-43.2773
 11
-158.442
 21
-43.4419
  0
LINE
  8
0
 10
-158.442
 20
-43.4419
 11
-158.277
 21
-43.6262
  0
LINE
  8
0
 10
-158.277
 20
-43.6262
 11
-158.134
 21
-43.8277
  0
LINE
  8
0
 10
-158.134
 20
-43.8277
 11
-158.015
 21
-44.044
  0
LINE
  8
0
 10
-158.015
 20
-44.044
 11
-157.92
 21
-44.2722
  0
LINE
  8
0
 10
-157.92
 20
-44.2722
 11
-157.852
 21
-44.5097
  0
LINE
  8
0
 10
-157.852
 20
-44.5097
 11
-157.81
 21
-44.7533
  0
LINE
  8
0
 10
-157.81
 20
-44.7533
 11
-157.797
 21
-45
  0
LINE
  8
0
 10
-157.797
 20
-45
 11
-157.81
 21
-45.2467
  0
LINE
  8
0
 10
-157.81
 20
-45.2467
 11
-157.852
 21
-45.4903
  0
LINE
  8
0
 10
-157.852
 20
-45.4903
 11
-157.92
 21
-45.7278
  0
LINE
  8
0
 10
-157.92
 20
-45.7278
 11
-158.015
 21
-45.9561
  0
LINE
  8
0
 10
-158.015
 20
-45.9561
 11
-158.134
 21
-46.1723
  0
LINE
  8
0
 10
-158.134
 20
-46.1723
 11
-158.277
 21
-46.3738
  0
LINE
  8
0
 10
-158.277
 20
-46.3738
 11
-158.442
 21
-46.5581
  0
LINE
  8
0
 10
-158.442
 20
-46.5581
 11
-158.626
 21
-46.7227
  0
LINE
  8
0
 10
-158.626
 20
-46.7227
 11
-158.828
 21
-46.8657
  0
LINE
  8
0
 10
-158.828
 20
-46.8657
 11
-159.044
 21
-46.9853
  0
LINE
  8
0
 10
-159.044
 20
-46.9853
 11
-159.272
 21
-47.0798
  0
LINE
  8
0
 10
-159.272
 20
-47.0798
 11
-159.51
 21
-47.1482
  0
LINE
  8
0
 10
-159.51
 20
-47.1482
 11
-159.753
 21
-47.1896
  0
LINE
  8
0
 10
-159.753
 20
-47.1896
 11
-160
 21
-47.2035
  0
LINE
  8
0
 10
-160
 20
-47.2035
 11
-160.247
 21
-47.1896
  0
LINE
  8
0
 10
-7.7467
 20
-106.19
 11
-7.99031
 21
-106.148
  0
LINE
  8
0
 10
-7.99031
 20
-106.148
 11
-8.22775
 21
-106.08
  0
LINE
  8
0
 10
-8.22775
 20
-106.08
 11
-8.45604
 21
-105.985
  0
LINE
  8
0
 10
-8.45604
 20
-105.985
 11
-8.6723
 21
-105.866
  0
LINE
  8
0
 10
-8.6723
 20
-105.866
 11
-8.87383
 21
-105.723
  0
LINE
  8
0
 10
-8.87383
 20
-105.723
 11
-9.05807
 21
-105.558
  0
LINE
  8
0
 10
-9.05807
 20
-105.558
 11
-9.22273
 21
-105.374
  0
LINE
  8
0
 10
-9.22273
 20
-105.374
 11
-9.36572
 21
-105.172
  0
LINE
  8
0
 10
-9.36572
 20
-105.172
 11
-9.48524
 21
-104.956
  0
LINE
  8
0
 10
-9.48524
 20
-104.956
 11
-9.5798
 21
-104.728
  0
LINE
  8
0
 10
-9.5798
 20
-104.728
 11
-9.64821
 21
-104.49
  0
LINE
  8
0
 10
-9.64821
 20
-104.49
 11
-9.68961
 21
-104.247
  0
LINE
  8
0
 10
-9.68961
 20
-104.247
 11
-9.70346
 21
-104
  0
LINE
  8
0
 10
-9.70346
 20
-104
 11
-9.68961
 21
-103.753
  0
LINE
  8
0
 10
-9.68961
 20
-103.753
 11
-9.64821
 21
-103.51
  0
LINE
  8
0
 10
-9.64821
 20
-103.51
 11
-9.5798
 21
-103.272
  0
LINE
  8
0
 10
-9.5798
 20
-103.272
 11
-9.48524
 21
-103.044
  0
LINE
  8
0
 10
-9.48524
 20
-103.044
 11
-9.36572
 21
-102.828
  0
LINE
  8
0
 10
-9.36572
 20
-102.828
 11
-9.22273
 21
-102.626
  0
LINE
  8
0
 10
-9.22273
 20
-102.626
 11
-9.05807
 21
-102.442
  0
LINE
  8
0
 10
-9.05807
 20
-102.442
 11
-8.87383
 21
-102.277
  0
LINE
  8
0
 10
-8.87383
 20
-102.277
 11
-8.6723
 21
-102.134
  0
LINE
  8
0
 10
-8.6723
 20
-102.134
 11
-8.45604
 21
-102.015
  0
LINE
  8
0
 10
-8.45604
 20
-102.015
 11
-8.22775
 21
-101.92
  0
LINE
  8
0
 10
-8.22775
 20
-101.92
 11
-7.99031
 21
-101.852
  0
LINE
  8
0
 10
-7.99031
 20
-101.852
 11
-7.7467
 21
-101.81
  0
LINE
  8
0
 10
-7.7467
 20
-101.81
 11
-7.5
 21
-101.797
  0
LINE
  8
0
 10
-7.5
 20
-101.797
 11
-7.25328
 21
-101.81
  0
LINE
  8
0
 10
-7.25328
 20
-101.81
 11
-7.00967
 21
-101.852
  0
LINE
  8
0
 10
-7.00967
 20
-101.852
 11
-6.77223
 21
-101.92
  0
LINE
  8
0
 10
-6.77223
 20
-101.92
 11
-6.54395
 21
-102.015
  0
LINE
  8
0
 10
-6.54395
 20
-102.015
 11
-6.32768
 21
-102.134
  0
LINE
  8
0
 10
-6.32768
 20
-102.134
 11
-6.12616
 21
-102.277
  0
LINE
  8
0
 10
-6.12616
 20
-102.277
 11
-5.94191
 21
-102.442
  0
LINE
  8
0
 10
-5.94191
 20
-102.442
 11
-5.77725
 21
-102.626
  0
LINE
  8
0
 10
-5.77725
 20
-102.626
 11
-5.63426
 21
-102.828
  0
LINE
  8
0
 10
-5.63426
 20
-102.828
 11
-5.51474
 21
-103.044
  0
LINE
  8
0
 10
-5.51474
 20
-103.044
 11
-5.42018
 21
-103.272
  0
LINE
  8
0
 10
-5.42018
 20
-103.272
 11
-5.35178
 21
-103.51
  0
LINE
  8
0
 10
-5.35178
 20
-103.51
 11
-5.31038
 21
-103.753
  0
LINE
  8
0
 10
-5.31038
 20
-103.753
 11
-5.29652
 21
-104
  0
LINE
  8
0
 10
-5.29652
 20
-104
 11
-5.31038
 21
-104.247
  0
LINE
  8
0
 10
-5.31038
 20
-104.247
 11
-5.35178
 21
-104.49
  0
LINE
  8
0
 10
-5.35178
 20
-104.49
 11
-5.42018
 21
-104.728
  0
LINE
  8
0
 10
-5.42018
 20
-104.728
 11
-5.51474
 21
-104.956
  0
LINE
  8
0
 10
-5.51474
 20
-104.956
 11
-5.63426
 21
-105.172
  0
LINE
  8
0
 10
-5.63426
 20
-105.172
 11
-5.77725
 21
-105.374
  0
LINE
  8
0
 10
-5.77725
 20
-105.374
 11
-5.94191
 21
-105.558
  0
LINE
  8
0
 10
-5.94191
 20
-105.558
 11
-6.12616
 21
-105.723
  0
LINE
  8
0
 10
-6.12616
 20
-105.723
 11
-6.32768
 21
-105.866
  0
LINE
  8
0
 10
-6.32768
 20
-105.866
 11
-6.54395
 21
-105.985
  0
LINE
  8
0
 10
-6.54395
 20
-105.985
 11
-6.77223
 21
-106.08
  0
LINE
  8
0
 10
-6.77223
 20
-106.08
 11
-7.00967
 21
-106.148
  0
LINE
  8
0
 10
-7.00967
 20
-106.148
 11
-7.25328
 21
-106.19
  0
LINE
  8
0
 10
-7.25328
 20
-106.19
 11
-7.5
 21
-106.203
  0
LINE
  8
0
 10
-7.5
 20
-106.203
 11
-7.7467
 21
-106.19
  0
LINE
  8
0
 10
82.7534
 20
-127.636
 11
82.5123
 21
-127.581
  0
LINE
  8
0
 10
82.5123
 20
-127.581
 11
82.2821
 21
-127.491
  0
LINE
  8
0
 10
82.2821
 20
-127.491
 11
82.0679
 21
-127.367
  0
LINE
  8
0
 10
82.0679
 20
-127.367
 11
81.8746
 21
-127.213
  0
LINE
  8
0
 10
81.8746
 20
-127.213
 11
81.7064
 21
-127.032
  0
LINE
  8
0
 10
81.7064
 20
-127.032
 11
81.5671
 21
-126.827
  0
LINE
  8
0
 10
81.5671
 20
-126.827
 11
81.4598
 21
-126.604
  0
LINE
  8
0
 10
81.4598
 20
-126.604
 11
81.3869
 21
-126.368
  0
LINE
  8
0
 10
81.3869
 20
-126.368
 11
81.35
 21
-126.124
  0
LINE
  8
0
 10
81.35
 20
-126.124
 11
81.35
 21
-125.876
  0
LINE
  8
0
 10
81.35
 20
-125.876
 11
81.3869
 21
-125.632
  0
LINE
  8
0
 10
81.3869
 20
-125.632
 11
81.4598
 21
-125.395
  0
LINE
  8
0
 10
81.4598
 20
-125.395
 11
81.5671
 21
-125.173
  0
LINE
  8
0
 10
81.5671
 20
-125.173
 11
81.7064
 21
-124.968
  0
LINE
  8
0
 10
81.7064
 20
-124.968
 11
81.8746
 21
-124.787
  0
LINE
  8
0
 10
81.8746
 20
-124.787
 11
82.0679
 21
-124.633
  0
LINE
  8
0
 10
82.0679
 20
-124.633
 11
82.2821
 21
-124.509
  0
LINE
  8
0
 10
82.2821
 20
-124.509
 11
82.5123
 21
-124.419
  0
LINE
  8
0
 10
82.5123
 20
-124.419
 11
82.7534
 21
-124.364
  0
LINE
  8
0
 10
82.7534
 20
-124.364
 11
83
 21
-124.345
  0
LINE
  8
0
 10
83
 20
-124.345
 11
83.2466
 21
-124.364
  0
LINE
  8
0
 10
83.2466
 20
-124.364
 11
83.4877
 21
-124.419
  0
LINE
  8
0
 10
83.4877
 20
-124.419
 11
83.7179
 21
-124.509
  0
LINE
  8
0
 10
83.7179
 20
-124.509
 11
83.9321
 21
-124.633
  0
LINE
  8
0
 10
83.9321
 20
-124.633
 11
84.1254
 21
-124.787
  0
LINE
  8
0
 10
84.1254
 20
-124.787
 11
84.2936
 21
-124.968
  0
LINE
  8
0
 10
84.2936
 20
-124.968
 11
84.433
 21
-125.173
  0
LINE
  8
0
 10
84.433
 20
-125.173
 11
84.5403
 21
-125.395
  0
LINE
  8
0
 10
84.5403
 20
-125.395
 11
84.6131
 21
-125.632
  0
LINE
  8
0
 10
84.6131
 20
-125.632
 11
84.65
 21
-125.876
  0
LINE
  8
0
 10
84.65
 20
-125.876
 11
84.65
 21
-126.124
  0
LINE
  8
0
 10
84.65
 20
-126.124
 11
84.6131
 21
-126.368
  0
LINE
  8
0
 10
84.6131
 20
-126.368
 11
84.5403
 21
-126.604
  0
LINE
  8
0
 10
84.5403
 20
-126.604
 11
84.433
 21
-126.827
  0
LINE
  8
0
 10
84.433
 20
-126.827
 11
84.2936
 21
-127.032
  0
LINE
  8
0
 10
84.2936
 20
-127.032
 11
84.1254
 21
-127.213
  0
LINE
  8
0
 10
84.1254
 20
-127.213
 11
83.9321
 21
-127.367
  0
LINE
  8
0
 10
83.9321
 20
-127.367
 11
83.7179
 21
-127.491
  0
LINE
  8
0
 10
83.7179
 20
-127.491
 11
83.4877
 21
-127.581
  0
LINE
  8
0
 10
83.4877
 20
-127.581
 11
83.2466
 21
-127.636
  0
LINE
  8
0
 10
83.2466
 20
-127.636
 11
83
 21
-127.655
  0
LINE
  8
0
 10
83
 20
-127.655
 11
82.7534
 21
-127.636
  0
LINE
  8
0
 10
159.753
 20
-137.19
 11
159.51
 21
-137.148
  0
LINE
  8
0
 10
159.51
 20
-137.148
 11
159.272
 21
-137.08
  0
LINE
  8
0
 10
159.272
 20
-137.08
 11
159.044
 21
-136.985
  0
LINE
  8
0
 10
159.044
 20
-136.985
 11
158.828
 21
-136.866
  0
LINE
  8
0
 10
158.828
 20
-136.866
 11
158.626
 21
-136.723
  0
LINE
  8
0
 10
158.626
 20
-136.723
 11
158.442
 21
-136.558
  0
LINE
  8
0
 10
158.442
 20
-136.558
 11
158.277
 21
-136.374
  0
LINE
  8
0
 10
158.277
 20
-136.374
 11
158.134
 21
-136.172
  0
LINE
  8
0
 10
158.134
 20
-136.172
 11
158.015
 21
-135.956
  0
LINE
  8
0
 10
158.015
 20
-135.956
 11
157.92
 21
-135.728
  0
LINE
  8
0
 10
157.92
 20
-135.728
 11
157.852
 21
-135.49
  0
LINE
  8
0
 10
157.852
 20
-135.49
 11
157.81
 21
-135.247
  0
LINE
  8
0
 10
157.81
 20
-135.247
 11
157.797
 21
-135
  0
LINE
  8
0
 10
157.797
 20
-135
 11
157.81
 21
-134.753
  0
LINE
  8
0
 10
157.81
 20
-134.753
 11
157.852
 21
-134.51
  0
LINE
  8
0
 10
157.852
 20
-134.51
 11
157.92
 21
-134.272
  0
LINE
  8
0
 10
157.92
 20
-134.272
 11
158.015
 21
-134.044
  0
LINE
  8
0
 10
158.015
 20
-134.044
 11
158.134
 21
-133.828
  0
LINE
  8
0
 10
158.134
 20
-133.828
 11
158.277
 21
-133.626
  0
LINE
  8
0
 10
158.277
 20
-133.626
 11
158.442
 21
-133.442
  0
LINE
  8
0
 10
158.442
 20
-133.442
 11
158.626
 21
-133.277
  0
LINE
  8
0
 10
158.626
 20
-133.277
 11
158.828
 21
-133.134
  0
LINE
  8
0
 10
158.828
 20
-133.134
 11
159.044
 21
-133.015
  0
LINE
  8
0
 10
159.044
 20
-133.015
 11
159.272
 21
-132.92
  0
LINE
  8
0
 10
159.272
 20
-132.92
 11
159.51
 21
-132.852
  0
LINE
  8
0
 10
159.51
 20
-132.852
 11
159.753
 21
-132.81
  0
LINE
  8
0
 10
159.753
 20
-132.81
 11
160
 21
-132.797
  0
LINE
  8
0
 10
160
 20
-132.797
 11
160.247
 21
-132.81
  0
LINE
  8
0
 10
160.247
 20
-132.81
 11
160.49
 21
-132.852
  0
LINE
  8
0
 10
160.49
 20
-132.852
 11
160.728
 21
-132.92
  0
LINE
  8
0
 10
160.728
 20
-132.92
 11
160.956
 21
-133.015
  0
LINE
  8
0
 10
160.956
 20
-133.015
 11
161.172
 21
-133.134
  0
LINE
  8
0
 10
161.172
 20
-133.134
 11
161.374
 21
-133.277
  0
LINE
  8
0
 10
161.374
 20
-133.277
 11
161.558
 21
-133.442
  0
LINE
  8
0
 10
161.558
 20
-133.442
 11
161.723
 21
-133.626
  0
LINE
  8
0
 10
161.723
 20
-133.626
 11
161.866
 21
-133.828
  0
LINE
  8
0
 10
161.866
 20
-133.828
 11
161.985
 21
-134.044
  0
LINE
  8
0
 10
161.985
 20
-134.044
 11
162.08
 21
-134.272
  0
LINE
  8
0
 10
162.08
 20
-134.272
 11
162.148
 21
-134.51
  0
LINE
  8
0
 10
162.148
 20
-134.51
 11
162.19
 21
-134.753
  0
LINE
  8
0
 10
162.19
 20
-134.753
 11
162.203
 21
-135
  0
LINE
  8
0
 10
162.203
 20
-135
 11
162.19
 21
-135.247
  0
LINE
  8
0
 10
162.19
 20
-135.247
 11
162.148
 21
-135.49
  0
LINE
  8
0
 10
162.148
 20
-135.49
 11
162.08
 21
-135.728
  0
LINE
  8
0
 10
162.08
 20
-135.728
 11
161.985
 21
-135.956
  0
LINE
  8
0
 10
161.985
 20
-135.956
 11
161.866
 21
-136.172
  0
LINE
  8
0
 10
161.866
 20
-136.172
 11
161.723
 21
-136.374
  0
LINE
  8
0
 10
161.723
 20
-136.374
 11
161.558
 21
-136.558
  0
LINE
  8
0
 10
161.558
 20
-136.558
 11
161.374
 21
-136.723
  0
LINE
  8
0
 10
161.374
 20
-136.723
 11
161.172
 21
-136.866
  0
LINE
  8
0
 10
161.172
 20
-136.866
 11
160.956
 21
-136.985
  0
LINE
  8
0
 10
160.956
 20
-136.985
 11
160.728
 21
-137.08
  0
LINE
  8
0
 10
160.728
 20
-137.08
 11
160.49
 21
-137.148
  0
LINE
  8
0
 10
160.49
 20
-137.148
 11
160.247
 21
-137.19
  0
LINE
  8
0
 10
160.247
 20
-137.19
 11
160
 21
-137.203
  0
LINE
  8
0
 10
160
 20
-137.203
 11
159.753
 21
-137.19
  0
LINE
  8
0
 10
-160.247
 20
-137.19
 11
-160.49
 21
-137.148
  0
LINE
  8
0
 10
-160.49
 20
-137.148
 11
-160.728
 21
-137.08
  0
LINE
  8
0
 10
-160.728
 20
-137.08
 11
-160.956
 21
-136.985
  0
LINE
  8
0
 10
-160.956
 20
-136.985
 11
-161.172
 21
-136.866
  0
LINE
  8
0
 10
-161.172
 20
-136.866
 11
-161.374
 21
-136.723
  0
LINE
  8
0
 10
-161.374
 20
-136.723
 11
-161.558
 21
-136.558
  0
LINE
  8
0
 10
-161.558
 20
-136.558
 11
-161.723
 21
-136.374
  0
LINE
  8
0
 10
-161.723
 20
-136.374
 11
-161.866
 21
-136.172
  0
LINE
  8
0
 10
-161.866
 20
-136.172
 11
-161.985
 21
-135.956
  0
LINE
  8
0
 10
-161.985
 20
-135.956
 11
-162.08
 21
-135.728
  0
LINE
  8
0
 10
-162.08
 20
-135.728
 11
-162.148
 21
-135.49
  0
LINE
  8
0
 10
-162.148
 20
-135.49
 11
-162.19
 21
-135.247
  0
LINE
  8
0
 10
-162.19
 20
-135.247
 11
-162.203
 21
-135
  0
LINE
  8
0
 10
-162.203
 20
-135
 11
-162.19
 21
-134.753
  0
LINE
  8
0
 10
-162.19
 20
-134.753
 11
-162.148
 21
-134.51
  0
LINE
  8
0
 10
-162.148
 20
-134.51
 11
-162.08
 21
-134.272
  0
LINE
  8
0
 10
-162.08
 20
-134.272
 11
-161.985
 21
-134.044
  0
LINE
  8
0
 10
-161.985
 20
-134.044
 11
-161.866
 21
-133.828
  0
LINE
  8
0
 10
-161.866
 20
-133.828
 11
-161.723
 21
-133.626
  0
LINE
  8
0
 10
-161.723
 20
-133.626
 11
-161.558
 21
-133.442
  0
LINE
  8
0
 10
-161.558
 20
-133.442
 11
-161.374
 21
-133.277
  0
LINE
  8
0
 10
-161.374
 20
-133.277
 11
-161.172
 21
-133.134
  0
LINE
  8
0
 10
-161.172
 20
-133.134
 11
-160.956
 21
-133.015
  0
LINE
  8
0
 10
-160.956
 20
-133.015
 11
-160.728
 21
-132.92
  0
LINE
  8
0
 10
-160.728
 20
-132.92
 11
-160.49
 21
-132.852
  0
LINE
  8
0
 10
-160.49
 20
-132.852
 11
-160.247
 21
-132.81
  0
LINE
  8
0
 10
-160.247
 20
-132.81
 11
-160
 21
-132.797
  0
LINE
  8
0
 10
-160
 20
-132.797
 11
-159.753
 21
-132.81
  0
LINE
  8
0
 10
-159.753
 20
-132.81
 11
-159.51
 21
-132.852
  0
LINE
  8
0
 10
-159.51
 20
-132.852
 11
-159.272
 21
-132.92
  0
LINE
  8
0
 10
-159.272
 20
-132.92
 11
-159.044
 21
-133.015
  0
LINE
  8
0
 10
-159.044
 20
-133.015
 11
-158.828
 21
-133.134
  0
LINE
  8
0
 10
-158.828
 20
-133.134
 11
-158.626
 21
-133.277
  0
LINE
  8
0
 10
-158.626
 20
-133.277
 11
-158.442
 21
-133.442
  0
LINE
  8
0
 10
-158.442
 20
-133.442
 11
-158.277
 21
-133.626
  0
LINE
  8
0
 10
-158.277
 20
-133.626
 11
-158.134
 21
-133.828
  0
LINE
  8
0
 10
-158.134
 20
-133.828
 11
-158.015
 21
-134.044
  0
LINE
  8
0
 10
-158.015
 20
-134.044
 11
-157.92
 21
-134.272
  0
LINE
  8
0
 10
-157.92
 20
-134.272
 11
-157.852
 21
-134.51
  0
LINE
  8
0
 10
-157.852
 20
-134.51
 11
-157.81
 21
-134.753
  0
LINE
  8
0
 10
-157.81
 20
-134.753
 11
-157.797
 21
-135
  0
LINE
  8
0
 10
-157.797
 20
-135
 11
-157.81
 21
-135.247
  0
LINE
  8
0
 10
-157.81
 20
-135.247
 11
-157.852
 21
-135.49
  0
LINE
  8
0
 10
-157.852
 20
-135.49
 11
-157.92
 21
-135.728
  0
LINE
  8
0
 10
-157.92
 20
-135.728
 11
-158.015
 21
-135.956
  0
LINE
  8
0
 10
-158.015
 20
-135.956
 11
-158.134
 21
-136.172
  0
LINE
  8
0
 10
-158.134
 20
-136.172
 11
-158.277
 21
-136.374
  0
LINE
  8
0
 10
-158.277
 20
-136.374
 11
-158.442
 21
-136.558
  0
LINE
  8
0
 10
-158.442
 20
-136.558
 11
-158.626
 21
-136.723
  0
LINE
  8
0
 10
-158.626
 20
-136.723
 11
-158.828
 21
-136.866
  0
LINE
  8
0
 10
-158.828
 20
-136.866
 11
-159.044
 21
-136.985
  0
LINE
  8
0
 10
-159.044
 20
-136.985
 11
-159.272
 21
-137.08
  0
LINE
  8
0
 10
-159.272
 20
-137.08
 11
-159.51
 21
-137.148
  0
LINE
  8
0
 10
-159.51
 20
-137.148
 11
-159.753
 21
-137.19
  0
LINE
  8
0
 10
-159.753
 20
-137.19
 11
-160
 21
-137.203
  0
LINE
  8
0
 10
-160
 20
-137.203
 11
-160.247
 21
-137.19
  0
LINE
  8
0
 10
159.665
 20
-163.187
 11
159.334
 21
-163.134
  0
LINE
  8
0
 10
159.334
 20
-163.134
 11
159.01
 21
-163.048
  0
LINE
  8
0
 10
159.01
 20
-163.048
 11
158.697
 21
-162.927
  0
LINE
  8
0
 10
158.697
 20
-162.927
 11
158.398
 21
-162.775
  0
LINE
  8
0
 10
158.398
 20
-162.775
 11
158.117
 21
-162.592
  0
LINE
  8
0
 10
158.117
 20
-162.592
 11
157.856
 21
-162.381
  0
LINE
  8
0
 10
157.856
 20
-162.381
 11
157.619
 21
-162.144
  0
LINE
  8
0
 10
157.619
 20
-162.144
 11
157.408
 21
-161.883
  0
LINE
  8
0
 10
157.408
 20
-161.883
 11
157.225
 21
-161.602
  0
LINE
  8
0
 10
157.225
 20
-161.602
 11
157.073
 21
-161.303
  0
LINE
  8
0
 10
157.073
 20
-161.303
 11
156.952
 21
-160.99
  0
LINE
  8
0
 10
156.952
 20
-160.99
 11
156.866
 21
-160.666
  0
LINE
  8
0
 10
156.866
 20
-160.666
 11
156.813
 21
-160.335
  0
LINE
  8
0
 10
156.813
 20
-160.335
 11
156.796
 21
-160
  0
LINE
  8
0
 10
156.796
 20
-160
 11
156.813
 21
-159.665
  0
LINE
  8
0
 10
156.813
 20
-159.665
 11
156.866
 21
-159.334
  0
LINE
  8
0
 10
156.866
 20
-159.334
 11
156.952
 21
-159.01
  0
LINE
  8
0
 10
156.952
 20
-159.01
 11
157.073
 21
-158.697
  0
LINE
  8
0
 10
157.073
 20
-158.697
 11
157.225
 21
-158.398
  0
LINE
  8
0
 10
157.225
 20
-158.398
 11
157.408
 21
-158.117
  0
LINE
  8
0
 10
157.408
 20
-158.117
 11
157.619
 21
-157.856
  0
LINE
  8
0
 10
157.619
 20
-157.856
 11
157.856
 21
-157.619
  0
LINE
  8
0
 10
157.856
 20
-157.619
 11
158.117
 21
-157.408
  0
LINE
  8
0
 10
158.117
 20
-157.408
 11
158.398
 21
-157.225
  0
LINE
  8
0
 10
158.398
 20
-157.225
 11
158.697
 21
-157.073
  0
LINE
  8
0
 10
158.697
 20
-157.073
 11
159.01
 21
-156.952
  0
LINE
  8
0
 10
159.01
 20
-156.952
 11
159.334
 21
-156.866
  0
LINE
  8
0
 10
159.334
 20
-156.866
 11
159.665
 21
-156.813
  0
LINE
  8
0
 10
159.665
 20
-156.813
 11
160
 21
-156.796
  0
LINE
  8
0
 10
160
 20
-156.796
 11
160.335
 21
-156.813
  0
LINE
  8
0
 10
160.335
 20
-156.813
 11
160.666
 21
-156.866
  0
LINE
  8
0
 10
160.666
 20
-156.866
 11
160.99
 21
-156.952
  0
LINE
  8
0
 10
160.99
 20
-156.952
 11
161.303
 21
-157.073
  0
LINE
  8
0
 10
161.303
 20
-157.073
 11
161.602
 21
-157.225
  0
LINE
  8
0
 10
161.602
 20
-157.225
 11
161.883
 21
-157.408
  0
LINE
  8
0
 10
161.883
 20
-157.408
 11
162.144
 21
-157.619
  0
LINE
  8
0
 10
162.144
 20
-157.619
 11
162.381
 21
-157.856
  0
LINE
  8
0
 10
162.381
 20
-157.856
 11
162.592
 21
-158.117
  0
LINE
  8
0
 10
162.592
 20
-158.117
 11
162.775
 21
-158.398
  0
LINE
  8
0
 10
162.775
 20
-158.398
 11
162.927
 21
-158.697
  0
LINE
  8
0
 10
162.927
 20
-158.697
 11
163.048
 21
-159.01
  0
LINE
  8
0
 10
163.048
 20
-159.01
 11
163.134
 21
-159.334
  0
LINE
  8
0
 10
163.134
 20
-159.334
 11
163.187
 21
-159.665
  0
LINE
  8
0
 10
163.187
 20
-159.665
 11
163.204
 21
-160
  0
LINE
  8
0
 10
163.204
 20
-160
 11
163.187
 21
-160.335
  0
LINE
  8
0
 10
163.187
 20
-160.335
 11
163.134
 21
-160.666
  0
LINE
  8
0
 10
163.134
 20
-160.666
 11
163.048
 21
-160.99
  0
LINE
  8
0
 10
163.048
 20
-160.99
 11
162.927
 21
-161.303
  0
LINE
  8
0
 10
162.927
 20
-161.303
 11
162.775
 21
-161.602
  0
LINE
  8
0
 10
162.775
 20
-161.602
 11
162.592
 21
-161.883
  0
LINE
  8
0
 10
162.592
 20
-161.883
 11
162.381
 21
-162.144
  0
LINE
  8
0
 10
162.381
 20
-162.144
 11
162.144
 21
-162.381
  0
LINE
  8
0
 10
162.144
 20
-162.381
 11
161.883
 21
-162.592
  0
LINE
  8
0
 10
161.883
 20
-162.592
 11
161.602
 21
-162.775
  0
LINE
  8
0
 10
161.602
 20
-162.775
 11
161.303
 21
-162.927
  0
LINE
  8
0
 10
161.303
 20
-162.927
 11
160.99
 21
-163.048
  0
LINE
  8
0
 10
160.99
 20
-163.048
 11
160.666
 21
-163.134
  0
LINE
  8
0
 10
160.666
 20
-163.134
 11
160.335
 21
-163.187
  0
LINE
  8
0
 10
160.335
 20
-163.187
 11
160
 21
-163.204
  0
LINE
  8
0
 10
160
 20
-163.204
 11
159.665
 21
-163.187
  0
LINE
  8
0
 10
-160.335
 20
-163.187
 11
-160.666
 21
-163.134
  0
LINE
  8
0
 10
-160.666
 20
-163.134
 11
-160.99
 21
-163.048
  0
LINE
  8
0
 10
-160.99
 20
-163.048
 11
-161.303
 21
-162.927
  0
LINE
  8
0
 10
-161.303
 20
-162.927
 11
-161.602
 21
-162.775
  0
LINE
  8
0
 10
-161.602
 20
-162.775
 11
-161.883
 21
-162.592
  0
LINE
  8
0
 10
-161.883
 20
-162.592
 11
-162.144
 21
-162.381
  0
LINE
  8
0
 10
-162.144
 20
-162.381
 11
-162.381
 21
-162.144
  0
LINE
  8
0
 10
-162.381
 20
-162.144
 11
-162.592
 21
-161.883
  0
LINE
  8
0
 10
-162.592
 20
-161.883
 11
-162.775
 21
-161.602
  0
LINE
  8
0
 10
-162.775
 20
-161.602
 11
-162.927
 21
-161.303
  0
LINE
  8
0
 10
-162.927
 20
-161.303
 11
-163.048
 21
-160.99
  0
LINE
  8
0
 10
-163.048
 20
-160.99
 11
-163.134
 21
-160.666
  0
LINE
  8
0
 10
-163.134
 20
-160.666
 11
-163.187
 21
-160.335
  0
LINE
  8
0
 10
-163.187
 20
-160.335
 11
-163.204
 21
-160
  0
LINE
  8
0
 10
-163.204
 20
-160
 11
-163.187
 21
-159.665
  0
LINE
  8
0
 10
-163.187
 20
-159.665
 11
-163.134
 21
-159.334
  0
LINE
  8
0
 10
-163.134
 20
-159.334
 11
-163.048
 21
-159.01
  0
LINE
  8
0
 10
-163.048
 20
-159.01
 11
-162.927
 21
-158.697
  0
LINE
  8
0
 10
-162.927
 20
-158.697
 11
-162.775
 21
-158.398
  0
LINE
  8
0
 10
-162.775
 20
-158.398
 11
-162.592
 21
-158.117
  0
LINE
  8
0
 10
-162.592
 20
-158.117
 11
-162.381
 21
-157.856
  0
LINE
  8
0
 10
-162.381
 20
-157.856
 11
-162.144
 21
-157.619
  0
LINE
  8
0
 10
-162.144
 20
-157.619
 11
-161.883
 21
-157.408
  0
LINE
  8
0
 10
-161.883
 20
-157.408
 11
-161.602
 21
-157.225
  0
LINE
  8
0
 10
-161.602
 20
-157.225
 11
-161.303
 21
-157.073
  0
LINE
  8
0
 10
-161.303
 20
-157.073
 11
-160.99
 21
-156.952
  0
LINE
  8
0
 10
-160.99
 20
-156.952
 11
-160.666
 21
-156.866
  0
LINE
  8
0
 10
-160.666
 20
-156.866
 11
-160.335
 21
-156.813
  0
LINE
  8
0
 10
-160.335
 20
-156.813
 11
-160
 21
-156.796
  0
LINE
  8
0
 10
-160
 20
-156.796
 11
-159.665
 21
-156.813
  0
LINE
  8
0
 10
-159.665
 20
-156.813
 11
-159.334
 21
-156.866
  0
LINE
  8
0
 10
-159.334
 20
-156.866
 11
-159.01
 21
-156.952
  0
LINE
  8
0
 10
-159.01
 20
-156.952
 11
-158.697
 21
-157.073
  0
LINE
  8
0
 10
-158.697
 20
-157.073
 11
-158.398
 21
-157.225
  0
LINE
  8
0
 10
-158.398
 20
-157.225
 11
-158.117
 21
-157.408
  0
LINE
  8
0
 10
-158.117
 20
-157.408
 11
-157.856
 21
-157.619
  0
LINE
  8
0
 10
-157.856
 20
-157.619
 11
-157.619
 21
-157.856
  0
LINE
  8
0
 10
-157.619
 20
-157.856
 11
-157.408
 21
-158.117
  0
LINE
  8
0
 10
-157.408
 20
-158.117
 11
-157.225
 21
-158.398
  0
LINE
  8
0
 10
-157.225
 20
-158.398
 11
-157.073
 21
-158.697
  0
LINE
  8
0
 10
-157.073
 20
-158.697
 11
-156.952
 21
-159.01
  0
LINE
  8
0
 10
-156.952
 20
-159.01
 11
-156.866
 21
-159.334
  0
LINE
  8
0
 10
-156.866
 20
-159.334
 11
-156.813
 21
-159.665
  0
LINE
  8
0
 10
-156.813
 20
-159.665
 11
-156.796
 21
-160
  0
LINE
  8
0
 10
-156.796
 20
-160
 11
-156.813
 21
-160.335
  0
LINE
  8
0
 10
-156.813
 20
-160.335
 11
-156.866
 21
-160.666
  0
LINE
  8
0
 10
-156.866
 20
-160.666
 11
-156.952
 21
-160.99
  0
LINE
  8
0
 10
-156.952
 20
-160.99
 11
-157.073
 21
-161.303
  0
LINE
  8
0
 10
-157.073
 20
-161.303
 11
-157.225
 21
-161.602
  0
LINE
  8
0
 10
-157.225
 20
-161.602
 11
-157.408
 21
-161.883
  0
LINE
  8
0
 10
-157.408
 20
-161.883
 11
-157.619
 21
-162.144
  0
LINE
  8
0
 10
-157.619
 20
-162.144
 11
-157.856
 21
-162.381
  0
LINE
  8
0
 10
-157.856
 20
-162.381
 11
-158.117
 21
-162.592
  0
LINE
  8
0
 10
-158.117
 20
-162.592
 11
-158.398
 21
-162.775
  0
LINE
  8
0
 10
-158.398
 20
-162.775
 11
-158.697
 21
-162.927
  0
LINE
  8
0
 10
-158.697
 20
-162.927
 11
-159.01
 21
-163.048
  0
LINE
  8
0
 10
-159.01
 20
-163.048
 11
-159.334
 21
-163.134
  0
LINE
  8
0
 10
-159.334
 20
-163.134
 11
-159.665
 21
-163.187
  0
LINE
  8
0
 10
-159.665
 20
-163.187
 11
-160
 21
-163.204
  0
LINE
  8
0
 10
-160
 20
-163.204
 11
-160.335
 21
-163.187
  0
LINE
  8
0
 10
134.753
 20
-162.19
 11
134.51
 21
-162.148
  0
LINE
  8
0
 10
134.51
 20
-162.148
 11
134.272
 21
-162.08
  0
LINE
  8
0
 10
134.272
 20
-162.08
 11
134.044
 21
-161.985
  0
LINE
  8
0
 10
134.044
 20
-161.985
 11
133.828
 21
-161.866
  0
LINE
  8
0
 10
133.828
 20
-161.866
 11
133.626
 21
-161.723
  0
LINE
  8
0
 10
133.626
 20
-161.723
 11
133.442
 21
-161.558
  0
LINE
  8
0
 10
133.442
 20
-161.558
 11
133.277
 21
-161.374
  0
LINE
  8
0
 10
133.277
 20
-161.374
 11
133.134
 21
-161.172
  0
LINE
  8
0
 10
133.134
 20
-161.172
 11
133.015
 21
-160.956
  0
LINE
  8
0
 10
133.015
 20
-160.956
 11
132.92
 21
-160.728
  0
LINE
  8
0
 10
132.92
 20
-160.728
 11
132.852
 21
-160.49
  0
LINE
  8
0
 10
132.852
 20
-160.49
 11
132.81
 21
-160.247
  0
LINE
  8
0
 10
132.81
 20
-160.247
 11
132.797
 21
-160
  0
LINE
  8
0
 10
132.797
 20
-160
 11
132.81
 21
-159.753
  0
LINE
  8
0
 10
132.81
 20
-159.753
 11
132.852
 21
-159.51
  0
LINE
  8
0
 10
132.852
 20
-159.51
 11
132.92
 21
-159.272
  0
LINE
  8
0
 10
132.92
 20
-159.272
 11
133.015
 21
-159.044
  0
LINE
  8
0
 10
133.015
 20
-159.044
 11
133.134
 21
-158.828
  0
LINE
  8
0
 10
133.134
 20
-158.828
 11
133.277
 21
-158.626
  0
LINE
  8
0
 10
133.277
 20
-158.626
 11
133.442
 21
-158.442
  0
LINE
  8
0
 10
133.442
 20
-158.442
 11
133.626
 21
-158.277
  0
LINE
  8
0
 10
133.626
 20
-158.277
 11
133.828
 21
-158.134
  0
LINE
  8
0
 10
133.828
 20
-158.134
 11
134.044
 21
-158.015
  0
LINE
  8
0
 10
134.044
 20
-158.015
 11
134.272
 21
-157.92
  0
LINE
  8
0
 10
134.272
 20
-157.92
 11
134.51
 21
-157.852
  0
LINE
  8
0
 10
134.51
 20
-157.852
 11
134.753
 21
-157.81
  0
LINE
  8
0
 10
134.753
 20
-157.81
 11
135
 21
-157.797
  0
LINE
  8
0
 10
135
 20
-157.797
 11
135.247
 21
-157.81
  0
LINE
  8
0
 10
135.247
 20
-157.81
 11
135.49
 21
-157.852
  0
LINE
  8
0
 10
135.49
 20
-157.852
 11
135.728
 21
-157.92
  0
LINE
  8
0
 10
135.728
 20
-157.92
 11
135.956
 21
-158.015
  0
LINE
  8
0
 10
135.956
 20
-158.015
 11
136.172
 21
-158.134
  0
LINE
  8
0
 10
136.172
 20
-158.134
 11
136.374
 21
-158.277
  0
LINE
  8
0
 10
136.374
 20
-158.277
 11
136.558
 21
-158.442
  0
LINE
  8
0
 10
136.558
 20
-158.442
 11
136.723
 21
-158.626
  0
LINE
  8
0
 10
136.723
 20
-158.626
 11
136.866
 21
-158.828
  0
LINE
  8
0
 10
136.866
 20
-158.828
 11
136.985
 21
-159.044
  0
LINE
  8
0
 10
136.985
 20
-159.044
 11
137.08
 21
-159.272
  0
LINE
  8
0
 10
137.08
 20
-159.272
 11
137.148
 21
-159.51
  0
LINE
  8
0
 10
137.148
 20
-159.51
 11
137.19
 21
-159.753
  0
LINE
  8
0
 10
137.19
 20
-159.753
 11
137.203
 21
-160
  0
LINE
  8
0
 10
137.203
 20
-160
 11
137.19
 21
-160.247
  0
LINE
  8
0
 10
137.19
 20
-160.247
 11
137.148
 21
-160.49
  0
LINE
  8
0
 10
137.148
 20
-160.49
 11
137.08
 21
-160.728
  0
LINE
  8
0
 10
137.08
 20
-160.728
 11
136.985
 21
-160.956
  0
LINE
  8
0
 10
136.985
 20
-160.956
 11
136.866
 21
-161.172
  0
LINE
  8
0
 10
136.866
 20
-161.172
 11
136.723
 21
-161.374
  0
LINE
  8
0
 10
136.723
 20
-161.374
 11
136.558
 21
-161.558
  0
LINE
  8
0
 10
136.558
 20
-161.558
 11
136.374
 21
-161.723
  0
LINE
  8
0
 10
136.374
 20
-161.723
 11
136.172
 21
-161.866
  0
LINE
  8
0
 10
136.172
 20
-161.866
 11
135.956
 21
-161.985
  0
LINE
  8
0
 10
135.956
 20
-161.985
 11
135.728
 21
-162.08
  0
LINE
  8
0
 10
135.728
 20
-162.08
 11
135.49
 21
-162.148
  0
LINE
  8
0
 10
135.49
 20
-162.148
 11
135.247
 21
-162.19
  0
LINE
  8
0
 10
135.247
 20
-162.19
 11
135
 21
-162.203
  0
LINE
  8
0
 10
135
 20
-162.203
 11
134.753
 21
-162.19
  0
LINE
  8
0
 10
-135.247
 20
-162.19
 11
-135.49
 21
-162.148
  0
LINE
  8
0
 10
-135.49
 20
-162.148
 11
-135.728
 21
-162.08
  0
LINE
  8
0
 10
-135.728
 20
-162.08
 11
-135.956
 21
-161.985
  0
LINE
  8
0
 10
-135.956
 20
-161.985
 11
-136.172
 21
-161.866
  0
LINE
  8
0
 10
-136.172
 20
-161.866
 11
-136.374
 21
-161.723
  0
LINE
  8
0
 10
-136.374
 20
-161.723
 11
-136.558
 21
-161.558
  0
LINE
  8
0
 10
-136.558
 20
-161.558
 11
-136.723
 21
-161.374
  0
LINE
  8
0
 10
-136.723
 20
-161.374
 11
-136.866
 21
-161.172
  0
LINE
  8
0
 10
-136.866
 20
-161.172
 11
-136.985
 21
-160.956
  0
LINE
  8
0
 10
-136.985
 20
-160.956
 11
-137.08
 21
-160.728
  0
LINE
  8
0
 10
-137.08
 20
-160.728
 11
-137.148
 21
-160.49
  0
LINE
  8
0
 10
-137.148
 20
-160.49
 11
-137.19
 21
-160.247
  0
LINE
  8
0
 10
-137.19
 20
-160.247
 11
-137.203
 21
-160
  0
LINE
  8
0
 10
-137.203
 20
-160
 11
-137.19
 21
-159.753
  0
LINE
  8
0
 10
-137.19
 20
-159.753
 11
-137.148
 21
-159.51
  0
LINE
  8
0
 10
-137.148
 20
-159.51
 11
-137.08
 21
-159.272
  0
LINE
  8
0
 10
-137.08
 20
-159.272
 11
-136.985
 21
-159.044
  0
LINE
  8
0
 10
-136.985
 20
-159.044
 11
-136.866
 21
-158.828
  0
LINE
  8
0
 10
-136.866
 20
-158.828
 11
-136.723
 21
-158.626
  0
LINE
  8
0
 10
-136.723
 20
-158.626
 11
-136.558
 21
-158.442
  0
LINE
  8
0
 10
-136.558
 20
-158.442
 11
-136.374
 21
-158.277
  0
LINE
  8
0
 10
-136.374
 20
-158.277
 11
-136.172
 21
-158.134
  0
LINE
  8
0
 10
-136.172
 20
-158.134
 11
-135.956
 21
-158.015
  0
LINE
  8
0
 10
-135.956
 20
-158.015
 11
-135.728
 21
-157.92
  0
LINE
  8
0
 10
-135.728
 20
-157.92
 11
-135.49
 21
-157.852
  0
LINE
  8
0
 10
-135.49
 20
-157.852
 11
-135.247
 21
-157.81
  0
LINE
  8
0
 10
-135.247
 20
-157.81
 11
-135
 21
-157.797
  0
LINE
  8
0
 10
-135
 20
-157.797
 11
-134.753
 21
-157.81
  0
LINE
  8
0
 10
-134.753
 20
-157.81
 11
-134.51
 21
-157.852
  0
LINE
  8
0
 10
-134.51
 20
-157.852
 11
-134.272
 21
-157.92
  0
LINE
  8
0
 10
-134.272
 20
-157.92
 11
-134.044
 21
-158.015
  0
LINE
  8
0
 10
-134.044
 20
-158.015
 11
-133.828
 21
-158.134
  0
LINE
  8
0
 10
-133.828
 20
-158.134
 11
-133.626
 21
-158.277
  0
LINE
  8
0
 10
-133.626
 20
-158.277
 11
-133.442
 21
-158.442
  0
LINE
  8
0
 10
-133.442
 20
-158.442
 11
-133.277
 21
-158.626
  0
LINE
  8
0
 10
-133.277
 20
-158.626
 11
-133.134
 21
-158.828
  0
LINE
  8
0
 10
-133.134
 20
-158.828
 11
-133.015
 21
-159.044
  0
LINE
  8
0
 10
-133.015
 20
-159.044
 11
-132.92
 21
-159.272
  0
LINE
  8
0
 10
-132.92
 20
-159.272
 11
-132.852
 21
-159.51
  0
LINE
  8
0
 10
-132.852
 20
-159.51
 11
-132.81
 21
-159.753
  0
LINE
  8
0
 10
-132.81
 20
-159.753
 11
-132.797
 21
-160
  0
LINE
  8
0
 10
-132.797
 20
-160
 11
-132.81
 21
-160.247
  0
LINE
  8
0
 10
-132.81
 20
-160.247
 11
-132.852
 21
-160.49
  0
LINE
  8
0
 10
-132.852
 20
-160.49
 11
-132.92
 21
-160.728
  0
LINE
  8
0
 10
-132.92
 20
-160.728
 11
-133.015
 21
-160.956
  0
LINE
  8
0
 10
-133.015
 20
-160.956
 11
-133.134
 21
-161.172
  0
LINE
  8
0
 10
-133.134
 20
-161.172
 11
-133.277
 21
-161.374
  0
LINE
  8
0
 10
-133.277
 20
-161.374
 11
-133.442
 21
-161.558
  0
LINE
  8
0
 10
-133.442
 20
-161.558
 11
-133.626
 21
-161.723
  0
LINE
  8
0
 10
-133.626
 20
-161.723
 11
-133.828
 21
-161.866
  0
LINE
  8
0
 10
-133.828
 20
-161.866
 11
-134.044
 21
-161.985
  0
LINE
  8
0
 10
-134.044
 20
-161.985
 11
-134.272
 21
-162.08
  0
LINE
  8
0
 10
-134.272
 20
-162.08
 11
-134.51
 21
-162.148
  0
LINE
  8
0
 10
-134.51
 20
-162.148
 11
-134.753
 21
-162.19
  0
LINE
  8
0
 10
-134.753
 20
-162.19
 11
-135
 21
-162.203
  0
LINE
  8
0
 10
-135
 20
-162.203
 11
-135.247
 21
-162.19
  0
LINE
  8
0
 10
44.7533
 20
-162.19
 11
44.5097
 21
-162.148
  0
LINE
  8
0
 10
44.5097
 20
-162.148
 11
44.2722
 21
-162.08
  0
LINE
  8
0
 10
44.2722
 20
-162.08
 11
44.0439
 21
-161.985
  0
LINE
  8
0
 10
44.0439
 20
-161.985
 11
43.8277
 21
-161.866
  0
LINE
  8
0
 10
43.8277
 20
-161.866
 11
43.6262
 21
-161.723
  0
LINE
  8
0
 10
43.6262
 20
-161.723
 11
43.4419
 21
-161.558
  0
LINE
  8
0
 10
43.4419
 20
-161.558
 11
43.2773
 21
-161.374
  0
LINE
  8
0
 10
43.2773
 20
-161.374
 11
43.1343
 21
-161.172
  0
LINE
  8
0
 10
43.1343
 20
-161.172
 11
43.0147
 21
-160.956
  0
LINE
  8
0
 10
43.0147
 20
-160.956
 11
42.9202
 21
-160.728
  0
LINE
  8
0
 10
42.9202
 20
-160.728
 11
42.8518
 21
-160.49
  0
LINE
  8
0
 10
42.8518
 20
-160.49
 11
42.8104
 21
-160.247
  0
LINE
  8
0
 10
42.8104
 20
-160.247
 11
42.7965
 21
-160
  0
LINE
  8
0
 10
42.7965
 20
-160
 11
42.8104
 21
-159.753
  0
LINE
  8
0
 10
42.8104
 20
-159.753
 11
42.8518
 21
-159.51
  0
LINE
  8
0
 10
42.8518
 20
-159.51
 11
42.9202
 21
-159.272
  0
LINE
  8
0
 10
42.9202
 20
-159.272
 11
43.0147
 21
-159.044
  0
LINE
  8
0
 10
43.0147
 20
-159.044
 11
43.1343
 21
-158.828
  0
LINE
  8
0
 10
43.1343
 20
-158.828
 11
43.2773
 21
-158.626
  0
LINE
  8
0
 10
43.2773
 20
-158.626
 11
43.4419
 21
-158.442
  0
LINE
  8
0
 10
43.4419
 20
-158.442
 11
43.6262
 21
-158.277
  0
LINE
  8
0
 10
43.6262
 20
-158.277
 11
43.8277
 21
-158.134
  0
LINE
  8
0
 10
43.8277
 20
-158.134
 11
44.0439
 21
-158.015
  0
LINE
  8
0
 10
44.0439
 20
-158.015
 11
44.2722
 21
-157.92
  0
LINE
  8
0
 10
44.2722
 20
-157.92
 11
44.5097
 21
-157.852
  0
LINE
  8
0
 10
44.5097
 20
-157.852
 11
44.7533
 21
-157.81
  0
LINE
  8
0
 10
44.7533
 20
-157.81
 11
45
 21
-157.797
  0
LINE
  8
0
 10
45
 20
-157.797
 11
45.2467
 21
-157.81
  0
LINE
  8
0
 10
45.2467
 20
-157.81
 11
45.4903
 21
-157.852
  0
LINE
  8
0
 10
45.4903
 20
-157.852
 11
45.7278
 21
-157.92
  0
LINE
  8
0
 10
45.7278
 20
-157.92
 11
45.956
 21
-158.015
  0
LINE
  8
0
 10
45.956
 20
-158.015
 11
46.1723
 21
-158.134
  0
LINE
  8
0
 10
46.1723
 20
-158.134
 11
46.3738
 21
-158.277
  0
LINE
  8
0
 10
46.3738
 20
-158.277
 11
46.5581
 21
-158.442
  0
LINE
  8
0
 10
46.5581
 20
-158.442
 11
46.7227
 21
-158.626
  0
LINE
  8
0
 10
46.7227
 20
-158.626
 11
46.8657
 21
-158.828
  0
LINE
  8
0
 10
46.8657
 20
-158.828
 11
46.9852
 21
-159.044
  0
LINE
  8
0
 10
46.9852
 20
-159.044
 11
47.0798
 21
-159.272
  0
LINE
  8
0
 10
47.0798
 20
-159.272
 11
47.1482
 21
-159.51
  0
LINE
  8
0
 10
47.1482
 20
-159.51
 11
47.1896
 21
-159.753
  0
LINE
  8
0
 10
47.1896
 20
-159.753
 11
47.2035
 21
-160
  0
LINE
  8
0
 10
47.2035
 20
-160
 11
47.1896
 21
-160.247
  0
LINE
  8
0
 10
47.1896
 20
-160.247
 11
47.1482
 21
-160.49
  0
LINE
  8
0
 10
47.1482
 20
-160.49
 11
47.0798
 21
-160.728
  0
LINE
  8
0
 10
47.0798
 20
-160.728
 11
46.9852
 21
-160.956
  0
LINE
  8
0
 10
46.9852
 20
-160.956
 11
46.8657
 21
-161.172
  0
LINE
  8
0
 10
46.8657
 20
-161.172
 11
46.7227
 21
-161.374
  0
LINE
  8
0
 10
46.7227
 20
-161.374
 11
46.5581
 21
-161.558
  0
LINE
  8
0
 10
46.5581
 20
-161.558
 11
46.3738
 21
-161.723
  0
LINE
  8
0
 10
46.3738
 20
-161.723
 11
46.1723
 21
-161.866
  0
LINE
  8
0
 10
46.1723
 20
-161.866
 11
45.956
 21
-161.985
  0
LINE
  8
0
 10
45.956
 20
-161.985
 11
45.7278
 21
-162.08
  0
LINE
  8
0
 10
45.7278
 20
-162.08
 11
45.4903
 21
-162.148
  0
LINE
  8
0
 10
45.4903
 20
-162.148
 11
45.2467
 21
-162.19
  0
LINE
  8
0
 10
45.2467
 20
-162.19
 11
45
 21
-162.203
  0
LINE
  8
0
 10
45
 20
-162.203
 11
44.7533
 21
-162.19
  0
LINE
  8
0
 10
-45.2467
 20
-162.19
 11
-45.4903
 21
-162.148
  0
LINE
  8
0
 10
-45.4903
 20
-162.148
 11
-45.7278
 21
-162.08
  0
LINE
  8
0
 10
-45.7278
 20
-162.08
 11
-45.9561
 21
-161.985
  0
LINE
  8
0
 10
-45.9561
 20
-161.985
 11
-46.1723
 21
-161.866
  0
LINE
  8
0
 10
-46.1723
 20
-161.866
 11
-46.3738
 21
-161.723
  0
LINE
  8
0
 10
-46.3738
 20
-161.723
 11
-46.5581
 21
-161.558
  0
LINE
  8
0
 10
-46.5581
 20
-161.558
 11
-46.7227
 21
-161.374
  0
LINE
  8
0
 10
-46.7227
 20
-161.374
 11
-46.8657
 21
-161.172
  0
LINE
  8
0
 10
-46.8657
 20
-161.172
 11
-46.9853
 21
-160.956
  0
LINE
  8
0
 10
-46.9853
 20
-160.956
 11
-47.0798
 21
-160.728
  0
LINE
  8
0
 10
-47.0798
 20
-160.728
 11
-47.1482
 21
-160.49
  0
LINE
  8
0
 10
-47.1482
 20
-160.49
 11
-47.1896
 21
-160.247
  0
LINE
  8
0
 10
-47.1896
 20
-160.247
 11
-47.2035
 21
-160
  0
LINE
  8
0
 10
-47.2035
 20
-160
 11
-47.1896
 21
-159.753
  0
LINE
  8
0
 10
-47.1896
 20
-159.753
 11
-47.1482
 21
-159.51
  0
LINE
  8
0
 10
-47.1482
 20
-159.51
 11
-47.0798
 21
-159.272
  0
LINE
  8
0
 10
-47.0798
 20
-159.272
 11
-46.9853
 21
-159.044
  0
LINE
  8
0
 10
-46.9853
 20
-159.044
 11
-46.8657
 21
-158.828
  0
LINE
  8
0
 10
-46.8657
 20
-158.828
 11
-46.7227
 21
-158.626
  0
LINE
  8
0
 10
-46.7227
 20
-158.626
 11
-46.5581
 21
-158.442
  0
LINE
  8
0
 10
-46.5581
 20
-158.442
 11
-46.3738
 21
-158.277
  0
LINE
  8
0
 10
-46.3738
 20
-158.277
 11
-46.1723
 21
-158.134
  0
LINE
  8
0
 10
-46.1723
 20
-158.134
 11
-45.9561
 21
-158.015
  0
LINE
  8
0
 10
-45.9561
 20
-158.015
 11
-45.7278
 21
-157.92
  0
LINE
  8
0
 10
-45.7278
 20
-157.92
 11
-45.4903
 21
-157.852
  0
LINE
  8
0
 10
-45.4903
 20
-157.852
 11
-45.2467
 21
-157.81
  0
LINE
  8
0
 10
-45.2467
 20
-157.81
 11
-45
 21
-157.797
  0
LINE
  8
0
 10
-45
 20
-157.797
 11
-44.7533
 21
-157.81
  0
LINE
  8
0
 10
-44.7533
 20
-157.81
 11
-44.5097
 21
-157.852
  0
LINE
  8
0
 10
-44.5097
 20
-157.852
 11
-44.2722
 21
-157.92
  0
LINE
  8
0
 10
-44.2722
 20
-157.92
 11
-44.044
 21
-158.015
  0
LINE
  8
0
 10
-44.044
 20
-158.015
 11
-43.8277
 21
-158.134
  0
LINE
  8
0
 10
-43.8277
 20
-158.134
 11
-43.6262
 21
-158.277
  0
LINE
  8
0
 10
-43.6262
 20
-158.277
 11
-43.4419
 21
-158.442
  0
LINE
  8
0
 10
-43.4419
 20
-158.442
 11
-43.2773
 21
-158.626
  0
LINE
  8
0
 10
-43.2773
 20
-158.626
 11
-43.1343
 21
-158.828
  0
LINE
  8
0
 10
-43.1343
 20
-158.828
 11
-43.0148
 21
-159.044
  0
LINE
  8
0
 10
-43.0148
 20
-159.044
 11
-42.9202
 21
-159.272
  0
LINE
  8
0
 10
-42.9202
 20
-159.272
 11
-42.8518
 21
-159.51
  0
LINE
  8
0
 10
-42.8518
 20
-159.51
 11
-42.8104
 21
-159.753
  0
LINE
  8
0
 10
-42.8104
 20
-159.753
 11
-42.7965
 21
-160
  0
LINE
  8
0
 10
-42.7965
 20
-160
 11
-42.8104
 21
-160.247
  0
LINE
  8
0
 10
-42.8104
 20
-160.247
 11
-42.8518
 21
-160.49
  0
LINE
  8
0
 10
-42.8518
 20
-160.49
 11
-42.9202
 21
-160.728
  0
LINE
  8
0
 10
-42.9202
 20
-160.728
 11
-43.0148
 21
-160.956
  0
LINE
  8
0
 10
-43.0148
 20
-160.956
 11
-43.1343
 21
-161.172
  0
LINE
  8
0
 10
-43.1343
 20
-161.172
 11
-43.2773
 21
-161.374
  0
LINE
  8
0
 10
-43.2773
 20
-161.374
 11
-43.4419
 21
-161.558
  0
LINE
  8
0
 10
-43.4419
 20
-161.558
 11
-43.6262
 21
-161.723
  0
LINE
  8
0
 10
-43.6262
 20
-161.723
 11
-43.8277
 21
-161.866
  0
LINE
  8
0
 10
-43.8277
 20
-161.866
 11
-44.044
 21
-161.985
  0
LINE
  8
0
 10
-44.044
 20
-161.985
 11
-44.2722
 21
-162.08
  0
LINE
  8
0
 10
-44.2722
 20
-162.08
 11
-44.5097
 21
-162.148
  0
LINE
  8
0
 10
-44.5097
 20
-162.148
 11
-44.7533
 21
-162.19
  0
LINE
  8
0
 10
-44.7533
 20
-162.19
 11
-45
 21
-162.203
  0
LINE
  8
0
 10
-45
 20
-162.203
 11
-45.2467
 21
-162.19
  0
ENDSEC
  0
SECTION
  2
OBJECTS
  0
DICTIONARY
  0
ENDSEC
  0
EOF
