  0
SECTION
  2
BLOCKS
  0
ENDSEC
  0
SECTION
  2
ENTITIES
  0
LINE
  8
0
 10
169.223
 20
-199.975
 11
169.434
 21
-199.901
  0
LINE
  8
0
 10
169.434
 20
-199.901
 11
169.623
 21
-199.782
  0
LINE
  8
0
 10
169.623
 20
-199.782
 11
169.782
 21
-199.623
  0
LINE
  8
0
 10
169.782
 20
-199.623
 11
169.901
 21
-199.434
  0
LINE
  8
0
 10
169.901
 20
-199.434
 11
169.975
 21
-199.223
  0
LINE
  8
0
 10
169.975
 20
-199.223
 11
170
 21
-199
  0
LINE
  8
0
 10
170
 20
-199
 11
170
 21
199
  0
LINE
  8
0
 10
170
 20
199
 11
169.975
 21
199.223
  0
LINE
  8
0
 10
169.975
 20
199.223
 11
169.901
 21
199.434
  0
LINE
  8
0
 10
169.901
 20
199.434
 11
169.782
 21
199.623
  0
LINE
  8
0
 10
169.782
 20
199.623
 11
169.623
 21
199.782
  0
LINE
  8
0
 10
169.623
 20
199.782
 11
169.434
 21
199.901
  0
LINE
  8
0
 10
169.434
 20
199.901
 11
169.223
 21
199.975
  0
LINE
  8
0
 10
169.223
 20
199.975
 11
169
 21
200
  0
LINE
  8
0
 10
169
 20
200
 11
-169
 21
200
  0
LINE
  8
0
 10
-169
 20
200
 11
-169.223
 21
199.975
  0
LINE
  8
0
 10
-169.223
 20
199.975
 11
-169.434
 21
199.901
  0
LINE
  8
0
 10
-169.434
 20
199.901
 11
-169.623
 21
199.782
  0
LINE
  8
0
 10
-169.623
 20
199.782
 11
-169.782
 21
199.623
  0
LINE
  8
0
 10
-169.782
 20
199.623
 11
-169.901
 21
199.434
  0
LINE
  8
0
 10
-169.901
 20
199.434
 11
-169.975
 21
199.223
  0
LINE
  8
0
 10
-169.975
 20
199.223
 11
-170
 21
199
  0
LINE
  8
0
 10
-170
 20
199
 11
-170
 21
-199
  0
LINE
  8
0
 10
-170
 20
-199
 11
-169.975
 21
-199.223
  0
LINE
  8
0
 10
-169.975
 20
-199.223
 11
-169.901
 21
-199.434
  0
LINE
  8
0
 10
-169.901
 20
-199.434
 11
-169.782
 21
-199.623
  0
LINE
  8
0
 10
-169.782
 20
-199.623
 11
-169.623
 21
-199.782
  0
LINE
  8
0
 10
-169.623
 20
-199.782
 11
-169.434
 21
-199.901
  0
LINE
  8
0
 10
-169.434
 20
-199.901
 11
-169.223
 21
-199.975
  0
LINE
  8
0
 10
-169.223
 20
-199.975
 11
-169
 21
-200
  0
LINE
  8
0
 10
-169
 20
-200
 11
169
 21
-200
  0
LINE
  8
0
 10
169
 20
-200
 11
169.223
 21
-199.975
  0
LINE
  8
0
 10
159.739
 20
187.514
 11
159.48
 21
187.555
  0
LINE
  8
0
 10
159.48
 20
187.555
 11
159.227
 21
187.622
  0
LINE
  8
0
 10
159.227
 20
187.622
 11
158.983
 21
187.716
  0
LINE
  8
0
 10
158.983
 20
187.716
 11
158.75
 21
187.835
  0
LINE
  8
0
 10
158.75
 20
187.835
 11
158.531
 21
187.977
  0
LINE
  8
0
 10
158.531
 20
187.977
 11
158.327
 21
188.142
  0
LINE
  8
0
 10
158.327
 20
188.142
 11
158.142
 21
188.327
  0
LINE
  8
0
 10
158.142
 20
188.327
 11
157.977
 21
188.531
  0
LINE
  8
0
 10
157.977
 20
188.531
 11
157.835
 21
188.75
  0
LINE
  8
0
 10
157.835
 20
188.75
 11
157.716
 21
188.983
  0
LINE
  8
0
 10
157.716
 20
188.983
 11
157.622
 21
189.227
  0
LINE
  8
0
 10
157.622
 20
189.227
 11
157.555
 21
189.48
  0
LINE
  8
0
 10
157.555
 20
189.48
 11
157.514
 21
189.739
  0
LINE
  8
0
 10
157.514
 20
189.739
 11
157.5
 21
190
  0
LINE
  8
0
 10
157.5
 20
190
 11
157.514
 21
190.261
  0
LINE
  8
0
 10
157.514
 20
190.261
 11
157.555
 21
190.52
  0
LINE
  8
0
 10
157.555
 20
190.52
 11
157.622
 21
190.773
  0
LINE
  8
0
 10
157.622
 20
190.773
 11
157.716
 21
191.017
  0
LINE
  8
0
 10
157.716
 20
191.017
 11
157.835
 21
191.25
  0
LINE
  8
0
 10
157.835
 20
191.25
 11
157.977
 21
191.469
  0
LINE
  8
0
 10
157.977
 20
191.469
 11
158.142
 21
191.673
  0
LINE
  8
0
 10
158.142
 20
191.673
 11
158.327
 21
191.858
  0
LINE
  8
0
 10
158.327
 20
191.858
 11
158.531
 21
192.023
  0
LINE
  8
0
 10
158.531
 20
192.023
 11
158.75
 21
192.165
  0
LINE
  8
0
 10
158.75
 20
192.165
 11
158.983
 21
192.284
  0
LINE
  8
0
 10
158.983
 20
192.284
 11
159.227
 21
192.378
  0
LINE
  8
0
 10
159.227
 20
192.378
 11
159.48
 21
192.445
  0
LINE
  8
0
 10
159.48
 20
192.445
 11
159.739
 21
192.486
  0
LINE
  8
0
 10
159.739
 20
192.486
 11
160
 21
192.5
  0
LINE
  8
0
 10
160
 20
192.5
 11
160.261
 21
192.486
  0
LINE
  8
0
 10
160.261
 20
192.486
 11
160.52
 21
192.445
  0
LINE
  8
0
 10
160.52
 20
192.445
 11
160.773
 21
192.378
  0
LINE
  8
0
 10
160.773
 20
192.378
 11
161.017
 21
192.284
  0
LINE
  8
0
 10
161.017
 20
192.284
 11
161.25
 21
192.165
  0
LINE
  8
0
 10
161.25
 20
192.165
 11
161.469
 21
192.023
  0
LINE
  8
0
 10
161.469
 20
192.023
 11
161.673
 21
191.858
  0
LINE
  8
0
 10
161.673
 20
191.858
 11
161.858
 21
191.673
  0
LINE
  8
0
 10
161.858
 20
191.673
 11
162.023
 21
191.469
  0
LINE
  8
0
 10
162.023
 20
191.469
 11
162.165
 21
191.25
  0
LINE
  8
0
 10
162.165
 20
191.25
 11
162.284
 21
191.017
  0
LINE
  8
0
 10
162.284
 20
191.017
 11
162.378
 21
190.773
  0
LINE
  8
0
 10
162.378
 20
190.773
 11
162.445
 21
190.52
  0
LINE
  8
0
 10
162.445
 20
190.52
 11
162.486
 21
190.261
  0
LINE
  8
0
 10
162.486
 20
190.261
 11
162.5
 21
190
  0
LINE
  8
0
 10
162.5
 20
190
 11
162.486
 21
189.739
  0
LINE
  8
0
 10
162.486
 20
189.739
 11
162.445
 21
189.48
  0
LINE
  8
0
 10
162.445
 20
189.48
 11
162.378
 21
189.227
  0
LINE
  8
0
 10
162.378
 20
189.227
 11
162.284
 21
188.983
  0
LINE
  8
0
 10
162.284
 20
188.983
 11
162.165
 21
188.75
  0
LINE
  8
0
 10
162.165
 20
188.75
 11
162.023
 21
188.531
  0
LINE
  8
0
 10
162.023
 20
188.531
 11
161.858
 21
188.327
  0
LINE
  8
0
 10
161.858
 20
188.327
 11
161.673
 21
188.142
  0
LINE
  8
0
 10
161.673
 20
188.142
 11
161.469
 21
187.977
  0
LINE
  8
0
 10
161.469
 20
187.977
 11
161.25
 21
187.835
  0
LINE
  8
0
 10
161.25
 20
187.835
 11
161.017
 21
187.716
  0
LINE
  8
0
 10
161.017
 20
187.716
 11
160.773
 21
187.622
  0
LINE
  8
0
 10
160.773
 20
187.622
 11
160.52
 21
187.555
  0
LINE
  8
0
 10
160.52
 20
187.555
 11
160.261
 21
187.514
  0
LINE
  8
0
 10
160.261
 20
187.514
 11
160
 21
187.5
  0
LINE
  8
0
 10
160
 20
187.5
 11
159.739
 21
187.514
  0
LINE
  8
0
 10
-160.261
 20
187.514
 11
-160.52
 21
187.555
  0
LINE
  8
0
 10
-160.52
 20
187.555
 11
-160.773
 21
187.622
  0
LINE
  8
0
 10
-160.773
 20
187.622
 11
-161.017
 21
187.716
  0
LINE
  8
0
 10
-161.017
 20
187.716
 11
-161.25
 21
187.835
  0
LINE
  8
0
 10
-161.25
 20
187.835
 11
-161.469
 21
187.977
  0
LINE
  8
0
 10
-161.469
 20
187.977
 11
-161.673
 21
188.142
  0
LINE
  8
0
 10
-161.673
 20
188.142
 11
-161.858
 21
188.327
  0
LINE
  8
0
 10
-161.858
 20
188.327
 11
-162.023
 21
188.531
  0
LINE
  8
0
 10
-162.023
 20
188.531
 11
-162.165
 21
188.75
  0
LINE
  8
0
 10
-162.165
 20
188.75
 11
-162.284
 21
188.983
  0
LINE
  8
0
 10
-162.284
 20
188.983
 11
-162.378
 21
189.227
  0
LINE
  8
0
 10
-162.378
 20
189.227
 11
-162.445
 21
189.48
  0
LINE
  8
0
 10
-162.445
 20
189.48
 11
-162.486
 21
189.739
  0
LINE
  8
0
 10
-162.486
 20
189.739
 11
-162.5
 21
190
  0
LINE
  8
0
 10
-162.5
 20
190
 11
-162.486
 21
190.261
  0
LINE
  8
0
 10
-162.486
 20
190.261
 11
-162.445
 21
190.52
  0
LINE
  8
0
 10
-162.445
 20
190.52
 11
-162.378
 21
190.773
  0
LINE
  8
0
 10
-162.378
 20
190.773
 11
-162.284
 21
191.017
  0
LINE
  8
0
 10
-162.284
 20
191.017
 11
-162.165
 21
191.25
  0
LINE
  8
0
 10
-162.165
 20
191.25
 11
-162.023
 21
191.469
  0
LINE
  8
0
 10
-162.023
 20
191.469
 11
-161.858
 21
191.673
  0
LINE
  8
0
 10
-161.858
 20
191.673
 11
-161.673
 21
191.858
  0
LINE
  8
0
 10
-161.673
 20
191.858
 11
-161.469
 21
192.023
  0
LINE
  8
0
 10
-161.469
 20
192.023
 11
-161.25
 21
192.165
  0
LINE
  8
0
 10
-161.25
 20
192.165
 11
-161.017
 21
192.284
  0
LINE
  8
0
 10
-161.017
 20
192.284
 11
-160.773
 21
192.378
  0
LINE
  8
0
 10
-160.773
 20
192.378
 11
-160.52
 21
192.445
  0
LINE
  8
0
 10
-160.52
 20
192.445
 11
-160.261
 21
192.486
  0
LINE
  8
0
 10
-160.261
 20
192.486
 11
-160
 21
192.5
  0
LINE
  8
0
 10
-160
 20
192.5
 11
-159.739
 21
192.486
  0
LINE
  8
0
 10
-159.739
 20
192.486
 11
-159.48
 21
192.445
  0
LINE
  8
0
 10
-159.48
 20
192.445
 11
-159.227
 21
192.378
  0
LINE
  8
0
 10
-159.227
 20
192.378
 11
-158.983
 21
192.284
  0
LINE
  8
0
 10
-158.983
 20
192.284
 11
-158.75
 21
192.165
  0
LINE
  8
0
 10
-158.75
 20
192.165
 11
-158.531
 21
192.023
  0
LINE
  8
0
 10
-158.531
 20
192.023
 11
-158.327
 21
191.858
  0
LINE
  8
0
 10
-158.327
 20
191.858
 11
-158.142
 21
191.673
  0
LINE
  8
0
 10
-158.142
 20
191.673
 11
-157.977
 21
191.469
  0
LINE
  8
0
 10
-157.977
 20
191.469
 11
-157.835
 21
191.25
  0
LINE
  8
0
 10
-157.835
 20
191.25
 11
-157.716
 21
191.017
  0
LINE
  8
0
 10
-157.716
 20
191.017
 11
-157.622
 21
190.773
  0
LINE
  8
0
 10
-157.622
 20
190.773
 11
-157.555
 21
190.52
  0
LINE
  8
0
 10
-157.555
 20
190.52
 11
-157.514
 21
190.261
  0
LINE
  8
0
 10
-157.514
 20
190.261
 11
-157.5
 21
190
  0
LINE
  8
0
 10
-157.5
 20
190
 11
-157.514
 21
189.739
  0
LINE
  8
0
 10
-157.514
 20
189.739
 11
-157.555
 21
189.48
  0
LINE
  8
0
 10
-157.555
 20
189.48
 11
-157.622
 21
189.227
  0
LINE
  8
0
 10
-157.622
 20
189.227
 11
-157.716
 21
188.983
  0
LINE
  8
0
 10
-157.716
 20
188.983
 11
-157.835
 21
188.75
  0
LINE
  8
0
 10
-157.835
 20
188.75
 11
-157.977
 21
188.531
  0
LINE
  8
0
 10
-157.977
 20
188.531
 11
-158.142
 21
188.327
  0
LINE
  8
0
 10
-158.142
 20
188.327
 11
-158.327
 21
188.142
  0
LINE
  8
0
 10
-158.327
 20
188.142
 11
-158.531
 21
187.977
  0
LINE
  8
0
 10
-158.531
 20
187.977
 11
-158.75
 21
187.835
  0
LINE
  8
0
 10
-158.75
 20
187.835
 11
-158.983
 21
187.716
  0
LINE
  8
0
 10
-158.983
 20
187.716
 11
-159.227
 21
187.622
  0
LINE
  8
0
 10
-159.227
 20
187.622
 11
-159.48
 21
187.555
  0
LINE
  8
0
 10
-159.48
 20
187.555
 11
-159.739
 21
187.514
  0
LINE
  8
0
 10
-159.739
 20
187.514
 11
-160
 21
187.5
  0
LINE
  8
0
 10
-160
 20
187.5
 11
-160.261
 21
187.514
  0
LINE
  8
0
 10
-100.246
 20
187.814
 11
-100.49
 21
187.855
  0
LINE
  8
0
 10
-100.49
 20
187.855
 11
-100.727
 21
187.923
  0
LINE
  8
0
 10
-100.727
 20
187.923
 11
-100.955
 21
188.018
  0
LINE
  8
0
 10
-100.955
 20
188.018
 11
-101.17
 21
188.137
  0
LINE
  8
0
 10
-101.17
 20
188.137
 11
-101.372
 21
188.28
  0
LINE
  8
0
 10
-101.372
 20
188.28
 11
-101.556
 21
188.444
  0
LINE
  8
0
 10
-101.556
 20
188.444
 11
-101.72
 21
188.628
  0
LINE
  8
0
 10
-101.72
 20
188.628
 11
-101.863
 21
188.83
  0
LINE
  8
0
 10
-101.863
 20
188.83
 11
-101.982
 21
189.045
  0
LINE
  8
0
 10
-101.982
 20
189.045
 11
-102.077
 21
189.273
  0
LINE
  8
0
 10
-102.077
 20
189.273
 11
-102.145
 21
189.51
  0
LINE
  8
0
 10
-102.145
 20
189.51
 11
-102.186
 21
189.754
  0
LINE
  8
0
 10
-102.186
 20
189.754
 11
-102.2
 21
190
  0
LINE
  8
0
 10
-102.2
 20
190
 11
-102.186
 21
190.246
  0
LINE
  8
0
 10
-102.186
 20
190.246
 11
-102.145
 21
190.49
  0
LINE
  8
0
 10
-102.145
 20
190.49
 11
-102.077
 21
190.727
  0
LINE
  8
0
 10
-102.077
 20
190.727
 11
-101.982
 21
190.955
  0
LINE
  8
0
 10
-101.982
 20
190.955
 11
-101.863
 21
191.17
  0
LINE
  8
0
 10
-101.863
 20
191.17
 11
-101.72
 21
191.372
  0
LINE
  8
0
 10
-101.72
 20
191.372
 11
-101.556
 21
191.556
  0
LINE
  8
0
 10
-101.556
 20
191.556
 11
-101.372
 21
191.72
  0
LINE
  8
0
 10
-101.372
 20
191.72
 11
-101.17
 21
191.863
  0
LINE
  8
0
 10
-101.17
 20
191.863
 11
-100.955
 21
191.982
  0
LINE
  8
0
 10
-100.955
 20
191.982
 11
-100.727
 21
192.077
  0
LINE
  8
0
 10
-100.727
 20
192.077
 11
-100.49
 21
192.145
  0
LINE
  8
0
 10
-100.49
 20
192.145
 11
-100.246
 21
192.186
  0
LINE
  8
0
 10
-100.246
 20
192.186
 11
-100
 21
192.2
  0
LINE
  8
0
 10
-100
 20
192.2
 11
-99.7537
 21
192.186
  0
LINE
  8
0
 10
-99.7537
 20
192.186
 11
-99.5105
 21
192.145
  0
LINE
  8
0
 10
-99.5105
 20
192.145
 11
-99.2734
 21
192.077
  0
LINE
  8
0
 10
-99.2734
 20
192.077
 11
-99.0454
 21
191.982
  0
LINE
  8
0
 10
-99.0454
 20
191.982
 11
-98.8295
 21
191.863
  0
LINE
  8
0
 10
-98.8295
 20
191.863
 11
-98.6283
 21
191.72
  0
LINE
  8
0
 10
-98.6283
 20
191.72
 11
-98.4444
 21
191.556
  0
LINE
  8
0
 10
-98.4444
 20
191.556
 11
-98.28
 21
191.372
  0
LINE
  8
0
 10
-98.28
 20
191.372
 11
-98.1372
 21
191.17
  0
LINE
  8
0
 10
-98.1372
 20
191.17
 11
-98.0179
 21
190.955
  0
LINE
  8
0
 10
-98.0179
 20
190.955
 11
-97.9234
 21
190.727
  0
LINE
  8
0
 10
-97.9234
 20
190.727
 11
-97.8551
 21
190.49
  0
LINE
  8
0
 10
-97.8551
 20
190.49
 11
-97.8138
 21
190.246
  0
LINE
  8
0
 10
-97.8138
 20
190.246
 11
-97.8
 21
190
  0
LINE
  8
0
 10
-97.8
 20
190
 11
-97.8138
 21
189.754
  0
LINE
  8
0
 10
-97.8138
 20
189.754
 11
-97.8551
 21
189.51
  0
LINE
  8
0
 10
-97.8551
 20
189.51
 11
-97.9234
 21
189.273
  0
LINE
  8
0
 10
-97.9234
 20
189.273
 11
-98.0179
 21
189.045
  0
LINE
  8
0
 10
-98.0179
 20
189.045
 11
-98.1372
 21
188.83
  0
LINE
  8
0
 10
-98.1372
 20
188.83
 11
-98.28
 21
188.628
  0
LINE
  8
0
 10
-98.28
 20
188.628
 11
-98.4444
 21
188.444
  0
LINE
  8
0
 10
-98.4444
 20
188.444
 11
-98.6283
 21
188.28
  0
LINE
  8
0
 10
-98.6283
 20
188.28
 11
-98.8295
 21
188.137
  0
LINE
  8
0
 10
-98.8295
 20
188.137
 11
-99.0454
 21
188.018
  0
LINE
  8
0
 10
-99.0454
 20
188.018
 11
-99.2734
 21
187.923
  0
LINE
  8
0
 10
-99.2734
 20
187.923
 11
-99.5105
 21
187.855
  0
LINE
  8
0
 10
-99.5105
 20
187.855
 11
-99.7537
 21
187.814
  0
LINE
  8
0
 10
-99.7537
 20
187.814
 11
-100
 21
187.8
  0
LINE
  8
0
 10
-100
 20
187.8
 11
-100.246
 21
187.814
  0
LINE
  8
0
 10
-0.246307
 20
187.814
 11
-0.489532
 21
187.855
  0
LINE
  8
0
 10
-0.489532
 20
187.855
 11
-0.726608
 21
187.923
  0
LINE
  8
0
 10
-0.726608
 20
187.923
 11
-0.954544
 21
188.018
  0
LINE
  8
0
 10
-0.954544
 20
188.018
 11
-1.17046
 21
188.137
  0
LINE
  8
0
 10
-1.17046
 20
188.137
 11
-1.37167
 21
188.28
  0
LINE
  8
0
 10
-1.37167
 20
188.28
 11
-1.55563
 21
188.444
  0
LINE
  8
0
 10
-1.55563
 20
188.444
 11
-1.72002
 21
188.628
  0
LINE
  8
0
 10
-1.72002
 20
188.628
 11
-1.86279
 21
188.83
  0
LINE
  8
0
 10
-1.86279
 20
188.83
 11
-1.98212
 21
189.045
  0
LINE
  8
0
 10
-1.98212
 20
189.045
 11
-2.07654
 21
189.273
  0
LINE
  8
0
 10
-2.07654
 20
189.273
 11
-2.14484
 21
189.51
  0
LINE
  8
0
 10
-2.14484
 20
189.51
 11
-2.18616
 21
189.754
  0
LINE
  8
0
 10
-2.18616
 20
189.754
 11
-2.2
 21
190
  0
LINE
  8
0
 10
-2.2
 20
190
 11
-2.18616
 21
190.246
  0
LINE
  8
0
 10
-2.18616
 20
190.246
 11
-2.14484
 21
190.49
  0
LINE
  8
0
 10
-2.14484
 20
190.49
 11
-2.07654
 21
190.727
  0
LINE
  8
0
 10
-2.07654
 20
190.727
 11
-1.98212
 21
190.955
  0
LINE
  8
0
 10
-1.98212
 20
190.955
 11
-1.86279
 21
191.17
  0
LINE
  8
0
 10
-1.86279
 20
191.17
 11
-1.72002
 21
191.372
  0
LINE
  8
0
 10
-1.72002
 20
191.372
 11
-1.55563
 21
191.556
  0
LINE
  8
0
 10
-1.55563
 20
191.556
 11
-1.37167
 21
191.72
  0
LINE
  8
0
 10
-1.37167
 20
191.72
 11
-1.17046
 21
191.863
  0
LINE
  8
0
 10
-1.17046
 20
191.863
 11
-0.954544
 21
191.982
  0
LINE
  8
0
 10
-0.954544
 20
191.982
 11
-0.726608
 21
192.077
  0
LINE
  8
0
 10
-0.726608
 20
192.077
 11
-0.489532
 21
192.145
  0
LINE
  8
0
 10
-0.489532
 20
192.145
 11
-0.246307
 21
192.186
  0
LINE
  8
0
 10
-0.246307
 20
192.186
 11
0
 21
192.2
  0
LINE
  8
0
 10
0
 20
192.2
 11
0.246307
 21
192.186
  0
LINE
  8
0
 10
0.246307
 20
192.186
 11
0.489532
 21
192.145
  0
LINE
  8
0
 10
0.489532
 20
192.145
 11
0.726608
 21
192.077
  0
LINE
  8
0
 10
0.726608
 20
192.077
 11
0.954544
 21
191.982
  0
LINE
  8
0
 10
0.954544
 20
191.982
 11
1.17046
 21
191.863
  0
LINE
  8
0
 10
1.17046
 20
191.863
 11
1.37167
 21
191.72
  0
LINE
  8
0
 10
1.37167
 20
191.72
 11
1.55563
 21
191.556
  0
LINE
  8
0
 10
1.55563
 20
191.556
 11
1.72002
 21
191.372
  0
LINE
  8
0
 10
1.72002
 20
191.372
 11
1.86279
 21
191.17
  0
LINE
  8
0
 10
1.86279
 20
191.17
 11
1.98212
 21
190.955
  0
LINE
  8
0
 10
1.98212
 20
190.955
 11
2.07654
 21
190.727
  0
LINE
  8
0
 10
2.07654
 20
190.727
 11
2.14484
 21
190.49
  0
LINE
  8
0
 10
2.14484
 20
190.49
 11
2.18616
 21
190.246
  0
LINE
  8
0
 10
2.18616
 20
190.246
 11
2.2
 21
190
  0
LINE
  8
0
 10
2.2
 20
190
 11
2.18616
 21
189.754
  0
LINE
  8
0
 10
2.18616
 20
189.754
 11
2.14484
 21
189.51
  0
LINE
  8
0
 10
2.14484
 20
189.51
 11
2.07654
 21
189.273
  0
LINE
  8
0
 10
2.07654
 20
189.273
 11
1.98212
 21
189.045
  0
LINE
  8
0
 10
1.98212
 20
189.045
 11
1.86279
 21
188.83
  0
LINE
  8
0
 10
1.86279
 20
188.83
 11
1.72002
 21
188.628
  0
LINE
  8
0
 10
1.72002
 20
188.628
 11
1.55563
 21
188.444
  0
LINE
  8
0
 10
1.55563
 20
188.444
 11
1.37167
 21
188.28
  0
LINE
  8
0
 10
1.37167
 20
188.28
 11
1.17046
 21
188.137
  0
LINE
  8
0
 10
1.17046
 20
188.137
 11
0.954544
 21
188.018
  0
LINE
  8
0
 10
0.954544
 20
188.018
 11
0.726608
 21
187.923
  0
LINE
  8
0
 10
0.726608
 20
187.923
 11
0.489532
 21
187.855
  0
LINE
  8
0
 10
0.489532
 20
187.855
 11
0.246307
 21
187.814
  0
LINE
  8
0
 10
0.246307
 20
187.814
 11
0
 21
187.8
  0
LINE
  8
0
 10
0
 20
187.8
 11
-0.246307
 21
187.814
  0
LINE
  8
0
 10
99.7537
 20
187.814
 11
99.5105
 21
187.855
  0
LINE
  8
0
 10
99.5105
 20
187.855
 11
99.2734
 21
187.923
  0
LINE
  8
0
 10
99.2734
 20
187.923
 11
99.0454
 21
188.018
  0
LINE
  8
0
 10
99.0454
 20
188.018
 11
98.8295
 21
188.137
  0
LINE
  8
0
 10
98.8295
 20
188.137
 11
98.6283
 21
188.28
  0
LINE
  8
0
 10
98.6283
 20
188.28
 11
98.4444
 21
188.444
  0
LINE
  8
0
 10
98.4444
 20
188.444
 11
98.28
 21
188.628
  0
LINE
  8
0
 10
98.28
 20
188.628
 11
98.1372
 21
188.83
  0
LINE
  8
0
 10
98.1372
 20
188.83
 11
98.0179
 21
189.045
  0
LINE
  8
0
 10
98.0179
 20
189.045
 11
97.9234
 21
189.273
  0
LINE
  8
0
 10
97.9234
 20
189.273
 11
97.8551
 21
189.51
  0
LINE
  8
0
 10
97.8551
 20
189.51
 11
97.8138
 21
189.754
  0
LINE
  8
0
 10
97.8138
 20
189.754
 11
97.8
 21
190
  0
LINE
  8
0
 10
97.8
 20
190
 11
97.8138
 21
190.246
  0
LINE
  8
0
 10
97.8138
 20
190.246
 11
97.8551
 21
190.49
  0
LINE
  8
0
 10
97.8551
 20
190.49
 11
97.9234
 21
190.727
  0
LINE
  8
0
 10
97.9234
 20
190.727
 11
98.0179
 21
190.955
  0
LINE
  8
0
 10
98.0179
 20
190.955
 11
98.1372
 21
191.17
  0
LINE
  8
0
 10
98.1372
 20
191.17
 11
98.28
 21
191.372
  0
LINE
  8
0
 10
98.28
 20
191.372
 11
98.4444
 21
191.556
  0
LINE
  8
0
 10
98.4444
 20
191.556
 11
98.6283
 21
191.72
  0
LINE
  8
0
 10
98.6283
 20
191.72
 11
98.8295
 21
191.863
  0
LINE
  8
0
 10
98.8295
 20
191.863
 11
99.0454
 21
191.982
  0
LINE
  8
0
 10
99.0454
 20
191.982
 11
99.2734
 21
192.077
  0
LINE
  8
0
 10
99.2734
 20
192.077
 11
99.5105
 21
192.145
  0
LINE
  8
0
 10
99.5105
 20
192.145
 11
99.7537
 21
192.186
  0
LINE
  8
0
 10
99.7537
 20
192.186
 11
100
 21
192.2
  0
LINE
  8
0
 10
100
 20
192.2
 11
100.246
 21
192.186
  0
LINE
  8
0
 10
100.246
 20
192.186
 11
100.49
 21
192.145
  0
LINE
  8
0
 10
100.49
 20
192.145
 11
100.727
 21
192.077
  0
LINE
  8
0
 10
100.727
 20
192.077
 11
100.955
 21
191.982
  0
LINE
  8
0
 10
100.955
 20
191.982
 11
101.17
 21
191.863
  0
LINE
  8
0
 10
101.17
 20
191.863
 11
101.372
 21
191.72
  0
LINE
  8
0
 10
101.372
 20
191.72
 11
101.556
 21
191.556
  0
LINE
  8
0
 10
101.556
 20
191.556
 11
101.72
 21
191.372
  0
LINE
  8
0
 10
101.72
 20
191.372
 11
101.863
 21
191.17
  0
LINE
  8
0
 10
101.863
 20
191.17
 11
101.982
 21
190.955
  0
LINE
  8
0
 10
101.982
 20
190.955
 11
102.077
 21
190.727
  0
LINE
  8
0
 10
102.077
 20
190.727
 11
102.145
 21
190.49
  0
LINE
  8
0
 10
102.145
 20
190.49
 11
102.186
 21
190.246
  0
LINE
  8
0
 10
102.186
 20
190.246
 11
102.2
 21
190
  0
LINE
  8
0
 10
102.2
 20
190
 11
102.186
 21
189.754
  0
LINE
  8
0
 10
102.186
 20
189.754
 11
102.145
 21
189.51
  0
LINE
  8
0
 10
102.145
 20
189.51
 11
102.077
 21
189.273
  0
LINE
  8
0
 10
102.077
 20
189.273
 11
101.982
 21
189.045
  0
LINE
  8
0
 10
101.982
 20
189.045
 11
101.863
 21
188.83
  0
LINE
  8
0
 10
101.863
 20
188.83
 11
101.72
 21
188.628
  0
LINE
  8
0
 10
101.72
 20
188.628
 11
101.556
 21
188.444
  0
LINE
  8
0
 10
101.556
 20
188.444
 11
101.372
 21
188.28
  0
LINE
  8
0
 10
101.372
 20
188.28
 11
101.17
 21
188.137
  0
LINE
  8
0
 10
101.17
 20
188.137
 11
100.955
 21
188.018
  0
LINE
  8
0
 10
100.955
 20
188.018
 11
100.727
 21
187.923
  0
LINE
  8
0
 10
100.727
 20
187.923
 11
100.49
 21
187.855
  0
LINE
  8
0
 10
100.49
 20
187.855
 11
100.246
 21
187.814
  0
LINE
  8
0
 10
100.246
 20
187.814
 11
100
 21
187.8
  0
LINE
  8
0
 10
100
 20
187.8
 11
99.7537
 21
187.814
  0
LINE
  8
0
 10
159.754
 20
177.814
 11
159.51
 21
177.855
  0
LINE
  8
0
 10
159.51
 20
177.855
 11
159.273
 21
177.923
  0
LINE
  8
0
 10
159.273
 20
177.923
 11
159.045
 21
178.018
  0
LINE
  8
0
 10
159.045
 20
178.018
 11
158.83
 21
178.137
  0
LINE
  8
0
 10
158.83
 20
178.137
 11
158.628
 21
178.28
  0
LINE
  8
0
 10
158.628
 20
178.28
 11
158.444
 21
178.444
  0
LINE
  8
0
 10
158.444
 20
178.444
 11
158.28
 21
178.628
  0
LINE
  8
0
 10
158.28
 20
178.628
 11
158.137
 21
178.83
  0
LINE
  8
0
 10
158.137
 20
178.83
 11
158.018
 21
179.045
  0
LINE
  8
0
 10
158.018
 20
179.045
 11
157.923
 21
179.273
  0
LINE
  8
0
 10
157.923
 20
179.273
 11
157.855
 21
179.51
  0
LINE
  8
0
 10
157.855
 20
179.51
 11
157.814
 21
179.754
  0
LINE
  8
0
 10
157.814
 20
179.754
 11
157.8
 21
180
  0
LINE
  8
0
 10
157.8
 20
180
 11
157.814
 21
180.246
  0
LINE
  8
0
 10
157.814
 20
180.246
 11
157.855
 21
180.49
  0
LINE
  8
0
 10
157.855
 20
180.49
 11
157.923
 21
180.727
  0
LINE
  8
0
 10
157.923
 20
180.727
 11
158.018
 21
180.955
  0
LINE
  8
0
 10
158.018
 20
180.955
 11
158.137
 21
181.17
  0
LINE
  8
0
 10
158.137
 20
181.17
 11
158.28
 21
181.372
  0
LINE
  8
0
 10
158.28
 20
181.372
 11
158.444
 21
181.556
  0
LINE
  8
0
 10
158.444
 20
181.556
 11
158.628
 21
181.72
  0
LINE
  8
0
 10
158.628
 20
181.72
 11
158.83
 21
181.863
  0
LINE
  8
0
 10
158.83
 20
181.863
 11
159.045
 21
181.982
  0
LINE
  8
0
 10
159.045
 20
181.982
 11
159.273
 21
182.077
  0
LINE
  8
0
 10
159.273
 20
182.077
 11
159.51
 21
182.145
  0
LINE
  8
0
 10
159.51
 20
182.145
 11
159.754
 21
182.186
  0
LINE
  8
0
 10
159.754
 20
182.186
 11
160
 21
182.2
  0
LINE
  8
0
 10
160
 20
182.2
 11
160.246
 21
182.186
  0
LINE
  8
0
 10
160.246
 20
182.186
 11
160.49
 21
182.145
  0
LINE
  8
0
 10
160.49
 20
182.145
 11
160.727
 21
182.077
  0
LINE
  8
0
 10
160.727
 20
182.077
 11
160.955
 21
181.982
  0
LINE
  8
0
 10
160.955
 20
181.982
 11
161.17
 21
181.863
  0
LINE
  8
0
 10
161.17
 20
181.863
 11
161.372
 21
181.72
  0
LINE
  8
0
 10
161.372
 20
181.72
 11
161.556
 21
181.556
  0
LINE
  8
0
 10
161.556
 20
181.556
 11
161.72
 21
181.372
  0
LINE
  8
0
 10
161.72
 20
181.372
 11
161.863
 21
181.17
  0
LINE
  8
0
 10
161.863
 20
181.17
 11
161.982
 21
180.955
  0
LINE
  8
0
 10
161.982
 20
180.955
 11
162.077
 21
180.727
  0
LINE
  8
0
 10
162.077
 20
180.727
 11
162.145
 21
180.49
  0
LINE
  8
0
 10
162.145
 20
180.49
 11
162.186
 21
180.246
  0
LINE
  8
0
 10
162.186
 20
180.246
 11
162.2
 21
180
  0
LINE
  8
0
 10
162.2
 20
180
 11
162.186
 21
179.754
  0
LINE
  8
0
 10
162.186
 20
179.754
 11
162.145
 21
179.51
  0
LINE
  8
0
 10
162.145
 20
179.51
 11
162.077
 21
179.273
  0
LINE
  8
0
 10
162.077
 20
179.273
 11
161.982
 21
179.045
  0
LINE
  8
0
 10
161.982
 20
179.045
 11
161.863
 21
178.83
  0
LINE
  8
0
 10
161.863
 20
178.83
 11
161.72
 21
178.628
  0
LINE
  8
0
 10
161.72
 20
178.628
 11
161.556
 21
178.444
  0
LINE
  8
0
 10
161.556
 20
178.444
 11
161.372
 21
178.28
  0
LINE
  8
0
 10
161.372
 20
178.28
 11
161.17
 21
178.137
  0
LINE
  8
0
 10
161.17
 20
178.137
 11
160.955
 21
178.018
  0
LINE
  8
0
 10
160.955
 20
178.018
 11
160.727
 21
177.923
  0
LINE
  8
0
 10
160.727
 20
177.923
 11
160.49
 21
177.855
  0
LINE
  8
0
 10
160.49
 20
177.855
 11
160.246
 21
177.814
  0
LINE
  8
0
 10
160.246
 20
177.814
 11
160
 21
177.8
  0
LINE
  8
0
 10
160
 20
177.8
 11
159.754
 21
177.814
  0
LINE
  8
0
 10
-160.246
 20
177.814
 11
-160.49
 21
177.855
  0
LINE
  8
0
 10
-160.49
 20
177.855
 11
-160.727
 21
177.923
  0
LINE
  8
0
 10
-160.727
 20
177.923
 11
-160.955
 21
178.018
  0
LINE
  8
0
 10
-160.955
 20
178.018
 11
-161.17
 21
178.137
  0
LINE
  8
0
 10
-161.17
 20
178.137
 11
-161.372
 21
178.28
  0
LINE
  8
0
 10
-161.372
 20
178.28
 11
-161.556
 21
178.444
  0
LINE
  8
0
 10
-161.556
 20
178.444
 11
-161.72
 21
178.628
  0
LINE
  8
0
 10
-161.72
 20
178.628
 11
-161.863
 21
178.83
  0
LINE
  8
0
 10
-161.863
 20
178.83
 11
-161.982
 21
179.045
  0
LINE
  8
0
 10
-161.982
 20
179.045
 11
-162.077
 21
179.273
  0
LINE
  8
0
 10
-162.077
 20
179.273
 11
-162.145
 21
179.51
  0
LINE
  8
0
 10
-162.145
 20
179.51
 11
-162.186
 21
179.754
  0
LINE
  8
0
 10
-162.186
 20
179.754
 11
-162.2
 21
180
  0
LINE
  8
0
 10
-162.2
 20
180
 11
-162.186
 21
180.246
  0
LINE
  8
0
 10
-162.186
 20
180.246
 11
-162.145
 21
180.49
  0
LINE
  8
0
 10
-162.145
 20
180.49
 11
-162.077
 21
180.727
  0
LINE
  8
0
 10
-162.077
 20
180.727
 11
-161.982
 21
180.955
  0
LINE
  8
0
 10
-161.982
 20
180.955
 11
-161.863
 21
181.17
  0
LINE
  8
0
 10
-161.863
 20
181.17
 11
-161.72
 21
181.372
  0
LINE
  8
0
 10
-161.72
 20
181.372
 11
-161.556
 21
181.556
  0
LINE
  8
0
 10
-161.556
 20
181.556
 11
-161.372
 21
181.72
  0
LINE
  8
0
 10
-161.372
 20
181.72
 11
-161.17
 21
181.863
  0
LINE
  8
0
 10
-161.17
 20
181.863
 11
-160.955
 21
181.982
  0
LINE
  8
0
 10
-160.955
 20
181.982
 11
-160.727
 21
182.077
  0
LINE
  8
0
 10
-160.727
 20
182.077
 11
-160.49
 21
182.145
  0
LINE
  8
0
 10
-160.49
 20
182.145
 11
-160.246
 21
182.186
  0
LINE
  8
0
 10
-160.246
 20
182.186
 11
-160
 21
182.2
  0
LINE
  8
0
 10
-160
 20
182.2
 11
-159.754
 21
182.186
  0
LINE
  8
0
 10
-159.754
 20
182.186
 11
-159.51
 21
182.145
  0
LINE
  8
0
 10
-159.51
 20
182.145
 11
-159.273
 21
182.077
  0
LINE
  8
0
 10
-159.273
 20
182.077
 11
-159.045
 21
181.982
  0
LINE
  8
0
 10
-159.045
 20
181.982
 11
-158.83
 21
181.863
  0
LINE
  8
0
 10
-158.83
 20
181.863
 11
-158.628
 21
181.72
  0
LINE
  8
0
 10
-158.628
 20
181.72
 11
-158.444
 21
181.556
  0
LINE
  8
0
 10
-158.444
 20
181.556
 11
-158.28
 21
181.372
  0
LINE
  8
0
 10
-158.28
 20
181.372
 11
-158.137
 21
181.17
  0
LINE
  8
0
 10
-158.137
 20
181.17
 11
-158.018
 21
180.955
  0
LINE
  8
0
 10
-158.018
 20
180.955
 11
-157.923
 21
180.727
  0
LINE
  8
0
 10
-157.923
 20
180.727
 11
-157.855
 21
180.49
  0
LINE
  8
0
 10
-157.855
 20
180.49
 11
-157.814
 21
180.246
  0
LINE
  8
0
 10
-157.814
 20
180.246
 11
-157.8
 21
180
  0
LINE
  8
0
 10
-157.8
 20
180
 11
-157.814
 21
179.754
  0
LINE
  8
0
 10
-157.814
 20
179.754
 11
-157.855
 21
179.51
  0
LINE
  8
0
 10
-157.855
 20
179.51
 11
-157.923
 21
179.273
  0
LINE
  8
0
 10
-157.923
 20
179.273
 11
-158.018
 21
179.045
  0
LINE
  8
0
 10
-158.018
 20
179.045
 11
-158.137
 21
178.83
  0
LINE
  8
0
 10
-158.137
 20
178.83
 11
-158.28
 21
178.628
  0
LINE
  8
0
 10
-158.28
 20
178.628
 11
-158.444
 21
178.444
  0
LINE
  8
0
 10
-158.444
 20
178.444
 11
-158.628
 21
178.28
  0
LINE
  8
0
 10
-158.628
 20
178.28
 11
-158.83
 21
178.137
  0
LINE
  8
0
 10
-158.83
 20
178.137
 11
-159.045
 21
178.018
  0
LINE
  8
0
 10
-159.045
 20
178.018
 11
-159.273
 21
177.923
  0
LINE
  8
0
 10
-159.273
 20
177.923
 11
-159.51
 21
177.855
  0
LINE
  8
0
 10
-159.51
 20
177.855
 11
-159.754
 21
177.814
  0
LINE
  8
0
 10
-159.754
 20
177.814
 11
-160
 21
177.8
  0
LINE
  8
0
 10
-160
 20
177.8
 11
-160.246
 21
177.814
  0
LINE
  8
0
 10
159.739
 20
167.514
 11
159.48
 21
167.555
  0
LINE
  8
0
 10
159.48
 20
167.555
 11
159.227
 21
167.622
  0
LINE
  8
0
 10
159.227
 20
167.622
 11
158.983
 21
167.716
  0
LINE
  8
0
 10
158.983
 20
167.716
 11
158.75
 21
167.835
  0
LINE
  8
0
 10
158.75
 20
167.835
 11
158.531
 21
167.977
  0
LINE
  8
0
 10
158.531
 20
167.977
 11
158.327
 21
168.142
  0
LINE
  8
0
 10
158.327
 20
168.142
 11
158.142
 21
168.327
  0
LINE
  8
0
 10
158.142
 20
168.327
 11
157.977
 21
168.531
  0
LINE
  8
0
 10
157.977
 20
168.531
 11
157.835
 21
168.75
  0
LINE
  8
0
 10
157.835
 20
168.75
 11
157.716
 21
168.983
  0
LINE
  8
0
 10
157.716
 20
168.983
 11
157.622
 21
169.227
  0
LINE
  8
0
 10
157.622
 20
169.227
 11
157.555
 21
169.48
  0
LINE
  8
0
 10
157.555
 20
169.48
 11
157.514
 21
169.739
  0
LINE
  8
0
 10
157.514
 20
169.739
 11
157.5
 21
170
  0
LINE
  8
0
 10
157.5
 20
170
 11
157.514
 21
170.261
  0
LINE
  8
0
 10
157.514
 20
170.261
 11
157.555
 21
170.52
  0
LINE
  8
0
 10
157.555
 20
170.52
 11
157.622
 21
170.773
  0
LINE
  8
0
 10
157.622
 20
170.773
 11
157.716
 21
171.017
  0
LINE
  8
0
 10
157.716
 20
171.017
 11
157.835
 21
171.25
  0
LINE
  8
0
 10
157.835
 20
171.25
 11
157.977
 21
171.469
  0
LINE
  8
0
 10
157.977
 20
171.469
 11
158.142
 21
171.673
  0
LINE
  8
0
 10
158.142
 20
171.673
 11
158.327
 21
171.858
  0
LINE
  8
0
 10
158.327
 20
171.858
 11
158.531
 21
172.023
  0
LINE
  8
0
 10
158.531
 20
172.023
 11
158.75
 21
172.165
  0
LINE
  8
0
 10
158.75
 20
172.165
 11
158.983
 21
172.284
  0
LINE
  8
0
 10
158.983
 20
172.284
 11
159.227
 21
172.378
  0
LINE
  8
0
 10
159.227
 20
172.378
 11
159.48
 21
172.445
  0
LINE
  8
0
 10
159.48
 20
172.445
 11
159.739
 21
172.486
  0
LINE
  8
0
 10
159.739
 20
172.486
 11
160
 21
172.5
  0
LINE
  8
0
 10
160
 20
172.5
 11
160.261
 21
172.486
  0
LINE
  8
0
 10
160.261
 20
172.486
 11
160.52
 21
172.445
  0
LINE
  8
0
 10
160.52
 20
172.445
 11
160.773
 21
172.378
  0
LINE
  8
0
 10
160.773
 20
172.378
 11
161.017
 21
172.284
  0
LINE
  8
0
 10
161.017
 20
172.284
 11
161.25
 21
172.165
  0
LINE
  8
0
 10
161.25
 20
172.165
 11
161.469
 21
172.023
  0
LINE
  8
0
 10
161.469
 20
172.023
 11
161.673
 21
171.858
  0
LINE
  8
0
 10
161.673
 20
171.858
 11
161.858
 21
171.673
  0
LINE
  8
0
 10
161.858
 20
171.673
 11
162.023
 21
171.469
  0
LINE
  8
0
 10
162.023
 20
171.469
 11
162.165
 21
171.25
  0
LINE
  8
0
 10
162.165
 20
171.25
 11
162.284
 21
171.017
  0
LINE
  8
0
 10
162.284
 20
171.017
 11
162.378
 21
170.773
  0
LINE
  8
0
 10
162.378
 20
170.773
 11
162.445
 21
170.52
  0
LINE
  8
0
 10
162.445
 20
170.52
 11
162.486
 21
170.261
  0
LINE
  8
0
 10
162.486
 20
170.261
 11
162.5
 21
170
  0
LINE
  8
0
 10
162.5
 20
170
 11
162.486
 21
169.739
  0
LINE
  8
0
 10
162.486
 20
169.739
 11
162.445
 21
169.48
  0
LINE
  8
0
 10
162.445
 20
169.48
 11
162.378
 21
169.227
  0
LINE
  8
0
 10
162.378
 20
169.227
 11
162.284
 21
168.983
  0
LINE
  8
0
 10
162.284
 20
168.983
 11
162.165
 21
168.75
  0
LINE
  8
0
 10
162.165
 20
168.75
 11
162.023
 21
168.531
  0
LINE
  8
0
 10
162.023
 20
168.531
 11
161.858
 21
168.327
  0
LINE
  8
0
 10
161.858
 20
168.327
 11
161.673
 21
168.142
  0
LINE
  8
0
 10
161.673
 20
168.142
 11
161.469
 21
167.977
  0
LINE
  8
0
 10
161.469
 20
167.977
 11
161.25
 21
167.835
  0
LINE
  8
0
 10
161.25
 20
167.835
 11
161.017
 21
167.716
  0
LINE
  8
0
 10
161.017
 20
167.716
 11
160.773
 21
167.622
  0
LINE
  8
0
 10
160.773
 20
167.622
 11
160.52
 21
167.555
  0
LINE
  8
0
 10
160.52
 20
167.555
 11
160.261
 21
167.514
  0
LINE
  8
0
 10
160.261
 20
167.514
 11
160
 21
167.5
  0
LINE
  8
0
 10
160
 20
167.5
 11
159.739
 21
167.514
  0
LINE
  8
0
 10
-160.261
 20
167.514
 11
-160.52
 21
167.555
  0
LINE
  8
0
 10
-160.52
 20
167.555
 11
-160.773
 21
167.622
  0
LINE
  8
0
 10
-160.773
 20
167.622
 11
-161.017
 21
167.716
  0
LINE
  8
0
 10
-161.017
 20
167.716
 11
-161.25
 21
167.835
  0
LINE
  8
0
 10
-161.25
 20
167.835
 11
-161.469
 21
167.977
  0
LINE
  8
0
 10
-161.469
 20
167.977
 11
-161.673
 21
168.142
  0
LINE
  8
0
 10
-161.673
 20
168.142
 11
-161.858
 21
168.327
  0
LINE
  8
0
 10
-161.858
 20
168.327
 11
-162.023
 21
168.531
  0
LINE
  8
0
 10
-162.023
 20
168.531
 11
-162.165
 21
168.75
  0
LINE
  8
0
 10
-162.165
 20
168.75
 11
-162.284
 21
168.983
  0
LINE
  8
0
 10
-162.284
 20
168.983
 11
-162.378
 21
169.227
  0
LINE
  8
0
 10
-162.378
 20
169.227
 11
-162.445
 21
169.48
  0
LINE
  8
0
 10
-162.445
 20
169.48
 11
-162.486
 21
169.739
  0
LINE
  8
0
 10
-162.486
 20
169.739
 11
-162.5
 21
170
  0
LINE
  8
0
 10
-162.5
 20
170
 11
-162.486
 21
170.261
  0
LINE
  8
0
 10
-162.486
 20
170.261
 11
-162.445
 21
170.52
  0
LINE
  8
0
 10
-162.445
 20
170.52
 11
-162.378
 21
170.773
  0
LINE
  8
0
 10
-162.378
 20
170.773
 11
-162.284
 21
171.017
  0
LINE
  8
0
 10
-162.284
 20
171.017
 11
-162.165
 21
171.25
  0
LINE
  8
0
 10
-162.165
 20
171.25
 11
-162.023
 21
171.469
  0
LINE
  8
0
 10
-162.023
 20
171.469
 11
-161.858
 21
171.673
  0
LINE
  8
0
 10
-161.858
 20
171.673
 11
-161.673
 21
171.858
  0
LINE
  8
0
 10
-161.673
 20
171.858
 11
-161.469
 21
172.023
  0
LINE
  8
0
 10
-161.469
 20
172.023
 11
-161.25
 21
172.165
  0
LINE
  8
0
 10
-161.25
 20
172.165
 11
-161.017
 21
172.284
  0
LINE
  8
0
 10
-161.017
 20
172.284
 11
-160.773
 21
172.378
  0
LINE
  8
0
 10
-160.773
 20
172.378
 11
-160.52
 21
172.445
  0
LINE
  8
0
 10
-160.52
 20
172.445
 11
-160.261
 21
172.486
  0
LINE
  8
0
 10
-160.261
 20
172.486
 11
-160
 21
172.5
  0
LINE
  8
0
 10
-160
 20
172.5
 11
-159.739
 21
172.486
  0
LINE
  8
0
 10
-159.739
 20
172.486
 11
-159.48
 21
172.445
  0
LINE
  8
0
 10
-159.48
 20
172.445
 11
-159.227
 21
172.378
  0
LINE
  8
0
 10
-159.227
 20
172.378
 11
-158.983
 21
172.284
  0
LINE
  8
0
 10
-158.983
 20
172.284
 11
-158.75
 21
172.165
  0
LINE
  8
0
 10
-158.75
 20
172.165
 11
-158.531
 21
172.023
  0
LINE
  8
0
 10
-158.531
 20
172.023
 11
-158.327
 21
171.858
  0
LINE
  8
0
 10
-158.327
 20
171.858
 11
-158.142
 21
171.673
  0
LINE
  8
0
 10
-158.142
 20
171.673
 11
-157.977
 21
171.469
  0
LINE
  8
0
 10
-157.977
 20
171.469
 11
-157.835
 21
171.25
  0
LINE
  8
0
 10
-157.835
 20
171.25
 11
-157.716
 21
171.017
  0
LINE
  8
0
 10
-157.716
 20
171.017
 11
-157.622
 21
170.773
  0
LINE
  8
0
 10
-157.622
 20
170.773
 11
-157.555
 21
170.52
  0
LINE
  8
0
 10
-157.555
 20
170.52
 11
-157.514
 21
170.261
  0
LINE
  8
0
 10
-157.514
 20
170.261
 11
-157.5
 21
170
  0
LINE
  8
0
 10
-157.5
 20
170
 11
-157.514
 21
169.739
  0
LINE
  8
0
 10
-157.514
 20
169.739
 11
-157.555
 21
169.48
  0
LINE
  8
0
 10
-157.555
 20
169.48
 11
-157.622
 21
169.227
  0
LINE
  8
0
 10
-157.622
 20
169.227
 11
-157.716
 21
168.983
  0
LINE
  8
0
 10
-157.716
 20
168.983
 11
-157.835
 21
168.75
  0
LINE
  8
0
 10
-157.835
 20
168.75
 11
-157.977
 21
168.531
  0
LINE
  8
0
 10
-157.977
 20
168.531
 11
-158.142
 21
168.327
  0
LINE
  8
0
 10
-158.142
 20
168.327
 11
-158.327
 21
168.142
  0
LINE
  8
0
 10
-158.327
 20
168.142
 11
-158.531
 21
167.977
  0
LINE
  8
0
 10
-158.531
 20
167.977
 11
-158.75
 21
167.835
  0
LINE
  8
0
 10
-158.75
 20
167.835
 11
-158.983
 21
167.716
  0
LINE
  8
0
 10
-158.983
 20
167.716
 11
-159.227
 21
167.622
  0
LINE
  8
0
 10
-159.227
 20
167.622
 11
-159.48
 21
167.555
  0
LINE
  8
0
 10
-159.48
 20
167.555
 11
-159.739
 21
167.514
  0
LINE
  8
0
 10
-159.739
 20
167.514
 11
-160
 21
167.5
  0
LINE
  8
0
 10
-160
 20
167.5
 11
-160.261
 21
167.514
  0
LINE
  8
0
 10
-160.261
 20
147.514
 11
-160.52
 21
147.555
  0
LINE
  8
0
 10
-160.52
 20
147.555
 11
-160.773
 21
147.622
  0
LINE
  8
0
 10
-160.773
 20
147.622
 11
-161.017
 21
147.716
  0
LINE
  8
0
 10
-161.017
 20
147.716
 11
-161.25
 21
147.835
  0
LINE
  8
0
 10
-161.25
 20
147.835
 11
-161.469
 21
147.977
  0
LINE
  8
0
 10
-161.469
 20
147.977
 11
-161.673
 21
148.142
  0
LINE
  8
0
 10
-161.673
 20
148.142
 11
-161.858
 21
148.327
  0
LINE
  8
0
 10
-161.858
 20
148.327
 11
-162.023
 21
148.531
  0
LINE
  8
0
 10
-162.023
 20
148.531
 11
-162.165
 21
148.75
  0
LINE
  8
0
 10
-162.165
 20
148.75
 11
-162.284
 21
148.983
  0
LINE
  8
0
 10
-162.284
 20
148.983
 11
-162.378
 21
149.227
  0
LINE
  8
0
 10
-162.378
 20
149.227
 11
-162.445
 21
149.48
  0
LINE
  8
0
 10
-162.445
 20
149.48
 11
-162.486
 21
149.739
  0
LINE
  8
0
 10
-162.486
 20
149.739
 11
-162.5
 21
150
  0
LINE
  8
0
 10
-162.5
 20
150
 11
-162.486
 21
150.261
  0
LINE
  8
0
 10
-162.486
 20
150.261
 11
-162.445
 21
150.52
  0
LINE
  8
0
 10
-162.445
 20
150.52
 11
-162.378
 21
150.773
  0
LINE
  8
0
 10
-162.378
 20
150.773
 11
-162.284
 21
151.017
  0
LINE
  8
0
 10
-162.284
 20
151.017
 11
-162.165
 21
151.25
  0
LINE
  8
0
 10
-162.165
 20
151.25
 11
-162.023
 21
151.469
  0
LINE
  8
0
 10
-162.023
 20
151.469
 11
-161.858
 21
151.673
  0
LINE
  8
0
 10
-161.858
 20
151.673
 11
-161.673
 21
151.858
  0
LINE
  8
0
 10
-161.673
 20
151.858
 11
-161.469
 21
152.023
  0
LINE
  8
0
 10
-161.469
 20
152.023
 11
-161.25
 21
152.165
  0
LINE
  8
0
 10
-161.25
 20
152.165
 11
-161.017
 21
152.284
  0
LINE
  8
0
 10
-161.017
 20
152.284
 11
-160.773
 21
152.378
  0
LINE
  8
0
 10
-160.773
 20
152.378
 11
-160.52
 21
152.445
  0
LINE
  8
0
 10
-160.52
 20
152.445
 11
-160.261
 21
152.486
  0
LINE
  8
0
 10
-160.261
 20
152.486
 11
-160
 21
152.5
  0
LINE
  8
0
 10
-160
 20
152.5
 11
-159.739
 21
152.486
  0
LINE
  8
0
 10
-159.739
 20
152.486
 11
-159.48
 21
152.445
  0
LINE
  8
0
 10
-159.48
 20
152.445
 11
-159.227
 21
152.378
  0
LINE
  8
0
 10
-159.227
 20
152.378
 11
-158.983
 21
152.284
  0
LINE
  8
0
 10
-158.983
 20
152.284
 11
-158.75
 21
152.165
  0
LINE
  8
0
 10
-158.75
 20
152.165
 11
-158.531
 21
152.023
  0
LINE
  8
0
 10
-158.531
 20
152.023
 11
-158.327
 21
151.858
  0
LINE
  8
0
 10
-158.327
 20
151.858
 11
-158.142
 21
151.673
  0
LINE
  8
0
 10
-158.142
 20
151.673
 11
-157.977
 21
151.469
  0
LINE
  8
0
 10
-157.977
 20
151.469
 11
-157.835
 21
151.25
  0
LINE
  8
0
 10
-157.835
 20
151.25
 11
-157.716
 21
151.017
  0
LINE
  8
0
 10
-157.716
 20
151.017
 11
-157.622
 21
150.773
  0
LINE
  8
0
 10
-157.622
 20
150.773
 11
-157.555
 21
150.52
  0
LINE
  8
0
 10
-157.555
 20
150.52
 11
-157.514
 21
150.261
  0
LINE
  8
0
 10
-157.514
 20
150.261
 11
-157.5
 21
150
  0
LINE
  8
0
 10
-157.5
 20
150
 11
-157.514
 21
149.739
  0
LINE
  8
0
 10
-157.514
 20
149.739
 11
-157.555
 21
149.48
  0
LINE
  8
0
 10
-157.555
 20
149.48
 11
-157.622
 21
149.227
  0
LINE
  8
0
 10
-157.622
 20
149.227
 11
-157.716
 21
148.983
  0
LINE
  8
0
 10
-157.716
 20
148.983
 11
-157.835
 21
148.75
  0
LINE
  8
0
 10
-157.835
 20
148.75
 11
-157.977
 21
148.531
  0
LINE
  8
0
 10
-157.977
 20
148.531
 11
-158.142
 21
148.327
  0
LINE
  8
0
 10
-158.142
 20
148.327
 11
-158.327
 21
148.142
  0
LINE
  8
0
 10
-158.327
 20
148.142
 11
-158.531
 21
147.977
  0
LINE
  8
0
 10
-158.531
 20
147.977
 11
-158.75
 21
147.835
  0
LINE
  8
0
 10
-158.75
 20
147.835
 11
-158.983
 21
147.716
  0
LINE
  8
0
 10
-158.983
 20
147.716
 11
-159.227
 21
147.622
  0
LINE
  8
0
 10
-159.227
 20
147.622
 11
-159.48
 21
147.555
  0
LINE
  8
0
 10
-159.48
 20
147.555
 11
-159.739
 21
147.514
  0
LINE
  8
0
 10
-159.739
 20
147.514
 11
-160
 21
147.5
  0
LINE
  8
0
 10
-160
 20
147.5
 11
-160.261
 21
147.514
  0
LINE
  8
0
 10
-0.246307
 20
92.8138
 11
-0.489532
 21
92.8551
  0
LINE
  8
0
 10
-0.489532
 20
92.8551
 11
-0.726608
 21
92.9234
  0
LINE
  8
0
 10
-0.726608
 20
92.9234
 11
-0.954544
 21
93.0179
  0
LINE
  8
0
 10
-0.954544
 20
93.0179
 11
-1.17046
 21
93.1372
  0
LINE
  8
0
 10
-1.17046
 20
93.1372
 11
-1.37167
 21
93.28
  0
LINE
  8
0
 10
-1.37167
 20
93.28
 11
-1.55563
 21
93.4444
  0
LINE
  8
0
 10
-1.55563
 20
93.4444
 11
-1.72002
 21
93.6283
  0
LINE
  8
0
 10
-1.72002
 20
93.6283
 11
-1.86279
 21
93.8295
  0
LINE
  8
0
 10
-1.86279
 20
93.8295
 11
-1.98212
 21
94.0454
  0
LINE
  8
0
 10
-1.98212
 20
94.0454
 11
-2.07654
 21
94.2734
  0
LINE
  8
0
 10
-2.07654
 20
94.2734
 11
-2.14484
 21
94.5105
  0
LINE
  8
0
 10
-2.14484
 20
94.5105
 11
-2.18616
 21
94.7537
  0
LINE
  8
0
 10
-2.18616
 20
94.7537
 11
-2.2
 21
95
  0
LINE
  8
0
 10
-2.2
 20
95
 11
-2.18616
 21
95.2463
  0
LINE
  8
0
 10
-2.18616
 20
95.2463
 11
-2.14484
 21
95.4895
  0
LINE
  8
0
 10
-2.14484
 20
95.4895
 11
-2.07654
 21
95.7266
  0
LINE
  8
0
 10
-2.07654
 20
95.7266
 11
-1.98212
 21
95.9545
  0
LINE
  8
0
 10
-1.98212
 20
95.9545
 11
-1.86279
 21
96.1705
  0
LINE
  8
0
 10
-1.86279
 20
96.1705
 11
-1.72002
 21
96.3717
  0
LINE
  8
0
 10
-1.72002
 20
96.3717
 11
-1.55563
 21
96.5556
  0
LINE
  8
0
 10
-1.55563
 20
96.5556
 11
-1.37167
 21
96.72
  0
LINE
  8
0
 10
-1.37167
 20
96.72
 11
-1.17046
 21
96.8628
  0
LINE
  8
0
 10
-1.17046
 20
96.8628
 11
-0.954544
 21
96.9821
  0
LINE
  8
0
 10
-0.954544
 20
96.9821
 11
-0.726608
 21
97.0765
  0
LINE
  8
0
 10
-0.726608
 20
97.0765
 11
-0.489532
 21
97.1448
  0
LINE
  8
0
 10
-0.489532
 20
97.1448
 11
-0.246307
 21
97.1862
  0
LINE
  8
0
 10
-0.246307
 20
97.1862
 11
0
 21
97.2
  0
LINE
  8
0
 10
0
 20
97.2
 11
0.246307
 21
97.1862
  0
LINE
  8
0
 10
0.246307
 20
97.1862
 11
0.489532
 21
97.1448
  0
LINE
  8
0
 10
0.489532
 20
97.1448
 11
0.726608
 21
97.0765
  0
LINE
  8
0
 10
0.726608
 20
97.0765
 11
0.954544
 21
96.9821
  0
LINE
  8
0
 10
0.954544
 20
96.9821
 11
1.17046
 21
96.8628
  0
LINE
  8
0
 10
1.17046
 20
96.8628
 11
1.37167
 21
96.72
  0
LINE
  8
0
 10
1.37167
 20
96.72
 11
1.55563
 21
96.5556
  0
LINE
  8
0
 10
1.55563
 20
96.5556
 11
1.72002
 21
96.3717
  0
LINE
  8
0
 10
1.72002
 20
96.3717
 11
1.86279
 21
96.1705
  0
LINE
  8
0
 10
1.86279
 20
96.1705
 11
1.98212
 21
95.9545
  0
LINE
  8
0
 10
1.98212
 20
95.9545
 11
2.07654
 21
95.7266
  0
LINE
  8
0
 10
2.07654
 20
95.7266
 11
2.14484
 21
95.4895
  0
LINE
  8
0
 10
2.14484
 20
95.4895
 11
2.18616
 21
95.2463
  0
LINE
  8
0
 10
2.18616
 20
95.2463
 11
2.2
 21
95
  0
LINE
  8
0
 10
2.2
 20
95
 11
2.18616
 21
94.7537
  0
LINE
  8
0
 10
2.18616
 20
94.7537
 11
2.14484
 21
94.5105
  0
LINE
  8
0
 10
2.14484
 20
94.5105
 11
2.07654
 21
94.2734
  0
LINE
  8
0
 10
2.07654
 20
94.2734
 11
1.98212
 21
94.0454
  0
LINE
  8
0
 10
1.98212
 20
94.0454
 11
1.86279
 21
93.8295
  0
LINE
  8
0
 10
1.86279
 20
93.8295
 11
1.72002
 21
93.6283
  0
LINE
  8
0
 10
1.72002
 20
93.6283
 11
1.55563
 21
93.4444
  0
LINE
  8
0
 10
1.55563
 20
93.4444
 11
1.37167
 21
93.28
  0
LINE
  8
0
 10
1.37167
 20
93.28
 11
1.17046
 21
93.1372
  0
LINE
  8
0
 10
1.17046
 20
93.1372
 11
0.954544
 21
93.0179
  0
LINE
  8
0
 10
0.954544
 20
93.0179
 11
0.726608
 21
92.9234
  0
LINE
  8
0
 10
0.726608
 20
92.9234
 11
0.489532
 21
92.8551
  0
LINE
  8
0
 10
0.489532
 20
92.8551
 11
0.246307
 21
92.8138
  0
LINE
  8
0
 10
0.246307
 20
92.8138
 11
0
 21
92.8
  0
LINE
  8
0
 10
0
 20
92.8
 11
-0.246307
 21
92.8138
  0
LINE
  8
0
 10
-100.246
 20
92.8138
 11
-100.49
 21
92.8551
  0
LINE
  8
0
 10
-100.49
 20
92.8551
 11
-100.727
 21
92.9234
  0
LINE
  8
0
 10
-100.727
 20
92.9234
 11
-100.955
 21
93.0179
  0
LINE
  8
0
 10
-100.955
 20
93.0179
 11
-101.17
 21
93.1372
  0
LINE
  8
0
 10
-101.17
 20
93.1372
 11
-101.372
 21
93.28
  0
LINE
  8
0
 10
-101.372
 20
93.28
 11
-101.556
 21
93.4444
  0
LINE
  8
0
 10
-101.556
 20
93.4444
 11
-101.72
 21
93.6283
  0
LINE
  8
0
 10
-101.72
 20
93.6283
 11
-101.863
 21
93.8295
  0
LINE
  8
0
 10
-101.863
 20
93.8295
 11
-101.982
 21
94.0454
  0
LINE
  8
0
 10
-101.982
 20
94.0454
 11
-102.077
 21
94.2734
  0
LINE
  8
0
 10
-102.077
 20
94.2734
 11
-102.145
 21
94.5105
  0
LINE
  8
0
 10
-102.145
 20
94.5105
 11
-102.186
 21
94.7537
  0
LINE
  8
0
 10
-102.186
 20
94.7537
 11
-102.2
 21
95
  0
LINE
  8
0
 10
-102.2
 20
95
 11
-102.186
 21
95.2463
  0
LINE
  8
0
 10
-102.186
 20
95.2463
 11
-102.145
 21
95.4895
  0
LINE
  8
0
 10
-102.145
 20
95.4895
 11
-102.077
 21
95.7266
  0
LINE
  8
0
 10
-102.077
 20
95.7266
 11
-101.982
 21
95.9545
  0
LINE
  8
0
 10
-101.982
 20
95.9545
 11
-101.863
 21
96.1705
  0
LINE
  8
0
 10
-101.863
 20
96.1705
 11
-101.72
 21
96.3717
  0
LINE
  8
0
 10
-101.72
 20
96.3717
 11
-101.556
 21
96.5556
  0
LINE
  8
0
 10
-101.556
 20
96.5556
 11
-101.372
 21
96.72
  0
LINE
  8
0
 10
-101.372
 20
96.72
 11
-101.17
 21
96.8628
  0
LINE
  8
0
 10
-101.17
 20
96.8628
 11
-100.955
 21
96.9821
  0
LINE
  8
0
 10
-100.955
 20
96.9821
 11
-100.727
 21
97.0765
  0
LINE
  8
0
 10
-100.727
 20
97.0765
 11
-100.49
 21
97.1448
  0
LINE
  8
0
 10
-100.49
 20
97.1448
 11
-100.246
 21
97.1862
  0
LINE
  8
0
 10
-100.246
 20
97.1862
 11
-100
 21
97.2
  0
LINE
  8
0
 10
-100
 20
97.2
 11
-99.7537
 21
97.1862
  0
LINE
  8
0
 10
-99.7537
 20
97.1862
 11
-99.5105
 21
97.1448
  0
LINE
  8
0
 10
-99.5105
 20
97.1448
 11
-99.2734
 21
97.0765
  0
LINE
  8
0
 10
-99.2734
 20
97.0765
 11
-99.0454
 21
96.9821
  0
LINE
  8
0
 10
-99.0454
 20
96.9821
 11
-98.8295
 21
96.8628
  0
LINE
  8
0
 10
-98.8295
 20
96.8628
 11
-98.6283
 21
96.72
  0
LINE
  8
0
 10
-98.6283
 20
96.72
 11
-98.4444
 21
96.5556
  0
LINE
  8
0
 10
-98.4444
 20
96.5556
 11
-98.28
 21
96.3717
  0
LINE
  8
0
 10
-98.28
 20
96.3717
 11
-98.1372
 21
96.1705
  0
LINE
  8
0
 10
-98.1372
 20
96.1705
 11
-98.0179
 21
95.9545
  0
LINE
  8
0
 10
-98.0179
 20
95.9545
 11
-97.9234
 21
95.7266
  0
LINE
  8
0
 10
-97.9234
 20
95.7266
 11
-97.8551
 21
95.4895
  0
LINE
  8
0
 10
-97.8551
 20
95.4895
 11
-97.8138
 21
95.2463
  0
LINE
  8
0
 10
-97.8138
 20
95.2463
 11
-97.8
 21
95
  0
LINE
  8
0
 10
-97.8
 20
95
 11
-97.8138
 21
94.7537
  0
LINE
  8
0
 10
-97.8138
 20
94.7537
 11
-97.8551
 21
94.5105
  0
LINE
  8
0
 10
-97.8551
 20
94.5105
 11
-97.9234
 21
94.2734
  0
LINE
  8
0
 10
-97.9234
 20
94.2734
 11
-98.0179
 21
94.0454
  0
LINE
  8
0
 10
-98.0179
 20
94.0454
 11
-98.1372
 21
93.8295
  0
LINE
  8
0
 10
-98.1372
 20
93.8295
 11
-98.28
 21
93.6283
  0
LINE
  8
0
 10
-98.28
 20
93.6283
 11
-98.4444
 21
93.4444
  0
LINE
  8
0
 10
-98.4444
 20
93.4444
 11
-98.6283
 21
93.28
  0
LINE
  8
0
 10
-98.6283
 20
93.28
 11
-98.8295
 21
93.1372
  0
LINE
  8
0
 10
-98.8295
 20
93.1372
 11
-99.0454
 21
93.0179
  0
LINE
  8
0
 10
-99.0454
 20
93.0179
 11
-99.2734
 21
92.9234
  0
LINE
  8
0
 10
-99.2734
 20
92.9234
 11
-99.5105
 21
92.8551
  0
LINE
  8
0
 10
-99.5105
 20
92.8551
 11
-99.7537
 21
92.8138
  0
LINE
  8
0
 10
-99.7537
 20
92.8138
 11
-100
 21
92.8
  0
LINE
  8
0
 10
-100
 20
92.8
 11
-100.246
 21
92.8138
  0
LINE
  8
0
 10
99.7537
 20
92.8138
 11
99.5105
 21
92.8551
  0
LINE
  8
0
 10
99.5105
 20
92.8551
 11
99.2734
 21
92.9234
  0
LINE
  8
0
 10
99.2734
 20
92.9234
 11
99.0454
 21
93.0179
  0
LINE
  8
0
 10
99.0454
 20
93.0179
 11
98.8295
 21
93.1372
  0
LINE
  8
0
 10
98.8295
 20
93.1372
 11
98.6283
 21
93.28
  0
LINE
  8
0
 10
98.6283
 20
93.28
 11
98.4444
 21
93.4444
  0
LINE
  8
0
 10
98.4444
 20
93.4444
 11
98.28
 21
93.6283
  0
LINE
  8
0
 10
98.28
 20
93.6283
 11
98.1372
 21
93.8295
  0
LINE
  8
0
 10
98.1372
 20
93.8295
 11
98.0179
 21
94.0454
  0
LINE
  8
0
 10
98.0179
 20
94.0454
 11
97.9234
 21
94.2734
  0
LINE
  8
0
 10
97.9234
 20
94.2734
 11
97.8551
 21
94.5105
  0
LINE
  8
0
 10
97.8551
 20
94.5105
 11
97.8138
 21
94.7537
  0
LINE
  8
0
 10
97.8138
 20
94.7537
 11
97.8
 21
95
  0
LINE
  8
0
 10
97.8
 20
95
 11
97.8138
 21
95.2463
  0
LINE
  8
0
 10
97.8138
 20
95.2463
 11
97.8551
 21
95.4895
  0
LINE
  8
0
 10
97.8551
 20
95.4895
 11
97.9234
 21
95.7266
  0
LINE
  8
0
 10
97.9234
 20
95.7266
 11
98.0179
 21
95.9545
  0
LINE
  8
0
 10
98.0179
 20
95.9545
 11
98.1372
 21
96.1705
  0
LINE
  8
0
 10
98.1372
 20
96.1705
 11
98.28
 21
96.3717
  0
LINE
  8
0
 10
98.28
 20
96.3717
 11
98.4444
 21
96.5556
  0
LINE
  8
0
 10
98.4444
 20
96.5556
 11
98.6283
 21
96.72
  0
LINE
  8
0
 10
98.6283
 20
96.72
 11
98.8295
 21
96.8628
  0
LINE
  8
0
 10
98.8295
 20
96.8628
 11
99.0454
 21
96.9821
  0
LINE
  8
0
 10
99.0454
 20
96.9821
 11
99.2734
 21
97.0765
  0
LINE
  8
0
 10
99.2734
 20
97.0765
 11
99.5105
 21
97.1448
  0
LINE
  8
0
 10
99.5105
 20
97.1448
 11
99.7537
 21
97.1862
  0
LINE
  8
0
 10
99.7537
 20
97.1862
 11
100
 21
97.2
  0
LINE
  8
0
 10
100
 20
97.2
 11
100.246
 21
97.1862
  0
LINE
  8
0
 10
100.246
 20
97.1862
 11
100.49
 21
97.1448
  0
LINE
  8
0
 10
100.49
 20
97.1448
 11
100.727
 21
97.0765
  0
LINE
  8
0
 10
100.727
 20
97.0765
 11
100.955
 21
96.9821
  0
LINE
  8
0
 10
100.955
 20
96.9821
 11
101.17
 21
96.8628
  0
LINE
  8
0
 10
101.17
 20
96.8628
 11
101.372
 21
96.72
  0
LINE
  8
0
 10
101.372
 20
96.72
 11
101.556
 21
96.5556
  0
LINE
  8
0
 10
101.556
 20
96.5556
 11
101.72
 21
96.3717
  0
LINE
  8
0
 10
101.72
 20
96.3717
 11
101.863
 21
96.1705
  0
LINE
  8
0
 10
101.863
 20
96.1705
 11
101.982
 21
95.9545
  0
LINE
  8
0
 10
101.982
 20
95.9545
 11
102.077
 21
95.7266
  0
LINE
  8
0
 10
102.077
 20
95.7266
 11
102.145
 21
95.4895
  0
LINE
  8
0
 10
102.145
 20
95.4895
 11
102.186
 21
95.2463
  0
LINE
  8
0
 10
102.186
 20
95.2463
 11
102.2
 21
95
  0
LINE
  8
0
 10
102.2
 20
95
 11
102.186
 21
94.7537
  0
LINE
  8
0
 10
102.186
 20
94.7537
 11
102.145
 21
94.5105
  0
LINE
  8
0
 10
102.145
 20
94.5105
 11
102.077
 21
94.2734
  0
LINE
  8
0
 10
102.077
 20
94.2734
 11
101.982
 21
94.0454
  0
LINE
  8
0
 10
101.982
 20
94.0454
 11
101.863
 21
93.8295
  0
LINE
  8
0
 10
101.863
 20
93.8295
 11
101.72
 21
93.6283
  0
LINE
  8
0
 10
101.72
 20
93.6283
 11
101.556
 21
93.4444
  0
LINE
  8
0
 10
101.556
 20
93.4444
 11
101.372
 21
93.28
  0
LINE
  8
0
 10
101.372
 20
93.28
 11
101.17
 21
93.1372
  0
LINE
  8
0
 10
101.17
 20
93.1372
 11
100.955
 21
93.0179
  0
LINE
  8
0
 10
100.955
 20
93.0179
 11
100.727
 21
92.9234
  0
LINE
  8
0
 10
100.727
 20
92.9234
 11
100.49
 21
92.8551
  0
LINE
  8
0
 10
100.49
 20
92.8551
 11
100.246
 21
92.8138
  0
LINE
  8
0
 10
100.246
 20
92.8138
 11
100
 21
92.8
  0
LINE
  8
0
 10
100
 20
92.8
 11
99.7537
 21
92.8138
  0
LINE
  8
0
 10
-160.246
 20
57.8138
 11
-160.49
 21
57.8551
  0
LINE
  8
0
 10
-160.49
 20
57.8551
 11
-160.727
 21
57.9234
  0
LINE
  8
0
 10
-160.727
 20
57.9234
 11
-160.955
 21
58.0179
  0
LINE
  8
0
 10
-160.955
 20
58.0179
 11
-161.17
 21
58.1372
  0
LINE
  8
0
 10
-161.17
 20
58.1372
 11
-161.372
 21
58.28
  0
LINE
  8
0
 10
-161.372
 20
58.28
 11
-161.556
 21
58.4444
  0
LINE
  8
0
 10
-161.556
 20
58.4444
 11
-161.72
 21
58.6283
  0
LINE
  8
0
 10
-161.72
 20
58.6283
 11
-161.863
 21
58.8295
  0
LINE
  8
0
 10
-161.863
 20
58.8295
 11
-161.982
 21
59.0454
  0
LINE
  8
0
 10
-161.982
 20
59.0454
 11
-162.077
 21
59.2734
  0
LINE
  8
0
 10
-162.077
 20
59.2734
 11
-162.145
 21
59.5105
  0
LINE
  8
0
 10
-162.145
 20
59.5105
 11
-162.186
 21
59.7537
  0
LINE
  8
0
 10
-162.186
 20
59.7537
 11
-162.2
 21
60
  0
LINE
  8
0
 10
-162.2
 20
60
 11
-162.186
 21
60.2463
  0
LINE
  8
0
 10
-162.186
 20
60.2463
 11
-162.145
 21
60.4895
  0
LINE
  8
0
 10
-162.145
 20
60.4895
 11
-162.077
 21
60.7266
  0
LINE
  8
0
 10
-162.077
 20
60.7266
 11
-161.982
 21
60.9545
  0
LINE
  8
0
 10
-161.982
 20
60.9545
 11
-161.863
 21
61.1705
  0
LINE
  8
0
 10
-161.863
 20
61.1705
 11
-161.72
 21
61.3717
  0
LINE
  8
0
 10
-161.72
 20
61.3717
 11
-161.556
 21
61.5556
  0
LINE
  8
0
 10
-161.556
 20
61.5556
 11
-161.372
 21
61.72
  0
LINE
  8
0
 10
-161.372
 20
61.72
 11
-161.17
 21
61.8628
  0
LINE
  8
0
 10
-161.17
 20
61.8628
 11
-160.955
 21
61.9821
  0
LINE
  8
0
 10
-160.955
 20
61.9821
 11
-160.727
 21
62.0765
  0
LINE
  8
0
 10
-160.727
 20
62.0765
 11
-160.49
 21
62.1448
  0
LINE
  8
0
 10
-160.49
 20
62.1448
 11
-160.246
 21
62.1862
  0
LINE
  8
0
 10
-160.246
 20
62.1862
 11
-160
 21
62.2
  0
LINE
  8
0
 10
-160
 20
62.2
 11
-159.754
 21
62.1862
  0
LINE
  8
0
 10
-159.754
 20
62.1862
 11
-159.51
 21
62.1448
  0
LINE
  8
0
 10
-159.51
 20
62.1448
 11
-159.273
 21
62.0765
  0
LINE
  8
0
 10
-159.273
 20
62.0765
 11
-159.045
 21
61.9821
  0
LINE
  8
0
 10
-159.045
 20
61.9821
 11
-158.83
 21
61.8628
  0
LINE
  8
0
 10
-158.83
 20
61.8628
 11
-158.628
 21
61.72
  0
LINE
  8
0
 10
-158.628
 20
61.72
 11
-158.444
 21
61.5556
  0
LINE
  8
0
 10
-158.444
 20
61.5556
 11
-158.28
 21
61.3717
  0
LINE
  8
0
 10
-158.28
 20
61.3717
 11
-158.137
 21
61.1705
  0
LINE
  8
0
 10
-158.137
 20
61.1705
 11
-158.018
 21
60.9545
  0
LINE
  8
0
 10
-158.018
 20
60.9545
 11
-157.923
 21
60.7266
  0
LINE
  8
0
 10
-157.923
 20
60.7266
 11
-157.855
 21
60.4895
  0
LINE
  8
0
 10
-157.855
 20
60.4895
 11
-157.814
 21
60.2463
  0
LINE
  8
0
 10
-157.814
 20
60.2463
 11
-157.8
 21
60
  0
LINE
  8
0
 10
-157.8
 20
60
 11
-157.814
 21
59.7537
  0
LINE
  8
0
 10
-157.814
 20
59.7537
 11
-157.855
 21
59.5105
  0
LINE
  8
0
 10
-157.855
 20
59.5105
 11
-157.923
 21
59.2734
  0
LINE
  8
0
 10
-157.923
 20
59.2734
 11
-158.018
 21
59.0454
  0
LINE
  8
0
 10
-158.018
 20
59.0454
 11
-158.137
 21
58.8295
  0
LINE
  8
0
 10
-158.137
 20
58.8295
 11
-158.28
 21
58.6283
  0
LINE
  8
0
 10
-158.28
 20
58.6283
 11
-158.444
 21
58.4444
  0
LINE
  8
0
 10
-158.444
 20
58.4444
 11
-158.628
 21
58.28
  0
LINE
  8
0
 10
-158.628
 20
58.28
 11
-158.83
 21
58.1372
  0
LINE
  8
0
 10
-158.83
 20
58.1372
 11
-159.045
 21
58.0179
  0
LINE
  8
0
 10
-159.045
 20
58.0179
 11
-159.273
 21
57.9234
  0
LINE
  8
0
 10
-159.273
 20
57.9234
 11
-159.51
 21
57.8551
  0
LINE
  8
0
 10
-159.51
 20
57.8551
 11
-159.754
 21
57.8138
  0
LINE
  8
0
 10
-159.754
 20
57.8138
 11
-160
 21
57.8
  0
LINE
  8
0
 10
-160
 20
57.8
 11
-160.246
 21
57.8138
  0
LINE
  8
0
 10
159.754
 20
57.8138
 11
159.51
 21
57.8551
  0
LINE
  8
0
 10
159.51
 20
57.8551
 11
159.273
 21
57.9234
  0
LINE
  8
0
 10
159.273
 20
57.9234
 11
159.045
 21
58.0179
  0
LINE
  8
0
 10
159.045
 20
58.0179
 11
158.83
 21
58.1372
  0
LINE
  8
0
 10
158.83
 20
58.1372
 11
158.628
 21
58.28
  0
LINE
  8
0
 10
158.628
 20
58.28
 11
158.444
 21
58.4444
  0
LINE
  8
0
 10
158.444
 20
58.4444
 11
158.28
 21
58.6283
  0
LINE
  8
0
 10
158.28
 20
58.6283
 11
158.137
 21
58.8295
  0
LINE
  8
0
 10
158.137
 20
58.8295
 11
158.018
 21
59.0454
  0
LINE
  8
0
 10
158.018
 20
59.0454
 11
157.923
 21
59.2734
  0
LINE
  8
0
 10
157.923
 20
59.2734
 11
157.855
 21
59.5105
  0
LINE
  8
0
 10
157.855
 20
59.5105
 11
157.814
 21
59.7537
  0
LINE
  8
0
 10
157.814
 20
59.7537
 11
157.8
 21
60
  0
LINE
  8
0
 10
157.8
 20
60
 11
157.814
 21
60.2463
  0
LINE
  8
0
 10
157.814
 20
60.2463
 11
157.855
 21
60.4895
  0
LINE
  8
0
 10
157.855
 20
60.4895
 11
157.923
 21
60.7266
  0
LINE
  8
0
 10
157.923
 20
60.7266
 11
158.018
 21
60.9545
  0
LINE
  8
0
 10
158.018
 20
60.9545
 11
158.137
 21
61.1705
  0
LINE
  8
0
 10
158.137
 20
61.1705
 11
158.28
 21
61.3717
  0
LINE
  8
0
 10
158.28
 20
61.3717
 11
158.444
 21
61.5556
  0
LINE
  8
0
 10
158.444
 20
61.5556
 11
158.628
 21
61.72
  0
LINE
  8
0
 10
158.628
 20
61.72
 11
158.83
 21
61.8628
  0
LINE
  8
0
 10
158.83
 20
61.8628
 11
159.045
 21
61.9821
  0
LINE
  8
0
 10
159.045
 20
61.9821
 11
159.273
 21
62.0765
  0
LINE
  8
0
 10
159.273
 20
62.0765
 11
159.51
 21
62.1448
  0
LINE
  8
0
 10
159.51
 20
62.1448
 11
159.754
 21
62.1862
  0
LINE
  8
0
 10
159.754
 20
62.1862
 11
160
 21
62.2
  0
LINE
  8
0
 10
160
 20
62.2
 11
160.246
 21
62.1862
  0
LINE
  8
0
 10
160.246
 20
62.1862
 11
160.49
 21
62.1448
  0
LINE
  8
0
 10
160.49
 20
62.1448
 11
160.727
 21
62.0765
  0
LINE
  8
0
 10
160.727
 20
62.0765
 11
160.955
 21
61.9821
  0
LINE
  8
0
 10
160.955
 20
61.9821
 11
161.17
 21
61.8628
  0
LINE
  8
0
 10
161.17
 20
61.8628
 11
161.372
 21
61.72
  0
LINE
  8
0
 10
161.372
 20
61.72
 11
161.556
 21
61.5556
  0
LINE
  8
0
 10
161.556
 20
61.5556
 11
161.72
 21
61.3717
  0
LINE
  8
0
 10
161.72
 20
61.3717
 11
161.863
 21
61.1705
  0
LINE
  8
0
 10
161.863
 20
61.1705
 11
161.982
 21
60.9545
  0
LINE
  8
0
 10
161.982
 20
60.9545
 11
162.077
 21
60.7266
  0
LINE
  8
0
 10
162.077
 20
60.7266
 11
162.145
 21
60.4895
  0
LINE
  8
0
 10
162.145
 20
60.4895
 11
162.186
 21
60.2463
  0
LINE
  8
0
 10
162.186
 20
60.2463
 11
162.2
 21
60
  0
LINE
  8
0
 10
162.2
 20
60
 11
162.186
 21
59.7537
  0
LINE
  8
0
 10
162.186
 20
59.7537
 11
162.145
 21
59.5105
  0
LINE
  8
0
 10
162.145
 20
59.5105
 11
162.077
 21
59.2734
  0
LINE
  8
0
 10
162.077
 20
59.2734
 11
161.982
 21
59.0454
  0
LINE
  8
0
 10
161.982
 20
59.0454
 11
161.863
 21
58.8295
  0
LINE
  8
0
 10
161.863
 20
58.8295
 11
161.72
 21
58.6283
  0
LINE
  8
0
 10
161.72
 20
58.6283
 11
161.556
 21
58.4444
  0
LINE
  8
0
 10
161.556
 20
58.4444
 11
161.372
 21
58.28
  0
LINE
  8
0
 10
161.372
 20
58.28
 11
161.17
 21
58.1372
  0
LINE
  8
0
 10
161.17
 20
58.1372
 11
160.955
 21
58.0179
  0
LINE
  8
0
 10
160.955
 20
58.0179
 11
160.727
 21
57.9234
  0
LINE
  8
0
 10
160.727
 20
57.9234
 11
160.49
 21
57.8551
  0
LINE
  8
0
 10
160.49
 20
57.8551
 11
160.246
 21
57.8138
  0
LINE
  8
0
 10
160.246
 20
57.8138
 11
160
 21
57.8
  0
LINE
  8
0
 10
160
 20
57.8
 11
159.754
 21
57.8138
  0
LINE
  8
0
 10
-160.246
 20
-62.1862
 11
-160.49
 21
-62.1448
  0
LINE
  8
0
 10
-160.49
 20
-62.1448
 11
-160.727
 21
-62.0765
  0
LINE
  8
0
 10
-160.727
 20
-62.0765
 11
-160.955
 21
-61.9821
  0
LINE
  8
0
 10
-160.955
 20
-61.9821
 11
-161.17
 21
-61.8628
  0
LINE
  8
0
 10
-161.17
 20
-61.8628
 11
-161.372
 21
-61.72
  0
LINE
  8
0
 10
-161.372
 20
-61.72
 11
-161.556
 21
-61.5556
  0
LINE
  8
0
 10
-161.556
 20
-61.5556
 11
-161.72
 21
-61.3717
  0
LINE
  8
0
 10
-161.72
 20
-61.3717
 11
-161.863
 21
-61.1705
  0
LINE
  8
0
 10
-161.863
 20
-61.1705
 11
-161.982
 21
-60.9545
  0
LINE
  8
0
 10
-161.982
 20
-60.9545
 11
-162.077
 21
-60.7266
  0
LINE
  8
0
 10
-162.077
 20
-60.7266
 11
-162.145
 21
-60.4895
  0
LINE
  8
0
 10
-162.145
 20
-60.4895
 11
-162.186
 21
-60.2463
  0
LINE
  8
0
 10
-162.186
 20
-60.2463
 11
-162.2
 21
-60
  0
LINE
  8
0
 10
-162.2
 20
-60
 11
-162.186
 21
-59.7537
  0
LINE
  8
0
 10
-162.186
 20
-59.7537
 11
-162.145
 21
-59.5105
  0
LINE
  8
0
 10
-162.145
 20
-59.5105
 11
-162.077
 21
-59.2734
  0
LINE
  8
0
 10
-162.077
 20
-59.2734
 11
-161.982
 21
-59.0454
  0
LINE
  8
0
 10
-161.982
 20
-59.0454
 11
-161.863
 21
-58.8295
  0
LINE
  8
0
 10
-161.863
 20
-58.8295
 11
-161.72
 21
-58.6283
  0
LINE
  8
0
 10
-161.72
 20
-58.6283
 11
-161.556
 21
-58.4444
  0
LINE
  8
0
 10
-161.556
 20
-58.4444
 11
-161.372
 21
-58.28
  0
LINE
  8
0
 10
-161.372
 20
-58.28
 11
-161.17
 21
-58.1372
  0
LINE
  8
0
 10
-161.17
 20
-58.1372
 11
-160.955
 21
-58.0179
  0
LINE
  8
0
 10
-160.955
 20
-58.0179
 11
-160.727
 21
-57.9234
  0
LINE
  8
0
 10
-160.727
 20
-57.9234
 11
-160.49
 21
-57.8551
  0
LINE
  8
0
 10
-160.49
 20
-57.8551
 11
-160.246
 21
-57.8138
  0
LINE
  8
0
 10
-160.246
 20
-57.8138
 11
-160
 21
-57.8
  0
LINE
  8
0
 10
-160
 20
-57.8
 11
-159.754
 21
-57.8138
  0
LINE
  8
0
 10
-159.754
 20
-57.8138
 11
-159.51
 21
-57.8551
  0
LINE
  8
0
 10
-159.51
 20
-57.8551
 11
-159.273
 21
-57.9234
  0
LINE
  8
0
 10
-159.273
 20
-57.9234
 11
-159.045
 21
-58.0179
  0
LINE
  8
0
 10
-159.045
 20
-58.0179
 11
-158.83
 21
-58.1372
  0
LINE
  8
0
 10
-158.83
 20
-58.1372
 11
-158.628
 21
-58.28
  0
LINE
  8
0
 10
-158.628
 20
-58.28
 11
-158.444
 21
-58.4444
  0
LINE
  8
0
 10
-158.444
 20
-58.4444
 11
-158.28
 21
-58.6283
  0
LINE
  8
0
 10
-158.28
 20
-58.6283
 11
-158.137
 21
-58.8295
  0
LINE
  8
0
 10
-158.137
 20
-58.8295
 11
-158.018
 21
-59.0454
  0
LINE
  8
0
 10
-158.018
 20
-59.0454
 11
-157.923
 21
-59.2734
  0
LINE
  8
0
 10
-157.923
 20
-59.2734
 11
-157.855
 21
-59.5105
  0
LINE
  8
0
 10
-157.855
 20
-59.5105
 11
-157.814
 21
-59.7537
  0
LINE
  8
0
 10
-157.814
 20
-59.7537
 11
-157.8
 21
-60
  0
LINE
  8
0
 10
-157.8
 20
-60
 11
-157.814
 21
-60.2463
  0
LINE
  8
0
 10
-157.814
 20
-60.2463
 11
-157.855
 21
-60.4895
  0
LINE
  8
0
 10
-157.855
 20
-60.4895
 11
-157.923
 21
-60.7266
  0
LINE
  8
0
 10
-157.923
 20
-60.7266
 11
-158.018
 21
-60.9545
  0
LINE
  8
0
 10
-158.018
 20
-60.9545
 11
-158.137
 21
-61.1705
  0
LINE
  8
0
 10
-158.137
 20
-61.1705
 11
-158.28
 21
-61.3717
  0
LINE
  8
0
 10
-158.28
 20
-61.3717
 11
-158.444
 21
-61.5556
  0
LINE
  8
0
 10
-158.444
 20
-61.5556
 11
-158.628
 21
-61.72
  0
LINE
  8
0
 10
-158.628
 20
-61.72
 11
-158.83
 21
-61.8628
  0
LINE
  8
0
 10
-158.83
 20
-61.8628
 11
-159.045
 21
-61.9821
  0
LINE
  8
0
 10
-159.045
 20
-61.9821
 11
-159.273
 21
-62.0765
  0
LINE
  8
0
 10
-159.273
 20
-62.0765
 11
-159.51
 21
-62.1448
  0
LINE
  8
0
 10
-159.51
 20
-62.1448
 11
-159.754
 21
-62.1862
  0
LINE
  8
0
 10
-159.754
 20
-62.1862
 11
-160
 21
-62.2
  0
LINE
  8
0
 10
-160
 20
-62.2
 11
-160.246
 21
-62.1862
  0
LINE
  8
0
 10
159.754
 20
-62.1862
 11
159.51
 21
-62.1448
  0
LINE
  8
0
 10
159.51
 20
-62.1448
 11
159.273
 21
-62.0765
  0
LINE
  8
0
 10
159.273
 20
-62.0765
 11
159.045
 21
-61.9821
  0
LINE
  8
0
 10
159.045
 20
-61.9821
 11
158.83
 21
-61.8628
  0
LINE
  8
0
 10
158.83
 20
-61.8628
 11
158.628
 21
-61.72
  0
LINE
  8
0
 10
158.628
 20
-61.72
 11
158.444
 21
-61.5556
  0
LINE
  8
0
 10
158.444
 20
-61.5556
 11
158.28
 21
-61.3717
  0
LINE
  8
0
 10
158.28
 20
-61.3717
 11
158.137
 21
-61.1705
  0
LINE
  8
0
 10
158.137
 20
-61.1705
 11
158.018
 21
-60.9545
  0
LINE
  8
0
 10
158.018
 20
-60.9545
 11
157.923
 21
-60.7266
  0
LINE
  8
0
 10
157.923
 20
-60.7266
 11
157.855
 21
-60.4895
  0
LINE
  8
0
 10
157.855
 20
-60.4895
 11
157.814
 21
-60.2463
  0
LINE
  8
0
 10
157.814
 20
-60.2463
 11
157.8
 21
-60
  0
LINE
  8
0
 10
157.8
 20
-60
 11
157.814
 21
-59.7537
  0
LINE
  8
0
 10
157.814
 20
-59.7537
 11
157.855
 21
-59.5105
  0
LINE
  8
0
 10
157.855
 20
-59.5105
 11
157.923
 21
-59.2734
  0
LINE
  8
0
 10
157.923
 20
-59.2734
 11
158.018
 21
-59.0454
  0
LINE
  8
0
 10
158.018
 20
-59.0454
 11
158.137
 21
-58.8295
  0
LINE
  8
0
 10
158.137
 20
-58.8295
 11
158.28
 21
-58.6283
  0
LINE
  8
0
 10
158.28
 20
-58.6283
 11
158.444
 21
-58.4444
  0
LINE
  8
0
 10
158.444
 20
-58.4444
 11
158.628
 21
-58.28
  0
LINE
  8
0
 10
158.628
 20
-58.28
 11
158.83
 21
-58.1372
  0
LINE
  8
0
 10
158.83
 20
-58.1372
 11
159.045
 21
-58.0179
  0
LINE
  8
0
 10
159.045
 20
-58.0179
 11
159.273
 21
-57.9234
  0
LINE
  8
0
 10
159.273
 20
-57.9234
 11
159.51
 21
-57.8551
  0
LINE
  8
0
 10
159.51
 20
-57.8551
 11
159.754
 21
-57.8138
  0
LINE
  8
0
 10
159.754
 20
-57.8138
 11
160
 21
-57.8
  0
LINE
  8
0
 10
160
 20
-57.8
 11
160.246
 21
-57.8138
  0
LINE
  8
0
 10
160.246
 20
-57.8138
 11
160.49
 21
-57.8551
  0
LINE
  8
0
 10
160.49
 20
-57.8551
 11
160.727
 21
-57.9234
  0
LINE
  8
0
 10
160.727
 20
-57.9234
 11
160.955
 21
-58.0179
  0
LINE
  8
0
 10
160.955
 20
-58.0179
 11
161.17
 21
-58.1372
  0
LINE
  8
0
 10
161.17
 20
-58.1372
 11
161.372
 21
-58.28
  0
LINE
  8
0
 10
161.372
 20
-58.28
 11
161.556
 21
-58.4444
  0
LINE
  8
0
 10
161.556
 20
-58.4444
 11
161.72
 21
-58.6283
  0
LINE
  8
0
 10
161.72
 20
-58.6283
 11
161.863
 21
-58.8295
  0
LINE
  8
0
 10
161.863
 20
-58.8295
 11
161.982
 21
-59.0454
  0
LINE
  8
0
 10
161.982
 20
-59.0454
 11
162.077
 21
-59.2734
  0
LINE
  8
0
 10
162.077
 20
-59.2734
 11
162.145
 21
-59.5105
  0
LINE
  8
0
 10
162.145
 20
-59.5105
 11
162.186
 21
-59.7537
  0
LINE
  8
0
 10
162.186
 20
-59.7537
 11
162.2
 21
-60
  0
LINE
  8
0
 10
162.2
 20
-60
 11
162.186
 21
-60.2463
  0
LINE
  8
0
 10
162.186
 20
-60.2463
 11
162.145
 21
-60.4895
  0
LINE
  8
0
 10
162.145
 20
-60.4895
 11
162.077
 21
-60.7266
  0
LINE
  8
0
 10
162.077
 20
-60.7266
 11
161.982
 21
-60.9545
  0
LINE
  8
0
 10
161.982
 20
-60.9545
 11
161.863
 21
-61.1705
  0
LINE
  8
0
 10
161.863
 20
-61.1705
 11
161.72
 21
-61.3717
  0
LINE
  8
0
 10
161.72
 20
-61.3717
 11
161.556
 21
-61.5556
  0
LINE
  8
0
 10
161.556
 20
-61.5556
 11
161.372
 21
-61.72
  0
LINE
  8
0
 10
161.372
 20
-61.72
 11
161.17
 21
-61.8628
  0
LINE
  8
0
 10
161.17
 20
-61.8628
 11
160.955
 21
-61.9821
  0
LINE
  8
0
 10
160.955
 20
-61.9821
 11
160.727
 21
-62.0765
  0
LINE
  8
0
 10
160.727
 20
-62.0765
 11
160.49
 21
-62.1448
  0
LINE
  8
0
 10
160.49
 20
-62.1448
 11
160.246
 21
-62.1862
  0
LINE
  8
0
 10
160.246
 20
-62.1862
 11
160
 21
-62.2
  0
LINE
  8
0
 10
160
 20
-62.2
 11
159.754
 21
-62.1862
  0
LINE
  8
0
 10
159.754
 20
-182.186
 11
159.51
 21
-182.145
  0
LINE
  8
0
 10
159.51
 20
-182.145
 11
159.273
 21
-182.077
  0
LINE
  8
0
 10
159.273
 20
-182.077
 11
159.045
 21
-181.982
  0
LINE
  8
0
 10
159.045
 20
-181.982
 11
158.83
 21
-181.863
  0
LINE
  8
0
 10
158.83
 20
-181.863
 11
158.628
 21
-181.72
  0
LINE
  8
0
 10
158.628
 20
-181.72
 11
158.444
 21
-181.556
  0
LINE
  8
0
 10
158.444
 20
-181.556
 11
158.28
 21
-181.372
  0
LINE
  8
0
 10
158.28
 20
-181.372
 11
158.137
 21
-181.17
  0
LINE
  8
0
 10
158.137
 20
-181.17
 11
158.018
 21
-180.955
  0
LINE
  8
0
 10
158.018
 20
-180.955
 11
157.923
 21
-180.727
  0
LINE
  8
0
 10
157.923
 20
-180.727
 11
157.855
 21
-180.49
  0
LINE
  8
0
 10
157.855
 20
-180.49
 11
157.814
 21
-180.246
  0
LINE
  8
0
 10
157.814
 20
-180.246
 11
157.8
 21
-180
  0
LINE
  8
0
 10
157.8
 20
-180
 11
157.814
 21
-179.754
  0
LINE
  8
0
 10
157.814
 20
-179.754
 11
157.855
 21
-179.51
  0
LINE
  8
0
 10
157.855
 20
-179.51
 11
157.923
 21
-179.273
  0
LINE
  8
0
 10
157.923
 20
-179.273
 11
158.018
 21
-179.045
  0
LINE
  8
0
 10
158.018
 20
-179.045
 11
158.137
 21
-178.83
  0
LINE
  8
0
 10
158.137
 20
-178.83
 11
158.28
 21
-178.628
  0
LINE
  8
0
 10
158.28
 20
-178.628
 11
158.444
 21
-178.444
  0
LINE
  8
0
 10
158.444
 20
-178.444
 11
158.628
 21
-178.28
  0
LINE
  8
0
 10
158.628
 20
-178.28
 11
158.83
 21
-178.137
  0
LINE
  8
0
 10
158.83
 20
-178.137
 11
159.045
 21
-178.018
  0
LINE
  8
0
 10
159.045
 20
-178.018
 11
159.273
 21
-177.923
  0
LINE
  8
0
 10
159.273
 20
-177.923
 11
159.51
 21
-177.855
  0
LINE
  8
0
 10
159.51
 20
-177.855
 11
159.754
 21
-177.814
  0
LINE
  8
0
 10
159.754
 20
-177.814
 11
160
 21
-177.8
  0
LINE
  8
0
 10
160
 20
-177.8
 11
160.246
 21
-177.814
  0
LINE
  8
0
 10
160.246
 20
-177.814
 11
160.49
 21
-177.855
  0
LINE
  8
0
 10
160.49
 20
-177.855
 11
160.727
 21
-177.923
  0
LINE
  8
0
 10
160.727
 20
-177.923
 11
160.955
 21
-178.018
  0
LINE
  8
0
 10
160.955
 20
-178.018
 11
161.17
 21
-178.137
  0
LINE
  8
0
 10
161.17
 20
-178.137
 11
161.372
 21
-178.28
  0
LINE
  8
0
 10
161.372
 20
-178.28
 11
161.556
 21
-178.444
  0
LINE
  8
0
 10
161.556
 20
-178.444
 11
161.72
 21
-178.628
  0
LINE
  8
0
 10
161.72
 20
-178.628
 11
161.863
 21
-178.83
  0
LINE
  8
0
 10
161.863
 20
-178.83
 11
161.982
 21
-179.045
  0
LINE
  8
0
 10
161.982
 20
-179.045
 11
162.077
 21
-179.273
  0
LINE
  8
0
 10
162.077
 20
-179.273
 11
162.145
 21
-179.51
  0
LINE
  8
0
 10
162.145
 20
-179.51
 11
162.186
 21
-179.754
  0
LINE
  8
0
 10
162.186
 20
-179.754
 11
162.2
 21
-180
  0
LINE
  8
0
 10
162.2
 20
-180
 11
162.186
 21
-180.246
  0
LINE
  8
0
 10
162.186
 20
-180.246
 11
162.145
 21
-180.49
  0
LINE
  8
0
 10
162.145
 20
-180.49
 11
162.077
 21
-180.727
  0
LINE
  8
0
 10
162.077
 20
-180.727
 11
161.982
 21
-180.955
  0
LINE
  8
0
 10
161.982
 20
-180.955
 11
161.863
 21
-181.17
  0
LINE
  8
0
 10
161.863
 20
-181.17
 11
161.72
 21
-181.372
  0
LINE
  8
0
 10
161.72
 20
-181.372
 11
161.556
 21
-181.556
  0
LINE
  8
0
 10
161.556
 20
-181.556
 11
161.372
 21
-181.72
  0
LINE
  8
0
 10
161.372
 20
-181.72
 11
161.17
 21
-181.863
  0
LINE
  8
0
 10
161.17
 20
-181.863
 11
160.955
 21
-181.982
  0
LINE
  8
0
 10
160.955
 20
-181.982
 11
160.727
 21
-182.077
  0
LINE
  8
0
 10
160.727
 20
-182.077
 11
160.49
 21
-182.145
  0
LINE
  8
0
 10
160.49
 20
-182.145
 11
160.246
 21
-182.186
  0
LINE
  8
0
 10
160.246
 20
-182.186
 11
160
 21
-182.2
  0
LINE
  8
0
 10
160
 20
-182.2
 11
159.754
 21
-182.186
  0
LINE
  8
0
 10
-160.246
 20
-182.186
 11
-160.49
 21
-182.145
  0
LINE
  8
0
 10
-160.49
 20
-182.145
 11
-160.727
 21
-182.077
  0
LINE
  8
0
 10
-160.727
 20
-182.077
 11
-160.955
 21
-181.982
  0
LINE
  8
0
 10
-160.955
 20
-181.982
 11
-161.17
 21
-181.863
  0
LINE
  8
0
 10
-161.17
 20
-181.863
 11
-161.372
 21
-181.72
  0
LINE
  8
0
 10
-161.372
 20
-181.72
 11
-161.556
 21
-181.556
  0
LINE
  8
0
 10
-161.556
 20
-181.556
 11
-161.72
 21
-181.372
  0
LINE
  8
0
 10
-161.72
 20
-181.372
 11
-161.863
 21
-181.17
  0
LINE
  8
0
 10
-161.863
 20
-181.17
 11
-161.982
 21
-180.955
  0
LINE
  8
0
 10
-161.982
 20
-180.955
 11
-162.077
 21
-180.727
  0
LINE
  8
0
 10
-162.077
 20
-180.727
 11
-162.145
 21
-180.49
  0
LINE
  8
0
 10
-162.145
 20
-180.49
 11
-162.186
 21
-180.246
  0
LINE
  8
0
 10
-162.186
 20
-180.246
 11
-162.2
 21
-180
  0
LINE
  8
0
 10
-162.2
 20
-180
 11
-162.186
 21
-179.754
  0
LINE
  8
0
 10
-162.186
 20
-179.754
 11
-162.145
 21
-179.51
  0
LINE
  8
0
 10
-162.145
 20
-179.51
 11
-162.077
 21
-179.273
  0
LINE
  8
0
 10
-162.077
 20
-179.273
 11
-161.982
 21
-179.045
  0
LINE
  8
0
 10
-161.982
 20
-179.045
 11
-161.863
 21
-178.83
  0
LINE
  8
0
 10
-161.863
 20
-178.83
 11
-161.72
 21
-178.628
  0
LINE
  8
0
 10
-161.72
 20
-178.628
 11
-161.556
 21
-178.444
  0
LINE
  8
0
 10
-161.556
 20
-178.444
 11
-161.372
 21
-178.28
  0
LINE
  8
0
 10
-161.372
 20
-178.28
 11
-161.17
 21
-178.137
  0
LINE
  8
0
 10
-161.17
 20
-178.137
 11
-160.955
 21
-178.018
  0
LINE
  8
0
 10
-160.955
 20
-178.018
 11
-160.727
 21
-177.923
  0
LINE
  8
0
 10
-160.727
 20
-177.923
 11
-160.49
 21
-177.855
  0
LINE
  8
0
 10
-160.49
 20
-177.855
 11
-160.246
 21
-177.814
  0
LINE
  8
0
 10
-160.246
 20
-177.814
 11
-160
 21
-177.8
  0
LINE
  8
0
 10
-160
 20
-177.8
 11
-159.754
 21
-177.814
  0
LINE
  8
0
 10
-159.754
 20
-177.814
 11
-159.51
 21
-177.855
  0
LINE
  8
0
 10
-159.51
 20
-177.855
 11
-159.273
 21
-177.923
  0
LINE
  8
0
 10
-159.273
 20
-177.923
 11
-159.045
 21
-178.018
  0
LINE
  8
0
 10
-159.045
 20
-178.018
 11
-158.83
 21
-178.137
  0
LINE
  8
0
 10
-158.83
 20
-178.137
 11
-158.628
 21
-178.28
  0
LINE
  8
0
 10
-158.628
 20
-178.28
 11
-158.444
 21
-178.444
  0
LINE
  8
0
 10
-158.444
 20
-178.444
 11
-158.28
 21
-178.628
  0
LINE
  8
0
 10
-158.28
 20
-178.628
 11
-158.137
 21
-178.83
  0
LINE
  8
0
 10
-158.137
 20
-178.83
 11
-158.018
 21
-179.045
  0
LINE
  8
0
 10
-158.018
 20
-179.045
 11
-157.923
 21
-179.273
  0
LINE
  8
0
 10
-157.923
 20
-179.273
 11
-157.855
 21
-179.51
  0
LINE
  8
0
 10
-157.855
 20
-179.51
 11
-157.814
 21
-179.754
  0
LINE
  8
0
 10
-157.814
 20
-179.754
 11
-157.8
 21
-180
  0
LINE
  8
0
 10
-157.8
 20
-180
 11
-157.814
 21
-180.246
  0
LINE
  8
0
 10
-157.814
 20
-180.246
 11
-157.855
 21
-180.49
  0
LINE
  8
0
 10
-157.855
 20
-180.49
 11
-157.923
 21
-180.727
  0
LINE
  8
0
 10
-157.923
 20
-180.727
 11
-158.018
 21
-180.955
  0
LINE
  8
0
 10
-158.018
 20
-180.955
 11
-158.137
 21
-181.17
  0
LINE
  8
0
 10
-158.137
 20
-181.17
 11
-158.28
 21
-181.372
  0
LINE
  8
0
 10
-158.28
 20
-181.372
 11
-158.444
 21
-181.556
  0
LINE
  8
0
 10
-158.444
 20
-181.556
 11
-158.628
 21
-181.72
  0
LINE
  8
0
 10
-158.628
 20
-181.72
 11
-158.83
 21
-181.863
  0
LINE
  8
0
 10
-158.83
 20
-181.863
 11
-159.045
 21
-181.982
  0
LINE
  8
0
 10
-159.045
 20
-181.982
 11
-159.273
 21
-182.077
  0
LINE
  8
0
 10
-159.273
 20
-182.077
 11
-159.51
 21
-182.145
  0
LINE
  8
0
 10
-159.51
 20
-182.145
 11
-159.754
 21
-182.186
  0
LINE
  8
0
 10
-159.754
 20
-182.186
 11
-160
 21
-182.2
  0
LINE
  8
0
 10
-160
 20
-182.2
 11
-160.246
 21
-182.186
  0
LINE
  8
0
 10
-100.246
 20
-192.186
 11
-100.49
 21
-192.145
  0
LINE
  8
0
 10
-100.49
 20
-192.145
 11
-100.727
 21
-192.077
  0
LINE
  8
0
 10
-100.727
 20
-192.077
 11
-100.955
 21
-191.982
  0
LINE
  8
0
 10
-100.955
 20
-191.982
 11
-101.17
 21
-191.863
  0
LINE
  8
0
 10
-101.17
 20
-191.863
 11
-101.372
 21
-191.72
  0
LINE
  8
0
 10
-101.372
 20
-191.72
 11
-101.556
 21
-191.556
  0
LINE
  8
0
 10
-101.556
 20
-191.556
 11
-101.72
 21
-191.372
  0
LINE
  8
0
 10
-101.72
 20
-191.372
 11
-101.863
 21
-191.17
  0
LINE
  8
0
 10
-101.863
 20
-191.17
 11
-101.982
 21
-190.955
  0
LINE
  8
0
 10
-101.982
 20
-190.955
 11
-102.077
 21
-190.727
  0
LINE
  8
0
 10
-102.077
 20
-190.727
 11
-102.145
 21
-190.49
  0
LINE
  8
0
 10
-102.145
 20
-190.49
 11
-102.186
 21
-190.246
  0
LINE
  8
0
 10
-102.186
 20
-190.246
 11
-102.2
 21
-190
  0
LINE
  8
0
 10
-102.2
 20
-190
 11
-102.186
 21
-189.754
  0
LINE
  8
0
 10
-102.186
 20
-189.754
 11
-102.145
 21
-189.51
  0
LINE
  8
0
 10
-102.145
 20
-189.51
 11
-102.077
 21
-189.273
  0
LINE
  8
0
 10
-102.077
 20
-189.273
 11
-101.982
 21
-189.045
  0
LINE
  8
0
 10
-101.982
 20
-189.045
 11
-101.863
 21
-188.83
  0
LINE
  8
0
 10
-101.863
 20
-188.83
 11
-101.72
 21
-188.628
  0
LINE
  8
0
 10
-101.72
 20
-188.628
 11
-101.556
 21
-188.444
  0
LINE
  8
0
 10
-101.556
 20
-188.444
 11
-101.372
 21
-188.28
  0
LINE
  8
0
 10
-101.372
 20
-188.28
 11
-101.17
 21
-188.137
  0
LINE
  8
0
 10
-101.17
 20
-188.137
 11
-100.955
 21
-188.018
  0
LINE
  8
0
 10
-100.955
 20
-188.018
 11
-100.727
 21
-187.923
  0
LINE
  8
0
 10
-100.727
 20
-187.923
 11
-100.49
 21
-187.855
  0
LINE
  8
0
 10
-100.49
 20
-187.855
 11
-100.246
 21
-187.814
  0
LINE
  8
0
 10
-100.246
 20
-187.814
 11
-100
 21
-187.8
  0
LINE
  8
0
 10
-100
 20
-187.8
 11
-99.7537
 21
-187.814
  0
LINE
  8
0
 10
-99.7537
 20
-187.814
 11
-99.5105
 21
-187.855
  0
LINE
  8
0
 10
-99.5105
 20
-187.855
 11
-99.2734
 21
-187.923
  0
LINE
  8
0
 10
-99.2734
 20
-187.923
 11
-99.0454
 21
-188.018
  0
LINE
  8
0
 10
-99.0454
 20
-188.018
 11
-98.8295
 21
-188.137
  0
LINE
  8
0
 10
-98.8295
 20
-188.137
 11
-98.6283
 21
-188.28
  0
LINE
  8
0
 10
-98.6283
 20
-188.28
 11
-98.4444
 21
-188.444
  0
LINE
  8
0
 10
-98.4444
 20
-188.444
 11
-98.28
 21
-188.628
  0
LINE
  8
0
 10
-98.28
 20
-188.628
 11
-98.1372
 21
-188.83
  0
LINE
  8
0
 10
-98.1372
 20
-188.83
 11
-98.0179
 21
-189.045
  0
LINE
  8
0
 10
-98.0179
 20
-189.045
 11
-97.9234
 21
-189.273
  0
LINE
  8
0
 10
-97.9234
 20
-189.273
 11
-97.8551
 21
-189.51
  0
LINE
  8
0
 10
-97.8551
 20
-189.51
 11
-97.8138
 21
-189.754
  0
LINE
  8
0
 10
-97.8138
 20
-189.754
 11
-97.8
 21
-190
  0
LINE
  8
0
 10
-97.8
 20
-190
 11
-97.8138
 21
-190.246
  0
LINE
  8
0
 10
-97.8138
 20
-190.246
 11
-97.8551
 21
-190.49
  0
LINE
  8
0
 10
-97.8551
 20
-190.49
 11
-97.9234
 21
-190.727
  0
LINE
  8
0
 10
-97.9234
 20
-190.727
 11
-98.0179
 21
-190.955
  0
LINE
  8
0
 10
-98.0179
 20
-190.955
 11
-98.1372
 21
-191.17
  0
LINE
  8
0
 10
-98.1372
 20
-191.17
 11
-98.28
 21
-191.372
  0
LINE
  8
0
 10
-98.28
 20
-191.372
 11
-98.4444
 21
-191.556
  0
LINE
  8
0
 10
-98.4444
 20
-191.556
 11
-98.6283
 21
-191.72
  0
LINE
  8
0
 10
-98.6283
 20
-191.72
 11
-98.8295
 21
-191.863
  0
LINE
  8
0
 10
-98.8295
 20
-191.863
 11
-99.0454
 21
-191.982
  0
LINE
  8
0
 10
-99.0454
 20
-191.982
 11
-99.2734
 21
-192.077
  0
LINE
  8
0
 10
-99.2734
 20
-192.077
 11
-99.5105
 21
-192.145
  0
LINE
  8
0
 10
-99.5105
 20
-192.145
 11
-99.7537
 21
-192.186
  0
LINE
  8
0
 10
-99.7537
 20
-192.186
 11
-100
 21
-192.2
  0
LINE
  8
0
 10
-100
 20
-192.2
 11
-100.246
 21
-192.186
  0
LINE
  8
0
 10
-0.246307
 20
-192.186
 11
-0.489532
 21
-192.145
  0
LINE
  8
0
 10
-0.489532
 20
-192.145
 11
-0.726608
 21
-192.077
  0
LINE
  8
0
 10
-0.726608
 20
-192.077
 11
-0.954544
 21
-191.982
  0
LINE
  8
0
 10
-0.954544
 20
-191.982
 11
-1.17046
 21
-191.863
  0
LINE
  8
0
 10
-1.17046
 20
-191.863
 11
-1.37167
 21
-191.72
  0
LINE
  8
0
 10
-1.37167
 20
-191.72
 11
-1.55563
 21
-191.556
  0
LINE
  8
0
 10
-1.55563
 20
-191.556
 11
-1.72002
 21
-191.372
  0
LINE
  8
0
 10
-1.72002
 20
-191.372
 11
-1.86279
 21
-191.17
  0
LINE
  8
0
 10
-1.86279
 20
-191.17
 11
-1.98212
 21
-190.955
  0
LINE
  8
0
 10
-1.98212
 20
-190.955
 11
-2.07654
 21
-190.727
  0
LINE
  8
0
 10
-2.07654
 20
-190.727
 11
-2.14484
 21
-190.49
  0
LINE
  8
0
 10
-2.14484
 20
-190.49
 11
-2.18616
 21
-190.246
  0
LINE
  8
0
 10
-2.18616
 20
-190.246
 11
-2.2
 21
-190
  0
LINE
  8
0
 10
-2.2
 20
-190
 11
-2.18616
 21
-189.754
  0
LINE
  8
0
 10
-2.18616
 20
-189.754
 11
-2.14484
 21
-189.51
  0
LINE
  8
0
 10
-2.14484
 20
-189.51
 11
-2.07654
 21
-189.273
  0
LINE
  8
0
 10
-2.07654
 20
-189.273
 11
-1.98212
 21
-189.045
  0
LINE
  8
0
 10
-1.98212
 20
-189.045
 11
-1.86279
 21
-188.83
  0
LINE
  8
0
 10
-1.86279
 20
-188.83
 11
-1.72002
 21
-188.628
  0
LINE
  8
0
 10
-1.72002
 20
-188.628
 11
-1.55563
 21
-188.444
  0
LINE
  8
0
 10
-1.55563
 20
-188.444
 11
-1.37167
 21
-188.28
  0
LINE
  8
0
 10
-1.37167
 20
-188.28
 11
-1.17046
 21
-188.137
  0
LINE
  8
0
 10
-1.17046
 20
-188.137
 11
-0.954544
 21
-188.018
  0
LINE
  8
0
 10
-0.954544
 20
-188.018
 11
-0.726608
 21
-187.923
  0
LINE
  8
0
 10
-0.726608
 20
-187.923
 11
-0.489532
 21
-187.855
  0
LINE
  8
0
 10
-0.489532
 20
-187.855
 11
-0.246307
 21
-187.814
  0
LINE
  8
0
 10
-0.246307
 20
-187.814
 11
0
 21
-187.8
  0
LINE
  8
0
 10
0
 20
-187.8
 11
0.246307
 21
-187.814
  0
LINE
  8
0
 10
0.246307
 20
-187.814
 11
0.489532
 21
-187.855
  0
LINE
  8
0
 10
0.489532
 20
-187.855
 11
0.726608
 21
-187.923
  0
LINE
  8
0
 10
0.726608
 20
-187.923
 11
0.954544
 21
-188.018
  0
LINE
  8
0
 10
0.954544
 20
-188.018
 11
1.17046
 21
-188.137
  0
LINE
  8
0
 10
1.17046
 20
-188.137
 11
1.37167
 21
-188.28
  0
LINE
  8
0
 10
1.37167
 20
-188.28
 11
1.55563
 21
-188.444
  0
LINE
  8
0
 10
1.55563
 20
-188.444
 11
1.72002
 21
-188.628
  0
LINE
  8
0
 10
1.72002
 20
-188.628
 11
1.86279
 21
-188.83
  0
LINE
  8
0
 10
1.86279
 20
-188.83
 11
1.98212
 21
-189.045
  0
LINE
  8
0
 10
1.98212
 20
-189.045
 11
2.07654
 21
-189.273
  0
LINE
  8
0
 10
2.07654
 20
-189.273
 11
2.14484
 21
-189.51
  0
LINE
  8
0
 10
2.14484
 20
-189.51
 11
2.18616
 21
-189.754
  0
LINE
  8
0
 10
2.18616
 20
-189.754
 11
2.2
 21
-190
  0
LINE
  8
0
 10
2.2
 20
-190
 11
2.18616
 21
-190.246
  0
LINE
  8
0
 10
2.18616
 20
-190.246
 11
2.14484
 21
-190.49
  0
LINE
  8
0
 10
2.14484
 20
-190.49
 11
2.07654
 21
-190.727
  0
LINE
  8
0
 10
2.07654
 20
-190.727
 11
1.98212
 21
-190.955
  0
LINE
  8
0
 10
1.98212
 20
-190.955
 11
1.86279
 21
-191.17
  0
LINE
  8
0
 10
1.86279
 20
-191.17
 11
1.72002
 21
-191.372
  0
LINE
  8
0
 10
1.72002
 20
-191.372
 11
1.55563
 21
-191.556
  0
LINE
  8
0
 10
1.55563
 20
-191.556
 11
1.37167
 21
-191.72
  0
LINE
  8
0
 10
1.37167
 20
-191.72
 11
1.17046
 21
-191.863
  0
LINE
  8
0
 10
1.17046
 20
-191.863
 11
0.954544
 21
-191.982
  0
LINE
  8
0
 10
0.954544
 20
-191.982
 11
0.726608
 21
-192.077
  0
LINE
  8
0
 10
0.726608
 20
-192.077
 11
0.489532
 21
-192.145
  0
LINE
  8
0
 10
0.489532
 20
-192.145
 11
0.246307
 21
-192.186
  0
LINE
  8
0
 10
0.246307
 20
-192.186
 11
0
 21
-192.2
  0
LINE
  8
0
 10
0
 20
-192.2
 11
-0.246307
 21
-192.186
  0
LINE
  8
0
 10
99.7537
 20
-192.186
 11
99.5105
 21
-192.145
  0
LINE
  8
0
 10
99.5105
 20
-192.145
 11
99.2734
 21
-192.077
  0
LINE
  8
0
 10
99.2734
 20
-192.077
 11
99.0454
 21
-191.982
  0
LINE
  8
0
 10
99.0454
 20
-191.982
 11
98.8295
 21
-191.863
  0
LINE
  8
0
 10
98.8295
 20
-191.863
 11
98.6283
 21
-191.72
  0
LINE
  8
0
 10
98.6283
 20
-191.72
 11
98.4444
 21
-191.556
  0
LINE
  8
0
 10
98.4444
 20
-191.556
 11
98.28
 21
-191.372
  0
LINE
  8
0
 10
98.28
 20
-191.372
 11
98.1372
 21
-191.17
  0
LINE
  8
0
 10
98.1372
 20
-191.17
 11
98.0179
 21
-190.955
  0
LINE
  8
0
 10
98.0179
 20
-190.955
 11
97.9234
 21
-190.727
  0
LINE
  8
0
 10
97.9234
 20
-190.727
 11
97.8551
 21
-190.49
  0
LINE
  8
0
 10
97.8551
 20
-190.49
 11
97.8138
 21
-190.246
  0
LINE
  8
0
 10
97.8138
 20
-190.246
 11
97.8
 21
-190
  0
LINE
  8
0
 10
97.8
 20
-190
 11
97.8138
 21
-189.754
  0
LINE
  8
0
 10
97.8138
 20
-189.754
 11
97.8551
 21
-189.51
  0
LINE
  8
0
 10
97.8551
 20
-189.51
 11
97.9234
 21
-189.273
  0
LINE
  8
0
 10
97.9234
 20
-189.273
 11
98.0179
 21
-189.045
  0
LINE
  8
0
 10
98.0179
 20
-189.045
 11
98.1372
 21
-188.83
  0
LINE
  8
0
 10
98.1372
 20
-188.83
 11
98.28
 21
-188.628
  0
LINE
  8
0
 10
98.28
 20
-188.628
 11
98.4444
 21
-188.444
  0
LINE
  8
0
 10
98.4444
 20
-188.444
 11
98.6283
 21
-188.28
  0
LINE
  8
0
 10
98.6283
 20
-188.28
 11
98.8295
 21
-188.137
  0
LINE
  8
0
 10
98.8295
 20
-188.137
 11
99.0454
 21
-188.018
  0
LINE
  8
0
 10
99.0454
 20
-188.018
 11
99.2734
 21
-187.923
  0
LINE
  8
0
 10
99.2734
 20
-187.923
 11
99.5105
 21
-187.855
  0
LINE
  8
0
 10
99.5105
 20
-187.855
 11
99.7537
 21
-187.814
  0
LINE
  8
0
 10
99.7537
 20
-187.814
 11
100
 21
-187.8
  0
LINE
  8
0
 10
100
 20
-187.8
 11
100.246
 21
-187.814
  0
LINE
  8
0
 10
100.246
 20
-187.814
 11
100.49
 21
-187.855
  0
LINE
  8
0
 10
100.49
 20
-187.855
 11
100.727
 21
-187.923
  0
LINE
  8
0
 10
100.727
 20
-187.923
 11
100.955
 21
-188.018
  0
LINE
  8
0
 10
100.955
 20
-188.018
 11
101.17
 21
-188.137
  0
LINE
  8
0
 10
101.17
 20
-188.137
 11
101.372
 21
-188.28
  0
LINE
  8
0
 10
101.372
 20
-188.28
 11
101.556
 21
-188.444
  0
LINE
  8
0
 10
101.556
 20
-188.444
 11
101.72
 21
-188.628
  0
LINE
  8
0
 10
101.72
 20
-188.628
 11
101.863
 21
-188.83
  0
LINE
  8
0
 10
101.863
 20
-188.83
 11
101.982
 21
-189.045
  0
LINE
  8
0
 10
101.982
 20
-189.045
 11
102.077
 21
-189.273
  0
LINE
  8
0
 10
102.077
 20
-189.273
 11
102.145
 21
-189.51
  0
LINE
  8
0
 10
102.145
 20
-189.51
 11
102.186
 21
-189.754
  0
LINE
  8
0
 10
102.186
 20
-189.754
 11
102.2
 21
-190
  0
LINE
  8
0
 10
102.2
 20
-190
 11
102.186
 21
-190.246
  0
LINE
  8
0
 10
102.186
 20
-190.246
 11
102.145
 21
-190.49
  0
LINE
  8
0
 10
102.145
 20
-190.49
 11
102.077
 21
-190.727
  0
LINE
  8
0
 10
102.077
 20
-190.727
 11
101.982
 21
-190.955
  0
LINE
  8
0
 10
101.982
 20
-190.955
 11
101.863
 21
-191.17
  0
LINE
  8
0
 10
101.863
 20
-191.17
 11
101.72
 21
-191.372
  0
LINE
  8
0
 10
101.72
 20
-191.372
 11
101.556
 21
-191.556
  0
LINE
  8
0
 10
101.556
 20
-191.556
 11
101.372
 21
-191.72
  0
LINE
  8
0
 10
101.372
 20
-191.72
 11
101.17
 21
-191.863
  0
LINE
  8
0
 10
101.17
 20
-191.863
 11
100.955
 21
-191.982
  0
LINE
  8
0
 10
100.955
 20
-191.982
 11
100.727
 21
-192.077
  0
LINE
  8
0
 10
100.727
 20
-192.077
 11
100.49
 21
-192.145
  0
LINE
  8
0
 10
100.49
 20
-192.145
 11
100.246
 21
-192.186
  0
LINE
  8
0
 10
100.246
 20
-192.186
 11
100
 21
-192.2
  0
LINE
  8
0
 10
100
 20
-192.2
 11
99.7537
 21
-192.186
  0
ENDSEC
  0
SECTION
  2
OBJECTS
  0
DICTIONARY
  0
ENDSEC
  0
EOF
