  0
SECTION
  2
BLOCKS
  0
ENDSEC
  0
SECTION
  2
ENTITIES
  0
LINE
  8
0
 10
119.223
 20
-154.975
 11
119.434
 21
-154.901
  0
LINE
  8
0
 10
119.434
 20
-154.901
 11
119.623
 21
-154.782
  0
LINE
  8
0
 10
119.623
 20
-154.782
 11
119.782
 21
-154.623
  0
LINE
  8
0
 10
119.782
 20
-154.623
 11
119.901
 21
-154.434
  0
LINE
  8
0
 10
119.901
 20
-154.434
 11
119.975
 21
-154.223
  0
LINE
  8
0
 10
119.975
 20
-154.223
 11
120
 21
-154
  0
LINE
  8
0
 10
120
 20
-154
 11
120
 21
154
  0
LINE
  8
0
 10
120
 20
154
 11
119.975
 21
154.223
  0
LINE
  8
0
 10
119.975
 20
154.223
 11
119.901
 21
154.434
  0
LINE
  8
0
 10
119.901
 20
154.434
 11
119.782
 21
154.623
  0
LINE
  8
0
 10
119.782
 20
154.623
 11
119.623
 21
154.782
  0
LINE
  8
0
 10
119.623
 20
154.782
 11
119.434
 21
154.901
  0
LINE
  8
0
 10
119.434
 20
154.901
 11
119.223
 21
154.975
  0
LINE
  8
0
 10
119.223
 20
154.975
 11
119
 21
155
  0
LINE
  8
0
 10
119
 20
155
 11
-119
 21
155
  0
LINE
  8
0
 10
-119
 20
155
 11
-119.223
 21
154.975
  0
LINE
  8
0
 10
-119.223
 20
154.975
 11
-119.434
 21
154.901
  0
LINE
  8
0
 10
-119.434
 20
154.901
 11
-119.623
 21
154.782
  0
LINE
  8
0
 10
-119.623
 20
154.782
 11
-119.782
 21
154.623
  0
LINE
  8
0
 10
-119.782
 20
154.623
 11
-119.901
 21
154.434
  0
LINE
  8
0
 10
-119.901
 20
154.434
 11
-119.975
 21
154.223
  0
LINE
  8
0
 10
-119.975
 20
154.223
 11
-120
 21
154
  0
LINE
  8
0
 10
-120
 20
154
 11
-120
 21
-154
  0
LINE
  8
0
 10
-120
 20
-154
 11
-119.975
 21
-154.223
  0
LINE
  8
0
 10
-119.975
 20
-154.223
 11
-119.901
 21
-154.434
  0
LINE
  8
0
 10
-119.901
 20
-154.434
 11
-119.782
 21
-154.623
  0
LINE
  8
0
 10
-119.782
 20
-154.623
 11
-119.623
 21
-154.782
  0
LINE
  8
0
 10
-119.623
 20
-154.782
 11
-119.434
 21
-154.901
  0
LINE
  8
0
 10
-119.434
 20
-154.901
 11
-119.223
 21
-154.975
  0
LINE
  8
0
 10
-119.223
 20
-154.975
 11
-119
 21
-155
  0
LINE
  8
0
 10
-119
 20
-155
 11
119
 21
-155
  0
LINE
  8
0
 10
119
 20
-155
 11
119.223
 21
-154.975
  0
LINE
  8
0
 10
-110.261
 20
142.514
 11
-110.52
 21
142.555
  0
LINE
  8
0
 10
-110.52
 20
142.555
 11
-110.773
 21
142.622
  0
LINE
  8
0
 10
-110.773
 20
142.622
 11
-111.017
 21
142.716
  0
LINE
  8
0
 10
-111.017
 20
142.716
 11
-111.25
 21
142.835
  0
LINE
  8
0
 10
-111.25
 20
142.835
 11
-111.469
 21
142.977
  0
LINE
  8
0
 10
-111.469
 20
142.977
 11
-111.673
 21
143.142
  0
LINE
  8
0
 10
-111.673
 20
143.142
 11
-111.858
 21
143.327
  0
LINE
  8
0
 10
-111.858
 20
143.327
 11
-112.023
 21
143.531
  0
LINE
  8
0
 10
-112.023
 20
143.531
 11
-112.165
 21
143.75
  0
LINE
  8
0
 10
-112.165
 20
143.75
 11
-112.284
 21
143.983
  0
LINE
  8
0
 10
-112.284
 20
143.983
 11
-112.378
 21
144.227
  0
LINE
  8
0
 10
-112.378
 20
144.227
 11
-112.445
 21
144.48
  0
LINE
  8
0
 10
-112.445
 20
144.48
 11
-112.486
 21
144.739
  0
LINE
  8
0
 10
-112.486
 20
144.739
 11
-112.5
 21
145
  0
LINE
  8
0
 10
-112.5
 20
145
 11
-112.486
 21
145.261
  0
LINE
  8
0
 10
-112.486
 20
145.261
 11
-112.445
 21
145.52
  0
LINE
  8
0
 10
-112.445
 20
145.52
 11
-112.378
 21
145.773
  0
LINE
  8
0
 10
-112.378
 20
145.773
 11
-112.284
 21
146.017
  0
LINE
  8
0
 10
-112.284
 20
146.017
 11
-112.165
 21
146.25
  0
LINE
  8
0
 10
-112.165
 20
146.25
 11
-112.023
 21
146.469
  0
LINE
  8
0
 10
-112.023
 20
146.469
 11
-111.858
 21
146.673
  0
LINE
  8
0
 10
-111.858
 20
146.673
 11
-111.673
 21
146.858
  0
LINE
  8
0
 10
-111.673
 20
146.858
 11
-111.469
 21
147.023
  0
LINE
  8
0
 10
-111.469
 20
147.023
 11
-111.25
 21
147.165
  0
LINE
  8
0
 10
-111.25
 20
147.165
 11
-111.017
 21
147.284
  0
LINE
  8
0
 10
-111.017
 20
147.284
 11
-110.773
 21
147.378
  0
LINE
  8
0
 10
-110.773
 20
147.378
 11
-110.52
 21
147.445
  0
LINE
  8
0
 10
-110.52
 20
147.445
 11
-110.261
 21
147.486
  0
LINE
  8
0
 10
-110.261
 20
147.486
 11
-110
 21
147.5
  0
LINE
  8
0
 10
-110
 20
147.5
 11
-109.739
 21
147.486
  0
LINE
  8
0
 10
-109.739
 20
147.486
 11
-109.48
 21
147.445
  0
LINE
  8
0
 10
-109.48
 20
147.445
 11
-109.227
 21
147.378
  0
LINE
  8
0
 10
-109.227
 20
147.378
 11
-108.983
 21
147.284
  0
LINE
  8
0
 10
-108.983
 20
147.284
 11
-108.75
 21
147.165
  0
LINE
  8
0
 10
-108.75
 20
147.165
 11
-108.531
 21
147.023
  0
LINE
  8
0
 10
-108.531
 20
147.023
 11
-108.327
 21
146.858
  0
LINE
  8
0
 10
-108.327
 20
146.858
 11
-108.142
 21
146.673
  0
LINE
  8
0
 10
-108.142
 20
146.673
 11
-107.977
 21
146.469
  0
LINE
  8
0
 10
-107.977
 20
146.469
 11
-107.835
 21
146.25
  0
LINE
  8
0
 10
-107.835
 20
146.25
 11
-107.716
 21
146.017
  0
LINE
  8
0
 10
-107.716
 20
146.017
 11
-107.622
 21
145.773
  0
LINE
  8
0
 10
-107.622
 20
145.773
 11
-107.555
 21
145.52
  0
LINE
  8
0
 10
-107.555
 20
145.52
 11
-107.514
 21
145.261
  0
LINE
  8
0
 10
-107.514
 20
145.261
 11
-107.5
 21
145
  0
LINE
  8
0
 10
-107.5
 20
145
 11
-107.514
 21
144.739
  0
LINE
  8
0
 10
-107.514
 20
144.739
 11
-107.555
 21
144.48
  0
LINE
  8
0
 10
-107.555
 20
144.48
 11
-107.622
 21
144.227
  0
LINE
  8
0
 10
-107.622
 20
144.227
 11
-107.716
 21
143.983
  0
LINE
  8
0
 10
-107.716
 20
143.983
 11
-107.835
 21
143.75
  0
LINE
  8
0
 10
-107.835
 20
143.75
 11
-107.977
 21
143.531
  0
LINE
  8
0
 10
-107.977
 20
143.531
 11
-108.142
 21
143.327
  0
LINE
  8
0
 10
-108.142
 20
143.327
 11
-108.327
 21
143.142
  0
LINE
  8
0
 10
-108.327
 20
143.142
 11
-108.531
 21
142.977
  0
LINE
  8
0
 10
-108.531
 20
142.977
 11
-108.75
 21
142.835
  0
LINE
  8
0
 10
-108.75
 20
142.835
 11
-108.983
 21
142.716
  0
LINE
  8
0
 10
-108.983
 20
142.716
 11
-109.227
 21
142.622
  0
LINE
  8
0
 10
-109.227
 20
142.622
 11
-109.48
 21
142.555
  0
LINE
  8
0
 10
-109.48
 20
142.555
 11
-109.739
 21
142.514
  0
LINE
  8
0
 10
-109.739
 20
142.514
 11
-110
 21
142.5
  0
LINE
  8
0
 10
-110
 20
142.5
 11
-110.261
 21
142.514
  0
LINE
  8
0
 10
-80.2463
 20
142.814
 11
-80.4895
 21
142.855
  0
LINE
  8
0
 10
-80.4895
 20
142.855
 11
-80.7266
 21
142.923
  0
LINE
  8
0
 10
-80.7266
 20
142.923
 11
-80.9545
 21
143.018
  0
LINE
  8
0
 10
-80.9545
 20
143.018
 11
-81.1705
 21
143.137
  0
LINE
  8
0
 10
-81.1705
 20
143.137
 11
-81.3717
 21
143.28
  0
LINE
  8
0
 10
-81.3717
 20
143.28
 11
-81.5556
 21
143.444
  0
LINE
  8
0
 10
-81.5556
 20
143.444
 11
-81.72
 21
143.628
  0
LINE
  8
0
 10
-81.72
 20
143.628
 11
-81.8628
 21
143.83
  0
LINE
  8
0
 10
-81.8628
 20
143.83
 11
-81.9821
 21
144.045
  0
LINE
  8
0
 10
-81.9821
 20
144.045
 11
-82.0765
 21
144.273
  0
LINE
  8
0
 10
-82.0765
 20
144.273
 11
-82.1448
 21
144.51
  0
LINE
  8
0
 10
-82.1448
 20
144.51
 11
-82.1862
 21
144.754
  0
LINE
  8
0
 10
-82.1862
 20
144.754
 11
-82.2
 21
145
  0
LINE
  8
0
 10
-82.2
 20
145
 11
-82.1862
 21
145.246
  0
LINE
  8
0
 10
-82.1862
 20
145.246
 11
-82.1448
 21
145.49
  0
LINE
  8
0
 10
-82.1448
 20
145.49
 11
-82.0765
 21
145.727
  0
LINE
  8
0
 10
-82.0765
 20
145.727
 11
-81.9821
 21
145.955
  0
LINE
  8
0
 10
-81.9821
 20
145.955
 11
-81.8628
 21
146.17
  0
LINE
  8
0
 10
-81.8628
 20
146.17
 11
-81.72
 21
146.372
  0
LINE
  8
0
 10
-81.72
 20
146.372
 11
-81.5556
 21
146.556
  0
LINE
  8
0
 10
-81.5556
 20
146.556
 11
-81.3717
 21
146.72
  0
LINE
  8
0
 10
-81.3717
 20
146.72
 11
-81.1705
 21
146.863
  0
LINE
  8
0
 10
-81.1705
 20
146.863
 11
-80.9545
 21
146.982
  0
LINE
  8
0
 10
-80.9545
 20
146.982
 11
-80.7266
 21
147.077
  0
LINE
  8
0
 10
-80.7266
 20
147.077
 11
-80.4895
 21
147.145
  0
LINE
  8
0
 10
-80.4895
 20
147.145
 11
-80.2463
 21
147.186
  0
LINE
  8
0
 10
-80.2463
 20
147.186
 11
-80
 21
147.2
  0
LINE
  8
0
 10
-80
 20
147.2
 11
-79.7537
 21
147.186
  0
LINE
  8
0
 10
-79.7537
 20
147.186
 11
-79.5105
 21
147.145
  0
LINE
  8
0
 10
-79.5105
 20
147.145
 11
-79.2734
 21
147.077
  0
LINE
  8
0
 10
-79.2734
 20
147.077
 11
-79.0454
 21
146.982
  0
LINE
  8
0
 10
-79.0454
 20
146.982
 11
-78.8295
 21
146.863
  0
LINE
  8
0
 10
-78.8295
 20
146.863
 11
-78.6283
 21
146.72
  0
LINE
  8
0
 10
-78.6283
 20
146.72
 11
-78.4444
 21
146.556
  0
LINE
  8
0
 10
-78.4444
 20
146.556
 11
-78.28
 21
146.372
  0
LINE
  8
0
 10
-78.28
 20
146.372
 11
-78.1372
 21
146.17
  0
LINE
  8
0
 10
-78.1372
 20
146.17
 11
-78.0179
 21
145.955
  0
LINE
  8
0
 10
-78.0179
 20
145.955
 11
-77.9234
 21
145.727
  0
LINE
  8
0
 10
-77.9234
 20
145.727
 11
-77.8551
 21
145.49
  0
LINE
  8
0
 10
-77.8551
 20
145.49
 11
-77.8138
 21
145.246
  0
LINE
  8
0
 10
-77.8138
 20
145.246
 11
-77.8
 21
145
  0
LINE
  8
0
 10
-77.8
 20
145
 11
-77.8138
 21
144.754
  0
LINE
  8
0
 10
-77.8138
 20
144.754
 11
-77.8551
 21
144.51
  0
LINE
  8
0
 10
-77.8551
 20
144.51
 11
-77.9234
 21
144.273
  0
LINE
  8
0
 10
-77.9234
 20
144.273
 11
-78.0179
 21
144.045
  0
LINE
  8
0
 10
-78.0179
 20
144.045
 11
-78.1372
 21
143.83
  0
LINE
  8
0
 10
-78.1372
 20
143.83
 11
-78.28
 21
143.628
  0
LINE
  8
0
 10
-78.28
 20
143.628
 11
-78.4444
 21
143.444
  0
LINE
  8
0
 10
-78.4444
 20
143.444
 11
-78.6283
 21
143.28
  0
LINE
  8
0
 10
-78.6283
 20
143.28
 11
-78.8295
 21
143.137
  0
LINE
  8
0
 10
-78.8295
 20
143.137
 11
-79.0454
 21
143.018
  0
LINE
  8
0
 10
-79.0454
 20
143.018
 11
-79.2734
 21
142.923
  0
LINE
  8
0
 10
-79.2734
 20
142.923
 11
-79.5105
 21
142.855
  0
LINE
  8
0
 10
-79.5105
 20
142.855
 11
-79.7537
 21
142.814
  0
LINE
  8
0
 10
-79.7537
 20
142.814
 11
-80
 21
142.8
  0
LINE
  8
0
 10
-80
 20
142.8
 11
-80.2463
 21
142.814
  0
LINE
  8
0
 10
9.75368
 20
142.814
 11
9.51045
 21
142.855
  0
LINE
  8
0
 10
9.51045
 20
142.855
 11
9.27338
 21
142.923
  0
LINE
  8
0
 10
9.27338
 20
142.923
 11
9.04544
 21
143.018
  0
LINE
  8
0
 10
9.04544
 20
143.018
 11
8.82953
 21
143.137
  0
LINE
  8
0
 10
8.82953
 20
143.137
 11
8.62831
 21
143.28
  0
LINE
  8
0
 10
8.62831
 20
143.28
 11
8.44435
 21
143.444
  0
LINE
  8
0
 10
8.44435
 20
143.444
 11
8.27997
 21
143.628
  0
LINE
  8
0
 10
8.27997
 20
143.628
 11
8.13719
 21
143.83
  0
LINE
  8
0
 10
8.13719
 20
143.83
 11
8.01787
 21
144.045
  0
LINE
  8
0
 10
8.01787
 20
144.045
 11
7.92345
 21
144.273
  0
LINE
  8
0
 10
7.92345
 20
144.273
 11
7.85515
 21
144.51
  0
LINE
  8
0
 10
7.85515
 20
144.51
 11
7.81383
 21
144.754
  0
LINE
  8
0
 10
7.81383
 20
144.754
 11
7.79999
 21
145
  0
LINE
  8
0
 10
7.79999
 20
145
 11
7.81383
 21
145.246
  0
LINE
  8
0
 10
7.81383
 20
145.246
 11
7.85515
 21
145.49
  0
LINE
  8
0
 10
7.85515
 20
145.49
 11
7.92345
 21
145.727
  0
LINE
  8
0
 10
7.92345
 20
145.727
 11
8.01787
 21
145.955
  0
LINE
  8
0
 10
8.01787
 20
145.955
 11
8.13719
 21
146.17
  0
LINE
  8
0
 10
8.13719
 20
146.17
 11
8.27997
 21
146.372
  0
LINE
  8
0
 10
8.27997
 20
146.372
 11
8.44435
 21
146.556
  0
LINE
  8
0
 10
8.44435
 20
146.556
 11
8.62831
 21
146.72
  0
LINE
  8
0
 10
8.62831
 20
146.72
 11
8.82953
 21
146.863
  0
LINE
  8
0
 10
8.82953
 20
146.863
 11
9.04544
 21
146.982
  0
LINE
  8
0
 10
9.04544
 20
146.982
 11
9.27338
 21
147.077
  0
LINE
  8
0
 10
9.27338
 20
147.077
 11
9.51045
 21
147.145
  0
LINE
  8
0
 10
9.51045
 20
147.145
 11
9.75368
 21
147.186
  0
LINE
  8
0
 10
9.75368
 20
147.186
 11
10
 21
147.2
  0
LINE
  8
0
 10
10
 20
147.2
 11
10.2463
 21
147.186
  0
LINE
  8
0
 10
10.2463
 20
147.186
 11
10.4895
 21
147.145
  0
LINE
  8
0
 10
10.4895
 20
147.145
 11
10.7266
 21
147.077
  0
LINE
  8
0
 10
10.7266
 20
147.077
 11
10.9545
 21
146.982
  0
LINE
  8
0
 10
10.9545
 20
146.982
 11
11.1705
 21
146.863
  0
LINE
  8
0
 10
11.1705
 20
146.863
 11
11.3717
 21
146.72
  0
LINE
  8
0
 10
11.3717
 20
146.72
 11
11.5556
 21
146.556
  0
LINE
  8
0
 10
11.5556
 20
146.556
 11
11.72
 21
146.372
  0
LINE
  8
0
 10
11.72
 20
146.372
 11
11.8628
 21
146.17
  0
LINE
  8
0
 10
11.8628
 20
146.17
 11
11.9821
 21
145.955
  0
LINE
  8
0
 10
11.9821
 20
145.955
 11
12.0765
 21
145.727
  0
LINE
  8
0
 10
12.0765
 20
145.727
 11
12.1448
 21
145.49
  0
LINE
  8
0
 10
12.1448
 20
145.49
 11
12.1862
 21
145.246
  0
LINE
  8
0
 10
12.1862
 20
145.246
 11
12.2
 21
145
  0
LINE
  8
0
 10
12.2
 20
145
 11
12.1862
 21
144.754
  0
LINE
  8
0
 10
12.1862
 20
144.754
 11
12.1448
 21
144.51
  0
LINE
  8
0
 10
12.1448
 20
144.51
 11
12.0765
 21
144.273
  0
LINE
  8
0
 10
12.0765
 20
144.273
 11
11.9821
 21
144.045
  0
LINE
  8
0
 10
11.9821
 20
144.045
 11
11.8628
 21
143.83
  0
LINE
  8
0
 10
11.8628
 20
143.83
 11
11.72
 21
143.628
  0
LINE
  8
0
 10
11.72
 20
143.628
 11
11.5556
 21
143.444
  0
LINE
  8
0
 10
11.5556
 20
143.444
 11
11.3717
 21
143.28
  0
LINE
  8
0
 10
11.3717
 20
143.28
 11
11.1705
 21
143.137
  0
LINE
  8
0
 10
11.1705
 20
143.137
 11
10.9545
 21
143.018
  0
LINE
  8
0
 10
10.9545
 20
143.018
 11
10.7266
 21
142.923
  0
LINE
  8
0
 10
10.7266
 20
142.923
 11
10.4895
 21
142.855
  0
LINE
  8
0
 10
10.4895
 20
142.855
 11
10.2463
 21
142.814
  0
LINE
  8
0
 10
10.2463
 20
142.814
 11
10
 21
142.8
  0
LINE
  8
0
 10
10
 20
142.8
 11
9.75368
 21
142.814
  0
LINE
  8
0
 10
99.7537
 20
142.814
 11
99.5105
 21
142.855
  0
LINE
  8
0
 10
99.5105
 20
142.855
 11
99.2734
 21
142.923
  0
LINE
  8
0
 10
99.2734
 20
142.923
 11
99.0454
 21
143.018
  0
LINE
  8
0
 10
99.0454
 20
143.018
 11
98.8295
 21
143.137
  0
LINE
  8
0
 10
98.8295
 20
143.137
 11
98.6283
 21
143.28
  0
LINE
  8
0
 10
98.6283
 20
143.28
 11
98.4444
 21
143.444
  0
LINE
  8
0
 10
98.4444
 20
143.444
 11
98.28
 21
143.628
  0
LINE
  8
0
 10
98.28
 20
143.628
 11
98.1372
 21
143.83
  0
LINE
  8
0
 10
98.1372
 20
143.83
 11
98.0179
 21
144.045
  0
LINE
  8
0
 10
98.0179
 20
144.045
 11
97.9234
 21
144.273
  0
LINE
  8
0
 10
97.9234
 20
144.273
 11
97.8551
 21
144.51
  0
LINE
  8
0
 10
97.8551
 20
144.51
 11
97.8138
 21
144.754
  0
LINE
  8
0
 10
97.8138
 20
144.754
 11
97.8
 21
145
  0
LINE
  8
0
 10
97.8
 20
145
 11
97.8138
 21
145.246
  0
LINE
  8
0
 10
97.8138
 20
145.246
 11
97.8551
 21
145.49
  0
LINE
  8
0
 10
97.8551
 20
145.49
 11
97.9234
 21
145.727
  0
LINE
  8
0
 10
97.9234
 20
145.727
 11
98.0179
 21
145.955
  0
LINE
  8
0
 10
98.0179
 20
145.955
 11
98.1372
 21
146.17
  0
LINE
  8
0
 10
98.1372
 20
146.17
 11
98.28
 21
146.372
  0
LINE
  8
0
 10
98.28
 20
146.372
 11
98.4444
 21
146.556
  0
LINE
  8
0
 10
98.4444
 20
146.556
 11
98.6283
 21
146.72
  0
LINE
  8
0
 10
98.6283
 20
146.72
 11
98.8295
 21
146.863
  0
LINE
  8
0
 10
98.8295
 20
146.863
 11
99.0454
 21
146.982
  0
LINE
  8
0
 10
99.0454
 20
146.982
 11
99.2734
 21
147.077
  0
LINE
  8
0
 10
99.2734
 20
147.077
 11
99.5105
 21
147.145
  0
LINE
  8
0
 10
99.5105
 20
147.145
 11
99.7537
 21
147.186
  0
LINE
  8
0
 10
99.7537
 20
147.186
 11
100
 21
147.2
  0
LINE
  8
0
 10
100
 20
147.2
 11
100.246
 21
147.186
  0
LINE
  8
0
 10
100.246
 20
147.186
 11
100.49
 21
147.145
  0
LINE
  8
0
 10
100.49
 20
147.145
 11
100.727
 21
147.077
  0
LINE
  8
0
 10
100.727
 20
147.077
 11
100.955
 21
146.982
  0
LINE
  8
0
 10
100.955
 20
146.982
 11
101.17
 21
146.863
  0
LINE
  8
0
 10
101.17
 20
146.863
 11
101.372
 21
146.72
  0
LINE
  8
0
 10
101.372
 20
146.72
 11
101.556
 21
146.556
  0
LINE
  8
0
 10
101.556
 20
146.556
 11
101.72
 21
146.372
  0
LINE
  8
0
 10
101.72
 20
146.372
 11
101.863
 21
146.17
  0
LINE
  8
0
 10
101.863
 20
146.17
 11
101.982
 21
145.955
  0
LINE
  8
0
 10
101.982
 20
145.955
 11
102.077
 21
145.727
  0
LINE
  8
0
 10
102.077
 20
145.727
 11
102.145
 21
145.49
  0
LINE
  8
0
 10
102.145
 20
145.49
 11
102.186
 21
145.246
  0
LINE
  8
0
 10
102.186
 20
145.246
 11
102.2
 21
145
  0
LINE
  8
0
 10
102.2
 20
145
 11
102.186
 21
144.754
  0
LINE
  8
0
 10
102.186
 20
144.754
 11
102.145
 21
144.51
  0
LINE
  8
0
 10
102.145
 20
144.51
 11
102.077
 21
144.273
  0
LINE
  8
0
 10
102.077
 20
144.273
 11
101.982
 21
144.045
  0
LINE
  8
0
 10
101.982
 20
144.045
 11
101.863
 21
143.83
  0
LINE
  8
0
 10
101.863
 20
143.83
 11
101.72
 21
143.628
  0
LINE
  8
0
 10
101.72
 20
143.628
 11
101.556
 21
143.444
  0
LINE
  8
0
 10
101.556
 20
143.444
 11
101.372
 21
143.28
  0
LINE
  8
0
 10
101.372
 20
143.28
 11
101.17
 21
143.137
  0
LINE
  8
0
 10
101.17
 20
143.137
 11
100.955
 21
143.018
  0
LINE
  8
0
 10
100.955
 20
143.018
 11
100.727
 21
142.923
  0
LINE
  8
0
 10
100.727
 20
142.923
 11
100.49
 21
142.855
  0
LINE
  8
0
 10
100.49
 20
142.855
 11
100.246
 21
142.814
  0
LINE
  8
0
 10
100.246
 20
142.814
 11
100
 21
142.8
  0
LINE
  8
0
 10
100
 20
142.8
 11
99.7537
 21
142.814
  0
LINE
  8
0
 10
-110.246
 20
132.814
 11
-110.49
 21
132.855
  0
LINE
  8
0
 10
-110.49
 20
132.855
 11
-110.727
 21
132.923
  0
LINE
  8
0
 10
-110.727
 20
132.923
 11
-110.955
 21
133.018
  0
LINE
  8
0
 10
-110.955
 20
133.018
 11
-111.17
 21
133.137
  0
LINE
  8
0
 10
-111.17
 20
133.137
 11
-111.372
 21
133.28
  0
LINE
  8
0
 10
-111.372
 20
133.28
 11
-111.556
 21
133.444
  0
LINE
  8
0
 10
-111.556
 20
133.444
 11
-111.72
 21
133.628
  0
LINE
  8
0
 10
-111.72
 20
133.628
 11
-111.863
 21
133.83
  0
LINE
  8
0
 10
-111.863
 20
133.83
 11
-111.982
 21
134.045
  0
LINE
  8
0
 10
-111.982
 20
134.045
 11
-112.077
 21
134.273
  0
LINE
  8
0
 10
-112.077
 20
134.273
 11
-112.145
 21
134.51
  0
LINE
  8
0
 10
-112.145
 20
134.51
 11
-112.186
 21
134.754
  0
LINE
  8
0
 10
-112.186
 20
134.754
 11
-112.2
 21
135
  0
LINE
  8
0
 10
-112.2
 20
135
 11
-112.186
 21
135.246
  0
LINE
  8
0
 10
-112.186
 20
135.246
 11
-112.145
 21
135.49
  0
LINE
  8
0
 10
-112.145
 20
135.49
 11
-112.077
 21
135.727
  0
LINE
  8
0
 10
-112.077
 20
135.727
 11
-111.982
 21
135.955
  0
LINE
  8
0
 10
-111.982
 20
135.955
 11
-111.863
 21
136.17
  0
LINE
  8
0
 10
-111.863
 20
136.17
 11
-111.72
 21
136.372
  0
LINE
  8
0
 10
-111.72
 20
136.372
 11
-111.556
 21
136.556
  0
LINE
  8
0
 10
-111.556
 20
136.556
 11
-111.372
 21
136.72
  0
LINE
  8
0
 10
-111.372
 20
136.72
 11
-111.17
 21
136.863
  0
LINE
  8
0
 10
-111.17
 20
136.863
 11
-110.955
 21
136.982
  0
LINE
  8
0
 10
-110.955
 20
136.982
 11
-110.727
 21
137.077
  0
LINE
  8
0
 10
-110.727
 20
137.077
 11
-110.49
 21
137.145
  0
LINE
  8
0
 10
-110.49
 20
137.145
 11
-110.246
 21
137.186
  0
LINE
  8
0
 10
-110.246
 20
137.186
 11
-110
 21
137.2
  0
LINE
  8
0
 10
-110
 20
137.2
 11
-109.754
 21
137.186
  0
LINE
  8
0
 10
-109.754
 20
137.186
 11
-109.51
 21
137.145
  0
LINE
  8
0
 10
-109.51
 20
137.145
 11
-109.273
 21
137.077
  0
LINE
  8
0
 10
-109.273
 20
137.077
 11
-109.045
 21
136.982
  0
LINE
  8
0
 10
-109.045
 20
136.982
 11
-108.83
 21
136.863
  0
LINE
  8
0
 10
-108.83
 20
136.863
 11
-108.628
 21
136.72
  0
LINE
  8
0
 10
-108.628
 20
136.72
 11
-108.444
 21
136.556
  0
LINE
  8
0
 10
-108.444
 20
136.556
 11
-108.28
 21
136.372
  0
LINE
  8
0
 10
-108.28
 20
136.372
 11
-108.137
 21
136.17
  0
LINE
  8
0
 10
-108.137
 20
136.17
 11
-108.018
 21
135.955
  0
LINE
  8
0
 10
-108.018
 20
135.955
 11
-107.923
 21
135.727
  0
LINE
  8
0
 10
-107.923
 20
135.727
 11
-107.855
 21
135.49
  0
LINE
  8
0
 10
-107.855
 20
135.49
 11
-107.814
 21
135.246
  0
LINE
  8
0
 10
-107.814
 20
135.246
 11
-107.8
 21
135
  0
LINE
  8
0
 10
-107.8
 20
135
 11
-107.814
 21
134.754
  0
LINE
  8
0
 10
-107.814
 20
134.754
 11
-107.855
 21
134.51
  0
LINE
  8
0
 10
-107.855
 20
134.51
 11
-107.923
 21
134.273
  0
LINE
  8
0
 10
-107.923
 20
134.273
 11
-108.018
 21
134.045
  0
LINE
  8
0
 10
-108.018
 20
134.045
 11
-108.137
 21
133.83
  0
LINE
  8
0
 10
-108.137
 20
133.83
 11
-108.28
 21
133.628
  0
LINE
  8
0
 10
-108.28
 20
133.628
 11
-108.444
 21
133.444
  0
LINE
  8
0
 10
-108.444
 20
133.444
 11
-108.628
 21
133.28
  0
LINE
  8
0
 10
-108.628
 20
133.28
 11
-108.83
 21
133.137
  0
LINE
  8
0
 10
-108.83
 20
133.137
 11
-109.045
 21
133.018
  0
LINE
  8
0
 10
-109.045
 20
133.018
 11
-109.273
 21
132.923
  0
LINE
  8
0
 10
-109.273
 20
132.923
 11
-109.51
 21
132.855
  0
LINE
  8
0
 10
-109.51
 20
132.855
 11
-109.754
 21
132.814
  0
LINE
  8
0
 10
-109.754
 20
132.814
 11
-110
 21
132.8
  0
LINE
  8
0
 10
-110
 20
132.8
 11
-110.246
 21
132.814
  0
LINE
  8
0
 10
-110.261
 20
122.514
 11
-110.52
 21
122.555
  0
LINE
  8
0
 10
-110.52
 20
122.555
 11
-110.773
 21
122.622
  0
LINE
  8
0
 10
-110.773
 20
122.622
 11
-111.017
 21
122.716
  0
LINE
  8
0
 10
-111.017
 20
122.716
 11
-111.25
 21
122.835
  0
LINE
  8
0
 10
-111.25
 20
122.835
 11
-111.469
 21
122.977
  0
LINE
  8
0
 10
-111.469
 20
122.977
 11
-111.673
 21
123.142
  0
LINE
  8
0
 10
-111.673
 20
123.142
 11
-111.858
 21
123.327
  0
LINE
  8
0
 10
-111.858
 20
123.327
 11
-112.023
 21
123.531
  0
LINE
  8
0
 10
-112.023
 20
123.531
 11
-112.165
 21
123.75
  0
LINE
  8
0
 10
-112.165
 20
123.75
 11
-112.284
 21
123.983
  0
LINE
  8
0
 10
-112.284
 20
123.983
 11
-112.378
 21
124.227
  0
LINE
  8
0
 10
-112.378
 20
124.227
 11
-112.445
 21
124.48
  0
LINE
  8
0
 10
-112.445
 20
124.48
 11
-112.486
 21
124.739
  0
LINE
  8
0
 10
-112.486
 20
124.739
 11
-112.5
 21
125
  0
LINE
  8
0
 10
-112.5
 20
125
 11
-112.486
 21
125.261
  0
LINE
  8
0
 10
-112.486
 20
125.261
 11
-112.445
 21
125.52
  0
LINE
  8
0
 10
-112.445
 20
125.52
 11
-112.378
 21
125.773
  0
LINE
  8
0
 10
-112.378
 20
125.773
 11
-112.284
 21
126.017
  0
LINE
  8
0
 10
-112.284
 20
126.017
 11
-112.165
 21
126.25
  0
LINE
  8
0
 10
-112.165
 20
126.25
 11
-112.023
 21
126.469
  0
LINE
  8
0
 10
-112.023
 20
126.469
 11
-111.858
 21
126.673
  0
LINE
  8
0
 10
-111.858
 20
126.673
 11
-111.673
 21
126.858
  0
LINE
  8
0
 10
-111.673
 20
126.858
 11
-111.469
 21
127.023
  0
LINE
  8
0
 10
-111.469
 20
127.023
 11
-111.25
 21
127.165
  0
LINE
  8
0
 10
-111.25
 20
127.165
 11
-111.017
 21
127.284
  0
LINE
  8
0
 10
-111.017
 20
127.284
 11
-110.773
 21
127.378
  0
LINE
  8
0
 10
-110.773
 20
127.378
 11
-110.52
 21
127.445
  0
LINE
  8
0
 10
-110.52
 20
127.445
 11
-110.261
 21
127.486
  0
LINE
  8
0
 10
-110.261
 20
127.486
 11
-110
 21
127.5
  0
LINE
  8
0
 10
-110
 20
127.5
 11
-109.739
 21
127.486
  0
LINE
  8
0
 10
-109.739
 20
127.486
 11
-109.48
 21
127.445
  0
LINE
  8
0
 10
-109.48
 20
127.445
 11
-109.227
 21
127.378
  0
LINE
  8
0
 10
-109.227
 20
127.378
 11
-108.983
 21
127.284
  0
LINE
  8
0
 10
-108.983
 20
127.284
 11
-108.75
 21
127.165
  0
LINE
  8
0
 10
-108.75
 20
127.165
 11
-108.531
 21
127.023
  0
LINE
  8
0
 10
-108.531
 20
127.023
 11
-108.327
 21
126.858
  0
LINE
  8
0
 10
-108.327
 20
126.858
 11
-108.142
 21
126.673
  0
LINE
  8
0
 10
-108.142
 20
126.673
 11
-107.977
 21
126.469
  0
LINE
  8
0
 10
-107.977
 20
126.469
 11
-107.835
 21
126.25
  0
LINE
  8
0
 10
-107.835
 20
126.25
 11
-107.716
 21
126.017
  0
LINE
  8
0
 10
-107.716
 20
126.017
 11
-107.622
 21
125.773
  0
LINE
  8
0
 10
-107.622
 20
125.773
 11
-107.555
 21
125.52
  0
LINE
  8
0
 10
-107.555
 20
125.52
 11
-107.514
 21
125.261
  0
LINE
  8
0
 10
-107.514
 20
125.261
 11
-107.5
 21
125
  0
LINE
  8
0
 10
-107.5
 20
125
 11
-107.514
 21
124.739
  0
LINE
  8
0
 10
-107.514
 20
124.739
 11
-107.555
 21
124.48
  0
LINE
  8
0
 10
-107.555
 20
124.48
 11
-107.622
 21
124.227
  0
LINE
  8
0
 10
-107.622
 20
124.227
 11
-107.716
 21
123.983
  0
LINE
  8
0
 10
-107.716
 20
123.983
 11
-107.835
 21
123.75
  0
LINE
  8
0
 10
-107.835
 20
123.75
 11
-107.977
 21
123.531
  0
LINE
  8
0
 10
-107.977
 20
123.531
 11
-108.142
 21
123.327
  0
LINE
  8
0
 10
-108.142
 20
123.327
 11
-108.327
 21
123.142
  0
LINE
  8
0
 10
-108.327
 20
123.142
 11
-108.531
 21
122.977
  0
LINE
  8
0
 10
-108.531
 20
122.977
 11
-108.75
 21
122.835
  0
LINE
  8
0
 10
-108.75
 20
122.835
 11
-108.983
 21
122.716
  0
LINE
  8
0
 10
-108.983
 20
122.716
 11
-109.227
 21
122.622
  0
LINE
  8
0
 10
-109.227
 20
122.622
 11
-109.48
 21
122.555
  0
LINE
  8
0
 10
-109.48
 20
122.555
 11
-109.739
 21
122.514
  0
LINE
  8
0
 10
-109.739
 20
122.514
 11
-110
 21
122.5
  0
LINE
  8
0
 10
-110
 20
122.5
 11
-110.261
 21
122.514
  0
LINE
  8
0
 10
-110.246
 20
42.8138
 11
-110.49
 21
42.8551
  0
LINE
  8
0
 10
-110.49
 20
42.8551
 11
-110.727
 21
42.9234
  0
LINE
  8
0
 10
-110.727
 20
42.9234
 11
-110.955
 21
43.0179
  0
LINE
  8
0
 10
-110.955
 20
43.0179
 11
-111.17
 21
43.1372
  0
LINE
  8
0
 10
-111.17
 20
43.1372
 11
-111.372
 21
43.28
  0
LINE
  8
0
 10
-111.372
 20
43.28
 11
-111.556
 21
43.4444
  0
LINE
  8
0
 10
-111.556
 20
43.4444
 11
-111.72
 21
43.6283
  0
LINE
  8
0
 10
-111.72
 20
43.6283
 11
-111.863
 21
43.8295
  0
LINE
  8
0
 10
-111.863
 20
43.8295
 11
-111.982
 21
44.0454
  0
LINE
  8
0
 10
-111.982
 20
44.0454
 11
-112.077
 21
44.2734
  0
LINE
  8
0
 10
-112.077
 20
44.2734
 11
-112.145
 21
44.5105
  0
LINE
  8
0
 10
-112.145
 20
44.5105
 11
-112.186
 21
44.7537
  0
LINE
  8
0
 10
-112.186
 20
44.7537
 11
-112.2
 21
45
  0
LINE
  8
0
 10
-112.2
 20
45
 11
-112.186
 21
45.2463
  0
LINE
  8
0
 10
-112.186
 20
45.2463
 11
-112.145
 21
45.4895
  0
LINE
  8
0
 10
-112.145
 20
45.4895
 11
-112.077
 21
45.7266
  0
LINE
  8
0
 10
-112.077
 20
45.7266
 11
-111.982
 21
45.9545
  0
LINE
  8
0
 10
-111.982
 20
45.9545
 11
-111.863
 21
46.1705
  0
LINE
  8
0
 10
-111.863
 20
46.1705
 11
-111.72
 21
46.3717
  0
LINE
  8
0
 10
-111.72
 20
46.3717
 11
-111.556
 21
46.5556
  0
LINE
  8
0
 10
-111.556
 20
46.5556
 11
-111.372
 21
46.72
  0
LINE
  8
0
 10
-111.372
 20
46.72
 11
-111.17
 21
46.8628
  0
LINE
  8
0
 10
-111.17
 20
46.8628
 11
-110.955
 21
46.9821
  0
LINE
  8
0
 10
-110.955
 20
46.9821
 11
-110.727
 21
47.0765
  0
LINE
  8
0
 10
-110.727
 20
47.0765
 11
-110.49
 21
47.1448
  0
LINE
  8
0
 10
-110.49
 20
47.1448
 11
-110.246
 21
47.1862
  0
LINE
  8
0
 10
-110.246
 20
47.1862
 11
-110
 21
47.2
  0
LINE
  8
0
 10
-110
 20
47.2
 11
-109.754
 21
47.1862
  0
LINE
  8
0
 10
-109.754
 20
47.1862
 11
-109.51
 21
47.1448
  0
LINE
  8
0
 10
-109.51
 20
47.1448
 11
-109.273
 21
47.0765
  0
LINE
  8
0
 10
-109.273
 20
47.0765
 11
-109.045
 21
46.9821
  0
LINE
  8
0
 10
-109.045
 20
46.9821
 11
-108.83
 21
46.8628
  0
LINE
  8
0
 10
-108.83
 20
46.8628
 11
-108.628
 21
46.72
  0
LINE
  8
0
 10
-108.628
 20
46.72
 11
-108.444
 21
46.5556
  0
LINE
  8
0
 10
-108.444
 20
46.5556
 11
-108.28
 21
46.3717
  0
LINE
  8
0
 10
-108.28
 20
46.3717
 11
-108.137
 21
46.1705
  0
LINE
  8
0
 10
-108.137
 20
46.1705
 11
-108.018
 21
45.9545
  0
LINE
  8
0
 10
-108.018
 20
45.9545
 11
-107.923
 21
45.7266
  0
LINE
  8
0
 10
-107.923
 20
45.7266
 11
-107.855
 21
45.4895
  0
LINE
  8
0
 10
-107.855
 20
45.4895
 11
-107.814
 21
45.2463
  0
LINE
  8
0
 10
-107.814
 20
45.2463
 11
-107.8
 21
45
  0
LINE
  8
0
 10
-107.8
 20
45
 11
-107.814
 21
44.7537
  0
LINE
  8
0
 10
-107.814
 20
44.7537
 11
-107.855
 21
44.5105
  0
LINE
  8
0
 10
-107.855
 20
44.5105
 11
-107.923
 21
44.2734
  0
LINE
  8
0
 10
-107.923
 20
44.2734
 11
-108.018
 21
44.0454
  0
LINE
  8
0
 10
-108.018
 20
44.0454
 11
-108.137
 21
43.8295
  0
LINE
  8
0
 10
-108.137
 20
43.8295
 11
-108.28
 21
43.6283
  0
LINE
  8
0
 10
-108.28
 20
43.6283
 11
-108.444
 21
43.4444
  0
LINE
  8
0
 10
-108.444
 20
43.4444
 11
-108.628
 21
43.28
  0
LINE
  8
0
 10
-108.628
 20
43.28
 11
-108.83
 21
43.1372
  0
LINE
  8
0
 10
-108.83
 20
43.1372
 11
-109.045
 21
43.0179
  0
LINE
  8
0
 10
-109.045
 20
43.0179
 11
-109.273
 21
42.9234
  0
LINE
  8
0
 10
-109.273
 20
42.9234
 11
-109.51
 21
42.8551
  0
LINE
  8
0
 10
-109.51
 20
42.8551
 11
-109.754
 21
42.8138
  0
LINE
  8
0
 10
-109.754
 20
42.8138
 11
-110
 21
42.8
  0
LINE
  8
0
 10
-110
 20
42.8
 11
-110.246
 21
42.8138
  0
LINE
  8
0
 10
109.754
 20
-22.1862
 11
109.51
 21
-22.1448
  0
LINE
  8
0
 10
109.51
 20
-22.1448
 11
109.273
 21
-22.0765
  0
LINE
  8
0
 10
109.273
 20
-22.0765
 11
109.045
 21
-21.9821
  0
LINE
  8
0
 10
109.045
 20
-21.9821
 11
108.83
 21
-21.8628
  0
LINE
  8
0
 10
108.83
 20
-21.8628
 11
108.628
 21
-21.72
  0
LINE
  8
0
 10
108.628
 20
-21.72
 11
108.444
 21
-21.5556
  0
LINE
  8
0
 10
108.444
 20
-21.5556
 11
108.28
 21
-21.3717
  0
LINE
  8
0
 10
108.28
 20
-21.3717
 11
108.137
 21
-21.1705
  0
LINE
  8
0
 10
108.137
 20
-21.1705
 11
108.018
 21
-20.9545
  0
LINE
  8
0
 10
108.018
 20
-20.9545
 11
107.923
 21
-20.7266
  0
LINE
  8
0
 10
107.923
 20
-20.7266
 11
107.855
 21
-20.4895
  0
LINE
  8
0
 10
107.855
 20
-20.4895
 11
107.814
 21
-20.2463
  0
LINE
  8
0
 10
107.814
 20
-20.2463
 11
107.8
 21
-20
  0
LINE
  8
0
 10
107.8
 20
-20
 11
107.814
 21
-19.7537
  0
LINE
  8
0
 10
107.814
 20
-19.7537
 11
107.855
 21
-19.5105
  0
LINE
  8
0
 10
107.855
 20
-19.5105
 11
107.923
 21
-19.2734
  0
LINE
  8
0
 10
107.923
 20
-19.2734
 11
108.018
 21
-19.0454
  0
LINE
  8
0
 10
108.018
 20
-19.0454
 11
108.137
 21
-18.8295
  0
LINE
  8
0
 10
108.137
 20
-18.8295
 11
108.28
 21
-18.6283
  0
LINE
  8
0
 10
108.28
 20
-18.6283
 11
108.444
 21
-18.4444
  0
LINE
  8
0
 10
108.444
 20
-18.4444
 11
108.628
 21
-18.28
  0
LINE
  8
0
 10
108.628
 20
-18.28
 11
108.83
 21
-18.1372
  0
LINE
  8
0
 10
108.83
 20
-18.1372
 11
109.045
 21
-18.0179
  0
LINE
  8
0
 10
109.045
 20
-18.0179
 11
109.273
 21
-17.9234
  0
LINE
  8
0
 10
109.273
 20
-17.9234
 11
109.51
 21
-17.8551
  0
LINE
  8
0
 10
109.51
 20
-17.8551
 11
109.754
 21
-17.8138
  0
LINE
  8
0
 10
109.754
 20
-17.8138
 11
110
 21
-17.8
  0
LINE
  8
0
 10
110
 20
-17.8
 11
110.246
 21
-17.8138
  0
LINE
  8
0
 10
110.246
 20
-17.8138
 11
110.49
 21
-17.8551
  0
LINE
  8
0
 10
110.49
 20
-17.8551
 11
110.727
 21
-17.9234
  0
LINE
  8
0
 10
110.727
 20
-17.9234
 11
110.955
 21
-18.0179
  0
LINE
  8
0
 10
110.955
 20
-18.0179
 11
111.17
 21
-18.1372
  0
LINE
  8
0
 10
111.17
 20
-18.1372
 11
111.372
 21
-18.28
  0
LINE
  8
0
 10
111.372
 20
-18.28
 11
111.556
 21
-18.4444
  0
LINE
  8
0
 10
111.556
 20
-18.4444
 11
111.72
 21
-18.6283
  0
LINE
  8
0
 10
111.72
 20
-18.6283
 11
111.863
 21
-18.8295
  0
LINE
  8
0
 10
111.863
 20
-18.8295
 11
111.982
 21
-19.0454
  0
LINE
  8
0
 10
111.982
 20
-19.0454
 11
112.077
 21
-19.2734
  0
LINE
  8
0
 10
112.077
 20
-19.2734
 11
112.145
 21
-19.5105
  0
LINE
  8
0
 10
112.145
 20
-19.5105
 11
112.186
 21
-19.7537
  0
LINE
  8
0
 10
112.186
 20
-19.7537
 11
112.2
 21
-20
  0
LINE
  8
0
 10
112.2
 20
-20
 11
112.186
 21
-20.2463
  0
LINE
  8
0
 10
112.186
 20
-20.2463
 11
112.145
 21
-20.4895
  0
LINE
  8
0
 10
112.145
 20
-20.4895
 11
112.077
 21
-20.7266
  0
LINE
  8
0
 10
112.077
 20
-20.7266
 11
111.982
 21
-20.9545
  0
LINE
  8
0
 10
111.982
 20
-20.9545
 11
111.863
 21
-21.1705
  0
LINE
  8
0
 10
111.863
 20
-21.1705
 11
111.72
 21
-21.3717
  0
LINE
  8
0
 10
111.72
 20
-21.3717
 11
111.556
 21
-21.5556
  0
LINE
  8
0
 10
111.556
 20
-21.5556
 11
111.372
 21
-21.72
  0
LINE
  8
0
 10
111.372
 20
-21.72
 11
111.17
 21
-21.8628
  0
LINE
  8
0
 10
111.17
 20
-21.8628
 11
110.955
 21
-21.9821
  0
LINE
  8
0
 10
110.955
 20
-21.9821
 11
110.727
 21
-22.0765
  0
LINE
  8
0
 10
110.727
 20
-22.0765
 11
110.49
 21
-22.1448
  0
LINE
  8
0
 10
110.49
 20
-22.1448
 11
110.246
 21
-22.1862
  0
LINE
  8
0
 10
110.246
 20
-22.1862
 11
110
 21
-22.2
  0
LINE
  8
0
 10
110
 20
-22.2
 11
109.754
 21
-22.1862
  0
LINE
  8
0
 10
32.2537
 20
-22.1862
 11
32.0105
 21
-22.1448
  0
LINE
  8
0
 10
32.0105
 20
-22.1448
 11
31.7734
 21
-22.0765
  0
LINE
  8
0
 10
31.7734
 20
-22.0765
 11
31.5454
 21
-21.9821
  0
LINE
  8
0
 10
31.5454
 20
-21.9821
 11
31.3295
 21
-21.8628
  0
LINE
  8
0
 10
31.3295
 20
-21.8628
 11
31.1283
 21
-21.72
  0
LINE
  8
0
 10
31.1283
 20
-21.72
 11
30.9444
 21
-21.5556
  0
LINE
  8
0
 10
30.9444
 20
-21.5556
 11
30.78
 21
-21.3717
  0
LINE
  8
0
 10
30.78
 20
-21.3717
 11
30.6372
 21
-21.1705
  0
LINE
  8
0
 10
30.6372
 20
-21.1705
 11
30.5179
 21
-20.9545
  0
LINE
  8
0
 10
30.5179
 20
-20.9545
 11
30.4234
 21
-20.7266
  0
LINE
  8
0
 10
30.4234
 20
-20.7266
 11
30.3551
 21
-20.4895
  0
LINE
  8
0
 10
30.3551
 20
-20.4895
 11
30.3138
 21
-20.2463
  0
LINE
  8
0
 10
30.3138
 20
-20.2463
 11
30.3
 21
-20
  0
LINE
  8
0
 10
30.3
 20
-20
 11
30.3138
 21
-19.7537
  0
LINE
  8
0
 10
30.3138
 20
-19.7537
 11
30.3551
 21
-19.5105
  0
LINE
  8
0
 10
30.3551
 20
-19.5105
 11
30.4234
 21
-19.2734
  0
LINE
  8
0
 10
30.4234
 20
-19.2734
 11
30.5179
 21
-19.0454
  0
LINE
  8
0
 10
30.5179
 20
-19.0454
 11
30.6372
 21
-18.8295
  0
LINE
  8
0
 10
30.6372
 20
-18.8295
 11
30.78
 21
-18.6283
  0
LINE
  8
0
 10
30.78
 20
-18.6283
 11
30.9444
 21
-18.4444
  0
LINE
  8
0
 10
30.9444
 20
-18.4444
 11
31.1283
 21
-18.28
  0
LINE
  8
0
 10
31.1283
 20
-18.28
 11
31.3295
 21
-18.1372
  0
LINE
  8
0
 10
31.3295
 20
-18.1372
 11
31.5454
 21
-18.0179
  0
LINE
  8
0
 10
31.5454
 20
-18.0179
 11
31.7734
 21
-17.9234
  0
LINE
  8
0
 10
31.7734
 20
-17.9234
 11
32.0105
 21
-17.8551
  0
LINE
  8
0
 10
32.0105
 20
-17.8551
 11
32.2537
 21
-17.8138
  0
LINE
  8
0
 10
32.2537
 20
-17.8138
 11
32.5
 21
-17.8
  0
LINE
  8
0
 10
32.5
 20
-17.8
 11
32.7463
 21
-17.8138
  0
LINE
  8
0
 10
32.7463
 20
-17.8138
 11
32.9895
 21
-17.8551
  0
LINE
  8
0
 10
32.9895
 20
-17.8551
 11
33.2266
 21
-17.9234
  0
LINE
  8
0
 10
33.2266
 20
-17.9234
 11
33.4545
 21
-18.0179
  0
LINE
  8
0
 10
33.4545
 20
-18.0179
 11
33.6705
 21
-18.1372
  0
LINE
  8
0
 10
33.6705
 20
-18.1372
 11
33.8717
 21
-18.28
  0
LINE
  8
0
 10
33.8717
 20
-18.28
 11
34.0556
 21
-18.4444
  0
LINE
  8
0
 10
34.0556
 20
-18.4444
 11
34.22
 21
-18.6283
  0
LINE
  8
0
 10
34.22
 20
-18.6283
 11
34.3628
 21
-18.8295
  0
LINE
  8
0
 10
34.3628
 20
-18.8295
 11
34.4821
 21
-19.0454
  0
LINE
  8
0
 10
34.4821
 20
-19.0454
 11
34.5765
 21
-19.2734
  0
LINE
  8
0
 10
34.5765
 20
-19.2734
 11
34.6448
 21
-19.5105
  0
LINE
  8
0
 10
34.6448
 20
-19.5105
 11
34.6862
 21
-19.7537
  0
LINE
  8
0
 10
34.6862
 20
-19.7537
 11
34.7
 21
-20
  0
LINE
  8
0
 10
34.7
 20
-20
 11
34.6862
 21
-20.2463
  0
LINE
  8
0
 10
34.6862
 20
-20.2463
 11
34.6448
 21
-20.4895
  0
LINE
  8
0
 10
34.6448
 20
-20.4895
 11
34.5765
 21
-20.7266
  0
LINE
  8
0
 10
34.5765
 20
-20.7266
 11
34.4821
 21
-20.9545
  0
LINE
  8
0
 10
34.4821
 20
-20.9545
 11
34.3628
 21
-21.1705
  0
LINE
  8
0
 10
34.3628
 20
-21.1705
 11
34.22
 21
-21.3717
  0
LINE
  8
0
 10
34.22
 20
-21.3717
 11
34.0556
 21
-21.5556
  0
LINE
  8
0
 10
34.0556
 20
-21.5556
 11
33.8717
 21
-21.72
  0
LINE
  8
0
 10
33.8717
 20
-21.72
 11
33.6705
 21
-21.8628
  0
LINE
  8
0
 10
33.6705
 20
-21.8628
 11
33.4545
 21
-21.9821
  0
LINE
  8
0
 10
33.4545
 20
-21.9821
 11
33.2266
 21
-22.0765
  0
LINE
  8
0
 10
33.2266
 20
-22.0765
 11
32.9895
 21
-22.1448
  0
LINE
  8
0
 10
32.9895
 20
-22.1448
 11
32.7463
 21
-22.1862
  0
LINE
  8
0
 10
32.7463
 20
-22.1862
 11
32.5
 21
-22.2
  0
LINE
  8
0
 10
32.5
 20
-22.2
 11
32.2537
 21
-22.1862
  0
LINE
  8
0
 10
72.2537
 20
-22.1862
 11
72.0105
 21
-22.1448
  0
LINE
  8
0
 10
72.0105
 20
-22.1448
 11
71.7734
 21
-22.0765
  0
LINE
  8
0
 10
71.7734
 20
-22.0765
 11
71.5454
 21
-21.9821
  0
LINE
  8
0
 10
71.5454
 20
-21.9821
 11
71.3295
 21
-21.8628
  0
LINE
  8
0
 10
71.3295
 20
-21.8628
 11
71.1283
 21
-21.72
  0
LINE
  8
0
 10
71.1283
 20
-21.72
 11
70.9444
 21
-21.5556
  0
LINE
  8
0
 10
70.9444
 20
-21.5556
 11
70.78
 21
-21.3717
  0
LINE
  8
0
 10
70.78
 20
-21.3717
 11
70.6372
 21
-21.1705
  0
LINE
  8
0
 10
70.6372
 20
-21.1705
 11
70.5179
 21
-20.9545
  0
LINE
  8
0
 10
70.5179
 20
-20.9545
 11
70.4234
 21
-20.7266
  0
LINE
  8
0
 10
70.4234
 20
-20.7266
 11
70.3551
 21
-20.4895
  0
LINE
  8
0
 10
70.3551
 20
-20.4895
 11
70.3138
 21
-20.2463
  0
LINE
  8
0
 10
70.3138
 20
-20.2463
 11
70.3
 21
-20
  0
LINE
  8
0
 10
70.3
 20
-20
 11
70.3138
 21
-19.7537
  0
LINE
  8
0
 10
70.3138
 20
-19.7537
 11
70.3551
 21
-19.5105
  0
LINE
  8
0
 10
70.3551
 20
-19.5105
 11
70.4234
 21
-19.2734
  0
LINE
  8
0
 10
70.4234
 20
-19.2734
 11
70.5179
 21
-19.0454
  0
LINE
  8
0
 10
70.5179
 20
-19.0454
 11
70.6372
 21
-18.8295
  0
LINE
  8
0
 10
70.6372
 20
-18.8295
 11
70.78
 21
-18.6283
  0
LINE
  8
0
 10
70.78
 20
-18.6283
 11
70.9444
 21
-18.4444
  0
LINE
  8
0
 10
70.9444
 20
-18.4444
 11
71.1283
 21
-18.28
  0
LINE
  8
0
 10
71.1283
 20
-18.28
 11
71.3295
 21
-18.1372
  0
LINE
  8
0
 10
71.3295
 20
-18.1372
 11
71.5454
 21
-18.0179
  0
LINE
  8
0
 10
71.5454
 20
-18.0179
 11
71.7734
 21
-17.9234
  0
LINE
  8
0
 10
71.7734
 20
-17.9234
 11
72.0105
 21
-17.8551
  0
LINE
  8
0
 10
72.0105
 20
-17.8551
 11
72.2537
 21
-17.8138
  0
LINE
  8
0
 10
72.2537
 20
-17.8138
 11
72.5
 21
-17.8
  0
LINE
  8
0
 10
72.5
 20
-17.8
 11
72.7463
 21
-17.8138
  0
LINE
  8
0
 10
72.7463
 20
-17.8138
 11
72.9895
 21
-17.8551
  0
LINE
  8
0
 10
72.9895
 20
-17.8551
 11
73.2266
 21
-17.9234
  0
LINE
  8
0
 10
73.2266
 20
-17.9234
 11
73.4545
 21
-18.0179
  0
LINE
  8
0
 10
73.4545
 20
-18.0179
 11
73.6705
 21
-18.1372
  0
LINE
  8
0
 10
73.6705
 20
-18.1372
 11
73.8717
 21
-18.28
  0
LINE
  8
0
 10
73.8717
 20
-18.28
 11
74.0556
 21
-18.4444
  0
LINE
  8
0
 10
74.0556
 20
-18.4444
 11
74.22
 21
-18.6283
  0
LINE
  8
0
 10
74.22
 20
-18.6283
 11
74.3628
 21
-18.8295
  0
LINE
  8
0
 10
74.3628
 20
-18.8295
 11
74.4821
 21
-19.0454
  0
LINE
  8
0
 10
74.4821
 20
-19.0454
 11
74.5765
 21
-19.2734
  0
LINE
  8
0
 10
74.5765
 20
-19.2734
 11
74.6448
 21
-19.5105
  0
LINE
  8
0
 10
74.6448
 20
-19.5105
 11
74.6862
 21
-19.7537
  0
LINE
  8
0
 10
74.6862
 20
-19.7537
 11
74.7
 21
-20
  0
LINE
  8
0
 10
74.7
 20
-20
 11
74.6862
 21
-20.2463
  0
LINE
  8
0
 10
74.6862
 20
-20.2463
 11
74.6448
 21
-20.4895
  0
LINE
  8
0
 10
74.6448
 20
-20.4895
 11
74.5765
 21
-20.7266
  0
LINE
  8
0
 10
74.5765
 20
-20.7266
 11
74.4821
 21
-20.9545
  0
LINE
  8
0
 10
74.4821
 20
-20.9545
 11
74.3628
 21
-21.1705
  0
LINE
  8
0
 10
74.3628
 20
-21.1705
 11
74.22
 21
-21.3717
  0
LINE
  8
0
 10
74.22
 20
-21.3717
 11
74.0556
 21
-21.5556
  0
LINE
  8
0
 10
74.0556
 20
-21.5556
 11
73.8717
 21
-21.72
  0
LINE
  8
0
 10
73.8717
 20
-21.72
 11
73.6705
 21
-21.8628
  0
LINE
  8
0
 10
73.6705
 20
-21.8628
 11
73.4545
 21
-21.9821
  0
LINE
  8
0
 10
73.4545
 20
-21.9821
 11
73.2266
 21
-22.0765
  0
LINE
  8
0
 10
73.2266
 20
-22.0765
 11
72.9895
 21
-22.1448
  0
LINE
  8
0
 10
72.9895
 20
-22.1448
 11
72.7463
 21
-22.1862
  0
LINE
  8
0
 10
72.7463
 20
-22.1862
 11
72.5
 21
-22.2
  0
LINE
  8
0
 10
72.5
 20
-22.2
 11
72.2537
 21
-22.1862
  0
LINE
  8
0
 10
-110.246
 20
-47.1862
 11
-110.49
 21
-47.1448
  0
LINE
  8
0
 10
-110.49
 20
-47.1448
 11
-110.727
 21
-47.0765
  0
LINE
  8
0
 10
-110.727
 20
-47.0765
 11
-110.955
 21
-46.9821
  0
LINE
  8
0
 10
-110.955
 20
-46.9821
 11
-111.17
 21
-46.8628
  0
LINE
  8
0
 10
-111.17
 20
-46.8628
 11
-111.372
 21
-46.72
  0
LINE
  8
0
 10
-111.372
 20
-46.72
 11
-111.556
 21
-46.5556
  0
LINE
  8
0
 10
-111.556
 20
-46.5556
 11
-111.72
 21
-46.3717
  0
LINE
  8
0
 10
-111.72
 20
-46.3717
 11
-111.863
 21
-46.1705
  0
LINE
  8
0
 10
-111.863
 20
-46.1705
 11
-111.982
 21
-45.9545
  0
LINE
  8
0
 10
-111.982
 20
-45.9545
 11
-112.077
 21
-45.7266
  0
LINE
  8
0
 10
-112.077
 20
-45.7266
 11
-112.145
 21
-45.4895
  0
LINE
  8
0
 10
-112.145
 20
-45.4895
 11
-112.186
 21
-45.2463
  0
LINE
  8
0
 10
-112.186
 20
-45.2463
 11
-112.2
 21
-45
  0
LINE
  8
0
 10
-112.2
 20
-45
 11
-112.186
 21
-44.7537
  0
LINE
  8
0
 10
-112.186
 20
-44.7537
 11
-112.145
 21
-44.5105
  0
LINE
  8
0
 10
-112.145
 20
-44.5105
 11
-112.077
 21
-44.2734
  0
LINE
  8
0
 10
-112.077
 20
-44.2734
 11
-111.982
 21
-44.0454
  0
LINE
  8
0
 10
-111.982
 20
-44.0454
 11
-111.863
 21
-43.8295
  0
LINE
  8
0
 10
-111.863
 20
-43.8295
 11
-111.72
 21
-43.6283
  0
LINE
  8
0
 10
-111.72
 20
-43.6283
 11
-111.556
 21
-43.4444
  0
LINE
  8
0
 10
-111.556
 20
-43.4444
 11
-111.372
 21
-43.28
  0
LINE
  8
0
 10
-111.372
 20
-43.28
 11
-111.17
 21
-43.1372
  0
LINE
  8
0
 10
-111.17
 20
-43.1372
 11
-110.955
 21
-43.0179
  0
LINE
  8
0
 10
-110.955
 20
-43.0179
 11
-110.727
 21
-42.9234
  0
LINE
  8
0
 10
-110.727
 20
-42.9234
 11
-110.49
 21
-42.8551
  0
LINE
  8
0
 10
-110.49
 20
-42.8551
 11
-110.246
 21
-42.8138
  0
LINE
  8
0
 10
-110.246
 20
-42.8138
 11
-110
 21
-42.8
  0
LINE
  8
0
 10
-110
 20
-42.8
 11
-109.754
 21
-42.8138
  0
LINE
  8
0
 10
-109.754
 20
-42.8138
 11
-109.51
 21
-42.8551
  0
LINE
  8
0
 10
-109.51
 20
-42.8551
 11
-109.273
 21
-42.9234
  0
LINE
  8
0
 10
-109.273
 20
-42.9234
 11
-109.045
 21
-43.0179
  0
LINE
  8
0
 10
-109.045
 20
-43.0179
 11
-108.83
 21
-43.1372
  0
LINE
  8
0
 10
-108.83
 20
-43.1372
 11
-108.628
 21
-43.28
  0
LINE
  8
0
 10
-108.628
 20
-43.28
 11
-108.444
 21
-43.4444
  0
LINE
  8
0
 10
-108.444
 20
-43.4444
 11
-108.28
 21
-43.6283
  0
LINE
  8
0
 10
-108.28
 20
-43.6283
 11
-108.137
 21
-43.8295
  0
LINE
  8
0
 10
-108.137
 20
-43.8295
 11
-108.018
 21
-44.0454
  0
LINE
  8
0
 10
-108.018
 20
-44.0454
 11
-107.923
 21
-44.2734
  0
LINE
  8
0
 10
-107.923
 20
-44.2734
 11
-107.855
 21
-44.5105
  0
LINE
  8
0
 10
-107.855
 20
-44.5105
 11
-107.814
 21
-44.7537
  0
LINE
  8
0
 10
-107.814
 20
-44.7537
 11
-107.8
 21
-45
  0
LINE
  8
0
 10
-107.8
 20
-45
 11
-107.814
 21
-45.2463
  0
LINE
  8
0
 10
-107.814
 20
-45.2463
 11
-107.855
 21
-45.4895
  0
LINE
  8
0
 10
-107.855
 20
-45.4895
 11
-107.923
 21
-45.7266
  0
LINE
  8
0
 10
-107.923
 20
-45.7266
 11
-108.018
 21
-45.9545
  0
LINE
  8
0
 10
-108.018
 20
-45.9545
 11
-108.137
 21
-46.1705
  0
LINE
  8
0
 10
-108.137
 20
-46.1705
 11
-108.28
 21
-46.3717
  0
LINE
  8
0
 10
-108.28
 20
-46.3717
 11
-108.444
 21
-46.5556
  0
LINE
  8
0
 10
-108.444
 20
-46.5556
 11
-108.628
 21
-46.72
  0
LINE
  8
0
 10
-108.628
 20
-46.72
 11
-108.83
 21
-46.8628
  0
LINE
  8
0
 10
-108.83
 20
-46.8628
 11
-109.045
 21
-46.9821
  0
LINE
  8
0
 10
-109.045
 20
-46.9821
 11
-109.273
 21
-47.0765
  0
LINE
  8
0
 10
-109.273
 20
-47.0765
 11
-109.51
 21
-47.1448
  0
LINE
  8
0
 10
-109.51
 20
-47.1448
 11
-109.754
 21
-47.1862
  0
LINE
  8
0
 10
-109.754
 20
-47.1862
 11
-110
 21
-47.2
  0
LINE
  8
0
 10
-110
 20
-47.2
 11
-110.246
 21
-47.1862
  0
LINE
  8
0
 10
-110.246
 20
-137.186
 11
-110.49
 21
-137.145
  0
LINE
  8
0
 10
-110.49
 20
-137.145
 11
-110.727
 21
-137.077
  0
LINE
  8
0
 10
-110.727
 20
-137.077
 11
-110.955
 21
-136.982
  0
LINE
  8
0
 10
-110.955
 20
-136.982
 11
-111.17
 21
-136.863
  0
LINE
  8
0
 10
-111.17
 20
-136.863
 11
-111.372
 21
-136.72
  0
LINE
  8
0
 10
-111.372
 20
-136.72
 11
-111.556
 21
-136.556
  0
LINE
  8
0
 10
-111.556
 20
-136.556
 11
-111.72
 21
-136.372
  0
LINE
  8
0
 10
-111.72
 20
-136.372
 11
-111.863
 21
-136.17
  0
LINE
  8
0
 10
-111.863
 20
-136.17
 11
-111.982
 21
-135.955
  0
LINE
  8
0
 10
-111.982
 20
-135.955
 11
-112.077
 21
-135.727
  0
LINE
  8
0
 10
-112.077
 20
-135.727
 11
-112.145
 21
-135.49
  0
LINE
  8
0
 10
-112.145
 20
-135.49
 11
-112.186
 21
-135.246
  0
LINE
  8
0
 10
-112.186
 20
-135.246
 11
-112.2
 21
-135
  0
LINE
  8
0
 10
-112.2
 20
-135
 11
-112.186
 21
-134.754
  0
LINE
  8
0
 10
-112.186
 20
-134.754
 11
-112.145
 21
-134.51
  0
LINE
  8
0
 10
-112.145
 20
-134.51
 11
-112.077
 21
-134.273
  0
LINE
  8
0
 10
-112.077
 20
-134.273
 11
-111.982
 21
-134.045
  0
LINE
  8
0
 10
-111.982
 20
-134.045
 11
-111.863
 21
-133.83
  0
LINE
  8
0
 10
-111.863
 20
-133.83
 11
-111.72
 21
-133.628
  0
LINE
  8
0
 10
-111.72
 20
-133.628
 11
-111.556
 21
-133.444
  0
LINE
  8
0
 10
-111.556
 20
-133.444
 11
-111.372
 21
-133.28
  0
LINE
  8
0
 10
-111.372
 20
-133.28
 11
-111.17
 21
-133.137
  0
LINE
  8
0
 10
-111.17
 20
-133.137
 11
-110.955
 21
-133.018
  0
LINE
  8
0
 10
-110.955
 20
-133.018
 11
-110.727
 21
-132.923
  0
LINE
  8
0
 10
-110.727
 20
-132.923
 11
-110.49
 21
-132.855
  0
LINE
  8
0
 10
-110.49
 20
-132.855
 11
-110.246
 21
-132.814
  0
LINE
  8
0
 10
-110.246
 20
-132.814
 11
-110
 21
-132.8
  0
LINE
  8
0
 10
-110
 20
-132.8
 11
-109.754
 21
-132.814
  0
LINE
  8
0
 10
-109.754
 20
-132.814
 11
-109.51
 21
-132.855
  0
LINE
  8
0
 10
-109.51
 20
-132.855
 11
-109.273
 21
-132.923
  0
LINE
  8
0
 10
-109.273
 20
-132.923
 11
-109.045
 21
-133.018
  0
LINE
  8
0
 10
-109.045
 20
-133.018
 11
-108.83
 21
-133.137
  0
LINE
  8
0
 10
-108.83
 20
-133.137
 11
-108.628
 21
-133.28
  0
LINE
  8
0
 10
-108.628
 20
-133.28
 11
-108.444
 21
-133.444
  0
LINE
  8
0
 10
-108.444
 20
-133.444
 11
-108.28
 21
-133.628
  0
LINE
  8
0
 10
-108.28
 20
-133.628
 11
-108.137
 21
-133.83
  0
LINE
  8
0
 10
-108.137
 20
-133.83
 11
-108.018
 21
-134.045
  0
LINE
  8
0
 10
-108.018
 20
-134.045
 11
-107.923
 21
-134.273
  0
LINE
  8
0
 10
-107.923
 20
-134.273
 11
-107.855
 21
-134.51
  0
LINE
  8
0
 10
-107.855
 20
-134.51
 11
-107.814
 21
-134.754
  0
LINE
  8
0
 10
-107.814
 20
-134.754
 11
-107.8
 21
-135
  0
LINE
  8
0
 10
-107.8
 20
-135
 11
-107.814
 21
-135.246
  0
LINE
  8
0
 10
-107.814
 20
-135.246
 11
-107.855
 21
-135.49
  0
LINE
  8
0
 10
-107.855
 20
-135.49
 11
-107.923
 21
-135.727
  0
LINE
  8
0
 10
-107.923
 20
-135.727
 11
-108.018
 21
-135.955
  0
LINE
  8
0
 10
-108.018
 20
-135.955
 11
-108.137
 21
-136.17
  0
LINE
  8
0
 10
-108.137
 20
-136.17
 11
-108.28
 21
-136.372
  0
LINE
  8
0
 10
-108.28
 20
-136.372
 11
-108.444
 21
-136.556
  0
LINE
  8
0
 10
-108.444
 20
-136.556
 11
-108.628
 21
-136.72
  0
LINE
  8
0
 10
-108.628
 20
-136.72
 11
-108.83
 21
-136.863
  0
LINE
  8
0
 10
-108.83
 20
-136.863
 11
-109.045
 21
-136.982
  0
LINE
  8
0
 10
-109.045
 20
-136.982
 11
-109.273
 21
-137.077
  0
LINE
  8
0
 10
-109.273
 20
-137.077
 11
-109.51
 21
-137.145
  0
LINE
  8
0
 10
-109.51
 20
-137.145
 11
-109.754
 21
-137.186
  0
LINE
  8
0
 10
-109.754
 20
-137.186
 11
-110
 21
-137.2
  0
LINE
  8
0
 10
-110
 20
-137.2
 11
-110.246
 21
-137.186
  0
LINE
  8
0
 10
-80.2463
 20
-147.186
 11
-80.4895
 21
-147.145
  0
LINE
  8
0
 10
-80.4895
 20
-147.145
 11
-80.7266
 21
-147.077
  0
LINE
  8
0
 10
-80.7266
 20
-147.077
 11
-80.9545
 21
-146.982
  0
LINE
  8
0
 10
-80.9545
 20
-146.982
 11
-81.1705
 21
-146.863
  0
LINE
  8
0
 10
-81.1705
 20
-146.863
 11
-81.3717
 21
-146.72
  0
LINE
  8
0
 10
-81.3717
 20
-146.72
 11
-81.5556
 21
-146.556
  0
LINE
  8
0
 10
-81.5556
 20
-146.556
 11
-81.72
 21
-146.372
  0
LINE
  8
0
 10
-81.72
 20
-146.372
 11
-81.8628
 21
-146.17
  0
LINE
  8
0
 10
-81.8628
 20
-146.17
 11
-81.9821
 21
-145.955
  0
LINE
  8
0
 10
-81.9821
 20
-145.955
 11
-82.0765
 21
-145.727
  0
LINE
  8
0
 10
-82.0765
 20
-145.727
 11
-82.1448
 21
-145.49
  0
LINE
  8
0
 10
-82.1448
 20
-145.49
 11
-82.1862
 21
-145.246
  0
LINE
  8
0
 10
-82.1862
 20
-145.246
 11
-82.2
 21
-145
  0
LINE
  8
0
 10
-82.2
 20
-145
 11
-82.1862
 21
-144.754
  0
LINE
  8
0
 10
-82.1862
 20
-144.754
 11
-82.1448
 21
-144.51
  0
LINE
  8
0
 10
-82.1448
 20
-144.51
 11
-82.0765
 21
-144.273
  0
LINE
  8
0
 10
-82.0765
 20
-144.273
 11
-81.9821
 21
-144.045
  0
LINE
  8
0
 10
-81.9821
 20
-144.045
 11
-81.8628
 21
-143.83
  0
LINE
  8
0
 10
-81.8628
 20
-143.83
 11
-81.72
 21
-143.628
  0
LINE
  8
0
 10
-81.72
 20
-143.628
 11
-81.5556
 21
-143.444
  0
LINE
  8
0
 10
-81.5556
 20
-143.444
 11
-81.3717
 21
-143.28
  0
LINE
  8
0
 10
-81.3717
 20
-143.28
 11
-81.1705
 21
-143.137
  0
LINE
  8
0
 10
-81.1705
 20
-143.137
 11
-80.9545
 21
-143.018
  0
LINE
  8
0
 10
-80.9545
 20
-143.018
 11
-80.7266
 21
-142.923
  0
LINE
  8
0
 10
-80.7266
 20
-142.923
 11
-80.4895
 21
-142.855
  0
LINE
  8
0
 10
-80.4895
 20
-142.855
 11
-80.2463
 21
-142.814
  0
LINE
  8
0
 10
-80.2463
 20
-142.814
 11
-80
 21
-142.8
  0
LINE
  8
0
 10
-80
 20
-142.8
 11
-79.7537
 21
-142.814
  0
LINE
  8
0
 10
-79.7537
 20
-142.814
 11
-79.5105
 21
-142.855
  0
LINE
  8
0
 10
-79.5105
 20
-142.855
 11
-79.2734
 21
-142.923
  0
LINE
  8
0
 10
-79.2734
 20
-142.923
 11
-79.0454
 21
-143.018
  0
LINE
  8
0
 10
-79.0454
 20
-143.018
 11
-78.8295
 21
-143.137
  0
LINE
  8
0
 10
-78.8295
 20
-143.137
 11
-78.6283
 21
-143.28
  0
LINE
  8
0
 10
-78.6283
 20
-143.28
 11
-78.4444
 21
-143.444
  0
LINE
  8
0
 10
-78.4444
 20
-143.444
 11
-78.28
 21
-143.628
  0
LINE
  8
0
 10
-78.28
 20
-143.628
 11
-78.1372
 21
-143.83
  0
LINE
  8
0
 10
-78.1372
 20
-143.83
 11
-78.0179
 21
-144.045
  0
LINE
  8
0
 10
-78.0179
 20
-144.045
 11
-77.9234
 21
-144.273
  0
LINE
  8
0
 10
-77.9234
 20
-144.273
 11
-77.8551
 21
-144.51
  0
LINE
  8
0
 10
-77.8551
 20
-144.51
 11
-77.8138
 21
-144.754
  0
LINE
  8
0
 10
-77.8138
 20
-144.754
 11
-77.8
 21
-145
  0
LINE
  8
0
 10
-77.8
 20
-145
 11
-77.8138
 21
-145.246
  0
LINE
  8
0
 10
-77.8138
 20
-145.246
 11
-77.8551
 21
-145.49
  0
LINE
  8
0
 10
-77.8551
 20
-145.49
 11
-77.9234
 21
-145.727
  0
LINE
  8
0
 10
-77.9234
 20
-145.727
 11
-78.0179
 21
-145.955
  0
LINE
  8
0
 10
-78.0179
 20
-145.955
 11
-78.1372
 21
-146.17
  0
LINE
  8
0
 10
-78.1372
 20
-146.17
 11
-78.28
 21
-146.372
  0
LINE
  8
0
 10
-78.28
 20
-146.372
 11
-78.4444
 21
-146.556
  0
LINE
  8
0
 10
-78.4444
 20
-146.556
 11
-78.6283
 21
-146.72
  0
LINE
  8
0
 10
-78.6283
 20
-146.72
 11
-78.8295
 21
-146.863
  0
LINE
  8
0
 10
-78.8295
 20
-146.863
 11
-79.0454
 21
-146.982
  0
LINE
  8
0
 10
-79.0454
 20
-146.982
 11
-79.2734
 21
-147.077
  0
LINE
  8
0
 10
-79.2734
 20
-147.077
 11
-79.5105
 21
-147.145
  0
LINE
  8
0
 10
-79.5105
 20
-147.145
 11
-79.7537
 21
-147.186
  0
LINE
  8
0
 10
-79.7537
 20
-147.186
 11
-80
 21
-147.2
  0
LINE
  8
0
 10
-80
 20
-147.2
 11
-80.2463
 21
-147.186
  0
LINE
  8
0
 10
9.75368
 20
-147.186
 11
9.51045
 21
-147.145
  0
LINE
  8
0
 10
9.51045
 20
-147.145
 11
9.27338
 21
-147.077
  0
LINE
  8
0
 10
9.27338
 20
-147.077
 11
9.04544
 21
-146.982
  0
LINE
  8
0
 10
9.04544
 20
-146.982
 11
8.82953
 21
-146.863
  0
LINE
  8
0
 10
8.82953
 20
-146.863
 11
8.62831
 21
-146.72
  0
LINE
  8
0
 10
8.62831
 20
-146.72
 11
8.44435
 21
-146.556
  0
LINE
  8
0
 10
8.44435
 20
-146.556
 11
8.27997
 21
-146.372
  0
LINE
  8
0
 10
8.27997
 20
-146.372
 11
8.13719
 21
-146.17
  0
LINE
  8
0
 10
8.13719
 20
-146.17
 11
8.01787
 21
-145.955
  0
LINE
  8
0
 10
8.01787
 20
-145.955
 11
7.92345
 21
-145.727
  0
LINE
  8
0
 10
7.92345
 20
-145.727
 11
7.85515
 21
-145.49
  0
LINE
  8
0
 10
7.85515
 20
-145.49
 11
7.81383
 21
-145.246
  0
LINE
  8
0
 10
7.81383
 20
-145.246
 11
7.79999
 21
-145
  0
LINE
  8
0
 10
7.79999
 20
-145
 11
7.81383
 21
-144.754
  0
LINE
  8
0
 10
7.81383
 20
-144.754
 11
7.85515
 21
-144.51
  0
LINE
  8
0
 10
7.85515
 20
-144.51
 11
7.92345
 21
-144.273
  0
LINE
  8
0
 10
7.92345
 20
-144.273
 11
8.01787
 21
-144.045
  0
LINE
  8
0
 10
8.01787
 20
-144.045
 11
8.13719
 21
-143.83
  0
LINE
  8
0
 10
8.13719
 20
-143.83
 11
8.27997
 21
-143.628
  0
LINE
  8
0
 10
8.27997
 20
-143.628
 11
8.44435
 21
-143.444
  0
LINE
  8
0
 10
8.44435
 20
-143.444
 11
8.62831
 21
-143.28
  0
LINE
  8
0
 10
8.62831
 20
-143.28
 11
8.82953
 21
-143.137
  0
LINE
  8
0
 10
8.82953
 20
-143.137
 11
9.04544
 21
-143.018
  0
LINE
  8
0
 10
9.04544
 20
-143.018
 11
9.27338
 21
-142.923
  0
LINE
  8
0
 10
9.27338
 20
-142.923
 11
9.51045
 21
-142.855
  0
LINE
  8
0
 10
9.51045
 20
-142.855
 11
9.75368
 21
-142.814
  0
LINE
  8
0
 10
9.75368
 20
-142.814
 11
10
 21
-142.8
  0
LINE
  8
0
 10
10
 20
-142.8
 11
10.2463
 21
-142.814
  0
LINE
  8
0
 10
10.2463
 20
-142.814
 11
10.4895
 21
-142.855
  0
LINE
  8
0
 10
10.4895
 20
-142.855
 11
10.7266
 21
-142.923
  0
LINE
  8
0
 10
10.7266
 20
-142.923
 11
10.9545
 21
-143.018
  0
LINE
  8
0
 10
10.9545
 20
-143.018
 11
11.1705
 21
-143.137
  0
LINE
  8
0
 10
11.1705
 20
-143.137
 11
11.3717
 21
-143.28
  0
LINE
  8
0
 10
11.3717
 20
-143.28
 11
11.5556
 21
-143.444
  0
LINE
  8
0
 10
11.5556
 20
-143.444
 11
11.72
 21
-143.628
  0
LINE
  8
0
 10
11.72
 20
-143.628
 11
11.8628
 21
-143.83
  0
LINE
  8
0
 10
11.8628
 20
-143.83
 11
11.9821
 21
-144.045
  0
LINE
  8
0
 10
11.9821
 20
-144.045
 11
12.0765
 21
-144.273
  0
LINE
  8
0
 10
12.0765
 20
-144.273
 11
12.1448
 21
-144.51
  0
LINE
  8
0
 10
12.1448
 20
-144.51
 11
12.1862
 21
-144.754
  0
LINE
  8
0
 10
12.1862
 20
-144.754
 11
12.2
 21
-145
  0
LINE
  8
0
 10
12.2
 20
-145
 11
12.1862
 21
-145.246
  0
LINE
  8
0
 10
12.1862
 20
-145.246
 11
12.1448
 21
-145.49
  0
LINE
  8
0
 10
12.1448
 20
-145.49
 11
12.0765
 21
-145.727
  0
LINE
  8
0
 10
12.0765
 20
-145.727
 11
11.9821
 21
-145.955
  0
LINE
  8
0
 10
11.9821
 20
-145.955
 11
11.8628
 21
-146.17
  0
LINE
  8
0
 10
11.8628
 20
-146.17
 11
11.72
 21
-146.372
  0
LINE
  8
0
 10
11.72
 20
-146.372
 11
11.5556
 21
-146.556
  0
LINE
  8
0
 10
11.5556
 20
-146.556
 11
11.3717
 21
-146.72
  0
LINE
  8
0
 10
11.3717
 20
-146.72
 11
11.1705
 21
-146.863
  0
LINE
  8
0
 10
11.1705
 20
-146.863
 11
10.9545
 21
-146.982
  0
LINE
  8
0
 10
10.9545
 20
-146.982
 11
10.7266
 21
-147.077
  0
LINE
  8
0
 10
10.7266
 20
-147.077
 11
10.4895
 21
-147.145
  0
LINE
  8
0
 10
10.4895
 20
-147.145
 11
10.2463
 21
-147.186
  0
LINE
  8
0
 10
10.2463
 20
-147.186
 11
10
 21
-147.2
  0
LINE
  8
0
 10
10
 20
-147.2
 11
9.75368
 21
-147.186
  0
LINE
  8
0
 10
99.7537
 20
-147.186
 11
99.5105
 21
-147.145
  0
LINE
  8
0
 10
99.5105
 20
-147.145
 11
99.2734
 21
-147.077
  0
LINE
  8
0
 10
99.2734
 20
-147.077
 11
99.0454
 21
-146.982
  0
LINE
  8
0
 10
99.0454
 20
-146.982
 11
98.8295
 21
-146.863
  0
LINE
  8
0
 10
98.8295
 20
-146.863
 11
98.6283
 21
-146.72
  0
LINE
  8
0
 10
98.6283
 20
-146.72
 11
98.4444
 21
-146.556
  0
LINE
  8
0
 10
98.4444
 20
-146.556
 11
98.28
 21
-146.372
  0
LINE
  8
0
 10
98.28
 20
-146.372
 11
98.1372
 21
-146.17
  0
LINE
  8
0
 10
98.1372
 20
-146.17
 11
98.0179
 21
-145.955
  0
LINE
  8
0
 10
98.0179
 20
-145.955
 11
97.9234
 21
-145.727
  0
LINE
  8
0
 10
97.9234
 20
-145.727
 11
97.8551
 21
-145.49
  0
LINE
  8
0
 10
97.8551
 20
-145.49
 11
97.8138
 21
-145.246
  0
LINE
  8
0
 10
97.8138
 20
-145.246
 11
97.8
 21
-145
  0
LINE
  8
0
 10
97.8
 20
-145
 11
97.8138
 21
-144.754
  0
LINE
  8
0
 10
97.8138
 20
-144.754
 11
97.8551
 21
-144.51
  0
LINE
  8
0
 10
97.8551
 20
-144.51
 11
97.9234
 21
-144.273
  0
LINE
  8
0
 10
97.9234
 20
-144.273
 11
98.0179
 21
-144.045
  0
LINE
  8
0
 10
98.0179
 20
-144.045
 11
98.1372
 21
-143.83
  0
LINE
  8
0
 10
98.1372
 20
-143.83
 11
98.28
 21
-143.628
  0
LINE
  8
0
 10
98.28
 20
-143.628
 11
98.4444
 21
-143.444
  0
LINE
  8
0
 10
98.4444
 20
-143.444
 11
98.6283
 21
-143.28
  0
LINE
  8
0
 10
98.6283
 20
-143.28
 11
98.8295
 21
-143.137
  0
LINE
  8
0
 10
98.8295
 20
-143.137
 11
99.0454
 21
-143.018
  0
LINE
  8
0
 10
99.0454
 20
-143.018
 11
99.2734
 21
-142.923
  0
LINE
  8
0
 10
99.2734
 20
-142.923
 11
99.5105
 21
-142.855
  0
LINE
  8
0
 10
99.5105
 20
-142.855
 11
99.7537
 21
-142.814
  0
LINE
  8
0
 10
99.7537
 20
-142.814
 11
100
 21
-142.8
  0
LINE
  8
0
 10
100
 20
-142.8
 11
100.246
 21
-142.814
  0
LINE
  8
0
 10
100.246
 20
-142.814
 11
100.49
 21
-142.855
  0
LINE
  8
0
 10
100.49
 20
-142.855
 11
100.727
 21
-142.923
  0
LINE
  8
0
 10
100.727
 20
-142.923
 11
100.955
 21
-143.018
  0
LINE
  8
0
 10
100.955
 20
-143.018
 11
101.17
 21
-143.137
  0
LINE
  8
0
 10
101.17
 20
-143.137
 11
101.372
 21
-143.28
  0
LINE
  8
0
 10
101.372
 20
-143.28
 11
101.556
 21
-143.444
  0
LINE
  8
0
 10
101.556
 20
-143.444
 11
101.72
 21
-143.628
  0
LINE
  8
0
 10
101.72
 20
-143.628
 11
101.863
 21
-143.83
  0
LINE
  8
0
 10
101.863
 20
-143.83
 11
101.982
 21
-144.045
  0
LINE
  8
0
 10
101.982
 20
-144.045
 11
102.077
 21
-144.273
  0
LINE
  8
0
 10
102.077
 20
-144.273
 11
102.145
 21
-144.51
  0
LINE
  8
0
 10
102.145
 20
-144.51
 11
102.186
 21
-144.754
  0
LINE
  8
0
 10
102.186
 20
-144.754
 11
102.2
 21
-145
  0
LINE
  8
0
 10
102.2
 20
-145
 11
102.186
 21
-145.246
  0
LINE
  8
0
 10
102.186
 20
-145.246
 11
102.145
 21
-145.49
  0
LINE
  8
0
 10
102.145
 20
-145.49
 11
102.077
 21
-145.727
  0
LINE
  8
0
 10
102.077
 20
-145.727
 11
101.982
 21
-145.955
  0
LINE
  8
0
 10
101.982
 20
-145.955
 11
101.863
 21
-146.17
  0
LINE
  8
0
 10
101.863
 20
-146.17
 11
101.72
 21
-146.372
  0
LINE
  8
0
 10
101.72
 20
-146.372
 11
101.556
 21
-146.556
  0
LINE
  8
0
 10
101.556
 20
-146.556
 11
101.372
 21
-146.72
  0
LINE
  8
0
 10
101.372
 20
-146.72
 11
101.17
 21
-146.863
  0
LINE
  8
0
 10
101.17
 20
-146.863
 11
100.955
 21
-146.982
  0
LINE
  8
0
 10
100.955
 20
-146.982
 11
100.727
 21
-147.077
  0
LINE
  8
0
 10
100.727
 20
-147.077
 11
100.49
 21
-147.145
  0
LINE
  8
0
 10
100.49
 20
-147.145
 11
100.246
 21
-147.186
  0
LINE
  8
0
 10
100.246
 20
-147.186
 11
100
 21
-147.2
  0
LINE
  8
0
 10
100
 20
-147.2
 11
99.7537
 21
-147.186
  0
ENDSEC
  0
SECTION
  2
OBJECTS
  0
DICTIONARY
  0
ENDSEC
  0
EOF
